<svg width="70" height="73" viewBox="0 0 70 73" fill="none" xmlns="http://www.w3.org/2000/svg">
<g filter="url(#filter0_d_2435_77247)">
<rect x="6" width="58" height="58" rx="14" fill="white"/>
<rect x="6.5" y="0.5" width="57" height="57" rx="13.5" stroke="#EAEAEA"/>
</g>
<g opacity="0.4" filter="url(#filter1_f_2435_77247)">
<path d="M38.3774 39.742C38.4604 39.812 38.5572 39.861 38.6678 39.889C38.7784 39.917 38.889 39.9309 38.9996 39.9309C39.1655 39.9309 39.3245 39.903 39.4765 39.847C39.6148 39.777 39.7392 39.6861 39.8498 39.5741C39.9604 39.4622 40.0503 39.3363 40.1194 39.1964C40.1747 39.0425 40.2023 38.8815 40.2023 38.7136C40.2023 38.056 40.2023 37.0626 40.2023 35.7333C40.2023 35.5655 40.1747 35.4046 40.1194 35.2506C40.0503 35.1107 39.9604 34.9848 39.8498 34.8729C39.7392 34.7609 39.6148 34.67 39.4765 34.6C39.3245 34.544 39.1655 34.5161 38.9996 34.5161C38.8337 34.5161 38.6816 34.544 38.5433 34.6C38.3913 34.67 38.2599 34.7609 38.1493 34.8729C38.0387 34.9848 37.9558 35.1107 37.9005 35.2506C37.8314 35.4046 37.7968 35.5655 37.7968 35.7333C37.7968 36.2091 37.7968 36.9297 37.7968 37.8951C37.7968 38.035 37.7484 38.161 37.6516 38.2729C37.541 38.3848 37.4097 38.4408 37.2576 38.4408C37.1055 38.4408 36.9742 38.3848 36.8636 38.2729C36.7668 38.161 36.7185 38.035 36.7185 37.8951C36.7185 37.4054 36.7185 36.6848 36.7185 35.7333C36.7185 35.4115 36.7737 35.1107 36.8844 34.8309C37.0088 34.537 37.1747 34.2852 37.382 34.0753C37.5894 33.8654 37.8314 33.7045 38.1079 33.5926C38.3982 33.4667 38.6954 33.4037 38.9996 33.4037C39.3175 33.4037 39.6217 33.4667 39.912 33.5926C40.1885 33.7045 40.4304 33.8654 40.6378 34.0753C40.8452 34.2852 41.0042 34.537 41.1148 34.8309C41.2392 35.1107 41.3014 35.4115 41.3014 35.7333C41.3014 36.391 41.3014 37.3844 41.3014 38.7136C41.3014 39.0355 41.2392 39.3363 41.1148 39.6161C41.0042 39.91 40.8452 40.1548 40.6378 40.3507C40.4304 40.5606 40.1885 40.7285 39.912 40.8544C39.6217 40.9803 39.3175 41.0433 38.9996 41.0433C38.7784 41.0433 38.5641 41.0153 38.3567 40.9593C38.1632 40.8894 37.9765 40.7984 37.7968 40.6865C37.6171 40.5746 37.4581 40.4417 37.3198 40.2877C37.1816 40.1338 37.0641 39.9659 36.9673 39.784C36.8982 39.6441 36.8844 39.4972 36.9258 39.3433C36.9673 39.2034 37.0572 39.0984 37.1954 39.0284C37.3337 38.9585 37.4719 38.9445 37.6102 38.9865C37.7622 39.0425 37.8728 39.1404 37.9419 39.2803C37.9834 39.3783 38.0456 39.4622 38.1286 39.5322C38.1977 39.6161 38.2807 39.6861 38.3774 39.742ZM41.8406 32.816C42.2139 33.1798 42.5042 33.6066 42.7115 34.0963C42.9327 34.586 43.0503 35.1107 43.0641 35.6704C43.0641 35.8243 43.0088 35.9572 42.8982 36.0692C42.7876 36.1811 42.6631 36.2371 42.5249 36.2371C42.3728 36.2371 42.2415 36.1811 42.1309 36.0692C42.0203 35.9712 41.965 35.8453 41.965 35.6914C41.9512 35.2856 41.8682 34.9008 41.7161 34.537C41.5641 34.1872 41.3498 33.8724 41.0733 33.5926C40.8106 33.3267 40.4995 33.1169 40.1401 32.9629C39.7945 32.809 39.4143 32.7321 38.9996 32.7321C38.7231 32.7321 38.4535 32.7741 38.1908 32.858C37.9281 32.928 37.6862 33.0329 37.465 33.1728C37.3406 33.2568 37.2023 33.2848 37.0503 33.2568C36.8982 33.2148 36.7876 33.1309 36.7185 33.0049C36.6355 32.865 36.6079 32.7251 36.6355 32.5852C36.677 32.4313 36.7599 32.3123 36.8844 32.2284C37.2023 32.0465 37.5341 31.8996 37.8797 31.7876C38.2392 31.6897 38.6125 31.6407 38.9996 31.6407C39.5526 31.6407 40.0779 31.7456 40.5756 31.9555C41.0595 32.1654 41.4811 32.4523 41.8406 32.816ZM38.9996 39.2803C38.8475 39.2803 38.7231 39.2243 38.6263 39.1124C38.5157 39.0005 38.4604 38.8675 38.4604 38.7136C38.4604 38.056 38.4604 37.0626 38.4604 35.7333C38.4604 35.5794 38.5157 35.4465 38.6263 35.3346C38.7231 35.2227 38.8475 35.1667 38.9996 35.1667C39.1516 35.1667 39.283 35.2227 39.3936 35.3346C39.5042 35.4465 39.5595 35.5794 39.5595 35.7333C39.5595 36.391 39.5595 37.3844 39.5595 38.7136C39.5595 38.8675 39.5042 39.0005 39.3936 39.1124C39.283 39.2243 39.1516 39.2803 38.9996 39.2803ZM32.1148 44.5902C31.9627 44.5902 31.8314 44.5343 31.7208 44.4224C31.6101 44.3104 31.5549 44.1775 31.5549 44.0236C31.5549 43.8697 31.6101 43.7437 31.7208 43.6458C31.8314 43.5339 31.9627 43.4779 32.1148 43.4779C32.1701 43.4779 32.253 43.4779 32.3636 43.4779C32.6678 43.4779 32.9719 43.5129 33.2761 43.5828C33.594 43.6528 33.9189 43.7437 34.2507 43.8557C34.4028 43.9116 34.5065 44.0096 34.5618 44.1495C34.6309 44.2894 34.6447 44.4293 34.6033 44.5693C34.5479 44.7092 34.4512 44.8141 34.3129 44.8841C34.1747 44.954 34.0364 44.961 33.8982 44.9051C33.594 44.7931 33.3175 44.7162 33.0687 44.6742C32.8198 44.6182 32.5917 44.5902 32.3843 44.5902C32.329 44.5902 32.2392 44.5902 32.1148 44.5902ZM31.4512 42.2606C31.4512 42.1067 31.5065 41.9738 31.6171 41.8618C31.7277 41.7639 31.859 41.7149 32.0111 41.7149C32.094 41.7149 32.2184 41.7149 32.3843 41.7149C32.6194 41.7149 32.8544 41.7289 33.0894 41.7569C33.3245 41.7849 33.5526 41.8268 33.7737 41.8828C33.995 41.9248 34.2161 41.9807 34.4374 42.0507C34.6585 42.1207 34.8728 42.1976 35.0802 42.2816C35.5088 42.4355 35.9235 42.5964 36.3245 42.7643C36.7254 42.9462 37.1194 43.1001 37.5065 43.226C37.7415 43.31 37.9834 43.373 38.2323 43.4149C38.4949 43.4569 38.7507 43.4779 38.9996 43.4779C39.041 43.4779 39.0756 43.4779 39.1032 43.4779C39.1309 43.4779 39.1585 43.4779 39.1862 43.4779C39.3383 43.4639 39.4696 43.5129 39.5802 43.6248C39.6908 43.7227 39.7461 43.8487 39.7461 44.0026C39.7461 44.1565 39.6977 44.2894 39.6009 44.4014C39.5042 44.5133 39.3797 44.5763 39.2277 44.5902C39.1862 44.5902 39.1516 44.5902 39.124 44.5902C39.0825 44.5902 39.041 44.5902 38.9996 44.5902C38.6816 44.5902 38.3705 44.5623 38.0664 44.5063C37.7622 44.4503 37.465 44.3734 37.1747 44.2754C36.8429 44.1635 36.5249 44.0446 36.2208 43.9187C35.9166 43.7927 35.6125 43.6738 35.3083 43.5618C35.0042 43.4359 34.7069 43.317 34.4166 43.2051C34.1125 43.1071 33.8152 43.0232 33.5249 42.9532C33.3313 42.9112 33.1447 42.8762 32.965 42.8483C32.7714 42.8203 32.5779 42.8063 32.3843 42.8063C32.3014 42.8063 32.177 42.8063 32.0111 42.8063C31.859 42.8063 31.7277 42.7573 31.6171 42.6594C31.5065 42.5474 31.4512 42.4145 31.4512 42.2606ZM43.0641 37.3284C43.0641 37.6363 43.0641 38.098 43.0641 38.7136C43.0641 39.2733 42.9535 39.805 42.7323 40.3087C42.5249 40.8124 42.2346 41.2462 41.8613 41.61C41.5019 41.9878 41.0733 42.2816 40.5756 42.4915C40.0917 42.7013 39.5664 42.8063 38.9996 42.8063C38.4466 42.8063 37.9212 42.7013 37.4235 42.4915C36.9396 42.2816 36.5111 41.9878 36.1378 41.61C35.7784 41.2462 35.4949 40.8124 35.2876 40.3087C35.0664 39.805 34.9558 39.2733 34.9558 38.7136C34.9558 38.056 34.9558 37.0626 34.9558 35.7333C34.9558 35.3416 35.0111 34.9638 35.1217 34.6C35.2184 34.2362 35.3636 33.9004 35.5572 33.5926C35.6401 33.4527 35.7576 33.3687 35.9097 33.3407C36.048 33.2988 36.1793 33.3197 36.3037 33.4037C36.442 33.4876 36.5249 33.5996 36.5526 33.7395C36.594 33.8934 36.5733 34.0333 36.4903 34.1593C36.3521 34.3971 36.2415 34.642 36.1585 34.8938C36.0894 35.1597 36.0548 35.4395 36.0548 35.7333C36.0548 36.391 36.0548 37.3844 36.0548 38.7136C36.0548 39.1334 36.1309 39.5252 36.283 39.889C36.435 40.2388 36.6493 40.5536 36.9258 40.8334C37.1885 41.0993 37.4996 41.3092 37.859 41.4631C38.2184 41.631 38.5986 41.7149 38.9996 41.7149C39.4143 41.7149 39.8014 41.631 40.1609 41.4631C40.5203 41.3092 40.8314 41.0993 41.094 40.8334C41.3567 40.5536 41.571 40.2388 41.7369 39.889C41.889 39.5252 41.965 39.1334 41.965 38.7136C41.965 38.4058 41.965 37.9441 41.965 37.3284C41.965 37.1745 42.0203 37.0486 42.1309 36.9507C42.2277 36.8387 42.3521 36.7827 42.5042 36.7827C42.6562 36.7827 42.7876 36.8387 42.8982 36.9507C43.0088 37.0486 43.0641 37.1745 43.0641 37.3284ZM34.7484 40.5606C34.8175 40.7005 34.8936 40.8474 34.9765 41.0013C35.0595 41.1412 35.1424 41.2812 35.2254 41.4211C35.2807 41.477 35.2807 41.533 35.2254 41.589C35.1839 41.6589 35.1286 41.6799 35.0595 41.652C34.8936 41.596 34.7208 41.54 34.541 41.484C34.3613 41.4281 34.1816 41.3791 34.0019 41.3371C33.9051 41.3092 33.8429 41.2462 33.8152 41.1482C33.7876 41.0503 33.8152 40.9664 33.8982 40.8964C33.9673 40.8404 34.0295 40.7775 34.0848 40.7075C34.1539 40.6375 34.2161 40.5676 34.2714 40.4976C34.3406 40.4137 34.4304 40.3787 34.541 40.3927C34.6378 40.3927 34.7069 40.4486 34.7484 40.5606ZM42.7738 41.4001C42.8705 41.2742 42.9604 41.1342 43.0433 40.9803C43.1263 40.8404 43.2023 40.6935 43.2714 40.5396C43.3129 40.4417 43.382 40.3857 43.4788 40.3717C43.5894 40.3577 43.6724 40.3927 43.7277 40.4766C43.783 40.5606 43.8452 40.6375 43.9143 40.7075C43.9696 40.7635 44.0318 40.8264 44.1009 40.8964C44.1839 40.9664 44.2115 41.0503 44.1839 41.1482C44.1701 41.2462 44.1148 41.3092 44.018 41.3371C43.8383 41.3791 43.6585 41.4281 43.4788 41.484C43.2991 41.54 43.1263 41.596 42.9604 41.652C42.8913 41.6799 42.836 41.6589 42.7945 41.589C42.7392 41.533 42.7323 41.4701 42.7738 41.4001ZM45.8844 45.7446C45.912 45.8845 45.8774 46.0174 45.7807 46.1434C45.6977 46.2693 45.5802 46.3463 45.4281 46.3742C45.3314 46.3882 45.2069 46.4162 45.0549 46.4582C44.9028 46.5002 44.73 46.5631 44.5364 46.6471C44.3152 46.717 44.0526 46.815 43.7484 46.9409C43.4443 47.0809 43.1125 47.2207 42.753 47.3606C42.6148 47.4027 42.4765 47.3956 42.3383 47.3396C42.2 47.2698 42.1032 47.1648 42.048 47.0249C41.9926 46.8849 41.9926 46.745 42.048 46.6051C42.1171 46.4652 42.2207 46.3672 42.359 46.3113C42.7046 46.1853 43.0226 46.0594 43.3129 45.9335C43.6171 45.8076 43.8936 45.6956 44.1424 45.5977C44.3636 45.5137 44.571 45.4438 44.7645 45.3878C44.9442 45.3458 45.1102 45.3108 45.2622 45.2829C45.4143 45.2549 45.5456 45.2899 45.6562 45.3878C45.7807 45.4718 45.8567 45.5907 45.8844 45.7446ZM46.5479 40.4976C46.5479 40.6375 46.4996 40.7635 46.4028 40.8754C46.2922 40.9873 46.1608 41.0433 46.0088 41.0433C45.6908 41.0433 45.3936 40.9803 45.1171 40.8544C44.8406 40.7285 44.5986 40.5606 44.3913 40.3507C44.1839 40.1408 44.018 39.896 43.8936 39.6161C43.7692 39.3363 43.7069 39.0355 43.7069 38.7136C43.7069 38.056 43.7069 37.0626 43.7069 35.7333C43.7069 35.3136 43.6585 34.9148 43.5618 34.537C43.465 34.1453 43.3268 33.7815 43.147 33.4457C42.9535 33.1099 42.7323 32.802 42.4834 32.5222C42.2207 32.2284 41.9304 31.9765 41.6125 31.7666C41.488 31.6827 41.412 31.5637 41.3843 31.4098C41.3567 31.2699 41.3843 31.13 41.4673 30.9901C41.5502 30.8642 41.6678 30.7872 41.8198 30.7592C41.9719 30.7312 42.1102 30.7592 42.2346 30.8432C42.6217 31.109 42.9742 31.4168 43.2922 31.7666C43.6102 32.1164 43.8797 32.5012 44.1009 32.921C44.3221 33.3407 44.495 33.7885 44.6194 34.2642C44.7438 34.7259 44.806 35.2157 44.806 35.7333C44.806 36.391 44.806 37.3844 44.806 38.7136C44.806 38.8815 44.8406 39.0425 44.9097 39.1964C44.965 39.3363 45.048 39.4622 45.1585 39.5741C45.2691 39.6861 45.3936 39.777 45.5318 39.847C45.6839 39.903 45.8429 39.9309 46.0088 39.9309C46.1608 39.9309 46.2922 39.9869 46.4028 40.0989C46.4996 40.2108 46.5479 40.3437 46.5479 40.4976ZM46.5479 38.7136C46.5479 38.8675 46.4996 39.0005 46.4028 39.1124C46.2922 39.2243 46.1608 39.2803 46.0088 39.2803C45.912 39.2803 45.8221 39.2523 45.7392 39.1964C45.6977 39.1684 45.6562 39.1404 45.6148 39.1124C45.518 39.0005 45.4696 38.8675 45.4696 38.7136C45.4696 38.07 45.4696 37.5733 45.4696 37.2235C45.4696 36.8737 45.4696 36.377 45.4696 35.7333C45.4696 34.8239 45.2968 33.9774 44.9512 33.1938C44.6194 32.3963 44.1562 31.7037 43.5618 31.116C42.9811 30.5144 42.3037 30.0456 41.5295 29.7098C40.7415 29.36 39.8982 29.1851 38.9996 29.1851C38.1701 29.1851 37.389 29.339 36.6562 29.6469C35.9235 29.9407 35.2738 30.3465 34.7069 30.8642C34.1263 31.3818 33.6562 31.9905 33.2968 32.6901C32.9235 33.3897 32.6885 34.1453 32.5917 34.9568C32.5779 35.1107 32.5088 35.2366 32.3843 35.3346C32.2738 35.4325 32.1424 35.4675 31.9903 35.4395C31.8383 35.4255 31.7138 35.3626 31.6171 35.2506C31.5341 35.1247 31.4996 34.9848 31.5134 34.8309C31.624 33.8794 31.8936 32.9979 32.3221 32.1864C32.7507 31.3609 33.3037 30.6473 33.9811 30.0456C34.6447 29.43 35.4051 28.9542 36.2622 28.6184C37.1194 28.2686 38.0318 28.0938 38.9996 28.0938C40.0503 28.0938 41.0318 28.2896 41.9443 28.6814C42.8567 29.0872 43.6585 29.6329 44.3498 30.3185C45.0272 31.0181 45.5664 31.8296 45.9673 32.7531C46.3544 33.6765 46.5479 34.67 46.5479 35.7333C46.5479 36.377 46.5479 36.8737 46.5479 37.2235C46.5479 37.5733 46.5479 38.07 46.5479 38.7136ZM31.4512 38.7136C31.4512 38.2379 31.4512 37.8461 31.4512 37.5383C31.4512 37.2445 31.4512 36.9157 31.4512 36.5519C31.4512 36.398 31.5065 36.2721 31.6171 36.1741C31.7277 36.0622 31.859 36.0062 32.0111 36.0062C32.1632 36.0062 32.2876 36.0622 32.3843 36.1741C32.4949 36.2721 32.5503 36.398 32.5503 36.5519C32.5503 36.9157 32.5503 37.2445 32.5503 37.5383C32.5503 37.8461 32.5503 38.2379 32.5503 38.7136C32.5503 38.8675 32.4949 39.0005 32.3843 39.1124C32.2876 39.2243 32.1632 39.2803 32.0111 39.2803C31.859 39.2803 31.7277 39.2243 31.6171 39.1124C31.5065 39.0005 31.4512 38.8675 31.4512 38.7136ZM46.4443 44.0236C46.4443 44.1775 46.3959 44.3104 46.2991 44.4224C46.1885 44.5343 46.0572 44.5902 45.9051 44.5902C45.8498 44.5902 45.7599 44.5902 45.6355 44.5902C45.5249 44.5902 45.4074 44.5973 45.283 44.6112C45.1447 44.6252 45.0065 44.6462 44.8682 44.6742C44.73 44.7162 44.5779 44.7582 44.412 44.8001C44.2599 44.8561 44.094 44.9191 43.9143 44.989C43.5687 45.115 43.1816 45.2689 42.753 45.4508C42.3383 45.6187 41.889 45.7866 41.4051 45.9545C41.0318 46.0804 40.6447 46.1783 40.2438 46.2483C39.8429 46.3183 39.4281 46.3532 38.9996 46.3532C38.5848 46.3532 38.177 46.3183 37.776 46.2483C37.3751 46.1783 36.988 46.0804 36.6148 45.9545C36.3936 45.8845 36.1862 45.8076 35.9926 45.7236C35.7853 45.6536 35.5848 45.5767 35.3913 45.4927C35.253 45.4368 35.1562 45.3388 35.1009 45.1989C35.0457 45.059 35.0457 44.9191 35.1009 44.7791C35.1562 44.6392 35.253 44.5413 35.3913 44.4853C35.5295 44.4154 35.6678 44.4154 35.806 44.4853C35.9857 44.5553 36.1724 44.6252 36.3659 44.6952C36.5595 44.7652 36.7599 44.8351 36.9673 44.9051C37.2853 45.017 37.6171 45.101 37.9627 45.1569C38.3083 45.2129 38.6539 45.2409 38.9996 45.2409C39.359 45.2409 39.7115 45.2129 40.0572 45.1569C40.4028 45.101 40.7346 45.017 41.0526 44.9051C41.5088 44.7512 41.9443 44.5902 42.359 44.4224C42.7599 44.2405 43.1539 44.0796 43.541 43.9396C43.7346 43.8697 43.9212 43.8067 44.1009 43.7507C44.2807 43.6948 44.4535 43.6458 44.6194 43.6038C44.7991 43.5618 44.9719 43.5339 45.1378 43.5199C45.3037 43.4919 45.4696 43.4779 45.6355 43.4779C45.6908 43.4779 45.7807 43.4779 45.9051 43.4779C46.0572 43.4779 46.1885 43.5339 46.2991 43.6458C46.3959 43.7437 46.4443 43.8697 46.4443 44.0236ZM43.7277 48.2842C43.783 48.4241 43.783 48.5639 43.7277 48.704C43.6585 48.8438 43.5549 48.9418 43.4166 48.9978C43.2784 49.0397 43.1332 49.0888 42.9811 49.1447C42.829 49.2005 42.677 49.2565 42.5249 49.3125C41.9581 49.5085 41.3774 49.6553 40.783 49.7532C40.2023 49.8511 39.6079 49.9002 38.9996 49.9002C38.4051 49.9002 37.8106 49.8511 37.2161 49.7532C36.6355 49.6553 36.0618 49.5085 35.4949 49.3125C35.3291 49.2565 35.177 49.2005 35.0387 49.1447C34.8867 49.1026 34.7415 49.0537 34.6033 48.9978C34.465 48.9418 34.3613 48.8438 34.2922 48.704C34.2369 48.5639 34.2369 48.4241 34.2922 48.2842C34.3475 48.1303 34.4443 48.0253 34.5825 47.9693C34.6931 47.9133 34.8037 47.8993 34.9143 47.9273C34.942 47.9414 34.9696 47.9483 34.9973 47.9483C35.1217 48.0043 35.2599 48.0603 35.412 48.1163C35.5503 48.1723 35.6954 48.2211 35.8475 48.263C36.359 48.445 36.8774 48.578 37.4028 48.6618C37.9281 48.7459 38.4604 48.7879 38.9996 48.7879C39.5526 48.7879 40.0917 48.7459 40.6171 48.6618C41.1424 48.578 41.6608 48.445 42.1724 48.263C42.3244 48.2211 42.4696 48.1723 42.6079 48.1163C42.7461 48.0603 42.8844 48.0043 43.0226 47.9483C43.1609 47.8923 43.2991 47.8993 43.4373 47.9693C43.5756 48.0253 43.6724 48.1303 43.7277 48.2842ZM34.6033 47.0878C34.382 47.0039 34.1816 46.9199 34.0019 46.836C33.8221 46.766 33.6562 46.703 33.5042 46.6471C33.2968 46.5631 33.1171 46.5002 32.965 46.4582C32.8129 46.4162 32.6885 46.3882 32.5917 46.3742C32.4397 46.3463 32.3152 46.2693 32.2184 46.1434C32.1355 46.0174 32.1079 45.8845 32.1355 45.7446C32.1632 45.5907 32.2323 45.4718 32.3429 45.3878C32.4673 45.2899 32.6056 45.2549 32.7576 45.2829C32.9097 45.3108 33.0756 45.3458 33.2553 45.3878C33.435 45.4438 33.6424 45.5137 33.8774 45.5977C34.0433 45.6676 34.2231 45.7376 34.4166 45.8076C34.5963 45.8915 34.7899 45.9755 34.9973 46.0594C35.2184 46.1434 35.4466 46.2343 35.6816 46.3322C35.9028 46.4162 36.1447 46.5002 36.4074 46.5841C36.8083 46.724 37.23 46.836 37.6724 46.9199C38.1148 46.9899 38.5572 47.0249 38.9996 47.0249C39.3314 47.0249 39.6493 47.0039 39.9535 46.9619C40.2714 46.9339 40.5756 46.8779 40.8659 46.794C41.018 46.766 41.1562 46.794 41.2807 46.8779C41.4189 46.9619 41.5019 47.0738 41.5295 47.2138C41.571 47.3677 41.5502 47.5076 41.4673 47.6336C41.3843 47.7594 41.2668 47.8435 41.1148 47.8854C40.783 47.9693 40.4373 48.0322 40.0779 48.0743C39.7323 48.1163 39.3728 48.1372 38.9996 48.1372C38.488 48.1372 37.9834 48.0953 37.4857 48.0112C37.0019 47.9273 36.5249 47.8013 36.0548 47.6336C35.7784 47.5495 35.5226 47.4585 35.2876 47.3606C35.0387 47.2627 34.8106 47.1717 34.6033 47.0878ZM46.5479 42.2606C46.5479 42.4145 46.4996 42.5474 46.4028 42.6594C46.2922 42.7573 46.1608 42.8063 46.0088 42.8063C45.9258 42.8063 45.8014 42.8063 45.6355 42.8063C45.442 42.8063 45.2553 42.8203 45.0756 42.8483C44.882 42.8762 44.6954 42.9112 44.5157 42.9532C44.3221 42.9952 44.1355 43.0441 43.9558 43.1001C43.7622 43.1561 43.5687 43.219 43.3751 43.289C42.988 43.4289 42.594 43.5828 42.1931 43.7507C41.806 43.9326 41.4051 44.0935 40.9903 44.2335C40.8383 44.2894 40.7 44.2824 40.5756 44.2125C40.4373 44.1425 40.3406 44.0376 40.2853 43.8977C40.2438 43.7437 40.2507 43.6038 40.306 43.4779C40.3751 43.338 40.4788 43.24 40.6171 43.1841C40.9074 43.0861 41.1977 42.9742 41.488 42.8483C41.7922 42.7363 42.0894 42.6174 42.3797 42.4915C42.6839 42.3655 42.9949 42.2466 43.3129 42.1347C43.6309 42.0367 43.9489 41.9458 44.2668 41.8618C44.488 41.8198 44.7161 41.7849 44.9512 41.7569C45.1724 41.7289 45.4005 41.7149 45.6355 41.7149C45.7185 41.7149 45.8429 41.7149 46.0088 41.7149C46.1608 41.7149 46.2922 41.7639 46.4028 41.8618C46.4996 41.9738 46.5479 42.1067 46.5479 42.2606ZM31.4512 40.4976C31.4512 40.3437 31.5065 40.2108 31.6171 40.0989C31.7277 39.9869 31.859 39.9309 32.0111 39.9309C32.177 39.9309 32.329 39.903 32.4673 39.847C32.6194 39.777 32.7507 39.6861 32.8613 39.5741C32.9719 39.4622 33.0549 39.3363 33.1102 39.1964C33.1793 39.0425 33.2138 38.8815 33.2138 38.7136C33.2138 38.056 33.2138 37.0626 33.2138 35.7333C33.2138 34.9218 33.3659 34.1593 33.6701 33.4457C33.9742 32.7321 34.389 32.1094 34.9143 31.5777C35.4397 31.0461 36.0548 30.6263 36.7599 30.3185C37.465 30.0106 38.2115 29.8567 38.9996 29.8567C39.2761 29.8567 39.5456 29.8777 39.8083 29.9197C40.071 29.9617 40.3337 30.0176 40.5963 30.0876C40.7346 30.1296 40.8383 30.2135 40.9074 30.3395C40.9903 30.4794 41.0111 30.6193 40.9696 30.7592C40.9281 30.9131 40.8383 31.0251 40.7 31.095C40.5756 31.165 40.4373 31.179 40.2853 31.137C40.0779 31.081 39.8705 31.039 39.6631 31.0111C39.4558 30.9831 39.2346 30.9691 38.9996 30.9691C38.3498 30.9691 37.7415 31.095 37.1747 31.3469C36.6079 31.5987 36.1102 31.9345 35.6816 32.3543C35.253 32.7881 34.9143 33.2988 34.6655 33.8864C34.4304 34.4601 34.3129 35.0757 34.3129 35.7333C34.3129 36.391 34.3129 37.3844 34.3129 38.7136C34.3129 39.0355 34.2507 39.3363 34.1263 39.6161C34.0019 39.896 33.836 40.1408 33.6286 40.3507C33.4212 40.5606 33.1793 40.7285 32.9028 40.8544C32.6263 40.9803 32.329 41.0433 32.0111 41.0433C31.859 41.0433 31.7277 40.9873 31.6171 40.8754C31.5065 40.7635 31.4512 40.6375 31.4512 40.4976Z" fill="#606C6D"/>
</g>
<path d="M34.1863 29.9746C34.2948 30.0661 34.4214 30.1301 34.566 30.1667C34.7106 30.2033 34.8552 30.2216 34.9999 30.2216C35.2168 30.2216 35.4247 30.185 35.6236 30.1118C35.8044 30.0203 35.9671 29.9014 36.1117 29.755C36.2563 29.6086 36.3739 29.444 36.4643 29.261C36.5366 29.0597 36.5727 28.8493 36.5727 28.6297C36.5727 27.7698 36.5727 26.4707 36.5727 24.7324C36.5727 24.5129 36.5366 24.3025 36.4643 24.1012C36.3739 23.9182 36.2563 23.7535 36.1117 23.6072C35.9671 23.4608 35.8044 23.3419 35.6236 23.2504C35.4247 23.1772 35.2168 23.1406 34.9999 23.1406C34.7829 23.1406 34.5841 23.1772 34.4033 23.2504C34.2044 23.3419 34.0327 23.4608 33.888 23.6072C33.7434 23.7535 33.6349 23.9182 33.5626 24.1012C33.4722 24.3025 33.427 24.5129 33.427 24.7324C33.427 25.3545 33.427 26.2968 33.427 27.5593C33.427 27.7423 33.3638 27.907 33.2372 28.0534C33.0926 28.1997 32.9208 28.2729 32.722 28.2729C32.5231 28.2729 32.3514 28.1997 32.2067 28.0534C32.0802 27.907 32.0169 27.7423 32.0169 27.5593C32.0169 26.919 32.0169 25.9766 32.0169 24.7324C32.0169 24.3116 32.0892 23.9182 32.2338 23.5523C32.3965 23.168 32.6135 22.8387 32.8847 22.5642C33.1558 22.2898 33.4722 22.0794 33.8338 21.933C34.2135 21.7683 34.6022 21.6859 34.9999 21.6859C35.4157 21.6859 35.8134 21.7683 36.1931 21.933C36.5546 22.0794 36.871 22.2898 37.1422 22.5642C37.4134 22.8387 37.6213 23.168 37.7659 23.5523C37.9286 23.9182 38.01 24.3116 38.01 24.7324C38.01 25.5924 38.01 26.8915 38.01 28.6297C38.01 29.0506 37.9286 29.444 37.7659 29.8099C37.6213 30.1941 37.4134 30.5143 37.1422 30.7705C36.871 31.045 36.5546 31.2645 36.1931 31.4292C35.8134 31.5939 35.4157 31.6762 34.9999 31.6762C34.7106 31.6762 34.4304 31.6396 34.1592 31.5664C33.9061 31.4749 33.6621 31.356 33.427 31.2096C33.192 31.0633 32.9841 30.8894 32.8033 30.6882C32.6225 30.4869 32.4688 30.2673 32.3423 30.0295C32.2519 29.8465 32.2338 29.6544 32.2881 29.4531C32.3423 29.2701 32.4598 29.1329 32.6406 29.0414C32.8214 28.9499 33.0022 28.9316 33.183 28.9865C33.3818 29.0597 33.5265 29.1878 33.6168 29.3708C33.6711 29.4988 33.7524 29.6086 33.8609 29.7001C33.9513 29.8099 34.0598 29.9014 34.1863 29.9746ZM38.7151 20.9175C39.2032 21.3932 39.5828 21.9513 39.854 22.5917C40.1433 23.2321 40.2969 23.9182 40.315 24.6501C40.315 24.8514 40.2427 25.0252 40.0981 25.1716C39.9534 25.3179 39.7907 25.3911 39.6099 25.3911C39.4111 25.3911 39.2393 25.3179 39.0947 25.1716C38.9501 25.0435 38.8778 24.8788 38.8778 24.6775C38.8597 24.1469 38.7512 23.6437 38.5523 23.168C38.3535 22.7106 38.0733 22.2989 37.7117 21.933C37.3682 21.5853 36.9614 21.3109 36.4914 21.1096C36.0394 20.9083 35.5422 20.8077 34.9999 20.8077C34.6383 20.8077 34.2858 20.8626 33.9423 20.9724C33.5988 21.0639 33.2824 21.2011 32.9931 21.3841C32.8304 21.4938 32.6497 21.5304 32.4508 21.4938C32.2519 21.439 32.1073 21.3292 32.0169 21.1645C31.9084 20.9815 31.8723 20.7985 31.9084 20.6156C31.9627 20.4143 32.0711 20.2588 32.2338 20.149C32.6497 19.9111 33.0835 19.719 33.5355 19.5726C34.0055 19.4446 34.4937 19.3805 34.9999 19.3805C35.723 19.3805 36.41 19.5177 37.0608 19.7922C37.6936 20.0667 38.245 20.4418 38.7151 20.9175ZM34.9999 29.3708C34.801 29.3708 34.6383 29.2976 34.5118 29.1512C34.3671 29.0048 34.2948 28.831 34.2948 28.6297C34.2948 27.7698 34.2948 26.4707 34.2948 24.7324C34.2948 24.5312 34.3671 24.3574 34.5118 24.211C34.6383 24.0646 34.801 23.9914 34.9999 23.9914C35.1987 23.9914 35.3705 24.0646 35.5151 24.211C35.6597 24.3574 35.7321 24.5312 35.7321 24.7324C35.7321 25.5924 35.7321 26.8915 35.7321 28.6297C35.7321 28.831 35.6597 29.0048 35.5151 29.1512C35.3705 29.2976 35.1987 29.3708 34.9999 29.3708ZM25.9967 36.3145C25.7978 36.3145 25.6261 36.2413 25.4814 36.095C25.3368 35.9486 25.2645 35.7748 25.2645 35.5735C25.2645 35.3722 25.3368 35.2076 25.4814 35.0795C25.6261 34.9331 25.7978 34.8599 25.9967 34.8599C26.069 34.8599 26.1775 34.8599 26.3221 34.8599C26.7198 34.8599 27.1175 34.9057 27.5153 34.9971C27.9311 35.0886 28.3559 35.2076 28.7898 35.3539C28.9887 35.4271 29.1243 35.5552 29.1966 35.7382C29.287 35.9211 29.3051 36.1041 29.2509 36.2871C29.1785 36.4701 29.052 36.6073 28.8712 36.6988C28.6904 36.7903 28.5096 36.7994 28.3288 36.7262C27.9311 36.5798 27.5695 36.4792 27.2441 36.4243C26.9187 36.3511 26.6204 36.3145 26.3492 36.3145C26.2769 36.3145 26.1594 36.3145 25.9967 36.3145ZM25.1289 33.2681C25.1289 33.0668 25.2012 32.893 25.3458 32.7466C25.4905 32.6185 25.6622 32.5545 25.8611 32.5545C25.9696 32.5545 26.1323 32.5545 26.3492 32.5545C26.6565 32.5545 26.9639 32.5728 27.2712 32.6094C27.5786 32.646 27.8769 32.7009 28.1661 32.774C28.4554 32.8289 28.7446 32.9021 29.0339 32.9936C29.3232 33.0851 29.6034 33.1857 29.8746 33.2955C30.435 33.4968 30.9774 33.7072 31.5017 33.9268C32.0259 34.1646 32.5412 34.3659 33.0474 34.5306C33.3547 34.6404 33.6711 34.7227 33.9965 34.7776C34.34 34.8325 34.6745 34.8599 34.9999 34.8599C35.0541 34.8599 35.0993 34.8599 35.1355 34.8599C35.1716 34.8599 35.2078 34.8599 35.2439 34.8599C35.4428 34.8416 35.6146 34.9057 35.7592 35.052C35.9038 35.1801 35.9761 35.3448 35.9761 35.5461C35.9761 35.7473 35.9129 35.9211 35.7863 36.0675C35.6597 36.2139 35.497 36.2962 35.2982 36.3145C35.2439 36.3145 35.1987 36.3145 35.1626 36.3145C35.1083 36.3145 35.0541 36.3145 34.9999 36.3145C34.5841 36.3145 34.1773 36.278 33.7796 36.2048C33.3818 36.1316 32.9931 36.0309 32.6135 35.9029C32.1796 35.7565 31.7638 35.6009 31.3661 35.4363C30.9683 35.2716 30.5706 35.1161 30.1729 34.9697C29.7751 34.805 29.3864 34.6495 29.0068 34.5031C28.6091 34.375 28.2204 34.2653 27.8407 34.1738C27.5876 34.1189 27.3435 34.0731 27.1085 34.0366C26.8554 34 26.6023 33.9817 26.3492 33.9817C26.2407 33.9817 26.078 33.9817 25.8611 33.9817C25.6622 33.9817 25.4905 33.9176 25.3458 33.7895C25.2012 33.6431 25.1289 33.4693 25.1289 33.2681ZM40.315 26.8183C40.315 27.2208 40.315 27.8246 40.315 28.6297C40.315 29.3616 40.1704 30.0569 39.8811 30.7156C39.6099 31.3743 39.2303 31.9415 38.7422 32.4173C38.2721 32.9113 37.7117 33.2955 37.0608 33.57C36.4281 33.8444 35.7411 33.9817 34.9999 33.9817C34.2767 33.9817 33.5897 33.8444 32.9389 33.57C32.3061 33.2955 31.7457 32.9113 31.2576 32.4173C30.7875 31.9415 30.4169 31.3743 30.1457 30.7156C29.8565 30.0569 29.7119 29.3616 29.7119 28.6297C29.7119 27.7698 29.7119 26.4707 29.7119 24.7324C29.7119 24.2201 29.7842 23.7261 29.9288 23.2504C30.0553 22.7746 30.2452 22.3355 30.4983 21.933C30.6067 21.75 30.7604 21.6402 30.9593 21.6036C31.1401 21.5487 31.3118 21.5762 31.4745 21.6859C31.6553 21.7957 31.7638 21.9421 31.8 22.1251C31.8542 22.3264 31.8271 22.5093 31.7186 22.674C31.5378 22.985 31.3932 23.3053 31.2847 23.6346C31.1943 23.9823 31.1491 24.3482 31.1491 24.7324C31.1491 25.5924 31.1491 26.8915 31.1491 28.6297C31.1491 29.1786 31.2485 29.691 31.4474 30.1667C31.6463 30.6241 31.9265 31.0358 32.2881 31.4017C32.6316 31.7494 33.0383 32.0239 33.5084 32.2251C33.9784 32.4447 34.4756 32.5545 34.9999 32.5545C35.5422 32.5545 36.0484 32.4447 36.5185 32.2251C36.9885 32.0239 37.3953 31.7494 37.7388 31.4017C38.0823 31.0358 38.3625 30.6241 38.5794 30.1667C38.7783 29.691 38.8778 29.1786 38.8778 28.6297C38.8778 28.2272 38.8778 27.6234 38.8778 26.8183C38.8778 26.617 38.9501 26.4524 39.0947 26.3243C39.2212 26.1779 39.384 26.1047 39.5828 26.1047C39.7817 26.1047 39.9534 26.1779 40.0981 26.3243C40.2427 26.4524 40.315 26.617 40.315 26.8183ZM29.4407 31.045C29.5311 31.2279 29.6305 31.4201 29.739 31.6213C29.8474 31.8043 29.9559 31.9873 30.0644 32.1702C30.1367 32.2434 30.1367 32.3166 30.0644 32.3898C30.0102 32.4813 29.9378 32.5087 29.8474 32.4721C29.6305 32.3989 29.4045 32.3258 29.1695 32.2526C28.9345 32.1794 28.6995 32.1153 28.4644 32.0604C28.3379 32.0239 28.2565 31.9415 28.2204 31.8135C28.1842 31.6853 28.2204 31.5756 28.3288 31.4841C28.4192 31.4109 28.5006 31.3286 28.5729 31.2371C28.6633 31.1456 28.7446 31.0541 28.8169 30.9626C28.9073 30.8528 29.0249 30.8071 29.1695 30.8254C29.296 30.8254 29.3864 30.8986 29.4407 31.045ZM39.9354 32.1428C40.0619 31.9781 40.1794 31.7951 40.2879 31.5939C40.3964 31.4109 40.4958 31.2188 40.5862 31.0175C40.6404 30.8894 40.7308 30.8162 40.8574 30.7979C41.002 30.7797 41.1105 30.8254 41.1828 30.9352C41.2551 31.045 41.3365 31.1456 41.4269 31.2371C41.4992 31.3103 41.5805 31.3926 41.6709 31.4841C41.7794 31.5756 41.8155 31.6853 41.7794 31.8135C41.7613 31.9415 41.689 32.0239 41.5624 32.0604C41.3274 32.1153 41.0924 32.1794 40.8574 32.2526C40.6223 32.3258 40.3964 32.3989 40.1794 32.4721C40.089 32.5087 40.0167 32.4813 39.9625 32.3898C39.8902 32.3166 39.8811 32.2343 39.9354 32.1428ZM44.0031 37.824C44.0392 38.007 43.994 38.1809 43.8675 38.3455C43.759 38.5102 43.6053 38.6108 43.4065 38.6474C43.2799 38.6657 43.1172 38.7023 42.9183 38.7572C42.7195 38.8121 42.4935 38.8944 42.2404 39.0042C41.9511 39.0957 41.6076 39.2238 41.2099 39.3885C40.8122 39.5715 40.3783 39.7544 39.9082 39.9373C39.7275 39.9924 39.5467 39.9831 39.3659 39.9099C39.1851 39.8186 39.0585 39.6812 38.9862 39.4983C38.9139 39.3153 38.9139 39.1323 38.9862 38.9493C39.0766 38.7664 39.2122 38.6383 39.393 38.5651C39.845 38.4004 40.2608 38.2358 40.6404 38.0711C41.0382 37.9064 41.3997 37.76 41.7252 37.6319C42.0144 37.5222 42.2856 37.4307 42.5387 37.3575C42.7737 37.3026 42.9907 37.2569 43.1895 37.2202C43.3884 37.1837 43.5601 37.2294 43.7048 37.3575C43.8675 37.4673 43.9669 37.6228 44.0031 37.824ZM44.8708 30.9626C44.8708 31.1456 44.8076 31.3103 44.681 31.4566C44.5364 31.603 44.3646 31.6762 44.1658 31.6762C43.75 31.6762 43.3613 31.5939 42.9997 31.4292C42.6381 31.2645 42.3217 31.045 42.0506 30.7705C41.7794 30.496 41.5624 30.1759 41.3997 29.8099C41.237 29.444 41.1557 29.0506 41.1557 28.6297C41.1557 27.7698 41.1557 26.4707 41.1557 24.7324C41.1557 24.1835 41.0924 23.6621 40.9658 23.168C40.8393 22.6557 40.6585 22.18 40.4235 21.7408C40.1704 21.3017 39.8811 20.8992 39.5557 20.5332C39.2122 20.149 38.8326 19.8196 38.4167 19.5452C38.254 19.4354 38.1546 19.2799 38.1184 19.0786C38.0823 18.8956 38.1184 18.7127 38.2269 18.5297C38.3354 18.365 38.4891 18.2644 38.6879 18.2278C38.8868 18.1912 39.0676 18.2278 39.2303 18.3376C39.7365 18.6852 40.1975 19.0878 40.6133 19.5452C41.0291 20.0026 41.3816 20.5058 41.6709 21.0547C41.9602 21.6036 42.1862 22.1891 42.3489 22.8112C42.5116 23.415 42.5929 24.0554 42.5929 24.7324C42.5929 25.5924 42.5929 26.8915 42.5929 28.6297C42.5929 28.8493 42.6381 29.0597 42.7285 29.261C42.8008 29.444 42.9093 29.6086 43.0539 29.755C43.1986 29.9014 43.3613 30.0203 43.542 30.1118C43.7409 30.185 43.9488 30.2216 44.1658 30.2216C44.3646 30.2216 44.5364 30.2948 44.681 30.4412C44.8076 30.5875 44.8708 30.7613 44.8708 30.9626ZM44.8708 28.6297C44.8708 28.831 44.8076 29.0048 44.681 29.1512C44.5364 29.2976 44.3646 29.3708 44.1658 29.3708C44.0392 29.3708 43.9217 29.3342 43.8132 29.261C43.759 29.2244 43.7048 29.1878 43.6505 29.1512C43.524 29.0048 43.4607 28.831 43.4607 28.6297C43.4607 27.7881 43.4607 27.1385 43.4607 26.6811C43.4607 26.2237 43.4607 25.5741 43.4607 24.7324C43.4607 23.5431 43.2347 22.4361 42.7827 21.4115C42.3489 20.3686 41.7432 19.4629 40.9658 18.6944C40.2065 17.9076 39.3207 17.2947 38.3083 16.8555C37.2778 16.3981 36.175 16.1694 34.9999 16.1694C33.9152 16.1694 32.8937 16.3706 31.9355 16.7732C30.9774 17.1574 30.1277 17.688 29.3864 18.365C28.6271 19.042 28.0125 19.8379 27.5424 20.7528C27.0543 21.6677 26.7469 22.6557 26.6204 23.717C26.6023 23.9182 26.5119 24.0829 26.3492 24.211C26.2046 24.339 26.0328 24.3848 25.834 24.3482C25.6351 24.3299 25.4724 24.2476 25.3458 24.1012C25.2374 23.9365 25.1922 23.7535 25.2103 23.5523C25.3549 22.3081 25.7074 21.1554 26.2679 20.0941C26.8283 19.0146 27.5515 18.0814 28.4373 17.2947C29.3051 16.4896 30.2994 15.8675 31.4203 15.4283C32.5412 14.9709 33.7344 14.7422 34.9999 14.7422C36.3739 14.7422 37.6574 14.9983 38.8506 15.5107C40.0438 16.0413 41.0924 16.7549 41.9963 17.6514C42.8822 18.5663 43.5873 19.6275 44.1115 20.8352C44.6177 22.0428 44.8708 23.3419 44.8708 24.7324C44.8708 25.5741 44.8708 26.2237 44.8708 26.6811C44.8708 27.1385 44.8708 27.7881 44.8708 28.6297ZM25.1289 28.6297C25.1289 28.0076 25.1289 27.4953 25.1289 27.0928C25.1289 26.7085 25.1289 26.2786 25.1289 25.8028C25.1289 25.6015 25.2012 25.4369 25.3458 25.3088C25.4905 25.1624 25.6622 25.0892 25.8611 25.0892C26.06 25.0892 26.2227 25.1624 26.3492 25.3088C26.4938 25.4369 26.5662 25.6015 26.5662 25.8028C26.5662 26.2786 26.5662 26.7085 26.5662 27.0928C26.5662 27.4953 26.5662 28.0076 26.5662 28.6297C26.5662 28.831 26.4938 29.0048 26.3492 29.1512C26.2227 29.2976 26.06 29.3708 25.8611 29.3708C25.6622 29.3708 25.4905 29.2976 25.3458 29.1512C25.2012 29.0048 25.1289 28.831 25.1289 28.6297ZM44.7353 35.5735C44.7353 35.7748 44.672 35.9486 44.5454 36.095C44.4008 36.2413 44.229 36.3145 44.0302 36.3145C43.9579 36.3145 43.8404 36.3145 43.6777 36.3145C43.533 36.3145 43.3793 36.3237 43.2166 36.342C43.0359 36.3603 42.8551 36.3877 42.6743 36.4243C42.4935 36.4792 42.2946 36.5341 42.0777 36.589C41.8788 36.6622 41.6619 36.7445 41.4269 36.836C40.9749 37.0007 40.4687 37.202 39.9082 37.4398C39.3659 37.6594 38.7783 37.8789 38.1456 38.0985C37.6574 38.2632 37.1512 38.3913 36.627 38.4828C36.1027 38.5742 35.5603 38.62 34.9999 38.62C34.4575 38.62 33.9242 38.5742 33.3999 38.4828C32.8756 38.3913 32.3694 38.2632 31.8813 38.0985C31.592 38.007 31.3209 37.9064 31.0677 37.7966C30.7966 37.7051 30.5344 37.6045 30.2813 37.4947C30.1006 37.4215 29.974 37.2934 29.9017 37.1105C29.8294 36.9275 29.8294 36.7445 29.9017 36.5616C29.974 36.3786 30.1006 36.2505 30.2813 36.1773C30.4621 36.0858 30.6429 36.0858 30.8237 36.1773C31.0587 36.2688 31.3028 36.3603 31.5559 36.4518C31.809 36.5433 32.0711 36.6347 32.3423 36.7262C32.7581 36.8726 33.192 36.9824 33.644 37.0556C34.0959 37.1288 34.5479 37.1654 34.9999 37.1654C35.4699 37.1654 35.9309 37.1288 36.3829 37.0556C36.8349 36.9824 37.2687 36.8726 37.6846 36.7262C38.2811 36.525 38.8506 36.3145 39.393 36.095C39.9173 35.8571 40.4325 35.6467 40.9387 35.4637C41.1918 35.3722 41.4359 35.2899 41.6709 35.2167C41.9059 35.1435 42.1319 35.0795 42.3489 35.0246C42.5839 34.9697 42.8099 34.9331 43.0268 34.9148C43.2437 34.8782 43.4607 34.8599 43.6777 34.8599C43.75 34.8599 43.8675 34.8599 44.0302 34.8599C44.229 34.8599 44.4008 34.9331 44.5454 35.0795C44.672 35.2076 44.7353 35.3722 44.7353 35.5735ZM41.1828 41.1451C41.2551 41.328 41.2551 41.5109 41.1828 41.694C41.0924 41.8769 40.9568 42.005 40.776 42.0782C40.5952 42.133 40.4054 42.1972 40.2065 42.2704C40.0077 42.3433 39.8088 42.4165 39.6099 42.4898C38.8687 42.7461 38.1094 42.9381 37.332 43.0661C36.5727 43.1942 35.7953 43.2583 34.9999 43.2583C34.2225 43.2583 33.4451 43.1942 32.6677 43.0661C31.9084 42.9381 31.1581 42.7461 30.4169 42.4898C30.2 42.4165 30.0011 42.3433 29.8203 42.2704C29.6215 42.2153 29.4316 42.1514 29.2509 42.0782C29.0701 42.005 28.9345 41.8769 28.8441 41.694C28.7718 41.5109 28.7718 41.328 28.8441 41.1451C28.9164 40.9438 29.0429 40.8065 29.2237 40.7333C29.3683 40.6601 29.513 40.6417 29.6576 40.6784C29.6938 40.6968 29.7299 40.7059 29.7661 40.7059C29.9288 40.7791 30.1096 40.8523 30.3084 40.9255C30.4893 40.9987 30.6791 41.0626 30.8779 41.1174C31.5468 41.3554 32.2248 41.5293 32.9118 41.6389C33.5988 41.7489 34.2948 41.8037 34.9999 41.8037C35.723 41.8037 36.4281 41.7489 37.1151 41.6389C37.8021 41.5293 38.48 41.3554 39.1489 41.1174C39.3478 41.0626 39.5376 40.9987 39.7184 40.9255C39.8992 40.8523 40.08 40.7791 40.2608 40.7059C40.4416 40.6326 40.6223 40.6417 40.8031 40.7333C40.9839 40.8065 41.1105 40.9438 41.1828 41.1451ZM29.2509 39.5806C28.9616 39.4709 28.6995 39.361 28.4644 39.2512C28.2294 39.1598 28.0125 39.0774 27.8136 39.0042C27.5424 38.8944 27.3074 38.8121 27.1085 38.7572C26.9097 38.7023 26.7469 38.6657 26.6204 38.6474C26.4215 38.6108 26.2588 38.5102 26.1323 38.3455C26.0238 38.1809 25.9877 38.007 26.0238 37.824C26.06 37.6228 26.1504 37.4673 26.295 37.3575C26.4577 37.2294 26.6385 37.1837 26.8374 37.2202C27.0362 37.2569 27.2532 37.3026 27.4882 37.3575C27.7232 37.4307 27.9944 37.5222 28.3017 37.6319C28.5187 37.7234 28.7537 37.8149 29.0068 37.9064C29.2418 38.0162 29.4949 38.126 29.7661 38.2358C30.0553 38.3455 30.3536 38.4645 30.661 38.5925C30.9503 38.7023 31.2666 38.8121 31.6101 38.9219C32.1344 39.1049 32.6858 39.2512 33.2643 39.361C33.8428 39.4525 34.4214 39.4983 34.9999 39.4983C35.4338 39.4983 35.8496 39.4709 36.2473 39.4159C36.6631 39.3793 37.0608 39.3061 37.4405 39.1964C37.6394 39.1598 37.8201 39.1964 37.9829 39.3061C38.1637 39.4159 38.2721 39.5622 38.3083 39.7453C38.3625 39.9466 38.3354 40.1295 38.2269 40.2943C38.1184 40.4588 37.9648 40.5688 37.7659 40.6236C37.332 40.7333 36.88 40.8155 36.41 40.8706C35.958 40.9255 35.488 40.9529 34.9999 40.9529C34.331 40.9529 33.6711 40.8981 33.0203 40.7881C32.3875 40.6784 31.7638 40.5136 31.1491 40.2943C30.7875 40.1843 30.4531 40.0653 30.1457 39.9373C29.8203 39.8092 29.522 39.6902 29.2509 39.5806ZM44.8708 33.2681C44.8708 33.4693 44.8076 33.6431 44.681 33.7895C44.5364 33.9176 44.3646 33.9817 44.1658 33.9817C44.0573 33.9817 43.8946 33.9817 43.6777 33.9817C43.4246 33.9817 43.1805 34 42.9455 34.0366C42.6923 34.0731 42.4483 34.1189 42.2133 34.1738C41.9602 34.2287 41.7161 34.2927 41.4811 34.3659C41.228 34.4391 40.9749 34.5214 40.7218 34.6129C40.2156 34.7959 39.7003 34.9971 39.1761 35.2167C38.6698 35.4546 38.1456 35.665 37.6032 35.848C37.4043 35.9211 37.2236 35.912 37.0608 35.8205C36.88 35.729 36.7535 35.5918 36.6812 35.4088C36.627 35.2076 36.636 35.0246 36.7083 34.8599C36.7987 34.6769 36.9343 34.5489 37.1151 34.4757C37.4947 34.3476 37.8744 34.2012 38.254 34.0366C38.6518 33.8902 39.0405 33.7346 39.4201 33.57C39.8178 33.4053 40.2246 33.2498 40.6404 33.1034C41.0562 32.9753 41.472 32.8564 41.8879 32.7466C42.1771 32.6917 42.4754 32.646 42.7827 32.6094C43.072 32.5728 43.3703 32.5545 43.6777 32.5545C43.7861 32.5545 43.9488 32.5545 44.1658 32.5545C44.3646 32.5545 44.5364 32.6185 44.681 32.7466C44.8076 32.893 44.8708 33.0668 44.8708 33.2681ZM25.1289 30.9626C25.1289 30.7613 25.2012 30.5875 25.3458 30.4412C25.4905 30.2948 25.6622 30.2216 25.8611 30.2216C26.078 30.2216 26.2769 30.185 26.4577 30.1118C26.6565 30.0203 26.8283 29.9014 26.9729 29.755C27.1175 29.6086 27.226 29.444 27.2984 29.261C27.3888 29.0597 27.4339 28.8493 27.4339 28.6297C27.4339 27.7698 27.4339 26.4707 27.4339 24.7324C27.4339 23.6712 27.6328 22.674 28.0305 21.7408C28.4283 20.8077 28.9706 19.9935 29.6576 19.2982C30.3446 18.6029 31.1491 18.054 32.0711 17.6514C32.9931 17.2489 33.9694 17.0476 34.9999 17.0476C35.3615 17.0476 35.714 17.0751 36.0575 17.13C36.401 17.1849 36.7445 17.2581 37.088 17.3495C37.2687 17.4044 37.4043 17.5142 37.4947 17.6789C37.6032 17.8619 37.6303 18.0448 37.5761 18.2278C37.5219 18.4291 37.4043 18.5754 37.2236 18.6669C37.0608 18.7584 36.88 18.7767 36.6812 18.7218C36.41 18.6486 36.1388 18.5937 35.8676 18.5572C35.5965 18.5205 35.3072 18.5023 34.9999 18.5023C34.1502 18.5023 33.3547 18.6669 32.6135 18.9963C31.8723 19.3256 31.2214 19.7648 30.661 20.3137C30.1006 20.8809 29.6576 21.5487 29.3322 22.3172C29.0249 23.0674 28.8712 23.8725 28.8712 24.7324C28.8712 25.5924 28.8712 26.8915 28.8712 28.6297C28.8712 29.0506 28.7898 29.444 28.6271 29.8099C28.4644 30.1759 28.2475 30.496 27.9763 30.7705C27.7051 31.045 27.3888 31.2645 27.0272 31.4292C26.6656 31.5939 26.2769 31.6762 25.8611 31.6762C25.6622 31.6762 25.4905 31.603 25.3458 31.4566C25.2012 31.3103 25.1289 31.1456 25.1289 30.9626Z" fill="#606C6D"/>
<defs>
<filter id="filter0_d_2435_77247" x="0.798354" y="0" width="68.4033" height="68.4033" filterUnits="userSpaceOnUse" color-interpolation-filters="sRGB">
<feFlood flood-opacity="0" result="BackgroundImageFix"/>
<feColorMatrix in="SourceAlpha" type="matrix" values="0 0 0 0 0 0 0 0 0 0 0 0 0 0 0 0 0 0 127 0" result="hardAlpha"/>
<feOffset dy="5.20165"/>
<feGaussianBlur stdDeviation="2.60082"/>
<feComposite in2="hardAlpha" operator="out"/>
<feColorMatrix type="matrix" values="0 0 0 0 0.713381 0 0 0 0 0.713381 0 0 0 0 0.713381 0 0 0 0.13 0"/>
<feBlend mode="normal" in2="BackgroundImageFix" result="effect1_dropShadow_2435_77247"/>
<feBlend mode="normal" in="SourceGraphic" in2="effect1_dropShadow_2435_77247" result="shape"/>
</filter>
<filter id="filter1_f_2435_77247" x="3" y="3" width="72" height="72" filterUnits="userSpaceOnUse" color-interpolation-filters="sRGB">
<feFlood flood-opacity="0" result="BackgroundImageFix"/>
<feBlend mode="normal" in="SourceGraphic" in2="BackgroundImageFix" result="shape"/>
<feGaussianBlur stdDeviation="11.5" result="effect1_foregroundBlur_2435_77247"/>
</filter>
</defs>
</svg>
