<svg width="70" height="73" viewBox="0 0 70 73" fill="none" xmlns="http://www.w3.org/2000/svg">
<g filter="url(#filter0_d_2435_77262)">
<rect x="6" width="58" height="58" rx="14" fill="white"/>
<rect x="6.5" y="0.5" width="57" height="57" rx="13.5" stroke="#EAEAEA"/>
</g>
<g opacity="0.4" filter="url(#filter1_f_2435_77262)">
<path d="M38.3774 39.742C38.4604 39.812 38.5572 39.861 38.6678 39.889C38.7784 39.917 38.889 39.9309 38.9996 39.9309C39.1655 39.9309 39.3245 39.903 39.4765 39.847C39.6148 39.777 39.7392 39.6861 39.8498 39.5741C39.9604 39.4622 40.0503 39.3363 40.1194 39.1964C40.1747 39.0425 40.2023 38.8815 40.2023 38.7136C40.2023 38.056 40.2023 37.0626 40.2023 35.7333C40.2023 35.5655 40.1747 35.4046 40.1194 35.2506C40.0503 35.1107 39.9604 34.9848 39.8498 34.8729C39.7392 34.7609 39.6148 34.67 39.4765 34.6C39.3245 34.544 39.1655 34.5161 38.9996 34.5161C38.8337 34.5161 38.6816 34.544 38.5433 34.6C38.3913 34.67 38.2599 34.7609 38.1493 34.8729C38.0387 34.9848 37.9558 35.1107 37.9005 35.2506C37.8314 35.4046 37.7968 35.5655 37.7968 35.7333C37.7968 36.2091 37.7968 36.9297 37.7968 37.8951C37.7968 38.035 37.7484 38.161 37.6516 38.2729C37.541 38.3848 37.4097 38.4408 37.2576 38.4408C37.1055 38.4408 36.9742 38.3848 36.8636 38.2729C36.7668 38.161 36.7185 38.035 36.7185 37.8951C36.7185 37.4054 36.7185 36.6848 36.7185 35.7333C36.7185 35.4115 36.7737 35.1107 36.8844 34.8309C37.0088 34.537 37.1747 34.2852 37.382 34.0753C37.5894 33.8654 37.8314 33.7045 38.1079 33.5926C38.3982 33.4667 38.6954 33.4037 38.9996 33.4037C39.3175 33.4037 39.6217 33.4667 39.912 33.5926C40.1885 33.7045 40.4304 33.8654 40.6378 34.0753C40.8452 34.2852 41.0042 34.537 41.1148 34.8309C41.2392 35.1107 41.3014 35.4115 41.3014 35.7333C41.3014 36.391 41.3014 37.3844 41.3014 38.7136C41.3014 39.0355 41.2392 39.3363 41.1148 39.6161C41.0042 39.91 40.8452 40.1548 40.6378 40.3507C40.4304 40.5606 40.1885 40.7285 39.912 40.8544C39.6217 40.9803 39.3175 41.0433 38.9996 41.0433C38.7784 41.0433 38.5641 41.0153 38.3567 40.9593C38.1632 40.8894 37.9765 40.7984 37.7968 40.6865C37.6171 40.5746 37.4581 40.4417 37.3198 40.2877C37.1816 40.1338 37.0641 39.9659 36.9673 39.784C36.8982 39.6441 36.8844 39.4972 36.9258 39.3433C36.9673 39.2034 37.0572 39.0984 37.1954 39.0284C37.3337 38.9585 37.4719 38.9445 37.6102 38.9865C37.7622 39.0425 37.8728 39.1404 37.9419 39.2803C37.9834 39.3783 38.0456 39.4622 38.1286 39.5322C38.1977 39.6161 38.2807 39.6861 38.3774 39.742ZM41.8406 32.816C42.2139 33.1798 42.5042 33.6066 42.7115 34.0963C42.9327 34.586 43.0503 35.1107 43.0641 35.6704C43.0641 35.8243 43.0088 35.9572 42.8982 36.0692C42.7876 36.1811 42.6631 36.2371 42.5249 36.2371C42.3728 36.2371 42.2415 36.1811 42.1309 36.0692C42.0203 35.9712 41.965 35.8453 41.965 35.6914C41.9512 35.2856 41.8682 34.9008 41.7161 34.537C41.5641 34.1872 41.3498 33.8724 41.0733 33.5926C40.8106 33.3267 40.4995 33.1169 40.1401 32.9629C39.7945 32.809 39.4143 32.7321 38.9996 32.7321C38.7231 32.7321 38.4535 32.7741 38.1908 32.858C37.9281 32.928 37.6862 33.0329 37.465 33.1728C37.3406 33.2568 37.2023 33.2848 37.0503 33.2568C36.8982 33.2148 36.7876 33.1309 36.7185 33.0049C36.6355 32.865 36.6079 32.7251 36.6355 32.5852C36.677 32.4313 36.7599 32.3123 36.8844 32.2284C37.2023 32.0465 37.5341 31.8996 37.8797 31.7876C38.2392 31.6897 38.6125 31.6407 38.9996 31.6407C39.5526 31.6407 40.0779 31.7456 40.5756 31.9555C41.0595 32.1654 41.4811 32.4523 41.8406 32.816ZM38.9996 39.2803C38.8475 39.2803 38.7231 39.2243 38.6263 39.1124C38.5157 39.0005 38.4604 38.8675 38.4604 38.7136C38.4604 38.056 38.4604 37.0626 38.4604 35.7333C38.4604 35.5794 38.5157 35.4465 38.6263 35.3346C38.7231 35.2227 38.8475 35.1667 38.9996 35.1667C39.1516 35.1667 39.283 35.2227 39.3936 35.3346C39.5042 35.4465 39.5595 35.5794 39.5595 35.7333C39.5595 36.391 39.5595 37.3844 39.5595 38.7136C39.5595 38.8675 39.5042 39.0005 39.3936 39.1124C39.283 39.2243 39.1516 39.2803 38.9996 39.2803ZM32.1148 44.5902C31.9627 44.5902 31.8314 44.5343 31.7208 44.4224C31.6101 44.3104 31.5549 44.1775 31.5549 44.0236C31.5549 43.8697 31.6101 43.7437 31.7208 43.6458C31.8314 43.5339 31.9627 43.4779 32.1148 43.4779C32.1701 43.4779 32.253 43.4779 32.3636 43.4779C32.6678 43.4779 32.9719 43.5129 33.2761 43.5828C33.594 43.6528 33.9189 43.7437 34.2507 43.8557C34.4028 43.9116 34.5065 44.0096 34.5618 44.1495C34.6309 44.2894 34.6447 44.4293 34.6033 44.5693C34.5479 44.7092 34.4512 44.8141 34.3129 44.8841C34.1747 44.954 34.0364 44.961 33.8982 44.9051C33.594 44.7931 33.3175 44.7162 33.0687 44.6742C32.8198 44.6182 32.5917 44.5902 32.3843 44.5902C32.329 44.5902 32.2392 44.5902 32.1148 44.5902ZM31.4512 42.2606C31.4512 42.1067 31.5065 41.9738 31.6171 41.8618C31.7277 41.7639 31.859 41.7149 32.0111 41.7149C32.094 41.7149 32.2184 41.7149 32.3843 41.7149C32.6194 41.7149 32.8544 41.7289 33.0894 41.7569C33.3245 41.7849 33.5526 41.8268 33.7737 41.8828C33.995 41.9248 34.2161 41.9807 34.4374 42.0507C34.6585 42.1207 34.8728 42.1976 35.0802 42.2816C35.5088 42.4355 35.9235 42.5964 36.3245 42.7643C36.7254 42.9462 37.1194 43.1001 37.5065 43.226C37.7415 43.31 37.9834 43.373 38.2323 43.4149C38.4949 43.4569 38.7507 43.4779 38.9996 43.4779C39.041 43.4779 39.0756 43.4779 39.1032 43.4779C39.1309 43.4779 39.1585 43.4779 39.1862 43.4779C39.3383 43.4639 39.4696 43.5129 39.5802 43.6248C39.6908 43.7227 39.7461 43.8487 39.7461 44.0026C39.7461 44.1565 39.6977 44.2894 39.6009 44.4014C39.5042 44.5133 39.3797 44.5763 39.2277 44.5902C39.1862 44.5902 39.1516 44.5902 39.124 44.5902C39.0825 44.5902 39.041 44.5902 38.9996 44.5902C38.6816 44.5902 38.3705 44.5623 38.0664 44.5063C37.7622 44.4503 37.465 44.3734 37.1747 44.2754C36.8429 44.1635 36.5249 44.0446 36.2208 43.9187C35.9166 43.7927 35.6125 43.6738 35.3083 43.5618C35.0042 43.4359 34.7069 43.317 34.4166 43.2051C34.1125 43.1071 33.8152 43.0232 33.5249 42.9532C33.3313 42.9112 33.1447 42.8762 32.965 42.8483C32.7714 42.8203 32.5779 42.8063 32.3843 42.8063C32.3014 42.8063 32.177 42.8063 32.0111 42.8063C31.859 42.8063 31.7277 42.7573 31.6171 42.6594C31.5065 42.5474 31.4512 42.4145 31.4512 42.2606ZM43.0641 37.3284C43.0641 37.6363 43.0641 38.098 43.0641 38.7136C43.0641 39.2733 42.9535 39.805 42.7323 40.3087C42.5249 40.8124 42.2346 41.2462 41.8613 41.61C41.5019 41.9878 41.0733 42.2816 40.5756 42.4915C40.0917 42.7013 39.5664 42.8063 38.9996 42.8063C38.4466 42.8063 37.9212 42.7013 37.4235 42.4915C36.9396 42.2816 36.5111 41.9878 36.1378 41.61C35.7784 41.2462 35.4949 40.8124 35.2876 40.3087C35.0664 39.805 34.9558 39.2733 34.9558 38.7136C34.9558 38.056 34.9558 37.0626 34.9558 35.7333C34.9558 35.3416 35.0111 34.9638 35.1217 34.6C35.2184 34.2362 35.3636 33.9004 35.5572 33.5926C35.6401 33.4527 35.7576 33.3687 35.9097 33.3407C36.048 33.2988 36.1793 33.3197 36.3037 33.4037C36.442 33.4876 36.5249 33.5996 36.5526 33.7395C36.594 33.8934 36.5733 34.0333 36.4903 34.1593C36.3521 34.3971 36.2415 34.642 36.1585 34.8938C36.0894 35.1597 36.0548 35.4395 36.0548 35.7333C36.0548 36.391 36.0548 37.3844 36.0548 38.7136C36.0548 39.1334 36.1309 39.5252 36.283 39.889C36.435 40.2388 36.6493 40.5536 36.9258 40.8334C37.1885 41.0993 37.4996 41.3092 37.859 41.4631C38.2184 41.631 38.5986 41.7149 38.9996 41.7149C39.4143 41.7149 39.8014 41.631 40.1609 41.4631C40.5203 41.3092 40.8314 41.0993 41.094 40.8334C41.3567 40.5536 41.571 40.2388 41.7369 39.889C41.889 39.5252 41.965 39.1334 41.965 38.7136C41.965 38.4058 41.965 37.9441 41.965 37.3284C41.965 37.1745 42.0203 37.0486 42.1309 36.9507C42.2277 36.8387 42.3521 36.7827 42.5042 36.7827C42.6562 36.7827 42.7876 36.8387 42.8982 36.9507C43.0088 37.0486 43.0641 37.1745 43.0641 37.3284ZM34.7484 40.5606C34.8175 40.7005 34.8936 40.8474 34.9765 41.0013C35.0595 41.1412 35.1424 41.2812 35.2254 41.4211C35.2807 41.477 35.2807 41.533 35.2254 41.589C35.1839 41.6589 35.1286 41.6799 35.0595 41.652C34.8936 41.596 34.7208 41.54 34.541 41.484C34.3613 41.4281 34.1816 41.3791 34.0019 41.3371C33.9051 41.3092 33.8429 41.2462 33.8152 41.1482C33.7876 41.0503 33.8152 40.9664 33.8982 40.8964C33.9673 40.8404 34.0295 40.7775 34.0848 40.7075C34.1539 40.6375 34.2161 40.5676 34.2714 40.4976C34.3406 40.4137 34.4304 40.3787 34.541 40.3927C34.6378 40.3927 34.7069 40.4486 34.7484 40.5606ZM42.7738 41.4001C42.8705 41.2742 42.9604 41.1342 43.0433 40.9803C43.1263 40.8404 43.2023 40.6935 43.2714 40.5396C43.3129 40.4417 43.382 40.3857 43.4788 40.3717C43.5894 40.3577 43.6724 40.3927 43.7277 40.4766C43.783 40.5606 43.8452 40.6375 43.9143 40.7075C43.9696 40.7635 44.0318 40.8264 44.1009 40.8964C44.1839 40.9664 44.2115 41.0503 44.1839 41.1482C44.1701 41.2462 44.1148 41.3092 44.018 41.3371C43.8383 41.3791 43.6585 41.4281 43.4788 41.484C43.2991 41.54 43.1263 41.596 42.9604 41.652C42.8913 41.6799 42.836 41.6589 42.7945 41.589C42.7392 41.533 42.7323 41.4701 42.7738 41.4001ZM45.8844 45.7446C45.912 45.8845 45.8774 46.0174 45.7807 46.1434C45.6977 46.2693 45.5802 46.3463 45.4281 46.3742C45.3314 46.3882 45.2069 46.4162 45.0549 46.4582C44.9028 46.5002 44.73 46.5631 44.5364 46.6471C44.3152 46.717 44.0526 46.815 43.7484 46.9409C43.4443 47.0809 43.1125 47.2207 42.753 47.3606C42.6148 47.4027 42.4765 47.3956 42.3383 47.3396C42.2 47.2698 42.1032 47.1648 42.048 47.0249C41.9926 46.8849 41.9926 46.745 42.048 46.6051C42.1171 46.4652 42.2207 46.3672 42.359 46.3113C42.7046 46.1853 43.0226 46.0594 43.3129 45.9335C43.6171 45.8076 43.8936 45.6956 44.1424 45.5977C44.3636 45.5137 44.571 45.4438 44.7645 45.3878C44.9442 45.3458 45.1102 45.3108 45.2622 45.2829C45.4143 45.2549 45.5456 45.2899 45.6562 45.3878C45.7807 45.4718 45.8567 45.5907 45.8844 45.7446ZM46.5479 40.4976C46.5479 40.6375 46.4996 40.7635 46.4028 40.8754C46.2922 40.9873 46.1608 41.0433 46.0088 41.0433C45.6908 41.0433 45.3936 40.9803 45.1171 40.8544C44.8406 40.7285 44.5986 40.5606 44.3913 40.3507C44.1839 40.1408 44.018 39.896 43.8936 39.6161C43.7692 39.3363 43.7069 39.0355 43.7069 38.7136C43.7069 38.056 43.7069 37.0626 43.7069 35.7333C43.7069 35.3136 43.6585 34.9148 43.5618 34.537C43.465 34.1453 43.3268 33.7815 43.147 33.4457C42.9535 33.1099 42.7323 32.802 42.4834 32.5222C42.2207 32.2284 41.9304 31.9765 41.6125 31.7666C41.488 31.6827 41.412 31.5637 41.3843 31.4098C41.3567 31.2699 41.3843 31.13 41.4673 30.9901C41.5502 30.8642 41.6678 30.7872 41.8198 30.7592C41.9719 30.7312 42.1102 30.7592 42.2346 30.8432C42.6217 31.109 42.9742 31.4168 43.2922 31.7666C43.6102 32.1164 43.8797 32.5012 44.1009 32.921C44.3221 33.3407 44.495 33.7885 44.6194 34.2642C44.7438 34.7259 44.806 35.2157 44.806 35.7333C44.806 36.391 44.806 37.3844 44.806 38.7136C44.806 38.8815 44.8406 39.0425 44.9097 39.1964C44.965 39.3363 45.048 39.4622 45.1585 39.5741C45.2691 39.6861 45.3936 39.777 45.5318 39.847C45.6839 39.903 45.8429 39.9309 46.0088 39.9309C46.1608 39.9309 46.2922 39.9869 46.4028 40.0989C46.4996 40.2108 46.5479 40.3437 46.5479 40.4976ZM46.5479 38.7136C46.5479 38.8675 46.4996 39.0005 46.4028 39.1124C46.2922 39.2243 46.1608 39.2803 46.0088 39.2803C45.912 39.2803 45.8221 39.2523 45.7392 39.1964C45.6977 39.1684 45.6562 39.1404 45.6148 39.1124C45.518 39.0005 45.4696 38.8675 45.4696 38.7136C45.4696 38.07 45.4696 37.5733 45.4696 37.2235C45.4696 36.8737 45.4696 36.377 45.4696 35.7333C45.4696 34.8239 45.2968 33.9774 44.9512 33.1938C44.6194 32.3963 44.1562 31.7037 43.5618 31.116C42.9811 30.5144 42.3037 30.0456 41.5295 29.7098C40.7415 29.36 39.8982 29.1851 38.9996 29.1851C38.1701 29.1851 37.389 29.339 36.6562 29.6469C35.9235 29.9407 35.2738 30.3465 34.7069 30.8642C34.1263 31.3818 33.6562 31.9905 33.2968 32.6901C32.9235 33.3897 32.6885 34.1453 32.5917 34.9568C32.5779 35.1107 32.5088 35.2366 32.3843 35.3346C32.2738 35.4325 32.1424 35.4675 31.9903 35.4395C31.8383 35.4255 31.7138 35.3626 31.6171 35.2506C31.5341 35.1247 31.4996 34.9848 31.5134 34.8309C31.624 33.8794 31.8936 32.9979 32.3221 32.1864C32.7507 31.3609 33.3037 30.6473 33.9811 30.0456C34.6447 29.43 35.4051 28.9542 36.2622 28.6184C37.1194 28.2686 38.0318 28.0938 38.9996 28.0938C40.0503 28.0938 41.0318 28.2896 41.9443 28.6814C42.8567 29.0872 43.6585 29.6329 44.3498 30.3185C45.0272 31.0181 45.5664 31.8296 45.9673 32.7531C46.3544 33.6765 46.5479 34.67 46.5479 35.7333C46.5479 36.377 46.5479 36.8737 46.5479 37.2235C46.5479 37.5733 46.5479 38.07 46.5479 38.7136ZM31.4512 38.7136C31.4512 38.2379 31.4512 37.8461 31.4512 37.5383C31.4512 37.2445 31.4512 36.9157 31.4512 36.5519C31.4512 36.398 31.5065 36.2721 31.6171 36.1741C31.7277 36.0622 31.859 36.0062 32.0111 36.0062C32.1632 36.0062 32.2876 36.0622 32.3843 36.1741C32.4949 36.2721 32.5503 36.398 32.5503 36.5519C32.5503 36.9157 32.5503 37.2445 32.5503 37.5383C32.5503 37.8461 32.5503 38.2379 32.5503 38.7136C32.5503 38.8675 32.4949 39.0005 32.3843 39.1124C32.2876 39.2243 32.1632 39.2803 32.0111 39.2803C31.859 39.2803 31.7277 39.2243 31.6171 39.1124C31.5065 39.0005 31.4512 38.8675 31.4512 38.7136ZM46.4443 44.0236C46.4443 44.1775 46.3959 44.3104 46.2991 44.4224C46.1885 44.5343 46.0572 44.5902 45.9051 44.5902C45.8498 44.5902 45.7599 44.5902 45.6355 44.5902C45.5249 44.5902 45.4074 44.5973 45.283 44.6112C45.1447 44.6252 45.0065 44.6462 44.8682 44.6742C44.73 44.7162 44.5779 44.7582 44.412 44.8001C44.2599 44.8561 44.094 44.9191 43.9143 44.989C43.5687 45.115 43.1816 45.2689 42.753 45.4508C42.3383 45.6187 41.889 45.7866 41.4051 45.9545C41.0318 46.0804 40.6447 46.1783 40.2438 46.2483C39.8429 46.3183 39.4281 46.3532 38.9996 46.3532C38.5848 46.3532 38.177 46.3183 37.776 46.2483C37.3751 46.1783 36.988 46.0804 36.6148 45.9545C36.3936 45.8845 36.1862 45.8076 35.9926 45.7236C35.7853 45.6536 35.5848 45.5767 35.3913 45.4927C35.253 45.4368 35.1562 45.3388 35.1009 45.1989C35.0457 45.059 35.0457 44.9191 35.1009 44.7791C35.1562 44.6392 35.253 44.5413 35.3913 44.4853C35.5295 44.4154 35.6678 44.4154 35.806 44.4853C35.9857 44.5553 36.1724 44.6252 36.3659 44.6952C36.5595 44.7652 36.7599 44.8351 36.9673 44.9051C37.2853 45.017 37.6171 45.101 37.9627 45.1569C38.3083 45.2129 38.6539 45.2409 38.9996 45.2409C39.359 45.2409 39.7115 45.2129 40.0572 45.1569C40.4028 45.101 40.7346 45.017 41.0526 44.9051C41.5088 44.7512 41.9443 44.5902 42.359 44.4224C42.7599 44.2405 43.1539 44.0796 43.541 43.9396C43.7346 43.8697 43.9212 43.8067 44.1009 43.7507C44.2807 43.6948 44.4535 43.6458 44.6194 43.6038C44.7991 43.5618 44.9719 43.5339 45.1378 43.5199C45.3037 43.4919 45.4696 43.4779 45.6355 43.4779C45.6908 43.4779 45.7807 43.4779 45.9051 43.4779C46.0572 43.4779 46.1885 43.5339 46.2991 43.6458C46.3959 43.7437 46.4443 43.8697 46.4443 44.0236ZM43.7277 48.2842C43.783 48.4241 43.783 48.5639 43.7277 48.704C43.6585 48.8438 43.5549 48.9418 43.4166 48.9978C43.2784 49.0397 43.1332 49.0888 42.9811 49.1447C42.829 49.2005 42.677 49.2565 42.5249 49.3125C41.9581 49.5085 41.3774 49.6553 40.783 49.7532C40.2023 49.8511 39.6079 49.9002 38.9996 49.9002C38.4051 49.9002 37.8106 49.8511 37.2161 49.7532C36.6355 49.6553 36.0618 49.5085 35.4949 49.3125C35.3291 49.2565 35.177 49.2005 35.0387 49.1447C34.8867 49.1026 34.7415 49.0537 34.6033 48.9978C34.465 48.9418 34.3613 48.8438 34.2922 48.704C34.2369 48.5639 34.2369 48.4241 34.2922 48.2842C34.3475 48.1303 34.4443 48.0253 34.5825 47.9693C34.6931 47.9133 34.8037 47.8993 34.9143 47.9273C34.942 47.9414 34.9696 47.9483 34.9973 47.9483C35.1217 48.0043 35.2599 48.0603 35.412 48.1163C35.5503 48.1723 35.6954 48.2211 35.8475 48.263C36.359 48.445 36.8774 48.578 37.4028 48.6618C37.9281 48.7459 38.4604 48.7879 38.9996 48.7879C39.5526 48.7879 40.0917 48.7459 40.6171 48.6618C41.1424 48.578 41.6608 48.445 42.1724 48.263C42.3244 48.2211 42.4696 48.1723 42.6079 48.1163C42.7461 48.0603 42.8844 48.0043 43.0226 47.9483C43.1609 47.8923 43.2991 47.8993 43.4373 47.9693C43.5756 48.0253 43.6724 48.1303 43.7277 48.2842ZM34.6033 47.0878C34.382 47.0039 34.1816 46.9199 34.0019 46.836C33.8221 46.766 33.6562 46.703 33.5042 46.6471C33.2968 46.5631 33.1171 46.5002 32.965 46.4582C32.8129 46.4162 32.6885 46.3882 32.5917 46.3742C32.4397 46.3463 32.3152 46.2693 32.2184 46.1434C32.1355 46.0174 32.1079 45.8845 32.1355 45.7446C32.1632 45.5907 32.2323 45.4718 32.3429 45.3878C32.4673 45.2899 32.6056 45.2549 32.7576 45.2829C32.9097 45.3108 33.0756 45.3458 33.2553 45.3878C33.435 45.4438 33.6424 45.5137 33.8774 45.5977C34.0433 45.6676 34.2231 45.7376 34.4166 45.8076C34.5963 45.8915 34.7899 45.9755 34.9973 46.0594C35.2184 46.1434 35.4466 46.2343 35.6816 46.3322C35.9028 46.4162 36.1447 46.5002 36.4074 46.5841C36.8083 46.724 37.23 46.836 37.6724 46.9199C38.1148 46.9899 38.5572 47.0249 38.9996 47.0249C39.3314 47.0249 39.6493 47.0039 39.9535 46.9619C40.2714 46.9339 40.5756 46.8779 40.8659 46.794C41.018 46.766 41.1562 46.794 41.2807 46.8779C41.4189 46.9619 41.5019 47.0738 41.5295 47.2138C41.571 47.3677 41.5502 47.5076 41.4673 47.6336C41.3843 47.7594 41.2668 47.8435 41.1148 47.8854C40.783 47.9693 40.4373 48.0322 40.0779 48.0743C39.7323 48.1163 39.3728 48.1372 38.9996 48.1372C38.488 48.1372 37.9834 48.0953 37.4857 48.0112C37.0019 47.9273 36.5249 47.8013 36.0548 47.6336C35.7784 47.5495 35.5226 47.4585 35.2876 47.3606C35.0387 47.2627 34.8106 47.1717 34.6033 47.0878ZM46.5479 42.2606C46.5479 42.4145 46.4996 42.5474 46.4028 42.6594C46.2922 42.7573 46.1608 42.8063 46.0088 42.8063C45.9258 42.8063 45.8014 42.8063 45.6355 42.8063C45.442 42.8063 45.2553 42.8203 45.0756 42.8483C44.882 42.8762 44.6954 42.9112 44.5157 42.9532C44.3221 42.9952 44.1355 43.0441 43.9558 43.1001C43.7622 43.1561 43.5687 43.219 43.3751 43.289C42.988 43.4289 42.594 43.5828 42.1931 43.7507C41.806 43.9326 41.4051 44.0935 40.9903 44.2335C40.8383 44.2894 40.7 44.2824 40.5756 44.2125C40.4373 44.1425 40.3406 44.0376 40.2853 43.8977C40.2438 43.7437 40.2507 43.6038 40.306 43.4779C40.3751 43.338 40.4788 43.24 40.6171 43.1841C40.9074 43.0861 41.1977 42.9742 41.488 42.8483C41.7922 42.7363 42.0894 42.6174 42.3797 42.4915C42.6839 42.3655 42.9949 42.2466 43.3129 42.1347C43.6309 42.0367 43.9489 41.9458 44.2668 41.8618C44.488 41.8198 44.7161 41.7849 44.9512 41.7569C45.1724 41.7289 45.4005 41.7149 45.6355 41.7149C45.7185 41.7149 45.8429 41.7149 46.0088 41.7149C46.1608 41.7149 46.2922 41.7639 46.4028 41.8618C46.4996 41.9738 46.5479 42.1067 46.5479 42.2606ZM31.4512 40.4976C31.4512 40.3437 31.5065 40.2108 31.6171 40.0989C31.7277 39.9869 31.859 39.9309 32.0111 39.9309C32.177 39.9309 32.329 39.903 32.4673 39.847C32.6194 39.777 32.7507 39.6861 32.8613 39.5741C32.9719 39.4622 33.0549 39.3363 33.1102 39.1964C33.1793 39.0425 33.2138 38.8815 33.2138 38.7136C33.2138 38.056 33.2138 37.0626 33.2138 35.7333C33.2138 34.9218 33.3659 34.1593 33.6701 33.4457C33.9742 32.7321 34.389 32.1094 34.9143 31.5777C35.4397 31.0461 36.0548 30.6263 36.7599 30.3185C37.465 30.0106 38.2115 29.8567 38.9996 29.8567C39.2761 29.8567 39.5456 29.8777 39.8083 29.9197C40.071 29.9617 40.3337 30.0176 40.5963 30.0876C40.7346 30.1296 40.8383 30.2135 40.9074 30.3395C40.9903 30.4794 41.0111 30.6193 40.9696 30.7592C40.9281 30.9131 40.8383 31.0251 40.7 31.095C40.5756 31.165 40.4373 31.179 40.2853 31.137C40.0779 31.081 39.8705 31.039 39.6631 31.0111C39.4558 30.9831 39.2346 30.9691 38.9996 30.9691C38.3498 30.9691 37.7415 31.095 37.1747 31.3469C36.6079 31.5987 36.1102 31.9345 35.6816 32.3543C35.253 32.7881 34.9143 33.2988 34.6655 33.8864C34.4304 34.4601 34.3129 35.0757 34.3129 35.7333C34.3129 36.391 34.3129 37.3844 34.3129 38.7136C34.3129 39.0355 34.2507 39.3363 34.1263 39.6161C34.0019 39.896 33.836 40.1408 33.6286 40.3507C33.4212 40.5606 33.1793 40.7285 32.9028 40.8544C32.6263 40.9803 32.329 41.0433 32.0111 41.0433C31.859 41.0433 31.7277 40.9873 31.6171 40.8754C31.5065 40.7635 31.4512 40.6375 31.4512 40.4976Z" fill="#606C6D"/>
</g>
<g clip-path="url(#clip0_2435_77262)">
<path fill-rule="evenodd" clip-rule="evenodd" d="M47.4022 17.5938H23.5957V41.7308H47.4022V17.5938ZM46.7409 18.3639H24.257V40.9607H46.7409V18.3639Z" fill="#606C6D"/>
<path d="M32.8535 26.8516H38.1438V32.1419H32.8535V26.8516Z" fill="#606C6D"/>
<path d="M32.8535 20.2422H38.1438V25.5325H32.8535V20.2422Z" fill="#606C6D"/>
<path d="M32.8535 33.7969H38.1438V39.0872H32.8535V33.7969Z" fill="#606C6D"/>
<path d="M39.4688 26.8516H44.7591V32.1419H39.4688V26.8516Z" fill="#606C6D"/>
<path d="M39.4688 20.2422H44.7591V25.5325H39.4688V20.2422Z" fill="#606C6D"/>
<path d="M39.4688 33.7969H44.7591V39.0872H39.4688V33.7969Z" fill="#606C6D"/>
<path d="M26.2422 26.8516H31.5325V32.1419H26.2422V26.8516Z" fill="#606C6D"/>
<path d="M26.2422 20.2422H31.5325V25.5325H26.2422V20.2422Z" fill="#606C6D"/>
<path d="M26.2422 33.7969H31.5325V39.0872H26.2422V33.7969Z" fill="#606C6D"/>
</g>
<defs>
<filter id="filter0_d_2435_77262" x="0.798354" y="0" width="68.4033" height="68.4033" filterUnits="userSpaceOnUse" color-interpolation-filters="sRGB">
<feFlood flood-opacity="0" result="BackgroundImageFix"/>
<feColorMatrix in="SourceAlpha" type="matrix" values="0 0 0 0 0 0 0 0 0 0 0 0 0 0 0 0 0 0 127 0" result="hardAlpha"/>
<feOffset dy="5.20165"/>
<feGaussianBlur stdDeviation="2.60082"/>
<feComposite in2="hardAlpha" operator="out"/>
<feColorMatrix type="matrix" values="0 0 0 0 0.713381 0 0 0 0 0.713381 0 0 0 0 0.713381 0 0 0 0.13 0"/>
<feBlend mode="normal" in2="BackgroundImageFix" result="effect1_dropShadow_2435_77262"/>
<feBlend mode="normal" in="SourceGraphic" in2="effect1_dropShadow_2435_77262" result="shape"/>
</filter>
<filter id="filter1_f_2435_77262" x="3" y="3" width="72" height="72" filterUnits="userSpaceOnUse" color-interpolation-filters="sRGB">
<feFlood flood-opacity="0" result="BackgroundImageFix"/>
<feBlend mode="normal" in="SourceGraphic" in2="BackgroundImageFix" result="shape"/>
<feGaussianBlur stdDeviation="11.5" result="effect1_foregroundBlur_2435_77262"/>
</filter>
<clipPath id="clip0_2435_77262">
<rect width="41" height="41" fill="white" transform="translate(15 9)"/>
</clipPath>
</defs>
</svg>
