<svg width="70" height="69" viewBox="0 0 70 69" fill="none" xmlns="http://www.w3.org/2000/svg">
<g filter="url(#filter0_d_2435_77253)">
<rect x="6" width="58" height="58" rx="14" fill="white"/>
<rect x="6.5" y="0.5" width="57" height="57" rx="13.5" stroke="#EAEAEA"/>
</g>
<path d="M43.947 37.149L40.6891 32.9332H36.1436C36.0429 32.9306 35.1578 32.8779 35.1578 31.9621C35.1578 31.0341 35.9834 30.8656 36.0777 30.8461H45.0737V29.8218L42.6102 29.8233V28.6431C42.6102 28.4759 42.9339 28.2434 43.2031 28.1227H46.1892L50.5197 32.0893L51.2123 31.3342L46.5867 27.0977H43.1007L42.9207 27.1299C42.7847 27.1809 41.5857 27.6585 41.5857 28.6431V29.8238L36.0127 29.8271C35.3615 29.9116 34.1328 30.4677 34.1328 31.9624C34.1328 33.3851 35.3168 33.9354 36.1281 33.9572H40.1868L43.4438 38.173H51.2106V37.1488L43.947 37.149Z" fill="#606C6D"/>
<path d="M27.2342 27.6849L28.0175 27.9336C27.8973 28.3697 27.6976 28.6947 27.4181 28.9069C27.1392 29.1188 26.7848 29.2245 26.3551 29.2245C25.8237 29.2245 25.3868 29.0431 25.0446 28.6799C24.702 28.317 24.5312 27.8206 24.5312 27.1907C24.5312 26.5246 24.7032 26.0075 25.0474 25.6386C25.3908 25.2704 25.8432 25.0859 26.4043 25.0859C26.8937 25.0859 27.2917 25.2307 27.5974 25.5198C27.7795 25.6913 27.9155 25.9362 28.0073 26.2567L27.2072 26.4484C27.1602 26.2404 27.0614 26.0775 26.911 25.957C26.7608 25.8363 26.5788 25.7765 26.3639 25.7765C26.0672 25.7765 25.8267 25.8833 25.6418 26.096C25.4568 26.3087 25.3651 26.6536 25.3651 27.1305C25.3651 27.6369 25.4561 27.9968 25.6378 28.2118C25.82 28.4262 26.0567 28.5342 26.3479 28.5342C26.5628 28.5342 26.7475 28.4657 26.9027 28.329C27.056 28.1928 27.1667 27.9781 27.2342 27.6849Z" fill="#606C6D"/>
<path d="M32.3206 29.155H31.4413L31.0921 28.2457H29.4922L29.162 29.155H28.3047L29.8636 25.1523H30.7179L32.3206 29.155ZM30.8329 27.5721L30.281 26.0869L29.7401 27.5721H30.8329Z" fill="#606C6D"/>
<path d="M32.752 29.1547V25.1523H34.4526C34.88 25.1523 35.1912 25.1886 35.3846 25.2608C35.5786 25.3325 35.7346 25.4605 35.8505 25.6445C35.9667 25.8282 36.0258 26.0384 36.0258 26.2746C36.0258 26.5755 35.937 26.8227 35.7603 27.0192C35.5836 27.2139 35.3199 27.3379 34.9682 27.3888C35.1434 27.4908 35.2867 27.6026 35.4016 27.7248C35.5141 27.8467 35.6683 28.0635 35.8615 28.3749L36.3502 29.1552H35.3834L34.7995 28.2849C34.5918 27.9732 34.4501 27.777 34.3734 27.6965C34.2969 27.6158 34.2161 27.5596 34.1309 27.5301C34.0449 27.4996 33.9092 27.4846 33.7237 27.4846H33.5598V29.1555H32.752V29.1547ZM33.5593 26.845H34.1574C34.545 26.845 34.787 26.8285 34.884 26.7957C34.9807 26.7635 35.056 26.7073 35.1099 26.6268C35.1654 26.5468 35.1914 26.4466 35.1914 26.3263C35.1914 26.1914 35.1557 26.0831 35.0844 26.0001C35.0122 25.9169 34.9107 25.8649 34.7793 25.8427C34.7135 25.8339 34.5176 25.8294 34.1889 25.8294H33.5585V26.8447L33.5593 26.845Z" fill="#606C6D"/>
<path d="M36.7832 25.1523H38.2604C38.5943 25.1523 38.8478 25.1776 39.0225 25.2288C39.2569 25.2975 39.4579 25.4208 39.6253 25.5972C39.7928 25.7732 39.9203 25.9899 40.0073 26.2458C40.095 26.5013 40.1385 26.817 40.1385 27.1916C40.1385 27.5211 40.0972 27.805 40.0155 28.0435C39.9158 28.3349 39.7726 28.5701 39.5871 28.7508C39.4469 28.8875 39.258 28.9938 39.0195 29.07C38.8408 29.1267 38.6026 29.155 38.3044 29.155H36.7832V25.1523ZM37.592 25.8292V28.4799H38.1954C38.4211 28.4799 38.5843 28.4674 38.6843 28.4419C38.815 28.4091 38.924 28.3534 39.0105 28.2754C39.0977 28.1974 39.1682 28.0677 39.2219 27.889C39.2777 27.7095 39.3039 27.4653 39.3039 27.1559C39.3039 26.8457 39.2777 26.6088 39.2219 26.4433C39.1672 26.2776 39.0917 26.1486 38.993 26.0554C38.8948 25.9634 38.7698 25.8994 38.6191 25.8669C38.5058 25.8409 38.2846 25.829 37.9557 25.829L37.592 25.8292Z" fill="#606C6D"/>
<path d="M40.1133 39.162H20.3568C19.4505 39.162 18.7129 38.4249 18.7129 37.5186V20.7762C18.7129 19.8702 19.4503 19.1328 20.3568 19.1328H46.4077C47.3142 19.1328 48.0515 19.8702 48.0515 20.7762V25.9998H47.1753V20.7762C47.1753 20.3533 46.8309 20.0094 46.4077 20.0094H20.3568C19.9336 20.0094 19.5895 20.3533 19.5895 20.7762V37.5186C19.5895 37.9415 19.9336 38.2857 20.3568 38.2857H40.113L40.1133 39.162Z" fill="#606C6D"/>
<defs>
<filter id="filter0_d_2435_77253" x="0.798354" y="0" width="68.4033" height="68.4033" filterUnits="userSpaceOnUse" color-interpolation-filters="sRGB">
<feFlood flood-opacity="0" result="BackgroundImageFix"/>
<feColorMatrix in="SourceAlpha" type="matrix" values="0 0 0 0 0 0 0 0 0 0 0 0 0 0 0 0 0 0 127 0" result="hardAlpha"/>
<feOffset dy="5.20165"/>
<feGaussianBlur stdDeviation="2.60082"/>
<feComposite in2="hardAlpha" operator="out"/>
<feColorMatrix type="matrix" values="0 0 0 0 0.713381 0 0 0 0 0.713381 0 0 0 0 0.713381 0 0 0 0.13 0"/>
<feBlend mode="normal" in2="BackgroundImageFix" result="effect1_dropShadow_2435_77253"/>
<feBlend mode="normal" in="SourceGraphic" in2="effect1_dropShadow_2435_77253" result="shape"/>
</filter>
</defs>
</svg>
