<svg width="47" height="47" viewBox="0 0 47 47" fill="none" xmlns="http://www.w3.org/2000/svg">
<g clip-path="url(#clip0_1594_5806)">
<path opacity="0.4" d="M28.4095 47.0011C29.981 47.0011 31.3514 45.6307 31.3514 44.0592V37.1886H33.3158C34.4945 37.1886 35.2801 36.4027 35.2801 35.2243V15.6008H11.7266V35.2244C11.7266 36.4031 12.5123 37.1888 13.6909 37.1888H15.6554V44.0594C15.6554 45.6309 17.0255 47.0013 18.5973 47.0013C20.1686 47.0013 21.5389 45.6309 21.5389 44.0594V37.1888H25.4678V44.0594C25.4676 45.6307 26.838 47.0011 28.4095 47.0011Z" fill="#606C6D"/>
<path d="M40.188 35.2243C41.7595 35.2243 43.1296 33.8541 43.1296 32.2824V18.5414C43.1296 16.9782 41.7595 15.6007 40.188 15.6007C38.6164 15.6007 37.2461 16.9782 37.2461 18.5414V32.2824C37.2461 33.8539 38.6162 35.2243 40.188 35.2243Z" fill="#606C6D"/>
<path d="M6.82245 35.2243C8.39408 35.2243 9.76435 33.8541 9.76435 32.2824V18.5414C9.76435 16.9782 8.39424 15.6007 6.82245 15.6007C5.25097 15.6007 3.88086 16.9782 3.88086 18.5414V32.2824C3.88086 33.8539 5.25097 35.2243 6.82245 35.2243Z" fill="#606C6D"/>
<path d="M32.9227 0.29715C32.53 -0.0980733 31.9453 -0.0980733 31.5526 0.29715L28.918 2.92303L28.7964 3.04442C27.2342 2.26213 25.4827 1.87145 23.5321 1.86769C23.5226 1.86769 23.5131 1.86738 23.5036 1.86738H23.5033C23.4934 1.86738 23.4843 1.86769 23.4744 1.86769C21.524 1.87145 19.7725 2.26213 18.2104 3.04442L18.0886 2.92303L15.454 0.29715C15.061 -0.0980733 14.4767 -0.0980733 14.0839 0.29715C13.6909 0.690177 13.6909 1.27344 14.0839 1.66616L16.6325 4.21519C15.8113 4.76348 15.0667 5.43442 14.4191 6.20181C12.8688 8.03944 11.8799 10.431 11.744 13.0222C11.7427 13.0492 11.7401 13.0759 11.7388 13.1028C11.7305 13.2793 11.7266 13.4567 11.7266 13.6347H35.2801C35.2801 13.4567 35.2759 13.2793 35.2679 13.1028C35.2666 13.0759 35.264 13.0492 35.2624 13.0222C35.1267 10.431 34.1376 8.03928 32.5873 6.20197C31.94 5.43458 31.1951 4.76364 30.3739 4.21535L32.9227 1.66631C33.3158 1.27344 33.3158 0.690177 32.9227 0.29715ZM18.5936 10.2049C17.7808 10.2049 17.122 9.54599 17.122 8.73328C17.122 7.92056 17.7808 7.2617 18.5936 7.2617C19.4063 7.2617 20.0651 7.92056 20.0651 8.73328C20.0651 9.54599 19.4063 10.2049 18.5936 10.2049ZM28.4131 10.2049C27.6004 10.2049 26.9415 9.54599 26.9415 8.73328C26.9415 7.92056 27.6004 7.2617 28.4131 7.2617C29.2258 7.2617 29.8847 7.92056 29.8847 8.73328C29.8847 9.54599 29.2258 10.2049 28.4131 10.2049Z" fill="#606C6D"/>
</g>
<defs>
<clipPath id="clip0_1594_5806">
<rect width="47" height="47" fill="white"/>
</clipPath>
</defs>
</svg>
