<svg width="124" height="58" viewBox="0 0 124 58" fill="none" xmlns="http://www.w3.org/2000/svg">
<g clip-path="url(#clip0_1594_5822)">
<path d="M82 29.7657H86.5252C91.2224 29.7657 94.3693 33.2459 94.3693 37.8357C94.3693 42.362 91.137 45.8628 86.5044 45.8628H82V29.7657ZM85.1676 43.1303H85.6857C89.585 43.1303 91.0932 40.9952 91.0932 37.8145C91.0932 34.3132 89.2832 32.4982 85.6857 32.4982H85.1676V43.1303Z" fill="#606C6D"/>
<path d="M107.405 34.0359C106.522 32.9681 105.186 32.3278 103.829 32.3278C100.791 32.3278 99.0445 35.1032 99.0445 37.8791C99.0445 40.5899 100.854 43.3013 103.807 43.3013C105.164 43.3013 106.522 42.597 107.405 41.5937V45.33C106.22 45.8846 105.035 46.2904 103.721 46.2904C99.1518 46.2904 95.7695 42.3832 95.7695 37.9437C95.7695 33.3745 99.0237 29.3403 103.786 29.3403C105.057 29.3403 106.307 29.6816 107.405 30.2796V34.0359Z" fill="#606C6D"/>
<path d="M117.576 33.3105C116.972 32.4987 116.196 31.9865 115.14 31.9865C114.127 31.9865 113.158 32.7554 113.158 33.8015C113.158 36.5123 119.601 35.3816 119.601 40.7825C119.601 44.0061 117.576 46.2904 114.257 46.2904C112.016 46.2904 110.378 45.0094 109.258 43.1521L111.305 41.1667C111.737 42.4055 112.879 43.5156 114.235 43.5156C115.528 43.5156 116.326 42.4266 116.326 41.1884C116.326 39.5232 114.774 39.0539 113.504 38.5623C111.414 37.7088 109.884 36.6626 109.884 34.1651C109.884 31.496 111.888 29.3403 114.625 29.3403C116.068 29.3403 118.072 30.0446 119.063 31.1336L117.576 33.3105Z" fill="#606C6D"/>
<path d="M26.0729 33.9808C24.577 32.3646 22.7754 31.4549 20.5316 31.4549C16.8257 31.4549 14.038 34.5877 14.038 38.1241C14.038 41.6605 16.7914 44.8613 20.4974 44.8613C22.7412 44.8613 24.849 43.7829 26.2768 42.0659V44.1197C24.6787 45.5004 22.6732 46.276 20.5654 46.276C15.9075 46.276 12.5078 42.671 12.5078 38.1241C12.5078 33.6106 15.9755 30.0396 20.5991 30.0396C22.6389 30.0396 24.5084 30.6465 26.0723 31.9598L26.0729 33.9808Z" fill="#606C6D"/>
<path d="M32.1588 25.1898C32.1588 25.9648 31.5463 26.5705 30.7652 26.5705C29.983 26.5705 29.3711 25.9642 29.3711 25.1898C29.3711 24.4488 29.9836 23.8091 30.7652 23.8091C31.5463 23.8085 32.1588 24.4488 32.1588 25.1898ZM31.5121 45.9386H29.9825V30.377H31.5121V45.9386Z" fill="#606C6D"/>
<path d="M38.0419 32.3981H38.1099C38.7218 30.9834 39.844 30.0403 41.5095 30.0403C42.1221 30.0403 42.6317 30.175 43.1757 30.4111L42.3598 31.7584C41.9861 31.5563 41.6798 31.455 41.2719 31.455C37.8384 31.455 38.0419 35.699 38.0419 37.9895V45.9387H36.5117V30.3771H38.0419V32.3981Z" fill="#606C6D"/>
<path d="M46.6434 32.3981H46.7114C47.3234 30.9834 48.4455 30.0403 50.1117 30.0403C50.7236 30.0403 51.2333 30.175 51.7772 30.4111L50.9613 31.7584C50.5876 31.5563 50.2814 31.455 49.8734 31.455C46.44 31.455 46.6434 35.699 46.6434 37.9895V45.9387H45.1133V30.3771H46.6434V32.3981Z" fill="#606C6D"/>
<path d="M64.7637 30.377V39.7069C64.7637 41.2903 64.798 42.8737 63.8118 44.1871C62.7239 45.6017 60.8886 46.276 59.1202 46.276C57.3518 46.276 55.5165 45.6017 54.4281 44.1871C53.4424 42.8737 53.4767 41.2903 53.4767 39.7069V30.377H55.0068V39.1686C55.0068 42.1661 55.3463 44.8613 59.1202 44.8613C62.8941 44.8613 63.2335 42.1661 63.2335 39.1686V30.377H64.7637Z" fill="#606C6D"/>
<path d="M75.5071 33.2064C74.9968 32.128 73.9769 31.4549 72.7536 31.4549C71.428 31.4549 70.0681 32.5327 70.0681 33.88C70.0681 37.6191 77.7166 35.7997 77.7166 41.425C77.7166 44.2884 75.4734 46.276 72.6513 46.276C70.0338 46.276 67.8912 44.6926 67.2461 42.1661L68.742 41.6945C69.3191 43.5474 70.5772 44.8613 72.6513 44.8613C74.6237 44.8613 76.1864 43.3119 76.1864 41.3577C76.1864 39.438 74.6906 38.8317 73.1278 38.2922C70.9858 37.5178 68.538 36.6087 68.538 33.9808C68.538 31.6236 70.543 30.0402 72.8216 30.0402C74.4197 30.0402 76.1527 31.0841 76.8332 32.5327L75.5071 33.2064Z" fill="#606C6D"/>
<path d="M14.9648 51.8078H16.1927C18.0111 51.8078 19.5227 52.7592 19.5227 54.7168C19.5227 56.7216 18.0425 57.6881 16.1691 57.6881H14.9648V51.8078ZM15.7043 57.0172H15.964C17.475 57.0172 18.7821 56.456 18.7821 54.7479C18.7821 53.0326 17.4756 52.4786 15.964 52.4786H15.7043V57.0172Z" fill="#606C6D"/>
<path d="M21.2574 56.2139L20.5803 57.6876H19.7852L22.619 51.5579L25.4528 57.6876H24.6577L23.9805 56.2139H21.2574ZM22.619 53.1646L21.5642 55.5436H23.6737L22.619 53.1646Z" fill="#606C6D"/>
<path d="M27.0746 57.6881H26.3345V52.4787H24.9258V51.8083H28.4834V52.4787H27.0746V57.6881Z" fill="#606C6D"/>
<path d="M29.4332 56.2139L28.7561 57.6876H27.9609L30.7948 51.5579L33.6286 57.6876H32.8335L32.1563 56.2139H29.4332ZM30.7948 53.1646L29.74 55.5436H31.8495L30.7948 53.1646Z" fill="#606C6D"/>
<path d="M41.0306 52.9308C40.6058 52.5566 40.023 52.354 39.4645 52.354C38.1344 52.354 37.119 53.4541 37.119 54.7558C37.119 56.043 38.1265 57.142 39.4487 57.142C40.0315 57.142 40.59 56.9232 41.0306 56.5335V57.3998C40.5743 57.6648 39.9916 57.8129 39.4723 57.8129C37.7798 57.8129 36.3789 56.4789 36.3789 54.7792C36.3789 53.0399 37.7882 51.6831 39.5353 51.6831C40.0551 51.6831 40.5822 51.8078 41.0306 52.0806V52.9308Z" fill="#606C6D"/>
<path d="M47.8662 54.7474C47.8662 56.495 46.4732 57.8129 44.7571 57.8129C43.0409 57.8129 41.6484 56.495 41.6484 54.7474C41.6484 53.0633 43.0572 51.6831 44.7571 51.6831C46.4575 51.6837 47.8662 53.0633 47.8662 54.7474ZM47.1262 54.7474C47.1262 53.4536 46.1501 52.3696 44.7565 52.3696C43.3629 52.3696 42.3874 53.4536 42.3874 54.7474C42.3874 56.0892 43.4736 57.1258 44.7565 57.1258C46.0394 57.1258 47.1262 56.0897 47.1262 54.7474Z" fill="#606C6D"/>
<path d="M49.4778 57.0172H51.2805V57.6881H48.7383V51.8078H49.4778V57.0172Z" fill="#606C6D"/>
<path d="M52.6653 57.0173H54.468V57.6882H51.9258V51.8079H52.6653V57.0173Z" fill="#606C6D"/>
<path d="M55.1094 51.8079H58.2972V52.4782H55.8494V54.1239H58.2264V54.7942H55.8494V57.0168H58.2972V57.6876H55.1094V51.8079Z" fill="#606C6D"/>
<path d="M63.6868 52.9307C63.262 52.5566 62.6793 52.3539 62.1207 52.3539C60.7906 52.3539 59.7752 53.4541 59.7752 54.7557C59.7752 56.0429 60.7828 57.1419 62.105 57.1419C62.6877 57.1419 63.2463 56.9231 63.6868 56.5334V57.3997C63.2305 57.6647 62.6478 57.8128 62.1286 57.8128C60.4366 57.8128 59.0352 56.4789 59.0352 54.7791C59.0352 53.0398 60.4445 51.6831 62.1915 51.6831C62.7113 51.6831 63.2384 51.8078 63.6868 52.0806V52.9307Z" fill="#606C6D"/>
<path d="M66.3207 57.6881H65.5801V52.4787H64.1719V51.8083H67.7289V52.4787H66.3207V57.6881Z" fill="#606C6D"/>
<path d="M69.1848 57.6882H68.4453V51.8079H69.1848V57.6882Z" fill="#606C6D"/>
<path d="M76.2535 54.7474C76.2535 56.495 74.8599 57.8129 73.1443 57.8129C71.4276 57.8129 70.0352 56.495 70.0352 54.7474C70.0352 53.0633 71.4445 51.6831 73.1443 51.6831C74.8442 51.6831 76.2535 53.0633 76.2535 54.7474ZM75.5134 54.7474C75.5134 53.4536 74.5368 52.3696 73.1438 52.3696C71.7502 52.3696 70.7741 53.4536 70.7741 54.7474C70.7741 56.0892 71.8609 57.1258 73.1438 57.1258C74.4267 57.1258 75.5134 56.0897 75.5134 54.7474Z" fill="#606C6D"/>
<path d="M77.0508 51.5266L81.5058 56.1515V51.8078H82.2453V57.9292L77.7903 53.3049V57.6875H77.0508V51.5266Z" fill="#606C6D"/>
<path d="M88.5227 52.9229C88.3019 52.5566 88.0192 52.3695 87.5702 52.3695C87.0982 52.3695 86.5779 52.6891 86.5779 53.2035C86.5779 53.6634 87.0342 53.9061 87.4045 54.0464L87.8304 54.2095C88.6722 54.5375 89.3021 54.9979 89.3021 55.98C89.3021 57.0489 88.4682 57.8134 87.4045 57.8134C86.4441 57.8134 85.6967 57.1107 85.5703 56.1676L86.3188 56.0117C86.3098 56.6587 86.8302 57.1269 87.468 57.1269C88.1058 57.1269 88.562 56.5969 88.562 55.98C88.562 55.3486 88.0496 55.0758 87.5382 54.8654L87.1286 54.6934C86.4526 54.405 85.8378 54.0225 85.8378 53.2035C85.8378 52.252 86.6886 51.6836 87.5848 51.6836C88.2468 51.6836 88.7902 52.0032 89.1127 52.5722L88.5227 52.9229Z" fill="#606C6D"/>
<path d="M90.2656 51.8079H93.4529V52.4782H91.0057V54.1239H93.3827V54.7942H91.0057V57.0168H93.4529V57.6876H90.2656V51.8079Z" fill="#606C6D"/>
<path d="M98.2142 57.6882H97.3174L95.5692 55.2001H95.2629V57.6882H94.5234V51.8079H95.4203C95.9479 51.8079 96.5144 51.8157 96.9864 52.0807C97.4826 52.3696 97.7658 52.923 97.7658 53.4842C97.7658 54.3271 97.1994 55.0286 96.3413 55.13L98.2142 57.6882ZM95.2629 54.5921H95.499C96.2542 54.5921 97.0729 54.4518 97.0729 53.5154C97.0729 52.5957 96.1918 52.4626 95.4596 52.4626H95.2629V54.5921Z" fill="#606C6D"/>
<path d="M100.914 56.1593L102.676 51.8083H103.487L100.914 58.0005L98.332 51.8083H99.1418L100.914 56.1593Z" fill="#606C6D"/>
<path d="M104.861 57.6882H104.121V51.8079H104.861V57.6882Z" fill="#606C6D"/>
<path d="M110.449 52.9308C110.024 52.5566 109.441 52.354 108.882 52.354C107.552 52.354 106.537 53.4541 106.537 54.7558C106.537 56.043 107.544 57.142 108.867 57.142C109.449 57.142 110.008 56.9232 110.448 56.5335V57.3998C109.992 57.6648 109.41 57.8129 108.89 57.8129C107.198 57.8129 105.797 56.4789 105.797 54.7792C105.797 53.0399 107.206 51.6831 108.953 51.6831C109.472 51.6831 110 51.8078 110.448 52.0806V52.9308H110.449Z" fill="#606C6D"/>
<path d="M111.484 51.8079H114.672V52.4782H112.224V54.1239H114.601V54.7942H112.224V57.0168H114.672V57.6876H111.484V51.8079Z" fill="#606C6D"/>
<path d="M118.377 52.9229C118.156 52.5566 117.874 52.3695 117.425 52.3695C116.953 52.3695 116.433 52.6891 116.433 53.2035C116.433 53.6634 116.89 53.9061 117.26 54.0464L117.685 54.2095C118.527 54.5375 119.156 54.9979 119.156 55.98C119.156 57.0489 118.323 57.8134 117.26 57.8134C116.3 57.8134 115.552 57.1107 115.426 56.1676L116.173 56.0117C116.165 56.6587 116.685 57.1269 117.322 57.1269C117.96 57.1269 118.416 56.5969 118.416 55.98C118.416 55.3486 117.905 55.0758 117.394 54.8654L116.984 54.6934C116.307 54.405 115.693 54.0225 115.693 53.2035C115.693 52.252 116.543 51.6836 117.44 51.6836C118.101 51.6836 118.645 52.0032 118.967 52.5722L118.377 52.9229Z" fill="#606C6D"/>
<path d="M124 32.3715L123.874 30.7207L123.811 29.8956L123.668 29.0822L123.376 27.4632L122.934 25.8765L122.71 25.0854L122.411 24.3193C122.207 23.8104 122.02 23.2949 121.804 22.7927C121.288 21.8251 120.86 20.814 120.227 19.916C119.921 19.4622 119.661 18.9784 119.32 18.5508L118.308 17.2614L118.056 16.9396L117.773 16.6429L117.207 16.0499C116.825 15.6597 116.472 15.2421 116.043 14.9019L114.812 13.8258C114.389 13.4817 113.933 13.1799 113.496 12.8553L112.834 12.3765C112.603 12.2307 112.364 12.0987 112.13 11.959L110.718 11.1367L109.235 10.4502C108.986 10.3416 108.747 10.2069 108.488 10.1201L107.717 9.85115C107.2 9.68134 106.696 9.46978 106.17 9.33338L104.584 8.94923C104.061 8.79668 103.516 8.75214 102.978 8.67085C102.439 8.6085 101.905 8.49158 101.361 8.47377L99.7329 8.41141L99.3267 8.39527C99.2682 8.39415 99.1688 8.38636 99.1457 8.39081L98.9361 8.40083L98.1022 8.44092L97.2706 8.4849L96.4749 8.58456C95.9438 8.64469 95.4134 8.70983 94.8823 8.8312C93.8158 9.01938 92.7717 9.31111 91.7445 9.64293C91.2388 9.83 90.7173 9.9792 90.2222 10.1958C89.7294 10.4157 89.2259 10.6117 88.7415 10.8488C88.265 11.1005 87.7812 11.3404 87.3092 11.5993L85.9307 12.4434L85.3862 12.7768L84.953 12.3136C84.0258 11.3204 83.075 10.3444 82.0315 9.47034C81.0133 8.56786 79.9046 7.77282 78.7818 7.00563C77.6349 6.27407 76.4706 5.56756 75.2422 4.97741L74.3235 4.53034L73.3839 4.13171C72.763 3.85 72.1139 3.64122 71.4762 3.40294C70.8327 3.17745 70.1758 2.99595 69.5246 2.79775C68.8604 2.64465 68.2063 2.45034 67.5359 2.33009C66.8666 2.20538 66.2002 2.06229 65.5219 1.98713L64.5087 1.85129L63.4894 1.77C62.8111 1.6993 62.1284 1.6993 61.4473 1.67925C61.2911 1.67647 61.0753 1.667 60.9674 1.66979L60.4432 1.69094L59.3946 1.72936C59.0473 1.74551 58.6916 1.74773 58.3511 1.77557L57.3492 1.89249C56.6816 1.976 56.0134 2.02054 55.3447 2.17476C54.6777 2.31394 54.0023 2.4136 53.3431 2.58285L51.3724 3.12345C50.7268 3.33668 50.0896 3.57831 49.4467 3.80379C49.123 3.90957 48.8089 4.04152 48.5004 4.18628L47.5682 4.60216C46.9371 4.86049 46.3403 5.18897 45.7436 5.51522L44.8445 5.99904C44.5478 6.16439 44.2685 6.36036 43.9797 6.53964C42.8131 7.2428 41.7246 8.06122 40.6525 8.89745L39.1083 10.2309L37.663 11.6695C37.1769 12.1455 36.7644 12.6889 36.311 13.195C35.8496 13.696 35.4653 14.2572 35.0579 14.8012L34.451 15.6207L33.9076 16.4825C33.5496 17.0599 33.163 17.6205 32.8652 18.2324C32.5567 18.8365 32.1976 19.4177 31.9251 20.0396L31.0979 21.903L30.7602 22.6646L30.0825 22.2003L29.0356 21.4821C28.6816 21.2505 28.3057 21.0529 27.9415 20.8357C27.5813 20.6097 27.1824 20.4577 26.8053 20.2645C26.4283 20.0674 26.0276 19.9249 25.6314 19.7707L25.0363 19.5402L24.425 19.357C24.0164 19.2373 23.613 19.0998 23.1926 19.0246C22.7751 18.9439 22.3627 18.8259 21.9395 18.7752L20.6696 18.6087L19.3895 18.5425L19.2293 18.5341C19.2147 18.533 19.1495 18.5302 19.1754 18.5308L19.0933 18.5341L18.7641 18.5469L18.1049 18.5726C17.2069 18.5687 16.3978 18.7374 15.5543 18.842C15.1362 18.9116 14.7221 19.0358 14.3046 19.1293L13.6797 19.2802C13.4729 19.3364 13.274 19.4177 13.0711 19.4856L11.8573 19.9121L10.6902 20.4532C10.2929 20.6192 9.92429 20.8374 9.55398 21.0545C9.18872 21.2783 8.79425 21.4621 8.45034 21.7193L7.40009 22.467C7.04495 22.7114 6.74263 23.0204 6.40997 23.2938C5.73115 23.8282 5.18327 24.4969 4.5775 25.1115C4.05884 25.7969 3.47668 26.4427 3.04399 27.191C2.82203 27.5606 2.55398 27.9053 2.36967 28.2956L1.78133 29.4502C1.57903 29.8333 1.45428 30.2492 1.28683 30.6472C1.1278 31.0498 0.960905 31.4495 0.860881 31.8715L0.502368 33.122C0.412459 33.5451 0.345589 33.9732 0.265232 34.4008L0.149474 35.0422L0.0994621 35.693L0 36.9952L0.033716 35.688L0.0522597 35.0333L0.135426 34.3836C0.193867 33.951 0.239945 33.5139 0.309625 33.0824L0.608011 31.8014C0.692863 31.3699 0.846833 30.9573 0.992373 30.5431C1.1469 30.1322 1.25929 29.7024 1.44979 29.3055L2.00554 28.1063C2.17974 27.6998 2.43879 27.3385 2.6512 26.9516C3.06703 26.1682 3.63627 25.4845 4.14594 24.7591C4.74215 24.1044 5.28498 23.3929 5.96267 22.8122C6.29477 22.5165 6.59821 22.1858 6.9556 21.9186L8.01709 21.1019C8.36605 20.8213 8.76559 20.6147 9.13871 20.3675C9.51745 20.1287 9.89226 19.8815 10.3036 19.7L11.5118 19.107L12.7727 18.631C12.9846 18.5553 13.1919 18.4662 13.4072 18.4016L14.059 18.2274C14.4962 18.1183 14.9238 17.9807 15.37 17.8956C16.2668 17.758 17.185 17.5643 18.051 17.5504L18.709 17.5103L19.0383 17.4902L19.1203 17.4852C19.2007 17.4813 19.1911 17.4852 19.2305 17.4852L19.4002 17.4897L20.7544 17.5292L22.1031 17.6751C22.5537 17.7196 22.9932 17.8332 23.4393 17.9095C23.8878 17.9802 24.3204 18.1149 24.7582 18.2329L25.4128 18.4144L26.0523 18.6449C26.4783 18.7992 26.9087 18.9433 27.3161 19.1432C27.7241 19.3392 28.1528 19.4951 28.5439 19.7261C28.9384 19.9483 29.3452 20.152 29.729 20.3909L30.8675 21.1347L29.8527 21.4314L30.6692 19.4695C30.9406 18.8147 31.2957 18.1984 31.6087 17.5621C31.9138 16.9201 32.3089 16.3289 32.6758 15.7209L33.2344 14.814L33.8576 13.9494C34.2768 13.3753 34.6741 12.7846 35.1495 12.2535C35.617 11.7179 36.044 11.145 36.5464 10.6401L38.0428 9.11514L39.646 7.69878C40.7603 6.80966 41.8904 5.93167 43.1126 5.18675C43.4149 4.99745 43.7082 4.79146 44.019 4.61553L44.9614 4.10276C45.5879 3.75758 46.2139 3.41129 46.8759 3.1357L47.8553 2.69476C48.179 2.54221 48.5083 2.40246 48.8488 2.28889C49.5231 2.04838 50.1935 1.79172 50.8723 1.56568L52.9442 0.988333C53.637 0.807948 54.3479 0.698269 55.0492 0.550175C55.7448 0.388162 56.4754 0.331374 57.1946 0.240625L58.2769 0.114244C58.6326 0.0847364 58.9771 0.0813959 59.3277 0.0641368L60.3757 0.0212675L60.9006 0.00122465C61.1422 -0.00322931 61.2759 0.00901907 61.4693 0.0118028C62.1857 0.0346293 62.9039 0.0390833 63.6175 0.115357L64.6897 0.20555L65.7551 0.351974C66.4676 0.434372 67.1689 0.586363 67.8736 0.721096C68.5794 0.851374 69.2672 1.05681 69.9646 1.22161C70.6496 1.43206 71.3396 1.62692 72.0145 1.86632C72.6849 2.11853 73.3665 2.34234 74.0183 2.64019L75.0051 3.06388L75.9688 3.53711C77.2539 4.16512 78.4835 4.90169 79.6753 5.68949C80.8453 6.50846 81.9967 7.35694 83.0548 8.31454C84.1371 9.2443 85.1216 10.2771 86.0797 11.3288L85.1019 11.1996L86.5758 10.3205C87.0805 10.051 87.5963 9.80105 88.106 9.5416C88.6218 9.29552 89.1585 9.09231 89.6845 8.86683C90.2116 8.64413 90.7656 8.48991 91.3045 8.29895C92.3986 7.96602 93.5118 7.68764 94.6418 7.51227C95.2004 7.39869 95.7769 7.33912 96.354 7.28734L97.2177 7.20216L98.0539 7.17711L98.8889 7.1554L99.0974 7.15038C99.2126 7.14593 99.2519 7.15651 99.3334 7.15874L99.7605 7.18435L101.468 7.28901C102.037 7.32186 102.597 7.45492 103.16 7.53342C103.72 7.63086 104.289 7.6921 104.834 7.86246L106.483 8.30229C107.03 8.45762 107.552 8.68867 108.087 8.87852L108.885 9.17805C109.151 9.27492 109.397 9.42023 109.654 9.53882L111.181 10.2888C111.669 10.5755 112.147 10.88 112.629 11.1751C112.869 11.3254 113.113 11.4679 113.348 11.6249L114.024 12.1366C114.47 12.4834 114.934 12.8069 115.363 13.1727L116.603 14.3229C117.031 14.6909 117.382 15.1347 117.759 15.5511L118.318 16.1825L118.596 16.4981L118.844 16.8383L119.832 18.199C120.166 18.6499 120.415 19.1555 120.709 19.6304C121.32 20.5707 121.722 21.6207 122.207 22.6223C122.408 23.1418 122.579 23.6729 122.766 24.1968L123.04 24.9846L123.237 25.7952L123.621 27.4153L123.834 29.0678L123.935 29.8912L123.957 30.7185L124 32.3715Z" fill="#606C6D"/>
</g>
<defs>
<clipPath id="clip0_1594_5822">
<rect width="124" height="58" fill="white"/>
</clipPath>
</defs>
</svg>
