<svg width="58" height="58" viewBox="0 0 58 58" fill="none" xmlns="http://www.w3.org/2000/svg">
<path opacity="0.4" d="M39.1265 4.83333H18.8748C10.0782 4.83333 4.83398 10.0775 4.83398 18.8742V39.1017C4.83398 47.9225 10.0782 53.1667 18.8748 53.1667H39.1023C47.899 53.1667 53.1432 47.9225 53.1432 39.1258V18.8742C53.1673 10.0775 47.9232 4.83333 39.1265 4.83333Z" fill="#606C6D"/>
<path d="M16.6499 38.0625C15.9732 38.0625 15.3449 37.7 15.0307 37.0717C14.5715 36.1775 14.934 35.09 15.8524 34.6308C17.9549 33.5917 19.7432 31.9967 21.024 30.0633C21.459 29.4108 21.459 28.5892 21.024 27.9367C19.719 26.0033 17.9307 24.4083 15.8524 23.3692C14.934 22.9342 14.5715 21.8467 15.0307 20.9283C15.4657 20.0342 16.5532 19.6717 17.4474 20.1308C20.1057 21.46 22.3774 23.4658 24.0207 25.9308C25.2532 27.7917 25.2532 30.2083 24.0207 32.0692C22.3774 34.5342 20.1057 36.54 17.4474 37.8692C17.2057 37.99 16.9157 38.0625 16.6499 38.0625Z" fill="#606C6D"/>
<path d="M41.0827 38.0625H31.416C30.4252 38.0625 29.6035 37.2408 29.6035 36.25C29.6035 35.2592 30.4252 34.4375 31.416 34.4375H41.0827C42.0735 34.4375 42.8952 35.2592 42.8952 36.25C42.8952 37.2408 42.0735 38.0625 41.0827 38.0625Z" fill="#606C6D"/>
</svg>
