<svg width="80" height="80" viewBox="0 0 80 80" fill="none" xmlns="http://www.w3.org/2000/svg">
<circle cx="40" cy="40" r="40" fill="white"/>
<g clip-path="url(#clip0_1765_4505)">
<path fill-rule="evenodd" clip-rule="evenodd" d="M50.9079 33.6852C47.7764 35.177 46.2106 36.9299 46.2106 38.9438C47.5454 39.093 48.6491 39.6214 49.5218 40.5289C50.3945 41.4364 50.8309 42.4868 50.8309 43.6803C50.8309 44.9483 50.4074 46.0174 49.5603 46.8877C48.7133 47.7579 47.6481 48.193 46.3646 48.193C44.9272 48.193 43.6823 47.6273 42.6299 46.4961C41.5775 45.3648 41.0513 43.9911 41.0513 42.375C41.0513 37.5266 43.8491 33.735 49.4448 31L50.9079 33.6852ZM39.8566 33.6852C36.6994 35.177 35.1208 36.9299 35.1208 38.9438C36.4812 39.093 37.5978 39.6214 38.4705 40.5289C39.3432 41.4364 39.7796 42.4868 39.7796 43.6803C39.7796 44.9483 39.3496 46.0174 38.4898 46.8877C37.6299 47.7579 36.5582 48.193 35.2748 48.193C33.8374 48.193 32.5989 47.6273 31.5593 46.4961C30.5198 45.3648 30 43.9911 30 42.375C30 37.5266 32.785 33.735 38.355 31L39.8566 33.6852Z" fill="#22282B"/>
</g>
<defs>
<clipPath id="clip0_1765_4505">
<rect width="21" height="17.193" fill="white" transform="translate(30 31)"/>
</clipPath>
</defs>
</svg>
