<svg width="52" height="52" viewBox="0 0 52 52" fill="none" xmlns="http://www.w3.org/2000/svg">
<rect x="0.453642" y="0.453642" width="51.0927" height="51.0927" rx="12.5464" fill="url(#paint0_radial_3127_1903)" stroke="url(#paint1_linear_3127_1903)" stroke-width="0.907285"/>
<path d="M24.5 26.2C24.3 25.825 23.85 25.675 23.475 25.875C23.1 26.075 22.95 26.525 23.15 26.9C23.425 27.425 23.825 27.85 24.325 28.175C24.825 28.475 25.4 28.675 26.025 28.675C26.925 28.675 27.725 28.325 28.3 27.725C28.875 27.15 29.25 26.325 29.25 25.45V21.3C29.25 20.4 28.9 19.6 28.3 19.025C27.725 18.45 26.9 18.075 26.025 18.075C25.125 18.075 24.325 18.45 23.75 19.025C23.175 19.6 22.8 20.425 22.8 21.3V24.3C22.8 24.725 23.15 25.075 23.575 25.075C24 25.075 24.35 24.725 24.35 24.3V21.3C24.35 20.825 24.55 20.425 24.85 20.1C25.15 19.8 25.575 19.6 26.05 19.6C26.525 19.6 26.925 19.8 27.25 20.1C27.55 20.4 27.75 20.825 27.75 21.3V25.45C27.75 25.925 27.55 26.325 27.25 26.65C26.95 26.95 26.525 27.15 26.05 27.15C25.725 27.15 25.425 27.05 25.15 26.9C24.85 26.7 24.625 26.475 24.5 26.2ZM26 15.6C24.925 15.6 23.9 15.9 23.025 16.45C22.675 16.675 22.55 17.15 22.775 17.5C23 17.85 23.475 17.975 23.825 17.75C24.45 17.35 25.2 17.125 26 17.125C27.125 17.125 28.15 17.575 28.9 18.325C29.65 19.075 30.125 20.075 30.125 21.225C30.125 21.65 30.475 22 30.9 21.975C31.325 21.95 31.675 21.625 31.65 21.2C31.675 19.65 31.025 18.25 30 17.25C28.975 16.225 27.55 15.6 26 15.6ZM26.775 25.45V21.3C26.775 20.875 26.425 20.525 26 20.525C25.575 20.525 25.225 20.875 25.225 21.3V25.45C25.225 25.875 25.575 26.225 26 26.225C26.425 26.2 26.775 25.85 26.775 25.45ZM16.7 33.575C17.275 33.575 17.975 33.725 18.825 34.025C19.225 34.175 19.675 33.95 19.8 33.55C19.95 33.15 19.725 32.7 19.325 32.575C18.375 32.25 17.525 32.05 16.7 32.05H16.675H16.3C15.875 32.05 15.525 32.4 15.525 32.825C15.525 33.25 15.875 33.6 16.3 33.6L16.7 33.575ZM16.175 31.125H16.7C17.25 31.125 17.775 31.2 18.325 31.325C19.15 31.5 19.975 31.825 20.8 32.15C21.65 32.5 22.525 32.85 23.425 33.175C24.25 33.45 25.1 33.6 26 33.6C26.1 33.6 26.2 33.6 26.3 33.6C26.725 33.575 27.05 33.225 27.05 32.8C27.025 32.375 26.675 32.05 26.25 32.05C26.175 32.05 26.075 32.05 26 32.05C25.275 32.05 24.575 31.925 23.9 31.7C22.8 31.325 21.675 30.825 20.475 30.375C19.875 30.15 19.275 29.95 18.65 29.825C18.025 29.675 17.375 29.6 16.675 29.6H16.15C15.725 29.6 15.375 29.95 15.375 30.375C15.375 30.8 15.75 31.125 16.175 31.125ZM30.925 22.75C30.5 22.75 30.15 23.1 30.15 23.525V25.45C30.15 26.6 29.675 27.625 28.925 28.375C28.175 29.125 27.15 29.6 26 29.6C24.85 29.6 23.825 29.125 23.075 28.375C22.325 27.625 21.85 26.6 21.85 25.45V21.3C21.85 20.5 22.075 19.775 22.475 19.125C22.7 18.775 22.575 18.3 22.225 18.075C21.875 17.85 21.4 17.975 21.175 18.325C20.65 19.2 20.325 20.225 20.325 21.3V25.45C20.325 27.025 20.975 28.45 22 29.475C23.025 30.5 24.45 31.15 26.025 31.15C27.6 31.15 29.025 30.5 30.05 29.475C31.075 28.45 31.725 27.025 31.725 25.45V23.525C31.675 23.1 31.35 22.75 30.925 22.75ZM19.35 27.9C19.2 28.1 19.025 28.3 18.825 28.475C18.625 28.65 18.7 29 18.975 29.075C19.5 29.2 20 29.35 20.475 29.525C20.675 29.6 20.825 29.35 20.725 29.2C20.45 28.825 20.225 28.425 20.05 28C19.9 27.7 19.525 27.675 19.35 27.9ZM31.55 29.5C32.025 29.325 32.525 29.175 33.025 29.05C33.3 28.975 33.375 28.625 33.15 28.45C32.95 28.275 32.775 28.1 32.625 27.875C32.45 27.65 32.075 27.675 31.975 27.95C31.8 28.375 31.575 28.775 31.3 29.15C31.175 29.35 31.35 29.575 31.55 29.5ZM34.775 34.55C34.375 34.625 33.85 34.75 33.2 35C32.5 35.25 31.675 35.625 30.7 36C30.3 36.15 30.1 36.6 30.25 37C30.4 37.4 30.85 37.6 31.25 37.45C32.25 37.075 33.1 36.7 33.725 36.475C34.275 36.275 34.725 36.15 35 36.1C35.425 36.025 35.7 35.625 35.625 35.225C35.6 34.775 35.2 34.475 34.775 34.55ZM35.825 27.125C35.35 27.125 34.95 26.925 34.625 26.625C34.325 26.325 34.125 25.9 34.125 25.425V21.3C34.125 19.9 33.775 18.55 33.125 17.4C32.5 16.25 31.575 15.25 30.5 14.525C30.15 14.3 29.675 14.375 29.425 14.725C29.2 15.075 29.275 15.55 29.625 15.8C30.5 16.4 31.25 17.2 31.75 18.125C32.275 19.075 32.55 20.15 32.55 21.275V25.425C32.55 26.325 32.9 27.125 33.5 27.7C34.075 28.275 34.9 28.65 35.775 28.65C36.2 28.65 36.55 28.3 36.55 27.875C36.6 27.475 36.25 27.125 35.825 27.125ZM36.6 21.3C36.6 18.375 35.4 15.725 33.5 13.8C31.575 11.875 28.925 10.7 26 10.7C23.275 10.7 20.8 11.725 18.925 13.4C17.05 15.075 15.775 17.425 15.475 20.05C15.425 20.475 15.725 20.85 16.15 20.9C16.575 20.95 16.95 20.65 17 20.225C17.25 17.975 18.35 15.975 19.95 14.525C21.55 13.075 23.675 12.225 26 12.225C28.5 12.225 30.775 13.25 32.4 14.875C34.05 16.525 35.05 18.775 35.05 21.275C35.05 23.075 35.05 23.625 35.05 25.425C35.05 25.85 35.4 26.2 35.825 26.2C36.25 26.2 36.6 25.85 36.6 25.425C36.6 23.65 36.6 23.075 36.6 21.3ZM16.175 26.2C16.6 26.2 16.95 25.85 16.95 25.425C16.95 24.075 16.95 23.425 16.95 22.425C16.95 22 16.6 21.65 16.175 21.65C15.75 21.65 15.4 22 15.4 22.425C15.4 23.425 15.4 24.075 15.4 25.425C15.4 25.85 15.75 26.2 16.175 26.2ZM35.7 32.05H35.325H35.3C34.85 32.05 34.375 32.125 33.875 32.225C33.4 32.325 32.875 32.5 32.35 32.7C31.275 33.1 30.15 33.625 28.875 34.05C27.975 34.35 27 34.5 26 34.5C25 34.5 24.025 34.325 23.125 34.025C22.575 33.825 22.025 33.625 21.5 33.425C21.1 33.275 20.65 33.45 20.5 33.85C20.35 34.25 20.525 34.7 20.925 34.85C21.45 35.05 22.025 35.275 22.625 35.475C23.675 35.825 24.825 36.025 26 36.025C27.175 36.025 28.3 35.825 29.375 35.475C30.75 35 31.925 34.475 32.9 34.125C33.4 33.95 33.825 33.8 34.225 33.725C34.625 33.625 34.975 33.6 35.3 33.6H35.675C36.1 33.6 36.45 33.25 36.45 32.825C36.45 32.4 36.125 32.05 35.7 32.05ZM31.65 38.25C31.275 38.4 30.875 38.55 30.45 38.675C29.025 39.15 27.525 39.4 26 39.4C24.475 39.4 22.975 39.15 21.55 38.675C21.125 38.525 20.725 38.375 20.35 38.25C19.95 38.1 19.5 38.3 19.35 38.7C19.2 39.1 19.4 39.55 19.8 39.7C20.2 39.85 20.6 40 21.05 40.15C22.65 40.675 24.3 40.95 26 40.95C27.675 40.95 29.35 40.675 30.95 40.15C31.4 40 31.8 39.85 32.2 39.7C32.6 39.55 32.8 39.1 32.65 38.7C32.475 38.3 32.025 38.1 31.65 38.25ZM21.85 37.825C23.175 38.275 24.575 38.5 26 38.5C27.025 38.5 28 38.375 28.975 38.15C29.375 38.05 29.65 37.65 29.55 37.225C29.45 36.8 29.05 36.55 28.625 36.65C27.775 36.85 26.9 36.95 26 36.95C24.725 36.95 23.5 36.75 22.325 36.35C21.625 36.1 20.95 35.85 20.375 35.6C19.775 35.35 19.25 35.15 18.775 34.975C18.15 34.75 17.625 34.6 17.225 34.525C16.8 34.45 16.4 34.75 16.35 35.15C16.275 35.575 16.575 35.975 16.975 36.025C17.25 36.075 17.7 36.175 18.25 36.4C18.675 36.55 19.2 36.775 19.8 37C20.4 37.3 21.1 37.575 21.85 37.825ZM35.825 29.6H35.3C34.65 29.6 34 29.675 33.375 29.825C32.45 30.025 31.575 30.35 30.725 30.7C29.875 31.025 29.05 31.4 28.25 31.675C27.85 31.825 27.65 32.25 27.775 32.65C27.925 33.05 28.35 33.25 28.75 33.125C29.925 32.725 31.025 32.2 32.1 31.825C32.65 31.625 33.175 31.45 33.7 31.35C34.225 31.225 34.75 31.175 35.275 31.175H35.8C36.225 31.175 36.575 30.825 36.575 30.4C36.575 29.975 36.25 29.6 35.825 29.6ZM16.175 28.675C17.075 28.675 17.875 28.325 18.45 27.725C19.025 27.15 19.4 26.325 19.4 25.45V21.3C19.4 19.475 20.15 17.825 21.35 16.625C22.55 15.425 24.2 14.675 26.025 14.675C26.65 14.675 27.25 14.75 27.825 14.925C28.225 15.05 28.65 14.8 28.775 14.4C28.9 14 28.65 13.575 28.25 13.45C27.55 13.25 26.8 13.15 26.025 13.15C23.775 13.15 21.75 14.075 20.275 15.55C18.8 17.025 17.875 19.05 17.875 21.3V25.45C17.875 25.925 17.675 26.35 17.375 26.65C17.075 26.95 16.65 27.15 16.175 27.15C15.75 27.15 15.4 27.5 15.4 27.925C15.4 28.325 15.75 28.675 16.175 28.675Z" fill="white"/>
<mask id="mask0_3127_1903" style="mask-type:alpha" maskUnits="userSpaceOnUse" x="15" y="10" width="22" height="31">
<path d="M24.5 26.2C24.3 25.825 23.85 25.675 23.475 25.875C23.1 26.075 22.95 26.525 23.15 26.9C23.425 27.425 23.825 27.85 24.325 28.175C24.825 28.475 25.4 28.675 26.025 28.675C26.925 28.675 27.725 28.325 28.3 27.725C28.875 27.15 29.25 26.325 29.25 25.45V21.3C29.25 20.4 28.9 19.6 28.3 19.025C27.725 18.45 26.9 18.075 26.025 18.075C25.125 18.075 24.325 18.45 23.75 19.025C23.175 19.6 22.8 20.425 22.8 21.3V24.3C22.8 24.725 23.15 25.075 23.575 25.075C24 25.075 24.35 24.725 24.35 24.3V21.3C24.35 20.825 24.55 20.425 24.85 20.1C25.15 19.8 25.575 19.6 26.05 19.6C26.525 19.6 26.925 19.8 27.25 20.1C27.55 20.4 27.75 20.825 27.75 21.3V25.45C27.75 25.925 27.55 26.325 27.25 26.65C26.95 26.95 26.525 27.15 26.05 27.15C25.725 27.15 25.425 27.05 25.15 26.9C24.85 26.7 24.625 26.475 24.5 26.2ZM26 15.6C24.925 15.6 23.9 15.9 23.025 16.45C22.675 16.675 22.55 17.15 22.775 17.5C23 17.85 23.475 17.975 23.825 17.75C24.45 17.35 25.2 17.125 26 17.125C27.125 17.125 28.15 17.575 28.9 18.325C29.65 19.075 30.125 20.075 30.125 21.225C30.125 21.65 30.475 22 30.9 21.975C31.325 21.95 31.675 21.625 31.65 21.2C31.675 19.65 31.025 18.25 30 17.25C28.975 16.225 27.55 15.6 26 15.6ZM26.775 25.45V21.3C26.775 20.875 26.425 20.525 26 20.525C25.575 20.525 25.225 20.875 25.225 21.3V25.45C25.225 25.875 25.575 26.225 26 26.225C26.425 26.2 26.775 25.85 26.775 25.45ZM16.7 33.575C17.275 33.575 17.975 33.725 18.825 34.025C19.225 34.175 19.675 33.95 19.8 33.55C19.95 33.15 19.725 32.7 19.325 32.575C18.375 32.25 17.525 32.05 16.7 32.05H16.675H16.3C15.875 32.05 15.525 32.4 15.525 32.825C15.525 33.25 15.875 33.6 16.3 33.6L16.7 33.575ZM16.175 31.125H16.7C17.25 31.125 17.775 31.2 18.325 31.325C19.15 31.5 19.975 31.825 20.8 32.15C21.65 32.5 22.525 32.85 23.425 33.175C24.25 33.45 25.1 33.6 26 33.6C26.1 33.6 26.2 33.6 26.3 33.6C26.725 33.575 27.05 33.225 27.05 32.8C27.025 32.375 26.675 32.05 26.25 32.05C26.175 32.05 26.075 32.05 26 32.05C25.275 32.05 24.575 31.925 23.9 31.7C22.8 31.325 21.675 30.825 20.475 30.375C19.875 30.15 19.275 29.95 18.65 29.825C18.025 29.675 17.375 29.6 16.675 29.6H16.15C15.725 29.6 15.375 29.95 15.375 30.375C15.375 30.8 15.75 31.125 16.175 31.125ZM30.925 22.75C30.5 22.75 30.15 23.1 30.15 23.525V25.45C30.15 26.6 29.675 27.625 28.925 28.375C28.175 29.125 27.15 29.6 26 29.6C24.85 29.6 23.825 29.125 23.075 28.375C22.325 27.625 21.85 26.6 21.85 25.45V21.3C21.85 20.5 22.075 19.775 22.475 19.125C22.7 18.775 22.575 18.3 22.225 18.075C21.875 17.85 21.4 17.975 21.175 18.325C20.65 19.2 20.325 20.225 20.325 21.3V25.45C20.325 27.025 20.975 28.45 22 29.475C23.025 30.5 24.45 31.15 26.025 31.15C27.6 31.15 29.025 30.5 30.05 29.475C31.075 28.45 31.725 27.025 31.725 25.45V23.525C31.675 23.1 31.35 22.75 30.925 22.75ZM19.35 27.9C19.2 28.1 19.025 28.3 18.825 28.475C18.625 28.65 18.7 29 18.975 29.075C19.5 29.2 20 29.35 20.475 29.525C20.675 29.6 20.825 29.35 20.725 29.2C20.45 28.825 20.225 28.425 20.05 28C19.9 27.7 19.525 27.675 19.35 27.9ZM31.55 29.5C32.025 29.325 32.525 29.175 33.025 29.05C33.3 28.975 33.375 28.625 33.15 28.45C32.95 28.275 32.775 28.1 32.625 27.875C32.45 27.65 32.075 27.675 31.975 27.95C31.8 28.375 31.575 28.775 31.3 29.15C31.175 29.35 31.35 29.575 31.55 29.5ZM34.775 34.55C34.375 34.625 33.85 34.75 33.2 35C32.5 35.25 31.675 35.625 30.7 36C30.3 36.15 30.1 36.6 30.25 37C30.4 37.4 30.85 37.6 31.25 37.45C32.25 37.075 33.1 36.7 33.725 36.475C34.275 36.275 34.725 36.15 35 36.1C35.425 36.025 35.7 35.625 35.625 35.225C35.6 34.775 35.2 34.475 34.775 34.55ZM35.825 27.125C35.35 27.125 34.95 26.925 34.625 26.625C34.325 26.325 34.125 25.9 34.125 25.425V21.3C34.125 19.9 33.775 18.55 33.125 17.4C32.5 16.25 31.575 15.25 30.5 14.525C30.15 14.3 29.675 14.375 29.425 14.725C29.2 15.075 29.275 15.55 29.625 15.8C30.5 16.4 31.25 17.2 31.75 18.125C32.275 19.075 32.55 20.15 32.55 21.275V25.425C32.55 26.325 32.9 27.125 33.5 27.7C34.075 28.275 34.9 28.65 35.775 28.65C36.2 28.65 36.55 28.3 36.55 27.875C36.6 27.475 36.25 27.125 35.825 27.125ZM36.6 21.3C36.6 18.375 35.4 15.725 33.5 13.8C31.575 11.875 28.925 10.7 26 10.7C23.275 10.7 20.8 11.725 18.925 13.4C17.05 15.075 15.775 17.425 15.475 20.05C15.425 20.475 15.725 20.85 16.15 20.9C16.575 20.95 16.95 20.65 17 20.225C17.25 17.975 18.35 15.975 19.95 14.525C21.55 13.075 23.675 12.225 26 12.225C28.5 12.225 30.775 13.25 32.4 14.875C34.05 16.525 35.05 18.775 35.05 21.275C35.05 23.075 35.05 23.625 35.05 25.425C35.05 25.85 35.4 26.2 35.825 26.2C36.25 26.2 36.6 25.85 36.6 25.425C36.6 23.65 36.6 23.075 36.6 21.3ZM16.175 26.2C16.6 26.2 16.95 25.85 16.95 25.425C16.95 24.075 16.95 23.425 16.95 22.425C16.95 22 16.6 21.65 16.175 21.65C15.75 21.65 15.4 22 15.4 22.425C15.4 23.425 15.4 24.075 15.4 25.425C15.4 25.85 15.75 26.2 16.175 26.2ZM35.7 32.05H35.325H35.3C34.85 32.05 34.375 32.125 33.875 32.225C33.4 32.325 32.875 32.5 32.35 32.7C31.275 33.1 30.15 33.625 28.875 34.05C27.975 34.35 27 34.5 26 34.5C25 34.5 24.025 34.325 23.125 34.025C22.575 33.825 22.025 33.625 21.5 33.425C21.1 33.275 20.65 33.45 20.5 33.85C20.35 34.25 20.525 34.7 20.925 34.85C21.45 35.05 22.025 35.275 22.625 35.475C23.675 35.825 24.825 36.025 26 36.025C27.175 36.025 28.3 35.825 29.375 35.475C30.75 35 31.925 34.475 32.9 34.125C33.4 33.95 33.825 33.8 34.225 33.725C34.625 33.625 34.975 33.6 35.3 33.6H35.675C36.1 33.6 36.45 33.25 36.45 32.825C36.45 32.4 36.125 32.05 35.7 32.05ZM31.65 38.25C31.275 38.4 30.875 38.55 30.45 38.675C29.025 39.15 27.525 39.4 26 39.4C24.475 39.4 22.975 39.15 21.55 38.675C21.125 38.525 20.725 38.375 20.35 38.25C19.95 38.1 19.5 38.3 19.35 38.7C19.2 39.1 19.4 39.55 19.8 39.7C20.2 39.85 20.6 40 21.05 40.15C22.65 40.675 24.3 40.95 26 40.95C27.675 40.95 29.35 40.675 30.95 40.15C31.4 40 31.8 39.85 32.2 39.7C32.6 39.55 32.8 39.1 32.65 38.7C32.475 38.3 32.025 38.1 31.65 38.25ZM21.85 37.825C23.175 38.275 24.575 38.5 26 38.5C27.025 38.5 28 38.375 28.975 38.15C29.375 38.05 29.65 37.65 29.55 37.225C29.45 36.8 29.05 36.55 28.625 36.65C27.775 36.85 26.9 36.95 26 36.95C24.725 36.95 23.5 36.75 22.325 36.35C21.625 36.1 20.95 35.85 20.375 35.6C19.775 35.35 19.25 35.15 18.775 34.975C18.15 34.75 17.625 34.6 17.225 34.525C16.8 34.45 16.4 34.75 16.35 35.15C16.275 35.575 16.575 35.975 16.975 36.025C17.25 36.075 17.7 36.175 18.25 36.4C18.675 36.55 19.2 36.775 19.8 37C20.4 37.3 21.1 37.575 21.85 37.825ZM35.825 29.6H35.3C34.65 29.6 34 29.675 33.375 29.825C32.45 30.025 31.575 30.35 30.725 30.7C29.875 31.025 29.05 31.4 28.25 31.675C27.85 31.825 27.65 32.25 27.775 32.65C27.925 33.05 28.35 33.25 28.75 33.125C29.925 32.725 31.025 32.2 32.1 31.825C32.65 31.625 33.175 31.45 33.7 31.35C34.225 31.225 34.75 31.175 35.275 31.175H35.8C36.225 31.175 36.575 30.825 36.575 30.4C36.575 29.975 36.25 29.6 35.825 29.6ZM16.175 28.675C17.075 28.675 17.875 28.325 18.45 27.725C19.025 27.15 19.4 26.325 19.4 25.45V21.3C19.4 19.475 20.15 17.825 21.35 16.625C22.55 15.425 24.2 14.675 26.025 14.675C26.65 14.675 27.25 14.75 27.825 14.925C28.225 15.05 28.65 14.8 28.775 14.4C28.9 14 28.65 13.575 28.25 13.45C27.55 13.25 26.8 13.15 26.025 13.15C23.775 13.15 21.75 14.075 20.275 15.55C18.8 17.025 17.875 19.05 17.875 21.3V25.45C17.875 25.925 17.675 26.35 17.375 26.65C17.075 26.95 16.65 27.15 16.175 27.15C15.75 27.15 15.4 27.5 15.4 27.925C15.4 28.325 15.75 28.675 16.175 28.675Z" fill="black"/>
</mask>
<g mask="url(#mask0_3127_1903)">
<path d="M24.4615 17.878L22.7054 19.4145L22.2664 20.0731L22.0469 25.1219L22.9249 27.756C23.5835 28.195 24.9444 29.0731 25.12 29.0731C25.2957 29.0731 26.6566 28.9267 27.3152 28.8536L29.5103 27.317V25.7804L29.9493 22.4877L29.2908 20.0731L28.4127 18.317L26.6566 17.6584L24.4615 17.878Z" fill="white"/>
</g>
<defs>
<radialGradient id="paint0_radial_3127_1903" cx="0" cy="0" r="1" gradientUnits="userSpaceOnUse" gradientTransform="translate(25.6837 25.9277) rotate(-110.556) scale(43.7223)">
<stop offset="0.116577" stop-color="#6EA43F"/>
<stop offset="0.46" stop-color="#6EA43F"/>
<stop offset="0.599" stop-color="#6EA43F" stop-opacity="0.84"/>
<stop offset="0.785183" stop-color="#9BDA64"/>
<stop offset="1" stop-color="#9BDA64"/>
</radialGradient>
<linearGradient id="paint1_linear_3127_1903" x1="0.748971" y1="5.57143" x2="52.3642" y2="6.33504" gradientUnits="userSpaceOnUse">
<stop stop-color="#558F21" stop-opacity="0.05"/>
<stop offset="0.480607" stop-color="#558F21" stop-opacity="0.3"/>
<stop offset="1" stop-color="#558F21" stop-opacity="0.05"/>
</linearGradient>
</defs>
</svg>
