<svg width="60" height="60" viewBox="0 0 60 60" fill="none" xmlns="http://www.w3.org/2000/svg">
<path d="M1 6.66667V3.83333C1 3.08189 1.29851 2.36122 1.82986 1.82986C2.36122 1.29851 3.08189 1 3.83333 1H6.66667" stroke="#7EBB48" stroke-width="2" stroke-linecap="round" stroke-linejoin="round"/>
<path d="M52.832 1H55.6654C56.4168 1 57.1375 1.29851 57.6688 1.82986C58.2002 2.36122 58.4987 3.08189 58.4987 3.83333V6.66667" stroke="#7EBB48" stroke-width="2" stroke-linecap="round" stroke-linejoin="round"/>
<path d="M58.4987 52.833V55.6663C58.4987 56.4178 58.2002 57.1385 57.6688 57.6698C57.1375 58.2012 56.4168 58.4997 55.6654 58.4997H52.832" stroke="#7EBB48" stroke-width="2" stroke-linecap="round" stroke-linejoin="round"/>
<path d="M6.66667 58.4997H3.83333C3.08189 58.4997 2.36122 58.2012 1.82986 57.6698C1.29851 57.1385 1 56.4178 1 55.6663V52.833" stroke="#7EBB48" stroke-width="2" stroke-linecap="round" stroke-linejoin="round"/>
</svg>
