<svg width="390" height="369" viewBox="0 0 390 369" fill="none" xmlns="http://www.w3.org/2000/svg">
<rect width="390" height="369" rx="16" fill="#F5F5F5"/>
<g clip-path="url(#clip0_2435_54426)">
<path d="M195 52L195 290" stroke="#7EBB48" stroke-dasharray="8 8"/>
<mask id="mask0_2435_54426" style="mask-type:luminance" maskUnits="userSpaceOnUse" x="0" y="37" width="390" height="295">
<path d="M390 37H0V331.506H390V37Z" fill="white"/>
</mask>
<g mask="url(#mask0_2435_54426)">
<g opacity="0.8">
<path d="M130.805 69.9004H259.2" stroke="#DBF4D5" stroke-width="0.401235"/>
</g>
<path d="M130.162 167.446C130.162 167.643 130.305 167.802 130.481 167.802C130.658 167.802 130.801 167.643 130.801 167.446H130.162ZM67.3379 59.377C67.5143 59.377 67.6574 59.2178 67.6574 59.0215C67.6574 58.8252 67.5143 58.666 67.3379 58.666V59.377ZM70.4123 58.666C70.2359 58.666 70.0929 58.8252 70.0929 59.0215C70.0929 59.2178 70.2359 59.377 70.4123 59.377V58.666ZM73.4866 59.377C73.663 59.377 73.806 59.2178 73.806 59.0215C73.806 58.8252 73.663 58.666 73.4866 58.666V59.377ZM76.5609 58.666C76.3845 58.666 76.2415 58.8252 76.2415 59.0215C76.2415 59.2178 76.3845 59.377 76.5609 59.377V58.666ZM79.6352 59.377C79.8116 59.377 79.9547 59.2178 79.9547 59.0215C79.9547 58.8252 79.8116 58.666 79.6352 58.666V59.377ZM82.7096 58.666C82.5331 58.666 82.3902 58.8252 82.3902 59.0215C82.3902 59.2178 82.5331 59.377 82.7096 59.377V58.666ZM85.7839 59.377C85.9604 59.377 86.1033 59.2178 86.1033 59.0215C86.1033 58.8252 85.9604 58.666 85.7839 58.666V59.377ZM88.8582 58.666C88.6817 58.666 88.5388 58.8252 88.5388 59.0215C88.5388 59.2178 88.6817 59.377 88.8582 59.377V58.666ZM91.9325 59.377C92.109 59.377 92.252 59.2178 92.252 59.0215C92.252 58.8252 92.109 58.666 91.9325 58.666V59.377ZM95.0069 58.666C94.8304 58.666 94.6875 58.8252 94.6875 59.0215C94.6875 59.2178 94.8304 59.377 95.0069 59.377V58.666ZM98.0812 59.377C98.2577 59.377 98.4006 59.2178 98.4006 59.0215C98.4006 58.8252 98.2577 58.666 98.0812 58.666V59.377ZM101.156 58.666C100.979 58.666 100.836 58.8252 100.836 59.0215C100.836 59.2178 100.979 59.377 101.156 59.377V58.666ZM104.23 59.377C104.406 59.377 104.549 59.2178 104.549 59.0215C104.549 58.8252 104.406 58.666 104.23 58.666V59.377ZM107.304 58.666C107.128 58.666 106.985 58.8252 106.985 59.0215C106.985 59.2178 107.128 59.377 107.304 59.377V58.666ZM110.378 59.377C110.555 59.377 110.698 59.2178 110.698 59.0215C110.698 58.8252 110.555 58.666 110.378 58.666V59.377ZM113.453 58.666C113.276 58.666 113.133 58.8252 113.133 59.0215C113.133 59.2178 113.276 59.377 113.453 59.377V58.666ZM116.527 59.377C116.704 59.377 116.847 59.2178 116.847 59.0215C116.847 58.8252 116.704 58.666 116.527 58.666V59.377ZM119.601 58.666C119.425 58.666 119.282 58.8252 119.282 59.0215C119.282 59.2178 119.425 59.377 119.601 59.377V58.666ZM122.676 59.377C122.852 59.377 122.995 59.2178 122.995 59.0215C122.995 58.8252 122.852 58.666 122.676 58.666V59.377ZM125.75 58.666C125.574 58.666 125.431 58.8252 125.431 59.0215C125.431 59.2178 125.574 59.377 125.75 59.377V58.666ZM128.388 59.6196C128.551 59.6948 128.737 59.6088 128.805 59.4274C128.872 59.2461 128.795 59.0381 128.632 58.9629L128.388 59.6196ZM130.534 61.0794C130.466 60.8981 130.279 60.812 130.116 60.8873C129.954 60.9625 129.876 61.1705 129.944 61.3518L130.534 61.0794ZM130.162 64.3243C130.162 64.5206 130.305 64.6798 130.481 64.6798C130.658 64.6798 130.801 64.5206 130.801 64.3243H130.162ZM130.801 67.8199C130.801 67.6236 130.658 67.4644 130.481 67.4644C130.305 67.4644 130.162 67.6236 130.162 67.8199H130.801ZM130.162 71.3156C130.162 71.5119 130.305 71.671 130.481 71.671C130.658 71.671 130.801 71.5119 130.801 71.3156H130.162ZM130.801 74.8113C130.801 74.615 130.658 74.4558 130.481 74.4558C130.305 74.4558 130.162 74.615 130.162 74.8113H130.801ZM130.162 78.3069C130.162 78.5032 130.305 78.6624 130.481 78.6624C130.658 78.6624 130.801 78.5032 130.801 78.3069H130.162ZM130.801 81.8025C130.801 81.6062 130.658 81.4471 130.481 81.4471C130.305 81.4471 130.162 81.6062 130.162 81.8025H130.801ZM130.162 85.2983C130.162 85.4946 130.305 85.6538 130.481 85.6538C130.658 85.6538 130.801 85.4946 130.801 85.2983H130.162ZM130.801 88.7939C130.801 88.5976 130.658 88.4384 130.481 88.4384C130.305 88.4384 130.162 88.5976 130.162 88.7939H130.801ZM130.162 92.2895C130.162 92.4859 130.305 92.645 130.481 92.645C130.658 92.645 130.801 92.4859 130.801 92.2895H130.162ZM130.801 95.7853C130.801 95.5889 130.658 95.4298 130.481 95.4298C130.305 95.4298 130.162 95.5889 130.162 95.7853H130.801ZM130.162 99.2809C130.162 99.4772 130.305 99.6364 130.481 99.6364C130.658 99.6364 130.801 99.4772 130.801 99.2809H130.162ZM130.801 102.777C130.801 102.58 130.658 102.421 130.481 102.421C130.305 102.421 130.162 102.58 130.162 102.777H130.801ZM130.162 106.272C130.162 106.469 130.305 106.628 130.481 106.628C130.658 106.628 130.801 106.469 130.801 106.272H130.162ZM130.801 109.768C130.801 109.572 130.658 109.412 130.481 109.412C130.305 109.412 130.162 109.572 130.162 109.768H130.801ZM130.162 113.263C130.162 113.46 130.305 113.619 130.481 113.619C130.658 113.619 130.801 113.46 130.801 113.263H130.162ZM130.801 116.76C130.801 116.563 130.658 116.404 130.481 116.404C130.305 116.404 130.162 116.563 130.162 116.76H130.801ZM130.162 120.255C130.162 120.451 130.305 120.61 130.481 120.61C130.658 120.61 130.801 120.451 130.801 120.255H130.162ZM130.801 123.75C130.801 123.554 130.658 123.395 130.481 123.395C130.305 123.395 130.162 123.554 130.162 123.75H130.801ZM130.162 127.246C130.162 127.443 130.305 127.602 130.481 127.602C130.658 127.602 130.801 127.443 130.801 127.246H130.162ZM130.801 130.742C130.801 130.545 130.658 130.386 130.481 130.386C130.305 130.386 130.162 130.545 130.162 130.742H130.801ZM130.162 134.237C130.162 134.434 130.305 134.593 130.481 134.593C130.658 134.593 130.801 134.434 130.801 134.237H130.162ZM130.801 137.733C130.801 137.537 130.658 137.378 130.481 137.378C130.305 137.378 130.162 137.537 130.162 137.733H130.801ZM130.162 141.229C130.162 141.425 130.305 141.584 130.481 141.584C130.658 141.584 130.801 141.425 130.801 141.229H130.162ZM130.801 144.724C130.801 144.528 130.658 144.369 130.481 144.369C130.305 144.369 130.162 144.528 130.162 144.724H130.801ZM130.162 148.22C130.162 148.417 130.305 148.576 130.481 148.576C130.658 148.576 130.801 148.417 130.801 148.22H130.162ZM130.801 151.716C130.801 151.519 130.658 151.36 130.481 151.36C130.305 151.36 130.162 151.519 130.162 151.716H130.801ZM130.162 155.211C130.162 155.408 130.305 155.567 130.481 155.567C130.658 155.567 130.801 155.408 130.801 155.211H130.162ZM130.801 158.707C130.801 158.511 130.658 158.352 130.481 158.352C130.305 158.352 130.162 158.511 130.162 158.707H130.801ZM130.162 162.203C130.162 162.399 130.305 162.558 130.481 162.558C130.658 162.558 130.801 162.399 130.801 162.203H130.162ZM130.801 165.698C130.801 165.502 130.658 165.343 130.481 165.343C130.305 165.343 130.162 165.502 130.162 165.698H130.801ZM65.8008 59.377H67.3379V58.666H65.8008V59.377ZM70.4123 59.377H73.4866V58.666H70.4123V59.377ZM76.5609 59.377H79.6352V58.666H76.5609V59.377ZM82.7096 59.377H85.7839V58.666H82.7096V59.377ZM88.8582 59.377H91.9325V58.666H88.8582V59.377ZM95.0069 59.377H98.0812V58.666H95.0069V59.377ZM101.156 59.377H104.23V58.666H101.156V59.377ZM107.304 59.377H110.378V58.666H107.304V59.377ZM113.453 59.377H116.527V58.666H113.453V59.377ZM119.601 59.377H122.676V58.666H119.601V59.377ZM125.75 59.377H127.287V58.666H125.75V59.377ZM127.287 59.377C127.678 59.377 128.049 59.4634 128.388 59.6196L128.632 58.9629C128.218 58.7715 127.763 58.666 127.287 58.666V59.377ZM129.944 61.3518C130.085 61.7286 130.162 62.1419 130.162 62.5764H130.801C130.801 62.0468 130.706 61.5411 130.534 61.0794L129.944 61.3518ZM130.162 62.5764V64.3243H130.801V62.5764H130.162ZM130.162 67.8199V71.3156H130.801V67.8199H130.162ZM130.162 74.8113V78.3069H130.801V74.8113H130.162ZM130.162 81.8025V85.2983H130.801V81.8025H130.162ZM130.162 88.7939V92.2895H130.801V88.7939H130.162ZM130.162 95.7853V99.2809H130.801V95.7853H130.162ZM130.162 102.777V106.272H130.801V102.777H130.162ZM130.162 109.768V113.263H130.801V109.768H130.162ZM130.162 116.76V120.255H130.801V116.76H130.162ZM130.162 123.75V127.246H130.801V123.75H130.162ZM130.162 130.742V134.237H130.801V130.742H130.162ZM130.162 137.733V141.229H130.801V137.733H130.162ZM130.162 144.724V148.22H130.801V144.724H130.162ZM130.162 151.716V155.211H130.801V151.716H130.162ZM130.162 158.707V162.203H130.801V158.707H130.162ZM130.162 165.698V167.446H130.801V165.698H130.162Z" fill="#BAD2B5"/>
<path d="M130.481 167.801C130.481 167.624 130.625 167.48 130.802 167.48C130.98 167.48 131.123 167.624 131.123 167.801H130.481ZM66.5648 266.184C66.7421 266.184 66.8858 266.328 66.8858 266.505C66.8858 266.683 66.7421 266.826 66.5648 266.826V266.184ZM69.6944 266.826C69.5172 266.826 69.3735 266.683 69.3735 266.505C69.3735 266.328 69.5172 266.184 69.6944 266.184V266.826ZM72.8241 266.184C73.0013 266.184 73.1451 266.328 73.1451 266.505C73.1451 266.683 73.0013 266.826 72.8241 266.826V266.184ZM75.9537 266.826C75.7764 266.826 75.6327 266.683 75.6327 266.505C75.6327 266.328 75.7764 266.184 75.9537 266.184V266.826ZM79.0833 266.184C79.2606 266.184 79.4043 266.328 79.4043 266.505C79.4043 266.683 79.2606 266.826 79.0833 266.826V266.184ZM82.213 266.826C82.0356 266.826 81.892 266.683 81.892 266.505C81.892 266.328 82.0356 266.184 82.213 266.184V266.826ZM85.3426 266.184C85.5199 266.184 85.6636 266.328 85.6636 266.505C85.6636 266.683 85.5199 266.826 85.3426 266.826V266.184ZM88.4722 266.826C88.2949 266.826 88.1512 266.683 88.1512 266.505C88.1512 266.328 88.2949 266.184 88.4722 266.184V266.826ZM91.6019 266.184C91.7792 266.184 91.9228 266.328 91.9228 266.505C91.9228 266.683 91.7792 266.826 91.6019 266.826V266.184ZM94.7315 266.826C94.5541 266.826 94.4105 266.683 94.4105 266.505C94.4105 266.328 94.5541 266.184 94.7315 266.184V266.826ZM97.8611 266.184C98.0385 266.184 98.1821 266.328 98.1821 266.505C98.1821 266.683 98.0385 266.826 97.8611 266.826V266.184ZM100.991 266.826C100.813 266.826 100.67 266.683 100.67 266.505C100.67 266.328 100.813 266.184 100.991 266.184V266.826ZM104.12 266.184C104.298 266.184 104.441 266.328 104.441 266.505C104.441 266.683 104.298 266.826 104.12 266.826V266.184ZM107.25 266.826C107.073 266.826 106.929 266.683 106.929 266.505C106.929 266.328 107.073 266.184 107.25 266.184V266.826ZM110.38 266.184C110.557 266.184 110.701 266.328 110.701 266.505C110.701 266.683 110.557 266.826 110.38 266.826V266.184ZM113.509 266.826C113.332 266.826 113.188 266.683 113.188 266.505C113.188 266.328 113.332 266.184 113.509 266.184V266.826ZM116.639 266.184C116.816 266.184 116.96 266.328 116.96 266.505C116.96 266.683 116.816 266.826 116.639 266.826V266.184ZM119.769 266.826C119.591 266.826 119.448 266.683 119.448 266.505C119.448 266.328 119.591 266.184 119.769 266.184V266.826ZM122.898 266.184C123.075 266.184 123.219 266.328 123.219 266.505C123.219 266.683 123.075 266.826 122.898 266.826V266.184ZM126.028 266.826C125.85 266.826 125.707 266.683 125.707 266.505C125.707 266.328 125.85 266.184 126.028 266.184V266.826ZM128.698 265.965C128.862 265.897 129.05 265.975 129.118 266.138C129.185 266.302 129.108 266.49 128.944 266.558L128.698 265.965ZM130.855 264.647C130.787 264.81 130.599 264.888 130.436 264.821C130.272 264.753 130.194 264.565 130.262 264.401L130.855 264.647ZM130.481 261.704C130.481 261.527 130.625 261.383 130.802 261.383C130.98 261.383 131.123 261.527 131.123 261.704H130.481ZM131.123 258.521C131.123 258.698 130.98 258.842 130.802 258.842C130.625 258.842 130.481 258.698 130.481 258.521H131.123ZM130.481 255.337C130.481 255.16 130.625 255.016 130.802 255.016C130.98 255.016 131.123 255.16 131.123 255.337H130.481ZM131.123 252.155C131.123 252.332 130.98 252.476 130.802 252.476C130.625 252.476 130.481 252.332 130.481 252.155H131.123ZM130.481 248.971C130.481 248.794 130.625 248.65 130.802 248.65C130.98 248.65 131.123 248.794 131.123 248.971H130.481ZM131.123 245.788C131.123 245.965 130.98 246.109 130.802 246.109C130.625 246.109 130.481 245.965 130.481 245.788H131.123ZM130.481 242.605C130.481 242.428 130.625 242.284 130.802 242.284C130.98 242.284 131.123 242.428 131.123 242.605H130.481ZM131.123 239.422C131.123 239.599 130.98 239.743 130.802 239.743C130.625 239.743 130.481 239.599 130.481 239.422H131.123ZM130.481 236.238C130.481 236.061 130.625 235.917 130.802 235.917C130.98 235.917 131.123 236.061 131.123 236.238H130.481ZM131.123 233.056C131.123 233.233 130.98 233.377 130.802 233.377C130.625 233.377 130.481 233.233 130.481 233.056H131.123ZM130.481 229.872C130.481 229.695 130.625 229.551 130.802 229.551C130.98 229.551 131.123 229.695 131.123 229.872H130.481ZM131.123 226.689C131.123 226.866 130.98 227.01 130.802 227.01C130.625 227.01 130.481 226.866 130.481 226.689H131.123ZM130.481 223.506C130.481 223.329 130.625 223.185 130.802 223.185C130.98 223.185 131.123 223.329 131.123 223.506H130.481ZM131.123 220.323C131.123 220.5 130.98 220.644 130.802 220.644C130.625 220.644 130.481 220.5 130.481 220.323H131.123ZM130.481 217.14C130.481 216.962 130.625 216.819 130.802 216.819C130.98 216.819 131.123 216.962 131.123 217.14H130.481ZM131.123 213.957C131.123 214.134 130.98 214.278 130.802 214.278C130.625 214.278 130.481 214.134 130.481 213.957H131.123ZM130.481 210.774C130.481 210.596 130.625 210.453 130.802 210.453C130.98 210.453 131.123 210.596 131.123 210.774H130.481ZM131.123 207.59C131.123 207.768 130.98 207.911 130.802 207.911C130.625 207.911 130.481 207.768 130.481 207.59H131.123ZM130.481 204.408C130.481 204.23 130.625 204.087 130.802 204.087C130.98 204.087 131.123 204.23 131.123 204.408H130.481ZM131.123 201.224C131.123 201.402 130.98 201.545 130.802 201.545C130.625 201.545 130.481 201.402 130.481 201.224H131.123ZM130.481 198.041C130.481 197.864 130.625 197.72 130.802 197.72C130.98 197.72 131.123 197.864 131.123 198.041H130.481ZM131.123 194.858C131.123 195.036 130.98 195.179 130.802 195.179C130.625 195.179 130.481 195.036 130.481 194.858H131.123ZM130.481 191.675C130.481 191.498 130.625 191.354 130.802 191.354C130.98 191.354 131.123 191.498 131.123 191.675H130.481ZM131.123 188.492C131.123 188.669 130.98 188.812 130.802 188.812C130.625 188.812 130.481 188.669 130.481 188.492H131.123ZM130.481 185.309C130.481 185.132 130.625 184.988 130.802 184.988C130.98 184.988 131.123 185.132 131.123 185.309H130.481ZM131.123 182.126C131.123 182.303 130.98 182.447 130.802 182.447C130.625 182.447 130.481 182.303 130.481 182.126H131.123ZM130.481 178.942C130.481 178.765 130.625 178.621 130.802 178.621C130.98 178.621 131.123 178.765 131.123 178.942H130.481ZM131.123 175.76C131.123 175.937 130.98 176.081 130.802 176.081C130.625 176.081 130.481 175.937 130.481 175.76H131.123ZM130.481 172.576C130.481 172.399 130.625 172.255 130.802 172.255C130.98 172.255 131.123 172.399 131.123 172.576H130.481ZM131.123 169.393C131.123 169.57 130.98 169.714 130.802 169.714C130.625 169.714 130.481 169.57 130.481 169.393H131.123ZM65 266.184H66.5648V266.826H65V266.184ZM69.6944 266.184H72.8241V266.826H69.6944V266.184ZM75.9537 266.184H79.0833V266.826H75.9537V266.184ZM82.213 266.184H85.3426V266.826H82.213V266.184ZM88.4722 266.184H91.6019V266.826H88.4722V266.184ZM94.7315 266.184H97.8611V266.826H94.7315V266.184ZM100.991 266.184H104.12V266.826H100.991V266.184ZM107.25 266.184H110.38V266.826H107.25V266.184ZM113.509 266.184H116.639V266.826H113.509V266.184ZM119.769 266.184H122.898V266.826H119.769V266.184ZM126.028 266.184H127.593V266.826H126.028V266.184ZM127.593 266.184C127.985 266.184 128.358 266.106 128.698 265.965L128.944 266.558C128.527 266.731 128.071 266.826 127.593 266.826V266.184ZM130.262 264.401C130.404 264.061 130.481 263.688 130.481 263.295H131.123C131.123 263.774 131.028 264.23 130.855 264.647L130.262 264.401ZM130.481 263.295V261.704H131.123V263.295H130.481ZM130.481 258.521V255.337H131.123V258.521H130.481ZM130.481 252.155V248.971H131.123V252.155H130.481ZM130.481 245.788V242.605H131.123V245.788H130.481ZM130.481 239.422V236.238H131.123V239.422H130.481ZM130.481 233.056V229.872H131.123V233.056H130.481ZM130.481 226.689V223.506H131.123V226.689H130.481ZM130.481 220.323V217.14H131.123V220.323H130.481ZM130.481 213.957V210.774H131.123V213.957H130.481ZM130.481 207.59V204.408H131.123V207.59H130.481ZM130.481 201.224V198.041H131.123V201.224H130.481ZM130.481 194.858V191.675H131.123V194.858H130.481ZM130.481 188.492V185.309H131.123V188.492H130.481ZM130.481 182.126V178.942H131.123V182.126H130.481ZM130.481 175.76V172.576H131.123V175.76H130.481ZM130.481 169.393V167.801H131.123V169.393H130.481Z" fill="#BAD2B5"/>
<path d="M260.322 167.802C260.322 167.98 260.178 168.123 260.001 168.123C259.824 168.123 259.68 167.98 259.68 167.802H260.322ZM322.683 70.2221C322.506 70.2221 322.362 70.0783 322.362 69.9011C322.362 69.7238 322.506 69.5801 322.683 69.5801V70.2221ZM319.634 69.5801C319.811 69.5801 319.955 69.7238 319.955 69.9011C319.955 70.0783 319.811 70.2221 319.634 70.2221V69.5801ZM316.584 70.2221C316.406 70.2221 316.263 70.0783 316.263 69.9011C316.263 69.7238 316.406 69.5801 316.584 69.5801V70.2221ZM313.533 69.5801C313.711 69.5801 313.854 69.7238 313.854 69.9011C313.854 70.0783 313.711 70.2221 313.533 70.2221V69.5801ZM310.484 70.2221C310.307 70.2221 310.163 70.0783 310.163 69.9011C310.163 69.7238 310.307 69.5801 310.484 69.5801V70.2221ZM307.434 69.5801C307.611 69.5801 307.755 69.7238 307.755 69.9011C307.755 70.0783 307.611 70.2221 307.434 70.2221V69.5801ZM304.384 70.2221C304.207 70.2221 304.063 70.0783 304.063 69.9011C304.063 69.7238 304.207 69.5801 304.384 69.5801V70.2221ZM301.334 69.5801C301.512 69.5801 301.655 69.7238 301.655 69.9011C301.655 70.0783 301.512 70.2221 301.334 70.2221V69.5801ZM298.284 70.2221C298.108 70.2221 297.963 70.0783 297.963 69.9011C297.963 69.7238 298.108 69.5801 298.284 69.5801V70.2221ZM295.235 69.5801C295.412 69.5801 295.556 69.7238 295.556 69.9011C295.556 70.0783 295.412 70.2221 295.235 70.2221V69.5801ZM292.185 70.2221C292.007 70.2221 291.864 70.0783 291.864 69.9011C291.864 69.7238 292.007 69.5801 292.185 69.5801V70.2221ZM289.135 69.5801C289.312 69.5801 289.456 69.7238 289.456 69.9011C289.456 70.0783 289.312 70.2221 289.135 70.2221V69.5801ZM286.085 70.2221C285.908 70.2221 285.764 70.0783 285.764 69.9011C285.764 69.7238 285.908 69.5801 286.085 69.5801V70.2221ZM283.035 69.5801C283.212 69.5801 283.356 69.7238 283.356 69.9011C283.356 70.0783 283.212 70.2221 283.035 70.2221V69.5801ZM279.985 70.2221C279.808 70.2221 279.664 70.0783 279.664 69.9011C279.664 69.7238 279.808 69.5801 279.985 69.5801V70.2221ZM276.935 69.5801C277.113 69.5801 277.256 69.7238 277.256 69.9011C277.256 70.0783 277.113 70.2221 276.935 70.2221V69.5801ZM273.886 70.2221C273.708 70.2221 273.565 70.0783 273.565 69.9011C273.565 69.7238 273.708 69.5801 273.886 69.5801V70.2221ZM270.836 69.5801C271.013 69.5801 271.157 69.7238 271.157 69.9011C271.157 70.0783 271.013 70.2221 270.836 70.2221V69.5801ZM267.785 70.2221C267.608 70.2221 267.464 70.0783 267.464 69.9011C267.464 69.7238 267.608 69.5801 267.785 69.5801V70.2221ZM264.736 69.5801C264.913 69.5801 265.057 69.7238 265.057 69.9011C265.057 70.0783 264.913 70.2221 264.736 70.2221V69.5801ZM262.106 70.4411C261.941 70.509 261.753 70.4313 261.686 70.2676C261.618 70.1039 261.695 69.9161 261.859 69.8481L262.106 70.4411ZM259.948 71.7593C260.016 71.5956 260.204 71.5178 260.367 71.5858C260.531 71.6537 260.609 71.8414 260.541 72.0052L259.948 71.7593ZM260.322 74.6892C260.322 74.8664 260.178 75.0101 260.001 75.0101C259.824 75.0101 259.68 74.8664 259.68 74.6892H260.322ZM259.68 77.8455C259.68 77.6682 259.824 77.5245 260.001 77.5245C260.178 77.5245 260.322 77.6682 260.322 77.8455H259.68ZM260.322 81.0019C260.322 81.1791 260.178 81.3228 260.001 81.3228C259.824 81.3228 259.68 81.1791 259.68 81.0019H260.322ZM259.68 84.1583C259.68 83.981 259.824 83.8373 260.001 83.8373C260.178 83.8373 260.322 83.981 260.322 84.1583H259.68ZM260.322 87.3146C260.322 87.4919 260.178 87.6356 260.001 87.6356C259.824 87.6356 259.68 87.4919 259.68 87.3146H260.322ZM259.68 90.471C259.68 90.2937 259.824 90.15 260.001 90.15C260.178 90.15 260.322 90.2937 260.322 90.471H259.68ZM260.322 93.6274C260.322 93.8047 260.178 93.9484 260.001 93.9484C259.824 93.9484 259.68 93.8047 259.68 93.6274H260.322ZM259.68 96.7838C259.68 96.6065 259.824 96.4628 260.001 96.4628C260.178 96.4628 260.322 96.6065 260.322 96.7838H259.68ZM260.322 99.9401C260.322 100.117 260.178 100.261 260.001 100.261C259.824 100.261 259.68 100.117 259.68 99.9401H260.322ZM259.68 103.097C259.68 102.919 259.824 102.776 260.001 102.776C260.178 102.776 260.322 102.919 260.322 103.097H259.68ZM260.322 106.253C260.322 106.43 260.178 106.574 260.001 106.574C259.824 106.574 259.68 106.43 259.68 106.253H260.322ZM259.68 109.409C259.68 109.232 259.824 109.088 260.001 109.088C260.178 109.088 260.322 109.232 260.322 109.409H259.68ZM260.322 112.566C260.322 112.743 260.178 112.887 260.001 112.887C259.824 112.887 259.68 112.743 259.68 112.566H260.322ZM259.68 115.722C259.68 115.545 259.824 115.401 260.001 115.401C260.178 115.401 260.322 115.545 260.322 115.722H259.68ZM260.322 118.878C260.322 119.056 260.178 119.199 260.001 119.199C259.824 119.199 259.68 119.056 259.68 118.878H260.322ZM259.68 122.035C259.68 121.858 259.824 121.714 260.001 121.714C260.178 121.714 260.322 121.858 260.322 122.035H259.68ZM260.322 125.191C260.322 125.369 260.178 125.512 260.001 125.512C259.824 125.512 259.68 125.369 259.68 125.191H260.322ZM259.68 128.347C259.68 128.17 259.824 128.026 260.001 128.026C260.178 128.026 260.322 128.17 260.322 128.347H259.68ZM260.322 131.504C260.322 131.682 260.178 131.825 260.001 131.825C259.824 131.825 259.68 131.682 259.68 131.504H260.322ZM259.68 134.66C259.68 134.483 259.824 134.339 260.001 134.339C260.178 134.339 260.322 134.483 260.322 134.66H259.68ZM260.322 137.816C260.322 137.994 260.178 138.137 260.001 138.137C259.824 138.137 259.68 137.994 259.68 137.816H260.322ZM259.68 140.973C259.68 140.796 259.824 140.652 260.001 140.652C260.178 140.652 260.322 140.796 260.322 140.973H259.68ZM260.322 144.129C260.322 144.307 260.178 144.45 260.001 144.45C259.824 144.45 259.68 144.307 259.68 144.129H260.322ZM259.68 147.286C259.68 147.108 259.824 146.965 260.001 146.965C260.178 146.965 260.322 147.108 260.322 147.286H259.68ZM260.322 150.442C260.322 150.62 260.178 150.763 260.001 150.763C259.824 150.763 259.68 150.62 259.68 150.442H260.322ZM259.68 153.599C259.68 153.421 259.824 153.278 260.001 153.278C260.178 153.278 260.322 153.421 260.322 153.599H259.68ZM260.322 156.755C260.322 156.932 260.178 157.076 260.001 157.076C259.824 157.076 259.68 156.932 259.68 156.755H260.322ZM259.68 159.912C259.68 159.734 259.824 159.591 260.001 159.591C260.178 159.591 260.322 159.734 260.322 159.912H259.68ZM260.322 163.068C260.322 163.245 260.178 163.389 260.001 163.389C259.824 163.389 259.68 163.245 259.68 163.068H260.322ZM259.68 166.224C259.68 166.046 259.824 165.903 260.001 165.903C260.178 165.903 260.322 166.046 260.322 166.224H259.68ZM324.209 70.2221H322.683V69.5801H324.209V70.2221ZM319.634 70.2221H316.584V69.5801H319.634V70.2221ZM313.533 70.2221H310.484V69.5801H313.533V70.2221ZM307.434 70.2221H304.384V69.5801H307.434V70.2221ZM301.334 70.2221H298.284V69.5801H301.334V70.2221ZM295.235 70.2221H292.185V69.5801H295.235V70.2221ZM289.135 70.2221H286.085V69.5801H289.135V70.2221ZM283.035 70.2221H279.985V69.5801H283.035V70.2221ZM276.935 70.2221H273.886V69.5801H276.935V70.2221ZM270.836 70.2221H267.785V69.5801H270.836V70.2221ZM264.736 70.2221H263.211V69.5801H264.736V70.2221ZM263.211 70.2221C262.819 70.2221 262.445 70.3001 262.106 70.4411L261.859 69.8481C262.276 69.6753 262.733 69.5801 263.211 69.5801V70.2221ZM260.541 72.0052C260.4 72.3454 260.322 72.7186 260.322 73.1109H259.68C259.68 72.6328 259.775 72.1761 259.948 71.7593L260.541 72.0052ZM260.322 73.1109V74.6892H259.68V73.1109H260.322ZM260.322 77.8455V81.0019H259.68V77.8455H260.322ZM260.322 84.1583V87.3146H259.68V84.1583H260.322ZM260.322 90.471V93.6274H259.68V90.471H260.322ZM260.322 96.7838V99.9401H259.68V96.7838H260.322ZM260.322 103.097V106.253H259.68V103.097H260.322ZM260.322 109.409V112.566H259.68V109.409H260.322ZM260.322 115.722V118.878H259.68V115.722H260.322ZM260.322 122.035V125.191H259.68V122.035H260.322ZM260.322 128.347V131.504H259.68V128.347H260.322ZM260.322 134.66V137.816H259.68V134.66H260.322ZM260.322 140.973V144.129H259.68V140.973H260.322ZM260.322 147.286V150.442H259.68V147.286H260.322ZM260.322 153.599V156.755H259.68V153.599H260.322ZM260.322 159.912V163.068H259.68V159.912H260.322ZM260.322 166.224V167.802H259.68V166.224H260.322Z" fill="#BAD2B5"/>
<path d="M260.322 167.801C260.322 167.624 260.178 167.48 260.001 167.48C259.823 167.48 259.68 167.624 259.68 167.801H260.322ZM323.456 266.184C323.279 266.184 323.135 266.328 323.135 266.505C323.135 266.683 323.279 266.826 323.456 266.826V266.184ZM320.366 266.826C320.544 266.826 320.687 266.683 320.687 266.505C320.687 266.328 320.544 266.184 320.366 266.184V266.826ZM317.277 266.184C317.1 266.184 316.956 266.328 316.956 266.505C316.956 266.683 317.1 266.826 317.277 266.826V266.184ZM314.187 266.826C314.365 266.826 314.508 266.683 314.508 266.505C314.508 266.328 314.365 266.184 314.187 266.184V266.826ZM311.098 266.184C310.921 266.184 310.777 266.328 310.777 266.505C310.777 266.683 310.921 266.826 311.098 266.826V266.184ZM308.008 266.826C308.186 266.826 308.329 266.683 308.329 266.505C308.329 266.328 308.186 266.184 308.008 266.184V266.826ZM304.919 266.184C304.742 266.184 304.598 266.328 304.598 266.505C304.598 266.683 304.742 266.826 304.919 266.826V266.184ZM301.829 266.826C302.007 266.826 302.15 266.683 302.15 266.505C302.15 266.328 302.007 266.184 301.829 266.184V266.826ZM298.74 266.184C298.563 266.184 298.419 266.328 298.419 266.505C298.419 266.683 298.563 266.826 298.74 266.826V266.184ZM295.65 266.826C295.828 266.826 295.971 266.683 295.971 266.505C295.971 266.328 295.828 266.184 295.65 266.184V266.826ZM292.561 266.184C292.384 266.184 292.24 266.328 292.24 266.505C292.24 266.683 292.384 266.826 292.561 266.826V266.184ZM289.471 266.826C289.649 266.826 289.792 266.683 289.792 266.505C289.792 266.328 289.649 266.184 289.471 266.184V266.826ZM286.382 266.184C286.204 266.184 286.061 266.328 286.061 266.505C286.061 266.683 286.204 266.826 286.382 266.826V266.184ZM283.292 266.826C283.47 266.826 283.613 266.683 283.613 266.505C283.613 266.328 283.47 266.184 283.292 266.184V266.826ZM280.203 266.184C280.025 266.184 279.882 266.328 279.882 266.505C279.882 266.683 280.025 266.826 280.203 266.826V266.184ZM277.113 266.826C277.291 266.826 277.434 266.683 277.434 266.505C277.434 266.328 277.291 266.184 277.113 266.184V266.826ZM274.024 266.184C273.846 266.184 273.703 266.328 273.703 266.505C273.703 266.683 273.846 266.826 274.024 266.826V266.184ZM270.934 266.826C271.112 266.826 271.255 266.683 271.255 266.505C271.255 266.328 271.112 266.184 270.934 266.184V266.826ZM267.845 266.184C267.667 266.184 267.524 266.328 267.524 266.505C267.524 266.683 267.667 266.826 267.845 266.826V266.184ZM264.755 266.826C264.933 266.826 265.076 266.683 265.076 266.505C265.076 266.328 264.933 266.184 264.755 266.184V266.826ZM262.105 265.965C261.941 265.897 261.753 265.975 261.685 266.138C261.618 266.302 261.695 266.49 261.859 266.558L262.105 265.965ZM259.948 264.647C260.016 264.81 260.204 264.888 260.367 264.821C260.531 264.753 260.609 264.565 260.541 264.401L259.948 264.647ZM260.322 261.704C260.322 261.527 260.178 261.383 260.001 261.383C259.823 261.383 259.68 261.527 259.68 261.704H260.322ZM259.68 258.521C259.68 258.698 259.823 258.842 260.001 258.842C260.178 258.842 260.322 258.698 260.322 258.521H259.68ZM260.322 255.337C260.322 255.16 260.178 255.016 260.001 255.016C259.823 255.016 259.68 255.16 259.68 255.337H260.322ZM259.68 252.155C259.68 252.332 259.823 252.476 260.001 252.476C260.178 252.476 260.322 252.332 260.322 252.155H259.68ZM260.322 248.971C260.322 248.794 260.178 248.65 260.001 248.65C259.823 248.65 259.68 248.794 259.68 248.971H260.322ZM259.68 245.788C259.68 245.965 259.823 246.109 260.001 246.109C260.178 246.109 260.322 245.965 260.322 245.788H259.68ZM260.322 242.605C260.322 242.428 260.178 242.284 260.001 242.284C259.823 242.284 259.68 242.428 259.68 242.605H260.322ZM259.68 239.422C259.68 239.599 259.823 239.743 260.001 239.743C260.178 239.743 260.322 239.599 260.322 239.422H259.68ZM260.322 236.238C260.322 236.061 260.178 235.917 260.001 235.917C259.823 235.917 259.68 236.061 259.68 236.238H260.322ZM259.68 233.056C259.68 233.233 259.823 233.377 260.001 233.377C260.178 233.377 260.322 233.233 260.322 233.056H259.68ZM260.322 229.872C260.322 229.695 260.178 229.551 260.001 229.551C259.823 229.551 259.68 229.695 259.68 229.872H260.322ZM259.68 226.689C259.68 226.866 259.823 227.01 260.001 227.01C260.178 227.01 260.322 226.866 260.322 226.689H259.68ZM260.322 223.506C260.322 223.329 260.178 223.185 260.001 223.185C259.823 223.185 259.68 223.329 259.68 223.506H260.322ZM259.68 220.323C259.68 220.5 259.823 220.644 260.001 220.644C260.178 220.644 260.322 220.5 260.322 220.323H259.68ZM260.322 217.14C260.322 216.962 260.178 216.819 260.001 216.819C259.823 216.819 259.68 216.962 259.68 217.14H260.322ZM259.68 213.957C259.68 214.134 259.823 214.278 260.001 214.278C260.178 214.278 260.322 214.134 260.322 213.957H259.68ZM260.322 210.774C260.322 210.596 260.178 210.453 260.001 210.453C259.823 210.453 259.68 210.596 259.68 210.774H260.322ZM259.68 207.59C259.68 207.768 259.823 207.911 260.001 207.911C260.178 207.911 260.322 207.768 260.322 207.59H259.68ZM260.322 204.408C260.322 204.23 260.178 204.087 260.001 204.087C259.823 204.087 259.68 204.23 259.68 204.408H260.322ZM259.68 201.224C259.68 201.402 259.823 201.545 260.001 201.545C260.178 201.545 260.322 201.402 260.322 201.224H259.68ZM260.322 198.041C260.322 197.864 260.178 197.72 260.001 197.72C259.823 197.72 259.68 197.864 259.68 198.041H260.322ZM259.68 194.858C259.68 195.036 259.823 195.179 260.001 195.179C260.178 195.179 260.322 195.036 260.322 194.858H259.68ZM260.322 191.675C260.322 191.498 260.178 191.354 260.001 191.354C259.823 191.354 259.68 191.498 259.68 191.675H260.322ZM259.68 188.492C259.68 188.669 259.823 188.812 260.001 188.812C260.178 188.812 260.322 188.669 260.322 188.492H259.68ZM260.322 185.309C260.322 185.132 260.178 184.988 260.001 184.988C259.823 184.988 259.68 185.132 259.68 185.309H260.322ZM259.68 182.126C259.68 182.303 259.823 182.447 260.001 182.447C260.178 182.447 260.322 182.303 260.322 182.126H259.68ZM260.322 178.942C260.322 178.765 260.178 178.621 260.001 178.621C259.823 178.621 259.68 178.765 259.68 178.942H260.322ZM259.68 175.76C259.68 175.937 259.823 176.081 260.001 176.081C260.178 176.081 260.322 175.937 260.322 175.76H259.68ZM260.322 172.576C260.322 172.399 260.178 172.255 260.001 172.255C259.823 172.255 259.68 172.399 259.68 172.576H260.322ZM259.68 169.393C259.68 169.57 259.823 169.714 260.001 169.714C260.178 169.714 260.322 169.57 260.322 169.393H259.68ZM325.001 266.184H323.456V266.826H325.001V266.184ZM320.366 266.184H317.277V266.826H320.366V266.184ZM314.187 266.184H311.098V266.826H314.187V266.184ZM308.008 266.184H304.919V266.826H308.008V266.184ZM301.829 266.184H298.74V266.826H301.829V266.184ZM295.65 266.184H292.561V266.826H295.65V266.184ZM289.471 266.184H286.382V266.826H289.471V266.184ZM283.292 266.184H280.203V266.826H283.292V266.184ZM277.113 266.184H274.024V266.826H277.113V266.184ZM270.934 266.184H267.845V266.826H270.934V266.184ZM264.755 266.184H263.211V266.826H264.755V266.184ZM263.211 266.184C262.818 266.184 262.445 266.106 262.105 265.965L261.859 266.558C262.276 266.731 262.732 266.826 263.211 266.826V266.184ZM260.541 264.401C260.4 264.061 260.322 263.688 260.322 263.295H259.68C259.68 263.774 259.775 264.23 259.948 264.647L260.541 264.401ZM260.322 263.295V261.704H259.68V263.295H260.322ZM260.322 258.521V255.337H259.68V258.521H260.322ZM260.322 252.155V248.971H259.68V252.155H260.322ZM260.322 245.788V242.605H259.68V245.788H260.322ZM260.322 239.422V236.238H259.68V239.422H260.322ZM260.322 233.056V229.872H259.68V233.056H260.322ZM260.322 226.689V223.506H259.68V226.689H260.322ZM260.322 220.323V217.14H259.68V220.323H260.322ZM260.322 213.957V210.774H259.68V213.957H260.322ZM260.322 207.59V204.408H259.68V207.59H260.322ZM260.322 201.224V198.041H259.68V201.224H260.322ZM260.322 194.858V191.675H259.68V194.858H260.322ZM260.322 188.492V185.309H259.68V188.492H260.322ZM260.322 182.126V178.942H259.68V182.126H260.322ZM260.322 175.76V172.576H259.68V175.76H260.322ZM260.322 169.393V167.801H259.68V169.393H260.322Z" fill="#BAD2B5"/>
<g opacity="0.8">
<path d="M0 135.307H390" stroke="#DBF4D5" stroke-width="0.401235"/>
<path d="M0 102.535H390" stroke="#DBF4D5" stroke-width="0.401235"/>
<path d="M0 167.803H65.8025" stroke="#DBF4D5" stroke-width="0.401235"/>
<path d="M324.195 167.803H389.998" stroke="#DBF4D5" stroke-width="0.401235"/>
<path d="M0 233.615H390" stroke="#DBF4D5" stroke-width="0.401235"/>
<path d="M130.805 266.506H260.002" stroke="#DBF4D5" stroke-width="0.401235"/>
<path d="M0 200.846H390" stroke="#DBF4D5" stroke-width="0.401235"/>
<path d="M324.195 37V299.407" stroke="#DBF4D5" stroke-width="0.401235"/>
<path d="M260 266.506V299.407" stroke="#DBF4D5" stroke-width="0.401235"/>
<path d="M130.805 266.506V299.407" stroke="#DBF4D5" stroke-width="0.401235"/>
<path d="M260 37V69.9012" stroke="#DBF4D5" stroke-width="0.401235"/>
<path d="M130.805 37V69.9012" stroke="#DBF4D5" stroke-width="0.401235"/>
<path d="M65.8008 37V299.407" stroke="#DBF4D5" stroke-width="0.401235"/>
<path d="M195.406 37V299.407" stroke="#DBF4D5" stroke-width="0.401235"/>
</g>
<path d="M296.112 167.803H233.52" stroke="#BAD2B5" stroke-width="0.641975" stroke-linecap="round" stroke-linejoin="round" stroke-dasharray="3.21 3.21"/>
<path d="M302.531 167.803H233.52" stroke="#7EBB48" stroke-width="0.802469" stroke-dasharray="6.42 192.59"/>
<path d="M325 266.506H263.21C261.437 266.506 260 265.069 260 263.297V171.013C260 169.24 258.563 167.803 256.79 167.803H233.117" stroke="#7EBB48" stroke-width="0.802469" stroke-dasharray="6.42 192.59"/>
<path d="M163.528 167.822H93.7969" stroke="#BAD2B5" stroke-width="0.641975" stroke-linecap="round" stroke-linejoin="round" stroke-dasharray="3.21 3.21"/>
<path d="M171.73 167.803H86.668" stroke="#7EBB48" stroke-width="0.802469" stroke-dasharray="6.42 192.59"/>
<path d="M65.8008 57.8633H127.591C129.364 57.8633 130.801 59.4771 130.801 61.4678V164.197C130.801 166.188 132.238 167.802 134.011 167.802H171.727" stroke="#7EBB48" stroke-width="0.802469" stroke-dasharray="6.42 192.59"/>
<path d="M65 266.506H127.593C129.365 266.506 130.802 265.069 130.802 263.297V171.013C130.802 169.24 132.24 167.803 134.012 167.803H171.728" stroke="#7EBB48" stroke-width="0.802469" stroke-dasharray="6.42 192.59"/>
<path d="M324.209 69.9004H263.211C261.439 69.9004 260.001 71.3375 260.001 73.1103V164.592C260.001 166.364 258.565 167.802 256.791 167.802H226.945" stroke="#7EBB48" stroke-width="0.802469" stroke-dasharray="6.42 192.59"/>
</g>
<g filter="url(#filter0_d_2435_54426)">
<rect x="54.9688" y="146.137" width="42.5309" height="42.5309" rx="12.8395" fill="white"/>
<path d="M76.5208 171.319V173.277C76.5208 174.816 75.9037 175.433 74.3569 175.433H70.4487C68.9101 175.433 68.293 174.816 68.293 173.277V169.369C68.293 167.822 68.9101 167.205 70.4487 167.205H72.4069V169.155C72.4069 170.702 73.024 171.319 74.5626 171.319H76.5208Z" stroke="#1C274C" stroke-width="1.23418" stroke-linecap="round" stroke-linejoin="round"/>
<path d="M80.638 167.206V169.156C80.638 170.703 80.0209 171.32 78.4741 171.32H74.5659C73.0272 171.32 72.4102 170.703 72.4102 169.156V165.247C72.4102 163.709 73.0272 163.092 74.5659 163.092H76.5241V165.042C76.5241 166.589 77.1412 167.206 78.6798 167.206H80.638Z" stroke="#1C274C" stroke-width="1.23418" stroke-linecap="round" stroke-linejoin="round"/>
<path d="M84.7513 161.134V165.042C84.7513 166.589 84.1342 167.206 82.5874 167.206H78.6791C77.1405 167.206 76.5234 166.589 76.5234 165.042V161.134C76.5234 159.596 77.1405 158.979 78.6791 158.979H82.5874C84.1342 158.979 84.7513 159.596 84.7513 161.134Z" stroke="#1C274C" stroke-width="1.23418" stroke-linecap="round" stroke-linejoin="round"/>
</g>
<g filter="url(#filter1_d_2435_54426)">
<rect x="280.461" y="52.2461" width="42.5309" height="42.5309" rx="12.8395" fill="white"/>
<path d="M305.665 70.334H298.332V77.6673H305.665V70.334Z" stroke="#1C274C" stroke-width="1.2" stroke-linecap="round" stroke-linejoin="round"/>
<path d="M295.582 83.166C297.095 83.166 298.332 81.9285 298.332 80.416V77.666H295.582C294.07 77.666 292.832 78.9035 292.832 80.416C292.832 81.9285 294.07 83.166 295.582 83.166Z" stroke="#1C274C" stroke-width="1.2" stroke-linecap="round" stroke-linejoin="round"/>
<path d="M295.582 70.334H298.332V67.584C298.332 66.0715 297.095 64.834 295.582 64.834C294.07 64.834 292.832 66.0715 292.832 67.584C292.832 69.0965 294.07 70.334 295.582 70.334Z" stroke="#1C274C" stroke-width="1.2" stroke-linecap="round" stroke-linejoin="round"/>
<path d="M305.668 70.334H308.418C309.93 70.334 311.168 69.0965 311.168 67.584C311.168 66.0715 309.93 64.834 308.418 64.834C306.905 64.834 305.668 66.0715 305.668 67.584V70.334Z" stroke="#1C274C" stroke-width="1.2" stroke-linecap="round" stroke-linejoin="round"/>
<path d="M308.418 83.166C309.93 83.166 311.168 81.9285 311.168 80.416C311.168 78.9035 309.93 77.666 308.418 77.666H305.668V80.416C305.668 81.9285 306.905 83.166 308.418 83.166Z" stroke="#1C274C" stroke-width="1.2" stroke-linecap="round" stroke-linejoin="round"/>
</g>
<g clip-path="url(#clip1_2435_54426)">
<rect x="169.699" y="142.123" width="50.5556" height="50.5556" rx="9" fill="url(#paint0_radial_2435_54426)"/>
<g filter="url(#filter2_f_2435_54426)">
<circle cx="194.538" cy="166.981" r="23.7566" fill="#7AAAD7"/>
</g>
<g clip-path="url(#clip2_2435_54426)">
<path fill-rule="evenodd" clip-rule="evenodd" d="M202.957 154.85H180.344V172.082H202.957V154.85ZM202.685 155.111H180.616V171.821H202.685V155.111Z" fill="white"/>
<path fill-rule="evenodd" clip-rule="evenodd" d="M202.957 173.383H180.344V179.885H202.957V173.383ZM202.685 173.666H180.616V179.603H202.685V173.666Z" fill="white"/>
<path fill-rule="evenodd" clip-rule="evenodd" d="M209.647 154.85H203.914V172.082H209.647V154.85ZM209.418 155.111H204.143V171.821H209.418V155.111Z" fill="white"/>
<path d="M202.324 155.5H180.984V171.432H202.324V155.5Z" fill="white"/>
<path d="M183.534 174.357H181.305V175.658H183.534V174.357Z" fill="white"/>
<path d="M183.534 175.984H181.305V177.285H183.534V175.984Z" fill="white"/>
<path d="M183.534 177.609H181.305V178.91H183.534V177.609Z" fill="white"/>
<path d="M186.081 174.357H183.852V175.658H186.081V174.357Z" fill="white"/>
<path d="M186.081 175.984H183.852V177.285H186.081V175.984Z" fill="white"/>
<path d="M196.909 175.984H194.68V177.285H196.909V175.984Z" fill="white"/>
<path d="M186.081 177.609H183.852V178.91H186.081V177.609Z" fill="white"/>
<path d="M188.628 174.357H186.398V175.658H188.628V174.357Z" fill="white"/>
<path d="M199.456 174.357H197.227V175.658H199.456V174.357Z" fill="white"/>
<path d="M208.372 160.377H205.188V165.579H208.372V160.377Z" fill="white"/>
<path d="M188.628 175.984H186.398V177.285H188.628V175.984Z" fill="white"/>
<path d="M199.456 175.984H197.227V177.285H199.456V175.984Z" fill="white"/>
<path d="M188.628 177.609H186.398V178.91H188.628V177.609Z" fill="white"/>
<path d="M199.456 177.609H197.227V178.91H199.456V177.609Z" fill="white"/>
<path d="M191.175 174.357H188.945V175.658H191.175V174.357Z" fill="white"/>
<path d="M191.175 175.984H188.945V177.285H191.175V175.984Z" fill="white"/>
<path d="M202.003 175.984H199.773V177.285H202.003V175.984Z" fill="white"/>
<path d="M191.175 177.609H188.945V178.91H191.175V177.609Z" fill="white"/>
<path d="M202.641 162.765L203.915 162.002V163.691L202.641 162.765Z" fill="white"/>
<path d="M192.72 172.082L193.467 173.383H191.812L192.72 172.082Z" fill="white"/>
</g>
</g>
<rect x="170.153" y="142.577" width="49.6483" height="49.6483" rx="8.54636" stroke="url(#paint1_linear_2435_54426)" stroke-width="0.907285"/>
<g clip-path="url(#clip3_2435_54426)">
<rect x="169.699" y="247" width="50.5556" height="50.5556" rx="9" fill="url(#paint2_radial_2435_54426)"/>
<g filter="url(#filter3_f_2435_54426)">
<circle cx="194.538" cy="271.858" r="23.7566" fill="#7AAAD7"/>
</g>
<path d="M186.25 274.5C183.487 274.5 181.25 276.737 181.25 279.5C181.25 282.262 183.487 284.5 186.25 284.5C189.012 284.5 191.25 282.262 191.25 279.5C191.25 276.737 189.012 274.5 186.25 274.5ZM187.5 279.1C187.5 279.862 187.088 280.587 186.438 280.975L185.488 281.55C185.338 281.638 185.175 281.688 185.013 281.688C184.7 281.688 184.387 281.525 184.212 281.238C183.95 280.8 184.088 280.212 184.538 279.95L185.488 279.375C185.575 279.325 185.638 279.213 185.638 279.113V277.95C185.638 277.438 186.063 277.013 186.575 277.013C187.088 277.013 187.513 277.438 187.513 277.95V279.1H187.5Z" fill="white"/>
<path opacity="0.4" d="M207.5 268.25V275.75C207.5 280.125 205 282 201.25 282H190.563C191 281.263 191.25 280.413 191.25 279.5C191.25 276.738 189.012 274.5 186.25 274.5C184.75 274.5 183.412 275.162 182.5 276.2V268.25C182.5 263.875 185 262 188.75 262H201.25C205 262 207.5 263.875 207.5 268.25Z" fill="white"/>
<path d="M195 275.125C196.726 275.125 198.125 273.726 198.125 272C198.125 270.274 196.726 268.875 195 268.875C193.274 268.875 191.875 270.274 191.875 272C191.875 273.726 193.274 275.125 195 275.125Z" fill="white"/>
<path d="M203.125 275.438C202.613 275.438 202.188 275.012 202.188 274.5V269.5C202.188 268.988 202.613 268.562 203.125 268.562C203.638 268.562 204.062 268.988 204.062 269.5V274.5C204.062 275.012 203.638 275.438 203.125 275.438Z" fill="white"/>
</g>
<rect x="170.153" y="247.454" width="49.6483" height="49.6483" rx="8.54636" stroke="url(#paint3_linear_2435_54426)" stroke-width="0.907285"/>
<g clip-path="url(#clip4_2435_54426)">
<rect x="169.699" y="37" width="50.5556" height="50.5556" rx="9" fill="url(#paint4_radial_2435_54426)"/>
<g filter="url(#filter4_f_2435_54426)">
<circle cx="194.538" cy="61.8582" r="23.7566" fill="#7AAAD7"/>
</g>
<path opacity="0.4" d="M192.487 69.475C198.003 69.475 202.475 65.0034 202.475 59.4875C202.475 53.9716 198.003 49.5 192.487 49.5C186.972 49.5 182.5 53.9716 182.5 59.4875C182.5 65.0034 186.972 69.475 192.487 69.475Z" fill="white"/>
<path d="M207.464 66.9871C207.464 71.1121 204.114 74.4621 199.989 74.4621C197.439 74.4621 195.202 73.1871 193.852 71.2496C199.302 70.6371 203.639 66.2996 204.252 60.8496C206.189 62.1996 207.464 64.4371 207.464 66.9871Z" fill="white"/>
<path d="M194.312 59.1367L191.313 58.0867C191.013 57.9867 190.95 57.9617 190.95 57.5242C190.95 57.1992 191.175 56.9367 191.463 56.9367H193.338C193.738 56.9367 194.062 57.2992 194.062 57.7492C194.062 58.2617 194.488 58.6867 195 58.6867C195.512 58.6867 195.938 58.2617 195.938 57.7492C195.938 56.3117 194.825 55.1367 193.438 55.0742V55.0117C193.438 54.4992 193.013 54.0742 192.5 54.0742C191.987 54.0742 191.562 54.4867 191.562 55.0117V55.0742H191.45C190.137 55.0742 189.062 56.1742 189.062 57.5367C189.062 58.7242 189.587 59.4867 190.675 59.8617L193.688 60.9117C193.987 61.0117 194.05 61.0367 194.05 61.4742C194.05 61.7992 193.825 62.0617 193.537 62.0617H191.662C191.262 62.0617 190.938 61.6992 190.938 61.2492C190.938 60.7367 190.513 60.3117 190 60.3117C189.488 60.3117 189.062 60.7367 189.062 61.2492C189.062 62.6867 190.175 63.8617 191.562 63.9242V63.9992C191.562 64.5117 191.987 64.9367 192.5 64.9367C193.013 64.9367 193.438 64.5117 193.438 63.9992V63.9367H193.55C194.863 63.9367 195.938 62.8367 195.938 61.4742C195.938 60.2867 195.4 59.5242 194.312 59.1367Z" fill="white"/>
</g>
<rect x="170.153" y="37.4536" width="49.6483" height="49.6483" rx="8.54636" stroke="url(#paint5_linear_2435_54426)" stroke-width="0.907285"/>
<g filter="url(#filter5_d_2435_54426)">
<rect x="288.891" y="146.137" width="42.5309" height="42.5309" rx="12.8395" fill="white"/>
<path d="M316.667 168.667C317.587 168.667 318.333 167.921 318.333 167.001C318.333 166.08 317.587 165.334 316.667 165.334C315.746 165.334 315 166.08 315 167.001C315 167.921 315.746 168.667 316.667 168.667Z" stroke="#1C274C" stroke-width="1.25" stroke-linecap="round" stroke-linejoin="round"/>
<path d="M316.667 161.999C317.587 161.999 318.333 161.253 318.333 160.333C318.333 159.412 317.587 158.666 316.667 158.666C315.746 158.666 315 159.412 315 160.333C315 161.253 315.746 161.999 316.667 161.999Z" stroke="#1C274C" stroke-width="1.25" stroke-linecap="round" stroke-linejoin="round"/>
<path d="M316.667 175.333C317.587 175.333 318.333 174.587 318.333 173.667C318.333 172.746 317.587 172 316.667 172C315.746 172 315 172.746 315 173.667C315 174.587 315.746 175.333 316.667 175.333Z" stroke="#1C274C" stroke-width="1.25" stroke-linecap="round" stroke-linejoin="round"/>
<path d="M303.335 168.667C304.255 168.667 305.001 167.921 305.001 167.001C305.001 166.08 304.255 165.334 303.335 165.334C302.414 165.334 301.668 166.08 301.668 167.001C301.668 167.921 302.414 168.667 303.335 168.667Z" stroke="#1C274C" stroke-width="1.25" stroke-linecap="round" stroke-linejoin="round"/>
<path d="M305 167H315" stroke="#1C274C" stroke-width="1.25" stroke-linecap="round" stroke-linejoin="round"/>
<path d="M315.001 160.334H311.668C310.001 160.334 309.168 161.167 309.168 162.834V171.167C309.168 172.834 310.001 173.667 311.668 173.667H315.001" stroke="#1C274C" stroke-width="1.25" stroke-linecap="round" stroke-linejoin="round"/>
</g>
</g>
<defs>
<filter id="filter0_d_2435_54426" x="51.7589" y="146.137" width="48.951" height="48.951" filterUnits="userSpaceOnUse" color-interpolation-filters="sRGB">
<feFlood flood-opacity="0" result="BackgroundImageFix"/>
<feColorMatrix in="SourceAlpha" type="matrix" values="0 0 0 0 0 0 0 0 0 0 0 0 0 0 0 0 0 0 127 0" result="hardAlpha"/>
<feOffset dy="3.20988"/>
<feGaussianBlur stdDeviation="1.60494"/>
<feComposite in2="hardAlpha" operator="out"/>
<feColorMatrix type="matrix" values="0 0 0 0 0.713381 0 0 0 0 0.713381 0 0 0 0 0.713381 0 0 0 0.25 0"/>
<feBlend mode="normal" in2="BackgroundImageFix" result="effect1_dropShadow_2435_54426"/>
<feBlend mode="normal" in="SourceGraphic" in2="effect1_dropShadow_2435_54426" result="shape"/>
</filter>
<filter id="filter1_d_2435_54426" x="277.251" y="52.2461" width="48.951" height="48.951" filterUnits="userSpaceOnUse" color-interpolation-filters="sRGB">
<feFlood flood-opacity="0" result="BackgroundImageFix"/>
<feColorMatrix in="SourceAlpha" type="matrix" values="0 0 0 0 0 0 0 0 0 0 0 0 0 0 0 0 0 0 127 0" result="hardAlpha"/>
<feOffset dy="3.20988"/>
<feGaussianBlur stdDeviation="1.60494"/>
<feComposite in2="hardAlpha" operator="out"/>
<feColorMatrix type="matrix" values="0 0 0 0 0.713381 0 0 0 0 0.713381 0 0 0 0 0.713381 0 0 0 0.25 0"/>
<feBlend mode="normal" in2="BackgroundImageFix" result="effect1_dropShadow_2435_54426"/>
<feBlend mode="normal" in="SourceGraphic" in2="effect1_dropShadow_2435_54426" result="shape"/>
</filter>
<filter id="filter2_f_2435_54426" x="154.058" y="126.502" width="80.9579" height="80.9599" filterUnits="userSpaceOnUse" color-interpolation-filters="sRGB">
<feFlood flood-opacity="0" result="BackgroundImageFix"/>
<feBlend mode="normal" in="SourceGraphic" in2="BackgroundImageFix" result="shape"/>
<feGaussianBlur stdDeviation="8.36155" result="effect1_foregroundBlur_2435_54426"/>
</filter>
<filter id="filter3_f_2435_54426" x="154.058" y="231.378" width="80.9579" height="80.9599" filterUnits="userSpaceOnUse" color-interpolation-filters="sRGB">
<feFlood flood-opacity="0" result="BackgroundImageFix"/>
<feBlend mode="normal" in="SourceGraphic" in2="BackgroundImageFix" result="shape"/>
<feGaussianBlur stdDeviation="8.36155" result="effect1_foregroundBlur_2435_54426"/>
</filter>
<filter id="filter4_f_2435_54426" x="154.058" y="21.3785" width="80.9579" height="80.9599" filterUnits="userSpaceOnUse" color-interpolation-filters="sRGB">
<feFlood flood-opacity="0" result="BackgroundImageFix"/>
<feBlend mode="normal" in="SourceGraphic" in2="BackgroundImageFix" result="shape"/>
<feGaussianBlur stdDeviation="8.36155" result="effect1_foregroundBlur_2435_54426"/>
</filter>
<filter id="filter5_d_2435_54426" x="285.681" y="146.137" width="48.951" height="48.951" filterUnits="userSpaceOnUse" color-interpolation-filters="sRGB">
<feFlood flood-opacity="0" result="BackgroundImageFix"/>
<feColorMatrix in="SourceAlpha" type="matrix" values="0 0 0 0 0 0 0 0 0 0 0 0 0 0 0 0 0 0 127 0" result="hardAlpha"/>
<feOffset dy="3.20988"/>
<feGaussianBlur stdDeviation="1.60494"/>
<feComposite in2="hardAlpha" operator="out"/>
<feColorMatrix type="matrix" values="0 0 0 0 0.713381 0 0 0 0 0.713381 0 0 0 0 0.713381 0 0 0 0.25 0"/>
<feBlend mode="normal" in2="BackgroundImageFix" result="effect1_dropShadow_2435_54426"/>
<feBlend mode="normal" in="SourceGraphic" in2="effect1_dropShadow_2435_54426" result="shape"/>
</filter>
<radialGradient id="paint0_radial_2435_54426" cx="0" cy="0" r="1" gradientUnits="userSpaceOnUse" gradientTransform="translate(194.669 167.33) rotate(-110.556) scale(42.5078)">
<stop stop-color="#7AAAD7"/>
<stop offset="0.23" stop-color="#7AAAD7" stop-opacity="0.84"/>
<stop offset="0.785183" stop-color="#7A80FB"/>
<stop offset="1" stop-color="#7A80FB"/>
</radialGradient>
<linearGradient id="paint1_linear_2435_54426" x1="170.427" y1="147.54" x2="220.609" y2="148.282" gradientUnits="userSpaceOnUse">
<stop stop-color="#558F21" stop-opacity="0.05"/>
<stop offset="0.480607" stop-color="#558F21" stop-opacity="0.3"/>
<stop offset="1" stop-color="#558F21" stop-opacity="0.05"/>
</linearGradient>
<radialGradient id="paint2_radial_2435_54426" cx="0" cy="0" r="1" gradientUnits="userSpaceOnUse" gradientTransform="translate(194.669 272.207) rotate(-110.556) scale(42.5078)">
<stop stop-color="#7AAAD7"/>
<stop offset="0.23" stop-color="#7AAAD7" stop-opacity="0.84"/>
<stop offset="0.785183" stop-color="#7A80FB"/>
<stop offset="1" stop-color="#7A80FB"/>
</radialGradient>
<linearGradient id="paint3_linear_2435_54426" x1="170.427" y1="252.417" x2="220.609" y2="253.159" gradientUnits="userSpaceOnUse">
<stop stop-color="#558F21" stop-opacity="0.05"/>
<stop offset="0.480607" stop-color="#558F21" stop-opacity="0.3"/>
<stop offset="1" stop-color="#558F21" stop-opacity="0.05"/>
</linearGradient>
<radialGradient id="paint4_radial_2435_54426" cx="0" cy="0" r="1" gradientUnits="userSpaceOnUse" gradientTransform="translate(194.669 62.2075) rotate(-110.556) scale(42.5078)">
<stop stop-color="#7AAAD7"/>
<stop offset="0.23" stop-color="#7AAAD7" stop-opacity="0.84"/>
<stop offset="0.785183" stop-color="#7A80FB"/>
<stop offset="1" stop-color="#7A80FB"/>
</radialGradient>
<linearGradient id="paint5_linear_2435_54426" x1="170.427" y1="42.4167" x2="220.609" y2="43.1591" gradientUnits="userSpaceOnUse">
<stop stop-color="#558F21" stop-opacity="0.05"/>
<stop offset="0.480607" stop-color="#558F21" stop-opacity="0.3"/>
<stop offset="1" stop-color="#558F21" stop-opacity="0.05"/>
</linearGradient>
<clipPath id="clip0_2435_54426">
<rect width="390" height="294.506" fill="white" transform="translate(0 37)"/>
</clipPath>
<clipPath id="clip1_2435_54426">
<rect x="169.699" y="142.123" width="50.5556" height="50.5556" rx="9" fill="white"/>
</clipPath>
<clipPath id="clip2_2435_54426">
<rect width="29.6203" height="25.9177" fill="white" transform="translate(180.188 154.246)"/>
</clipPath>
<clipPath id="clip3_2435_54426">
<rect x="169.699" y="247" width="50.5556" height="50.5556" rx="9" fill="white"/>
</clipPath>
<clipPath id="clip4_2435_54426">
<rect x="169.699" y="37" width="50.5556" height="50.5556" rx="9" fill="white"/>
</clipPath>
</defs>
</svg>
