<svg width="24" height="24" viewBox="0 0 24 24" fill="none" xmlns="http://www.w3.org/2000/svg">
<path opacity="0.4" d="M11.9707 22C17.4936 22 21.9707 17.5228 21.9707 12C21.9707 6.47715 17.4936 2 11.9707 2C6.44786 2 1.9707 6.47715 1.9707 12C1.9707 17.5228 6.44786 22 11.9707 22Z" fill="#558F21"/>
<path d="M15.2505 11.3001H13.5505V7.34005C13.5505 6.42005 13.0505 6.23005 12.4405 6.92005L12.0005 7.42005L8.28045 11.6501C7.77045 12.2301 7.98045 12.7001 8.75045 12.7001H10.4505V16.6601C10.4505 17.5801 10.9505 17.7701 11.5605 17.0801L12.0005 16.5801L15.7205 12.3501C16.2305 11.7701 16.0205 11.3001 15.2505 11.3001Z" fill="#558F21"/>
</svg>
