<svg width="180" height="30" viewBox="0 0 180 30" fill="none" xmlns="http://www.w3.org/2000/svg">
<path d="M26.1357 15.2881C26.1357 21.6731 20.9587 26.8501 14.5737 26.8501C8.18772 26.8501 3.01172 21.6731 3.01172 15.2881C3.01172 8.9031 8.18872 3.7251 14.5737 3.7251C20.9587 3.7251 26.1357 8.9021 26.1357 15.2881Z" fill="#999999" stroke="#999999" stroke-miterlimit="10"/>
<path d="M14.9032 10.7632C14.7702 10.7632 14.6322 10.8672 14.5932 10.9932C14.5932 10.9932 12.7442 17.1352 12.6822 17.3202C12.5882 17.5992 12.5022 18.4372 12.5022 18.4372C12.4892 18.5702 12.4662 18.5702 12.4542 18.4372C12.4542 18.4372 12.3752 17.6302 12.2762 17.3272C12.2212 17.1522 10.3622 10.9932 10.3622 10.9932C10.3242 10.8672 10.1842 10.7632 10.0532 10.7632H9.05319C8.92119 10.7632 8.84419 10.8672 8.88319 10.9932L11.6692 20.2192C11.7072 20.3462 11.8472 20.4482 11.9792 20.4482H12.9792C13.1112 20.4482 13.2502 20.3452 13.2882 20.2192L16.0752 10.9932C16.1102 10.8672 16.0352 10.7632 15.9032 10.7632H14.9032Z" fill="white"/>
<path d="M18.8639 20.1821C18.8639 20.3151 18.7569 20.4231 18.6249 20.4231H17.7439C17.6099 20.4231 17.5039 20.3151 17.5039 20.1821V10.9761C17.5039 10.8451 17.6099 10.7361 17.7439 10.7361H18.6249C18.7569 10.7361 18.8639 10.8451 18.8639 10.9761V20.1821Z" fill="white"/>
<path d="M55.5469 13.2087C55.5469 13.2087 57.3459 11.2177 58.2839 11.5447C58.6379 11.6687 58.9819 11.9627 59.2969 12.3377C60.1969 13.8537 60.9419 15.4717 60.9419 15.4717C60.9419 15.4717 63.6859 11.1877 67.3949 7.3407C69.0879 5.5837 71.1079 3.8987 72.9609 2.8097C72.9609 2.8097 73.5369 2.3977 73.9139 2.2627C73.9669 2.3667 74.3589 2.8997 74.3589 2.8997C74.3589 2.8997 72.1459 4.8577 70.5969 6.5957C66.9539 10.3667 63.7859 15.1767 62.7129 17.9797L59.8439 20.2237C59.8459 20.2267 57.1559 13.0977 55.5469 13.2087Z" fill="#999999"/>
<path d="M53.3984 26.8257V20.1567H55.6214C56.1394 20.1567 56.5124 20.1777 56.7424 20.2187C56.9724 20.2617 57.1744 20.3297 57.3474 20.4277C57.6094 20.5747 57.8124 20.7797 57.9514 21.0407C58.0954 21.3027 58.1644 21.5997 58.1644 21.9317C58.1644 22.3407 58.0724 22.6877 57.8904 22.9677C57.7034 23.2477 57.4394 23.4487 57.0864 23.5707C57.3574 23.6627 57.5544 23.7997 57.6704 23.9867C57.7894 24.1747 57.8714 24.5507 57.9204 25.1197L58.0064 26.1217C58.0194 26.2757 58.0434 26.4077 58.0784 26.5107C58.1144 26.6147 58.1604 26.6907 58.2204 26.7397V26.8307H57.5404C57.5054 26.7617 57.4754 26.6707 57.4504 26.5597C57.4254 26.4467 57.4074 26.3097 57.3944 26.1457L57.3184 25.2627C57.2734 24.6537 57.1654 24.2647 56.9934 24.0987C56.8204 23.9287 56.4744 23.8447 55.9564 23.8447H54.0094V26.8287L53.3984 26.8257ZM54.0104 23.2937H55.7804C56.4034 23.2937 56.8504 23.1897 57.1254 22.9787C57.3974 22.7657 57.5344 22.4227 57.5344 21.9517C57.5344 21.7327 57.4924 21.5387 57.4054 21.3617C57.3174 21.1877 57.1944 21.0487 57.0354 20.9417C56.9124 20.8557 56.7644 20.7957 56.5924 20.7587C56.4204 20.7227 56.1404 20.7037 55.7464 20.7037H55.4864H54.0104V23.2937Z" fill="#9B9B9B"/>
<path d="M59.0352 24.4264C59.0352 23.6194 59.2282 22.9964 59.6132 22.5544C59.9982 22.1144 60.5402 21.8904 61.2402 21.8904C61.9432 21.8904 62.4902 22.1144 62.8772 22.5544C63.2662 22.9964 63.4592 23.6194 63.4592 24.4264C63.4592 25.2264 63.2662 25.8474 62.8792 26.2864C62.4942 26.7254 61.9472 26.9474 61.2402 26.9474C60.5402 26.9474 59.9982 26.7274 59.6132 26.2884C59.2292 25.8514 59.0352 25.2284 59.0352 24.4264ZM59.6092 24.4264C59.6092 25.0724 59.7522 25.5724 60.0392 25.9294C60.3242 26.2854 60.7252 26.4634 61.2402 26.4634C61.7632 26.4634 62.1662 26.2864 62.4492 25.9354C62.7322 25.5814 62.8752 25.0804 62.8752 24.4264C62.8752 23.7754 62.7322 23.2714 62.4492 22.9164C62.1662 22.5624 61.7632 22.3834 61.2402 22.3834C60.7242 22.3834 60.3242 22.5624 60.0392 22.9184C59.7522 23.2724 59.6092 23.7764 59.6092 24.4264Z" fill="#9B9B9B"/>
<path d="M64.5742 26.826V20.157H65.1842V23.05H68.9962V20.157H69.6172V26.826H68.9962V23.597H65.1842V26.826H64.5742Z" fill="#9B9B9B"/>
<path d="M70.7852 24.8066H71.3962C71.4022 25.3316 71.5682 25.7416 71.8942 26.0296C72.2202 26.3206 72.6792 26.4666 73.2712 26.4666C73.7892 26.4666 74.1992 26.3506 74.4962 26.1156C74.7932 25.8806 74.9412 25.5566 74.9412 25.1466C74.9412 24.7656 74.8372 24.4766 74.6292 24.2776C74.4202 24.0806 74.0062 23.8986 73.3852 23.7396L72.7502 23.5796C72.0682 23.4036 71.5962 23.1836 71.3362 22.9116C71.0742 22.6416 70.9432 22.2636 70.9432 21.7726C70.9432 21.2316 71.1402 20.7976 71.5372 20.4736C71.9322 20.1476 72.4612 19.9836 73.1212 19.9836C73.8222 19.9836 74.3692 20.1636 74.7642 20.5186C75.1592 20.8726 75.3602 21.3726 75.3682 22.0126H74.7472C74.7382 21.5366 74.5912 21.1706 74.3052 20.9126C74.0182 20.6546 73.6172 20.5236 73.0962 20.5236C72.6082 20.5236 72.2292 20.6326 71.9582 20.8536C71.6892 21.0766 71.5572 21.3846 71.5572 21.7886C71.5572 22.0946 71.6452 22.3346 71.8212 22.5126C71.9962 22.6906 72.2872 22.8266 72.6902 22.9326L73.4682 23.1246C74.2372 23.3166 74.7782 23.5626 75.0872 23.8556C75.3992 24.1526 75.5552 24.5586 75.5552 25.0806C75.5552 25.6806 75.3502 26.1466 74.9422 26.4926C74.5332 26.8376 73.9732 27.0096 73.2642 27.0096C72.4712 27.0096 71.8602 26.8226 71.4322 26.4496C71.0012 26.0776 70.7862 25.5436 70.7862 24.8476L70.7852 24.8066Z" fill="#9B9B9B"/>
<path d="M111.146 23.6759V26.4669C110.841 26.4959 110.53 26.5139 110.213 26.5139C105.025 26.5139 100.793 22.2849 100.793 17.0979C100.793 11.9119 105.024 7.68091 110.213 7.68091C110.528 7.68091 110.841 7.69791 111.146 7.72691V10.5179C110.841 10.4749 110.53 10.4509 110.213 10.4509C106.554 10.4509 103.564 13.4399 103.564 17.0969C103.564 20.7579 106.554 23.7429 110.213 23.7429C110.53 23.7439 110.842 23.7209 111.146 23.6759Z" fill="#999999"/>
<path d="M119.911 15.6589H125.349V18.5369H119.911C120.57 21.5079 123.23 23.7439 126.398 23.7439C126.711 23.7439 127.029 23.7209 127.334 23.6759V26.4669C127.025 26.4959 126.715 26.5139 126.398 26.5139C121.21 26.5139 116.98 22.2849 116.98 17.0979C116.98 11.9119 121.209 7.68091 126.398 7.68091C126.711 7.68091 127.025 7.69791 127.334 7.72691V10.5179C127.025 10.4749 126.715 10.4509 126.398 10.4509C123.23 10.4499 120.57 12.6859 119.911 15.6589Z" fill="#999999"/>
<path d="M169.402 24.505C166.091 24.505 163.411 21.823 163.411 18.516C163.411 15.21 166.096 12.528 169.402 12.528C171.382 12.528 173.144 13.491 174.234 14.975L176.806 14.972C175.484 12.214 172.663 10.31 169.402 10.31C165.232 10.31 161.793 13.416 161.265 17.435C160.753 17.435 156.347 17.435 156.156 17.435C155.952 17.435 155.996 17.357 155.996 17.357C155.996 17.357 155.996 13.768 155.996 13.359C155.996 12.953 156.441 12.791 156.441 12.791C156.441 12.791 161.513 12.791 161.757 12.791C162.001 12.791 161.839 12.669 161.839 12.669V9.99505L161.757 9.87305C161.757 9.87305 156.806 9.87305 155.466 9.87305C154.863 9.87305 154.228 10.343 153.839 10.886C153.36 11.55 153.193 12.307 153.193 12.307C153.193 12.307 153.193 26.021 153.193 26.307C153.193 26.59 153.599 26.713 153.599 26.713C153.599 26.713 155.546 26.713 155.911 26.713C156.278 26.713 156.033 26.671 156.033 26.671C156.033 26.671 156.033 19.936 156.033 19.733C156.033 19.528 156.153 19.61 156.153 19.61H161.262C161.799 23.627 165.236 26.721 169.398 26.721C172.642 26.721 175.447 24.866 176.781 22.133L174.158 22.153C173.064 23.583 171.342 24.505 169.402 24.505Z" fill="#999999"/>
<path d="M169.403 15.657C170.389 15.657 171.258 16.088 171.776 16.849L174.13 16.837C173.442 14.894 171.585 13.5 169.403 13.5C166.633 13.5 164.389 15.744 164.389 18.513C164.389 21.283 166.635 23.527 169.403 23.527C171.557 23.527 173.395 22.171 174.104 20.259L171.653 20.28C171.128 20.947 170.313 21.373 169.403 21.373C167.825 21.373 166.544 20.095 166.544 18.515C166.544 16.938 167.825 15.657 169.403 15.657Z" fill="#999999"/>
</svg>
