<svg width="315" height="134" viewBox="0 0 315 134" fill="none" xmlns="http://www.w3.org/2000/svg">
<rect x="0.21002" y="0.21002" width="314.58" height="133.58" rx="13.79" fill="url(#paint0_radial_1594_7478)" stroke="url(#paint1_linear_1594_7478)" stroke-width="0.420039"/>
<g clip-path="url(#clip0_1594_7478)">
<path d="M139.547 56.0804V62.4965H144.27V56.0804H148.64V73.1058H144.27V66.3606H139.547V73.1052H135.176V56.0804H139.547Z" fill="white"/>
<path d="M163.164 72.7257C162.584 73.0027 161.166 73.3324 159.398 73.3324C153.489 73.3324 150.961 69.3664 150.961 64.8698C150.961 58.7577 155.129 55.8521 159.752 55.8521C161.495 55.8521 162.859 56.1806 163.44 56.5091L162.656 59.9949C162.026 59.7174 161.141 59.4638 160.004 59.4638C157.58 59.4638 155.559 61.0308 155.559 64.5922C155.559 67.8251 157.276 69.6439 160.056 69.6439C160.965 69.6439 162.026 69.4671 162.631 69.2399L163.164 72.7257Z" fill="white"/>
<path d="M178.624 67.2191C178.572 65.4764 178.523 63.2536 178.523 60.8534H178.447C178.018 62.9755 177.361 65.4003 176.906 67.0164L175.365 72.7509H172.033L170.691 67.0428C170.313 65.4261 169.807 63.0264 169.479 60.8534H169.429C169.327 63.0762 169.226 65.4764 169.15 67.2191L168.897 73.1052H164.957L166.094 56.0798H171.601L172.712 60.9037C173.168 62.8735 173.647 65.046 173.977 67.0913H174.052C174.456 65.0705 174.989 62.7716 175.442 60.8767L176.654 56.0774H182.085L182.992 73.1027H178.851L178.624 67.2191Z" fill="white"/>
<path d="M118.522 84.9468L121.739 83.6408L120.43 80.414L117.213 81.7189L116.828 80.7671L124.461 77.6711L124.847 78.6235L121.268 80.0751L122.577 83.3025L126.155 81.8515L126.543 82.8026L118.907 85.898L118.522 84.9468Z" fill="white"/>
<path d="M115.795 76.8875L120.775 75.9395C122.48 75.6153 123.031 74.7765 122.849 73.8284C122.65 72.7839 121.814 72.2479 120.134 72.5666L115.154 73.5146L114.961 72.5052L119.845 71.5749C122.222 71.1224 123.394 72.1183 123.696 73.7025C123.985 75.2278 123.308 76.5007 120.943 76.9495L115.987 77.8927L115.795 76.8875Z" fill="white"/>
<path d="M119.461 63.2069C118.336 63.2327 116.989 63.2652 116.001 63.2228L115.999 63.2597C116.931 63.5458 117.948 63.8829 119.025 64.2704L122.929 65.7238L122.908 66.4557L119.025 67.5721C117.875 67.8907 116.818 68.1511 115.845 68.3298L115.844 68.3666C116.856 68.4213 118.163 68.5115 119.383 68.6221L122.882 68.9266L122.854 69.8913L114.637 69.0869L114.675 67.8293L118.634 66.6799C119.684 66.3937 120.569 66.1641 121.454 65.9842L121.456 65.959C120.595 65.725 119.737 65.4413 118.683 65.0791L114.801 63.6502L114.841 62.3798L123.09 62.1335L123.058 63.135L119.461 63.2069Z" fill="white"/>
<path d="M121.179 59.3396L123.477 60.6874L123.225 61.7073L115.836 57.274L116.126 56.0987L124.728 55.6321L124.468 56.6772L121.801 56.8239L121.179 59.3396ZM120.974 56.808L118.586 56.948C118.015 56.9701 117.45 56.9566 116.926 56.94L116.916 56.9762C117.402 57.2095 117.918 57.4631 118.38 57.729L120.442 58.9571L120.974 56.808Z" fill="white"/>
<path d="M125.016 54.9119L117.551 51.4413L118.01 50.4552L122.667 50.0874C123.743 50.0082 124.79 49.983 125.715 50.0223L125.714 49.9947C124.637 49.5882 123.697 49.1786 122.501 48.6217L119.506 47.2315L119.911 46.3669L127.375 49.8381L126.949 50.7579L122.254 51.1208C121.223 51.1945 120.174 51.2467 119.162 51.1926L119.159 51.2307C120.153 51.6126 121.067 52.0234 122.407 52.6467L125.421 54.0467L125.016 54.9119Z" fill="white"/>
<path d="M132.409 42.6877C132.335 43.0684 132.032 43.6898 131.491 44.3524C130.153 45.99 128.074 46.2964 125.961 44.5722C123.804 42.8093 123.695 40.5263 125.07 38.8408C125.619 38.1684 126.117 37.8485 126.375 37.7441L126.873 38.4681C126.523 38.6241 126.144 38.8973 125.757 39.3707C124.735 40.6209 124.843 42.2696 126.593 43.7003C128.278 45.0769 129.856 44.9609 130.932 43.645C131.294 43.1998 131.547 42.6963 131.639 42.3138L132.409 42.6877Z" fill="white"/>
<path d="M132.534 39.442L133.62 41.8736L132.824 42.5564L129.387 34.6562L130.306 33.8696L137.574 38.4878L136.757 39.1878L134.502 37.7565L132.534 39.442ZM133.837 37.2634L131.812 35.9893C131.335 35.6749 130.883 35.3372 130.467 35.0185L130.44 35.0424C130.696 35.5134 130.972 36.0194 131.194 36.5045L132.159 38.7021L133.837 37.2634Z" fill="white"/>
<path d="M134.137 31.0848C134.503 30.768 134.981 30.4002 135.642 30.0078C136.464 29.5221 137.206 29.3385 137.841 29.473C138.406 29.5909 138.932 29.9752 139.306 30.6065C139.687 31.2475 139.801 31.8474 139.674 32.4038C139.536 33.1971 138.945 33.902 138.123 34.3877C137.893 34.5252 137.675 34.6388 137.473 34.7021L139.168 37.5617L138.285 38.0848L134.137 31.0848ZM137.043 33.9788C137.243 33.9309 137.459 33.8173 137.71 33.6681C138.722 33.0706 139.034 32.16 138.454 31.1831C137.931 30.2995 137.07 30.1152 136.091 30.6937C135.754 30.8932 135.52 31.0744 135.393 31.1923L137.043 33.9788Z" fill="white"/>
<path d="M140.943 27.3608L144.27 34.8963L143.332 35.3114L140.004 27.7759L140.943 27.3608Z" fill="white"/>
<path d="M144.811 26.8475L142.701 27.5057L142.438 26.6657L147.643 25.0447L147.903 25.8853L145.791 26.5435L147.981 33.5675L147.003 33.8733L144.811 26.8475Z" fill="white"/>
<path d="M150.745 30.2455L150.396 32.8858L149.355 33.0492L150.575 24.5208L151.771 24.3329L155.538 32.0765L154.477 32.2436L153.309 29.8421L150.745 30.2455ZM152.998 29.0739L151.945 26.9272C151.703 26.4084 151.497 25.8846 151.306 25.3952L151.271 25.4008C151.245 25.9362 151.211 26.5115 151.145 27.0402L150.814 29.4178L152.998 29.0739Z" fill="white"/>
<path d="M156.517 23.8767L157.544 23.8933L157.424 31.2593L160.575 31.3096L160.561 32.1772L156.383 32.1091L156.517 23.8767Z" fill="white"/>
<path d="M170.647 30.5943C170.883 29.4927 171.163 28.1763 171.434 27.2245L171.398 27.2147C170.904 28.0559 170.342 28.9665 169.715 29.9232L167.397 33.3851L166.687 33.1935L166.503 29.1544C166.459 27.9644 166.451 26.8733 166.503 25.8871L166.466 25.8779C166.178 26.8499 165.788 28.0995 165.398 29.26L164.29 32.5936L163.359 32.3413L166.046 24.5356L167.26 24.8654L167.461 28.9843C167.496 30.0699 167.515 30.9861 167.482 31.8906L167.505 31.8973C167.932 31.1144 168.408 30.3438 169.004 29.4037L171.293 25.9584L172.522 26.2906L170.848 34.3719L169.881 34.1097L170.647 30.5943Z" fill="white"/>
<path d="M174.009 33.1757L172.159 35.0934L171.227 34.6095L177.266 28.4636L178.34 29.0199L176.777 37.4906L175.824 36.995L176.308 34.3676L174.009 33.1757ZM176.517 33.5693L176.941 31.2139C177.053 30.6527 177.197 30.1086 177.337 29.602L177.304 29.5842C176.963 30.0006 176.598 30.4433 176.23 30.8307L174.554 32.5488L176.517 33.5693Z" fill="white"/>
<path d="M177.41 37.94L182.524 31.4822L183.377 32.1576L182.651 36.7745C182.478 37.8381 182.259 38.8647 182.006 39.7551L182.032 39.7612C182.679 38.807 183.298 37.9873 184.117 36.9526L186.163 34.3663L186.912 34.9582L181.799 41.4154L181.003 40.7867L181.741 36.1329C181.91 35.113 182.103 34.0814 182.391 33.1075L182.354 33.0946C181.753 33.9739 181.139 34.7673 180.221 35.9272L178.157 38.5319L177.41 37.94Z" fill="white"/>
<path d="M185.51 41.6481L183.079 42.7405L182.395 41.9435L190.289 38.4883L191.08 39.4056L186.477 46.6875L185.775 45.8721L187.202 43.613L185.51 41.6481ZM187.692 42.9474L188.962 40.9192C189.275 40.4403 189.612 39.989 189.931 39.5702L189.907 39.5426C189.436 39.8011 188.932 40.0762 188.446 40.2997L186.253 41.2705L187.692 42.9474Z" fill="white"/>
<path d="M189.885 51.8724C189.515 51.5789 188.89 50.9679 188.422 50.1654C187.875 49.2265 187.649 48.2821 187.908 47.296C188.149 46.3762 188.884 45.4533 190.057 44.7686C192.385 43.4251 194.595 44.0594 195.791 46.1084C196.203 46.8146 196.37 47.4667 196.41 47.8265L195.546 48.0463C195.504 47.6331 195.381 47.1535 195.023 46.5413C194.16 45.0634 192.56 44.5531 190.65 45.6682C188.729 46.7894 188.353 48.3521 189.184 49.7767C189.481 50.2839 189.747 50.5682 189.93 50.6873L192.115 49.4119L191.37 48.1348L192.087 47.716L193.336 49.8596L189.885 51.8724Z" fill="white"/>
<path d="M195.018 55.4216L194.025 52.7531L191.209 53.8018L192.326 56.802L191.514 57.1047L190.039 53.1417L197.757 50.2705L199.173 54.0738L198.36 54.3759L197.303 51.536L194.83 52.4565L195.821 55.1251L195.018 55.4216Z" fill="white"/>
<path d="M196.413 63.649C197.513 63.4113 198.827 63.1277 199.808 62.984L199.803 62.9477C198.832 62.8415 197.77 62.7021 196.64 62.5241L192.532 61.8308L192.417 61.1063L196.024 59.2813C197.092 58.752 198.083 58.297 199.005 57.9391L198.998 57.9028C197.992 58.0385 196.693 58.1963 195.474 58.3161L191.981 58.6747L191.828 57.7217L200.052 56.967L200.251 58.2098L196.576 60.0827C195.601 60.5604 194.771 60.9521 193.938 61.2966L193.941 61.3206C194.831 61.3887 195.726 61.5066 196.831 61.6644L200.91 62.338L201.112 63.5931L193.056 65.3855L192.897 64.3963L196.413 63.649Z" fill="white"/>
<path d="M196.653 70.5464L196.758 67.7004L193.755 67.5892L193.633 70.7896L192.77 70.7577L192.927 66.5312L201.159 66.837L201.008 70.894L200.142 70.8614L200.253 67.8305L197.618 67.7341L197.511 70.5802L196.653 70.5464Z" fill="white"/>
<path d="M192.692 71.6904L200.747 73.4091L200.518 74.4726L196.058 75.8708C195.03 76.1889 194.015 76.4455 193.101 76.6131L193.109 76.6408C194.25 76.7967 195.262 76.9871 196.552 77.2622L199.777 77.9505L199.577 78.8826L191.523 77.1652L191.735 76.1735L196.233 74.771C197.22 74.4702 198.231 74.1853 199.231 74.0109L199.227 73.9728C198.172 73.8224 197.189 73.6253 195.744 73.317L192.492 72.6244L192.692 71.6904Z" fill="white"/>
<path d="M197.339 82.5214L198.17 80.4711L198.986 80.8027L196.938 85.8537L196.122 85.5228L196.953 83.4719L190.133 80.7075L190.52 79.7551L197.339 82.5214Z" fill="white"/>
<path d="M187.547 89.8665C188.294 88.8951 189.701 88.6814 190.724 89.471C191.764 90.2441 191.92 91.6859 191.155 92.6769C190.393 93.6655 188.97 93.8669 187.946 93.0773C186.936 92.3005 186.756 90.8925 187.532 89.8849L187.547 89.8665Z" fill="white"/>
<path d="M180.65 96.7589C181.624 96.0129 183.034 96.167 183.824 97.1937C184.629 98.2074 184.408 99.6418 183.415 100.403C182.424 101.163 180.998 100.991 180.211 99.963C179.438 98.9535 179.623 97.5474 180.633 96.7737L180.65 96.7589Z" fill="white"/>
<path d="M172.19 101.644C173.324 101.176 174.648 101.69 175.143 102.886C175.657 104.074 175.07 105.403 173.916 105.881C172.76 106.357 171.43 105.82 170.935 104.625C170.45 103.449 170.994 102.139 172.169 101.652L172.19 101.644Z" fill="white"/>
<path d="M162.767 104.156C163.984 103.999 165.128 104.842 165.292 106.125C165.481 107.407 164.57 108.537 163.33 108.696C162.09 108.857 160.944 107.993 160.778 106.709C160.613 105.447 161.482 104.323 162.743 104.16L162.767 104.156Z" fill="white"/>
<path d="M153.005 104.149C154.22 104.31 155.109 105.417 154.939 106.701C154.792 107.987 153.622 108.846 152.382 108.682C151.143 108.518 150.257 107.389 150.427 106.106C150.593 104.845 151.719 103.98 152.981 104.147L153.005 104.149Z" fill="white"/>
<path d="M143.573 101.616C144.706 102.088 145.278 103.39 144.778 104.585C144.302 105.788 142.947 106.311 141.793 105.831C140.64 105.351 140.079 104.029 140.576 102.834C141.066 101.659 142.38 101.119 143.553 101.608L143.573 101.616Z" fill="white"/>
<path d="M135.128 96.7179C136.099 97.467 136.312 98.8719 135.522 99.8961C134.749 100.934 133.305 101.089 132.316 100.326C131.325 99.5633 131.126 98.14 131.917 97.1152C132.695 96.1081 134.103 95.927 135.109 96.7038L135.128 96.7179Z" fill="white"/>
<path d="M128.229 89.802C128.976 90.7777 128.818 92.1888 127.791 92.9754C126.778 93.7798 125.343 93.5569 124.581 92.5646C123.824 91.5711 123.996 90.1471 125.025 89.3587C126.035 88.5856 127.442 88.7735 128.215 89.7836L128.229 89.802Z" fill="white"/>
<path d="M157.911 99.3061C175.697 99.3061 190.116 84.8877 190.116 67.1018C190.116 49.3158 175.697 34.8975 157.911 34.8975C140.125 34.8975 125.707 49.3158 125.707 67.1018C125.707 84.8877 140.125 99.3061 157.911 99.3061Z" stroke="white" stroke-miterlimit="10"/>
<path d="M157.913 113.491C183.533 113.491 204.302 92.7218 204.302 67.1018C204.302 41.4818 183.533 20.7126 157.913 20.7126C132.293 20.7126 111.523 41.4818 111.523 67.1018C111.523 92.7218 132.293 113.491 157.913 113.491Z" stroke="white" stroke-miterlimit="10"/>
</g>
<defs>
<radialGradient id="paint0_radial_1594_7478" cx="0" cy="0" r="1" gradientUnits="userSpaceOnUse" gradientTransform="translate(155.584 66.8136) rotate(-131.397) scale(140.633 212.191)">
<stop offset="0.116577" stop-color="#D29F3D"/>
<stop offset="0.46" stop-color="#D29F3D"/>
<stop offset="0.599" stop-color="#D29F3D" stop-opacity="0.84"/>
<stop offset="0.785183" stop-color="#E9BD68"/>
<stop offset="1" stop-color="#E9BD68"/>
</radialGradient>
<linearGradient id="paint1_linear_1594_7478" x1="4.53704" y1="14.3571" x2="316.897" y2="25.2202" gradientUnits="userSpaceOnUse">
<stop stop-color="#D1971D" stop-opacity="0.15"/>
<stop offset="0.480607" stop-color="#D1971D" stop-opacity="0.3"/>
<stop offset="1" stop-color="#D1971D" stop-opacity="0.15"/>
</linearGradient>
<clipPath id="clip0_1594_7478">
<rect width="94" height="94" fill="white" transform="translate(111 20)"/>
</clipPath>
</defs>
</svg>
