<svg width="151" height="133" viewBox="0 0 151 133" fill="none" xmlns="http://www.w3.org/2000/svg">
<line x1="76" y1="3" x2="76" y2="133" stroke="url(#paint0_linear_2435_54350)" stroke-width="2" stroke-linejoin="round"/>
<line x1="76" y1="3" x2="76" y2="133" stroke="url(#paint1_linear_2435_54350)" stroke-width="2" stroke-linejoin="round"/>
<circle cx="76" cy="130" r="3" transform="rotate(-180 76 130)" fill="#7EBB48"/>
<circle cx="76" cy="3" r="3" transform="rotate(-180 76 3)" fill="#7EBB48"/>
<g filter="url(#filter0_d_2435_54350)">
<mask id="path-4-outside-1_2435_54350" maskUnits="userSpaceOnUse" x="6" y="55" width="139" height="53" fill="black">
<rect fill="white" x="6" y="55" width="139" height="53"/>
<path fill-rule="evenodd" clip-rule="evenodd" d="M142 65C142 61.134 138.866 58 135 58H16C12.134 58 9 61.134 9 65V78C9 81.866 12.134 85 16 85H20C23.866 85 27 88.134 27 92V98C27 101.866 30.134 105 34 105H117C120.866 105 124 101.866 124 98V92C124 88.134 127.134 85 131 85H135C138.866 85 142 81.866 142 78V65Z"/>
</mask>
<path fill-rule="evenodd" clip-rule="evenodd" d="M142 65C142 61.134 138.866 58 135 58H16C12.134 58 9 61.134 9 65V78C9 81.866 12.134 85 16 85H20C23.866 85 27 88.134 27 92V98C27 101.866 30.134 105 34 105H117C120.866 105 124 101.866 124 98V92C124 88.134 127.134 85 131 85H135C138.866 85 142 81.866 142 78V65Z" fill="#7EBB48"/>
<path d="M16 61H135V55H16V61ZM12 78V65H6V78H12ZM20 82H16V88H20V82ZM30 98V92H24V98H30ZM117 102H34V108H117V102ZM121 92V98H127V92H121ZM135 82H131V88H135V82ZM139 65V78H145V65H139ZM135 88C140.523 88 145 83.5228 145 78H139C139 80.2091 137.209 82 135 82V88ZM127 92C127 89.7909 128.791 88 131 88V82C125.477 82 121 86.4772 121 92H127ZM117 108C122.523 108 127 103.523 127 98H121C121 100.209 119.209 102 117 102V108ZM24 98C24 103.523 28.4772 108 34 108V102C31.7909 102 30 100.209 30 98H24ZM20 88C22.2091 88 24 89.7909 24 92H30C30 86.4772 25.5228 82 20 82V88ZM6 78C6 83.5228 10.4772 88 16 88V82C13.7909 82 12 80.2091 12 78H6ZM135 61C137.209 61 139 62.7909 139 65H145C145 59.4772 140.523 55 135 55V61ZM16 55C10.4772 55 6 59.4772 6 65H12C12 62.7909 13.7909 61 16 61V55Z" fill="white" mask="url(#path-4-outside-1_2435_54350)"/>
</g>
<path d="M24.5625 75.7734V77H18.5391V75.7734H24.5625ZM18.8438 65.625V77H17.3359V65.625H18.8438ZM23.7656 70.5156V71.7422H18.5391V70.5156H23.7656ZM24.4844 65.625V66.8594H18.5391V65.625H24.4844ZM27.6484 70.2266V77H26.1953V68.5469H27.5703L27.6484 70.2266ZM27.3516 72.4531L26.6797 72.4297C26.6849 71.8516 26.7604 71.3177 26.9062 70.8281C27.0521 70.3333 27.2682 69.9036 27.5547 69.5391C27.8411 69.1745 28.1979 68.8932 28.625 68.6953C29.0521 68.4922 29.5469 68.3906 30.1094 68.3906C30.5052 68.3906 30.8698 68.4479 31.2031 68.5625C31.5365 68.6719 31.8255 68.8464 32.0703 69.0859C32.3151 69.3255 32.5052 69.6328 32.6406 70.0078C32.776 70.3828 32.8438 70.8359 32.8438 71.3672V77H31.3984V71.4375C31.3984 70.9948 31.3229 70.6406 31.1719 70.375C31.026 70.1094 30.8177 69.9167 30.5469 69.7969C30.276 69.6719 29.9583 69.6094 29.5938 69.6094C29.1667 69.6094 28.8099 69.6849 28.5234 69.8359C28.237 69.987 28.0078 70.1953 27.8359 70.4609C27.6641 70.7266 27.5391 71.0312 27.4609 71.375C27.388 71.7135 27.3516 72.0729 27.3516 72.4531ZM32.8281 71.6562L31.8594 71.9531C31.8646 71.4896 31.9401 71.0443 32.0859 70.6172C32.237 70.1901 32.4531 69.8099 32.7344 69.4766C33.0208 69.1432 33.3724 68.8802 33.7891 68.6875C34.2057 68.4896 34.6823 68.3906 35.2188 68.3906C35.6719 68.3906 36.0729 68.4505 36.4219 68.5703C36.776 68.6901 37.0729 68.875 37.3125 69.125C37.5573 69.3698 37.7422 69.6849 37.8672 70.0703C37.9922 70.4557 38.0547 70.9141 38.0547 71.4453V77H36.6016V71.4297C36.6016 70.9557 36.526 70.5885 36.375 70.3281C36.2292 70.0625 36.0208 69.8776 35.75 69.7734C35.4844 69.6641 35.1667 69.6094 34.7969 69.6094C34.4792 69.6094 34.1979 69.6641 33.9531 69.7734C33.7083 69.8828 33.5026 70.0339 33.3359 70.2266C33.1693 70.4141 33.0417 70.6302 32.9531 70.875C32.8698 71.1198 32.8281 71.3802 32.8281 71.6562ZM41.6875 70.1719V80.25H40.2344V68.5469H41.5625L41.6875 70.1719ZM47.3828 72.7031V72.8672C47.3828 73.4818 47.3099 74.0521 47.1641 74.5781C47.0182 75.099 46.8047 75.5521 46.5234 75.9375C46.2474 76.3229 45.9062 76.6224 45.5 76.8359C45.0938 77.0495 44.6276 77.1562 44.1016 77.1562C43.5651 77.1562 43.0911 77.0677 42.6797 76.8906C42.2682 76.7135 41.9193 76.4557 41.6328 76.1172C41.3464 75.7786 41.1172 75.3724 40.9453 74.8984C40.7786 74.4245 40.6641 73.8906 40.6016 73.2969V72.4219C40.6641 71.7969 40.7812 71.237 40.9531 70.7422C41.125 70.2474 41.3516 69.8255 41.6328 69.4766C41.9193 69.1224 42.2656 68.8542 42.6719 68.6719C43.0781 68.4844 43.5469 68.3906 44.0781 68.3906C44.6094 68.3906 45.0807 68.4948 45.4922 68.7031C45.9036 68.9062 46.25 69.1979 46.5312 69.5781C46.8125 69.9583 47.0234 70.4141 47.1641 70.9453C47.3099 71.4714 47.3828 72.0573 47.3828 72.7031ZM45.9297 72.8672V72.7031C45.9297 72.2812 45.8854 71.8854 45.7969 71.5156C45.7083 71.1406 45.5703 70.8125 45.3828 70.5312C45.2005 70.2448 44.9661 70.0208 44.6797 69.8594C44.3932 69.6927 44.0521 69.6094 43.6562 69.6094C43.2917 69.6094 42.974 69.6719 42.7031 69.7969C42.4375 69.9219 42.2109 70.0911 42.0234 70.3047C41.8359 70.513 41.6823 70.7526 41.5625 71.0234C41.4479 71.2891 41.362 71.5651 41.3047 71.8516V73.875C41.4089 74.2396 41.5547 74.5833 41.7422 74.9062C41.9297 75.224 42.1797 75.4818 42.4922 75.6797C42.8047 75.8724 43.1979 75.9688 43.6719 75.9688C44.0625 75.9688 44.3984 75.888 44.6797 75.7266C44.9661 75.5599 45.2005 75.3333 45.3828 75.0469C45.5703 74.7604 45.7083 74.4323 45.7969 74.0625C45.8854 73.6875 45.9297 73.2891 45.9297 72.8672ZM50.7969 65V77H49.3438V65H50.7969ZM52.7344 72.8672V72.6875C52.7344 72.0781 52.8229 71.513 53 70.9922C53.1771 70.4661 53.4323 70.0104 53.7656 69.625C54.099 69.2344 54.5026 68.9323 54.9766 68.7188C55.4505 68.5 55.9818 68.3906 56.5703 68.3906C57.1641 68.3906 57.6979 68.5 58.1719 68.7188C58.651 68.9323 59.0573 69.2344 59.3906 69.625C59.7292 70.0104 59.987 70.4661 60.1641 70.9922C60.3411 71.513 60.4297 72.0781 60.4297 72.6875V72.8672C60.4297 73.4766 60.3411 74.0417 60.1641 74.5625C59.987 75.0833 59.7292 75.5391 59.3906 75.9297C59.0573 76.3151 58.6536 76.6172 58.1797 76.8359C57.7109 77.0495 57.1797 77.1562 56.5859 77.1562C55.9922 77.1562 55.4583 77.0495 54.9844 76.8359C54.5104 76.6172 54.1042 76.3151 53.7656 75.9297C53.4323 75.5391 53.1771 75.0833 53 74.5625C52.8229 74.0417 52.7344 73.4766 52.7344 72.8672ZM54.1797 72.6875V72.8672C54.1797 73.2891 54.2292 73.6875 54.3281 74.0625C54.4271 74.4323 54.5755 74.7604 54.7734 75.0469C54.9766 75.3333 55.2292 75.5599 55.5312 75.7266C55.8333 75.888 56.1849 75.9688 56.5859 75.9688C56.9818 75.9688 57.3281 75.888 57.625 75.7266C57.9271 75.5599 58.1771 75.3333 58.375 75.0469C58.5729 74.7604 58.7214 74.4323 58.8203 74.0625C58.9245 73.6875 58.9766 73.2891 58.9766 72.8672V72.6875C58.9766 72.2708 58.9245 71.8776 58.8203 71.5078C58.7214 71.1328 58.5703 70.8021 58.3672 70.5156C58.1693 70.224 57.9193 69.9948 57.6172 69.8281C57.3203 69.6615 56.9714 69.5781 56.5703 69.5781C56.1745 69.5781 55.8255 69.6615 55.5234 69.8281C55.2266 69.9948 54.9766 70.224 54.7734 70.5156C54.5755 70.8021 54.4271 71.1328 54.3281 71.5078C54.2292 71.8776 54.1797 72.2708 54.1797 72.6875ZM64.4922 76.125L66.8438 68.5469H68.3906L65 78.3047C64.9219 78.513 64.8177 78.737 64.6875 78.9766C64.5625 79.2214 64.401 79.4531 64.2031 79.6719C64.0052 79.8906 63.7656 80.0677 63.4844 80.2031C63.2083 80.3438 62.8776 80.4141 62.4922 80.4141C62.3776 80.4141 62.2318 80.3984 62.0547 80.3672C61.8776 80.3359 61.7526 80.3099 61.6797 80.2891L61.6719 79.1172C61.7135 79.1224 61.7786 79.1276 61.8672 79.1328C61.9609 79.1432 62.026 79.1484 62.0625 79.1484C62.3906 79.1484 62.6693 79.1042 62.8984 79.0156C63.1276 78.9323 63.3203 78.7891 63.4766 78.5859C63.638 78.388 63.776 78.1146 63.8906 77.7656L64.4922 76.125ZM62.7656 68.5469L64.9609 75.1094L65.3359 76.6328L64.2969 77.1641L61.1875 68.5469H62.7656ZM73.0938 77.1562C72.5052 77.1562 71.9714 77.0573 71.4922 76.8594C71.0182 76.6562 70.6094 76.3724 70.2656 76.0078C69.9271 75.6432 69.6667 75.2109 69.4844 74.7109C69.3021 74.2109 69.2109 73.6641 69.2109 73.0703V72.7422C69.2109 72.0547 69.3125 71.4427 69.5156 70.9062C69.7188 70.3646 69.9948 69.9062 70.3438 69.5312C70.6927 69.1562 71.0885 68.8724 71.5312 68.6797C71.974 68.487 72.4323 68.3906 72.9062 68.3906C73.5104 68.3906 74.0312 68.4948 74.4688 68.7031C74.9115 68.9115 75.2734 69.2031 75.5547 69.5781C75.8359 69.9479 76.0443 70.3854 76.1797 70.8906C76.3151 71.3906 76.3828 71.9375 76.3828 72.5312V73.1797H70.0703V72H74.9375V71.8906C74.9167 71.5156 74.8385 71.151 74.7031 70.7969C74.5729 70.4427 74.3646 70.151 74.0781 69.9219C73.7917 69.6927 73.401 69.5781 72.9062 69.5781C72.5781 69.5781 72.276 69.6484 72 69.7891C71.724 69.9245 71.487 70.1276 71.2891 70.3984C71.0911 70.6693 70.9375 71 70.8281 71.3906C70.7188 71.7812 70.6641 72.2318 70.6641 72.7422V73.0703C70.6641 73.4714 70.7188 73.849 70.8281 74.2031C70.9427 74.5521 71.1068 74.8594 71.3203 75.125C71.5391 75.3906 71.8021 75.599 72.1094 75.75C72.4219 75.901 72.776 75.9766 73.1719 75.9766C73.6823 75.9766 74.1146 75.8724 74.4688 75.6641C74.8229 75.4557 75.1328 75.1771 75.3984 74.8281L76.2734 75.5234C76.0911 75.7995 75.8594 76.0625 75.5781 76.3125C75.2969 76.5625 74.9505 76.7656 74.5391 76.9219C74.1328 77.0781 73.651 77.1562 73.0938 77.1562ZM81.5781 77.1562C80.9896 77.1562 80.4557 77.0573 79.9766 76.8594C79.5026 76.6562 79.0938 76.3724 78.75 76.0078C78.4115 75.6432 78.151 75.2109 77.9688 74.7109C77.7865 74.2109 77.6953 73.6641 77.6953 73.0703V72.7422C77.6953 72.0547 77.7969 71.4427 78 70.9062C78.2031 70.3646 78.4792 69.9062 78.8281 69.5312C79.1771 69.1562 79.5729 68.8724 80.0156 68.6797C80.4583 68.487 80.9167 68.3906 81.3906 68.3906C81.9948 68.3906 82.5156 68.4948 82.9531 68.7031C83.3958 68.9115 83.7578 69.2031 84.0391 69.5781C84.3203 69.9479 84.5286 70.3854 84.6641 70.8906C84.7995 71.3906 84.8672 71.9375 84.8672 72.5312V73.1797H78.5547V72H83.4219V71.8906C83.401 71.5156 83.3229 71.151 83.1875 70.7969C83.0573 70.4427 82.849 70.151 82.5625 69.9219C82.276 69.6927 81.8854 69.5781 81.3906 69.5781C81.0625 69.5781 80.7604 69.6484 80.4844 69.7891C80.2083 69.9245 79.9714 70.1276 79.7734 70.3984C79.5755 70.6693 79.4219 71 79.3125 71.3906C79.2031 71.7812 79.1484 72.2318 79.1484 72.7422V73.0703C79.1484 73.4714 79.2031 73.849 79.3125 74.2031C79.4271 74.5521 79.5911 74.8594 79.8047 75.125C80.0234 75.3906 80.2865 75.599 80.5938 75.75C80.9062 75.901 81.2604 75.9766 81.6562 75.9766C82.1667 75.9766 82.599 75.8724 82.9531 75.6641C83.3073 75.4557 83.6172 75.1771 83.8828 74.8281L84.7578 75.5234C84.5755 75.7995 84.3438 76.0625 84.0625 76.3125C83.7812 76.5625 83.4349 76.7656 83.0234 76.9219C82.6172 77.0781 82.1354 77.1562 81.5781 77.1562ZM94.0625 68.5469V69.6562H89.4922V68.5469H94.0625ZM91.0391 66.4922H92.4844V74.9062C92.4844 75.1927 92.5286 75.4089 92.6172 75.5547C92.7057 75.7005 92.8203 75.7969 92.9609 75.8438C93.1016 75.8906 93.2526 75.9141 93.4141 75.9141C93.5339 75.9141 93.6589 75.9036 93.7891 75.8828C93.9245 75.8568 94.026 75.8359 94.0938 75.8203L94.1016 77C93.987 77.0365 93.8359 77.0703 93.6484 77.1016C93.4661 77.138 93.2448 77.1562 92.9844 77.1562C92.6302 77.1562 92.3047 77.0859 92.0078 76.9453C91.7109 76.8047 91.474 76.5703 91.2969 76.2422C91.125 75.9089 91.0391 75.4609 91.0391 74.8984V66.4922ZM97.3281 68.5469V77H95.875V68.5469H97.3281ZM95.7656 66.3047C95.7656 66.0703 95.8359 65.8724 95.9766 65.7109C96.1224 65.5495 96.3359 65.4688 96.6172 65.4688C96.8932 65.4688 97.1042 65.5495 97.25 65.7109C97.401 65.8724 97.4766 66.0703 97.4766 66.3047C97.4766 66.5286 97.401 66.7214 97.25 66.8828C97.1042 67.0391 96.8932 67.1172 96.6172 67.1172C96.3359 67.1172 96.1224 67.0391 95.9766 66.8828C95.8359 66.7214 95.7656 66.5286 95.7656 66.3047ZM101.086 70.2266V77H99.6328V68.5469H101.008L101.086 70.2266ZM100.789 72.4531L100.117 72.4297C100.122 71.8516 100.198 71.3177 100.344 70.8281C100.49 70.3333 100.706 69.9036 100.992 69.5391C101.279 69.1745 101.635 68.8932 102.062 68.6953C102.49 68.4922 102.984 68.3906 103.547 68.3906C103.943 68.3906 104.307 68.4479 104.641 68.5625C104.974 68.6719 105.263 68.8464 105.508 69.0859C105.753 69.3255 105.943 69.6328 106.078 70.0078C106.214 70.3828 106.281 70.8359 106.281 71.3672V77H104.836V71.4375C104.836 70.9948 104.76 70.6406 104.609 70.375C104.464 70.1094 104.255 69.9167 103.984 69.7969C103.714 69.6719 103.396 69.6094 103.031 69.6094C102.604 69.6094 102.247 69.6849 101.961 69.8359C101.674 69.987 101.445 70.1953 101.273 70.4609C101.102 70.7266 100.977 71.0312 100.898 71.375C100.826 71.7135 100.789 72.0729 100.789 72.4531ZM106.266 71.6562L105.297 71.9531C105.302 71.4896 105.378 71.0443 105.523 70.6172C105.674 70.1901 105.891 69.8099 106.172 69.4766C106.458 69.1432 106.81 68.8802 107.227 68.6875C107.643 68.4896 108.12 68.3906 108.656 68.3906C109.109 68.3906 109.51 68.4505 109.859 68.5703C110.214 68.6901 110.51 68.875 110.75 69.125C110.995 69.3698 111.18 69.6849 111.305 70.0703C111.43 70.4557 111.492 70.9141 111.492 71.4453V77H110.039V71.4297C110.039 70.9557 109.964 70.5885 109.812 70.3281C109.667 70.0625 109.458 69.8776 109.188 69.7734C108.922 69.6641 108.604 69.6094 108.234 69.6094C107.917 69.6094 107.635 69.6641 107.391 69.7734C107.146 69.8828 106.94 70.0339 106.773 70.2266C106.607 70.4141 106.479 70.6302 106.391 70.875C106.307 71.1198 106.266 71.3802 106.266 71.6562ZM117.188 77.1562C116.599 77.1562 116.065 77.0573 115.586 76.8594C115.112 76.6562 114.703 76.3724 114.359 76.0078C114.021 75.6432 113.76 75.2109 113.578 74.7109C113.396 74.2109 113.305 73.6641 113.305 73.0703V72.7422C113.305 72.0547 113.406 71.4427 113.609 70.9062C113.812 70.3646 114.089 69.9062 114.438 69.5312C114.786 69.1562 115.182 68.8724 115.625 68.6797C116.068 68.487 116.526 68.3906 117 68.3906C117.604 68.3906 118.125 68.4948 118.562 68.7031C119.005 68.9115 119.367 69.2031 119.648 69.5781C119.93 69.9479 120.138 70.3854 120.273 70.8906C120.409 71.3906 120.477 71.9375 120.477 72.5312V73.1797H114.164V72H119.031V71.8906C119.01 71.5156 118.932 71.151 118.797 70.7969C118.667 70.4427 118.458 70.151 118.172 69.9219C117.885 69.6927 117.495 69.5781 117 69.5781C116.672 69.5781 116.37 69.6484 116.094 69.7891C115.818 69.9245 115.581 70.1276 115.383 70.3984C115.185 70.6693 115.031 71 114.922 71.3906C114.812 71.7812 114.758 72.2318 114.758 72.7422V73.0703C114.758 73.4714 114.812 73.849 114.922 74.2031C115.036 74.5521 115.201 74.8594 115.414 75.125C115.633 75.3906 115.896 75.599 116.203 75.75C116.516 75.901 116.87 75.9766 117.266 75.9766C117.776 75.9766 118.208 75.8724 118.562 75.6641C118.917 75.4557 119.227 75.1771 119.492 74.8281L120.367 75.5234C120.185 75.7995 119.953 76.0625 119.672 76.3125C119.391 76.5625 119.044 76.7656 118.633 76.9219C118.227 77.0781 117.745 77.1562 117.188 77.1562ZM128.234 70.6875L129.938 69.4766C130.266 69.2526 130.518 69.0286 130.695 68.8047C130.878 68.5755 130.969 68.263 130.969 67.8672C130.969 67.5599 130.849 67.2812 130.609 67.0312C130.37 66.776 130.031 66.6484 129.594 66.6484C129.292 66.6484 129.036 66.7188 128.828 66.8594C128.62 67 128.464 67.1875 128.359 67.4219C128.255 67.651 128.203 67.9036 128.203 68.1797C128.203 68.4141 128.26 68.6562 128.375 68.9062C128.49 69.1562 128.648 69.4167 128.852 69.6875C129.055 69.9583 129.286 70.2448 129.547 70.5469L134.93 77H133.195L128.781 71.7188C128.391 71.2604 128.042 70.8411 127.734 70.4609C127.427 70.0755 127.185 69.7031 127.008 69.3438C126.836 68.9844 126.75 68.612 126.75 68.2266C126.75 67.6328 126.867 67.1328 127.102 66.7266C127.341 66.3151 127.674 66.0026 128.102 65.7891C128.529 65.5755 129.029 65.4688 129.602 65.4688C130.159 65.4688 130.638 65.5807 131.039 65.8047C131.445 66.0234 131.758 66.3151 131.977 66.6797C132.195 67.0391 132.305 67.4349 132.305 67.8672C132.305 68.2318 132.24 68.5599 132.109 68.8516C131.979 69.138 131.797 69.401 131.562 69.6406C131.333 69.8802 131.065 70.1146 130.758 70.3438L128.5 72.0234C128.125 72.2995 127.852 72.5625 127.68 72.8125C127.508 73.0625 127.396 73.2839 127.344 73.4766C127.297 73.6693 127.273 73.8229 127.273 73.9375C127.273 74.3073 127.354 74.6458 127.516 74.9531C127.677 75.2604 127.922 75.5078 128.25 75.6953C128.583 75.8776 129 75.9688 129.5 75.9688C129.938 75.9688 130.362 75.8698 130.773 75.6719C131.19 75.4688 131.562 75.1823 131.891 74.8125C132.219 74.4375 132.479 73.9922 132.672 73.4766C132.87 72.9557 132.969 72.3802 132.969 71.75H134.266C134.266 72.2656 134.216 72.7526 134.117 73.2109C134.018 73.6693 133.865 74.0964 133.656 74.4922C133.453 74.8828 133.193 75.2396 132.875 75.5625C132.828 75.6094 132.792 75.6641 132.766 75.7266C132.74 75.7891 132.703 75.8438 132.656 75.8906C132.266 76.3125 131.784 76.6302 131.211 76.8438C130.643 77.0521 130.073 77.1562 129.5 77.1562C128.745 77.1562 128.091 77.0182 127.539 76.7422C126.992 76.4661 126.57 76.0859 126.273 75.6016C125.977 75.1172 125.828 74.5625 125.828 73.9375C125.828 73.4583 125.93 73.0365 126.133 72.6719C126.341 72.3073 126.625 71.9661 126.984 71.6484C127.349 71.3307 127.766 71.0104 128.234 70.6875ZM44.7344 94.7734V96H39.0469V94.7734H44.7344ZM39.3438 84.625V96H37.8359V84.625H39.3438ZM51.2266 94.5547V90.2031C51.2266 89.8698 51.1589 89.5807 51.0234 89.3359C50.8932 89.0859 50.6953 88.8932 50.4297 88.7578C50.1641 88.6224 49.8359 88.5547 49.4453 88.5547C49.0807 88.5547 48.7604 88.6172 48.4844 88.7422C48.2135 88.8672 48 89.0312 47.8438 89.2344C47.6927 89.4375 47.6172 89.6562 47.6172 89.8906H46.1719C46.1719 89.5885 46.25 89.2891 46.4062 88.9922C46.5625 88.6953 46.7865 88.4271 47.0781 88.1875C47.375 87.9427 47.7292 87.75 48.1406 87.6094C48.5573 87.4635 49.0208 87.3906 49.5312 87.3906C50.1458 87.3906 50.6875 87.4948 51.1562 87.7031C51.6302 87.9115 52 88.2266 52.2656 88.6484C52.5365 89.0651 52.6719 89.5885 52.6719 90.2188V94.1562C52.6719 94.4375 52.6953 94.737 52.7422 95.0547C52.7943 95.3724 52.8698 95.6458 52.9688 95.875V96H51.4609C51.388 95.8333 51.3307 95.612 51.2891 95.3359C51.2474 95.0547 51.2266 94.7943 51.2266 94.5547ZM51.4766 90.875L51.4922 91.8906H50.0312C49.6198 91.8906 49.2526 91.9245 48.9297 91.9922C48.6068 92.0547 48.3359 92.151 48.1172 92.2812C47.8984 92.4115 47.7318 92.5755 47.6172 92.7734C47.5026 92.9661 47.4453 93.1927 47.4453 93.4531C47.4453 93.7188 47.5052 93.9609 47.625 94.1797C47.7448 94.3984 47.9245 94.5729 48.1641 94.7031C48.4089 94.8281 48.7083 94.8906 49.0625 94.8906C49.5052 94.8906 49.8958 94.7969 50.2344 94.6094C50.5729 94.4219 50.8411 94.1927 51.0391 93.9219C51.2422 93.651 51.3516 93.388 51.3672 93.1328L51.9844 93.8281C51.9479 94.0469 51.849 94.2891 51.6875 94.5547C51.526 94.8203 51.3099 95.0755 51.0391 95.3203C50.7734 95.5599 50.4557 95.7604 50.0859 95.9219C49.7214 96.0781 49.3099 96.1562 48.8516 96.1562C48.2786 96.1562 47.776 96.0443 47.3438 95.8203C46.9167 95.5964 46.5833 95.2969 46.3438 94.9219C46.1094 94.5417 45.9922 94.1172 45.9922 93.6484C45.9922 93.1953 46.0807 92.7969 46.2578 92.4531C46.4349 92.1042 46.6901 91.8151 47.0234 91.5859C47.3568 91.3516 47.7578 91.1745 48.2266 91.0547C48.6953 90.9349 49.2188 90.875 49.7969 90.875H51.4766ZM54.9375 84H56.3906V94.3594L56.2656 96H54.9375V84ZM62.1016 91.7031V91.8672C62.1016 92.4818 62.0286 93.0521 61.8828 93.5781C61.737 94.099 61.5234 94.5521 61.2422 94.9375C60.9609 95.3229 60.6172 95.6224 60.2109 95.8359C59.8047 96.0495 59.3385 96.1562 58.8125 96.1562C58.276 96.1562 57.8047 96.0651 57.3984 95.8828C56.9974 95.6953 56.6589 95.4271 56.3828 95.0781C56.1068 94.7292 55.8854 94.3073 55.7188 93.8125C55.5573 93.3177 55.4453 92.7604 55.3828 92.1406V91.4219C55.4453 90.7969 55.5573 90.237 55.7188 89.7422C55.8854 89.2474 56.1068 88.8255 56.3828 88.4766C56.6589 88.1224 56.9974 87.8542 57.3984 87.6719C57.7995 87.4844 58.2656 87.3906 58.7969 87.3906C59.3281 87.3906 59.7995 87.4948 60.2109 87.7031C60.6224 87.9062 60.9661 88.1979 61.2422 88.5781C61.5234 88.9583 61.737 89.4141 61.8828 89.9453C62.0286 90.4714 62.1016 91.0573 62.1016 91.7031ZM60.6484 91.8672V91.7031C60.6484 91.2812 60.6094 90.8854 60.5312 90.5156C60.4531 90.1406 60.3281 89.8125 60.1562 89.5312C59.9844 89.2448 59.7578 89.0208 59.4766 88.8594C59.1953 88.6927 58.849 88.6094 58.4375 88.6094C58.0729 88.6094 57.7552 88.6719 57.4844 88.7969C57.2188 88.9219 56.9922 89.0911 56.8047 89.3047C56.6172 89.513 56.4635 89.7526 56.3438 90.0234C56.2292 90.2891 56.1432 90.5651 56.0859 90.8516V92.7344C56.1693 93.099 56.3047 93.4505 56.4922 93.7891C56.6849 94.1224 56.9401 94.3958 57.2578 94.6094C57.5807 94.8229 57.9792 94.9297 58.4531 94.9297C58.8438 94.9297 59.1771 94.8516 59.4531 94.6953C59.7344 94.5339 59.9609 94.3125 60.1328 94.0312C60.3099 93.75 60.4401 93.4245 60.5234 93.0547C60.6068 92.6849 60.6484 92.2891 60.6484 91.8672ZM63.5469 91.8672V91.6875C63.5469 91.0781 63.6354 90.513 63.8125 89.9922C63.9896 89.4661 64.2448 89.0104 64.5781 88.625C64.9115 88.2344 65.3151 87.9323 65.7891 87.7188C66.263 87.5 66.7943 87.3906 67.3828 87.3906C67.9766 87.3906 68.5104 87.5 68.9844 87.7188C69.4635 87.9323 69.8698 88.2344 70.2031 88.625C70.5417 89.0104 70.7995 89.4661 70.9766 89.9922C71.1536 90.513 71.2422 91.0781 71.2422 91.6875V91.8672C71.2422 92.4766 71.1536 93.0417 70.9766 93.5625C70.7995 94.0833 70.5417 94.5391 70.2031 94.9297C69.8698 95.3151 69.4661 95.6172 68.9922 95.8359C68.5234 96.0495 67.9922 96.1562 67.3984 96.1562C66.8047 96.1562 66.2708 96.0495 65.7969 95.8359C65.3229 95.6172 64.9167 95.3151 64.5781 94.9297C64.2448 94.5391 63.9896 94.0833 63.8125 93.5625C63.6354 93.0417 63.5469 92.4766 63.5469 91.8672ZM64.9922 91.6875V91.8672C64.9922 92.2891 65.0417 92.6875 65.1406 93.0625C65.2396 93.4323 65.388 93.7604 65.5859 94.0469C65.7891 94.3333 66.0417 94.5599 66.3438 94.7266C66.6458 94.888 66.9974 94.9688 67.3984 94.9688C67.7943 94.9688 68.1406 94.888 68.4375 94.7266C68.7396 94.5599 68.9896 94.3333 69.1875 94.0469C69.3854 93.7604 69.5339 93.4323 69.6328 93.0625C69.737 92.6875 69.7891 92.2891 69.7891 91.8672V91.6875C69.7891 91.2708 69.737 90.8776 69.6328 90.5078C69.5339 90.1328 69.3828 89.8021 69.1797 89.5156C68.9818 89.224 68.7318 88.9948 68.4297 88.8281C68.1328 88.6615 67.7839 88.5781 67.3828 88.5781C66.987 88.5781 66.638 88.6615 66.3359 88.8281C66.0391 88.9948 65.7891 89.224 65.5859 89.5156C65.388 89.8021 65.2396 90.1328 65.1406 90.5078C65.0417 90.8776 64.9922 91.2708 64.9922 91.6875ZM74.5 88.875V96H73.0547V87.5469H74.4609L74.5 88.875ZM77.1406 87.5L77.1328 88.8438C77.013 88.8177 76.8984 88.8021 76.7891 88.7969C76.6849 88.7865 76.5651 88.7812 76.4297 88.7812C76.0964 88.7812 75.8021 88.8333 75.5469 88.9375C75.2917 89.0417 75.0755 89.1875 74.8984 89.375C74.7214 89.5625 74.5807 89.7865 74.4766 90.0469C74.3776 90.3021 74.3125 90.5833 74.2812 90.8906L73.875 91.125C73.875 90.6146 73.9245 90.1354 74.0234 89.6875C74.1276 89.2396 74.2865 88.8438 74.5 88.5C74.7135 88.151 74.9844 87.8802 75.3125 87.6875C75.6458 87.4896 76.0417 87.3906 76.5 87.3906C76.6042 87.3906 76.724 87.4036 76.8594 87.4297C76.9948 87.4505 77.0885 87.474 77.1406 87.5ZM85.7422 96H83.3672L83.3828 94.7734H85.7422C86.5547 94.7734 87.2318 94.6042 87.7734 94.2656C88.3151 93.9219 88.7214 93.4427 88.9922 92.8281C89.2682 92.2083 89.4062 91.4844 89.4062 90.6562V89.9609C89.4062 89.3099 89.3281 88.7318 89.1719 88.2266C89.0156 87.7161 88.7865 87.2865 88.4844 86.9375C88.1823 86.5833 87.8125 86.3151 87.375 86.1328C86.9427 85.9505 86.4453 85.8594 85.8828 85.8594H83.3203V84.625H85.8828C86.6276 84.625 87.3073 84.75 87.9219 85C88.5365 85.2448 89.0651 85.6016 89.5078 86.0703C89.9557 86.5339 90.2995 87.0964 90.5391 87.7578C90.7786 88.4141 90.8984 89.1536 90.8984 89.9766V90.6562C90.8984 91.4792 90.7786 92.2214 90.5391 92.8828C90.2995 93.5391 89.9531 94.099 89.5 94.5625C89.0521 95.026 88.5104 95.3828 87.875 95.6328C87.2448 95.8776 86.5339 96 85.7422 96ZM84.1719 84.625V96H82.6641V84.625H84.1719ZM97.9297 94.5547V90.2031C97.9297 89.8698 97.862 89.5807 97.7266 89.3359C97.5964 89.0859 97.3984 88.8932 97.1328 88.7578C96.8672 88.6224 96.5391 88.5547 96.1484 88.5547C95.7839 88.5547 95.4635 88.6172 95.1875 88.7422C94.9167 88.8672 94.7031 89.0312 94.5469 89.2344C94.3958 89.4375 94.3203 89.6562 94.3203 89.8906H92.875C92.875 89.5885 92.9531 89.2891 93.1094 88.9922C93.2656 88.6953 93.4896 88.4271 93.7812 88.1875C94.0781 87.9427 94.4323 87.75 94.8438 87.6094C95.2604 87.4635 95.724 87.3906 96.2344 87.3906C96.849 87.3906 97.3906 87.4948 97.8594 87.7031C98.3333 87.9115 98.7031 88.2266 98.9688 88.6484C99.2396 89.0651 99.375 89.5885 99.375 90.2188V94.1562C99.375 94.4375 99.3984 94.737 99.4453 95.0547C99.4974 95.3724 99.5729 95.6458 99.6719 95.875V96H98.1641C98.0911 95.8333 98.0339 95.612 97.9922 95.3359C97.9505 95.0547 97.9297 94.7943 97.9297 94.5547ZM98.1797 90.875L98.1953 91.8906H96.7344C96.3229 91.8906 95.9557 91.9245 95.6328 91.9922C95.3099 92.0547 95.0391 92.151 94.8203 92.2812C94.6016 92.4115 94.4349 92.5755 94.3203 92.7734C94.2057 92.9661 94.1484 93.1927 94.1484 93.4531C94.1484 93.7188 94.2083 93.9609 94.3281 94.1797C94.4479 94.3984 94.6276 94.5729 94.8672 94.7031C95.112 94.8281 95.4115 94.8906 95.7656 94.8906C96.2083 94.8906 96.599 94.7969 96.9375 94.6094C97.276 94.4219 97.5443 94.1927 97.7422 93.9219C97.9453 93.651 98.0547 93.388 98.0703 93.1328L98.6875 93.8281C98.651 94.0469 98.5521 94.2891 98.3906 94.5547C98.2292 94.8203 98.013 95.0755 97.7422 95.3203C97.4766 95.5599 97.1589 95.7604 96.7891 95.9219C96.4245 96.0781 96.013 96.1562 95.5547 96.1562C94.9818 96.1562 94.4792 96.0443 94.0469 95.8203C93.6198 95.5964 93.2865 95.2969 93.0469 94.9219C92.8125 94.5417 92.6953 94.1172 92.6953 93.6484C92.6953 93.1953 92.7839 92.7969 92.9609 92.4531C93.138 92.1042 93.3932 91.8151 93.7266 91.5859C94.0599 91.3516 94.4609 91.1745 94.9297 91.0547C95.3984 90.9349 95.9219 90.875 96.5 90.875H98.1797ZM105.188 87.5469V88.6562H100.617V87.5469H105.188ZM102.164 85.4922H103.609V93.9062C103.609 94.1927 103.654 94.4089 103.742 94.5547C103.831 94.7005 103.945 94.7969 104.086 94.8438C104.227 94.8906 104.378 94.9141 104.539 94.9141C104.659 94.9141 104.784 94.9036 104.914 94.8828C105.049 94.8568 105.151 94.8359 105.219 94.8203L105.227 96C105.112 96.0365 104.961 96.0703 104.773 96.1016C104.591 96.138 104.37 96.1562 104.109 96.1562C103.755 96.1562 103.43 96.0859 103.133 95.9453C102.836 95.8047 102.599 95.5703 102.422 95.2422C102.25 94.9089 102.164 94.4609 102.164 93.8984V85.4922ZM111.867 94.5547V90.2031C111.867 89.8698 111.799 89.5807 111.664 89.3359C111.534 89.0859 111.336 88.8932 111.07 88.7578C110.805 88.6224 110.477 88.5547 110.086 88.5547C109.721 88.5547 109.401 88.6172 109.125 88.7422C108.854 88.8672 108.641 89.0312 108.484 89.2344C108.333 89.4375 108.258 89.6562 108.258 89.8906H106.812C106.812 89.5885 106.891 89.2891 107.047 88.9922C107.203 88.6953 107.427 88.4271 107.719 88.1875C108.016 87.9427 108.37 87.75 108.781 87.6094C109.198 87.4635 109.661 87.3906 110.172 87.3906C110.786 87.3906 111.328 87.4948 111.797 87.7031C112.271 87.9115 112.641 88.2266 112.906 88.6484C113.177 89.0651 113.312 89.5885 113.312 90.2188V94.1562C113.312 94.4375 113.336 94.737 113.383 95.0547C113.435 95.3724 113.51 95.6458 113.609 95.875V96H112.102C112.029 95.8333 111.971 95.612 111.93 95.3359C111.888 95.0547 111.867 94.7943 111.867 94.5547ZM112.117 90.875L112.133 91.8906H110.672C110.26 91.8906 109.893 91.9245 109.57 91.9922C109.247 92.0547 108.977 92.151 108.758 92.2812C108.539 92.4115 108.372 92.5755 108.258 92.7734C108.143 92.9661 108.086 93.1927 108.086 93.4531C108.086 93.7188 108.146 93.9609 108.266 94.1797C108.385 94.3984 108.565 94.5729 108.805 94.7031C109.049 94.8281 109.349 94.8906 109.703 94.8906C110.146 94.8906 110.536 94.7969 110.875 94.6094C111.214 94.4219 111.482 94.1927 111.68 93.9219C111.883 93.651 111.992 93.388 112.008 93.1328L112.625 93.8281C112.589 94.0469 112.49 94.2891 112.328 94.5547C112.167 94.8203 111.951 95.0755 111.68 95.3203C111.414 95.5599 111.096 95.7604 110.727 95.9219C110.362 96.0781 109.951 96.1562 109.492 96.1562C108.919 96.1562 108.417 96.0443 107.984 95.8203C107.557 95.5964 107.224 95.2969 106.984 94.9219C106.75 94.5417 106.633 94.1172 106.633 93.6484C106.633 93.1953 106.721 92.7969 106.898 92.4531C107.076 92.1042 107.331 91.8151 107.664 91.5859C107.997 91.3516 108.398 91.1745 108.867 91.0547C109.336 90.9349 109.859 90.875 110.438 90.875H112.117Z" fill="white"/>
<path d="M39.7309 32.4688H42.7484C43.3969 32.4688 43.9496 32.5664 44.4066 32.7617C44.8637 32.957 45.2133 33.2461 45.4555 33.6289C45.7016 34.0078 45.8246 34.4766 45.8246 35.0352C45.8246 35.4609 45.7465 35.8359 45.5902 36.1602C45.434 36.4844 45.2133 36.7578 44.9281 36.9805C44.643 37.1992 44.3031 37.3691 43.9086 37.4902L43.4633 37.707H40.7504L40.7387 36.541H42.7719C43.1234 36.541 43.4164 36.4785 43.6508 36.3535C43.8852 36.2285 44.0609 36.0586 44.1781 35.8438C44.2992 35.625 44.3598 35.3789 44.3598 35.1055C44.3598 34.8086 44.3012 34.5508 44.184 34.332C44.0707 34.1094 43.8949 33.9395 43.6566 33.8223C43.4184 33.7012 43.1156 33.6406 42.7484 33.6406H41.2016V41H39.7309V32.4688ZM44.6 41L42.5961 37.168L44.1371 37.1621L46.1703 40.9238V41H44.6ZM54.0734 39.834V41H49.5441V39.834H54.0734ZM49.9602 32.4688V41H48.4895V32.4688H49.9602ZM53.4816 36.0312V37.1797H49.5441V36.0312H53.4816ZM54.0441 32.4688V33.6406H49.5441V32.4688H54.0441ZM59.7969 33.6055L57.248 41H55.707L58.918 32.4688H59.9023L59.7969 33.6055ZM61.9297 41L59.375 33.6055L59.2637 32.4688H60.2539L63.4766 41H61.9297ZM61.8066 37.8359V39.002H57.166V37.8359H61.8066ZM70.9754 39.834V41H66.6922V39.834H70.9754ZM67.1023 32.4688V41H65.6316V32.4688H67.1023ZM84.9172 32.4688V41H83.4582V32.4688H84.9172ZM87.5949 32.4688V33.6406H80.8039V32.4688H87.5949ZM91.4902 32.4688V41H90.0195V32.4688H91.4902ZM95.116 32.4688H96.4285L98.8953 39.0488L101.356 32.4688H102.669L99.4109 41H98.368L95.116 32.4688ZM94.5184 32.4688H95.7664L95.9832 38.1641V41H94.5184V32.4688ZM102.018 32.4688H103.272V41H101.802V38.1641L102.018 32.4688ZM111.802 39.834V41H107.273V39.834H111.802ZM107.689 32.4688V41H106.218V32.4688H107.689ZM111.211 36.0312V37.1797H107.273V36.0312H111.211ZM111.773 32.4688V33.6406H107.273V32.4688H111.773Z" fill="#50565F"/>
<defs>
<filter id="filter0_d_2435_54350" x="0.798354" y="55" width="149.403" height="63.4033" filterUnits="userSpaceOnUse" color-interpolation-filters="sRGB">
<feFlood flood-opacity="0" result="BackgroundImageFix"/>
<feColorMatrix in="SourceAlpha" type="matrix" values="0 0 0 0 0 0 0 0 0 0 0 0 0 0 0 0 0 0 127 0" result="hardAlpha"/>
<feOffset dy="5.20165"/>
<feGaussianBlur stdDeviation="2.60082"/>
<feComposite in2="hardAlpha" operator="out"/>
<feColorMatrix type="matrix" values="0 0 0 0 0.713381 0 0 0 0 0.713381 0 0 0 0 0.713381 0 0 0 0.13 0"/>
<feBlend mode="normal" in2="BackgroundImageFix" result="effect1_dropShadow_2435_54350"/>
<feBlend mode="normal" in="SourceGraphic" in2="effect1_dropShadow_2435_54350" result="shape"/>
</filter>
<linearGradient id="paint0_linear_2435_54350" x1="74" y1="3" x2="74" y2="133.203" gradientUnits="userSpaceOnUse">
<stop stop-color="#D29F3D" stop-opacity="0.1"/>
<stop offset="0.904" stop-color="#D29F3D"/>
</linearGradient>
<linearGradient id="paint1_linear_2435_54350" x1="74" y1="3" x2="74" y2="133.203" gradientUnits="userSpaceOnUse">
<stop stop-color="#7EBB48" stop-opacity="0.1"/>
<stop offset="0.904" stop-color="#7EBB48"/>
</linearGradient>
</defs>
</svg>
