<svg width="315" height="134" viewBox="0 0 315 134" fill="none" xmlns="http://www.w3.org/2000/svg">
<rect x="0.21002" y="0.21002" width="314.58" height="133.58" rx="13.79" fill="url(#paint0_radial_1594_7382)" stroke="url(#paint1_linear_1594_7382)" stroke-width="0.420039"/>
<g clip-path="url(#clip0_1594_7382)">
<path d="M178 64.7657H182.525C187.222 64.7657 190.369 68.2459 190.369 72.8357C190.369 77.362 187.137 80.8628 182.504 80.8628H178V64.7657ZM181.168 78.1303H181.686C185.585 78.1303 187.093 75.9952 187.093 72.8145C187.093 69.3132 185.283 67.4982 181.686 67.4982H181.168V78.1303Z" fill="white"/>
<path d="M203.405 69.0359C202.522 67.9681 201.186 67.3278 199.829 67.3278C196.791 67.3278 195.044 70.1032 195.044 72.8791C195.044 75.5899 196.854 78.3013 199.807 78.3013C201.164 78.3013 202.522 77.597 203.405 76.5937V80.33C202.22 80.8846 201.035 81.2904 199.721 81.2904C195.152 81.2904 191.77 77.3832 191.77 72.9437C191.77 68.3745 195.024 64.3403 199.786 64.3403C201.057 64.3403 202.307 64.6816 203.405 65.2796V69.0359Z" fill="white"/>
<path d="M213.576 68.3105C212.972 67.4987 212.196 66.9865 211.14 66.9865C210.127 66.9865 209.158 67.7554 209.158 68.8015C209.158 71.5123 215.601 70.3816 215.601 75.7825C215.601 79.0061 213.576 81.2904 210.257 81.2904C208.016 81.2904 206.378 80.0094 205.258 78.1521L207.305 76.1667C207.737 77.4055 208.879 78.5156 210.235 78.5156C211.528 78.5156 212.326 77.4266 212.326 76.1884C212.326 74.5232 210.774 74.0539 209.504 73.5623C207.414 72.7088 205.884 71.6626 205.884 69.1651C205.884 66.496 207.888 64.3403 210.625 64.3403C212.068 64.3403 214.072 65.0446 215.063 66.1336L213.576 68.3105Z" fill="white"/>
<path d="M122.073 68.9808C120.577 67.3646 118.775 66.4549 116.532 66.4549C112.826 66.4549 110.038 69.5877 110.038 73.1241C110.038 76.6605 112.791 79.8613 116.497 79.8613C118.741 79.8613 120.849 78.7829 122.277 77.0659V79.1197C120.679 80.5004 118.673 81.276 116.565 81.276C111.908 81.276 108.508 77.671 108.508 73.1241C108.508 68.6106 111.975 65.0396 116.599 65.0396C118.639 65.0396 120.508 65.6465 122.072 66.9598L122.073 68.9808Z" fill="white"/>
<path d="M128.159 60.1898C128.159 60.9648 127.546 61.5705 126.765 61.5705C125.983 61.5705 125.371 60.9642 125.371 60.1898C125.371 59.4488 125.984 58.8091 126.765 58.8091C127.546 58.8085 128.159 59.4488 128.159 60.1898ZM127.512 80.9386H125.982V65.377H127.512V80.9386Z" fill="white"/>
<path d="M134.042 67.3981H134.11C134.722 65.9834 135.844 65.0403 137.51 65.0403C138.122 65.0403 138.632 65.175 139.176 65.4111L138.36 66.7584C137.986 66.5563 137.68 66.455 137.272 66.455C133.838 66.455 134.042 70.699 134.042 72.9895V80.9387H132.512V65.3771H134.042V67.3981Z" fill="white"/>
<path d="M142.643 67.3981H142.711C143.323 65.9834 144.446 65.0403 146.112 65.0403C146.724 65.0403 147.233 65.175 147.777 65.4111L146.961 66.7584C146.588 66.5563 146.281 66.455 145.873 66.455C142.44 66.455 142.643 70.699 142.643 72.9895V80.9387H141.113V65.3771H142.643V67.3981Z" fill="white"/>
<path d="M160.764 65.377V74.7069C160.764 76.2903 160.798 77.8737 159.812 79.1871C158.724 80.6018 156.889 81.276 155.12 81.276C153.352 81.276 151.517 80.6018 150.428 79.1871C149.442 77.8737 149.477 76.2903 149.477 74.7069V65.377H151.007V74.1686C151.007 77.1661 151.346 79.8613 155.12 79.8613C158.894 79.8613 159.234 77.1661 159.234 74.1686V65.377H160.764Z" fill="white"/>
<path d="M171.507 68.2064C170.997 67.128 169.977 66.4548 168.754 66.4548C167.428 66.4548 166.068 67.5327 166.068 68.88C166.068 72.6191 173.717 70.7997 173.717 76.425C173.717 79.2884 171.473 81.276 168.651 81.276C166.034 81.276 163.891 79.6926 163.246 77.1661L164.742 76.6945C165.319 78.5473 166.577 79.8613 168.651 79.8613C170.624 79.8613 172.186 78.3118 172.186 76.3577C172.186 74.438 170.691 73.8317 169.128 73.2922C166.986 72.5178 164.538 71.6086 164.538 68.9808C164.538 66.6235 166.543 65.0402 168.822 65.0402C170.42 65.0402 172.153 66.0841 172.833 67.5327L171.507 68.2064Z" fill="white"/>
<path d="M110.965 86.8077H112.193C114.011 86.8077 115.523 87.7592 115.523 89.7167C115.523 91.7216 114.043 92.6881 112.169 92.6881H110.965V86.8077ZM111.704 92.0172H111.964C113.475 92.0172 114.782 91.456 114.782 89.7479C114.782 88.0326 113.476 87.4786 111.964 87.4786H111.704V92.0172Z" fill="white"/>
<path d="M117.257 91.2139L116.58 92.6876H115.785L118.619 86.5579L121.453 92.6876H120.658L119.981 91.2139H117.257ZM118.619 88.1646L117.564 90.5436H119.674L118.619 88.1646Z" fill="white"/>
<path d="M123.075 92.6881H122.335V87.4787H120.926V86.8083H124.483V87.4787H123.075V92.6881Z" fill="white"/>
<path d="M125.433 91.2139L124.756 92.6876H123.961L126.795 86.5579L129.629 92.6876H128.833L128.156 91.2139H125.433ZM126.795 88.1646L125.74 90.5436H127.85L126.795 88.1646Z" fill="white"/>
<path d="M137.031 87.9308C136.606 87.5566 136.023 87.354 135.464 87.354C134.134 87.354 133.119 88.4541 133.119 89.7558C133.119 91.043 134.127 92.142 135.449 92.142C136.031 92.142 136.59 91.9232 137.031 91.5335V92.3998C136.574 92.6648 135.992 92.8129 135.472 92.8129C133.78 92.8129 132.379 91.4789 132.379 89.7792C132.379 88.0399 133.788 86.6831 135.535 86.6831C136.055 86.6831 136.582 86.8078 137.031 87.0806V87.9308Z" fill="white"/>
<path d="M143.866 89.7474C143.866 91.495 142.473 92.8129 140.757 92.8129C139.041 92.8129 137.648 91.495 137.648 89.7474C137.648 88.0633 139.057 86.6831 140.757 86.6831C142.457 86.6837 143.866 88.0633 143.866 89.7474ZM143.126 89.7474C143.126 88.4536 142.15 87.3696 140.756 87.3696C139.363 87.3696 138.387 88.4536 138.387 89.7474C138.387 91.0892 139.474 92.1258 140.756 92.1258C142.039 92.1258 143.126 91.0897 143.126 89.7474Z" fill="white"/>
<path d="M145.478 92.0172H147.28V92.6881H144.738V86.8077H145.478V92.0172Z" fill="white"/>
<path d="M148.665 92.0173H150.468V92.6882H147.926V86.8079H148.665V92.0173Z" fill="white"/>
<path d="M151.109 86.8079H154.297V87.4782H151.849V89.1239H154.226V89.7942H151.849V92.0168H154.297V92.6876H151.109V86.8079Z" fill="white"/>
<path d="M159.687 87.9307C159.262 87.5566 158.679 87.3539 158.121 87.3539C156.791 87.3539 155.775 88.454 155.775 89.7557C155.775 91.0429 156.783 92.1419 158.105 92.1419C158.688 92.1419 159.246 91.9231 159.687 91.5334V92.3997C159.231 92.6647 158.648 92.8128 158.129 92.8128C156.437 92.8128 155.035 91.4788 155.035 89.7791C155.035 88.0398 156.444 86.683 158.192 86.683C158.711 86.683 159.238 86.8078 159.687 87.0806V87.9307Z" fill="white"/>
<path d="M162.321 92.6881H161.58V87.4787H160.172V86.8083H163.729V87.4787H162.321V92.6881Z" fill="white"/>
<path d="M165.185 92.6882H164.445V86.8079H165.185V92.6882Z" fill="white"/>
<path d="M172.253 89.7474C172.253 91.495 170.86 92.8129 169.144 92.8129C167.428 92.8129 166.035 91.495 166.035 89.7474C166.035 88.0633 167.444 86.6831 169.144 86.6831C170.844 86.6831 172.253 88.0633 172.253 89.7474ZM171.513 89.7474C171.513 88.4536 170.537 87.3696 169.144 87.3696C167.75 87.3696 166.774 88.4536 166.774 89.7474C166.774 91.0892 167.861 92.1258 169.144 92.1258C170.427 92.1258 171.513 91.0897 171.513 89.7474Z" fill="white"/>
<path d="M173.051 86.5266L177.506 91.1515V86.8078H178.245V92.9292L173.79 88.3049V92.6875H173.051V86.5266Z" fill="white"/>
<path d="M184.523 87.9229C184.302 87.5566 184.019 87.3695 183.57 87.3695C183.098 87.3695 182.578 87.6891 182.578 88.2035C182.578 88.6634 183.034 88.9061 183.404 89.0464L183.83 89.2095C184.672 89.5375 185.302 89.9979 185.302 90.98C185.302 92.0489 184.468 92.8134 183.404 92.8134C182.444 92.8134 181.697 92.1107 181.57 91.1676L182.319 91.0117C182.31 91.6587 182.83 92.1269 183.468 92.1269C184.106 92.1269 184.562 91.5969 184.562 90.98C184.562 90.3486 184.05 90.0758 183.538 89.8654L183.129 89.6934C182.453 89.405 181.838 89.0225 181.838 88.2035C181.838 87.252 182.689 86.6836 183.585 86.6836C184.247 86.6836 184.79 87.0032 185.113 87.5722L184.523 87.9229Z" fill="white"/>
<path d="M186.266 86.8079H189.453V87.4782H187.006V89.1239H189.383V89.7942H187.006V92.0168H189.453V92.6876H186.266V86.8079Z" fill="white"/>
<path d="M194.214 92.6882H193.317L191.569 90.2001H191.263V92.6882H190.523V86.8079H191.42C191.948 86.8079 192.514 86.8157 192.986 87.0807C193.483 87.3696 193.766 87.923 193.766 88.4842C193.766 89.3271 193.199 90.0286 192.341 90.13L194.214 92.6882ZM191.263 89.5921H191.499C192.254 89.5921 193.073 89.4518 193.073 88.5154C193.073 87.5957 192.192 87.4626 191.46 87.4626H191.263V89.5921Z" fill="white"/>
<path d="M196.914 91.1593L198.676 86.8083H199.487L196.914 93.0005L194.332 86.8083H195.142L196.914 91.1593Z" fill="white"/>
<path d="M200.861 92.6882H200.121V86.8079H200.861V92.6882Z" fill="white"/>
<path d="M206.449 87.9308C206.024 87.5566 205.441 87.354 204.882 87.354C203.552 87.354 202.537 88.4541 202.537 89.7558C202.537 91.043 203.544 92.142 204.867 92.142C205.449 92.142 206.008 91.9232 206.448 91.5335V92.3998C205.992 92.6648 205.41 92.8129 204.89 92.8129C203.198 92.8129 201.797 91.4789 201.797 89.7792C201.797 88.0399 203.206 86.6831 204.953 86.6831C205.472 86.6831 206 86.8078 206.448 87.0806V87.9308H206.449Z" fill="white"/>
<path d="M207.484 86.8079H210.672V87.4782H208.224V89.1239H210.601V89.7942H208.224V92.0168H210.672V92.6876H207.484V86.8079Z" fill="white"/>
<path d="M214.377 87.9229C214.156 87.5566 213.874 87.3695 213.425 87.3695C212.953 87.3695 212.433 87.6891 212.433 88.2035C212.433 88.6634 212.89 88.9061 213.26 89.0464L213.685 89.2095C214.527 89.5375 215.156 89.9979 215.156 90.98C215.156 92.0489 214.323 92.8134 213.26 92.8134C212.3 92.8134 211.552 92.1107 211.426 91.1676L212.173 91.0117C212.165 91.6587 212.685 92.1269 213.322 92.1269C213.96 92.1269 214.416 91.5969 214.416 90.98C214.416 90.3486 213.905 90.0758 213.394 89.8654L212.984 89.6934C212.307 89.405 211.693 89.0225 211.693 88.2035C211.693 87.252 212.543 86.6836 213.44 86.6836C214.101 86.6836 214.645 87.0032 214.967 87.5722L214.377 87.9229Z" fill="white"/>
<path d="M220 67.3715L219.874 65.7207L219.811 64.8956L219.668 64.0822L219.376 62.4632L218.934 60.8765L218.71 60.0853L218.411 59.3193C218.207 58.8104 218.02 58.2949 217.804 57.7927C217.288 56.825 216.86 55.814 216.227 54.916C215.921 54.4622 215.661 53.9784 215.32 53.5508L214.308 52.2614L214.056 51.9396L213.773 51.6429L213.207 51.0499C212.825 50.6597 212.472 50.2421 212.043 49.9019L210.812 48.8257C210.389 48.4817 209.933 48.1799 209.496 47.8553L208.834 47.3765C208.603 47.2307 208.364 47.0987 208.13 46.959L206.718 46.1367L205.235 45.4502C204.986 45.3416 204.747 45.2069 204.488 45.12L203.717 44.8511C203.2 44.6813 202.696 44.4698 202.17 44.3334L200.584 43.9492C200.061 43.7967 199.516 43.7521 198.978 43.6708C198.439 43.6085 197.905 43.4916 197.361 43.4738L195.733 43.4114L195.327 43.3953C195.268 43.3941 195.169 43.3863 195.146 43.3908L194.936 43.4008L194.102 43.4409L193.271 43.4849L192.475 43.5845C191.944 43.6447 191.413 43.7098 190.882 43.8312C189.816 44.0194 188.772 44.3111 187.745 44.6429C187.239 44.83 186.717 44.9792 186.222 45.1958C185.729 45.4157 185.226 45.6117 184.742 45.8488C184.265 46.1005 183.781 46.3404 183.309 46.5993L181.931 47.4433L181.386 47.7768L180.953 47.3136C180.026 46.3204 179.075 45.3444 178.031 44.4703C177.013 43.5678 175.905 42.7728 174.782 42.0056C173.635 41.2741 172.471 40.5675 171.242 39.9774L170.323 39.5303L169.384 39.1317C168.763 38.85 168.114 38.6412 167.476 38.4029C166.833 38.1774 166.176 37.9959 165.525 37.7977C164.86 37.6446 164.206 37.4503 163.536 37.3301C162.867 37.2054 162.2 37.0623 161.522 36.9871L160.509 36.8513L159.489 36.77C158.811 36.6993 158.128 36.6993 157.447 36.6792C157.291 36.6765 157.075 36.667 156.967 36.6698L156.443 36.6909L155.395 36.7293C155.047 36.7455 154.692 36.7477 154.351 36.7756L153.349 36.8925C152.682 36.976 152.013 37.0205 151.345 37.1747C150.678 37.3139 150.002 37.4136 149.343 37.5828L147.372 38.1234C146.727 38.3367 146.09 38.5783 145.447 38.8038C145.123 38.9096 144.809 39.0415 144.5 39.1863L143.568 39.6021C142.937 39.8605 142.34 40.189 141.744 40.5152L140.844 40.999C140.548 41.1644 140.268 41.3603 139.98 41.5396C138.813 42.2428 137.725 43.0612 136.652 43.8974L135.108 45.2308L133.663 46.6695C133.177 47.1455 132.764 47.6889 132.311 48.1949C131.85 48.696 131.465 49.2572 131.058 49.8012L130.451 50.6207L129.908 51.4825C129.55 52.0599 129.163 52.6205 128.865 53.2324C128.557 53.8364 128.198 54.4177 127.925 55.0396L127.098 56.903L126.76 57.6646L126.083 57.2003L125.036 56.4821C124.682 56.2505 124.306 56.0528 123.942 55.8357C123.581 55.6097 123.182 55.4577 122.805 55.2645C122.428 55.0674 122.028 54.9249 121.631 54.7707L121.036 54.5402L120.425 54.357C120.016 54.2373 119.613 54.0998 119.193 54.0246C118.775 53.9439 118.363 53.8259 117.94 53.7752L116.67 53.6087L115.389 53.5425L115.229 53.5341C115.215 53.533 115.15 53.5302 115.175 53.5308L115.093 53.5341L114.764 53.5469L114.105 53.5725C113.207 53.5686 112.398 53.7373 111.554 53.842C111.136 53.9116 110.722 54.0358 110.305 54.1293L109.68 54.2802C109.473 54.3364 109.274 54.4177 109.071 54.4856L107.857 54.9121L106.69 55.4532C106.293 55.6191 105.924 55.8374 105.554 56.0545C105.189 56.2783 104.794 56.462 104.45 56.7193L103.4 57.467C103.045 57.7114 102.743 58.0204 102.41 58.2937C101.731 58.8282 101.183 59.4969 100.578 60.1115C100.059 60.7969 99.4767 61.4427 99.044 62.191C98.822 62.5606 98.554 62.9053 98.3697 63.2955L97.7813 64.4502C97.579 64.8333 97.4543 65.2492 97.2868 65.6472C97.1278 66.0498 96.9609 66.4495 96.8609 66.8715L96.5024 68.122C96.4125 68.5451 96.3456 68.9732 96.2652 69.4008L96.1495 70.0422L96.0995 70.693L96 71.9952L96.0337 70.688L96.0523 70.0333L96.1354 69.3835C96.1939 68.9509 96.2399 68.5139 96.3096 68.0824L96.608 66.8014C96.6929 66.3699 96.8468 65.9573 96.9924 65.5431C97.1469 65.1322 97.2593 64.7024 97.4498 64.3055L98.0055 63.1062C98.1797 62.6998 98.4388 62.3385 98.6512 61.9516C99.067 61.1682 99.6363 60.4845 100.146 59.7591C100.742 59.1044 101.285 58.3928 101.963 57.8122C102.295 57.5165 102.598 57.1858 102.956 56.9186L104.017 56.1018C104.366 55.8212 104.766 55.6147 105.139 55.3675C105.517 55.1286 105.892 54.8815 106.304 54.7L107.512 54.107L108.773 53.631C108.985 53.5553 109.192 53.4662 109.407 53.4016L110.059 53.2274C110.496 53.1182 110.924 52.9807 111.37 52.8955C112.267 52.758 113.185 52.5643 114.051 52.5504L114.709 52.5103L115.038 52.4902L115.12 52.4852C115.201 52.4813 115.191 52.4852 115.23 52.4852L115.4 52.4897L116.754 52.5292L118.103 52.6751C118.554 52.7196 118.993 52.8332 119.439 52.9095C119.888 52.9802 120.32 53.1149 120.758 53.2329L121.413 53.4144L122.052 53.6449C122.478 53.7991 122.909 53.9433 123.316 54.1432C123.724 54.3392 124.153 54.4951 124.544 54.7261C124.938 54.9483 125.345 55.152 125.729 55.3909L126.868 56.1347L125.853 56.4314L126.669 54.4695C126.941 53.8147 127.296 53.1984 127.609 52.5621C127.914 51.9201 128.309 51.3289 128.676 50.7209L129.234 49.814L129.858 48.9493C130.277 48.3753 130.674 47.7846 131.149 47.2535C131.617 46.7179 132.044 46.145 132.546 45.64L134.043 44.1151L135.646 42.6988C136.76 41.8096 137.89 40.9317 139.113 40.1867C139.415 39.9974 139.708 39.7914 140.019 39.6155L140.961 39.1027C141.588 38.7576 142.214 38.4113 142.876 38.1357L143.855 37.6947C144.179 37.5422 144.508 37.4024 144.849 37.2889C145.523 37.0484 146.194 36.7917 146.872 36.5657L148.944 35.9883C149.637 35.8079 150.348 35.6983 151.049 35.5502C151.745 35.3881 152.475 35.3314 153.195 35.2406L154.277 35.1142C154.633 35.0847 154.977 35.0814 155.328 35.0641L156.376 35.0213L156.901 35.0012C157.142 34.9968 157.276 35.009 157.469 35.0118C158.186 35.0346 158.904 35.0391 159.618 35.1153L160.69 35.2055L161.755 35.352C162.468 35.4344 163.169 35.5863 163.874 35.7211C164.579 35.8514 165.267 36.0568 165.965 36.2216C166.65 36.432 167.34 36.6269 168.014 36.8663C168.685 37.1185 169.366 37.3423 170.018 37.6402L171.005 38.0639L171.969 38.5371C173.254 39.1651 174.483 39.9017 175.675 40.6895C176.845 41.5084 177.997 42.3569 179.055 43.3145C180.137 44.2443 181.122 45.277 182.08 46.3287L181.102 46.1996L182.576 45.3205C183.08 45.051 183.596 44.801 184.106 44.5416C184.622 44.2955 185.158 44.0923 185.684 43.8668C186.212 43.6441 186.766 43.4899 187.305 43.2989C188.399 42.966 189.512 42.6876 190.642 42.5123C191.2 42.3987 191.777 42.3391 192.354 42.2873L193.218 42.2021L194.054 42.1771L194.889 42.1554L195.097 42.1504C195.213 42.1459 195.252 42.1565 195.333 42.1587L195.76 42.1843L197.468 42.289C198.037 42.3218 198.597 42.4549 199.16 42.5334C199.72 42.6308 200.289 42.6921 200.834 42.8624L202.483 43.3023C203.03 43.4576 203.552 43.6887 204.087 43.8785L204.885 44.178C205.151 44.2749 205.397 44.4202 205.654 44.5388L207.181 45.2887C207.669 45.5755 208.147 45.88 208.629 46.1751C208.869 46.3254 209.113 46.4679 209.348 46.6249L210.024 47.1366C210.47 47.4834 210.934 47.8069 211.363 48.1727L212.603 49.3229C213.031 49.6909 213.382 50.1346 213.759 50.5511L214.318 51.1824L214.596 51.4981L214.844 51.8383L215.832 53.199C216.166 53.6499 216.415 54.1555 216.709 54.6304C217.32 55.5707 217.722 56.6207 218.207 57.6223C218.408 58.1417 218.579 58.6729 218.766 59.1968L219.04 59.9846L219.237 60.7952L219.621 62.4153L219.834 64.0677L219.935 64.8912L219.957 65.7185L220 67.3715Z" fill="white"/>
</g>
<defs>
<radialGradient id="paint0_radial_1594_7382" cx="0" cy="0" r="1" gradientUnits="userSpaceOnUse" gradientTransform="translate(155.584 66.8136) rotate(-131.397) scale(140.633 212.191)">
<stop offset="0.116577" stop-color="#41939C"/>
<stop offset="0.46" stop-color="#41939C"/>
<stop offset="0.599" stop-color="#41939C" stop-opacity="0.84"/>
<stop offset="0.785183" stop-color="#5BB6C1"/>
<stop offset="1" stop-color="#5BB6C1"/>
</radialGradient>
<linearGradient id="paint1_linear_1594_7382" x1="4.53704" y1="14.3571" x2="316.897" y2="25.2202" gradientUnits="userSpaceOnUse">
<stop stop-color="#558F21" stop-opacity="0.05"/>
<stop offset="0.480607" stop-color="#558F21" stop-opacity="0.3"/>
<stop offset="1" stop-color="#558F21" stop-opacity="0.05"/>
</linearGradient>
<clipPath id="clip0_1594_7382">
<rect width="124" height="58" fill="white" transform="translate(96 35)"/>
</clipPath>
</defs>
</svg>
