<svg width="206" height="103" viewBox="0 0 206 103" fill="none" xmlns="http://www.w3.org/2000/svg">
<path d="M2.99999 36C103 36 108.904 129.071 203 56.0153" stroke="url(#paint0_linear_1594_7529)" stroke-width="2" stroke-linejoin="round"/>
<circle cx="203" cy="56" r="3" fill="#D29F3D"/>
<circle cx="3" cy="36" r="3" fill="#D29F3D"/>
<g filter="url(#filter0_d_1594_7529)">
<mask id="path-4-outside-1_1594_7529" maskUnits="userSpaceOnUse" x="43" y="39" width="121" height="53" fill="black">
<rect fill="white" x="43" y="39" width="121" height="53"/>
<path fill-rule="evenodd" clip-rule="evenodd" d="M161 49C161 45.134 157.866 42 154 42H53C49.134 42 46 45.134 46 49V62C46 65.866 49.134 69 53 69H54C57.866 69 61 72.134 61 76V82C61 85.866 64.134 89 68 89H139C142.866 89 146 85.866 146 82V76C146 72.134 149.134 69 153 69H154C157.866 69 161 65.866 161 62V49Z"/>
</mask>
<path fill-rule="evenodd" clip-rule="evenodd" d="M161 49C161 45.134 157.866 42 154 42H53C49.134 42 46 45.134 46 49V62C46 65.866 49.134 69 53 69H54C57.866 69 61 72.134 61 76V82C61 85.866 64.134 89 68 89H139C142.866 89 146 85.866 146 82V76C146 72.134 149.134 69 153 69H154C157.866 69 161 65.866 161 62V49Z" fill="#D29F3D"/>
<path d="M53 45H154V39H53V45ZM49 62V49H43V62H49ZM54 66H53V72H54V66ZM64 82V76H58V82H64ZM139 86H68V92H139V86ZM143 76V82H149V76H143ZM154 66H153V72H154V66ZM158 49V62H164V49H158ZM154 72C159.523 72 164 67.5228 164 62H158C158 64.2091 156.209 66 154 66V72ZM149 76C149 73.7909 150.791 72 153 72V66C147.477 66 143 70.4772 143 76H149ZM139 92C144.523 92 149 87.5228 149 82H143C143 84.2091 141.209 86 139 86V92ZM58 82C58 87.5228 62.4772 92 68 92V86C65.7909 86 64 84.2091 64 82H58ZM54 72C56.2091 72 58 73.7909 58 76H64C64 70.4772 59.5228 66 54 66V72ZM43 62C43 67.5228 47.4772 72 53 72V66C50.7909 66 49 64.2091 49 62H43ZM154 45C156.209 45 158 46.7909 158 49H164C164 43.4772 159.523 39 154 39V45ZM53 39C47.4772 39 43 43.4772 43 49H49C49 46.7909 50.7909 45 53 45V39Z" fill="white" mask="url(#path-4-outside-1_1594_7529)"/>
</g>
<path d="M58.8359 55.6797H55.9531L55.9375 54.4688H58.5547C58.987 54.4688 59.3646 54.3958 59.6875 54.25C60.0104 54.1042 60.2604 53.8958 60.4375 53.625C60.6198 53.349 60.7109 53.0208 60.7109 52.6406C60.7109 52.224 60.6302 51.8854 60.4688 51.625C60.3125 51.3594 60.0703 51.1667 59.7422 51.0469C59.4193 50.9219 59.0078 50.8594 58.5078 50.8594H56.2891V61H54.7812V49.625H58.5078C59.0911 49.625 59.612 49.6849 60.0703 49.8047C60.5286 49.9193 60.9167 50.1016 61.2344 50.3516C61.5573 50.5964 61.8021 50.9089 61.9688 51.2891C62.1354 51.6693 62.2188 52.125 62.2188 52.6562C62.2188 53.125 62.099 53.5495 61.8594 53.9297C61.6198 54.3047 61.2865 54.612 60.8594 54.8516C60.4375 55.0911 59.9427 55.2448 59.375 55.3125L58.8359 55.6797ZM58.7656 61H55.3594L56.2109 59.7734H58.7656C59.2448 59.7734 59.651 59.6901 59.9844 59.5234C60.3229 59.3568 60.5807 59.1224 60.7578 58.8203C60.9349 58.513 61.0234 58.151 61.0234 57.7344C61.0234 57.3125 60.9479 56.9479 60.7969 56.6406C60.6458 56.3333 60.4089 56.0964 60.0859 55.9297C59.763 55.763 59.3464 55.6797 58.8359 55.6797H56.6875L56.7031 54.4688H59.6406L59.9609 54.9062C60.5078 54.9531 60.9714 55.1094 61.3516 55.375C61.7318 55.6354 62.0208 55.9688 62.2188 56.375C62.4219 56.7812 62.5234 57.2292 62.5234 57.7188C62.5234 58.4271 62.3672 59.026 62.0547 59.5156C61.7474 60 61.3125 60.3698 60.75 60.625C60.1875 60.875 59.526 61 58.7656 61ZM66.1016 52.5469V61H64.6484V52.5469H66.1016ZM64.5391 50.3047C64.5391 50.0703 64.6094 49.8724 64.75 49.7109C64.8958 49.5495 65.1094 49.4688 65.3906 49.4688C65.6667 49.4688 65.8776 49.5495 66.0234 49.7109C66.1745 49.8724 66.25 50.0703 66.25 50.3047C66.25 50.5286 66.1745 50.7214 66.0234 50.8828C65.8776 51.0391 65.6667 51.1172 65.3906 51.1172C65.1094 51.1172 64.8958 51.0391 64.75 50.8828C64.6094 50.7214 64.5391 50.5286 64.5391 50.3047ZM71.4297 55.5703V56.7578H67.6172V55.5703H71.4297ZM76.1406 61H73.7656L73.7812 59.7734H76.1406C76.9531 59.7734 77.6302 59.6042 78.1719 59.2656C78.7135 58.9219 79.1198 58.4427 79.3906 57.8281C79.6667 57.2083 79.8047 56.4844 79.8047 55.6562V54.9609C79.8047 54.3099 79.7266 53.7318 79.5703 53.2266C79.4141 52.7161 79.1849 52.2865 78.8828 51.9375C78.5807 51.5833 78.2109 51.3151 77.7734 51.1328C77.3411 50.9505 76.8438 50.8594 76.2812 50.8594H73.7188V49.625H76.2812C77.026 49.625 77.7057 49.75 78.3203 50C78.9349 50.2448 79.4635 50.6016 79.9062 51.0703C80.3542 51.5339 80.6979 52.0964 80.9375 52.7578C81.1771 53.4141 81.2969 54.1536 81.2969 54.9766V55.6562C81.2969 56.4792 81.1771 57.2214 80.9375 57.8828C80.6979 58.5391 80.3516 59.099 79.8984 59.5625C79.4505 60.026 78.9089 60.3828 78.2734 60.6328C77.6432 60.8776 76.9323 61 76.1406 61ZM74.5703 49.625V61H73.0625V49.625H74.5703ZM86.8516 61.1562C86.263 61.1562 85.7292 61.0573 85.25 60.8594C84.776 60.6562 84.3672 60.3724 84.0234 60.0078C83.6849 59.6432 83.4245 59.2109 83.2422 58.7109C83.0599 58.2109 82.9688 57.6641 82.9688 57.0703V56.7422C82.9688 56.0547 83.0703 55.4427 83.2734 54.9062C83.4766 54.3646 83.7526 53.9062 84.1016 53.5312C84.4505 53.1562 84.8464 52.8724 85.2891 52.6797C85.7318 52.487 86.1901 52.3906 86.6641 52.3906C87.2682 52.3906 87.7891 52.4948 88.2266 52.7031C88.6693 52.9115 89.0312 53.2031 89.3125 53.5781C89.5938 53.9479 89.8021 54.3854 89.9375 54.8906C90.0729 55.3906 90.1406 55.9375 90.1406 56.5312V57.1797H83.8281V56H88.6953V55.8906C88.6745 55.5156 88.5964 55.151 88.4609 54.7969C88.3307 54.4427 88.1224 54.151 87.8359 53.9219C87.5495 53.6927 87.1589 53.5781 86.6641 53.5781C86.3359 53.5781 86.0339 53.6484 85.7578 53.7891C85.4818 53.9245 85.2448 54.1276 85.0469 54.3984C84.849 54.6693 84.6953 55 84.5859 55.3906C84.4766 55.7812 84.4219 56.2318 84.4219 56.7422V57.0703C84.4219 57.4714 84.4766 57.849 84.5859 58.2031C84.7005 58.5521 84.8646 58.8594 85.0781 59.125C85.2969 59.3906 85.5599 59.599 85.8672 59.75C86.1797 59.901 86.5339 59.9766 86.9297 59.9766C87.4401 59.9766 87.8724 59.8724 88.2266 59.6641C88.5807 59.4557 88.8906 59.1771 89.1562 58.8281L90.0312 59.5234C89.849 59.7995 89.6172 60.0625 89.3359 60.3125C89.0547 60.5625 88.7083 60.7656 88.2969 60.9219C87.8906 61.0781 87.4089 61.1562 86.8516 61.1562ZM93.2734 53.875V61H91.8281V52.5469H93.2344L93.2734 53.875ZM95.9141 52.5L95.9062 53.8438C95.7865 53.8177 95.6719 53.8021 95.5625 53.7969C95.4583 53.7865 95.3385 53.7812 95.2031 53.7812C94.8698 53.7812 94.5755 53.8333 94.3203 53.9375C94.0651 54.0417 93.849 54.1875 93.6719 54.375C93.4948 54.5625 93.3542 54.7865 93.25 55.0469C93.151 55.3021 93.0859 55.5833 93.0547 55.8906L92.6484 56.125C92.6484 55.6146 92.6979 55.1354 92.7969 54.6875C92.901 54.2396 93.0599 53.8438 93.2734 53.5C93.487 53.151 93.7578 52.8802 94.0859 52.6875C94.4193 52.4896 94.8151 52.3906 95.2734 52.3906C95.3776 52.3906 95.4974 52.4036 95.6328 52.4297C95.7682 52.4505 95.862 52.474 95.9141 52.5ZM100.602 61.1562C100.013 61.1562 99.4792 61.0573 99 60.8594C98.526 60.6562 98.1172 60.3724 97.7734 60.0078C97.4349 59.6432 97.1745 59.2109 96.9922 58.7109C96.8099 58.2109 96.7188 57.6641 96.7188 57.0703V56.7422C96.7188 56.0547 96.8203 55.4427 97.0234 54.9062C97.2266 54.3646 97.5026 53.9062 97.8516 53.5312C98.2005 53.1562 98.5964 52.8724 99.0391 52.6797C99.4818 52.487 99.9401 52.3906 100.414 52.3906C101.018 52.3906 101.539 52.4948 101.977 52.7031C102.419 52.9115 102.781 53.2031 103.062 53.5781C103.344 53.9479 103.552 54.3854 103.688 54.8906C103.823 55.3906 103.891 55.9375 103.891 56.5312V57.1797H97.5781V56H102.445V55.8906C102.424 55.5156 102.346 55.151 102.211 54.7969C102.081 54.4427 101.872 54.151 101.586 53.9219C101.299 53.6927 100.909 53.5781 100.414 53.5781C100.086 53.5781 99.7839 53.6484 99.5078 53.7891C99.2318 53.9245 98.9948 54.1276 98.7969 54.3984C98.599 54.6693 98.4453 55 98.3359 55.3906C98.2266 55.7812 98.1719 56.2318 98.1719 56.7422V57.0703C98.1719 57.4714 98.2266 57.849 98.3359 58.2031C98.4505 58.5521 98.6146 58.8594 98.8281 59.125C99.0469 59.3906 99.3099 59.599 99.6172 59.75C99.9297 59.901 100.284 59.9766 100.68 59.9766C101.19 59.9766 101.622 59.8724 101.977 59.6641C102.331 59.4557 102.641 59.1771 102.906 58.8281L103.781 59.5234C103.599 59.7995 103.367 60.0625 103.086 60.3125C102.805 60.5625 102.458 60.7656 102.047 60.9219C101.641 61.0781 101.159 61.1562 100.602 61.1562ZM108.961 59.9688C109.305 59.9688 109.622 59.8984 109.914 59.7578C110.206 59.6172 110.445 59.4245 110.633 59.1797C110.82 58.9297 110.927 58.6458 110.953 58.3281H112.328C112.302 58.8281 112.133 59.2943 111.82 59.7266C111.513 60.1536 111.109 60.5 110.609 60.7656C110.109 61.026 109.56 61.1562 108.961 61.1562C108.326 61.1562 107.771 61.0443 107.297 60.8203C106.828 60.5964 106.438 60.2891 106.125 59.8984C105.818 59.5078 105.586 59.0599 105.43 58.5547C105.279 58.0443 105.203 57.5052 105.203 56.9375V56.6094C105.203 56.0417 105.279 55.5052 105.43 55C105.586 54.4896 105.818 54.0391 106.125 53.6484C106.438 53.2578 106.828 52.9505 107.297 52.7266C107.771 52.5026 108.326 52.3906 108.961 52.3906C109.622 52.3906 110.201 52.526 110.695 52.7969C111.19 53.0625 111.578 53.4271 111.859 53.8906C112.146 54.349 112.302 54.8698 112.328 55.4531H110.953C110.927 55.1042 110.828 54.7891 110.656 54.5078C110.49 54.2266 110.26 54.0026 109.969 53.8359C109.682 53.6641 109.346 53.5781 108.961 53.5781C108.518 53.5781 108.146 53.6667 107.844 53.8438C107.547 54.0156 107.31 54.25 107.133 54.5469C106.961 54.8385 106.836 55.1641 106.758 55.5234C106.685 55.8776 106.648 56.2396 106.648 56.6094V56.9375C106.648 57.3073 106.685 57.6719 106.758 58.0312C106.831 58.3906 106.953 58.7161 107.125 59.0078C107.302 59.2995 107.539 59.5339 107.836 59.7109C108.138 59.8828 108.513 59.9688 108.961 59.9688ZM117.492 52.5469V53.6562H112.922V52.5469H117.492ZM114.469 50.4922H115.914V58.9062C115.914 59.1927 115.958 59.4089 116.047 59.5547C116.135 59.7005 116.25 59.7969 116.391 59.8438C116.531 59.8906 116.682 59.9141 116.844 59.9141C116.964 59.9141 117.089 59.9036 117.219 59.8828C117.354 59.8568 117.456 59.8359 117.523 59.8203L117.531 61C117.417 61.0365 117.266 61.0703 117.078 61.1016C116.896 61.138 116.674 61.1562 116.414 61.1562C116.06 61.1562 115.734 61.0859 115.438 60.9453C115.141 60.8047 114.904 60.5703 114.727 60.2422C114.555 59.9089 114.469 59.4609 114.469 58.8984V50.4922ZM120.758 52.5469V61H119.305V52.5469H120.758ZM119.195 50.3047C119.195 50.0703 119.266 49.8724 119.406 49.7109C119.552 49.5495 119.766 49.4688 120.047 49.4688C120.323 49.4688 120.534 49.5495 120.68 49.7109C120.831 49.8724 120.906 50.0703 120.906 50.3047C120.906 50.5286 120.831 50.7214 120.68 50.8828C120.534 51.0391 120.323 51.1172 120.047 51.1172C119.766 51.1172 119.552 51.0391 119.406 50.8828C119.266 50.7214 119.195 50.5286 119.195 50.3047ZM122.695 56.8672V56.6875C122.695 56.0781 122.784 55.513 122.961 54.9922C123.138 54.4661 123.393 54.0104 123.727 53.625C124.06 53.2344 124.464 52.9323 124.938 52.7188C125.411 52.5 125.943 52.3906 126.531 52.3906C127.125 52.3906 127.659 52.5 128.133 52.7188C128.612 52.9323 129.018 53.2344 129.352 53.625C129.69 54.0104 129.948 54.4661 130.125 54.9922C130.302 55.513 130.391 56.0781 130.391 56.6875V56.8672C130.391 57.4766 130.302 58.0417 130.125 58.5625C129.948 59.0833 129.69 59.5391 129.352 59.9297C129.018 60.3151 128.615 60.6172 128.141 60.8359C127.672 61.0495 127.141 61.1562 126.547 61.1562C125.953 61.1562 125.419 61.0495 124.945 60.8359C124.471 60.6172 124.065 60.3151 123.727 59.9297C123.393 59.5391 123.138 59.0833 122.961 58.5625C122.784 58.0417 122.695 57.4766 122.695 56.8672ZM124.141 56.6875V56.8672C124.141 57.2891 124.19 57.6875 124.289 58.0625C124.388 58.4323 124.536 58.7604 124.734 59.0469C124.938 59.3333 125.19 59.5599 125.492 59.7266C125.794 59.888 126.146 59.9688 126.547 59.9688C126.943 59.9688 127.289 59.888 127.586 59.7266C127.888 59.5599 128.138 59.3333 128.336 59.0469C128.534 58.7604 128.682 58.4323 128.781 58.0625C128.885 57.6875 128.938 57.2891 128.938 56.8672V56.6875C128.938 56.2708 128.885 55.8776 128.781 55.5078C128.682 55.1328 128.531 54.8021 128.328 54.5156C128.13 54.224 127.88 53.9948 127.578 53.8281C127.281 53.6615 126.932 53.5781 126.531 53.5781C126.135 53.5781 125.786 53.6615 125.484 53.8281C125.188 53.9948 124.938 54.224 124.734 54.5156C124.536 54.8021 124.388 55.1328 124.289 55.5078C124.19 55.8776 124.141 56.2708 124.141 56.6875ZM133.648 54.3516V61H132.203V52.5469H133.57L133.648 54.3516ZM133.305 56.4531L132.703 56.4297C132.708 55.8516 132.794 55.3177 132.961 54.8281C133.128 54.3333 133.362 53.9036 133.664 53.5391C133.966 53.1745 134.326 52.8932 134.742 52.6953C135.164 52.4922 135.63 52.3906 136.141 52.3906C136.557 52.3906 136.932 52.4479 137.266 52.5625C137.599 52.6719 137.883 52.849 138.117 53.0938C138.357 53.3385 138.539 53.6562 138.664 54.0469C138.789 54.4323 138.852 54.9036 138.852 55.4609V61H137.398V55.4453C137.398 55.0026 137.333 54.6484 137.203 54.3828C137.073 54.112 136.883 53.9167 136.633 53.7969C136.383 53.6719 136.076 53.6094 135.711 53.6094C135.352 53.6094 135.023 53.6849 134.727 53.8359C134.435 53.987 134.182 54.1953 133.969 54.4609C133.76 54.7266 133.596 55.0312 133.477 55.375C133.362 55.7135 133.305 56.0729 133.305 56.4531ZM146.031 59.5547V55.2031C146.031 54.8698 145.964 54.5807 145.828 54.3359C145.698 54.0859 145.5 53.8932 145.234 53.7578C144.969 53.6224 144.641 53.5547 144.25 53.5547C143.885 53.5547 143.565 53.6172 143.289 53.7422C143.018 53.8672 142.805 54.0312 142.648 54.2344C142.497 54.4375 142.422 54.6562 142.422 54.8906H140.977C140.977 54.5885 141.055 54.2891 141.211 53.9922C141.367 53.6953 141.591 53.4271 141.883 53.1875C142.18 52.9427 142.534 52.75 142.945 52.6094C143.362 52.4635 143.826 52.3906 144.336 52.3906C144.951 52.3906 145.492 52.4948 145.961 52.7031C146.435 52.9115 146.805 53.2266 147.07 53.6484C147.341 54.0651 147.477 54.5885 147.477 55.2188V59.1562C147.477 59.4375 147.5 59.737 147.547 60.0547C147.599 60.3724 147.674 60.6458 147.773 60.875V61H146.266C146.193 60.8333 146.135 60.612 146.094 60.3359C146.052 60.0547 146.031 59.7943 146.031 59.5547ZM146.281 55.875L146.297 56.8906H144.836C144.424 56.8906 144.057 56.9245 143.734 56.9922C143.411 57.0547 143.141 57.151 142.922 57.2812C142.703 57.4115 142.536 57.5755 142.422 57.7734C142.307 57.9661 142.25 58.1927 142.25 58.4531C142.25 58.7188 142.31 58.9609 142.43 59.1797C142.549 59.3984 142.729 59.5729 142.969 59.7031C143.214 59.8281 143.513 59.8906 143.867 59.8906C144.31 59.8906 144.701 59.7969 145.039 59.6094C145.378 59.4219 145.646 59.1927 145.844 58.9219C146.047 58.651 146.156 58.388 146.172 58.1328L146.789 58.8281C146.753 59.0469 146.654 59.2891 146.492 59.5547C146.331 59.8203 146.115 60.0755 145.844 60.3203C145.578 60.5599 145.26 60.7604 144.891 60.9219C144.526 61.0781 144.115 61.1562 143.656 61.1562C143.083 61.1562 142.581 61.0443 142.148 60.8203C141.721 60.5964 141.388 60.2969 141.148 59.9219C140.914 59.5417 140.797 59.1172 140.797 58.6484C140.797 58.1953 140.885 57.7969 141.062 57.4531C141.24 57.1042 141.495 56.8151 141.828 56.5859C142.161 56.3516 142.562 56.1745 143.031 56.0547C143.5 55.9349 144.023 55.875 144.602 55.875H146.281ZM151.32 49V61H149.867V49H151.32ZM71.6953 80H69.3203L69.3359 78.7734H71.6953C72.5078 78.7734 73.1849 78.6042 73.7266 78.2656C74.2682 77.9219 74.6745 77.4427 74.9453 76.8281C75.2214 76.2083 75.3594 75.4844 75.3594 74.6562V73.9609C75.3594 73.3099 75.2812 72.7318 75.125 72.2266C74.9688 71.7161 74.7396 71.2865 74.4375 70.9375C74.1354 70.5833 73.7656 70.3151 73.3281 70.1328C72.8958 69.9505 72.3984 69.8594 71.8359 69.8594H69.2734V68.625H71.8359C72.5807 68.625 73.2604 68.75 73.875 69C74.4896 69.2448 75.0182 69.6016 75.4609 70.0703C75.9089 70.5339 76.2526 71.0964 76.4922 71.7578C76.7318 72.4141 76.8516 73.1536 76.8516 73.9766V74.6562C76.8516 75.4792 76.7318 76.2214 76.4922 76.8828C76.2526 77.5391 75.9062 78.099 75.4531 78.5625C75.0052 79.026 74.4635 79.3828 73.8281 79.6328C73.1979 79.8776 72.487 80 71.6953 80ZM70.125 68.625V80H68.6172V68.625H70.125ZM83.8828 78.5547V74.2031C83.8828 73.8698 83.8151 73.5807 83.6797 73.3359C83.5495 73.0859 83.3516 72.8932 83.0859 72.7578C82.8203 72.6224 82.4922 72.5547 82.1016 72.5547C81.737 72.5547 81.4167 72.6172 81.1406 72.7422C80.8698 72.8672 80.6562 73.0312 80.5 73.2344C80.349 73.4375 80.2734 73.6562 80.2734 73.8906H78.8281C78.8281 73.5885 78.9062 73.2891 79.0625 72.9922C79.2188 72.6953 79.4427 72.4271 79.7344 72.1875C80.0312 71.9427 80.3854 71.75 80.7969 71.6094C81.2135 71.4635 81.6771 71.3906 82.1875 71.3906C82.8021 71.3906 83.3438 71.4948 83.8125 71.7031C84.2865 71.9115 84.6562 72.2266 84.9219 72.6484C85.1927 73.0651 85.3281 73.5885 85.3281 74.2188V78.1562C85.3281 78.4375 85.3516 78.737 85.3984 79.0547C85.4505 79.3724 85.526 79.6458 85.625 79.875V80H84.1172C84.0443 79.8333 83.987 79.612 83.9453 79.3359C83.9036 79.0547 83.8828 78.7943 83.8828 78.5547ZM84.1328 74.875L84.1484 75.8906H82.6875C82.276 75.8906 81.9089 75.9245 81.5859 75.9922C81.263 76.0547 80.9922 76.151 80.7734 76.2812C80.5547 76.4115 80.388 76.5755 80.2734 76.7734C80.1589 76.9661 80.1016 77.1927 80.1016 77.4531C80.1016 77.7188 80.1615 77.9609 80.2812 78.1797C80.401 78.3984 80.5807 78.5729 80.8203 78.7031C81.0651 78.8281 81.3646 78.8906 81.7188 78.8906C82.1615 78.8906 82.5521 78.7969 82.8906 78.6094C83.2292 78.4219 83.4974 78.1927 83.6953 77.9219C83.8984 77.651 84.0078 77.388 84.0234 77.1328L84.6406 77.8281C84.6042 78.0469 84.5052 78.2891 84.3438 78.5547C84.1823 78.8203 83.9661 79.0755 83.6953 79.3203C83.4297 79.5599 83.112 79.7604 82.7422 79.9219C82.3776 80.0781 81.9661 80.1562 81.5078 80.1562C80.9349 80.1562 80.4323 80.0443 80 79.8203C79.5729 79.5964 79.2396 79.2969 79 78.9219C78.7656 78.5417 78.6484 78.1172 78.6484 77.6484C78.6484 77.1953 78.737 76.7969 78.9141 76.4531C79.0911 76.1042 79.3464 75.8151 79.6797 75.5859C80.013 75.3516 80.4141 75.1745 80.8828 75.0547C81.3516 74.9349 81.875 74.875 82.4531 74.875H84.1328ZM91.1406 71.5469V72.6562H86.5703V71.5469H91.1406ZM88.1172 69.4922H89.5625V77.9062C89.5625 78.1927 89.6068 78.4089 89.6953 78.5547C89.7839 78.7005 89.8984 78.7969 90.0391 78.8438C90.1797 78.8906 90.3307 78.9141 90.4922 78.9141C90.612 78.9141 90.737 78.9036 90.8672 78.8828C91.0026 78.8568 91.1042 78.8359 91.1719 78.8203L91.1797 80C91.0651 80.0365 90.9141 80.0703 90.7266 80.1016C90.5443 80.138 90.3229 80.1562 90.0625 80.1562C89.7083 80.1562 89.3828 80.0859 89.0859 79.9453C88.7891 79.8047 88.5521 79.5703 88.375 79.2422C88.2031 78.9089 88.1172 78.4609 88.1172 77.8984V69.4922ZM97.8203 78.5547V74.2031C97.8203 73.8698 97.7526 73.5807 97.6172 73.3359C97.487 73.0859 97.2891 72.8932 97.0234 72.7578C96.7578 72.6224 96.4297 72.5547 96.0391 72.5547C95.6745 72.5547 95.3542 72.6172 95.0781 72.7422C94.8073 72.8672 94.5938 73.0312 94.4375 73.2344C94.2865 73.4375 94.2109 73.6562 94.2109 73.8906H92.7656C92.7656 73.5885 92.8438 73.2891 93 72.9922C93.1562 72.6953 93.3802 72.4271 93.6719 72.1875C93.9688 71.9427 94.3229 71.75 94.7344 71.6094C95.151 71.4635 95.6146 71.3906 96.125 71.3906C96.7396 71.3906 97.2812 71.4948 97.75 71.7031C98.224 71.9115 98.5938 72.2266 98.8594 72.6484C99.1302 73.0651 99.2656 73.5885 99.2656 74.2188V78.1562C99.2656 78.4375 99.2891 78.737 99.3359 79.0547C99.388 79.3724 99.4635 79.6458 99.5625 79.875V80H98.0547C97.9818 79.8333 97.9245 79.612 97.8828 79.3359C97.8411 79.0547 97.8203 78.7943 97.8203 78.5547ZM98.0703 74.875L98.0859 75.8906H96.625C96.2135 75.8906 95.8464 75.9245 95.5234 75.9922C95.2005 76.0547 94.9297 76.151 94.7109 76.2812C94.4922 76.4115 94.3255 76.5755 94.2109 76.7734C94.0964 76.9661 94.0391 77.1927 94.0391 77.4531C94.0391 77.7188 94.099 77.9609 94.2188 78.1797C94.3385 78.3984 94.5182 78.5729 94.7578 78.7031C95.0026 78.8281 95.3021 78.8906 95.6562 78.8906C96.099 78.8906 96.4896 78.7969 96.8281 78.6094C97.1667 78.4219 97.4349 78.1927 97.6328 77.9219C97.8359 77.651 97.9453 77.388 97.9609 77.1328L98.5781 77.8281C98.5417 78.0469 98.4427 78.2891 98.2812 78.5547C98.1198 78.8203 97.9036 79.0755 97.6328 79.3203C97.3672 79.5599 97.0495 79.7604 96.6797 79.9219C96.3151 80.0781 95.9036 80.1562 95.4453 80.1562C94.8724 80.1562 94.3698 80.0443 93.9375 79.8203C93.5104 79.5964 93.1771 79.2969 92.9375 78.9219C92.7031 78.5417 92.5859 78.1172 92.5859 77.6484C92.5859 77.1953 92.6745 76.7969 92.8516 76.4531C93.0286 76.1042 93.2839 75.8151 93.6172 75.5859C93.9505 75.3516 94.3516 75.1745 94.8203 75.0547C95.2891 74.9349 95.8125 74.875 96.3906 74.875H98.0703ZM111.789 77.125C111.789 76.8594 111.747 76.625 111.664 76.4219C111.586 76.2135 111.445 76.026 111.242 75.8594C111.044 75.6927 110.768 75.5339 110.414 75.3828C110.065 75.2318 109.622 75.0781 109.086 74.9219C108.523 74.7552 108.016 74.5703 107.562 74.3672C107.109 74.1589 106.721 73.9219 106.398 73.6562C106.076 73.3906 105.828 73.0859 105.656 72.7422C105.484 72.3984 105.398 72.0052 105.398 71.5625C105.398 71.1198 105.49 70.7109 105.672 70.3359C105.854 69.9609 106.115 69.6354 106.453 69.3594C106.797 69.0781 107.206 68.8594 107.68 68.7031C108.154 68.5469 108.682 68.4688 109.266 68.4688C110.12 68.4688 110.844 68.6328 111.438 68.9609C112.036 69.2839 112.492 69.7083 112.805 70.2344C113.117 70.7552 113.273 71.3125 113.273 71.9062H111.773C111.773 71.4792 111.682 71.1016 111.5 70.7734C111.318 70.4401 111.042 70.1797 110.672 69.9922C110.302 69.7995 109.833 69.7031 109.266 69.7031C108.729 69.7031 108.286 69.7839 107.938 69.9453C107.589 70.1068 107.328 70.3255 107.156 70.6016C106.99 70.8776 106.906 71.1927 106.906 71.5469C106.906 71.7865 106.956 72.0052 107.055 72.2031C107.159 72.3958 107.318 72.5755 107.531 72.7422C107.75 72.9089 108.026 73.0625 108.359 73.2031C108.698 73.3438 109.102 73.4792 109.57 73.6094C110.216 73.7917 110.773 73.9948 111.242 74.2188C111.711 74.4427 112.096 74.6953 112.398 74.9766C112.706 75.2526 112.932 75.5677 113.078 75.9219C113.229 76.2708 113.305 76.6667 113.305 77.1094C113.305 77.5729 113.211 77.9922 113.023 78.3672C112.836 78.7422 112.568 79.0625 112.219 79.3281C111.87 79.5938 111.451 79.7995 110.961 79.9453C110.477 80.0859 109.935 80.1562 109.336 80.1562C108.81 80.1562 108.292 80.0833 107.781 79.9375C107.276 79.7917 106.815 79.5729 106.398 79.2812C105.987 78.9896 105.656 78.6302 105.406 78.2031C105.161 77.7708 105.039 77.2708 105.039 76.7031H106.539C106.539 77.0938 106.615 77.4297 106.766 77.7109C106.917 77.987 107.122 78.2161 107.383 78.3984C107.648 78.5807 107.948 78.7161 108.281 78.8047C108.62 78.888 108.971 78.9297 109.336 78.9297C109.862 78.9297 110.307 78.8568 110.672 78.7109C111.036 78.5651 111.312 78.3568 111.5 78.0859C111.693 77.8151 111.789 77.4948 111.789 77.125ZM117.383 79.125L119.734 71.5469H121.281L117.891 81.3047C117.812 81.513 117.708 81.737 117.578 81.9766C117.453 82.2214 117.292 82.4531 117.094 82.6719C116.896 82.8906 116.656 83.0677 116.375 83.2031C116.099 83.3438 115.768 83.4141 115.383 83.4141C115.268 83.4141 115.122 83.3984 114.945 83.3672C114.768 83.3359 114.643 83.3099 114.57 83.2891L114.562 82.1172C114.604 82.1224 114.669 82.1276 114.758 82.1328C114.852 82.1432 114.917 82.1484 114.953 82.1484C115.281 82.1484 115.56 82.1042 115.789 82.0156C116.018 81.9323 116.211 81.7891 116.367 81.5859C116.529 81.388 116.667 81.1146 116.781 80.7656L117.383 79.125ZM115.656 71.5469L117.852 78.1094L118.227 79.6328L117.188 80.1641L114.078 71.5469H115.656ZM124.031 73.3516V80H122.586V71.5469H123.953L124.031 73.3516ZM123.688 75.4531L123.086 75.4297C123.091 74.8516 123.177 74.3177 123.344 73.8281C123.51 73.3333 123.745 72.9036 124.047 72.5391C124.349 72.1745 124.708 71.8932 125.125 71.6953C125.547 71.4922 126.013 71.3906 126.523 71.3906C126.94 71.3906 127.315 71.4479 127.648 71.5625C127.982 71.6719 128.266 71.849 128.5 72.0938C128.74 72.3385 128.922 72.6562 129.047 73.0469C129.172 73.4323 129.234 73.9036 129.234 74.4609V80H127.781V74.4453C127.781 74.0026 127.716 73.6484 127.586 73.3828C127.456 73.112 127.266 72.9167 127.016 72.7969C126.766 72.6719 126.458 72.6094 126.094 72.6094C125.734 72.6094 125.406 72.6849 125.109 72.8359C124.818 72.987 124.565 73.1953 124.352 73.4609C124.143 73.7266 123.979 74.0312 123.859 74.375C123.745 74.7135 123.688 75.0729 123.688 75.4531ZM134.812 78.9688C135.156 78.9688 135.474 78.8984 135.766 78.7578C136.057 78.6172 136.297 78.4245 136.484 78.1797C136.672 77.9297 136.779 77.6458 136.805 77.3281H138.18C138.154 77.8281 137.984 78.2943 137.672 78.7266C137.365 79.1536 136.961 79.5 136.461 79.7656C135.961 80.026 135.411 80.1562 134.812 80.1562C134.177 80.1562 133.622 80.0443 133.148 79.8203C132.68 79.5964 132.289 79.2891 131.977 78.8984C131.669 78.5078 131.438 78.0599 131.281 77.5547C131.13 77.0443 131.055 76.5052 131.055 75.9375V75.6094C131.055 75.0417 131.13 74.5052 131.281 74C131.438 73.4896 131.669 73.0391 131.977 72.6484C132.289 72.2578 132.68 71.9505 133.148 71.7266C133.622 71.5026 134.177 71.3906 134.812 71.3906C135.474 71.3906 136.052 71.526 136.547 71.7969C137.042 72.0625 137.43 72.4271 137.711 72.8906C137.997 73.349 138.154 73.8698 138.18 74.4531H136.805C136.779 74.1042 136.68 73.7891 136.508 73.5078C136.341 73.2266 136.112 73.0026 135.82 72.8359C135.534 72.6641 135.198 72.5781 134.812 72.5781C134.37 72.5781 133.997 72.6667 133.695 72.8438C133.398 73.0156 133.161 73.25 132.984 73.5469C132.812 73.8385 132.688 74.1641 132.609 74.5234C132.536 74.8776 132.5 75.2396 132.5 75.6094V75.9375C132.5 76.3073 132.536 76.6719 132.609 77.0312C132.682 77.3906 132.805 77.7161 132.977 78.0078C133.154 78.2995 133.391 78.5339 133.688 78.7109C133.99 78.8828 134.365 78.9688 134.812 78.9688Z" fill="white"/>
<path d="M47.8461 7.81836H45.6254V6.65234H47.8461C48.2328 6.65234 48.5453 6.58984 48.7836 6.46484C49.0219 6.33984 49.1957 6.16797 49.3051 5.94922C49.4184 5.72656 49.475 5.47266 49.475 5.1875C49.475 4.91797 49.4184 4.66602 49.3051 4.43164C49.1957 4.19336 49.0219 4.00195 48.7836 3.85742C48.5453 3.71289 48.2328 3.64062 47.8461 3.64062H46.0766V11H44.6059V2.46875H47.8461C48.5062 2.46875 49.0668 2.58594 49.5277 2.82031C49.9926 3.05078 50.3461 3.37109 50.5883 3.78125C50.8305 4.1875 50.9516 4.65234 50.9516 5.17578C50.9516 5.72656 50.8305 6.19922 50.5883 6.59375C50.3461 6.98828 49.9926 7.29102 49.5277 7.50195C49.0668 7.71289 48.5062 7.81836 47.8461 7.81836ZM58.257 2.46875H59.7219V8.16992C59.7219 8.81836 59.5812 9.36133 59.3 9.79883C59.0187 10.2363 58.6359 10.5664 58.1516 10.7891C57.6711 11.0078 57.134 11.1172 56.5402 11.1172C55.927 11.1172 55.3801 11.0078 54.8996 10.7891C54.4191 10.5664 54.0402 10.2363 53.7629 9.79883C53.4895 9.36133 53.3527 8.81836 53.3527 8.16992V2.46875H54.8176V8.16992C54.8176 8.58008 54.8879 8.91797 55.0285 9.18359C55.1691 9.44531 55.3684 9.63867 55.6262 9.76367C55.884 9.88867 56.1887 9.95117 56.5402 9.95117C56.8918 9.95117 57.1945 9.88867 57.4484 9.76367C57.7062 9.63867 57.9055 9.44531 58.0461 9.18359C58.1867 8.91797 58.257 8.58008 58.257 8.16992V2.46875ZM69.2891 2.46875V11H67.8184L63.9922 4.88867V11H62.5215V2.46875H63.9922L67.8301 8.5918V2.46875H69.2891ZM77.2801 8.22266H78.7449C78.698 8.78125 78.5418 9.2793 78.2762 9.7168C78.0105 10.1504 77.6375 10.4922 77.157 10.7422C76.6766 10.9922 76.0926 11.1172 75.4051 11.1172C74.8777 11.1172 74.4031 11.0234 73.9812 10.8359C73.5594 10.6445 73.198 10.375 72.8973 10.0273C72.5965 9.67578 72.366 9.25195 72.2059 8.75586C72.0496 8.25977 71.9715 7.70508 71.9715 7.0918V6.38281C71.9715 5.76953 72.0516 5.21484 72.2117 4.71875C72.3758 4.22266 72.6102 3.79883 72.9148 3.44727C73.2195 3.0918 73.5848 2.82031 74.0105 2.63281C74.4402 2.44531 74.9227 2.35156 75.4578 2.35156C76.1375 2.35156 76.7117 2.47656 77.1805 2.72656C77.6492 2.97656 78.0125 3.32227 78.2703 3.76367C78.532 4.20508 78.6922 4.71094 78.7508 5.28125H77.2859C77.2469 4.91406 77.1609 4.59961 77.0281 4.33789C76.8992 4.07617 76.7078 3.87695 76.4539 3.74023C76.2 3.59961 75.868 3.5293 75.4578 3.5293C75.1219 3.5293 74.8289 3.5918 74.5789 3.7168C74.3289 3.8418 74.1199 4.02539 73.952 4.26758C73.784 4.50977 73.657 4.80859 73.5711 5.16406C73.4891 5.51562 73.448 5.91797 73.448 6.37109V7.0918C73.448 7.52148 73.4852 7.91211 73.5594 8.26367C73.6375 8.61133 73.7547 8.91016 73.9109 9.16016C74.0711 9.41016 74.2742 9.60352 74.5203 9.74023C74.7664 9.87695 75.0613 9.94531 75.4051 9.94531C75.823 9.94531 76.1609 9.87891 76.4187 9.74609C76.6805 9.61328 76.8777 9.41992 77.0105 9.16602C77.1473 8.9082 77.2371 8.59375 77.2801 8.22266ZM86.9176 6.03125V7.19727H82.3883V6.03125H86.9176ZM82.7516 2.46875V11H81.2809V2.46875H82.7516ZM88.0484 2.46875V11H86.5836V2.46875H88.0484ZM98.4172 2.46875V11H96.9582V2.46875H98.4172ZM101.095 2.46875V3.64062H94.3039V2.46875H101.095ZM104.99 2.46875V11H103.52V2.46875H104.99ZM108.616 2.46875H109.929L112.395 9.04883L114.856 2.46875H116.169L112.911 11H111.868L108.616 2.46875ZM108.018 2.46875H109.266L109.483 8.16406V11H108.018V2.46875ZM115.518 2.46875H116.772V11H115.302V8.16406L115.518 2.46875ZM125.302 9.83398V11H120.773V9.83398H125.302ZM121.189 2.46875V11H119.718V2.46875H121.189ZM124.711 6.03125V7.17969H120.773V6.03125H124.711ZM125.273 2.46875V3.64062H120.773V2.46875H125.273ZM134.37 11H132.548L132.56 9.83398H134.37C134.898 9.83398 135.339 9.71875 135.695 9.48828C136.054 9.25781 136.323 8.92773 136.503 8.49805C136.687 8.06836 136.779 7.55664 136.779 6.96289V6.5C136.779 6.03906 136.726 5.63086 136.62 5.27539C136.519 4.91992 136.366 4.62109 136.163 4.37891C135.964 4.13672 135.718 3.95312 135.425 3.82812C135.136 3.70313 134.802 3.64062 134.423 3.64062H132.513V2.46875H134.423C134.989 2.46875 135.507 2.56445 135.976 2.75586C136.445 2.94336 136.849 3.21484 137.189 3.57031C137.532 3.92578 137.796 4.35156 137.98 4.84766C138.163 5.34375 138.255 5.89844 138.255 6.51172V6.96289C138.255 7.57617 138.163 8.13086 137.98 8.62695C137.796 9.12305 137.532 9.54883 137.189 9.9043C136.845 10.2559 136.435 10.5273 135.958 10.7188C135.486 10.9062 134.956 11 134.37 11ZM133.362 2.46875V11H131.892V2.46875H133.362ZM144.125 3.60547L141.576 11H140.035L143.246 2.46875H144.23L144.125 3.60547ZM146.258 11L143.703 3.60547L143.592 2.46875H144.582L147.805 11H146.258ZM146.135 7.83594V9.00195H141.494V7.83594H146.135ZM152.731 2.46875V11H151.272V2.46875H152.731ZM155.409 2.46875V3.64062H148.618V2.46875H155.409ZM160.494 3.60547L157.945 11H156.404L159.615 2.46875H160.599L160.494 3.60547ZM162.627 11L160.072 3.60547L159.961 2.46875H160.951L164.173 11H162.627ZM162.504 7.83594V9.00195H157.863V7.83594H162.504ZM57.1883 16.4688V25H55.7176L51.8914 18.8887V25H50.4207V16.4688H51.8914L55.7293 22.5918V16.4688H57.1883ZM65.7242 23.834V25H61.1949V23.834H65.7242ZM61.6109 16.4688V25H60.1402V16.4688H61.6109ZM65.1324 20.0312V21.1797H61.1949V20.0312H65.1324ZM65.6949 16.4688V17.6406H61.1949V16.4688H65.6949ZM71.4477 17.6055L68.8988 25H67.3578L70.5688 16.4688H71.5531L71.4477 17.6055ZM73.5805 25L71.0258 17.6055L70.9145 16.4688H71.9047L75.1273 25H73.5805ZM73.4574 21.8359V23.002H68.8168V21.8359H73.4574ZM77.2824 16.4688H80.3C80.9484 16.4688 81.5012 16.5664 81.9582 16.7617C82.4152 16.957 82.7648 17.2461 83.007 17.6289C83.2531 18.0078 83.3762 18.4766 83.3762 19.0352C83.3762 19.4609 83.298 19.8359 83.1418 20.1602C82.9855 20.4844 82.7648 20.7578 82.4797 20.9805C82.1945 21.1992 81.8547 21.3691 81.4602 21.4902L81.0148 21.707H78.302L78.2902 20.541H80.3234C80.675 20.541 80.968 20.4785 81.2023 20.3535C81.4367 20.2285 81.6125 20.0586 81.7297 19.8438C81.8508 19.625 81.9113 19.3789 81.9113 19.1055C81.9113 18.8086 81.8527 18.5508 81.7355 18.332C81.6223 18.1094 81.4465 17.9395 81.2082 17.8223C80.9699 17.7012 80.6672 17.6406 80.3 17.6406H78.7531V25H77.2824V16.4688ZM82.1516 25L80.1477 21.168L81.6887 21.1621L83.7219 24.9238V25H82.1516ZM90.2293 16.4688H93.2469C93.8953 16.4688 94.448 16.5664 94.9051 16.7617C95.3621 16.957 95.7117 17.2461 95.9539 17.6289C96.2 18.0078 96.323 18.4766 96.323 19.0352C96.323 19.4609 96.2449 19.8359 96.0887 20.1602C95.9324 20.4844 95.7117 20.7578 95.4266 20.9805C95.1414 21.1992 94.8016 21.3691 94.407 21.4902L93.9617 21.707H91.2488L91.2371 20.541H93.2703C93.6219 20.541 93.9148 20.4785 94.1492 20.3535C94.3836 20.2285 94.5594 20.0586 94.6766 19.8438C94.7977 19.625 94.8582 19.3789 94.8582 19.1055C94.8582 18.8086 94.7996 18.5508 94.6824 18.332C94.5691 18.1094 94.3934 17.9395 94.1551 17.8223C93.9168 17.7012 93.6141 17.6406 93.2469 17.6406H91.7V25H90.2293V16.4688ZM95.0984 25L93.0945 21.168L94.6355 21.1621L96.6688 24.9238V25H95.0984ZM104.572 23.834V25H100.043V23.834H104.572ZM100.459 16.4688V25H98.9879V16.4688H100.459ZM103.98 20.0312V21.1797H100.043V20.0312H103.98ZM104.543 16.4688V17.6406H100.043V16.4688H104.543ZM110.295 17.6055L107.746 25H106.205L109.416 16.4688H110.401L110.295 17.6055ZM112.428 25L109.873 17.6055L109.762 16.4688H110.752L113.975 25H112.428ZM112.305 21.8359V23.002H107.664V21.8359H112.305ZM121.474 23.834V25H117.191V23.834H121.474ZM117.601 16.4688V25H116.13V16.4688H117.601ZM131.227 16.4688V25H129.768V16.4688H131.227ZM133.905 16.4688V17.6406H127.114V16.4688H133.905ZM137.8 16.4688V25H136.33V16.4688H137.8ZM141.426 16.4688H142.739L145.205 23.0488L147.666 16.4688H148.979L145.721 25H144.678L141.426 16.4688ZM140.829 16.4688H142.077L142.293 22.1641V25H140.829V16.4688ZM148.329 16.4688H149.582V25H148.112V22.1641L148.329 16.4688ZM158.113 23.834V25H153.583V23.834H158.113ZM153.999 16.4688V25H152.529V16.4688H153.999ZM157.521 20.0312V21.1797H153.583V20.0312H157.521ZM158.083 16.4688V17.6406H153.583V16.4688H158.083Z" fill="#50565F"/>
<defs>
<filter id="filter0_d_1594_7529" x="37.7984" y="39" width="131.403" height="63.4033" filterUnits="userSpaceOnUse" color-interpolation-filters="sRGB">
<feFlood flood-opacity="0" result="BackgroundImageFix"/>
<feColorMatrix in="SourceAlpha" type="matrix" values="0 0 0 0 0 0 0 0 0 0 0 0 0 0 0 0 0 0 127 0" result="hardAlpha"/>
<feOffset dy="5.20165"/>
<feGaussianBlur stdDeviation="2.60082"/>
<feComposite in2="hardAlpha" operator="out"/>
<feColorMatrix type="matrix" values="0 0 0 0 0.713381 0 0 0 0 0.713381 0 0 0 0 0.713381 0 0 0 0.13 0"/>
<feBlend mode="normal" in2="BackgroundImageFix" result="effect1_dropShadow_1594_7529"/>
<feBlend mode="normal" in="SourceGraphic" in2="effect1_dropShadow_1594_7529" result="shape"/>
</filter>
<linearGradient id="paint0_linear_1594_7529" x1="203" y1="60" x2="3" y2="60" gradientUnits="userSpaceOnUse">
<stop stop-color="#D29F3D" stop-opacity="0.1"/>
<stop offset="1" stop-color="#D29F3D"/>
</linearGradient>
</defs>
</svg>
