<svg width="133" height="144" viewBox="0 0 133 144" fill="none" xmlns="http://www.w3.org/2000/svg">
<line x1="67" y1="3" x2="67" y2="141" stroke="url(#paint0_linear_2435_54362)" stroke-width="2" stroke-linejoin="round"/>
<circle cx="67" cy="141" r="3" transform="rotate(-180 67 141)" fill="#D29F3D"/>
<circle cx="67" cy="3" r="3" transform="rotate(-180 67 3)" fill="#D29F3D"/>
<g filter="url(#filter0_d_2435_54362)">
<mask id="path-4-outside-1_2435_54362" maskUnits="userSpaceOnUse" x="6" y="63" width="121" height="53" fill="black">
<rect fill="white" x="6" y="63" width="121" height="53"/>
<path fill-rule="evenodd" clip-rule="evenodd" d="M124 73C124 69.134 120.866 66 117 66H16C12.134 66 9 69.134 9 73V86C9 89.866 12.134 93 16 93H18C21.866 93 25 96.134 25 100V106C25 109.866 28.134 113 32 113H101C104.866 113 108 109.866 108 106V100C108 96.134 111.134 93 115 93H117C120.866 93 124 89.866 124 86V73Z"/>
</mask>
<path fill-rule="evenodd" clip-rule="evenodd" d="M124 73C124 69.134 120.866 66 117 66H16C12.134 66 9 69.134 9 73V86C9 89.866 12.134 93 16 93H18C21.866 93 25 96.134 25 100V106C25 109.866 28.134 113 32 113H101C104.866 113 108 109.866 108 106V100C108 96.134 111.134 93 115 93H117C120.866 93 124 89.866 124 86V73Z" fill="#D29F3D"/>
<path d="M16 69H117V63H16V69ZM12 86V73H6V86H12ZM18 90H16V96H18V90ZM28 106V100H22V106H28ZM101 110H32V116H101V110ZM105 100V106H111V100H105ZM117 90H115V96H117V90ZM121 73V86H127V73H121ZM117 96C122.523 96 127 91.5228 127 86H121C121 88.2091 119.209 90 117 90V96ZM111 100C111 97.7909 112.791 96 115 96V90C109.477 90 105 94.4772 105 100H111ZM101 116C106.523 116 111 111.523 111 106H105C105 108.209 103.209 110 101 110V116ZM22 106C22 111.523 26.4772 116 32 116V110C29.7909 110 28 108.209 28 106H22ZM18 96C20.2091 96 22 97.7909 22 100H28C28 94.4772 23.5228 90 18 90V96ZM6 86C6 91.5228 10.4772 96 16 96V90C13.7909 90 12 88.2091 12 86H6ZM117 69C119.209 69 121 70.7909 121 73H127C127 67.4772 122.523 63 117 63V69ZM16 63C10.4772 63 6 67.4772 6 73H12C12 70.7909 13.7909 69 16 69V63Z" fill="white" mask="url(#path-4-outside-1_2435_54362)"/>
</g>
<path d="M21.8359 79.6797H18.9531L18.9375 78.4688H21.5547C21.987 78.4688 22.3646 78.3958 22.6875 78.25C23.0104 78.1042 23.2604 77.8958 23.4375 77.625C23.6198 77.349 23.7109 77.0208 23.7109 76.6406C23.7109 76.224 23.6302 75.8854 23.4688 75.625C23.3125 75.3594 23.0703 75.1667 22.7422 75.0469C22.4193 74.9219 22.0078 74.8594 21.5078 74.8594H19.2891V85H17.7812V73.625H21.5078C22.0911 73.625 22.612 73.6849 23.0703 73.8047C23.5286 73.9193 23.9167 74.1016 24.2344 74.3516C24.5573 74.5964 24.8021 74.9089 24.9688 75.2891C25.1354 75.6693 25.2188 76.125 25.2188 76.6562C25.2188 77.125 25.099 77.5495 24.8594 77.9297C24.6198 78.3047 24.2865 78.612 23.8594 78.8516C23.4375 79.0911 22.9427 79.2448 22.375 79.3125L21.8359 79.6797ZM21.7656 85H18.3594L19.2109 83.7734H21.7656C22.2448 83.7734 22.651 83.6901 22.9844 83.5234C23.3229 83.3568 23.5807 83.1224 23.7578 82.8203C23.9349 82.513 24.0234 82.151 24.0234 81.7344C24.0234 81.3125 23.9479 80.9479 23.7969 80.6406C23.6458 80.3333 23.4089 80.0964 23.0859 79.9297C22.763 79.763 22.3464 79.6797 21.8359 79.6797H19.6875L19.7031 78.4688H22.6406L22.9609 78.9062C23.5078 78.9531 23.9714 79.1094 24.3516 79.375C24.7318 79.6354 25.0208 79.9688 25.2188 80.375C25.4219 80.7812 25.5234 81.2292 25.5234 81.7188C25.5234 82.4271 25.3672 83.026 25.0547 83.5156C24.7474 84 24.3125 84.3698 23.75 84.625C23.1875 84.875 22.526 85 21.7656 85ZM29.1016 76.5469V85H27.6484V76.5469H29.1016ZM27.5391 74.3047C27.5391 74.0703 27.6094 73.8724 27.75 73.7109C27.8958 73.5495 28.1094 73.4688 28.3906 73.4688C28.6667 73.4688 28.8776 73.5495 29.0234 73.7109C29.1745 73.8724 29.25 74.0703 29.25 74.3047C29.25 74.5286 29.1745 74.7214 29.0234 74.8828C28.8776 75.0391 28.6667 75.1172 28.3906 75.1172C28.1094 75.1172 27.8958 75.0391 27.75 74.8828C27.6094 74.7214 27.5391 74.5286 27.5391 74.3047ZM34.4297 79.5703V80.7578H30.6172V79.5703H34.4297ZM39.1406 85H36.7656L36.7812 83.7734H39.1406C39.9531 83.7734 40.6302 83.6042 41.1719 83.2656C41.7135 82.9219 42.1198 82.4427 42.3906 81.8281C42.6667 81.2083 42.8047 80.4844 42.8047 79.6562V78.9609C42.8047 78.3099 42.7266 77.7318 42.5703 77.2266C42.4141 76.7161 42.1849 76.2865 41.8828 75.9375C41.5807 75.5833 41.2109 75.3151 40.7734 75.1328C40.3411 74.9505 39.8438 74.8594 39.2812 74.8594H36.7188V73.625H39.2812C40.026 73.625 40.7057 73.75 41.3203 74C41.9349 74.2448 42.4635 74.6016 42.9062 75.0703C43.3542 75.5339 43.6979 76.0964 43.9375 76.7578C44.1771 77.4141 44.2969 78.1536 44.2969 78.9766V79.6562C44.2969 80.4792 44.1771 81.2214 43.9375 81.8828C43.6979 82.5391 43.3516 83.099 42.8984 83.5625C42.4505 84.026 41.9089 84.3828 41.2734 84.6328C40.6432 84.8776 39.9323 85 39.1406 85ZM37.5703 73.625V85H36.0625V73.625H37.5703ZM49.8516 85.1562C49.263 85.1562 48.7292 85.0573 48.25 84.8594C47.776 84.6562 47.3672 84.3724 47.0234 84.0078C46.6849 83.6432 46.4245 83.2109 46.2422 82.7109C46.0599 82.2109 45.9688 81.6641 45.9688 81.0703V80.7422C45.9688 80.0547 46.0703 79.4427 46.2734 78.9062C46.4766 78.3646 46.7526 77.9062 47.1016 77.5312C47.4505 77.1562 47.8464 76.8724 48.2891 76.6797C48.7318 76.487 49.1901 76.3906 49.6641 76.3906C50.2682 76.3906 50.7891 76.4948 51.2266 76.7031C51.6693 76.9115 52.0312 77.2031 52.3125 77.5781C52.5938 77.9479 52.8021 78.3854 52.9375 78.8906C53.0729 79.3906 53.1406 79.9375 53.1406 80.5312V81.1797H46.8281V80H51.6953V79.8906C51.6745 79.5156 51.5964 79.151 51.4609 78.7969C51.3307 78.4427 51.1224 78.151 50.8359 77.9219C50.5495 77.6927 50.1589 77.5781 49.6641 77.5781C49.3359 77.5781 49.0339 77.6484 48.7578 77.7891C48.4818 77.9245 48.2448 78.1276 48.0469 78.3984C47.849 78.6693 47.6953 79 47.5859 79.3906C47.4766 79.7812 47.4219 80.2318 47.4219 80.7422V81.0703C47.4219 81.4714 47.4766 81.849 47.5859 82.2031C47.7005 82.5521 47.8646 82.8594 48.0781 83.125C48.2969 83.3906 48.5599 83.599 48.8672 83.75C49.1797 83.901 49.5339 83.9766 49.9297 83.9766C50.4401 83.9766 50.8724 83.8724 51.2266 83.6641C51.5807 83.4557 51.8906 83.1771 52.1562 82.8281L53.0312 83.5234C52.849 83.7995 52.6172 84.0625 52.3359 84.3125C52.0547 84.5625 51.7083 84.7656 51.2969 84.9219C50.8906 85.0781 50.4089 85.1562 49.8516 85.1562ZM56.2734 77.875V85H54.8281V76.5469H56.2344L56.2734 77.875ZM58.9141 76.5L58.9062 77.8438C58.7865 77.8177 58.6719 77.8021 58.5625 77.7969C58.4583 77.7865 58.3385 77.7812 58.2031 77.7812C57.8698 77.7812 57.5755 77.8333 57.3203 77.9375C57.0651 78.0417 56.849 78.1875 56.6719 78.375C56.4948 78.5625 56.3542 78.7865 56.25 79.0469C56.151 79.3021 56.0859 79.5833 56.0547 79.8906L55.6484 80.125C55.6484 79.6146 55.6979 79.1354 55.7969 78.6875C55.901 78.2396 56.0599 77.8438 56.2734 77.5C56.487 77.151 56.7578 76.8802 57.0859 76.6875C57.4193 76.4896 57.8151 76.3906 58.2734 76.3906C58.3776 76.3906 58.4974 76.4036 58.6328 76.4297C58.7682 76.4505 58.862 76.474 58.9141 76.5ZM63.6016 85.1562C63.013 85.1562 62.4792 85.0573 62 84.8594C61.526 84.6562 61.1172 84.3724 60.7734 84.0078C60.4349 83.6432 60.1745 83.2109 59.9922 82.7109C59.8099 82.2109 59.7188 81.6641 59.7188 81.0703V80.7422C59.7188 80.0547 59.8203 79.4427 60.0234 78.9062C60.2266 78.3646 60.5026 77.9062 60.8516 77.5312C61.2005 77.1562 61.5964 76.8724 62.0391 76.6797C62.4818 76.487 62.9401 76.3906 63.4141 76.3906C64.0182 76.3906 64.5391 76.4948 64.9766 76.7031C65.4193 76.9115 65.7812 77.2031 66.0625 77.5781C66.3438 77.9479 66.5521 78.3854 66.6875 78.8906C66.8229 79.3906 66.8906 79.9375 66.8906 80.5312V81.1797H60.5781V80H65.4453V79.8906C65.4245 79.5156 65.3464 79.151 65.2109 78.7969C65.0807 78.4427 64.8724 78.151 64.5859 77.9219C64.2995 77.6927 63.9089 77.5781 63.4141 77.5781C63.0859 77.5781 62.7839 77.6484 62.5078 77.7891C62.2318 77.9245 61.9948 78.1276 61.7969 78.3984C61.599 78.6693 61.4453 79 61.3359 79.3906C61.2266 79.7812 61.1719 80.2318 61.1719 80.7422V81.0703C61.1719 81.4714 61.2266 81.849 61.3359 82.2031C61.4505 82.5521 61.6146 82.8594 61.8281 83.125C62.0469 83.3906 62.3099 83.599 62.6172 83.75C62.9297 83.901 63.2839 83.9766 63.6797 83.9766C64.1901 83.9766 64.6224 83.8724 64.9766 83.6641C65.3307 83.4557 65.6406 83.1771 65.9062 82.8281L66.7812 83.5234C66.599 83.7995 66.3672 84.0625 66.0859 84.3125C65.8047 84.5625 65.4583 84.7656 65.0469 84.9219C64.6406 85.0781 64.1589 85.1562 63.6016 85.1562ZM71.9609 83.9688C72.3047 83.9688 72.6224 83.8984 72.9141 83.7578C73.2057 83.6172 73.4453 83.4245 73.6328 83.1797C73.8203 82.9297 73.9271 82.6458 73.9531 82.3281H75.3281C75.3021 82.8281 75.1328 83.2943 74.8203 83.7266C74.513 84.1536 74.1094 84.5 73.6094 84.7656C73.1094 85.026 72.5599 85.1562 71.9609 85.1562C71.3255 85.1562 70.7708 85.0443 70.2969 84.8203C69.8281 84.5964 69.4375 84.2891 69.125 83.8984C68.8177 83.5078 68.5859 83.0599 68.4297 82.5547C68.2786 82.0443 68.2031 81.5052 68.2031 80.9375V80.6094C68.2031 80.0417 68.2786 79.5052 68.4297 79C68.5859 78.4896 68.8177 78.0391 69.125 77.6484C69.4375 77.2578 69.8281 76.9505 70.2969 76.7266C70.7708 76.5026 71.3255 76.3906 71.9609 76.3906C72.6224 76.3906 73.2005 76.526 73.6953 76.7969C74.1901 77.0625 74.5781 77.4271 74.8594 77.8906C75.1458 78.349 75.3021 78.8698 75.3281 79.4531H73.9531C73.9271 79.1042 73.8281 78.7891 73.6562 78.5078C73.4896 78.2266 73.2604 78.0026 72.9688 77.8359C72.6823 77.6641 72.3464 77.5781 71.9609 77.5781C71.5182 77.5781 71.1458 77.6667 70.8438 77.8438C70.5469 78.0156 70.3099 78.25 70.1328 78.5469C69.9609 78.8385 69.8359 79.1641 69.7578 79.5234C69.6849 79.8776 69.6484 80.2396 69.6484 80.6094V80.9375C69.6484 81.3073 69.6849 81.6719 69.7578 82.0312C69.8307 82.3906 69.9531 82.7161 70.125 83.0078C70.3021 83.2995 70.5391 83.5339 70.8359 83.7109C71.138 83.8828 71.513 83.9688 71.9609 83.9688ZM80.4922 76.5469V77.6562H75.9219V76.5469H80.4922ZM77.4688 74.4922H78.9141V82.9062C78.9141 83.1927 78.9583 83.4089 79.0469 83.5547C79.1354 83.7005 79.25 83.7969 79.3906 83.8438C79.5312 83.8906 79.6823 83.9141 79.8438 83.9141C79.9635 83.9141 80.0885 83.9036 80.2188 83.8828C80.3542 83.8568 80.4557 83.8359 80.5234 83.8203L80.5312 85C80.4167 85.0365 80.2656 85.0703 80.0781 85.1016C79.8958 85.138 79.6745 85.1562 79.4141 85.1562C79.0599 85.1562 78.7344 85.0859 78.4375 84.9453C78.1406 84.8047 77.9036 84.5703 77.7266 84.2422C77.5547 83.9089 77.4688 83.4609 77.4688 82.8984V74.4922ZM83.7578 76.5469V85H82.3047V76.5469H83.7578ZM82.1953 74.3047C82.1953 74.0703 82.2656 73.8724 82.4062 73.7109C82.5521 73.5495 82.7656 73.4688 83.0469 73.4688C83.3229 73.4688 83.5339 73.5495 83.6797 73.7109C83.8307 73.8724 83.9062 74.0703 83.9062 74.3047C83.9062 74.5286 83.8307 74.7214 83.6797 74.8828C83.5339 75.0391 83.3229 75.1172 83.0469 75.1172C82.7656 75.1172 82.5521 75.0391 82.4062 74.8828C82.2656 74.7214 82.1953 74.5286 82.1953 74.3047ZM85.6953 80.8672V80.6875C85.6953 80.0781 85.7839 79.513 85.9609 78.9922C86.138 78.4661 86.3932 78.0104 86.7266 77.625C87.0599 77.2344 87.4635 76.9323 87.9375 76.7188C88.4115 76.5 88.9427 76.3906 89.5312 76.3906C90.125 76.3906 90.6589 76.5 91.1328 76.7188C91.612 76.9323 92.0182 77.2344 92.3516 77.625C92.6901 78.0104 92.9479 78.4661 93.125 78.9922C93.3021 79.513 93.3906 80.0781 93.3906 80.6875V80.8672C93.3906 81.4766 93.3021 82.0417 93.125 82.5625C92.9479 83.0833 92.6901 83.5391 92.3516 83.9297C92.0182 84.3151 91.6146 84.6172 91.1406 84.8359C90.6719 85.0495 90.1406 85.1562 89.5469 85.1562C88.9531 85.1562 88.4193 85.0495 87.9453 84.8359C87.4714 84.6172 87.0651 84.3151 86.7266 83.9297C86.3932 83.5391 86.138 83.0833 85.9609 82.5625C85.7839 82.0417 85.6953 81.4766 85.6953 80.8672ZM87.1406 80.6875V80.8672C87.1406 81.2891 87.1901 81.6875 87.2891 82.0625C87.388 82.4323 87.5365 82.7604 87.7344 83.0469C87.9375 83.3333 88.1901 83.5599 88.4922 83.7266C88.7943 83.888 89.1458 83.9688 89.5469 83.9688C89.9427 83.9688 90.2891 83.888 90.5859 83.7266C90.888 83.5599 91.138 83.3333 91.3359 83.0469C91.5339 82.7604 91.6823 82.4323 91.7812 82.0625C91.8854 81.6875 91.9375 81.2891 91.9375 80.8672V80.6875C91.9375 80.2708 91.8854 79.8776 91.7812 79.5078C91.6823 79.1328 91.5312 78.8021 91.3281 78.5156C91.1302 78.224 90.8802 77.9948 90.5781 77.8281C90.2812 77.6615 89.9323 77.5781 89.5312 77.5781C89.1354 77.5781 88.7865 77.6615 88.4844 77.8281C88.1875 77.9948 87.9375 78.224 87.7344 78.5156C87.5365 78.8021 87.388 79.1328 87.2891 79.5078C87.1901 79.8776 87.1406 80.2708 87.1406 80.6875ZM96.6484 78.3516V85H95.2031V76.5469H96.5703L96.6484 78.3516ZM96.3047 80.4531L95.7031 80.4297C95.7083 79.8516 95.7943 79.3177 95.9609 78.8281C96.1276 78.3333 96.362 77.9036 96.6641 77.5391C96.9661 77.1745 97.3255 76.8932 97.7422 76.6953C98.1641 76.4922 98.6302 76.3906 99.1406 76.3906C99.5573 76.3906 99.9323 76.4479 100.266 76.5625C100.599 76.6719 100.883 76.849 101.117 77.0938C101.357 77.3385 101.539 77.6562 101.664 78.0469C101.789 78.4323 101.852 78.9036 101.852 79.4609V85H100.398V79.4453C100.398 79.0026 100.333 78.6484 100.203 78.3828C100.073 78.112 99.8828 77.9167 99.6328 77.7969C99.3828 77.6719 99.0755 77.6094 98.7109 77.6094C98.3516 77.6094 98.0234 77.6849 97.7266 77.8359C97.4349 77.987 97.1823 78.1953 96.9688 78.4609C96.7604 78.7266 96.5964 79.0312 96.4766 79.375C96.362 79.7135 96.3047 80.0729 96.3047 80.4531ZM109.031 83.5547V79.2031C109.031 78.8698 108.964 78.5807 108.828 78.3359C108.698 78.0859 108.5 77.8932 108.234 77.7578C107.969 77.6224 107.641 77.5547 107.25 77.5547C106.885 77.5547 106.565 77.6172 106.289 77.7422C106.018 77.8672 105.805 78.0312 105.648 78.2344C105.497 78.4375 105.422 78.6562 105.422 78.8906H103.977C103.977 78.5885 104.055 78.2891 104.211 77.9922C104.367 77.6953 104.591 77.4271 104.883 77.1875C105.18 76.9427 105.534 76.75 105.945 76.6094C106.362 76.4635 106.826 76.3906 107.336 76.3906C107.951 76.3906 108.492 76.4948 108.961 76.7031C109.435 76.9115 109.805 77.2266 110.07 77.6484C110.341 78.0651 110.477 78.5885 110.477 79.2188V83.1562C110.477 83.4375 110.5 83.737 110.547 84.0547C110.599 84.3724 110.674 84.6458 110.773 84.875V85H109.266C109.193 84.8333 109.135 84.612 109.094 84.3359C109.052 84.0547 109.031 83.7943 109.031 83.5547ZM109.281 79.875L109.297 80.8906H107.836C107.424 80.8906 107.057 80.9245 106.734 80.9922C106.411 81.0547 106.141 81.151 105.922 81.2812C105.703 81.4115 105.536 81.5755 105.422 81.7734C105.307 81.9661 105.25 82.1927 105.25 82.4531C105.25 82.7188 105.31 82.9609 105.43 83.1797C105.549 83.3984 105.729 83.5729 105.969 83.7031C106.214 83.8281 106.513 83.8906 106.867 83.8906C107.31 83.8906 107.701 83.7969 108.039 83.6094C108.378 83.4219 108.646 83.1927 108.844 82.9219C109.047 82.651 109.156 82.388 109.172 82.1328L109.789 82.8281C109.753 83.0469 109.654 83.2891 109.492 83.5547C109.331 83.8203 109.115 84.0755 108.844 84.3203C108.578 84.5599 108.26 84.7604 107.891 84.9219C107.526 85.0781 107.115 85.1562 106.656 85.1562C106.083 85.1562 105.581 85.0443 105.148 84.8203C104.721 84.5964 104.388 84.2969 104.148 83.9219C103.914 83.5417 103.797 83.1172 103.797 82.6484C103.797 82.1953 103.885 81.7969 104.062 81.4531C104.24 81.1042 104.495 80.8151 104.828 80.5859C105.161 80.3516 105.562 80.1745 106.031 80.0547C106.5 79.9349 107.023 79.875 107.602 79.875H109.281ZM114.32 73V85H112.867V73H114.32ZM34.6953 104H32.3203L32.3359 102.773H34.6953C35.5078 102.773 36.1849 102.604 36.7266 102.266C37.2682 101.922 37.6745 101.443 37.9453 100.828C38.2214 100.208 38.3594 99.4844 38.3594 98.6562V97.9609C38.3594 97.3099 38.2812 96.7318 38.125 96.2266C37.9688 95.7161 37.7396 95.2865 37.4375 94.9375C37.1354 94.5833 36.7656 94.3151 36.3281 94.1328C35.8958 93.9505 35.3984 93.8594 34.8359 93.8594H32.2734V92.625H34.8359C35.5807 92.625 36.2604 92.75 36.875 93C37.4896 93.2448 38.0182 93.6016 38.4609 94.0703C38.9089 94.5339 39.2526 95.0964 39.4922 95.7578C39.7318 96.4141 39.8516 97.1536 39.8516 97.9766V98.6562C39.8516 99.4792 39.7318 100.221 39.4922 100.883C39.2526 101.539 38.9062 102.099 38.4531 102.562C38.0052 103.026 37.4635 103.383 36.8281 103.633C36.1979 103.878 35.487 104 34.6953 104ZM33.125 92.625V104H31.6172V92.625H33.125ZM46.8828 102.555V98.2031C46.8828 97.8698 46.8151 97.5807 46.6797 97.3359C46.5495 97.0859 46.3516 96.8932 46.0859 96.7578C45.8203 96.6224 45.4922 96.5547 45.1016 96.5547C44.737 96.5547 44.4167 96.6172 44.1406 96.7422C43.8698 96.8672 43.6562 97.0312 43.5 97.2344C43.349 97.4375 43.2734 97.6562 43.2734 97.8906H41.8281C41.8281 97.5885 41.9062 97.2891 42.0625 96.9922C42.2188 96.6953 42.4427 96.4271 42.7344 96.1875C43.0312 95.9427 43.3854 95.75 43.7969 95.6094C44.2135 95.4635 44.6771 95.3906 45.1875 95.3906C45.8021 95.3906 46.3438 95.4948 46.8125 95.7031C47.2865 95.9115 47.6562 96.2266 47.9219 96.6484C48.1927 97.0651 48.3281 97.5885 48.3281 98.2188V102.156C48.3281 102.438 48.3516 102.737 48.3984 103.055C48.4505 103.372 48.526 103.646 48.625 103.875V104H47.1172C47.0443 103.833 46.987 103.612 46.9453 103.336C46.9036 103.055 46.8828 102.794 46.8828 102.555ZM47.1328 98.875L47.1484 99.8906H45.6875C45.276 99.8906 44.9089 99.9245 44.5859 99.9922C44.263 100.055 43.9922 100.151 43.7734 100.281C43.5547 100.411 43.388 100.576 43.2734 100.773C43.1589 100.966 43.1016 101.193 43.1016 101.453C43.1016 101.719 43.1615 101.961 43.2812 102.18C43.401 102.398 43.5807 102.573 43.8203 102.703C44.0651 102.828 44.3646 102.891 44.7188 102.891C45.1615 102.891 45.5521 102.797 45.8906 102.609C46.2292 102.422 46.4974 102.193 46.6953 101.922C46.8984 101.651 47.0078 101.388 47.0234 101.133L47.6406 101.828C47.6042 102.047 47.5052 102.289 47.3438 102.555C47.1823 102.82 46.9661 103.076 46.6953 103.32C46.4297 103.56 46.112 103.76 45.7422 103.922C45.3776 104.078 44.9661 104.156 44.5078 104.156C43.9349 104.156 43.4323 104.044 43 103.82C42.5729 103.596 42.2396 103.297 42 102.922C41.7656 102.542 41.6484 102.117 41.6484 101.648C41.6484 101.195 41.737 100.797 41.9141 100.453C42.0911 100.104 42.3464 99.8151 42.6797 99.5859C43.013 99.3516 43.4141 99.1745 43.8828 99.0547C44.3516 98.9349 44.875 98.875 45.4531 98.875H47.1328ZM54.1406 95.5469V96.6562H49.5703V95.5469H54.1406ZM51.1172 93.4922H52.5625V101.906C52.5625 102.193 52.6068 102.409 52.6953 102.555C52.7839 102.701 52.8984 102.797 53.0391 102.844C53.1797 102.891 53.3307 102.914 53.4922 102.914C53.612 102.914 53.737 102.904 53.8672 102.883C54.0026 102.857 54.1042 102.836 54.1719 102.82L54.1797 104C54.0651 104.036 53.9141 104.07 53.7266 104.102C53.5443 104.138 53.3229 104.156 53.0625 104.156C52.7083 104.156 52.3828 104.086 52.0859 103.945C51.7891 103.805 51.5521 103.57 51.375 103.242C51.2031 102.909 51.1172 102.461 51.1172 101.898V93.4922ZM60.8203 102.555V98.2031C60.8203 97.8698 60.7526 97.5807 60.6172 97.3359C60.487 97.0859 60.2891 96.8932 60.0234 96.7578C59.7578 96.6224 59.4297 96.5547 59.0391 96.5547C58.6745 96.5547 58.3542 96.6172 58.0781 96.7422C57.8073 96.8672 57.5938 97.0312 57.4375 97.2344C57.2865 97.4375 57.2109 97.6562 57.2109 97.8906H55.7656C55.7656 97.5885 55.8438 97.2891 56 96.9922C56.1562 96.6953 56.3802 96.4271 56.6719 96.1875C56.9688 95.9427 57.3229 95.75 57.7344 95.6094C58.151 95.4635 58.6146 95.3906 59.125 95.3906C59.7396 95.3906 60.2812 95.4948 60.75 95.7031C61.224 95.9115 61.5938 96.2266 61.8594 96.6484C62.1302 97.0651 62.2656 97.5885 62.2656 98.2188V102.156C62.2656 102.438 62.2891 102.737 62.3359 103.055C62.388 103.372 62.4635 103.646 62.5625 103.875V104H61.0547C60.9818 103.833 60.9245 103.612 60.8828 103.336C60.8411 103.055 60.8203 102.794 60.8203 102.555ZM61.0703 98.875L61.0859 99.8906H59.625C59.2135 99.8906 58.8464 99.9245 58.5234 99.9922C58.2005 100.055 57.9297 100.151 57.7109 100.281C57.4922 100.411 57.3255 100.576 57.2109 100.773C57.0964 100.966 57.0391 101.193 57.0391 101.453C57.0391 101.719 57.099 101.961 57.2188 102.18C57.3385 102.398 57.5182 102.573 57.7578 102.703C58.0026 102.828 58.3021 102.891 58.6562 102.891C59.099 102.891 59.4896 102.797 59.8281 102.609C60.1667 102.422 60.4349 102.193 60.6328 101.922C60.8359 101.651 60.9453 101.388 60.9609 101.133L61.5781 101.828C61.5417 102.047 61.4427 102.289 61.2812 102.555C61.1198 102.82 60.9036 103.076 60.6328 103.32C60.3672 103.56 60.0495 103.76 59.6797 103.922C59.3151 104.078 58.9036 104.156 58.4453 104.156C57.8724 104.156 57.3698 104.044 56.9375 103.82C56.5104 103.596 56.1771 103.297 55.9375 102.922C55.7031 102.542 55.5859 102.117 55.5859 101.648C55.5859 101.195 55.6745 100.797 55.8516 100.453C56.0286 100.104 56.2839 99.8151 56.6172 99.5859C56.9505 99.3516 57.3516 99.1745 57.8203 99.0547C58.2891 98.9349 58.8125 98.875 59.3906 98.875H61.0703ZM74.7891 101.125C74.7891 100.859 74.7474 100.625 74.6641 100.422C74.5859 100.214 74.4453 100.026 74.2422 99.8594C74.0443 99.6927 73.7682 99.5339 73.4141 99.3828C73.0651 99.2318 72.6224 99.0781 72.0859 98.9219C71.5234 98.7552 71.0156 98.5703 70.5625 98.3672C70.1094 98.1589 69.7214 97.9219 69.3984 97.6562C69.0755 97.3906 68.8281 97.0859 68.6562 96.7422C68.4844 96.3984 68.3984 96.0052 68.3984 95.5625C68.3984 95.1198 68.4896 94.7109 68.6719 94.3359C68.8542 93.9609 69.1146 93.6354 69.4531 93.3594C69.7969 93.0781 70.2057 92.8594 70.6797 92.7031C71.1536 92.5469 71.6823 92.4688 72.2656 92.4688C73.1198 92.4688 73.8438 92.6328 74.4375 92.9609C75.0365 93.2839 75.4922 93.7083 75.8047 94.2344C76.1172 94.7552 76.2734 95.3125 76.2734 95.9062H74.7734C74.7734 95.4792 74.6823 95.1016 74.5 94.7734C74.3177 94.4401 74.0417 94.1797 73.6719 93.9922C73.3021 93.7995 72.8333 93.7031 72.2656 93.7031C71.7292 93.7031 71.2865 93.7839 70.9375 93.9453C70.5885 94.1068 70.3281 94.3255 70.1562 94.6016C69.9896 94.8776 69.9062 95.1927 69.9062 95.5469C69.9062 95.7865 69.9557 96.0052 70.0547 96.2031C70.1589 96.3958 70.3177 96.5755 70.5312 96.7422C70.75 96.9089 71.026 97.0625 71.3594 97.2031C71.6979 97.3438 72.1016 97.4792 72.5703 97.6094C73.2161 97.7917 73.7734 97.9948 74.2422 98.2188C74.7109 98.4427 75.0964 98.6953 75.3984 98.9766C75.7057 99.2526 75.9323 99.5677 76.0781 99.9219C76.2292 100.271 76.3047 100.667 76.3047 101.109C76.3047 101.573 76.2109 101.992 76.0234 102.367C75.8359 102.742 75.5677 103.062 75.2188 103.328C74.8698 103.594 74.4505 103.799 73.9609 103.945C73.4766 104.086 72.9349 104.156 72.3359 104.156C71.8099 104.156 71.2917 104.083 70.7812 103.938C70.276 103.792 69.8151 103.573 69.3984 103.281C68.987 102.99 68.6562 102.63 68.4062 102.203C68.1615 101.771 68.0391 101.271 68.0391 100.703H69.5391C69.5391 101.094 69.6146 101.43 69.7656 101.711C69.9167 101.987 70.1224 102.216 70.3828 102.398C70.6484 102.581 70.9479 102.716 71.2812 102.805C71.6198 102.888 71.9714 102.93 72.3359 102.93C72.862 102.93 73.3073 102.857 73.6719 102.711C74.0365 102.565 74.3125 102.357 74.5 102.086C74.6927 101.815 74.7891 101.495 74.7891 101.125ZM80.3828 103.125L82.7344 95.5469H84.2812L80.8906 105.305C80.8125 105.513 80.7083 105.737 80.5781 105.977C80.4531 106.221 80.2917 106.453 80.0938 106.672C79.8958 106.891 79.6562 107.068 79.375 107.203C79.099 107.344 78.7682 107.414 78.3828 107.414C78.2682 107.414 78.1224 107.398 77.9453 107.367C77.7682 107.336 77.6432 107.31 77.5703 107.289L77.5625 106.117C77.6042 106.122 77.6693 106.128 77.7578 106.133C77.8516 106.143 77.9167 106.148 77.9531 106.148C78.2812 106.148 78.5599 106.104 78.7891 106.016C79.0182 105.932 79.2109 105.789 79.3672 105.586C79.5286 105.388 79.6667 105.115 79.7812 104.766L80.3828 103.125ZM78.6562 95.5469L80.8516 102.109L81.2266 103.633L80.1875 104.164L77.0781 95.5469H78.6562ZM87.0312 97.3516V104H85.5859V95.5469H86.9531L87.0312 97.3516ZM86.6875 99.4531L86.0859 99.4297C86.0911 98.8516 86.1771 98.3177 86.3438 97.8281C86.5104 97.3333 86.7448 96.9036 87.0469 96.5391C87.349 96.1745 87.7083 95.8932 88.125 95.6953C88.5469 95.4922 89.013 95.3906 89.5234 95.3906C89.9401 95.3906 90.3151 95.4479 90.6484 95.5625C90.9818 95.6719 91.2656 95.849 91.5 96.0938C91.7396 96.3385 91.9219 96.6562 92.0469 97.0469C92.1719 97.4323 92.2344 97.9036 92.2344 98.4609V104H90.7812V98.4453C90.7812 98.0026 90.7161 97.6484 90.5859 97.3828C90.4557 97.112 90.2656 96.9167 90.0156 96.7969C89.7656 96.6719 89.4583 96.6094 89.0938 96.6094C88.7344 96.6094 88.4062 96.6849 88.1094 96.8359C87.8177 96.987 87.5651 97.1953 87.3516 97.4609C87.1432 97.7266 86.9792 98.0312 86.8594 98.375C86.7448 98.7135 86.6875 99.0729 86.6875 99.4531ZM97.8125 102.969C98.1562 102.969 98.474 102.898 98.7656 102.758C99.0573 102.617 99.2969 102.424 99.4844 102.18C99.6719 101.93 99.7786 101.646 99.8047 101.328H101.18C101.154 101.828 100.984 102.294 100.672 102.727C100.365 103.154 99.9609 103.5 99.4609 103.766C98.9609 104.026 98.4115 104.156 97.8125 104.156C97.1771 104.156 96.6224 104.044 96.1484 103.82C95.6797 103.596 95.2891 103.289 94.9766 102.898C94.6693 102.508 94.4375 102.06 94.2812 101.555C94.1302 101.044 94.0547 100.505 94.0547 99.9375V99.6094C94.0547 99.0417 94.1302 98.5052 94.2812 98C94.4375 97.4896 94.6693 97.0391 94.9766 96.6484C95.2891 96.2578 95.6797 95.9505 96.1484 95.7266C96.6224 95.5026 97.1771 95.3906 97.8125 95.3906C98.474 95.3906 99.0521 95.526 99.5469 95.7969C100.042 96.0625 100.43 96.4271 100.711 96.8906C100.997 97.349 101.154 97.8698 101.18 98.4531H99.8047C99.7786 98.1042 99.6797 97.7891 99.5078 97.5078C99.3411 97.2266 99.112 97.0026 98.8203 96.8359C98.5339 96.6641 98.1979 96.5781 97.8125 96.5781C97.3698 96.5781 96.9974 96.6667 96.6953 96.8438C96.3984 97.0156 96.1615 97.25 95.9844 97.5469C95.8125 97.8385 95.6875 98.1641 95.6094 98.5234C95.5365 98.8776 95.5 99.2396 95.5 99.6094V99.9375C95.5 100.307 95.5365 100.672 95.6094 101.031C95.6823 101.391 95.8047 101.716 95.9766 102.008C96.1536 102.299 96.3906 102.534 96.6875 102.711C96.9896 102.883 97.3646 102.969 97.8125 102.969Z" fill="white"/>
<path d="M10.3461 31.8184H8.12539V30.6523H10.3461C10.7328 30.6523 11.0453 30.5898 11.2836 30.4648C11.5219 30.3398 11.6957 30.168 11.8051 29.9492C11.9184 29.7266 11.975 29.4727 11.975 29.1875C11.975 28.918 11.9184 28.666 11.8051 28.4316C11.6957 28.1934 11.5219 28.002 11.2836 27.8574C11.0453 27.7129 10.7328 27.6406 10.3461 27.6406H8.57656V35H7.10586V26.4688H10.3461C11.0062 26.4688 11.5668 26.5859 12.0277 26.8203C12.4926 27.0508 12.8461 27.3711 13.0883 27.7812C13.3305 28.1875 13.4516 28.6523 13.4516 29.1758C13.4516 29.7266 13.3305 30.1992 13.0883 30.5938C12.8461 30.9883 12.4926 31.291 12.0277 31.502C11.5668 31.7129 11.0062 31.8184 10.3461 31.8184ZM20.757 26.4688H22.2219V32.1699C22.2219 32.8184 22.0812 33.3613 21.8 33.7988C21.5187 34.2363 21.1359 34.5664 20.6516 34.7891C20.1711 35.0078 19.634 35.1172 19.0402 35.1172C18.427 35.1172 17.8801 35.0078 17.3996 34.7891C16.9191 34.5664 16.5402 34.2363 16.2629 33.7988C15.9895 33.3613 15.8527 32.8184 15.8527 32.1699V26.4688H17.3176V32.1699C17.3176 32.5801 17.3879 32.918 17.5285 33.1836C17.6691 33.4453 17.8684 33.6387 18.1262 33.7637C18.384 33.8887 18.6887 33.9512 19.0402 33.9512C19.3918 33.9512 19.6945 33.8887 19.9484 33.7637C20.2062 33.6387 20.4055 33.4453 20.5461 33.1836C20.6867 32.918 20.757 32.5801 20.757 32.1699V26.4688ZM31.7891 26.4688V35H30.3184L26.4922 28.8887V35H25.0215V26.4688H26.4922L30.3301 32.5918V26.4688H31.7891ZM39.7801 32.2227H41.2449C41.198 32.7812 41.0418 33.2793 40.7762 33.7168C40.5105 34.1504 40.1375 34.4922 39.657 34.7422C39.1766 34.9922 38.5926 35.1172 37.9051 35.1172C37.3777 35.1172 36.9031 35.0234 36.4812 34.8359C36.0594 34.6445 35.698 34.375 35.3973 34.0273C35.0965 33.6758 34.866 33.252 34.7059 32.7559C34.5496 32.2598 34.4715 31.7051 34.4715 31.0918V30.3828C34.4715 29.7695 34.5516 29.2148 34.7117 28.7188C34.8758 28.2227 35.1102 27.7988 35.4148 27.4473C35.7195 27.0918 36.0848 26.8203 36.5105 26.6328C36.9402 26.4453 37.4227 26.3516 37.9578 26.3516C38.6375 26.3516 39.2117 26.4766 39.6805 26.7266C40.1492 26.9766 40.5125 27.3223 40.7703 27.7637C41.032 28.2051 41.1922 28.7109 41.2508 29.2812H39.7859C39.7469 28.9141 39.6609 28.5996 39.5281 28.3379C39.3992 28.0762 39.2078 27.877 38.9539 27.7402C38.7 27.5996 38.368 27.5293 37.9578 27.5293C37.6219 27.5293 37.3289 27.5918 37.0789 27.7168C36.8289 27.8418 36.6199 28.0254 36.452 28.2676C36.284 28.5098 36.157 28.8086 36.0711 29.1641C35.9891 29.5156 35.948 29.918 35.948 30.3711V31.0918C35.948 31.5215 35.9852 31.9121 36.0594 32.2637C36.1375 32.6113 36.2547 32.9102 36.4109 33.1602C36.5711 33.4102 36.7742 33.6035 37.0203 33.7402C37.2664 33.877 37.5613 33.9453 37.9051 33.9453C38.323 33.9453 38.6609 33.8789 38.9187 33.7461C39.1805 33.6133 39.3777 33.4199 39.5105 33.166C39.6473 32.9082 39.7371 32.5938 39.7801 32.2227ZM49.4176 30.0312V31.1973H44.8883V30.0312H49.4176ZM45.2516 26.4688V35H43.7809V26.4688H45.2516ZM50.5484 26.4688V35H49.0836V26.4688H50.5484ZM60.9172 26.4688V35H59.4582V26.4688H60.9172ZM63.5949 26.4688V27.6406H56.8039V26.4688H63.5949ZM67.4902 26.4688V35H66.0195V26.4688H67.4902ZM71.116 26.4688H72.4285L74.8953 33.0488L77.3562 26.4688H78.6687L75.4109 35H74.368L71.116 26.4688ZM70.5184 26.4688H71.7664L71.9832 32.1641V35H70.5184V26.4688ZM78.0184 26.4688H79.2723V35H77.8016V32.1641L78.0184 26.4688ZM87.8023 33.834V35H83.273V33.834H87.8023ZM83.6891 26.4688V35H82.2184V26.4688H83.6891ZM87.2105 30.0312V31.1797H83.273V30.0312H87.2105ZM87.773 26.4688V27.6406H83.273V26.4688H87.773ZM96.8703 35H95.048L95.0598 33.834H96.8703C97.3977 33.834 97.8391 33.7188 98.1945 33.4883C98.5539 33.2578 98.8234 32.9277 99.0031 32.498C99.1867 32.0684 99.2785 31.5566 99.2785 30.9629V30.5C99.2785 30.0391 99.2258 29.6309 99.1203 29.2754C99.0187 28.9199 98.8664 28.6211 98.6633 28.3789C98.4641 28.1367 98.218 27.9531 97.925 27.8281C97.6359 27.7031 97.3019 27.6406 96.923 27.6406H95.0129V26.4688H96.923C97.4894 26.4688 98.007 26.5645 98.4758 26.7559C98.9445 26.9434 99.3488 27.2148 99.6887 27.5703C100.032 27.9258 100.296 28.3516 100.48 28.8477C100.663 29.3438 100.755 29.8984 100.755 30.5117V30.9629C100.755 31.5762 100.663 32.1309 100.48 32.627C100.296 33.123 100.032 33.5488 99.6887 33.9043C99.3449 34.2559 98.9348 34.5273 98.4582 34.7188C97.9855 34.9062 97.4562 35 96.8703 35ZM95.8625 26.4688V35H94.3918V26.4688H95.8625ZM106.625 27.6055L104.076 35H102.535L105.746 26.4688H106.73L106.625 27.6055ZM108.758 35L106.203 27.6055L106.092 26.4688H107.082L110.305 35H108.758ZM108.635 31.8359V33.002H103.994V31.8359H108.635ZM115.231 26.4688V35H113.772V26.4688H115.231ZM117.909 26.4688V27.6406H111.118V26.4688H117.909ZM122.994 27.6055L120.445 35H118.904L122.115 26.4688H123.099L122.994 27.6055ZM125.127 35L122.572 27.6055L122.461 26.4688H123.451L126.673 35H125.127ZM125.004 31.8359V33.002H120.363V31.8359H125.004ZM19.6883 40.4688V49H18.2176L14.3914 42.8887V49H12.9207V40.4688H14.3914L18.2293 46.5918V40.4688H19.6883ZM28.2242 47.834V49H23.6949V47.834H28.2242ZM24.1109 40.4688V49H22.6402V40.4688H24.1109ZM27.6324 44.0312V45.1797H23.6949V44.0312H27.6324ZM28.1949 40.4688V41.6406H23.6949V40.4688H28.1949ZM33.9477 41.6055L31.3988 49H29.8578L33.0688 40.4688H34.0531L33.9477 41.6055ZM36.0805 49L33.5258 41.6055L33.4145 40.4688H34.4047L37.6273 49H36.0805ZM35.9574 45.8359V47.002H31.3168V45.8359H35.9574ZM39.7824 40.4688H42.8C43.4484 40.4688 44.0012 40.5664 44.4582 40.7617C44.9152 40.957 45.2648 41.2461 45.507 41.6289C45.7531 42.0078 45.8762 42.4766 45.8762 43.0352C45.8762 43.4609 45.798 43.8359 45.6418 44.1602C45.4855 44.4844 45.2648 44.7578 44.9797 44.9805C44.6945 45.1992 44.3547 45.3691 43.9602 45.4902L43.5148 45.707H40.802L40.7902 44.541H42.8234C43.175 44.541 43.468 44.4785 43.7023 44.3535C43.9367 44.2285 44.1125 44.0586 44.2297 43.8438C44.3508 43.625 44.4113 43.3789 44.4113 43.1055C44.4113 42.8086 44.3527 42.5508 44.2355 42.332C44.1223 42.1094 43.9465 41.9395 43.7082 41.8223C43.4699 41.7012 43.1672 41.6406 42.8 41.6406H41.2531V49H39.7824V40.4688ZM44.6516 49L42.6477 45.168L44.1887 45.1621L46.2219 48.9238V49H44.6516ZM52.7293 40.4688H55.7469C56.3953 40.4688 56.948 40.5664 57.4051 40.7617C57.8621 40.957 58.2117 41.2461 58.4539 41.6289C58.7 42.0078 58.823 42.4766 58.823 43.0352C58.823 43.4609 58.7449 43.8359 58.5887 44.1602C58.4324 44.4844 58.2117 44.7578 57.9266 44.9805C57.6414 45.1992 57.3016 45.3691 56.907 45.4902L56.4617 45.707H53.7488L53.7371 44.541H55.7703C56.1219 44.541 56.4148 44.4785 56.6492 44.3535C56.8836 44.2285 57.0594 44.0586 57.1766 43.8438C57.2977 43.625 57.3582 43.3789 57.3582 43.1055C57.3582 42.8086 57.2996 42.5508 57.1824 42.332C57.0691 42.1094 56.8934 41.9395 56.6551 41.8223C56.4168 41.7012 56.1141 41.6406 55.7469 41.6406H54.2V49H52.7293V40.4688ZM57.5984 49L55.5945 45.168L57.1355 45.1621L59.1688 48.9238V49H57.5984ZM67.0719 47.834V49H62.5426V47.834H67.0719ZM62.9586 40.4688V49H61.4879V40.4688H62.9586ZM66.4801 44.0312V45.1797H62.5426V44.0312H66.4801ZM67.0426 40.4688V41.6406H62.5426V40.4688H67.0426ZM72.7953 41.6055L70.2465 49H68.7055L71.9164 40.4688H72.9008L72.7953 41.6055ZM74.9281 49L72.3734 41.6055L72.2621 40.4688H73.2523L76.475 49H74.9281ZM74.8051 45.8359V47.002H70.1645V45.8359H74.8051ZM83.9738 47.834V49H79.6906V47.834H83.9738ZM80.1008 40.4688V49H78.6301V40.4688H80.1008ZM93.7273 40.4688V49H92.2684V40.4688H93.7273ZM96.4051 40.4688V41.6406H89.6141V40.4688H96.4051ZM100.3 40.4688V49H98.8297V40.4688H100.3ZM103.926 40.4688H105.239L107.705 47.0488L110.166 40.4688H111.479L108.221 49H107.178L103.926 40.4688ZM103.329 40.4688H104.577L104.793 46.1641V49H103.329V40.4688ZM110.829 40.4688H112.082V49H110.612V46.1641L110.829 40.4688ZM120.613 47.834V49H116.083V47.834H120.613ZM116.499 40.4688V49H115.029V40.4688H116.499ZM120.021 44.0312V45.1797H116.083V44.0312H120.021ZM120.583 40.4688V41.6406H116.083V40.4688H120.583Z" fill="#50565F"/>
<defs>
<filter id="filter0_d_2435_54362" x="0.798354" y="63" width="131.403" height="63.4033" filterUnits="userSpaceOnUse" color-interpolation-filters="sRGB">
<feFlood flood-opacity="0" result="BackgroundImageFix"/>
<feColorMatrix in="SourceAlpha" type="matrix" values="0 0 0 0 0 0 0 0 0 0 0 0 0 0 0 0 0 0 127 0" result="hardAlpha"/>
<feOffset dy="5.20165"/>
<feGaussianBlur stdDeviation="2.60082"/>
<feComposite in2="hardAlpha" operator="out"/>
<feColorMatrix type="matrix" values="0 0 0 0 0.713381 0 0 0 0 0.713381 0 0 0 0 0.713381 0 0 0 0.13 0"/>
<feBlend mode="normal" in2="BackgroundImageFix" result="effect1_dropShadow_2435_54362"/>
<feBlend mode="normal" in="SourceGraphic" in2="effect1_dropShadow_2435_54362" result="shape"/>
</filter>
<linearGradient id="paint0_linear_2435_54362" x1="65.5" y1="3" x2="65.5" y2="141" gradientUnits="userSpaceOnUse">
<stop stop-color="#D29F3D" stop-opacity="0.1"/>
<stop offset="1" stop-color="#D29F3D"/>
</linearGradient>
</defs>
</svg>
