<svg width="206" height="89" viewBox="0 0 206 89" fill="none" xmlns="http://www.w3.org/2000/svg">
<path d="M203 13C103 13 97.0959 106.071 3 33.0153" stroke="url(#paint0_linear_1594_7519)" stroke-width="2" stroke-linejoin="round"/>
<circle cx="203" cy="13" r="3" fill="#7EBB48"/>
<circle cx="3" cy="33" r="3" fill="#7EBB48"/>
<g filter="url(#filter0_d_1594_7519)">
<mask id="path-4-outside-1_1594_7519" maskUnits="userSpaceOnUse" x="34" y="25" width="139" height="53" fill="black">
<rect fill="white" x="34" y="25" width="139" height="53"/>
<path fill-rule="evenodd" clip-rule="evenodd" d="M170 35C170 31.134 166.866 28 163 28H44C40.134 28 37 31.134 37 35V48C37 51.866 40.134 55 44 55H48C51.866 55 55 58.134 55 62V68C55 71.866 58.134 75 62 75H145C148.866 75 152 71.866 152 68V62C152 58.134 155.134 55 159 55H163C166.866 55 170 51.866 170 48V35Z"/>
</mask>
<path fill-rule="evenodd" clip-rule="evenodd" d="M170 35C170 31.134 166.866 28 163 28H44C40.134 28 37 31.134 37 35V48C37 51.866 40.134 55 44 55H48C51.866 55 55 58.134 55 62V68C55 71.866 58.134 75 62 75H145C148.866 75 152 71.866 152 68V62C152 58.134 155.134 55 159 55H163C166.866 55 170 51.866 170 48V35Z" fill="#7EBB48"/>
<path d="M44 31H163V25H44V31ZM40 48V35H34V48H40ZM48 52H44V58H48V52ZM58 68V62H52V68H58ZM145 72H62V78H145V72ZM149 62V68H155V62H149ZM163 52H159V58H163V52ZM167 35V48H173V35H167ZM163 58C168.523 58 173 53.5228 173 48H167C167 50.2091 165.209 52 163 52V58ZM155 62C155 59.7909 156.791 58 159 58V52C153.477 52 149 56.4772 149 62H155ZM145 78C150.523 78 155 73.5228 155 68H149C149 70.2091 147.209 72 145 72V78ZM52 68C52 73.5228 56.4772 78 62 78V72C59.7909 72 58 70.2091 58 68H52ZM48 58C50.2091 58 52 59.7909 52 62H58C58 56.4772 53.5228 52 48 52V58ZM34 48C34 53.5228 38.4772 58 44 58V52C41.7909 52 40 50.2091 40 48H34ZM163 31C165.209 31 167 32.7909 167 35H173C173 29.4772 168.523 25 163 25V31ZM44 25C38.4772 25 34 29.4772 34 35H40C40 32.7909 41.7909 31 44 31V25Z" fill="white" mask="url(#path-4-outside-1_1594_7519)"/>
</g>
<path d="M45.6304 35.8H53.1504V37.016H47.0704V40.552H52.6384V41.72H47.0704V45.8H53.1504V47H45.6304V35.8ZM54.8596 38.936H56.2676V40.088C56.4809 39.6507 56.8062 39.3147 57.2436 39.08C57.6916 38.8453 58.1662 38.728 58.6676 38.728C59.2009 38.728 59.6702 38.8827 60.0756 39.192C60.4916 39.4907 60.7689 39.8907 60.9076 40.392C61.1529 39.88 61.5102 39.4747 61.9796 39.176C62.4596 38.8773 63.0249 38.728 63.6756 38.728C64.5609 38.728 65.2436 38.9947 65.7236 39.528C66.2142 40.0507 66.4596 40.808 66.4596 41.8V47H65.0516V42.04C65.0516 41.3467 64.9022 40.8187 64.6036 40.456C64.3156 40.0933 63.8942 39.912 63.3396 39.912C62.7209 39.912 62.2356 40.136 61.8836 40.584C61.5422 41.0213 61.3716 41.6027 61.3716 42.328V47H59.9636V42.04C59.9636 41.3467 59.8089 40.8187 59.4996 40.456C59.2009 40.0933 58.7742 39.912 58.2196 39.912C57.8676 39.912 57.5422 40.0187 57.2436 40.232C56.9449 40.4347 56.7049 40.7227 56.5236 41.096C56.3529 41.4587 56.2676 41.8693 56.2676 42.328V47H54.8596V38.936ZM68.4064 38.936H69.8144V40.152C70.4544 39.2027 71.3504 38.728 72.5024 38.728C73.1531 38.728 73.7451 38.9093 74.2784 39.272C74.8224 39.624 75.2491 40.1253 75.5584 40.776C75.8678 41.4267 76.0224 42.1627 76.0224 42.984C76.0224 43.8053 75.8678 44.5413 75.5584 45.192C75.2491 45.832 74.8224 46.328 74.2784 46.68C73.7451 47.032 73.1531 47.208 72.5024 47.208C71.9371 47.208 71.4198 47.0853 70.9504 46.84C70.4811 46.5947 70.1024 46.248 69.8144 45.8V49.656H68.4064V38.936ZM69.7344 42.968C69.7344 43.864 69.9531 44.6 70.3904 45.176C70.8278 45.7413 71.4198 46.024 72.1664 46.024C72.9238 46.024 73.5104 45.7467 73.9264 45.192C74.3531 44.6267 74.5664 43.8907 74.5664 42.984C74.5664 42.0773 74.3531 41.336 73.9264 40.76C73.4998 40.184 72.9131 39.896 72.1664 39.896C71.4198 39.896 70.8278 40.184 70.3904 40.76C69.9531 41.336 69.7344 42.072 69.7344 42.968ZM77.6423 35.8H79.0503V47H77.6423V35.8ZM84.5336 47.208C83.7336 47.208 83.0402 47.0267 82.4536 46.664C81.8669 46.2907 81.4189 45.784 81.1096 45.144C80.8002 44.504 80.6456 43.7787 80.6456 42.968C80.6456 42.168 80.8002 41.448 81.1096 40.808C81.4189 40.1573 81.8669 39.6507 82.4536 39.288C83.0402 38.9147 83.7336 38.728 84.5336 38.728C85.3336 38.728 86.0269 38.9147 86.6136 39.288C87.2002 39.6507 87.6482 40.1573 87.9576 40.808C88.2669 41.448 88.4216 42.168 88.4216 42.968C88.4216 43.7787 88.2669 44.504 87.9576 45.144C87.6482 45.784 87.2002 46.2907 86.6136 46.664C86.0269 47.0267 85.3336 47.208 84.5336 47.208ZM82.1016 42.952C82.1016 43.8373 82.2989 44.5733 82.6936 45.16C83.0882 45.7467 83.7016 46.04 84.5336 46.04C85.3549 46.04 85.9629 45.7467 86.3576 45.16C86.7629 44.5627 86.9656 43.8267 86.9656 42.952C86.9656 42.088 86.7629 41.3627 86.3576 40.776C85.9629 40.1893 85.3549 39.896 84.5336 39.896C83.7016 39.896 83.0882 40.1893 82.6936 40.776C82.2989 41.352 82.1016 42.0773 82.1016 42.952ZM89.5411 48.52H90.9331C91.1891 48.52 91.3811 48.4773 91.5091 48.392C91.6477 48.3173 91.7651 48.1627 91.8611 47.928L92.2611 46.856L89.0131 38.936H90.5331L92.9491 45.048L95.2211 38.936H96.6931L93.0611 48.408C92.8797 48.8987 92.6397 49.2293 92.3411 49.4C92.0424 49.5707 91.6371 49.656 91.1251 49.656H89.5411V48.52ZM101.111 47.208C100.332 47.208 99.6496 47.0267 99.0629 46.664C98.4869 46.2907 98.0389 45.784 97.7189 45.144C97.4096 44.504 97.2549 43.7787 97.2549 42.968C97.2549 42.168 97.4096 41.448 97.7189 40.808C98.0389 40.1573 98.4923 39.6507 99.0789 39.288C99.6656 38.9147 100.343 38.728 101.111 38.728C102.167 38.728 103.026 39.0533 103.687 39.704C104.359 40.3547 104.695 41.3947 104.695 42.824C104.695 43.048 104.69 43.2187 104.679 43.336H98.7109C98.7643 44.136 98.9883 44.7867 99.3829 45.288C99.7776 45.7893 100.354 46.04 101.111 46.04C101.644 46.04 102.082 45.9067 102.423 45.64C102.775 45.3733 103.026 44.984 103.175 44.472H104.583C104.423 45.2933 104.039 45.9547 103.431 46.456C102.823 46.9573 102.05 47.208 101.111 47.208ZM103.303 42.264C103.207 40.6747 102.476 39.88 101.111 39.88C100.418 39.88 99.8736 40.0987 99.4789 40.536C99.0843 40.9733 98.8389 41.5493 98.7429 42.264H103.303ZM109.658 47.208C108.879 47.208 108.196 47.0267 107.61 46.664C107.034 46.2907 106.586 45.784 106.266 45.144C105.956 44.504 105.802 43.7787 105.802 42.968C105.802 42.168 105.956 41.448 106.266 40.808C106.586 40.1573 107.039 39.6507 107.626 39.288C108.212 38.9147 108.89 38.728 109.658 38.728C110.714 38.728 111.572 39.0533 112.234 39.704C112.906 40.3547 113.242 41.3947 113.242 42.824C113.242 43.048 113.236 43.2187 113.226 43.336H107.258C107.311 44.136 107.535 44.7867 107.93 45.288C108.324 45.7893 108.9 46.04 109.658 46.04C110.191 46.04 110.628 45.9067 110.97 45.64C111.322 45.3733 111.572 44.984 111.722 44.472H113.13C112.97 45.2933 112.586 45.9547 111.978 46.456C111.37 46.9573 110.596 47.208 109.658 47.208ZM111.85 42.264C111.754 40.6747 111.023 39.88 109.658 39.88C108.964 39.88 108.42 40.0987 108.026 40.536C107.631 40.9733 107.386 41.5493 107.29 42.264H111.85ZM120.65 47C120.021 47 119.562 46.856 119.274 46.568C118.986 46.2693 118.842 45.784 118.842 45.112V40.088H117.562V38.936H118.474C118.581 38.936 118.666 38.904 118.73 38.84C118.805 38.776 118.842 38.6907 118.842 38.584V36.264H120.234V38.936H122.01V40.088H120.234V44.904C120.234 45.256 120.293 45.5013 120.41 45.64C120.528 45.768 120.746 45.832 121.066 45.832H122.202V47H120.65ZM123.705 38.936H125.113V47H123.705V38.936ZM123.625 35.8H125.209V37.56H123.625V35.8ZM127.172 38.936H128.58V40.088C128.793 39.6507 129.119 39.3147 129.556 39.08C130.004 38.8453 130.479 38.728 130.98 38.728C131.513 38.728 131.983 38.8827 132.388 39.192C132.804 39.4907 133.081 39.8907 133.22 40.392C133.465 39.88 133.823 39.4747 134.292 39.176C134.772 38.8773 135.337 38.728 135.988 38.728C136.873 38.728 137.556 38.9947 138.036 39.528C138.527 40.0507 138.772 40.808 138.772 41.8V47H137.364V42.04C137.364 41.3467 137.215 40.8187 136.916 40.456C136.628 40.0933 136.207 39.912 135.652 39.912C135.033 39.912 134.548 40.136 134.196 40.584C133.855 41.0213 133.684 41.6027 133.684 42.328V47H132.276V42.04C132.276 41.3467 132.121 40.8187 131.812 40.456C131.513 40.0933 131.087 39.912 130.532 39.912C130.18 39.912 129.855 40.0187 129.556 40.232C129.257 40.4347 129.017 40.7227 128.836 41.096C128.665 41.4587 128.58 41.8693 128.58 42.328V47H127.172V38.936ZM144.111 47.208C143.332 47.208 142.65 47.0267 142.063 46.664C141.487 46.2907 141.039 45.784 140.719 45.144C140.41 44.504 140.255 43.7787 140.255 42.968C140.255 42.168 140.41 41.448 140.719 40.808C141.039 40.1573 141.492 39.6507 142.079 39.288C142.666 38.9147 143.343 38.728 144.111 38.728C145.167 38.728 146.026 39.0533 146.687 39.704C147.359 40.3547 147.695 41.3947 147.695 42.824C147.695 43.048 147.69 43.2187 147.679 43.336H141.711C141.764 44.136 141.988 44.7867 142.383 45.288C142.778 45.7893 143.354 46.04 144.111 46.04C144.644 46.04 145.082 45.9067 145.423 45.64C145.775 45.3733 146.026 44.984 146.175 44.472H147.583C147.423 45.2933 147.039 45.9547 146.431 46.456C145.823 46.9573 145.05 47.208 144.111 47.208ZM146.303 42.264C146.207 40.6747 145.476 39.88 144.111 39.88C143.418 39.88 142.874 40.0987 142.479 40.536C142.084 40.9733 141.839 41.5493 141.743 42.264H146.303ZM154.943 40.584C154.559 40.1467 154.261 39.736 154.047 39.352C153.834 38.968 153.727 38.536 153.727 38.056C153.727 37.5973 153.845 37.1867 154.079 36.824C154.314 36.4507 154.645 36.1627 155.071 35.96C155.509 35.7467 156.005 35.64 156.559 35.64C157.381 35.64 158.021 35.8587 158.479 36.296C158.938 36.7333 159.167 37.2773 159.167 37.928C159.167 38.5893 158.97 39.1547 158.575 39.624C158.191 40.0827 157.674 40.504 157.023 40.888L159.295 43.496C159.605 42.856 159.813 42.1787 159.919 41.464H161.327C161.178 42.4667 160.794 43.4853 160.175 44.52L162.319 47H160.543L159.375 45.656C158.981 46.1467 158.511 46.52 157.967 46.776C157.423 47.032 156.757 47.16 155.967 47.16C155.327 47.16 154.735 47.048 154.191 46.824C153.647 46.6 153.21 46.264 152.879 45.816C152.549 45.368 152.383 44.824 152.383 44.184C152.383 43.512 152.581 42.888 152.975 42.312C153.381 41.7253 154.069 41.1867 155.039 40.696L154.943 40.584ZM153.871 44.024C153.871 44.6213 154.079 45.0853 154.495 45.416C154.922 45.7467 155.45 45.912 156.079 45.912C156.613 45.912 157.071 45.816 157.455 45.624C157.85 45.432 158.213 45.128 158.543 44.712L155.743 41.496C155.125 41.8267 154.655 42.2107 154.335 42.648C154.026 43.0853 153.871 43.544 153.871 44.024ZM155.151 37.992C155.151 38.312 155.231 38.6053 155.391 38.872C155.562 39.1387 155.823 39.48 156.175 39.896L156.351 40.104C156.746 39.8693 157.087 39.5707 157.375 39.208C157.663 38.8347 157.807 38.424 157.807 37.976C157.807 37.5707 157.685 37.2613 157.439 37.048C157.205 36.824 156.901 36.712 156.527 36.712C156.143 36.712 155.818 36.8293 155.551 37.064C155.285 37.2987 155.151 37.608 155.151 37.992ZM65.8961 54.8H67.3361V64.8H72.7761V66H65.8961V54.8ZM76.3979 66.208C75.5766 66.208 74.9206 65.9893 74.4299 65.552C73.9393 65.1147 73.6939 64.5387 73.6939 63.824C73.6939 62.9813 73.9659 62.3893 74.5099 62.048C75.0539 61.696 75.7579 61.4613 76.6219 61.344L78.3659 61.12C78.8779 61.0453 79.1339 60.768 79.1339 60.288C79.1339 59.872 78.9846 59.5307 78.6859 59.264C78.3979 58.9973 77.9659 58.864 77.3899 58.864C76.7926 58.864 76.3233 58.9973 75.9819 59.264C75.6406 59.5307 75.4379 59.9147 75.3739 60.416H73.9659C74.0513 59.6053 74.3979 58.9547 75.0059 58.464C75.6246 57.9733 76.4086 57.728 77.3579 57.728C78.4139 57.728 79.2033 57.9787 79.7259 58.48C80.2593 58.9813 80.5259 59.6907 80.5259 60.608V64.528C80.5259 64.6133 80.5579 64.688 80.6219 64.752C80.6859 64.8053 80.7659 64.832 80.8619 64.832H81.3579V66H80.3979C80.0246 66 79.7313 65.9093 79.5179 65.728C79.3153 65.5467 79.2139 65.3067 79.2139 65.008V64.816C78.8833 65.3067 78.4673 65.664 77.9659 65.888C77.4753 66.1013 76.9526 66.208 76.3979 66.208ZM75.1499 63.76C75.1499 64.176 75.2939 64.5013 75.5819 64.736C75.8699 64.96 76.2593 65.072 76.7499 65.072C77.4646 65.072 78.0406 64.832 78.4779 64.352C78.9153 63.8613 79.1339 63.2213 79.1339 62.432V61.856C78.9526 61.952 78.6806 62.032 78.3179 62.096L76.8939 62.32C76.2859 62.416 75.8433 62.5813 75.5659 62.816C75.2886 63.04 75.1499 63.3547 75.1499 63.76ZM86.9414 66.208C85.8001 66.208 84.9041 65.7333 84.2534 64.784V66H82.8454V54.8H84.2534V59.136C84.5414 58.6773 84.9201 58.3307 85.3894 58.096C85.8588 57.8507 86.3761 57.728 86.9414 57.728C87.5921 57.728 88.1841 57.904 88.7174 58.256C89.2508 58.608 89.6721 59.104 89.9814 59.744C90.3014 60.384 90.4614 61.1147 90.4614 61.936C90.4614 62.768 90.3014 63.5093 89.9814 64.16C89.6721 64.8 89.2508 65.3013 88.7174 65.664C88.1841 66.0267 87.5921 66.208 86.9414 66.208ZM84.1734 61.952C84.1734 62.848 84.3921 63.584 84.8294 64.16C85.2668 64.736 85.8588 65.024 86.6054 65.024C87.3521 65.024 87.9388 64.736 88.3654 64.16C88.7921 63.584 89.0054 62.8427 89.0054 61.936C89.0054 61.04 88.7921 60.3093 88.3654 59.744C87.9388 59.1787 87.3521 58.896 86.6054 58.896C85.8588 58.896 85.2668 59.184 84.8294 59.76C84.3921 60.3253 84.1734 61.056 84.1734 61.952ZM95.4398 66.208C94.6398 66.208 93.9465 66.0267 93.3598 65.664C92.7731 65.2907 92.3251 64.784 92.0158 64.144C91.7065 63.504 91.5518 62.7787 91.5518 61.968C91.5518 61.168 91.7065 60.448 92.0158 59.808C92.3251 59.1573 92.7731 58.6507 93.3598 58.288C93.9465 57.9147 94.6398 57.728 95.4398 57.728C96.2398 57.728 96.9331 57.9147 97.5198 58.288C98.1065 58.6507 98.5545 59.1573 98.8638 59.808C99.1731 60.448 99.3278 61.168 99.3278 61.968C99.3278 62.7787 99.1731 63.504 98.8638 64.144C98.5545 64.784 98.1065 65.2907 97.5198 65.664C96.9331 66.0267 96.2398 66.208 95.4398 66.208ZM93.0078 61.952C93.0078 62.8373 93.2051 63.5733 93.5998 64.16C93.9945 64.7467 94.6078 65.04 95.4398 65.04C96.2611 65.04 96.8691 64.7467 97.2638 64.16C97.6691 63.5627 97.8718 62.8267 97.8718 61.952C97.8718 61.088 97.6691 60.3627 97.2638 59.776C96.8691 59.1893 96.2611 58.896 95.4398 58.896C94.6078 58.896 93.9945 59.1893 93.5998 59.776C93.2051 60.352 93.0078 61.0773 93.0078 61.952ZM100.875 57.936H102.283V59.28C102.518 58.8 102.817 58.4587 103.179 58.256C103.553 58.0427 103.99 57.936 104.491 57.936H104.939V59.264H104.379C103.718 59.264 103.201 59.472 102.827 59.888C102.465 60.304 102.283 60.9173 102.283 61.728V66H100.875V57.936ZM110.037 54.8H113.909C114.954 54.8 115.871 55.04 116.661 55.52C117.461 56 118.074 56.6667 118.501 57.52C118.938 58.3627 119.157 59.3227 119.157 60.4C119.157 61.4773 118.938 62.4427 118.501 63.296C118.074 64.1387 117.461 64.8 116.661 65.28C115.871 65.76 114.954 66 113.909 66H110.037V54.8ZM113.829 64.8C114.607 64.8 115.279 64.6187 115.845 64.256C116.421 63.8933 116.858 63.3813 117.157 62.72C117.466 62.048 117.621 61.2747 117.621 60.4C117.621 59.5147 117.466 58.7467 117.157 58.096C116.858 57.4347 116.421 56.9227 115.845 56.56C115.279 56.1973 114.607 56.016 113.829 56.016H111.477V64.8H113.829ZM123.101 66.208C122.28 66.208 121.624 65.9893 121.133 65.552C120.642 65.1147 120.397 64.5387 120.397 63.824C120.397 62.9813 120.669 62.3893 121.213 62.048C121.757 61.696 122.461 61.4613 123.325 61.344L125.069 61.12C125.581 61.0453 125.837 60.768 125.837 60.288C125.837 59.872 125.688 59.5307 125.389 59.264C125.101 58.9973 124.669 58.864 124.093 58.864C123.496 58.864 123.026 58.9973 122.685 59.264C122.344 59.5307 122.141 59.9147 122.077 60.416H120.669C120.754 59.6053 121.101 58.9547 121.709 58.464C122.328 57.9733 123.112 57.728 124.061 57.728C125.117 57.728 125.906 57.9787 126.429 58.48C126.962 58.9813 127.229 59.6907 127.229 60.608V64.528C127.229 64.6133 127.261 64.688 127.325 64.752C127.389 64.8053 127.469 64.832 127.565 64.832H128.061V66H127.101C126.728 66 126.434 65.9093 126.221 65.728C126.018 65.5467 125.917 65.3067 125.917 65.008V64.816C125.586 65.3067 125.17 65.664 124.669 65.888C124.178 66.1013 123.656 66.208 123.101 66.208ZM121.853 63.76C121.853 64.176 121.997 64.5013 122.285 64.736C122.573 64.96 122.962 65.072 123.453 65.072C124.168 65.072 124.744 64.832 125.181 64.352C125.618 63.8613 125.837 63.2213 125.837 62.432V61.856C125.656 61.952 125.384 62.032 125.021 62.096L123.597 62.32C122.989 62.416 122.546 62.5813 122.269 62.816C121.992 63.04 121.853 63.3547 121.853 63.76ZM131.65 66C131.021 66 130.562 65.856 130.274 65.568C129.986 65.2693 129.842 64.784 129.842 64.112V59.088H128.562V57.936H129.474C129.581 57.936 129.666 57.904 129.73 57.84C129.805 57.776 129.842 57.6907 129.842 57.584V55.264H131.234V57.936H133.01V59.088H131.234V63.904C131.234 64.256 131.293 64.5013 131.41 64.64C131.528 64.768 131.746 64.832 132.066 64.832H133.202V66H131.65ZM136.96 66.208C136.139 66.208 135.483 65.9893 134.992 65.552C134.502 65.1147 134.256 64.5387 134.256 63.824C134.256 62.9813 134.528 62.3893 135.072 62.048C135.616 61.696 136.32 61.4613 137.184 61.344L138.928 61.12C139.44 61.0453 139.696 60.768 139.696 60.288C139.696 59.872 139.547 59.5307 139.248 59.264C138.96 58.9973 138.528 58.864 137.952 58.864C137.355 58.864 136.886 58.9973 136.544 59.264C136.203 59.5307 136 59.9147 135.936 60.416H134.528C134.614 59.6053 134.96 58.9547 135.568 58.464C136.187 57.9733 136.971 57.728 137.92 57.728C138.976 57.728 139.766 57.9787 140.288 58.48C140.822 58.9813 141.088 59.6907 141.088 60.608V64.528C141.088 64.6133 141.12 64.688 141.184 64.752C141.248 64.8053 141.328 64.832 141.424 64.832H141.92V66H140.96C140.587 66 140.294 65.9093 140.08 65.728C139.878 65.5467 139.776 65.3067 139.776 65.008V64.816C139.446 65.3067 139.03 65.664 138.528 65.888C138.038 66.1013 137.515 66.208 136.96 66.208ZM135.712 63.76C135.712 64.176 135.856 64.5013 136.144 64.736C136.432 64.96 136.822 65.072 137.312 65.072C138.027 65.072 138.603 64.832 139.04 64.352C139.478 63.8613 139.696 63.2213 139.696 62.432V61.856C139.515 61.952 139.243 62.032 138.88 62.096L137.456 62.32C136.848 62.416 136.406 62.5813 136.128 62.816C135.851 63.04 135.712 63.3547 135.712 63.76Z" fill="white"/>
<path d="M77.504 10.26L77.984 12H76.844L76.448 10.536C76.004 8.94 75.62 8.532 74.54 8.532H72.548V12H71.432V3.6H74.72C76.4 3.6 77.732 4.56 77.732 6.06C77.732 7.08 77.06 7.752 76.052 8.076C76.856 8.46 77.216 9.24 77.504 10.26ZM72.548 4.596V7.536H74.588C75.776 7.536 76.568 7.008 76.568 6.06C76.568 5.112 75.776 4.596 74.708 4.596H72.548ZM80.2375 12V3.6H86.0095V4.596H81.3655V7.296H85.5415V8.292H81.3655V11.004H86.0215V12H80.2375ZM93.8492 12L93.0572 9.756H89.5652L88.7612 12H87.5852L90.7292 3.6H91.8812L95.0252 12H93.8492ZM89.9132 8.76H92.6972L91.3052 4.836L89.9132 8.76ZM98.273 11.004H102.113V12H97.157V3.6H98.273V11.004ZM109.375 12V4.596H106.735V3.6H113.143V4.596H110.503V12H109.375ZM115.218 12V3.6H116.334V12H115.218ZM127.524 3.6V12H126.408V5.472L123.984 12H122.7L120.276 5.472V12H119.16V3.6H120.672L123.348 10.812L126.012 3.6H127.524ZM130.356 12V3.6H136.128V4.596H131.484V7.296H135.66V8.292H131.484V11.004H136.14V12H130.356Z" fill="#50565F"/>
<defs>
<filter id="filter0_d_1594_7519" x="28.7984" y="25" width="149.403" height="63.4033" filterUnits="userSpaceOnUse" color-interpolation-filters="sRGB">
<feFlood flood-opacity="0" result="BackgroundImageFix"/>
<feColorMatrix in="SourceAlpha" type="matrix" values="0 0 0 0 0 0 0 0 0 0 0 0 0 0 0 0 0 0 127 0" result="hardAlpha"/>
<feOffset dy="5.20165"/>
<feGaussianBlur stdDeviation="2.60082"/>
<feComposite in2="hardAlpha" operator="out"/>
<feColorMatrix type="matrix" values="0 0 0 0 0.713381 0 0 0 0 0.713381 0 0 0 0 0.713381 0 0 0 0.13 0"/>
<feBlend mode="normal" in2="BackgroundImageFix" result="effect1_dropShadow_1594_7519"/>
<feBlend mode="normal" in="SourceGraphic" in2="effect1_dropShadow_1594_7519" result="shape"/>
</filter>
<linearGradient id="paint0_linear_1594_7519" x1="3" y1="37" x2="203" y2="37" gradientUnits="userSpaceOnUse">
<stop stop-color="#7EBB48" stop-opacity="0.1"/>
<stop offset="1" stop-color="#7EBB48"/>
</linearGradient>
</defs>
</svg>
