<svg width="58" height="58" viewBox="0 0 58 58" fill="none" xmlns="http://www.w3.org/2000/svg">
<path d="M41.0846 54.9792H16.918C15.9271 54.9792 15.1055 54.1575 15.1055 53.1667C15.1055 52.1758 15.9271 51.3542 16.918 51.3542H41.0846C42.0755 51.3542 42.8971 52.1758 42.8971 53.1667C42.8971 54.1575 42.0755 54.9792 41.0846 54.9792Z" fill="#606C6D"/>
<path opacity="0.4" d="M43.4987 45.9167H14.4987C9.15786 45.9167 4.83203 41.5908 4.83203 36.25V14.5C4.83203 9.15918 9.15786 4.83334 14.4987 4.83334H43.4987C48.8395 4.83334 53.1654 9.15918 53.1654 14.5V36.25C53.1654 41.5908 48.8395 45.9167 43.4987 45.9167Z" fill="#606C6D"/>
<path d="M41.7097 21.9192H32.8164C31.8256 21.9192 31.0039 21.0975 31.0039 20.1067C31.0039 19.1159 31.8256 18.2942 32.8164 18.2942H41.7097C42.7006 18.2942 43.5222 19.1159 43.5222 20.1067C43.5222 21.0975 42.7247 21.9192 41.7097 21.9192Z" fill="#606C6D"/>
<path d="M24.1667 22.5234C22.8375 22.5234 21.75 21.4359 21.75 20.1067C21.75 18.7775 22.8133 17.69 24.1667 17.69C25.4958 17.69 26.5833 18.7775 26.5833 20.1067C26.5833 21.4359 25.52 22.5234 24.1667 22.5234Z" fill="#606C6D"/>
<path d="M16.5534 22.5233C15.2242 22.5233 14.1367 21.4358 14.1367 20.1067C14.1367 18.7775 15.2001 17.69 16.5534 17.69H16.5775C17.9067 17.69 18.9942 18.7775 18.9942 20.1067C18.9942 21.4358 17.8826 22.5233 16.5534 22.5233Z" fill="#606C6D"/>
<path d="M41.7124 35.9116H16.3132C15.3224 35.9116 14.4766 35.09 14.4766 34.0991C14.4766 33.1083 15.274 32.2866 16.2649 32.2866H41.7124C42.7032 32.2866 43.5249 33.1083 43.5249 34.0991C43.5249 35.09 42.7274 35.9116 41.7124 35.9116Z" fill="#606C6D"/>
</svg>
