<svg width="53" height="53" viewBox="0 0 53 53" fill="none" xmlns="http://www.w3.org/2000/svg">
<path d="M48.1532 26.0141C48.1532 38.0077 38.4303 47.7314 26.436 47.7314C14.4417 47.7314 4.71875 38.008 4.71875 26.0141C4.71875 14.0202 14.4417 4.29688 26.436 4.29688C38.4303 4.29688 48.1532 14.0206 48.1532 26.0141Z" fill="#006EB8"/>
<path d="M26.436 47.7314C38.4301 47.7314 48.1532 38.0082 48.1532 26.0141C48.1532 14.02 38.4301 4.29688 26.436 4.29688C14.4419 4.29688 4.71875 14.02 4.71875 26.0141C4.71875 38.0082 14.4419 47.7314 26.436 47.7314Z" stroke="white" stroke-width="0.213897" stroke-miterlimit="10"/>
<path d="M4.73438 26.8035C5.1502 38.4317 14.7056 47.7309 26.4352 47.7309C38.1647 47.7309 47.7212 38.4317 48.1371 26.8035H4.73438Z" fill="#171717"/>
<path d="M4.73438 26.8035C5.1502 38.4317 14.7056 47.7309 26.4352 47.7309C38.1647 47.7309 47.7212 38.4317 48.1371 26.8035H4.73438Z" stroke="white" stroke-width="0.213897" stroke-miterlimit="10"/>
<path d="M42.4747 25.9006C42.4747 34.7582 35.2935 41.9391 26.4366 41.9391C17.5789 41.9391 10.3984 34.7582 10.3984 25.9006C10.3984 17.0429 17.5789 9.86279 26.4366 9.86279C35.2938 9.86279 42.4747 17.0433 42.4747 25.9006Z" fill="white"/>
<path d="M26.4366 41.9386C35.2942 41.9386 42.4747 34.7581 42.4747 25.9004C42.4747 17.0428 35.2942 9.8623 26.4366 9.8623C17.579 9.8623 10.3984 17.0428 10.3984 25.9004C10.3984 34.7581 17.579 41.9386 26.4366 41.9386Z" stroke="white" stroke-width="0.213897" stroke-miterlimit="10"/>
<path d="M21.9215 31.4609C21.8862 31.1632 21.7433 30.9321 21.4926 30.7675C21.2418 30.603 20.9343 30.5207 20.57 30.5207C20.3037 30.5207 20.0706 30.5638 19.8708 30.65C19.673 30.7362 19.5182 30.8547 19.4066 31.0055C19.2969 31.1563 19.2421 31.3277 19.2421 31.5197C19.2421 31.6803 19.2803 31.8183 19.3566 31.9339C19.435 32.0475 19.5349 32.1425 19.6563 32.2189C19.7778 32.2933 19.9051 32.355 20.0383 32.404C20.1714 32.451 20.2939 32.4892 20.4055 32.5186L21.0166 32.6831C21.1733 32.7242 21.3476 32.781 21.5396 32.8535C21.7335 32.926 21.9186 33.0249 22.0948 33.1502C22.2731 33.2736 22.42 33.4323 22.5355 33.6262C22.6511 33.8201 22.7089 34.0581 22.7089 34.3401C22.7089 34.6653 22.6237 34.9591 22.4533 35.2215C22.2848 35.484 22.038 35.6926 21.7129 35.8473C21.3897 36.002 20.997 36.0794 20.5348 36.0794C20.1039 36.0794 19.7307 36.0099 19.4154 35.8708C19.102 35.7317 18.8552 35.5378 18.675 35.2891C18.4968 35.0403 18.3959 34.7514 18.3724 34.4224H19.1245C19.1441 34.6496 19.2205 34.8376 19.3537 34.9865C19.4889 35.1334 19.6593 35.2431 19.8649 35.3155C20.0725 35.386 20.2958 35.4213 20.5348 35.4213C20.8129 35.4213 21.0626 35.3762 21.284 35.2861C21.5053 35.1941 21.6806 35.0668 21.8099 34.9042C21.9391 34.7397 22.0038 34.5477 22.0038 34.3284C22.0038 34.1286 21.9479 33.966 21.8363 33.8407C21.7247 33.7153 21.5778 33.6135 21.3956 33.5351C21.2134 33.4568 21.0166 33.3882 20.8051 33.3295L20.0647 33.1179C19.5946 32.9828 19.2225 32.7898 18.9483 32.5391C18.6741 32.2884 18.5369 31.9604 18.5369 31.5549C18.5369 31.218 18.628 30.9242 18.8102 30.6735C18.9943 30.4209 19.2411 30.225 19.5506 30.0859C19.862 29.9449 20.2096 29.8744 20.5935 29.8744C20.9813 29.8744 21.3261 29.9439 21.6277 30.083C21.9293 30.2201 22.1683 30.4081 22.3446 30.6471C22.5228 30.886 22.6168 31.1573 22.6266 31.4609H21.9215ZM28.9837 32.9651C28.9837 33.5997 28.8691 34.1482 28.6399 34.6104C28.4108 35.0727 28.0964 35.4291 27.6968 35.6798C27.2973 35.9305 26.8409 36.0559 26.3277 36.0559C25.8146 36.0559 25.3582 35.9305 24.9586 35.6798C24.5591 35.4291 24.2447 35.0727 24.0155 34.6104C23.7864 34.1482 23.6718 33.5997 23.6718 32.9651C23.6718 32.3305 23.7864 31.7821 24.0155 31.3199C24.2447 30.8576 24.5591 30.5012 24.9586 30.2504C25.3582 29.9997 25.8146 29.8744 26.3277 29.8744C26.8409 29.8744 27.2973 29.9997 27.6968 30.2504C28.0964 30.5012 28.4108 30.8576 28.6399 31.3199C28.8691 31.7821 28.9837 32.3305 28.9837 32.9651ZM28.2786 32.9651C28.2786 32.4441 28.1914 32.0044 28.0171 31.646C27.8447 31.2876 27.6107 31.0163 27.3149 30.8322C27.0211 30.6481 26.692 30.556 26.3277 30.556C25.9634 30.556 25.6334 30.6481 25.3376 30.8322C25.0438 31.0163 24.8098 31.2876 24.6355 31.646C24.4631 32.0044 24.3769 32.4441 24.3769 32.9651C24.3769 33.4861 24.4631 33.9259 24.6355 34.2843C24.8098 34.6427 25.0438 34.914 25.3376 35.0981C25.6334 35.2822 25.9634 35.3743 26.3277 35.3743C26.692 35.3743 27.0211 35.2822 27.3149 35.0981C27.6107 34.914 27.8447 34.6427 28.0171 34.2843C28.1914 33.9259 28.2786 33.4861 28.2786 32.9651ZM35.0506 31.837H34.322C34.2789 31.6274 34.2035 31.4433 34.0958 31.2846C33.99 31.126 33.8607 30.9928 33.7079 30.8851C33.5571 30.7754 33.3897 30.6931 33.2055 30.6383C33.0214 30.5834 32.8295 30.556 32.6297 30.556C32.2654 30.556 31.9354 30.6481 31.6396 30.8322C31.3458 31.0163 31.1117 31.2876 30.9374 31.646C30.7651 32.0044 30.6789 32.4441 30.6789 32.9651C30.6789 33.4861 30.7651 33.9259 30.9374 34.2843C31.1117 34.6427 31.3458 34.914 31.6396 35.0981C31.9354 35.2822 32.2654 35.3743 32.6297 35.3743C32.8295 35.3743 33.0214 35.3469 33.2055 35.292C33.3897 35.2372 33.5571 35.1559 33.7079 35.0482C33.8607 34.9385 33.99 34.8043 34.0958 34.6457C34.2035 34.4851 34.2789 34.3009 34.322 34.0933H35.0506C34.9958 34.4008 34.8959 34.676 34.7509 34.9189C34.606 35.1618 34.4258 35.3684 34.2103 35.5388C33.9949 35.7073 33.753 35.8355 33.4847 35.9237C33.2183 36.0118 32.9333 36.0559 32.6297 36.0559C32.1165 36.0559 31.6602 35.9305 31.2606 35.6798C30.861 35.4291 30.5467 35.0727 30.3175 34.6104C30.0884 34.1482 29.9738 33.5997 29.9738 32.9651C29.9738 32.3305 30.0884 31.7821 30.3175 31.3199C30.5467 30.8576 30.861 30.5012 31.2606 30.2504C31.6602 29.9997 32.1165 29.8744 32.6297 29.8744C32.9333 29.8744 33.2183 29.9185 33.4847 30.0066C33.753 30.0947 33.9949 30.224 34.2103 30.3944C34.4258 30.5629 34.606 30.7685 34.7509 31.0114C34.8959 31.2523 34.9958 31.5275 35.0506 31.837Z" fill="#171717"/>
<path d="M18.7222 39.0679C18.6244 39.0679 18.5356 39.0495 18.4558 39.0126C18.3761 38.9751 18.3128 38.9212 18.2659 38.8508C18.219 38.7798 18.1955 38.694 18.1955 38.5935C18.1955 38.5051 18.2129 38.4334 18.2478 38.3784C18.2826 38.3228 18.3292 38.2793 18.3875 38.2478C18.4458 38.2163 18.5101 38.1928 18.5805 38.1774C18.6515 38.1613 18.7229 38.1486 18.7946 38.1392C18.8884 38.1272 18.9644 38.1181 19.0227 38.1121C19.0817 38.1054 19.1246 38.0943 19.1514 38.0789C19.1788 38.0635 19.1926 38.0367 19.1926 37.9985V37.9905C19.1926 37.8913 19.1654 37.8142 19.1112 37.7593C19.0576 37.7043 18.9761 37.6769 18.8669 37.6769C18.7537 37.6769 18.6649 37.7017 18.6006 37.7512C18.5362 37.8008 18.491 37.8538 18.4649 37.91L18.2397 37.8296C18.2799 37.7358 18.3335 37.6628 18.4006 37.6105C18.4682 37.5576 18.5419 37.5207 18.6217 37.5C18.7021 37.4785 18.7812 37.4678 18.8589 37.4678C18.9085 37.4678 18.9654 37.4738 19.0297 37.4859C19.0947 37.4973 19.1574 37.5211 19.2177 37.5573C19.2787 37.5934 19.3293 37.6481 19.3695 37.7211C19.4097 37.7941 19.4298 37.892 19.4298 38.0146V39.0317H19.1926V38.8227H19.1805C19.1644 38.8562 19.1376 38.892 19.1001 38.9302C19.0626 38.9684 19.0127 39.0009 18.9503 39.0277C18.888 39.0545 18.812 39.0679 18.7222 39.0679ZM18.7584 38.8548C18.8522 38.8548 18.9312 38.8364 18.9956 38.7996C19.0606 38.7627 19.1095 38.7151 19.1423 38.6568C19.1758 38.5985 19.1926 38.5372 19.1926 38.4729V38.2558C19.1825 38.2679 19.1604 38.2789 19.1262 38.289C19.0927 38.2984 19.0539 38.3067 19.0096 38.3141C18.9661 38.3208 18.9235 38.3268 18.882 38.3322C18.8411 38.3369 18.808 38.3409 18.7825 38.3443C18.7208 38.3523 18.6632 38.3654 18.6096 38.3835C18.5567 38.4009 18.5138 38.4273 18.481 38.4629C18.4488 38.4977 18.4327 38.5453 18.4327 38.6056C18.4327 38.688 18.4632 38.7503 18.5242 38.7925C18.5858 38.8341 18.6639 38.8548 18.7584 38.8548ZM19.8627 39.0317V37.4879H20.0999V39.0317H19.8627ZM19.9833 37.2306C19.9371 37.2306 19.8972 37.2149 19.8637 37.1834C19.8309 37.1519 19.8145 37.114 19.8145 37.0698C19.8145 37.0256 19.8309 36.9877 19.8637 36.9562C19.8972 36.9247 19.9371 36.909 19.9833 36.909C20.0296 36.909 20.0691 36.9247 20.1019 36.9562C20.1354 36.9877 20.1522 37.0256 20.1522 37.0698C20.1522 37.114 20.1354 37.1519 20.1019 37.1834C20.0691 37.2149 20.0296 37.2306 19.9833 37.2306ZM21.1616 39.0639C21.0168 39.0639 20.8922 39.0297 20.7877 38.9614C20.6831 38.893 20.6027 38.7989 20.5464 38.6789C20.4902 38.559 20.462 38.422 20.462 38.2679C20.462 38.1111 20.4908 37.9727 20.5484 37.8528C20.6067 37.7321 20.6878 37.638 20.7917 37.5703C20.8962 37.502 21.0182 37.4678 21.1575 37.4678C21.2661 37.4678 21.3639 37.4879 21.451 37.5281C21.5381 37.5683 21.6095 37.6246 21.6651 37.697C21.7207 37.7693 21.7552 37.8538 21.7686 37.9503H21.5314C21.5133 37.8799 21.4731 37.8176 21.4108 37.7633C21.3492 37.7084 21.2661 37.6809 21.1616 37.6809C21.0691 37.6809 20.988 37.705 20.9183 37.7533C20.8493 37.8008 20.7954 37.8682 20.7565 37.9553C20.7183 38.0417 20.6992 38.1432 20.6992 38.2598C20.6992 38.3791 20.718 38.483 20.7555 38.5714C20.7937 38.6599 20.8473 38.7285 20.9163 38.7774C20.986 38.8264 21.0677 38.8508 21.1616 38.8508C21.2232 38.8508 21.2792 38.8401 21.3294 38.8187C21.3797 38.7972 21.4222 38.7664 21.4571 38.7262C21.4919 38.686 21.5167 38.6377 21.5314 38.5815H21.7686C21.7552 38.6726 21.7221 38.7547 21.6691 38.8277C21.6169 38.9001 21.5475 38.9577 21.4611 39.0006C21.3753 39.0428 21.2755 39.0639 21.1616 39.0639ZM22.1154 39.6107V37.4879H22.3446V37.7332H22.3727C22.3901 37.7063 22.4142 37.6722 22.4451 37.6306C22.4766 37.5884 22.5215 37.5509 22.5797 37.5181C22.6387 37.4846 22.7185 37.4678 22.819 37.4678C22.949 37.4678 23.0635 37.5003 23.1627 37.5653C23.2619 37.6303 23.3393 37.7224 23.3949 37.8417C23.4505 37.961 23.4783 38.1017 23.4783 38.2638C23.4783 38.4273 23.4505 38.5691 23.3949 38.689C23.3393 38.8083 23.2622 38.9007 23.1637 38.9664C23.0652 39.0314 22.9516 39.0639 22.823 39.0639C22.7238 39.0639 22.6444 39.0475 22.5848 39.0147C22.5251 38.9811 22.4792 38.9433 22.4471 38.9011C22.4149 38.8582 22.3901 38.8227 22.3727 38.7945H22.3526V39.6107H22.1154ZM22.3486 38.2598C22.3486 38.3764 22.3657 38.4793 22.3998 38.5684C22.434 38.6568 22.4839 38.7262 22.5496 38.7764C22.6153 38.826 22.6957 38.8508 22.7908 38.8508C22.89 38.8508 22.9727 38.8247 23.0391 38.7724C23.1061 38.7195 23.1563 38.6485 23.1898 38.5593C23.224 38.4696 23.2411 38.3697 23.2411 38.2598C23.2411 38.1513 23.2244 38.0534 23.1908 37.9663C23.158 37.8786 23.1081 37.8092 23.0411 37.7583C22.9748 37.7067 22.8913 37.6809 22.7908 37.6809C22.6943 37.6809 22.6133 37.7053 22.5476 37.7543C22.4819 37.8025 22.4323 37.8702 22.3988 37.9573C22.3653 38.0437 22.3486 38.1446 22.3486 38.2598ZM24.2944 39.0679C24.1966 39.0679 24.1078 39.0495 24.0281 39.0126C23.9484 38.9751 23.885 38.9212 23.8381 38.8508C23.7912 38.7798 23.7678 38.694 23.7678 38.5935C23.7678 38.5051 23.7852 38.4334 23.82 38.3784C23.8549 38.3228 23.9015 38.2793 23.9597 38.2478C24.018 38.2163 24.0824 38.1928 24.1527 38.1774C24.2238 38.1613 24.2951 38.1486 24.3668 38.1392C24.4606 38.1272 24.5367 38.1181 24.595 38.1121C24.6539 38.1054 24.6968 38.0943 24.7236 38.0789C24.7511 38.0635 24.7648 38.0367 24.7648 37.9985V37.9905C24.7648 37.8913 24.7377 37.8142 24.6834 37.7593C24.6298 37.7043 24.5484 37.6769 24.4392 37.6769C24.3259 37.6769 24.2372 37.7017 24.1728 37.7512C24.1085 37.8008 24.0633 37.8538 24.0371 37.91L23.812 37.8296C23.8522 37.7358 23.9058 37.6628 23.9728 37.6105C24.0405 37.5576 24.1142 37.5207 24.1939 37.5C24.2743 37.4785 24.3534 37.4678 24.4311 37.4678C24.4807 37.4678 24.5377 37.4738 24.602 37.4859C24.667 37.4973 24.7297 37.5211 24.79 37.5573C24.8509 37.5934 24.9015 37.6481 24.9417 37.7211C24.9819 37.7941 25.002 37.892 25.002 38.0146V39.0317H24.7648V38.8227H24.7528C24.7367 38.8562 24.7099 38.892 24.6724 38.9302C24.6348 38.9684 24.5849 39.0009 24.5226 39.0277C24.4603 39.0545 24.3842 39.0679 24.2944 39.0679ZM24.3306 38.8548C24.4244 38.8548 24.5035 38.8364 24.5678 38.7996C24.6328 38.7627 24.6817 38.7151 24.7146 38.6568C24.7481 38.5985 24.7648 38.5372 24.7648 38.4729V38.2558C24.7548 38.2679 24.7327 38.2789 24.6985 38.289C24.665 38.2984 24.6261 38.3067 24.5819 38.3141C24.5383 38.3208 24.4958 38.3268 24.4543 38.3322C24.4134 38.3369 24.3802 38.3409 24.3548 38.3443C24.2931 38.3523 24.2355 38.3654 24.1819 38.3835C24.1289 38.4009 24.0861 38.4273 24.0532 38.4629C24.0211 38.4977 24.005 38.5453 24.005 38.6056C24.005 38.688 24.0355 38.7503 24.0964 38.7925C24.1581 38.8341 24.2362 38.8548 24.3306 38.8548ZM25.6079 39.0478C25.5583 39.0478 25.5157 39.0301 25.4802 38.9945C25.4447 38.959 25.4269 38.9165 25.4269 38.8669C25.4269 38.8173 25.4447 38.7748 25.4802 38.7393C25.5157 38.7037 25.5583 38.686 25.6079 38.686C25.6574 38.686 25.7 38.7037 25.7355 38.7393C25.771 38.7748 25.7888 38.8173 25.7888 38.8669C25.7888 38.8997 25.7804 38.9299 25.7636 38.9574C25.7476 38.9848 25.7258 39.0069 25.6983 39.0237C25.6715 39.0398 25.6414 39.0478 25.6079 39.0478ZM26.8416 39.0639C26.7022 39.0639 26.58 39.0307 26.4748 38.9644C26.3702 38.8981 26.2885 38.8053 26.2295 38.686C26.1712 38.5667 26.1421 38.4273 26.1421 38.2679C26.1421 38.107 26.1712 37.9667 26.2295 37.8467C26.2885 37.7268 26.3702 37.6336 26.4748 37.5673C26.58 37.501 26.7022 37.4678 26.8416 37.4678C26.981 37.4678 27.1029 37.501 27.2075 37.5673C27.3127 37.6336 27.3944 37.7268 27.4527 37.8467C27.5117 37.9667 27.5412 38.107 27.5412 38.2679C27.5412 38.4273 27.5117 38.5667 27.4527 38.686C27.3944 38.8053 27.3127 38.8981 27.2075 38.9644C27.1029 39.0307 26.981 39.0639 26.8416 39.0639ZM26.8416 38.8508C26.9475 38.8508 27.0346 38.8237 27.1029 38.7694C27.1713 38.7151 27.2219 38.6438 27.2547 38.5553C27.2875 38.4669 27.304 38.3711 27.304 38.2679C27.304 38.1647 27.2875 38.0685 27.2547 37.9794C27.2219 37.8903 27.1713 37.8183 27.1029 37.7633C27.0346 37.7084 26.9475 37.6809 26.8416 37.6809C26.7357 37.6809 26.6486 37.7084 26.5803 37.7633C26.5119 37.8183 26.4614 37.8903 26.4285 37.9794C26.3957 38.0685 26.3793 38.1647 26.3793 38.2679C26.3793 38.3711 26.3957 38.4669 26.4285 38.5553C26.4614 38.6438 26.5119 38.7151 26.5803 38.7694C26.6486 38.8237 26.7357 38.8508 26.8416 38.8508ZM27.9032 39.0317V37.4879H28.1324V37.7211H28.1485C28.1766 37.6447 28.2276 37.5827 28.3013 37.5351C28.375 37.4876 28.4581 37.4638 28.5505 37.4638C28.568 37.4638 28.5897 37.4641 28.6159 37.4648C28.642 37.4655 28.6618 37.4665 28.6752 37.4678V37.709C28.6671 37.707 28.6487 37.704 28.6199 37.7C28.5917 37.6953 28.5619 37.6929 28.5304 37.6929C28.4554 37.6929 28.3884 37.7087 28.3294 37.7402C28.2711 37.771 28.2249 37.8139 28.1907 37.8688C28.1572 37.9231 28.1405 37.9851 28.1405 38.0548V39.0317H27.9032Z" fill="#171717"/>
<path d="M28.8344 39.6428C28.7198 39.6428 28.6213 39.6281 28.5389 39.5986C28.4565 39.5698 28.3878 39.5316 28.3329 39.484C28.2786 39.4371 28.2354 39.3869 28.2032 39.3333L28.3922 39.2006C28.4136 39.2287 28.4407 39.2609 28.4736 39.2971C28.5064 39.3339 28.5513 39.3658 28.6083 39.3926C28.6659 39.42 28.7413 39.4338 28.8344 39.4338C28.959 39.4338 29.0619 39.4036 29.143 39.3433C29.224 39.283 29.2646 39.1885 29.2646 39.0599V38.7463H29.2445C29.2271 38.7744 29.2023 38.8093 29.1701 38.8508C29.1386 38.8917 29.093 38.9282 29.0334 38.9604C28.9744 38.9919 28.8947 39.0076 28.7942 39.0076C28.6696 39.0076 28.5577 38.9781 28.4585 38.9192C28.36 38.8602 28.2819 38.7744 28.2243 38.6619C28.1674 38.5493 28.1389 38.4126 28.1389 38.2518C28.1389 38.0936 28.1667 37.9559 28.2223 37.8387C28.2779 37.7208 28.3553 37.6296 28.4545 37.5653C28.5536 37.5003 28.6682 37.4678 28.7982 37.4678C28.8987 37.4678 28.9785 37.4846 29.0374 37.5181C29.0971 37.5509 29.1426 37.5884 29.1741 37.6306C29.2063 37.6722 29.2311 37.7063 29.2485 37.7332H29.2726V37.4879H29.5018V39.076C29.5018 39.2086 29.4716 39.3165 29.4113 39.3996C29.3517 39.4834 29.2713 39.5447 29.1701 39.5835C29.0696 39.6231 28.9577 39.6428 28.8344 39.6428ZM28.8264 38.7945C28.9215 38.7945 29.0019 38.7728 29.0676 38.7292C29.1333 38.6856 29.1832 38.623 29.2173 38.5413C29.2515 38.4595 29.2686 38.3617 29.2686 38.2478C29.2686 38.1365 29.2519 38.0384 29.2183 37.9533C29.1848 37.8682 29.1353 37.8015 29.0696 37.7533C29.0039 37.705 28.9229 37.6809 28.8264 37.6809C28.7259 37.6809 28.6421 37.7063 28.5751 37.7573C28.5088 37.8082 28.4588 37.8765 28.4253 37.9623C28.3925 38.0481 28.3761 38.1432 28.3761 38.2478C28.3761 38.355 28.3928 38.4498 28.4263 38.5322C28.4605 38.614 28.5108 38.6783 28.5771 38.7252C28.6441 38.7714 28.7272 38.7945 28.8264 38.7945ZM30.6637 36.8768L30.0003 39.3413H29.7832L30.4466 36.8768H30.6637ZM32.0384 37.8337L31.8253 37.894C31.8119 37.8585 31.7922 37.8239 31.766 37.7904C31.7406 37.7563 31.7057 37.7281 31.6615 37.706C31.6173 37.6839 31.5606 37.6728 31.4916 37.6728C31.3971 37.6728 31.3184 37.6946 31.2554 37.7382C31.1931 37.7811 31.162 37.8357 31.162 37.902C31.162 37.961 31.1834 38.0075 31.2263 38.0417C31.2692 38.0759 31.3362 38.1044 31.4273 38.1272L31.6565 38.1834C31.7945 38.2169 31.8974 38.2682 31.965 38.3372C32.0327 38.4056 32.0665 38.4937 32.0665 38.6016C32.0665 38.69 32.0411 38.7691 31.9902 38.8388C31.9399 38.9084 31.8695 38.9634 31.7791 39.0036C31.6886 39.0438 31.5834 39.0639 31.4635 39.0639C31.306 39.0639 31.1757 39.0297 31.0725 38.9614C30.9693 38.893 30.904 38.7932 30.8765 38.6619L31.1017 38.6056C31.1231 38.6887 31.1636 38.751 31.2233 38.7925C31.2836 38.8341 31.3623 38.8548 31.4595 38.8548C31.57 38.8548 31.6578 38.8314 31.7228 38.7845C31.7885 38.7369 31.8213 38.68 31.8213 38.6136C31.8213 38.56 31.8025 38.5151 31.765 38.4789C31.7275 38.4421 31.6699 38.4146 31.5921 38.3965L31.3348 38.3362C31.1934 38.3027 31.0896 38.2508 31.0233 38.1804C30.9576 38.1094 30.9248 38.0206 30.9248 37.9141C30.9248 37.827 30.9492 37.7499 30.9981 37.6829C31.0477 37.6159 31.1151 37.5633 31.2001 37.5251C31.2859 37.4869 31.3831 37.4678 31.4916 37.4678C31.6444 37.4678 31.7643 37.5013 31.8515 37.5683C31.9392 37.6353 32.0015 37.7238 32.0384 37.8337ZM33.0508 39.0639C32.9114 39.0639 32.7891 39.0307 32.6839 38.9644C32.5794 38.8981 32.4976 38.8053 32.4387 38.686C32.3804 38.5667 32.3512 38.4273 32.3512 38.2679C32.3512 38.107 32.3804 37.9667 32.4387 37.8467C32.4976 37.7268 32.5794 37.6336 32.6839 37.5673C32.7891 37.501 32.9114 37.4678 33.0508 37.4678C33.1902 37.4678 33.3121 37.501 33.4166 37.5673C33.5218 37.6336 33.6036 37.7268 33.6619 37.8467C33.7209 37.9667 33.7503 38.107 33.7503 38.2679C33.7503 38.4273 33.7209 38.5667 33.6619 38.686C33.6036 38.8053 33.5218 38.8981 33.4166 38.9644C33.3121 39.0307 33.1902 39.0639 33.0508 39.0639ZM33.0508 38.8508C33.1567 38.8508 33.2438 38.8237 33.3121 38.7694C33.3805 38.7151 33.431 38.6438 33.4639 38.5553C33.4967 38.4669 33.5131 38.3711 33.5131 38.2679C33.5131 38.1647 33.4967 38.0685 33.4639 37.9794C33.431 37.8903 33.3805 37.8183 33.3121 37.7633C33.2438 37.7084 33.1567 37.6809 33.0508 37.6809C32.9449 37.6809 32.8578 37.7084 32.7895 37.7633C32.7211 37.8183 32.6705 37.8903 32.6377 37.9794C32.6049 38.0685 32.5884 38.1647 32.5884 38.2679C32.5884 38.3711 32.6049 38.4669 32.6377 38.5553C32.6705 38.6438 32.7211 38.7151 32.7895 38.7694C32.8578 38.8237 32.9449 38.8508 33.0508 38.8508ZM34.7396 39.0639C34.5949 39.0639 34.4702 39.0297 34.3657 38.9614C34.2612 38.893 34.1808 38.7989 34.1245 38.6789C34.0682 38.559 34.0401 38.422 34.0401 38.2679C34.0401 38.1111 34.0689 37.9727 34.1265 37.8528C34.1848 37.7321 34.2659 37.638 34.3697 37.5703C34.4743 37.502 34.5962 37.4678 34.7356 37.4678C34.8441 37.4678 34.942 37.4879 35.0291 37.5281C35.1162 37.5683 35.1875 37.6246 35.2432 37.697C35.2988 37.7693 35.3333 37.8538 35.3467 37.9503H35.1095C35.0914 37.8799 35.0512 37.8176 34.9889 37.7633C34.9272 37.7084 34.8441 37.6809 34.7396 37.6809C34.6471 37.6809 34.5661 37.705 34.4964 37.7533C34.4273 37.8008 34.3734 37.8682 34.3345 37.9553C34.2964 38.0417 34.2773 38.1432 34.2773 38.2598C34.2773 38.3791 34.296 38.483 34.3335 38.5714C34.3717 38.6599 34.4253 38.7285 34.4944 38.7774C34.564 38.8264 34.6458 38.8508 34.7396 38.8508C34.8012 38.8508 34.8572 38.8401 34.9075 38.8187C34.9577 38.7972 35.0003 38.7664 35.0351 38.7262C35.0699 38.686 35.0947 38.6377 35.1095 38.5815H35.3467C35.3333 38.6726 35.3001 38.7547 35.2472 38.8277C35.1949 38.9001 35.1256 38.9577 35.0391 39.0006C34.9534 39.0428 34.8535 39.0639 34.7396 39.0639Z" fill="#171717"/>
<path d="M16.8333 16.0423L13.7188 22.2644H14.6353L15.6139 20.3214H18.1975L19.184 22.2644H20.0773L16.9201 15.8677L16.8333 16.0423ZM15.9976 19.5574L16.9156 17.734L17.828 19.5574H15.9976ZM20.5758 22.2677H21.397V16.1698H20.5758V22.2677Z" fill="#006EB8"/>
<path d="M36.06 15.8672L35.9725 16.0418L32.8583 22.2639H33.7752L34.7531 20.3216H37.3374L38.3239 22.2639H39.2172L36.06 15.8672ZM35.1375 19.5577L36.0548 17.7339L36.9679 19.5577H35.1375ZM27.9383 20.7075C27.3792 21.329 26.696 21.6342 25.8659 21.6357C25.109 21.6345 24.4939 21.4064 24.001 20.9472C23.5096 20.4869 23.2673 19.9252 23.2662 19.2368C23.2666 18.781 23.3761 18.376 23.5953 18.0148C23.8137 17.6528 24.1218 17.3652 24.523 17.1487C24.9232 16.9329 25.3566 16.8249 25.8281 16.8249C26.2619 16.8249 26.6556 16.9079 27.0139 17.072C27.3732 17.2366 27.6784 17.477 27.9353 17.7975L27.9936 17.87L28.629 17.4026L28.5702 17.3248C28.2677 16.9232 27.8777 16.6102 27.4054 16.3885C26.932 16.166 26.4032 16.0557 25.8206 16.0557C24.8573 16.0549 24.0444 16.3563 23.4001 16.9576C22.7554 17.5559 22.4286 18.3072 22.4297 19.1856C22.4286 20.018 22.6963 20.7397 23.2299 21.3302C23.8641 22.0313 24.7384 22.3817 25.8229 22.3817H25.8281C26.4025 22.3817 26.9249 22.2789 27.3923 22.0702C27.8601 21.8619 28.2539 21.5661 28.5676 21.1832L28.6323 21.1039L27.9977 20.6417L27.9383 20.7075ZM33.4944 18.8771C33.7337 18.6022 33.8522 18.2511 33.8515 17.8401C33.8522 17.431 33.7299 17.0791 33.4865 16.8028C33.2453 16.5291 32.9316 16.347 32.5558 16.2606C32.288 16.1981 31.8045 16.1705 31.0839 16.1701H29.737V22.268H30.5581V19.5229H30.9089C31.6916 19.5225 32.2252 19.4918 32.5258 19.4238C32.9308 19.3322 33.2576 19.1497 33.4944 18.8771ZM32.8549 18.3375C32.7524 18.4848 32.6148 18.5903 32.432 18.6576C32.2536 18.7241 31.9462 18.7623 31.5233 18.7619L30.5578 18.7511V16.9419H31.57C31.9877 16.9412 32.2865 16.9778 32.451 17.0395C32.6186 17.1027 32.7513 17.2052 32.8545 17.3544C32.9577 17.5039 33.0079 17.6632 33.0082 17.8416C33.0082 18.0267 32.9574 18.1883 32.8549 18.3375Z" fill="#006EB8"/>
<path d="M10.2773 37.0686L12.1506 35.7757L12.9258 36.899L12.7246 37.0379L12.106 36.1414L11.473 36.5783L12.0335 37.3906L11.8323 37.5295L11.2718 36.7172L10.4339 37.2954L10.2773 37.0686Z" fill="white"/>
<path d="M11.7681 39.1175C11.6677 39.0006 11.6074 38.8741 11.5873 38.7381C11.5677 38.6026 11.5866 38.4672 11.6442 38.3318C11.7023 38.1969 11.7982 38.0721 11.932 37.9572C12.0669 37.8413 12.2057 37.7647 12.3483 37.7272C12.4914 37.6902 12.6284 37.6917 12.7594 37.7316C12.8908 37.7721 13.0068 37.8508 13.1072 37.9677C13.2076 38.0846 13.2676 38.2108 13.2872 38.3463C13.3074 38.4824 13.2881 38.618 13.2295 38.7534C13.1714 38.8892 13.0748 39.0151 12.9399 39.1309C12.8061 39.2458 12.668 39.3215 12.5254 39.358C12.3834 39.395 12.2466 39.3932 12.1152 39.3528C11.9842 39.3129 11.8685 39.2345 11.7681 39.1175ZM11.9469 38.964C12.0232 39.0528 12.1087 39.1064 12.2035 39.1246C12.2982 39.1429 12.3945 39.1339 12.4924 39.0977C12.5902 39.0615 12.6825 39.0063 12.769 38.9319C12.8556 38.8576 12.9244 38.7746 12.9756 38.6828C13.0267 38.5911 13.0507 38.4967 13.0475 38.3998C13.0444 38.3029 13.0047 38.21 12.9284 38.1212C12.8521 38.0324 12.7663 37.9791 12.671 37.9613C12.5757 37.9436 12.4788 37.953 12.3804 37.9897C12.2819 38.0264 12.1894 38.0818 12.1029 38.1562C12.0163 38.2305 11.9477 38.3133 11.8972 38.4046C11.8466 38.4959 11.8232 38.5897 11.8269 38.6861C11.8306 38.7826 11.8706 38.8752 11.9469 38.964Z" fill="white"/>
<path d="M12.6687 40.0533L13.8608 38.8314L14.0422 39.0083L13.8621 39.1929L13.8749 39.2053C13.9561 39.1666 14.0443 39.1569 14.1394 39.1761C14.2344 39.1954 14.3186 39.2407 14.3917 39.3121C14.4055 39.3256 14.4225 39.3427 14.4427 39.3634C14.4628 39.3841 14.4777 39.4001 14.4873 39.4115L14.301 39.6025C14.2962 39.5947 14.2839 39.5781 14.2642 39.5526C14.2456 39.5272 14.2238 39.5023 14.1989 39.478C14.1395 39.42 14.0743 39.3807 14.0033 39.3601C13.9334 39.3395 13.8637 39.3378 13.7942 39.3549C13.7258 39.372 13.6646 39.4081 13.6108 39.4632L12.8565 40.2365L12.6687 40.0533Z" fill="white"/>
<path d="M13.6174 40.9936L14.6654 39.6459L14.8654 39.8015L14.7017 40.0121L14.7192 40.0257C14.8033 39.9756 14.892 39.955 14.9855 39.9639C15.0795 39.9722 15.1704 40.0105 15.2581 40.0787C15.347 40.1478 15.4053 40.2255 15.433 40.3118C15.4617 40.398 15.4648 40.49 15.4422 40.5879L15.4562 40.5988C15.5449 40.556 15.6396 40.541 15.7405 40.5537C15.8418 40.5659 15.9407 40.6095 16.0372 40.6845C16.1577 40.7782 16.227 40.8926 16.2449 41.0276C16.2633 41.1621 16.2109 41.3085 16.0876 41.467L15.3862 42.369L15.1791 42.208L15.8805 41.306C15.9579 41.2066 15.9859 41.1144 15.9647 41.0294C15.9436 40.9444 15.8961 40.8732 15.8224 40.8159C15.7276 40.7422 15.6319 40.7138 15.5353 40.7307C15.4391 40.7469 15.3572 40.7986 15.2894 40.8858L14.6071 41.7631L14.3965 41.5994L15.1143 40.6764C15.1739 40.5998 15.197 40.5188 15.1837 40.4333C15.1708 40.3473 15.1252 40.2738 15.0468 40.2128C14.993 40.171 14.9315 40.1462 14.8624 40.1385C14.7939 40.1312 14.7256 40.1419 14.6573 40.1705C14.5901 40.1989 14.5308 40.2462 14.4794 40.3123L13.8244 41.1546L13.6174 40.9936Z" fill="white"/>
<path d="M16.4773 43.0708C16.3359 42.9867 16.2326 42.8829 16.1672 42.7595C16.1029 42.6358 16.0766 42.5011 16.0883 42.3555C16.101 42.2095 16.1521 42.0614 16.2416 41.9112C16.331 41.7609 16.4372 41.6448 16.5602 41.5628C16.6842 41.4806 16.8147 41.4367 16.9517 41.4311C17.0897 41.4253 17.2249 41.4618 17.3573 41.5407C17.4337 41.5861 17.5016 41.6438 17.5609 41.7136C17.6202 41.7834 17.6634 41.8652 17.6904 41.9589C17.7178 42.0519 17.7218 42.156 17.7023 42.2712C17.6829 42.3864 17.6324 42.5125 17.5509 42.6493L17.4941 42.7448L16.3633 42.0717L16.4793 41.8768L17.3809 42.4136C17.4301 42.3308 17.4576 42.2471 17.4631 42.1624C17.4693 42.0782 17.4534 41.9993 17.4152 41.9257C17.3778 41.8525 17.3183 41.7916 17.2368 41.7431C17.147 41.6897 17.0561 41.6657 16.964 41.6712C16.8729 41.6765 16.7888 41.704 16.7117 41.7539C16.6346 41.8037 16.5719 41.869 16.5238 41.9499L16.4465 42.0798C16.3805 42.1905 16.3437 42.2958 16.336 42.3956C16.3294 42.4951 16.3485 42.5854 16.3934 42.6664C16.4386 42.7468 16.5068 42.8141 16.5978 42.8684C16.657 42.9036 16.7154 42.9272 16.773 42.939C16.8317 42.9507 16.8885 42.95 16.9436 42.9371C16.9991 42.9236 17.0516 42.897 17.101 42.8575L17.2824 43.0482C17.2155 43.1084 17.1383 43.1504 17.0508 43.1743C16.9637 43.1974 16.8711 43.2009 16.7729 43.1847C16.6751 43.1679 16.5766 43.1299 16.4773 43.0708Z" fill="white"/>
<path d="M17.5054 43.6031L18.2542 42.0689L18.4819 42.1801L18.3688 42.4118L18.3848 42.4196C18.4498 42.3574 18.5305 42.3205 18.6268 42.3089C18.7231 42.2974 18.8172 42.3141 18.9091 42.3589C18.9264 42.3674 18.9479 42.3783 18.9735 42.3916C18.9992 42.405 19.0183 42.4155 19.031 42.4234L18.914 42.6631C18.907 42.6572 18.8901 42.6453 18.8634 42.6273C18.8378 42.609 18.8093 42.5922 18.778 42.5769C18.7034 42.5405 18.6292 42.5237 18.5553 42.5264C18.4824 42.5287 18.4157 42.5489 18.3551 42.5869C18.2955 42.6246 18.2487 42.6781 18.215 42.7473L17.7411 43.7182L17.5054 43.6031Z" fill="white"/>
<path d="M19.7923 42.1518L18.9107 44.2505L18.6689 44.1489L19.5505 42.0502L19.7923 42.1518Z" fill="white"/>
<path d="M19.428 45.1432C19.3859 45.1288 19.3496 45.1124 19.3191 45.0941C19.2883 45.0765 19.2677 45.0624 19.2573 45.0517L19.3954 44.8547C19.4504 44.8908 19.5017 44.9147 19.5494 44.9264C19.5971 44.938 19.6452 44.9314 19.6937 44.9065C19.7426 44.8826 19.7962 44.8348 19.8545 44.7631L19.9441 44.6529L19.904 42.8248L20.1731 42.9172L20.1773 44.3569L20.1941 44.3626L21.0814 43.2288L21.3505 43.3211L20.0302 44.9362C19.9707 45.009 19.9088 45.065 19.8445 45.104C19.7799 45.1437 19.7129 45.1666 19.6435 45.1725C19.5748 45.1787 19.503 45.169 19.428 45.1432Z" fill="white"/>
<path d="M23.6228 43.817C23.6307 43.7039 23.5938 43.6079 23.5122 43.5291C23.4305 43.4503 23.322 43.3981 23.1866 43.3725C23.0876 43.3538 22.9979 43.3534 22.9176 43.3714C22.838 43.3895 22.7721 43.4227 22.72 43.4709C22.6686 43.5192 22.6362 43.5791 22.6227 43.6504C22.6114 43.7101 22.6159 43.7642 22.6362 43.8125C22.6573 43.8602 22.6877 43.9026 22.7275 43.9395C22.7674 43.9757 22.8104 44.0076 22.8565 44.0351C22.9027 44.062 22.9455 44.0848 22.9849 44.1036L23.2005 44.2077C23.2559 44.234 23.3167 44.2674 23.3829 44.3078C23.4499 44.3484 23.5118 44.3982 23.5685 44.4572C23.626 44.5156 23.6695 44.5849 23.6988 44.6651C23.7281 44.7453 23.7329 44.8378 23.713 44.9426C23.6902 45.0635 23.6378 45.1667 23.556 45.2523C23.475 45.338 23.3686 45.3982 23.2368 45.4329C23.1058 45.4677 22.9544 45.4688 22.7826 45.4363C22.6224 45.406 22.4886 45.3539 22.3811 45.28C22.2744 45.2063 22.1963 45.1169 22.1468 45.0117C22.0981 44.9067 22.0809 44.7923 22.0953 44.6683L22.3749 44.7212C22.3662 44.807 22.3813 44.8823 22.4204 44.947C22.4603 45.0111 22.5159 45.0638 22.5873 45.1052C22.6595 45.1461 22.74 45.1749 22.8288 45.1917C22.9322 45.2112 23.0282 45.212 23.1168 45.1941C23.2056 45.1755 23.2797 45.1405 23.3392 45.0891C23.3988 45.037 23.4363 44.9702 23.4518 44.8887C23.4658 44.8144 23.4565 44.7501 23.4238 44.6956C23.3911 44.6412 23.3437 44.593 23.2815 44.5511C23.2193 44.5091 23.1509 44.4698 23.0764 44.4331L22.8161 44.3024C22.6509 44.2191 22.5261 44.1212 22.4418 44.0087C22.3575 43.8963 22.3296 43.7647 22.3581 43.614C22.3818 43.4887 22.4363 43.3859 22.5217 43.3055C22.6079 43.2246 22.7134 43.1691 22.8382 43.1392C22.9639 43.1087 23.0981 43.1069 23.2408 43.1339C23.3849 43.1612 23.5082 43.2112 23.6105 43.2842C23.713 43.3563 23.7886 43.443 23.8373 43.5442C23.8868 43.6456 23.9027 43.7531 23.8849 43.8666L23.6228 43.817Z" fill="white"/>
<path d="M24.0183 45.5999L23.7302 45.577L24.7441 43.3743L25.0277 43.3969L25.6801 45.7322L25.3921 45.7093L24.8662 43.7453L24.8485 43.7439L24.0183 45.5999ZM24.1952 44.722L25.3563 44.8145L25.3369 45.0582L24.1758 44.9658L24.1952 44.722Z" fill="white"/>
<path d="M27.4643 43.9947C27.448 43.8825 27.3916 43.7965 27.2951 43.7368C27.1987 43.6771 27.0816 43.6491 26.9438 43.6528C26.8431 43.6554 26.7554 43.6741 26.6807 43.7087C26.6067 43.7432 26.5494 43.7896 26.5087 43.8478C26.4687 43.9059 26.4497 43.9713 26.4516 44.0438C26.4532 44.1046 26.4691 44.1564 26.4991 44.1994C26.5299 44.2415 26.5686 44.2764 26.6153 44.3041C26.662 44.331 26.7107 44.3531 26.7616 44.3703C26.8124 44.3867 26.8591 44.3999 26.9016 44.4099L27.1344 44.466C27.194 44.48 27.2605 44.4997 27.3338 44.5252C27.4079 44.5506 27.4789 44.5862 27.5468 44.6318C27.6154 44.6767 27.6726 44.7352 27.7182 44.8074C27.7639 44.8795 27.7881 44.969 27.7909 45.0756C27.7942 45.1986 27.7649 45.3105 27.7031 45.4115C27.642 45.5124 27.5508 45.5938 27.4294 45.6556C27.3087 45.7173 27.161 45.7505 26.9862 45.7552C26.8232 45.7595 26.6815 45.737 26.5608 45.6875C26.4409 45.6381 26.3456 45.5672 26.275 45.475C26.2051 45.3827 26.1641 45.2745 26.1519 45.1503L26.4363 45.1427C26.446 45.2284 26.4768 45.2988 26.5286 45.3537C26.5812 45.4079 26.6467 45.4477 26.7252 45.473C26.8044 45.4976 26.8892 45.5087 26.9796 45.5063C27.0848 45.5035 27.1788 45.484 27.2616 45.4477C27.3443 45.4106 27.4093 45.3607 27.4566 45.298C27.5038 45.2344 27.5264 45.1612 27.5242 45.0782C27.5222 45.0027 27.4994 44.9418 27.4559 44.8955C27.4125 44.8492 27.3559 44.8122 27.2862 44.7844C27.2166 44.7566 27.1414 44.7326 27.0608 44.7125L26.7787 44.64C26.5996 44.5936 26.457 44.5244 26.3508 44.4323C26.2445 44.3403 26.1894 44.2176 26.1853 44.0643C26.182 43.9369 26.2135 43.8249 26.2798 43.7282C26.3469 43.6308 26.4383 43.5543 26.5539 43.4986C26.6703 43.4421 26.801 43.412 26.9462 43.4081C27.0929 43.4042 27.2239 43.427 27.3394 43.4766C27.4548 43.5254 27.5471 43.5941 27.6161 43.6827C27.6859 43.7713 27.7242 43.8729 27.7309 43.9876L27.4643 43.9947Z" fill="white"/>
<path d="M29.1494 45.5388L29.8022 43.3787L29.7991 43.3612L28.6432 43.565L28.6007 43.3242L30.0368 43.071L30.0816 43.3249L29.434 45.4886L29.1494 45.5388Z" fill="white"/>
<path d="M31.7015 45.0195C31.5403 45.0649 31.3907 45.0598 31.2526 45.004C31.1142 44.9476 30.9915 44.844 30.8843 44.6933C30.7769 44.5418 30.6897 44.347 30.6225 44.1088C30.5557 43.8721 30.5287 43.6614 30.5413 43.4769C30.5545 43.2915 30.6053 43.1386 30.6938 43.0182C30.7827 42.8969 30.9071 42.8137 31.0668 42.7687C31.2266 42.7236 31.3757 42.7297 31.5143 42.7868C31.6533 42.8431 31.7765 42.9469 31.8839 43.0984C31.9918 43.2489 32.0791 43.4425 32.1459 43.6793C32.213 43.9175 32.2404 44.1292 32.2279 44.3144C32.2153 44.4989 32.1647 44.6513 32.0763 44.7717C31.9876 44.8914 31.8627 44.974 31.7015 45.0195ZM31.6352 44.7841C31.7949 44.7391 31.8973 44.627 31.9423 44.4481C31.9873 44.2691 31.9696 44.0369 31.8891 43.7517C31.8356 43.562 31.7697 43.4062 31.6915 43.2843C31.6139 43.1622 31.5275 43.0768 31.4322 43.0282C31.3376 42.9795 31.2376 42.97 31.132 42.9997C30.9737 43.0444 30.872 43.1574 30.8269 43.3387C30.7815 43.5193 30.799 43.7519 30.8793 44.0364C30.9327 44.2261 30.9982 44.3817 31.0755 44.5031C31.1528 44.6245 31.2387 44.7092 31.3331 44.7573C31.4282 44.8051 31.5289 44.8141 31.6352 44.7841Z" fill="white"/>
<path d="M33.7898 44.2756L32.8397 42.2072L33.5386 41.8861C33.7002 41.8119 33.8455 41.7785 33.9746 41.7861C34.1033 41.793 34.2145 41.8328 34.3083 41.9056C34.402 41.9783 34.4769 42.0756 34.5329 42.1974C34.5889 42.3193 34.6136 42.4388 34.6071 42.556C34.6005 42.6731 34.5581 42.7823 34.4799 42.8835C34.4013 42.984 34.2819 43.0711 34.1216 43.1447L33.556 43.4045L33.4521 43.1783L34.0096 42.9222C34.12 42.8715 34.2015 42.8145 34.254 42.7512C34.3071 42.6877 34.3352 42.6193 34.3383 42.5461C34.3418 42.472 34.3245 42.3935 34.2864 42.3107C34.2484 42.2278 34.1997 42.1626 34.1402 42.1149C34.0808 42.0671 34.0094 42.0421 33.9259 42.0396C33.8421 42.0365 33.7443 42.0607 33.6326 42.112L33.1922 42.3143L34.0403 44.1606L33.7898 44.2756ZM34.3366 42.8992L35.2724 43.5945L34.9816 43.7281L34.0538 43.0291L34.3366 42.8992Z" fill="white"/>
<path d="M36.2385 43.0728C36.0968 43.1565 35.9562 43.1974 35.8166 43.1956C35.6772 43.1928 35.5464 43.1513 35.4241 43.0712C35.3022 42.99 35.1967 42.8742 35.1077 42.7237C35.0188 42.5731 34.9678 42.4242 34.9548 42.277C34.942 42.1287 34.9661 41.9932 35.0269 41.8703C35.0879 41.7464 35.1848 41.6453 35.3175 41.5669C35.394 41.5217 35.4772 41.4897 35.5669 41.4711C35.6566 41.4526 35.749 41.4539 35.8442 41.4751C35.939 41.4957 36.0323 41.5421 36.1241 41.6144C36.2158 41.6867 36.3023 41.7914 36.3833 41.9285L36.4399 42.0242L35.3069 42.6937L35.1916 42.4985L36.0949 41.9647C36.0458 41.8818 35.9855 41.8176 35.9139 41.7722C35.8429 41.7263 35.766 41.7025 35.6832 41.7007C35.601 41.6985 35.519 41.7215 35.4374 41.7697C35.3474 41.8229 35.2828 41.8912 35.2435 41.9747C35.2044 42.0572 35.1883 42.1442 35.195 42.2357C35.2018 42.3272 35.2291 42.4135 35.277 42.4945L35.3539 42.6247C35.4195 42.7357 35.4943 42.8184 35.5782 42.873C35.6623 42.9266 35.7507 42.9531 35.8433 42.9525C35.9356 42.9514 36.0274 42.9238 36.1186 42.8699C36.1779 42.8349 36.2266 42.7949 36.2646 42.7501C36.3029 42.7042 36.3296 42.654 36.3447 42.5994C36.3595 42.5442 36.3613 42.4855 36.3503 42.4231L36.6046 42.3555C36.6254 42.443 36.6253 42.5309 36.6042 42.6191C36.5828 42.7066 36.5415 42.7896 36.4802 42.868C36.4186 42.9457 36.338 43.014 36.2385 43.0728Z" fill="white"/>
<path d="M37.5912 42.9473L36.1932 41.0616L36.3968 40.9107L36.5583 41.1286L36.5833 41.11C36.5811 41.0747 36.5801 41.0285 36.5801 40.9713C36.5803 40.9131 36.5954 40.8502 36.6256 40.7826C36.6559 40.714 36.7157 40.6466 36.805 40.5804C36.9205 40.4948 37.0437 40.4482 37.1746 40.4407C37.3055 40.4331 37.4349 40.464 37.5628 40.5333C37.6908 40.6026 37.8082 40.7093 37.9149 40.8534C38.0226 40.9986 38.0912 41.1428 38.1208 41.286C38.15 41.4286 38.1424 41.5615 38.0981 41.6847C38.0534 41.8073 37.9739 41.9109 37.8597 41.9957C37.7716 42.061 37.6902 42.0987 37.6156 42.1088C37.5406 42.1183 37.4749 42.1149 37.4185 42.0986C37.3617 42.0816 37.3163 42.0664 37.2823 42.0529L37.2644 42.0661L37.8019 42.7911L37.5912 42.9473ZM36.9087 41.5938C36.9855 41.6973 37.0684 41.7775 37.1575 41.8341C37.2461 41.8902 37.3361 41.9189 37.4275 41.9203C37.5185 41.9211 37.6062 41.8902 37.6908 41.8275C37.7789 41.7622 37.8352 41.6845 37.8597 41.5944C37.8843 41.5033 37.8822 41.4071 37.8533 41.3058C37.8245 41.2036 37.7739 41.1036 37.7016 41.006C37.6301 40.9096 37.5508 40.8337 37.4637 40.7784C37.3767 40.722 37.2867 40.6933 37.1936 40.6922C37.1007 40.69 37.0096 40.7221 36.9203 40.7883C36.8346 40.8518 36.7787 40.9269 36.7526 41.0136C36.726 41.0997 36.7265 41.1925 36.7541 41.2919C36.7813 41.3908 36.8328 41.4914 36.9087 41.5938Z" fill="white"/>
<path d="M39.3709 40.7432C39.2577 40.8478 39.1335 40.9126 38.9983 40.9377C38.8636 40.9623 38.7276 40.9483 38.5902 40.8957C38.4533 40.8425 38.3251 40.7512 38.2054 40.6217C38.0847 40.4911 38.003 40.3553 37.9603 40.2141C37.9182 40.0725 37.9147 39.9355 37.9498 39.8031C37.9854 39.6703 38.0599 39.5516 38.173 39.447C38.2862 39.3424 38.4101 39.2778 38.5448 39.2533C38.68 39.2282 38.8163 39.2425 38.9537 39.2961C39.0916 39.3493 39.2209 39.4411 39.3416 39.5717C39.4613 39.7012 39.5419 39.8365 39.5835 39.9777C39.6257 40.1183 39.629 40.255 39.5933 40.3878C39.5582 40.5201 39.4841 40.6386 39.3709 40.7432ZM39.211 40.5701C39.297 40.4907 39.3473 40.4033 39.3621 40.3079C39.3769 40.2125 39.3644 40.1166 39.3247 40.0201C39.285 39.9237 39.2264 39.8335 39.1489 39.7497C39.0715 39.6659 38.986 39.6002 38.8925 39.5524C38.7989 39.5047 38.7038 39.4842 38.607 39.4909C38.5103 39.4975 38.4189 39.5406 38.333 39.6201C38.247 39.6995 38.1969 39.7872 38.1826 39.8831C38.1683 39.979 38.1813 40.0755 38.2215 40.1725C38.2617 40.2695 38.3206 40.3599 38.398 40.4437C38.4755 40.5275 38.5607 40.593 38.6537 40.6402C38.7468 40.6874 38.8414 40.7074 38.9377 40.7001C39.0339 40.6929 39.125 40.6496 39.211 40.5701Z" fill="white"/>
<path d="M40.2707 39.8116L39.0058 38.665L39.176 38.4773L39.367 38.6504L39.379 38.6373C39.3373 38.5575 39.3243 38.4697 39.3401 38.374C39.3559 38.2783 39.3981 38.1925 39.4667 38.1168C39.4797 38.1025 39.4961 38.0849 39.5161 38.064C39.536 38.0431 39.5515 38.0276 39.5626 38.0176L39.7602 38.1968C39.7526 38.2019 39.7364 38.2147 39.7118 38.2354C39.687 38.2549 39.6629 38.2776 39.6396 38.3034C39.5838 38.3649 39.547 38.4315 39.529 38.5032C39.5109 38.5739 39.5117 38.6436 39.5314 38.7124C39.551 38.7802 39.5893 38.8399 39.6464 38.8917L40.4468 39.6172L40.2707 39.8116Z" fill="white"/>
<path d="M40.2349 37.21L40.4097 37.3474L39.863 38.043L39.6883 37.9056L40.2349 37.21ZM39.526 37.4501L39.6881 37.2439L40.9674 38.2493C41.0256 38.2951 41.076 38.321 41.1184 38.327C41.1606 38.332 41.1973 38.3249 41.2282 38.3059C41.2591 38.2859 41.2864 38.2607 41.3102 38.2304C41.328 38.2077 41.3415 38.1881 41.3506 38.1717C41.3592 38.1549 41.366 38.1414 41.3711 38.1313L41.5893 38.2349C41.5836 38.253 41.5735 38.2767 41.5591 38.3058C41.5452 38.3355 41.5232 38.3695 41.4929 38.408C41.4472 38.4662 41.3898 38.5135 41.3208 38.5497C41.2522 38.5854 41.1779 38.6014 41.0978 38.5978C41.0181 38.5936 40.9393 38.5609 40.8612 38.4995L39.526 37.4501Z" fill="white"/>
<path d="M41.4718 36.0866L41.3961 36.3195C41.3552 36.3099 41.3113 36.3069 41.2645 36.3103C41.2174 36.3126 41.1701 36.3273 41.1226 36.3543C41.0751 36.3814 41.0301 36.4266 40.9876 36.49C40.9295 36.5768 40.901 36.6625 40.9023 36.7472C40.9033 36.8308 40.9343 36.893 40.9953 36.9339C41.0494 36.9702 41.1054 36.9791 41.1632 36.9607C41.221 36.9424 41.2884 36.8983 41.3654 36.8286L41.5581 36.6527C41.6738 36.5466 41.7842 36.4836 41.8893 36.4639C41.9937 36.4438 42.0955 36.4669 42.1946 36.5333C42.2758 36.5877 42.3328 36.6598 42.3655 36.7495C42.3986 36.8385 42.4058 36.937 42.387 37.0448C42.3683 37.1526 42.322 37.2617 42.2482 37.3718C42.1513 37.5165 42.0397 37.6152 41.9134 37.668C41.7872 37.7207 41.6552 37.7193 41.5177 37.6637L41.6045 37.4222C41.694 37.4537 41.7762 37.4548 41.8511 37.4255C41.9264 37.3957 41.9939 37.3362 42.0537 37.2469C42.1217 37.1453 42.1542 37.0502 42.1511 36.9617C42.1478 36.8721 42.1157 36.8069 42.0547 36.766C42.0055 36.733 41.9527 36.7227 41.8964 36.7349C41.8394 36.7467 41.7787 36.7827 41.7143 36.843L41.5005 37.0422C41.3828 37.1515 41.2711 37.215 41.1657 37.2326C41.06 37.2492 40.9583 37.2248 40.8604 37.1592C40.7803 37.1056 40.7246 37.0357 40.6931 36.9495C40.6621 36.8628 40.6552 36.7685 40.6725 36.6668C40.6902 36.5645 40.7324 36.4635 40.7992 36.3638C40.8932 36.2235 40.9978 36.1339 41.113 36.0951C41.2286 36.0557 41.3482 36.0529 41.4718 36.0866Z" fill="white"/>
<path d="M8.22284 22.5223L8.17122 22.7582L6.46251 21.6693L6.51334 21.437L8.52068 21.1614L8.46905 21.3973L6.78346 21.6102L6.78029 21.6247L8.22284 22.5223ZM7.51612 22.2763L7.7242 21.3256L7.92379 21.3692L7.71571 22.32L7.51612 22.2763Z" fill="white"/>
<path d="M6.87363 20.0555L8.69946 20.5884L8.63492 20.8095L6.8091 20.2766L6.87363 20.0555Z" fill="white"/>
<path d="M8.12335 18.2647L8.04378 18.4808C7.97691 18.4707 7.91406 18.4729 7.85524 18.4876C7.79663 18.5016 7.743 18.5254 7.69436 18.559C7.64536 18.5917 7.60267 18.6324 7.56629 18.681C7.52992 18.7297 7.50082 18.7836 7.47901 18.8429C7.43922 18.9509 7.43048 19.0589 7.45279 19.1667C7.47532 19.274 7.53022 19.373 7.61751 19.4639C7.705 19.5541 7.82602 19.6277 7.98056 19.6846C8.1351 19.7415 8.27494 19.764 8.40009 19.752C8.52544 19.7394 8.63147 19.6996 8.71817 19.6326C8.80508 19.565 8.86843 19.4771 8.90821 19.3691C8.93003 19.3098 8.94286 19.2499 8.9467 19.1893C8.95054 19.1287 8.94472 19.0701 8.92924 19.0136C8.91338 18.9563 8.88771 18.9033 8.8522 18.8546C8.81632 18.8051 8.76994 18.7627 8.71307 18.7272L8.79264 18.5111C8.87786 18.5609 8.94858 18.6206 9.00479 18.6901C9.06101 18.7596 9.10262 18.8357 9.12964 18.9182C9.15607 19.0005 9.16771 19.0862 9.16455 19.1755C9.1616 19.2641 9.14355 19.3535 9.11039 19.4435C9.05435 19.5957 8.96733 19.7174 8.84933 19.8085C8.73133 19.8997 8.59126 19.954 8.42912 19.9715C8.26698 19.989 8.09179 19.9631 7.90355 19.8938C7.71532 19.8245 7.56516 19.7306 7.45307 19.6121C7.34099 19.4937 7.26958 19.3615 7.23885 19.2156C7.20812 19.0697 7.22078 18.9206 7.27682 18.7684C7.30998 18.6784 7.35417 18.5986 7.40941 18.5293C7.46486 18.4593 7.52962 18.4017 7.6037 18.3564C7.67719 18.3109 7.75787 18.2799 7.84574 18.2634C7.93303 18.2467 8.02557 18.2471 8.12335 18.2647Z" fill="white"/>
<path d="M9.48622 18.43L7.76976 17.6109L8.04654 17.0309C8.11081 16.8963 8.18764 16.7978 8.27705 16.7355C8.36617 16.6724 8.46166 16.6397 8.56353 16.6376C8.66539 16.6354 8.76689 16.6585 8.86803 16.7068C8.96916 16.755 9.05121 16.8196 9.11417 16.9004C9.1774 16.9806 9.2132 17.0752 9.22157 17.1842C9.22938 17.2929 9.20142 17.414 9.1377 17.5475L8.93931 17.9632L8.75492 17.8752L8.95011 17.4662C8.99411 17.374 9.01351 17.2924 9.00833 17.2213C9.00315 17.1503 8.97946 17.0892 8.93726 17.0382C8.89477 16.9864 8.83916 16.9441 8.77043 16.9113C8.70171 16.8785 8.63411 16.862 8.56765 16.8618C8.50145 16.8611 8.43952 16.8816 8.38186 16.9234C8.32364 16.9649 8.27226 17.0323 8.22773 17.1256L8.05334 17.491L9.58542 18.2222L9.48622 18.43Z" fill="white"/>
<path d="M10.1162 17.1393L9.99483 17.348L8.70188 15.7882L8.82139 15.5827L10.8165 15.9352L10.6951 16.1439L9.02546 15.8303L9.01799 15.8432L10.1162 17.1393ZM9.51883 16.6887L10.0081 15.8475L10.1847 15.9502L9.69544 16.7914L9.51883 16.6887Z" fill="white"/>
<path d="M10.9456 13.3391C10.8642 13.2906 10.7787 13.2819 10.6892 13.3131C10.5997 13.3442 10.5198 13.4055 10.4497 13.4968C10.3984 13.5635 10.3643 13.6303 10.3474 13.6969C10.3309 13.7631 10.3308 13.8247 10.3472 13.8818C10.3638 13.9383 10.3962 13.985 10.4443 14.022C10.4846 14.0529 10.5266 14.0699 10.5702 14.073C10.6138 14.0753 10.6569 14.0685 10.6994 14.0528C10.7414 14.0367 10.7814 14.0167 10.8193 13.9927C10.8568 13.9684 10.8899 13.945 10.9188 13.9227L11.0777 13.8012C11.1182 13.7699 11.166 13.7371 11.2211 13.703C11.2766 13.6683 11.337 13.641 11.4024 13.6209C11.4677 13.6 11.5357 13.5937 11.6066 13.6021C11.6774 13.6105 11.7482 13.6418 11.8189 13.6961C11.9004 13.7587 11.9576 13.8367 11.9906 13.9299C12.024 14.0227 12.0287 14.1247 12.0049 14.236C11.9814 14.3468 11.9252 14.4601 11.8362 14.576C11.7532 14.684 11.664 14.7641 11.5684 14.8164C11.4732 14.8682 11.377 14.8927 11.28 14.89C11.1833 14.8867 11.0915 14.8564 11.0045 14.7989L11.1493 14.6104C11.21 14.6492 11.2719 14.6663 11.3348 14.6616C11.3977 14.656 11.458 14.6344 11.5158 14.5968C11.5734 14.5583 11.6252 14.5092 11.6713 14.4493C11.7248 14.3796 11.7616 14.3083 11.7816 14.2355C11.8012 14.1623 11.803 14.0938 11.7872 14.0301C11.7708 13.966 11.7352 13.9128 11.6802 13.8706C11.6301 13.8321 11.5786 13.8148 11.5257 13.8187C11.4728 13.8225 11.4189 13.8397 11.3642 13.8703C11.3095 13.9009 11.2544 13.937 11.199 13.9787L11.0034 14.1236C10.879 14.2154 10.759 14.2715 10.6433 14.292C10.5277 14.3124 10.419 14.2836 10.3174 14.2055C10.233 14.1407 10.1769 14.0613 10.1491 13.9673C10.1212 13.8725 10.1196 13.7729 10.1444 13.6686C10.169 13.5634 10.2183 13.4627 10.2922 13.3664C10.3669 13.2692 10.4507 13.1962 10.5436 13.1474C10.6361 13.0982 10.7292 13.0745 10.8231 13.0763C10.9173 13.0776 11.0034 13.1063 11.0814 13.1623L10.9456 13.3391Z" fill="white"/>
<path d="M12.7457 13.4868C12.6538 13.5889 12.5519 13.6567 12.4401 13.6901C12.3282 13.7227 12.2136 13.7223 12.0961 13.689C11.9786 13.6548 11.8655 13.5888 11.757 13.491C11.6484 13.3932 11.5706 13.2873 11.5234 13.1731C11.4762 13.0581 11.4615 12.944 11.4792 12.8308C11.497 12.7168 11.5489 12.612 11.6351 12.5163C11.6848 12.4611 11.7431 12.4149 11.81 12.3776C11.8769 12.3404 11.9509 12.3183 12.0321 12.3114C12.1128 12.3042 12.1988 12.3179 12.29 12.3526C12.3813 12.3873 12.4764 12.4492 12.5753 12.5382L12.6443 12.6004L11.9083 13.4174L11.7676 13.2906L12.3543 12.6392C12.2945 12.5853 12.2304 12.5492 12.1619 12.5309C12.0939 12.5121 12.0266 12.5123 11.9601 12.5315C11.894 12.5503 11.8344 12.5892 11.7814 12.6481C11.723 12.7129 11.6885 12.7835 11.678 12.8599C11.6675 12.9354 11.6764 13.0088 11.7046 13.0801C11.7329 13.1514 11.7763 13.2134 11.8347 13.266L11.9285 13.3506C12.0086 13.4227 12.0888 13.47 12.1694 13.4925C12.2498 13.5142 12.3269 13.5132 12.4007 13.4896C12.4739 13.4657 12.5402 13.4208 12.5995 13.355C12.638 13.3122 12.6668 13.2682 12.6859 13.2229C12.705 13.1768 12.7138 13.1301 12.7122 13.0828C12.7101 13.0351 12.6969 12.9878 12.6725 12.9409L12.8584 12.8233C12.8969 12.8879 12.9187 12.958 12.924 13.0336C12.9288 13.1088 12.9165 13.1852 12.8873 13.263C12.8576 13.3404 12.8104 13.415 12.7457 13.4868Z" fill="white"/>
<path d="M13.3126 12.8461L12.3158 11.8258L12.4672 11.6778L12.6178 11.8319L12.6284 11.8215C12.5977 11.7529 12.5913 11.679 12.6093 11.6C12.6273 11.521 12.6669 11.4516 12.728 11.3919C12.7395 11.3806 12.7541 11.3668 12.7718 11.3504C12.7895 11.3339 12.8032 11.3218 12.813 11.3141L12.9687 11.4735C12.9621 11.4774 12.948 11.4873 12.9263 11.5032C12.9047 11.5183 12.8835 11.536 12.8627 11.5563C12.8131 11.6048 12.779 11.6584 12.7603 11.7173C12.7417 11.7753 12.7388 11.8335 12.7517 11.8919C12.7646 11.9494 12.7936 12.0012 12.8386 12.0473L13.4693 12.6929L13.3126 12.8461Z" fill="white"/>
<path d="M13.92 10.3649L14.457 11.7879L14.2887 11.934L12.9551 11.2028L13.1346 11.0469L14.1773 11.647L14.1885 11.6373L13.7405 10.5208L13.92 10.3649Z" fill="white"/>
<path d="M14.9382 11.3965L14.0585 10.2736L14.231 10.1384L15.1107 11.2613L14.9382 11.3965ZM13.9996 10.0177C13.966 10.044 13.928 10.0553 13.8857 10.0515C13.8439 10.0473 13.8103 10.0291 13.7851 9.99695C13.7599 9.96478 13.7503 9.92789 13.7562 9.88627C13.7627 9.84428 13.7827 9.81011 13.8163 9.78376C13.85 9.75742 13.8877 9.74634 13.9295 9.75054C13.9718 9.75436 14.0056 9.77235 14.0308 9.80451C14.056 9.83668 14.0654 9.87376 14.0589 9.91576C14.053 9.95738 14.0332 9.99136 13.9996 10.0177Z" fill="white"/>
<path d="M15.922 10.7029C15.8127 10.78 15.7004 10.8205 15.585 10.8245C15.4697 10.8285 15.3589 10.8002 15.2526 10.7396C15.1462 10.6789 15.052 10.5904 14.97 10.474C14.8866 10.3556 14.8347 10.2358 14.8144 10.1145C14.7942 9.99239 14.8053 9.87814 14.8478 9.77175C14.8903 9.6645 14.9642 9.57379 15.0695 9.49962C15.1515 9.44184 15.2361 9.40496 15.3233 9.38897C15.4104 9.37297 15.4943 9.3775 15.5748 9.40256C15.6553 9.42761 15.7263 9.47301 15.7878 9.53875L15.6087 9.66499C15.5575 9.62149 15.494 9.59582 15.4181 9.58799C15.3423 9.5793 15.2649 9.60277 15.1859 9.65841C15.1161 9.70762 15.0677 9.76899 15.0408 9.84251C15.014 9.91517 15.0091 9.99474 15.0261 10.0812C15.0432 10.1668 15.0828 10.2537 15.1449 10.3417C15.2084 10.4318 15.2778 10.5002 15.3532 10.5471C15.4291 10.5935 15.5062 10.6169 15.5843 10.6171C15.663 10.617 15.7377 10.5919 15.8086 10.542C15.8552 10.5092 15.8917 10.4713 15.9182 10.4284C15.9448 10.3854 15.9605 10.3395 15.9654 10.2906C15.9704 10.2417 15.9634 10.1921 15.9446 10.1417L16.1237 10.0155C16.1621 10.0914 16.1807 10.1711 16.1796 10.2544C16.1787 10.3369 16.157 10.4173 16.1145 10.4957C16.0722 10.5732 16.008 10.6423 15.922 10.7029Z" fill="white"/>
<path d="M16.9951 10.0139C16.8772 10.0846 16.76 10.1197 16.6433 10.1189C16.5268 10.1174 16.4173 10.0835 16.3147 10.0172C16.2123 9.95016 16.1235 9.85398 16.0483 9.7287C15.9731 9.60342 15.9297 9.47931 15.918 9.35635C15.9065 9.23255 15.9258 9.11915 15.9759 9.01614C16.0262 8.91228 16.1065 8.82722 16.2169 8.76094C16.2806 8.7227 16.3499 8.69555 16.4248 8.6795C16.4996 8.66345 16.5769 8.66402 16.6565 8.6812C16.7358 8.69785 16.814 8.73611 16.8911 8.79598C16.9682 8.85585 17.041 8.94285 17.1096 9.05698L17.1574 9.1366L16.2146 9.70254L16.1171 9.54011L16.8687 9.08889C16.8273 9.01988 16.7766 8.96659 16.7164 8.92901C16.6569 8.89112 16.5925 8.87165 16.5232 8.8706C16.4545 8.86924 16.3862 8.88895 16.3183 8.92974C16.2434 8.97467 16.1898 9.03213 16.1574 9.10211C16.1253 9.17124 16.1123 9.24403 16.1185 9.32047C16.1246 9.39692 16.148 9.46885 16.1884 9.53627L16.2534 9.64456C16.3089 9.73692 16.3718 9.80566 16.4422 9.85077C16.5128 9.89503 16.5869 9.91668 16.6643 9.91571C16.7414 9.9142 16.8178 9.89067 16.8938 9.8451C16.9431 9.81546 16.9836 9.78179 17.0151 9.74409C17.0468 9.70554 17.0689 9.66344 17.0812 9.61778C17.0932 9.57159 17.0944 9.52248 17.0848 9.47045L17.2969 9.41243C17.3148 9.48548 17.3152 9.5589 17.2981 9.6327C17.2807 9.70597 17.2466 9.77552 17.1959 9.84137C17.1448 9.90668 17.0779 9.96419 16.9951 10.0139Z" fill="white"/>
<path d="M19.4978 7.70201C19.5764 7.88655 19.611 8.06023 19.6017 8.22304C19.5923 8.38585 19.545 8.52846 19.4599 8.65087C19.3747 8.77327 19.2576 8.86626 19.1083 8.92983C18.9591 8.99339 18.8109 9.01347 18.6636 8.99006C18.5163 8.96665 18.3808 8.90193 18.2569 8.7959C18.133 8.68986 18.0317 8.54457 17.9531 8.36003C17.8745 8.17548 17.8399 8.0018 17.8492 7.83899C17.8586 7.67618 17.9059 7.53357 17.991 7.41117C18.0762 7.28876 18.1933 7.19578 18.3426 7.13221C18.4918 7.06864 18.6401 7.04856 18.7873 7.07197C18.9346 7.09538 19.0701 7.1601 19.194 7.26614C19.3179 7.37217 19.4192 7.51746 19.4978 7.70201ZM19.2928 7.78936C19.2282 7.63785 19.1484 7.52077 19.0533 7.43813C18.9588 7.35525 18.8571 7.30535 18.7483 7.28845C18.6401 7.2713 18.533 7.28529 18.427 7.33042C18.3211 7.37555 18.2365 7.44321 18.1733 7.53339C18.1107 7.62332 18.0762 7.7312 18.0699 7.85703C18.0642 7.98262 18.0936 8.12117 18.1581 8.27268C18.2227 8.42419 18.3022 8.54138 18.3967 8.62427C18.4918 8.70691 18.5935 8.7568 18.7018 8.77395C18.8106 8.79085 18.9179 8.77674 19.0239 8.73161C19.1298 8.68648 19.2141 8.61895 19.2767 8.52901C19.3399 8.43883 19.3744 8.33095 19.3801 8.20536C19.3864 8.07954 19.3573 7.94087 19.2928 7.78936Z" fill="white"/>
<path d="M20.3905 8.40178L19.9442 7.04694L20.1453 6.98069L20.2127 7.18532L20.2268 7.18067C20.2295 7.1055 20.2562 7.03638 20.3072 6.97332C20.3581 6.91026 20.4241 6.86537 20.5053 6.83863C20.5206 6.8336 20.5398 6.8276 20.5629 6.82063C20.586 6.81366 20.6037 6.80883 20.6158 6.80613L20.6856 7.01782C20.6779 7.01838 20.6609 7.02107 20.6344 7.02587C20.6084 7.02989 20.5815 7.03645 20.5539 7.04555C20.488 7.06725 20.4338 7.10044 20.3911 7.14513C20.3489 7.18903 20.3207 7.24003 20.3066 7.29813C20.2929 7.35545 20.2961 7.41468 20.3163 7.47584L20.5987 8.3332L20.3905 8.40178Z" fill="white"/>
<path d="M21.9225 8.53089C21.8199 8.55728 21.7284 8.56678 21.6479 8.55938C21.5675 8.55259 21.4972 8.53423 21.4371 8.50432C21.3777 8.47485 21.3275 8.43984 21.2864 8.39929L21.4249 8.23705C21.4505 8.25729 21.4822 8.27982 21.52 8.30463C21.5578 8.33005 21.6053 8.34818 21.6625 8.35905C21.7203 8.37035 21.791 8.36528 21.8743 8.34383C21.9858 8.31512 22.0709 8.26445 22.1296 8.19181C22.1882 8.11918 22.2027 8.0253 22.1731 7.91019L22.1009 7.6296L22.0829 7.63423C22.0738 7.66342 22.0596 7.70031 22.0404 7.74489C22.0216 7.78872 21.9893 7.83189 21.9433 7.8744C21.8978 7.91616 21.8301 7.94862 21.7402 7.97177C21.6286 8.00048 21.5217 7.99988 21.4194 7.96996C21.3177 7.93989 21.2281 7.88113 21.1506 7.79367C21.0737 7.70607 21.0167 7.59032 20.9797 7.44643C20.9433 7.30493 20.9364 7.17532 20.9592 7.05759C20.9818 6.93925 21.03 6.83989 21.104 6.75949C21.1777 6.67849 21.2728 6.62302 21.3891 6.59307C21.479 6.56992 21.5542 6.56654 21.6147 6.58294C21.6756 6.59858 21.725 6.62166 21.7629 6.65218C21.8013 6.68194 21.8313 6.70681 21.8531 6.72678L21.8747 6.72122L21.8182 6.50178L22.0232 6.449L22.389 7.86994C22.4196 7.98865 22.4175 8.09212 22.3826 8.18036C22.3486 8.26904 22.2907 8.34242 22.2092 8.4005C22.1283 8.45902 22.0328 8.50249 21.9225 8.53089ZM21.7199 7.77371C21.805 7.75179 21.8719 7.71378 21.9206 7.65968C21.9694 7.60559 21.9996 7.53803 22.0114 7.45701C22.0231 7.376 22.0159 7.28453 21.9896 7.1826C21.964 7.08308 21.9264 6.9991 21.8768 6.93068C21.8272 6.86225 21.7675 6.81402 21.6976 6.78597C21.6278 6.75793 21.5497 6.75502 21.4633 6.77725C21.3734 6.8004 21.3043 6.84248 21.2561 6.90348C21.2085 6.96432 21.1795 7.03698 21.1693 7.12144C21.1597 7.20574 21.1669 7.29466 21.191 7.38819C21.2157 7.48412 21.2525 7.5651 21.3015 7.63113C21.3509 7.6964 21.4107 7.74238 21.4808 7.76907C21.5515 7.795 21.6311 7.79655 21.7199 7.77371Z" fill="white"/>
<path d="M23.1966 7.71112C23.1076 7.72655 23.0238 7.72378 22.9454 7.7028C22.8669 7.68122 22.8008 7.6421 22.747 7.58545C22.6931 7.52818 22.6582 7.4538 22.6423 7.36229C22.6284 7.28177 22.6329 7.21375 22.656 7.15823C22.6789 7.1021 22.7145 7.05511 22.7626 7.01724C22.8107 6.97938 22.8655 6.94788 22.9272 6.92275C22.9893 6.89691 23.0522 6.87406 23.116 6.85421C23.1995 6.82844 23.2673 6.80821 23.3195 6.79352C23.3721 6.77812 23.4094 6.76129 23.4314 6.74303C23.4539 6.72467 23.4622 6.6981 23.4562 6.66333L23.4549 6.65601C23.4393 6.56573 23.4024 6.49986 23.3443 6.45839C23.2869 6.41683 23.2084 6.40466 23.109 6.42188C23.0059 6.43974 22.929 6.47632 22.8782 6.53161C22.8275 6.58689 22.7947 6.64222 22.7798 6.69758L22.5621 6.65989C22.5839 6.56815 22.6212 6.4932 22.674 6.43505C22.7272 6.37618 22.7885 6.331 22.8578 6.29952C22.9276 6.26731 22.9979 6.24508 23.0687 6.23282C23.1138 6.225 23.1666 6.22151 23.2271 6.22234C23.2881 6.22246 23.3489 6.23424 23.4095 6.25767C23.4707 6.28099 23.5254 6.32273 23.5735 6.38288C23.6216 6.44303 23.6553 6.52893 23.6747 6.64056L23.8351 7.56658L23.6192 7.60399L23.5862 7.41366L23.5752 7.41556C23.5659 7.4486 23.5471 7.48547 23.519 7.52616C23.4908 7.56685 23.4505 7.60431 23.398 7.63853C23.3455 7.67276 23.2784 7.69696 23.1966 7.71112ZM23.196 7.51143C23.2814 7.49663 23.3504 7.46738 23.4032 7.42369C23.4566 7.37988 23.4936 7.32886 23.5143 7.27061C23.5356 7.21225 23.5412 7.15379 23.531 7.09523L23.4968 6.89758C23.4895 6.91015 23.4711 6.9237 23.4416 6.93824C23.4126 6.95207 23.3785 6.96582 23.3394 6.97951C23.3008 6.99248 23.2631 7.00468 23.2261 7.01611C23.1896 7.02683 23.16 7.03572 23.1374 7.04278C23.0825 7.05983 23.0321 7.08081 22.9862 7.10574C22.9407 7.12995 22.9059 7.16081 22.8816 7.19832C22.8578 7.23511 22.8507 7.28096 22.8602 7.33586C22.8732 7.41089 22.9108 7.46282 22.9729 7.49163C23.0356 7.51973 23.11 7.52633 23.196 7.51143Z" fill="white"/>
<path d="M24.257 6.65541L24.3387 7.50963L24.1206 7.5305L23.9848 6.11049L24.1955 6.09033L24.2168 6.31221L24.2353 6.31044C24.2616 6.23515 24.3066 6.17238 24.3702 6.12214C24.4338 6.07128 24.5192 6.04073 24.6264 6.03047C24.7226 6.02128 24.8086 6.03295 24.8845 6.0655C24.9603 6.09743 25.022 6.15124 25.0697 6.22691C25.1173 6.30197 25.1469 6.3999 25.1584 6.5207L25.2447 7.42299L25.0266 7.44386L24.9417 6.55635C24.931 6.4448 24.8937 6.36067 24.8298 6.30396C24.7659 6.24664 24.6834 6.22281 24.5823 6.23247C24.5127 6.23913 24.4519 6.26019 24.3999 6.29563C24.3485 6.33102 24.3099 6.37918 24.284 6.44012C24.2581 6.50106 24.2491 6.57282 24.257 6.65541Z" fill="white"/>
<path d="M25.5702 7.4153L25.514 5.99002L25.733 5.98138L25.7892 7.40667L25.5702 7.4153ZM25.616 5.74808C25.5733 5.74976 25.536 5.73668 25.5039 5.70882C25.4724 5.68094 25.4559 5.64659 25.4543 5.60576C25.4527 5.56493 25.4665 5.52938 25.4956 5.49911C25.5254 5.46882 25.5616 5.45283 25.6043 5.45115C25.647 5.44946 25.6841 5.46256 25.7155 5.49044C25.7476 5.5183 25.7645 5.55264 25.7661 5.59347C25.7677 5.63429 25.7536 5.66986 25.7238 5.70015C25.6946 5.73042 25.6587 5.7464 25.616 5.74808Z" fill="white"/>
<path d="M26.1641 7.40668L26.1645 7.23952L26.9771 6.20161L26.9772 6.18675L26.1934 6.18463L26.1939 5.98033L27.2601 5.98321L27.2596 6.15779L26.4693 7.18834L26.4692 7.2032L27.2828 7.20539L27.2822 7.4097L26.1641 7.40668Z" fill="white"/>
<path d="M27.7673 7.47722C27.6772 7.47046 27.5966 7.44734 27.5257 7.40787C27.4548 7.36779 27.4002 7.31372 27.3619 7.24565C27.3236 7.17697 27.3079 7.09632 27.3148 7.00372C27.3209 6.92222 27.3419 6.85737 27.3778 6.80915C27.4138 6.76032 27.4597 6.72341 27.5156 6.69842C27.5715 6.67343 27.6324 6.65627 27.6983 6.64693C27.7648 6.63702 27.8314 6.63023 27.8982 6.62654C27.9854 6.62191 28.0561 6.61883 28.1102 6.6173C28.165 6.6152 28.2053 6.60798 28.2311 6.59563C28.2574 6.58333 28.272 6.55959 28.2746 6.5244L28.2752 6.51699C28.282 6.42562 28.2623 6.35274 28.2161 6.29837C28.1705 6.24404 28.0974 6.2131 27.9968 6.20555C27.8924 6.19772 27.8089 6.21443 27.7462 6.25567C27.6835 6.29691 27.6382 6.34256 27.6102 6.39261L27.4084 6.30297C27.4519 6.21931 27.5063 6.15572 27.5717 6.1122C27.6377 6.0681 27.7081 6.03924 27.783 6.02561C27.8586 6.01142 27.9322 6.007 28.0038 6.01237C28.0495 6.0158 28.1016 6.02529 28.16 6.04085C28.2191 6.05584 28.2752 6.08209 28.3282 6.11959C28.3819 6.15714 28.4248 6.21096 28.4568 6.28103C28.4887 6.3511 28.5005 6.44263 28.492 6.55561L28.4217 7.49278L28.2032 7.47639L28.2176 7.28377L28.2065 7.28293C28.1894 7.31269 28.1622 7.34387 28.125 7.37646C28.0878 7.40906 28.0396 7.43555 27.9803 7.45594C27.921 7.47633 27.85 7.48342 27.7673 7.47722ZM27.8154 7.28339C27.9018 7.28988 27.9759 7.27836 28.0377 7.24885C28.1002 7.21939 28.1485 7.17894 28.1828 7.12749C28.2177 7.0761 28.2374 7.02076 28.2418 6.9615L28.2568 6.76147C28.2467 6.77189 28.2256 6.78054 28.1934 6.78744C28.1619 6.79377 28.1255 6.7988 28.0842 6.80254C28.0436 6.8057 28.004 6.80832 27.9654 6.81038C27.9274 6.81188 27.8966 6.81329 27.8729 6.81462C27.8155 6.81777 27.7615 6.82582 27.7109 6.83879C27.6609 6.85118 27.6196 6.8726 27.5869 6.90306C27.5548 6.93294 27.5367 6.97566 27.5325 7.03122C27.5268 7.10716 27.5506 7.16668 27.6039 7.20979C27.6578 7.25233 27.7283 7.27686 27.8154 7.28339Z" fill="white"/>
<path d="M29.5129 6.20458L29.4877 6.38861L28.7553 6.2883L28.7805 6.10427L29.5129 6.20458ZM29.0403 5.7949L29.2575 5.82464L29.073 7.17171C29.0646 7.23305 29.0672 7.28028 29.0808 7.31339C29.0951 7.34596 29.1156 7.3694 29.1424 7.38369C29.1699 7.39746 29.1996 7.40652 29.2315 7.41089C29.2554 7.41417 29.2752 7.41563 29.2908 7.41528C29.3066 7.41431 29.3192 7.41354 29.3287 7.41296L29.3461 7.61407C29.3306 7.61758 29.3093 7.62028 29.2822 7.62219C29.255 7.62471 29.2211 7.6232 29.1806 7.61766C29.1193 7.60926 29.061 7.58783 29.0057 7.55339C28.9511 7.51903 28.9081 7.47222 28.8768 7.41294C28.8462 7.35375 28.8365 7.28306 28.8478 7.20086L29.0403 5.7949Z" fill="white"/>
<path d="M29.6132 7.66892L29.8655 6.26502L30.0812 6.30379L29.8289 7.70769L29.6132 7.66892ZM30.0172 6.05075C29.9752 6.04319 29.9415 6.02235 29.9162 5.98824C29.8915 5.95423 29.8827 5.91712 29.89 5.87691C29.8972 5.83669 29.9183 5.80495 29.9533 5.78167C29.9889 5.75851 30.0278 5.75071 30.0698 5.75827C30.1118 5.76582 30.1452 5.7866 30.1699 5.82061C30.1953 5.85472 30.2043 5.89189 30.1971 5.93211C30.1898 5.97232 30.1684 6.00401 30.1328 6.02717C30.0978 6.05045 30.0593 6.0583 30.0172 6.05075Z" fill="white"/>
<path d="M30.7856 7.94218C30.6604 7.91195 30.5578 7.85563 30.4777 7.77323C30.3982 7.69098 30.3449 7.58989 30.3178 7.46998C30.2914 7.35022 30.2954 7.21873 30.33 7.0755C30.3649 6.93107 30.4215 6.81132 30.4999 6.71625C30.5789 6.62133 30.6725 6.55541 30.7808 6.51851C30.8896 6.48176 31.0067 6.4785 31.1318 6.50874C31.257 6.53898 31.3593 6.59522 31.4388 6.67748C31.5189 6.75987 31.5721 6.86126 31.5985 6.98162C31.6254 7.10213 31.6214 7.2346 31.5865 7.37903C31.5519 7.52226 31.4952 7.64103 31.4164 7.73535C31.3382 7.82982 31.2446 7.89544 31.1357 7.93219C31.0275 7.96909 30.9107 7.97242 30.7856 7.94218ZM30.8318 7.75082C30.9269 7.77378 31.011 7.76831 31.0842 7.73439C31.1573 7.70048 31.2182 7.64736 31.2669 7.57505C31.3156 7.50274 31.3511 7.42025 31.3735 7.32757C31.3959 7.2349 31.402 7.14498 31.3919 7.05782C31.3817 6.97066 31.3519 6.89499 31.3024 6.83082C31.253 6.76665 31.1807 6.72307 31.0856 6.70011C30.9905 6.67714 30.9063 6.68291 30.833 6.71743C30.7597 6.75195 30.6987 6.80567 30.6499 6.87858C30.601 6.95149 30.5654 7.03429 30.543 7.12696C30.5207 7.21964 30.5146 7.30925 30.5249 7.39581C30.5352 7.48237 30.5652 7.55743 30.6148 7.62101C30.6644 7.68458 30.7367 7.72785 30.8318 7.75082Z" fill="white"/>
<path d="M32.2144 7.41469L31.9454 8.22952L31.7373 8.16082L32.1845 6.80628L32.3856 6.87266L32.3157 7.08431L32.3333 7.09013C32.3878 7.03183 32.4542 6.99248 32.5327 6.97209C32.6113 6.95111 32.7018 6.9575 32.8041 6.99128C32.8958 7.02155 32.9698 7.06686 33.0262 7.1272C33.0828 7.18694 33.1176 7.26104 33.1308 7.3495C33.1442 7.43737 33.1318 7.53891 33.0938 7.65414L32.8096 8.51484L32.6015 8.44613L32.881 7.59955C32.9161 7.49313 32.9159 7.40112 32.8802 7.3235C32.8448 7.24528 32.7788 7.19026 32.6824 7.15843C32.616 7.1365 32.5518 7.1313 32.49 7.14283C32.4288 7.15456 32.374 7.18311 32.3258 7.22847C32.2776 7.27384 32.2404 7.33591 32.2144 7.41469Z" fill="white"/>
<path d="M35.7616 8.39972L35.554 8.29993C35.5704 8.23432 35.5741 8.17154 35.5652 8.11158C35.5568 8.0519 35.5382 7.99625 35.5094 7.94463C35.4815 7.89273 35.445 7.84635 35.4001 7.80551C35.3552 7.76467 35.3042 7.73057 35.2473 7.70321C35.1435 7.65331 35.0369 7.63433 34.9274 7.64628C34.8185 7.65849 34.7147 7.70372 34.6159 7.78196C34.5177 7.86047 34.4329 7.97394 34.3616 8.12237C34.2902 8.2708 34.2545 8.40788 34.2545 8.5336C34.2551 8.65959 34.2846 8.76893 34.3431 8.86163C34.4022 8.95459 34.4836 9.02601 34.5874 9.07591C34.6443 9.10327 34.7027 9.12175 34.7627 9.13134C34.8227 9.14094 34.8815 9.14072 34.9392 9.13068C34.9978 9.12036 35.053 9.09984 35.1048 9.06913C35.1575 9.03812 35.2042 8.996 35.2449 8.94275L35.4525 9.04255C35.3948 9.12264 35.3286 9.18736 35.2541 9.2367C35.1795 9.28605 35.0999 9.32023 35.0152 9.33927C34.9307 9.35775 34.8442 9.36117 34.7557 9.34953C34.6677 9.33816 34.5805 9.31168 34.494 9.2701C34.3478 9.19981 34.235 9.1016 34.1555 8.97545C34.076 8.84929 34.0352 8.70468 34.0333 8.5416C34.0313 8.37853 34.0738 8.20659 34.1607 8.02579C34.2476 7.845 34.3554 7.70445 34.484 7.60415C34.6125 7.50384 34.7509 7.44534 34.8991 7.42864C35.0473 7.41194 35.1945 7.43874 35.3407 7.50902C35.4272 7.5506 35.5023 7.60219 35.5661 7.66378C35.6305 7.72565 35.6817 7.7956 35.7198 7.87366C35.7581 7.95116 35.7812 8.03443 35.7893 8.12347C35.7976 8.21196 35.7883 8.30404 35.7616 8.39972Z" fill="white"/>
<path d="M35.9235 10.0491C35.813 9.9828 35.7319 9.89839 35.6801 9.79583C35.6288 9.69358 35.6082 9.58119 35.6181 9.45866C35.6287 9.33645 35.6718 9.21217 35.7476 9.08582C35.8241 8.95841 35.9139 8.86104 36.0171 8.79373C36.1208 8.72673 36.2299 8.6918 36.3442 8.68893C36.4591 8.68638 36.5718 8.71824 36.6822 8.78449C36.7926 8.85074 36.8735 8.935 36.9248 9.03724C36.9766 9.13981 36.9971 9.25247 36.9862 9.37521C36.9759 9.49826 36.9326 9.6235 36.8561 9.75091C36.7803 9.87726 36.6907 9.97367 36.5873 10.0401C36.4844 10.1069 36.3755 10.1416 36.2606 10.1441C36.1463 10.147 36.0339 10.1153 35.9235 10.0491ZM36.0247 9.88024C36.1086 9.93056 36.1905 9.95047 36.2705 9.93996C36.3504 9.92945 36.4244 9.89696 36.4925 9.84249C36.5606 9.78802 36.6191 9.71991 36.6682 9.63815C36.7172 9.5564 36.7499 9.47241 36.7663 9.3862C36.7826 9.29998 36.7768 9.21886 36.7488 9.14284C36.7207 9.06681 36.6648 9.00364 36.5809 8.95331C36.497 8.90298 36.4149 8.88334 36.3347 8.89438C36.2544 8.90543 36.1801 8.93845 36.1117 8.99345C36.0433 9.04845 35.9846 9.11682 35.9356 9.19858C35.8865 9.28034 35.854 9.36406 35.8379 9.44974C35.8219 9.53543 35.8281 9.61602 35.8564 9.69151C35.8848 9.767 35.9409 9.82991 36.0247 9.88024Z" fill="white"/>
<path d="M37.4418 9.97058L36.942 10.6681L36.7639 10.5405L37.5946 9.38094L37.7668 9.50425L37.6369 9.68543L37.652 9.69625C37.7214 9.65683 37.7966 9.63909 37.8775 9.64302C37.9589 9.64645 38.0433 9.67953 38.1309 9.74227C38.2094 9.79852 38.2665 9.86384 38.3023 9.93824C38.3385 10.0121 38.3497 10.0933 38.3359 10.1816C38.3225 10.2695 38.2804 10.3627 38.2097 10.4614L37.6819 11.1982L37.5037 11.0705L38.0229 10.3458C38.0882 10.2547 38.1154 10.1668 38.1045 10.0821C38.0939 9.99685 38.0474 9.92467 37.9649 9.86553C37.908 9.82479 37.8483 9.8007 37.7859 9.79327C37.7239 9.7862 37.6632 9.79713 37.6036 9.82605C37.544 9.85496 37.4901 9.90314 37.4418 9.97058Z" fill="white"/>
<path d="M39.3191 10.6957L39.2015 10.8394L38.6293 10.3714L38.747 10.2276L39.3191 10.6957ZM39.1301 10.0995L39.2997 10.2383L38.4389 11.2906C38.3997 11.3385 38.3772 11.3802 38.3715 11.4155C38.3667 11.4507 38.3719 11.4814 38.3873 11.5076C38.4036 11.5337 38.4242 11.5569 38.4491 11.5773C38.4678 11.5926 38.4839 11.6042 38.4974 11.6121C38.5114 11.6195 38.5225 11.6254 38.5309 11.6299L38.4407 11.8105C38.4257 11.8054 38.4061 11.7966 38.382 11.784C38.3575 11.7719 38.3294 11.753 38.2977 11.7271C38.2498 11.6879 38.2113 11.6392 38.1821 11.5809C38.1535 11.5231 38.1413 11.4607 38.1456 11.3939C38.1504 11.3274 38.1791 11.2621 38.2316 11.1978L39.1301 10.0995Z" fill="white"/>
<path d="M38.6396 11.9941L39.5962 10.936L39.7533 11.0779L39.6088 11.2378L39.6198 11.2477C39.6864 11.2128 39.7597 11.2019 39.8397 11.215C39.9197 11.228 39.9914 11.2632 40.0548 11.3205C40.0667 11.3313 40.0815 11.345 40.099 11.3617C40.1164 11.3783 40.1294 11.3912 40.1377 11.4005L39.9883 11.5658C39.984 11.5594 39.9732 11.546 39.956 11.5253C39.9396 11.5047 39.9206 11.4846 39.899 11.4651C39.8476 11.4186 39.7919 11.3879 39.732 11.3729C39.6729 11.3579 39.6147 11.3587 39.5572 11.3752C39.5006 11.3916 39.4507 11.4237 39.4075 11.4715L38.8022 12.1411L38.6396 11.9941Z" fill="white"/>
<path d="M39.6677 13.0167C39.5779 12.9244 39.5211 12.8221 39.4972 12.7097C39.4738 12.5977 39.4825 12.4838 39.5235 12.3679C39.5649 12.2524 39.6384 12.1433 39.744 12.0405C39.8505 11.9369 39.9622 11.8657 40.0792 11.827C40.1966 11.7888 40.3109 11.7829 40.4222 11.8093C40.5339 11.8362 40.6347 11.8958 40.7245 11.9881C40.8144 12.0804 40.871 12.1825 40.8944 12.2945C40.9183 12.4069 40.9093 12.521 40.8675 12.6369C40.8261 12.7533 40.7521 12.8633 40.6456 12.9669C40.5401 13.0697 40.4288 13.14 40.3118 13.1778C40.1953 13.2161 40.0811 13.2217 39.9694 13.1948C39.8581 13.1684 39.7576 13.109 39.6677 13.0167ZM39.8088 12.8794C39.8771 12.9495 39.9512 12.9897 40.0311 13C40.1111 13.0102 40.191 12.9977 40.2707 12.9625C40.3504 12.9272 40.4244 12.8763 40.4928 12.8098C40.5611 12.7433 40.6142 12.6705 40.652 12.5913C40.6899 12.5121 40.705 12.4322 40.6973 12.3516C40.6896 12.2709 40.6517 12.1955 40.5835 12.1254C40.5152 12.0553 40.4409 12.0154 40.3605 12.0055C40.28 11.9957 40.1997 12.0086 40.1196 12.0443C40.0394 12.08 39.9652 12.1311 39.8968 12.1976C39.8285 12.2641 39.7757 12.3367 39.7383 12.4155C39.7008 12.4942 39.6862 12.5737 39.6943 12.6539C39.7024 12.7341 39.7406 12.8093 39.8088 12.8794Z" fill="white"/>
<path d="M41.933 12.6296L40.4949 13.8742L40.3515 13.7085L41.7895 12.4639L41.933 12.6296Z" fill="white"/>
<path d="M41.2273 14.7767L42.7812 13.68L43.1517 14.2051C43.2374 14.3265 43.287 14.4407 43.3005 14.5479C43.3145 14.6547 43.2988 14.7522 43.2534 14.8403C43.208 14.9284 43.1395 15.0048 43.0479 15.0694C42.9564 15.134 42.862 15.1726 42.7648 15.1851C42.6675 15.1977 42.5714 15.1796 42.4763 15.1307C42.3817 15.0815 42.2919 14.9967 42.207 14.8764L41.9071 14.4515L42.0771 14.3315L42.3727 14.7503C42.4312 14.8333 42.4905 14.8915 42.5504 14.9249C42.6108 14.9589 42.6712 14.9715 42.7318 14.9629C42.7932 14.9544 42.8551 14.9282 42.9173 14.8843C42.9795 14.8404 43.0257 14.7904 43.0558 14.7342C43.0859 14.6781 43.0956 14.6156 43.0848 14.5467C43.0745 14.4774 43.0398 14.4008 42.9805 14.3168L42.7471 13.986L41.3601 14.9648L41.2273 14.7767ZM42.4415 15.0154L42.0134 15.8905L41.8592 15.672L42.2916 14.803L42.4415 15.0154Z" fill="white"/>
<path d="M42.3945 16.6019C42.3248 16.4834 42.2908 16.3659 42.2925 16.2492C42.295 16.1327 42.3298 16.0235 42.3969 15.9215C42.4649 15.8197 42.5618 15.7317 42.6877 15.6576C42.8136 15.5835 42.9381 15.5411 43.0611 15.5304C43.185 15.5199 43.2983 15.5402 43.4008 15.5912C43.5043 15.6423 43.5886 15.7234 43.654 15.8344C43.6917 15.8984 43.7182 15.9679 43.7337 16.0429C43.7491 16.1179 43.7478 16.1951 43.73 16.2746C43.7127 16.3538 43.6737 16.4317 43.6132 16.5082C43.5527 16.5848 43.4651 16.6569 43.3504 16.7244L43.2704 16.7716L42.7125 15.8241L42.8757 15.7279L43.3205 16.4834C43.3899 16.4425 43.4436 16.3922 43.4817 16.3324C43.5201 16.2732 43.5401 16.209 43.5417 16.1397C43.5437 16.0711 43.5245 16.0026 43.4843 15.9343C43.44 15.8591 43.383 15.805 43.3133 15.772C43.2445 15.7393 43.1718 15.7257 43.0953 15.7312C43.0188 15.7367 42.9467 15.7594 42.8789 15.7993L42.7701 15.8634C42.6773 15.9181 42.608 15.9804 42.5623 16.0504C42.5175 16.1207 42.4952 16.1945 42.4955 16.2719C42.4964 16.349 42.5192 16.4257 42.5642 16.502C42.5934 16.5516 42.6267 16.5923 42.6641 16.6242C42.7024 16.6562 42.7443 16.6786 42.7899 16.6913C42.836 16.7037 42.8851 16.7053 42.9372 16.6962L42.9934 16.9088C42.9202 16.926 42.8468 16.9258 42.7731 16.9081C42.7 16.8901 42.6307 16.8554 42.5653 16.8041C42.5005 16.7525 42.4435 16.6851 42.3945 16.6019Z" fill="white"/>
<path d="M42.3626 17.5633L44.1291 16.7111L44.2211 16.9019L44.017 17.0003L44.0283 17.0237C44.0576 17.0275 44.0958 17.0338 44.1427 17.0428C44.1905 17.0521 44.2397 17.0744 44.2905 17.1097C44.342 17.1453 44.388 17.2049 44.4283 17.2886C44.4805 17.3968 44.4995 17.5052 44.4852 17.6138C44.4709 17.7224 44.4253 17.8238 44.3484 17.918C44.2714 18.0121 44.1655 18.0918 44.0305 18.1569C43.8945 18.2225 43.7654 18.2563 43.6432 18.2581C43.5217 18.2597 43.4138 18.2327 43.3196 18.1771C43.2259 18.1212 43.1533 18.0398 43.1017 17.9327C43.0618 17.8502 43.0436 17.7775 43.047 17.7147C43.0509 17.6516 43.064 17.5982 43.0862 17.5545C43.109 17.5105 43.1286 17.4756 43.145 17.4498L43.137 17.4331L42.4578 17.7607L42.3626 17.5633ZM43.5804 17.2151C43.4833 17.2619 43.4046 17.3174 43.3441 17.3816C43.2843 17.4456 43.2466 17.515 43.2311 17.5898C43.2162 17.6643 43.2279 17.7412 43.2661 17.8204C43.3059 17.9029 43.3608 17.9613 43.431 17.9955C43.5019 18.03 43.5812 18.0433 43.6688 18.0354C43.7573 18.0278 43.8472 18.002 43.9387 17.9579C44.029 17.9143 44.1037 17.8611 44.1627 17.7982C44.2226 17.7356 44.2603 17.6663 44.2758 17.59C44.2921 17.5141 44.28 17.4343 44.2397 17.3507C44.201 17.2704 44.148 17.2128 44.081 17.1777C44.0145 17.1425 43.9382 17.1284 43.8523 17.1355C43.7669 17.1423 43.6763 17.1688 43.5804 17.2151Z" fill="white"/>
<path d="M43.7027 19.3366C43.6569 19.2162 43.6454 19.0997 43.6681 18.9871C43.691 18.875 43.7443 18.7739 43.8279 18.6838C43.9118 18.5943 44.0225 18.5233 44.1603 18.4709C44.2991 18.4181 44.4299 18.3972 44.5527 18.4081C44.6756 18.4196 44.7829 18.4596 44.8745 18.5281C44.9664 18.5971 45.0352 18.6918 45.081 18.8122C45.1268 18.9325 45.1382 19.0487 45.1153 19.1608C45.0925 19.2734 45.039 19.3746 44.9545 19.4644C44.8703 19.5547 44.7588 19.6263 44.6199 19.6791C44.4822 19.7315 44.3522 19.7518 44.2298 19.7401C44.1077 19.729 44.0007 19.6889 43.9088 19.6198C43.8172 19.5513 43.7485 19.4569 43.7027 19.3366ZM43.8867 19.2666C43.9215 19.358 43.9735 19.4243 44.0429 19.4655C44.1122 19.5067 44.1904 19.5269 44.2776 19.5262C44.3648 19.5255 44.4529 19.5082 44.542 19.4743C44.6311 19.4404 44.7088 19.3946 44.7749 19.337C44.8411 19.2793 44.8867 19.212 44.9117 19.1349C44.9367 19.0578 44.9318 18.9736 44.897 18.8822C44.8622 18.7908 44.8098 18.7246 44.7399 18.6836C44.67 18.6426 44.5912 18.6226 44.5035 18.6235C44.4157 18.6245 44.3273 18.6419 44.2382 18.6758C44.1491 18.7097 44.0717 18.7553 44.0061 18.8128C43.9405 18.8702 43.8955 18.9373 43.8711 19.0142C43.8467 19.091 43.8519 19.1751 43.8867 19.2666Z" fill="white"/>
<path d="M44.054 20.2428L45.4182 19.8262L45.4801 20.0288L45.274 20.0917L45.2783 20.1059C45.3534 20.1101 45.4219 20.1384 45.4839 20.1907C45.5458 20.243 45.5892 20.31 45.6142 20.3917C45.6189 20.4071 45.6245 20.4265 45.6309 20.4497C45.6374 20.473 45.6418 20.4907 45.6443 20.5029L45.4311 20.568C45.4307 20.5604 45.4284 20.5433 45.4242 20.5167C45.4207 20.4906 45.4147 20.4636 45.4063 20.4358C45.386 20.3695 45.354 20.3145 45.3103 20.2709C45.2673 20.2277 45.2169 20.1984 45.1592 20.183C45.1022 20.1681 45.0429 20.17 44.9813 20.1888L44.118 20.4524L44.054 20.2428Z" fill="white"/>
<path d="M45.8471 21.377L45.667 21.4223L45.4867 20.7054L45.6668 20.6601L45.8471 21.377ZM46.0508 20.7857L46.1043 20.9982L44.7857 21.3298C44.7257 21.3449 44.6829 21.3649 44.6572 21.3899C44.6323 21.4153 44.6182 21.4431 44.615 21.4733C44.6125 21.5039 44.6151 21.5349 44.623 21.5661C44.6289 21.5895 44.6349 21.6084 44.6411 21.6228C44.6479 21.6371 44.6533 21.6485 44.6574 21.657L44.4773 21.7483C44.4683 21.7352 44.4578 21.7165 44.4459 21.692C44.4334 21.6677 44.4222 21.6357 44.4122 21.5961C44.3971 21.5361 44.3952 21.474 44.4066 21.4098C44.418 21.3463 44.4454 21.289 44.4887 21.2379C44.5322 21.1874 44.5942 21.152 44.6746 21.1318L46.0508 20.7857Z" fill="white"/>
<path d="M45.8062 22.8018L45.7141 22.6191C45.744 22.6007 45.7719 22.5767 45.7977 22.5471C45.8242 22.5181 45.8436 22.4815 45.8559 22.4375C45.8682 22.3935 45.8683 22.3402 45.8562 22.2776C45.8397 22.1919 45.8061 22.1243 45.7555 22.0748C45.7057 22.0258 45.6507 22.0071 45.5905 22.0187C45.537 22.0291 45.4985 22.0567 45.4751 22.1016C45.4516 22.1465 45.4375 22.2123 45.4328 22.2989L45.4219 22.5167C45.4158 22.6478 45.3873 22.7501 45.3366 22.8236C45.2864 22.8969 45.2124 22.9431 45.1146 22.962C45.0343 22.9775 44.9581 22.9683 44.886 22.9343C44.8139 22.901 44.7518 22.8468 44.6994 22.7718C44.6471 22.6967 44.6104 22.6048 44.5894 22.496C44.5618 22.3532 44.5699 22.229 44.6138 22.1234C44.6577 22.0178 44.7368 21.941 44.8511 21.893L44.9417 22.0874C44.8701 22.1214 44.8207 22.1691 44.7934 22.2305C44.7663 22.2925 44.7613 22.3676 44.7783 22.4557C44.7977 22.556 44.8344 22.6315 44.8883 22.6823C44.943 22.7335 45.0004 22.7533 45.0606 22.7417C45.1092 22.7323 45.1467 22.7074 45.1729 22.667C45.1998 22.6265 45.2146 22.5694 45.2174 22.4957L45.2269 22.2517C45.2325 22.1176 45.2614 22.0142 45.3136 21.9417C45.3665 21.8697 45.4413 21.8243 45.538 21.8057C45.617 21.7904 45.6912 21.7991 45.7606 21.8317C45.83 21.8649 45.8896 21.9168 45.9391 21.9873C45.9888 22.0584 46.0232 22.1432 46.0422 22.2416C46.069 22.3802 46.0597 22.4949 46.0141 22.5857C45.9688 22.6771 45.8994 22.7491 45.8062 22.8018Z" fill="white"/>
<path d="M50.2774 24.5352H2.70703V28.3584H50.2774V24.5352Z" fill="#878787"/>
<path d="M50.2774 24.5352H2.70703V28.3584H50.2774V24.5352Z" stroke="white" stroke-width="0.157431" stroke-miterlimit="10"/>
<path d="M8.45433 25.8534C8.44464 25.7715 8.40533 25.708 8.33642 25.6628C8.26751 25.6176 8.18299 25.595 8.08286 25.595C8.00964 25.595 7.94557 25.6068 7.89066 25.6305C7.83629 25.6542 7.79376 25.6867 7.76307 25.7282C7.73292 25.7697 7.71785 25.8168 7.71785 25.8695C7.71785 25.9137 7.72835 25.9516 7.74934 25.9834C7.77088 26.0146 7.79833 26.0407 7.83171 26.0617C7.86509 26.0822 7.90008 26.0991 7.93669 26.1126C7.9733 26.1255 8.00695 26.136 8.03763 26.1441L8.2056 26.1893C8.24867 26.2006 8.29659 26.2162 8.34935 26.2361C8.40264 26.2561 8.45352 26.2832 8.50197 26.3177C8.55096 26.3516 8.59134 26.3952 8.6231 26.4485C8.65487 26.5018 8.67075 26.5672 8.67075 26.6448C8.67075 26.7341 8.64733 26.8149 8.60049 26.887C8.55419 26.9592 8.48636 27.0165 8.39699 27.059C8.30816 27.1016 8.20022 27.1228 8.07317 27.1228C7.95473 27.1228 7.85217 27.1037 7.76549 27.0655C7.67936 27.0273 7.61152 26.974 7.56199 26.9056C7.513 26.8372 7.48528 26.7578 7.47882 26.6674H7.68555C7.69093 26.7298 7.71193 26.7815 7.74853 26.8224C7.78568 26.8628 7.83252 26.8929 7.88905 26.9129C7.94611 26.9322 8.00749 26.9419 8.07317 26.9419C8.14961 26.9419 8.21825 26.9295 8.27909 26.9048C8.33992 26.8795 8.38811 26.8445 8.42364 26.7998C8.45917 26.7546 8.47694 26.7018 8.47694 26.6415C8.47694 26.5866 8.46159 26.5419 8.43091 26.5075C8.40022 26.473 8.35984 26.445 8.30978 26.4235C8.25971 26.402 8.2056 26.3831 8.14746 26.367L7.94396 26.3088C7.81475 26.2717 7.71246 26.2186 7.63709 26.1497C7.56172 26.0808 7.52404 25.9906 7.52404 25.8792C7.52404 25.7866 7.54907 25.7059 7.59914 25.6369C7.64975 25.5675 7.71758 25.5137 7.80264 25.4754C7.88824 25.4367 7.9838 25.4173 8.08932 25.4173C8.19591 25.4173 8.29066 25.4364 8.37357 25.4746C8.45648 25.5123 8.52216 25.564 8.57061 25.6297C8.6196 25.6954 8.64544 25.7699 8.64814 25.8534H8.45433ZM9.00002 27.0938V25.4399H9.99814V25.6176H9.20029V26.1764H9.94646V26.354H9.20029V26.9161H10.0111V27.0938H9.00002ZM10.3591 27.0938V25.4399H10.9179C11.0471 25.4399 11.1532 25.462 11.2361 25.5061C11.319 25.5497 11.3804 25.6098 11.4202 25.6862C11.4601 25.7627 11.48 25.8496 11.48 25.947C11.48 26.0445 11.4601 26.1309 11.4202 26.2063C11.3804 26.2816 11.3193 26.3409 11.2369 26.3839C11.1545 26.4265 11.0493 26.4477 10.9212 26.4477H10.4689V26.2668H10.9147C11.003 26.2668 11.0741 26.2539 11.1279 26.2281C11.1823 26.2022 11.2216 26.1656 11.2458 26.1182C11.2706 26.0703 11.2829 26.0133 11.2829 25.947C11.2829 25.8808 11.2706 25.8229 11.2458 25.7734C11.221 25.7239 11.1815 25.6857 11.1271 25.6587C11.0727 25.6313 11.0008 25.6176 10.9115 25.6176H10.5594V27.0938H10.3591ZM11.1376 26.3508L11.5446 27.0938H11.312L10.9115 26.3508H11.1376ZM11.8438 25.4399L12.3348 26.8321H12.3541L12.8451 25.4399H13.0551L12.4478 27.0938H12.2411L11.6338 25.4399H11.8438ZM13.513 25.4399V27.0938H13.3127V25.4399H13.513ZM15.2453 25.9567H15.0451C15.0332 25.8991 15.0125 25.8485 14.9829 25.8049C14.9538 25.7613 14.9183 25.7247 14.8763 25.6951C14.8348 25.6649 14.7888 25.6423 14.7382 25.6273C14.6876 25.6122 14.6348 25.6046 14.5799 25.6046C14.4798 25.6046 14.3891 25.6299 14.3078 25.6806C14.227 25.7312 14.1627 25.8057 14.1148 25.9042C14.0674 26.0028 14.0437 26.1236 14.0437 26.2668C14.0437 26.41 14.0674 26.5309 14.1148 26.6294C14.1627 26.7279 14.227 26.8025 14.3078 26.8531C14.3891 26.9037 14.4798 26.929 14.5799 26.929C14.6348 26.929 14.6876 26.9215 14.7382 26.9064C14.7888 26.8913 14.8348 26.869 14.8763 26.8394C14.9183 26.8092 14.9538 26.7723 14.9829 26.7287C15.0125 26.6846 15.0332 26.634 15.0451 26.5769H15.2453C15.2303 26.6614 15.2028 26.7371 15.163 26.8038C15.1231 26.8706 15.0736 26.9274 15.0144 26.9742C14.9552 27.0205 14.8887 27.0558 14.8149 27.08C14.7417 27.1042 14.6634 27.1164 14.5799 27.1164C14.4389 27.1164 14.3134 27.0819 14.2036 27.013C14.0938 26.9441 14.0074 26.8461 13.9444 26.7191C13.8814 26.592 13.8499 26.4413 13.8499 26.2668C13.8499 26.0924 13.8814 25.9417 13.9444 25.8146C14.0074 25.6876 14.0938 25.5896 14.2036 25.5207C14.3134 25.4517 14.4389 25.4173 14.5799 25.4173C14.6634 25.4173 14.7417 25.4294 14.8149 25.4536C14.8887 25.4779 14.9552 25.5134 15.0144 25.5602C15.0736 25.6065 15.1231 25.6631 15.163 25.7298C15.2028 25.796 15.2303 25.8717 15.2453 25.9567ZM15.569 27.0938V25.4399H16.5671V25.6176H15.7692V26.1764H16.5154V26.354H15.7692V26.9161H16.58V27.0938H15.569ZM18.9631 26.2668C18.9631 26.4413 18.9316 26.592 18.8686 26.7191C18.8056 26.8461 18.7192 26.9441 18.6094 27.013C18.4995 27.0819 18.3741 27.1164 18.233 27.1164C18.092 27.1164 17.9666 27.0819 17.8567 27.013C17.7469 26.9441 17.6605 26.8461 17.5975 26.7191C17.5345 26.592 17.503 26.4413 17.503 26.2668C17.503 26.0924 17.5345 25.9417 17.5975 25.8146C17.6605 25.6876 17.7469 25.5896 17.8567 25.5207C17.9666 25.4517 18.092 25.4173 18.233 25.4173C18.3741 25.4173 18.4995 25.4517 18.6094 25.5207C18.7192 25.5896 18.8056 25.6876 18.8686 25.8146C18.9316 25.9417 18.9631 26.0924 18.9631 26.2668ZM18.7693 26.2668C18.7693 26.1236 18.7453 26.0028 18.6974 25.9042C18.65 25.8057 18.5857 25.7312 18.5044 25.6806C18.4236 25.6299 18.3332 25.6046 18.233 25.6046C18.1329 25.6046 18.0422 25.6299 17.9609 25.6806C17.8801 25.7312 17.8158 25.8057 17.7679 25.9042C17.7205 26.0028 17.6968 26.1236 17.6968 26.2668C17.6968 26.41 17.7205 26.5309 17.7679 26.6294C17.8158 26.7279 17.8801 26.8025 17.9609 26.8531C18.0422 26.9037 18.1329 26.929 18.233 26.929C18.3332 26.929 18.4236 26.9037 18.5044 26.8531C18.5857 26.8025 18.65 26.7279 18.6974 26.6294C18.7453 26.5309 18.7693 26.41 18.7693 26.2668ZM19.2998 27.0938V25.4399H19.8586C19.9878 25.4399 20.0939 25.462 20.1768 25.5061C20.2597 25.5497 20.3211 25.6098 20.3609 25.6862C20.4008 25.7627 20.4207 25.8496 20.4207 25.947C20.4207 26.0445 20.4008 26.1309 20.3609 26.2063C20.3211 26.2816 20.26 26.3409 20.1776 26.3839C20.0952 26.4265 19.99 26.4477 19.8619 26.4477H19.4096V26.2668H19.8554C19.9437 26.2668 20.0147 26.2539 20.0686 26.2281C20.123 26.2022 20.1623 26.1656 20.1865 26.1182C20.2113 26.0703 20.2236 26.0133 20.2236 25.947C20.2236 25.8808 20.2113 25.8229 20.1865 25.7734C20.1617 25.7239 20.1222 25.6857 20.0678 25.6587C20.0134 25.6313 19.9415 25.6176 19.8522 25.6176H19.5001V27.0938H19.2998ZM20.0783 26.3508L20.4853 27.0938H20.2527L19.8522 26.3508H20.0783ZM21.8849 25.9567C21.8672 25.9024 21.8438 25.8536 21.8147 25.8106C21.7862 25.767 21.752 25.7298 21.7121 25.6991C21.6728 25.6684 21.6281 25.645 21.5781 25.6289C21.528 25.6127 21.4731 25.6046 21.4133 25.6046C21.3154 25.6046 21.2263 25.6299 21.146 25.6806C21.0658 25.7312 21.002 25.8057 20.9547 25.9042C20.9073 26.0028 20.8836 26.1236 20.8836 26.2668C20.8836 26.41 20.9076 26.5309 20.9555 26.6294C21.0034 26.7279 21.0683 26.8025 21.1501 26.8531C21.2319 26.9037 21.324 26.929 21.4263 26.929C21.521 26.929 21.6045 26.9088 21.6766 26.8684C21.7493 26.8275 21.8058 26.7699 21.8462 26.6956C21.8871 26.6208 21.9076 26.5328 21.9076 26.4316L21.9689 26.4445H21.4715V26.2668H22.1014V26.4445C22.1014 26.5807 22.0723 26.6991 22.0142 26.7998C21.9565 26.9005 21.8769 26.9785 21.7751 27.034C21.6739 27.0889 21.5576 27.1164 21.4263 27.1164C21.2798 27.1164 21.1512 27.0819 21.0403 27.013C20.9299 26.9441 20.8438 26.8461 20.7818 26.7191C20.7205 26.592 20.6898 26.4413 20.6898 26.2668C20.6898 26.136 20.7073 26.0184 20.7423 25.9139C20.7778 25.809 20.8279 25.7196 20.8925 25.6458C20.9571 25.5721 21.0335 25.5155 21.1218 25.4762C21.2101 25.4369 21.3073 25.4173 21.4133 25.4173C21.5006 25.4173 21.5818 25.4305 21.6572 25.4569C21.7331 25.4827 21.8007 25.5196 21.8599 25.5675C21.9197 25.6149 21.9695 25.6717 22.0093 25.7379C22.0491 25.8036 22.0766 25.8765 22.0917 25.9567H21.8849ZM22.4611 27.0938H22.2512L22.8584 25.4399H23.0652L23.6724 27.0938H23.4625L22.9683 25.7015H22.9553L22.4611 27.0938ZM22.5387 26.4477H23.385V26.6254H22.5387V26.4477ZM25.2415 25.4399V27.0938H25.0477L24.1465 25.7952H24.1303V27.0938H23.93V25.4399H24.1239L25.0283 26.7417H25.0445V25.4399H25.2415ZM25.8425 25.4399V27.0938H25.6422V25.4399H25.8425ZM26.1891 27.0938V26.9484L27.0807 25.6176H26.1795V25.4399H27.3197V25.5853L26.4282 26.9161H27.3294V27.0938H26.1891ZM27.7332 27.0938H27.5232L28.1305 25.4399H28.3372L28.9445 27.0938H28.7345L28.2403 25.7015H28.2274L27.7332 27.0938ZM27.8107 26.4477H28.657V26.6254H27.8107V26.4477Z" fill="white"/>
<path d="M36.6372 25.6176V25.4399H37.8776V25.6176H37.3575V27.0938H37.1572V25.6176H36.6372ZM38.3869 25.4399V27.0938H38.1866V25.4399H38.3869ZM40.1839 26.2668C40.1839 26.4413 40.1524 26.592 40.0894 26.7191C40.0264 26.8461 39.94 26.9441 39.8302 27.013C39.7204 27.0819 39.5949 27.1164 39.4539 27.1164C39.3128 27.1164 39.1874 27.0819 39.0776 27.013C38.9677 26.9441 38.8813 26.8461 38.8183 26.7191C38.7553 26.592 38.7239 26.4413 38.7239 26.2668C38.7239 26.0924 38.7553 25.9417 38.8183 25.8146C38.8813 25.6876 38.9677 25.5896 39.0776 25.5207C39.1874 25.4517 39.3128 25.4173 39.4539 25.4173C39.5949 25.4173 39.7204 25.4517 39.8302 25.5207C39.94 25.5896 40.0264 25.6876 40.0894 25.8146C40.1524 25.9417 40.1839 26.0924 40.1839 26.2668ZM39.9901 26.2668C39.9901 26.1236 39.9661 26.0028 39.9182 25.9042C39.8708 25.8057 39.8065 25.7312 39.7252 25.6806C39.6445 25.6299 39.554 25.6046 39.4539 25.6046C39.3537 25.6046 39.263 25.6299 39.1817 25.6806C39.101 25.7312 39.0366 25.8057 38.9887 25.9042C38.9414 26.0028 38.9177 26.1236 38.9177 26.2668C38.9177 26.41 38.9414 26.5309 38.9887 26.6294C39.0366 26.7279 39.101 26.8025 39.1817 26.8531C39.263 26.9037 39.3537 26.929 39.4539 26.929C39.554 26.929 39.6445 26.9037 39.7252 26.8531C39.8065 26.8025 39.8708 26.7279 39.9182 26.6294C39.9661 26.5309 39.9901 26.41 39.9901 26.2668ZM41.8321 25.4399V27.0938H41.6383L40.7371 25.7952H40.7209V27.0938H40.5206V25.4399H40.7144L41.6189 26.7417H41.635V25.4399H41.8321ZM43.1373 25.8534C43.1276 25.7715 43.0883 25.708 43.0194 25.6628C42.9505 25.6176 42.8659 25.595 42.7658 25.595C42.6926 25.595 42.6285 25.6068 42.5736 25.6305C42.5192 25.6542 42.4767 25.6867 42.446 25.7282C42.4159 25.7697 42.4008 25.8168 42.4008 25.8695C42.4008 25.9137 42.4113 25.9516 42.4323 25.9834C42.4538 26.0146 42.4813 26.0407 42.5147 26.0617C42.548 26.0822 42.583 26.0991 42.6196 26.1126C42.6562 26.1255 42.6899 26.136 42.7206 26.1441L42.8885 26.1893C42.9316 26.2006 42.9795 26.2162 43.0323 26.2361C43.0856 26.2561 43.1365 26.2832 43.1849 26.3177C43.2339 26.3516 43.2743 26.3952 43.306 26.4485C43.3378 26.5018 43.3537 26.5672 43.3537 26.6448C43.3537 26.7341 43.3303 26.8149 43.2834 26.887C43.2371 26.9592 43.1693 27.0165 43.0799 27.059C42.9911 27.1016 42.8832 27.1228 42.7561 27.1228C42.6377 27.1228 42.5351 27.1037 42.4484 27.0655C42.3623 27.0273 42.2945 26.974 42.2449 26.9056C42.1959 26.8372 42.1682 26.7578 42.1618 26.6674H42.3685C42.3739 26.7298 42.3949 26.7815 42.4315 26.8224C42.4686 26.8628 42.5155 26.8929 42.572 26.9129C42.6291 26.9322 42.6904 26.9419 42.7561 26.9419C42.8326 26.9419 42.9012 26.9295 42.962 26.9048C43.0229 26.8795 43.0711 26.8445 43.1066 26.7998C43.1421 26.7546 43.1599 26.7018 43.1599 26.6415C43.1599 26.5866 43.1445 26.5419 43.1139 26.5075C43.0832 26.473 43.0428 26.445 42.9927 26.4235C42.9427 26.402 42.8885 26.3831 42.8304 26.367L42.6269 26.3088C42.4977 26.2717 42.3954 26.2186 42.32 26.1497C42.2447 26.0808 42.207 25.9906 42.207 25.8792C42.207 25.7866 42.232 25.7059 42.2821 25.6369C42.3327 25.5675 42.4005 25.5137 42.4856 25.4754C42.5712 25.4367 42.6667 25.4173 42.7723 25.4173C42.8789 25.4173 42.9736 25.4364 43.0565 25.4746C43.1394 25.5123 43.2051 25.564 43.2536 25.6297C43.3025 25.6954 43.3284 25.7699 43.3311 25.8534H43.1373Z" fill="white"/>
<path d="M44.9346 11.4667C44.9303 11.4299 44.9126 11.4013 44.8816 11.381C44.8506 11.3606 44.8125 11.3504 44.7675 11.3504C44.7345 11.3504 44.7057 11.3558 44.681 11.3664C44.6565 11.3771 44.6374 11.3917 44.6236 11.4104C44.61 11.429 44.6032 11.4502 44.6032 11.474C44.6032 11.4939 44.6079 11.5109 44.6174 11.5252C44.6271 11.5393 44.6394 11.551 44.6545 11.5605C44.6695 11.5697 44.6852 11.5773 44.7017 11.5834C44.7182 11.5892 44.7333 11.5939 44.7471 11.5975L44.8227 11.6179C44.8421 11.623 44.8636 11.63 44.8874 11.639C44.9114 11.6479 44.9343 11.6602 44.9561 11.6757C44.9781 11.6909 44.9963 11.7106 45.0106 11.7345C45.0249 11.7585 45.032 11.788 45.032 11.8229C45.032 11.8631 45.0215 11.8994 45.0004 11.9319C44.9796 11.9643 44.949 11.9901 44.9088 12.0093C44.8689 12.0284 44.8203 12.038 44.7631 12.038C44.7098 12.038 44.6637 12.0294 44.6247 12.0122C44.5859 11.995 44.5554 11.971 44.5331 11.9402C44.511 11.9095 44.4986 11.8737 44.4956 11.833H44.5887C44.5911 11.8611 44.6005 11.8844 44.617 11.9028C44.6337 11.921 44.6548 11.9345 44.6803 11.9435C44.7059 11.9522 44.7336 11.9566 44.7631 11.9566C44.7975 11.9566 44.8284 11.951 44.8558 11.9399C44.8832 11.9285 44.9048 11.9127 44.9208 11.8926C44.9368 11.8723 44.9448 11.8485 44.9448 11.8214C44.9448 11.7967 44.9379 11.7766 44.9241 11.7611C44.9103 11.7456 44.8921 11.733 44.8696 11.7233C44.8471 11.7136 44.8227 11.7051 44.7965 11.6978L44.705 11.6717C44.6468 11.655 44.6008 11.6311 44.5669 11.6001C44.533 11.5691 44.516 11.5285 44.516 11.4783C44.516 11.4367 44.5273 11.4003 44.5498 11.3693C44.5726 11.3381 44.6031 11.3138 44.6414 11.2966C44.6799 11.2792 44.7229 11.2705 44.7704 11.2705C44.8183 11.2705 44.861 11.2791 44.8983 11.2963C44.9356 11.3132 44.9652 11.3365 44.987 11.3661C45.009 11.3956 45.0206 11.4292 45.0218 11.4667H44.9346ZM45.1802 11.2807H45.2878L45.5407 11.8984H45.5494L45.8023 11.2807H45.9099V12.0249H45.8256V11.4594H45.8183L45.5858 12.0249H45.5044L45.2718 11.4594H45.2645V12.0249H45.1802V11.2807Z" fill="#171717"/>
</svg>
