<svg width="149" height="50" viewBox="0 0 149 50" fill="none" xmlns="http://www.w3.org/2000/svg">
<g clip-path="url(#clip0_2308_45301)">
<path d="M109.14 35.149H93.0059L96.2698 23.8937H107.795L106.488 28.3975H99.576L98.9223 30.641H110.443L109.14 35.149ZM113.058 21.6418H96.9235L98.2307 17.1381H114.357L113.054 21.6418H113.058Z" fill="#78BE43"/>
<path d="M128.193 30.6367C127.894 31.6573 127.636 32.3784 127.396 32.8043C126.987 33.5507 126.43 34.1073 125.718 34.4784C124.857 34.9212 123.706 35.1532 122.272 35.1532H115.356C113.868 35.1532 112.83 34.9044 112.244 34.4278C111.755 34.0357 111.548 33.4411 111.607 32.6356C111.629 32.3404 111.683 32.0157 111.768 31.6615C111.806 31.5223 111.903 31.1765 112.059 30.641L114.011 23.8937H118.62L116.664 30.641H123.58L124.225 28.3975H128.83L128.185 30.6367H128.193ZM130.145 23.8937H125.541L126.19 21.646H114.669C114.964 20.634 115.23 19.9086 115.462 19.4869C115.871 18.7363 116.436 18.1797 117.144 17.8128C118.005 17.3658 119.156 17.1465 120.586 17.1465H127.497C128.986 17.1465 130.023 17.3869 130.614 17.8676C131.099 18.264 131.305 18.8628 131.25 19.664C131.233 19.955 131.179 20.2797 131.094 20.6297C131.065 20.7731 130.964 21.1147 130.803 21.6503L130.154 23.8937H130.145Z" fill="#78BE43"/>
<path d="M145.934 30.6367C145.643 31.6573 145.373 32.3784 145.142 32.8043C144.737 33.5507 144.176 34.1073 143.467 34.4784C142.607 34.9212 141.456 35.1532 140.022 35.1532H133.106C131.618 35.1532 130.58 34.9044 129.99 34.4278C129.513 34.0399 129.298 33.4411 129.357 32.6356C129.378 32.3404 129.433 32.0157 129.522 31.6699C129.555 31.5223 129.648 31.1849 129.813 30.641L131.769 23.8937H136.374L134.418 30.641H141.329L143.94 21.646H132.415C132.714 20.6297 132.971 19.9086 133.212 19.4869C133.621 18.7363 134.177 18.1797 134.886 17.8128C135.742 17.37 136.893 17.1465 138.327 17.1465H145.239C146.727 17.1465 147.764 17.3869 148.355 17.8676C148.836 18.264 149.046 18.8628 148.992 19.664C148.971 19.955 148.92 20.2755 148.836 20.6297C148.798 20.7731 148.701 21.1147 148.54 21.6503L145.93 30.641L145.934 30.6367Z" fill="#78BE43"/>
<path d="M75.0124 0.717041L56.7485 14.2115L65.7265 35.0731L55.9304 35.09L49.8494 19.3858L42.6341 25.0324L40.3527 35.1153L0 35.1364L1.10908 28.7138L24.5979 6.84016H7.26593L8.375 0.847769L36.4351 0.835118L35.2121 6.41424L10.5594 29.0301L34.0777 28.9964L40.475 0.839335L48.5927 0.717041L44.9872 15.5441L63.7529 0.759211L75.0124 0.717041Z" fill="white"/>
<path d="M75.012 0.717041H105.265L103.097 6.84016L91.9476 6.91184L83.5009 35.0942L75.9187 35.1026L84.0449 6.87811L66.6328 6.90763L75.012 0.717041Z" fill="#78BE43"/>
<path d="M125.215 39.2563L120.45 49.6808H117.987L117.346 42.2589L114.002 49.6808L111.552 49.6977L110.582 39.2606H112.821L113.239 47.353L116.777 39.2606H119.105L119.674 47.3109L122.959 39.2606H125.215V39.2563Z" fill="white"/>
<path d="M133.009 39.2563L132.71 40.901H128.379L127.902 43.6336H131.217L130.934 45.2445H127.603L126.827 49.6808H124.723L126.574 39.2563H133.009Z" fill="white"/>
<path d="M145.853 39.2563L144.014 49.6808H141.91L143.103 42.9336L139.131 49.6808H137.533L135.934 42.9167L134.741 49.6808H132.637L134.488 39.2563H136.862L138.819 46.9904L143.479 39.2563H145.853Z" fill="white"/>
</g>
<defs>
<clipPath id="clip0_2308_45301">
<rect width="149" height="48.9765" fill="white" transform="translate(0 0.717041)"/>
</clipPath>
</defs>
</svg>
