<svg width="149" height="49" viewBox="0 0 149 49" fill="none" xmlns="http://www.w3.org/2000/svg">
<g clip-path="url(#clip0_667_7660)">
<path d="M109.141 34.4319H93.0068L96.2708 23.1767H107.796L106.489 27.6805H99.577L98.9233 29.9239H110.444L109.141 34.4319ZM113.059 20.9248H96.9244L98.2317 16.421H114.358L113.055 20.9248H113.059Z" fill="#78BE43"/>
<path d="M128.194 29.9197C127.895 30.9402 127.637 31.6613 127.397 32.0872C126.988 32.8337 126.431 33.3903 125.719 33.7614C124.858 34.2042 123.707 34.4361 122.273 34.4361H115.357C113.869 34.4361 112.831 34.1873 112.245 33.7108C111.756 33.3186 111.549 32.724 111.608 31.9186C111.63 31.6234 111.684 31.2987 111.769 30.9444C111.807 30.8053 111.904 30.4595 112.06 29.9239L114.012 23.1767H118.621L116.665 29.9239H123.581L124.226 27.6805H128.831L128.186 29.9197H128.194ZM130.146 23.1767H125.541L126.191 20.929H114.67C114.965 19.9169 115.231 19.1916 115.463 18.7699C115.872 18.0193 116.437 17.4626 117.145 17.0957C118.006 16.6487 119.157 16.4294 120.586 16.4294H127.498C128.987 16.4294 130.024 16.6698 130.615 17.1506C131.1 17.547 131.306 18.1458 131.251 18.947C131.234 19.238 131.18 19.5627 131.095 19.9127C131.066 20.0561 130.965 20.3977 130.804 20.9332L130.155 23.1767H130.146Z" fill="#78BE43"/>
<path d="M145.934 29.9197C145.643 30.9402 145.373 31.6613 145.142 32.0872C144.737 32.8337 144.176 33.3903 143.467 33.7614C142.607 34.2042 141.456 34.4361 140.022 34.4361H133.106C131.618 34.4361 130.58 34.1873 129.99 33.7108C129.513 33.3228 129.298 32.724 129.357 31.9186C129.378 31.6234 129.433 31.2987 129.522 30.9529C129.555 30.8053 129.648 30.4679 129.813 29.9239L131.769 23.1767H136.374L134.418 29.9239H141.329L143.94 20.929H132.415C132.714 19.9127 132.971 19.1916 133.212 18.7699C133.621 18.0193 134.177 17.4626 134.886 17.0957C135.742 16.6529 136.893 16.4294 138.327 16.4294H145.239C146.727 16.4294 147.764 16.6698 148.355 17.1506C148.836 17.547 149.046 18.1458 148.992 18.947C148.971 19.238 148.92 19.5585 148.836 19.9127C148.798 20.0561 148.701 20.3977 148.54 20.9332L145.93 29.9239L145.934 29.9197Z" fill="#78BE43"/>
<path d="M75.0124 0L56.7485 13.4945L65.7265 34.3561L55.9304 34.3729L49.8494 18.6688L42.6341 24.3153L40.3527 34.3982L0 34.4193L1.10908 27.9968L24.5979 6.12312H7.26593L8.375 0.130728L36.4351 0.118077L35.2121 5.6972L10.5594 28.3131L34.0777 28.2793L40.475 0.122294L48.5927 0L44.9872 14.827L63.7529 0.0421702L75.0124 0Z" fill="#494C50"/>
<path d="M75.012 0H105.265L103.097 6.12311L91.9476 6.1948L83.5009 34.3772L75.9187 34.3856L84.0449 6.16107L66.6328 6.19059L75.012 0Z" fill="#78BE43"/>
<path d="M125.216 38.5393L120.451 48.9638H117.988L117.347 41.5418L114.003 48.9638L111.553 48.9807L110.583 38.5435H112.822L113.24 46.636L116.778 38.5435H119.106L119.675 46.5938L122.96 38.5435H125.216V38.5393Z" fill="#494C50"/>
<path d="M133.009 38.5393L132.71 40.1839H128.379L127.902 42.9166H131.217L130.934 44.5275H127.603L126.827 48.9638H124.723L126.574 38.5393H133.009Z" fill="#494C50"/>
<path d="M145.854 38.5393L144.015 48.9638H141.911L143.104 42.2165L139.132 48.9638H137.534L135.935 42.1997L134.742 48.9638H132.638L134.489 38.5393H136.863L138.82 46.2733L143.48 38.5393H145.854Z" fill="#494C50"/>
</g>
<defs>
<clipPath id="clip0_667_7660">
<rect width="149" height="48.9765" fill="white"/>
</clipPath>
</defs>
</svg>
