<svg width="33" height="33" viewBox="0 0 33 33" fill="none" xmlns="http://www.w3.org/2000/svg">
<path d="M31.623 11.1627H1.37891V21.8373H31.6232V11.1627H31.623Z" stroke="#121212" stroke-width="1.09007" stroke-miterlimit="10"/>
<path d="M29.5963 15.6562H27.1055V17.6136H29.5963V15.6562Z" fill="#7EBB48"/>
<path d="M26.3734 15.6562H23.8828V17.6136H26.3734V15.6562Z" fill="#121212"/>
<path d="M23.1195 15.6562H20.6289V17.6136H23.1195V15.6562Z" fill="#7EBB48"/>
<path d="M5.38144 15.483H2.89062V17.4401H5.38144V15.483Z" fill="#121212"/>
<path d="M5.38144 12.7291H2.89062V14.6858H5.38144V12.7291Z" fill="#7EBB48"/>
<path d="M5.38144 18.3141H2.89062V20.2709H5.38144V18.3141Z" fill="#121212"/>
<path d="M8.79527 15.483H6.30469V17.4401H8.79527V15.483Z" fill="#7EBB48"/>
<path d="M8.79527 12.7291H6.30469V14.6858H8.79527V12.7291Z" fill="#121212"/>
<path d="M8.79527 18.3141H6.30469V20.2709H8.79527V18.3141Z" fill="#121212"/>
<path d="M12.2057 15.483H9.71484V17.4401H12.2057V15.483Z" fill="#121212"/>
<path d="M12.2057 12.7291H9.71484V14.6858H12.2057V12.7291Z" fill="#121212"/>
<path d="M12.2057 18.3141H9.71484V20.2709H12.2057V18.3141Z" fill="#7EBB48"/>
<path d="M15.6158 15.483H13.125V17.4401H15.6158V15.483Z" fill="#121212"/>
<path d="M15.6158 12.7291H13.125V14.6858H15.6158V12.7291Z" fill="#121212"/>
<path d="M15.6158 18.3141H13.125V20.2709H15.6158V18.3141Z" fill="#7EBB48"/>
<path d="M26.3734 12.9023H23.8828V14.8594H26.3734V12.9023Z" fill="#7EBB48"/>
<path d="M26.3734 18.4874H23.8828V20.4443H26.3734V18.4874Z" fill="#7EBB48"/>
</svg>
