<svg width="22" height="22" viewBox="0 0 22 22" fill="none" xmlns="http://www.w3.org/2000/svg">
<path d="M1.83203 6.14393C4.35297 3.88914 7.61651 2.64258 10.9987 2.64258C14.3809 2.64258 17.6444 3.88914 20.1654 6.14393" stroke="black" stroke-width="1.83333" stroke-linecap="round" stroke-linejoin="round"/>
<path d="M4.58203 9.84619C6.29555 8.16661 8.5993 7.22583 10.9987 7.22583C13.3981 7.22583 15.7019 8.16661 17.4154 9.84619" stroke="black" stroke-width="1.83333" stroke-linecap="round" stroke-linejoin="round"/>
<path d="M10.3338 16.812V17.7304H9.49884V19.0292H8.47839V17.7304H5.39848V16.8862L8.23719 12.5354H9.49884V16.812H10.3338ZM6.50243 16.812H8.47839V13.7878L6.50243 16.812ZM16.3796 15.8379C16.7043 15.8379 16.9733 16.1163 16.9733 16.4409V19.0292H15.9528L16.1291 18.0273C15.6931 18.7045 14.9231 19.1776 13.8377 19.1776C12.0009 19.1776 10.6929 17.8325 10.6929 15.773C10.6929 13.7785 11.8989 12.387 13.9398 12.387C15.823 12.387 16.8434 13.5837 16.9826 15.0216H15.8879C15.8137 14.1032 15.1086 13.2961 13.9398 13.2961C12.6132 13.2961 11.7875 14.3258 11.7875 15.773C11.7875 17.313 12.7431 18.2685 13.9398 18.2685C15.053 18.2685 15.6931 17.4428 15.7951 16.7842H13.8377V15.8379H16.3796Z" fill="#7EBB48"/>
<path d="M10.3338 16.812H10.4308V16.715H10.3338V16.812ZM10.3338 17.7304V17.8275H10.4308V17.7304H10.3338ZM9.49884 17.7304V17.6334H9.40178V17.7304H9.49884ZM9.49884 19.0292V19.1262H9.5959V19.0292H9.49884ZM8.47839 19.0292H8.38133V19.1262H8.47839V19.0292ZM8.47839 17.7304H8.57545V17.6334H8.47839V17.7304ZM5.39848 17.7304H5.30142V17.8275H5.39848V17.7304ZM5.39848 16.8862L5.3172 16.8332L5.30142 16.8574V16.8862H5.39848ZM8.23719 12.5354V12.4383H8.18463L8.15591 12.4824L8.23719 12.5354ZM9.49884 12.5354H9.5959V12.4383H9.49884V12.5354ZM9.49884 16.812H9.40178V16.9091H9.49884V16.812ZM6.50243 16.812L6.42117 16.7589L6.32307 16.9091H6.50243V16.812ZM8.47839 16.812V16.9091H8.57545V16.812H8.47839ZM8.47839 13.7878H8.57545V13.4618L8.39714 13.7347L8.47839 13.7878ZM10.2367 16.812V17.7304H10.4308V16.812H10.2367ZM10.3338 17.6334H9.49884V17.8275H10.3338V17.6334ZM9.40178 17.7304V19.0292H9.5959V17.7304H9.40178ZM9.49884 18.9321H8.47839V19.1262H9.49884V18.9321ZM8.57545 19.0292V17.7304H8.38133V19.0292H8.57545ZM8.47839 17.6334H5.39848V17.8275H8.47839V17.6334ZM5.49554 17.7304V16.8862H5.30142V17.7304H5.49554ZM5.47977 16.9393L8.31848 12.5884L8.15591 12.4824L5.3172 16.8332L5.47977 16.9393ZM8.23719 12.6325H9.49884V12.4383H8.23719V12.6325ZM9.40178 12.5354V16.812H9.5959V12.5354H9.40178ZM9.49884 16.9091H10.3338V16.715H9.49884V16.9091ZM6.50243 16.9091H8.47839V16.715H6.50243V16.9091ZM8.57545 16.812V13.7878H8.38133V16.812H8.57545ZM8.39714 13.7347L6.42117 16.7589L6.58368 16.8651L8.55964 13.8409L8.39714 13.7347ZM16.9733 19.0292V19.1262H17.0703V19.0292H16.9733ZM15.9528 19.0292L15.8572 19.0124L15.8372 19.1262H15.9528V19.0292ZM16.1291 18.0273L16.2247 18.0441L16.0475 17.9747L16.1291 18.0273ZM16.9826 15.0216V15.1186H17.0895L17.0792 15.0122L16.9826 15.0216ZM15.8879 15.0216L15.7912 15.0294L15.7984 15.1186H15.8879V15.0216ZM15.7951 16.7842L15.891 16.799L15.9084 16.6871H15.7951V16.7842ZM13.8377 16.7842H13.7407V16.8812H13.8377V16.7842ZM13.8377 15.8379V15.7409H13.7407V15.8379H13.8377ZM16.3796 15.935C16.6487 15.935 16.8762 16.1679 16.8762 16.4409H17.0703C17.0703 16.0646 16.7598 15.7409 16.3796 15.7409V15.935ZM16.8762 16.4409V19.0292H17.0703V16.4409H16.8762ZM16.9733 18.9321H15.9528V19.1262H16.9733V18.9321ZM16.0484 19.046L16.2247 18.0441L16.0335 18.0105L15.8572 19.0124L16.0484 19.046ZM16.0475 17.9747C15.6303 18.6228 14.8919 19.0805 13.8377 19.0805V19.2747C14.9544 19.2747 15.7559 18.7862 16.2107 18.0798L16.0475 17.9747ZM13.8377 19.0805C12.944 19.0805 12.1841 18.7538 11.6473 18.1812C11.1101 17.6082 10.7899 16.782 10.7899 15.773H10.5958C10.5958 16.8234 10.9297 17.6996 11.5057 18.314C12.0821 18.9288 12.8946 19.2747 13.8377 19.2747V19.0805ZM10.7899 15.773C10.7899 14.7951 11.0854 13.974 11.622 13.3982C12.1578 12.8234 12.9424 12.484 13.9398 12.484V12.2899C12.8962 12.2899 12.0574 12.6463 11.48 13.2659C10.9034 13.8845 10.5958 14.7564 10.5958 15.773H10.7899ZM13.9398 12.484C14.8598 12.484 15.5609 12.7758 16.0486 13.2357C16.537 13.6962 16.8183 14.3319 16.886 15.0309L17.0792 15.0122C17.0077 14.2734 16.7091 13.5917 16.1818 13.0944C15.6536 12.5965 14.9029 12.2899 13.9398 12.2899V12.484ZM16.9826 14.9245H15.8879V15.1186H16.9826V14.9245ZM15.9846 15.0138C15.9066 14.048 15.1622 13.199 13.9398 13.199V13.3932C15.0551 13.3932 15.7208 14.1584 15.7912 15.0294L15.9846 15.0138ZM13.9398 13.199C13.2493 13.199 12.6837 13.468 12.2922 13.929C11.902 14.3885 11.6905 15.0316 11.6905 15.773H11.8846C11.8846 15.0672 12.0859 14.4719 12.4402 14.0547C12.7931 13.6391 13.3036 13.3932 13.9398 13.3932V13.199ZM11.6905 15.773C11.6905 16.5632 11.9359 17.2113 12.3428 17.6632C12.75 18.1154 13.3144 18.3655 13.9398 18.3655V18.1714C13.3684 18.1714 12.8567 17.9438 12.487 17.5333C12.117 17.1224 11.8846 16.5228 11.8846 15.773H11.6905ZM13.9398 18.3655C15.1072 18.3655 15.7827 17.4984 15.891 16.799L15.6992 16.7693C15.6035 17.3873 14.9987 18.1714 13.9398 18.1714V18.3655ZM15.7951 16.6871H13.8377V16.8812H15.7951V16.6871ZM13.9348 16.7842V15.8379H13.7407V16.7842H13.9348ZM13.8377 15.935H16.3796V15.7409H13.8377V15.935Z" fill="#7EBB48"/>
</svg>
