<svg width="23" height="22" viewBox="0 0 23 22" fill="none" xmlns="http://www.w3.org/2000/svg">
<path d="M0.808594 6.41654V4.58321C0.808594 4.09698 1.00175 3.63067 1.34556 3.28685C1.68938 2.94303 2.1557 2.74988 2.64193 2.74988H4.47526" stroke="black" stroke-width="1.35294" stroke-linecap="round" stroke-linejoin="round"/>
<path d="M18.1719 2.74988H20.0052C20.4914 2.74988 20.9578 2.94303 21.3016 3.28685C21.6454 3.63067 21.8385 4.09698 21.8385 4.58321V6.41654" stroke="black" stroke-width="1.35294" stroke-linecap="round" stroke-linejoin="round"/>
<path d="M21.8385 15.5834V17.4167C21.8385 17.9029 21.6454 18.3693 21.3016 18.7131C20.9578 19.0569 20.4914 19.25 20.0052 19.25H18.1719" stroke="black" stroke-width="1.35294" stroke-linecap="round" stroke-linejoin="round"/>
<path d="M4.47526 19.25H2.64193C2.1557 19.25 1.68938 19.0569 1.34556 18.7131C1.00175 18.3693 0.808594 17.9029 0.808594 17.4167V15.5834" stroke="black" stroke-width="1.35294" stroke-linecap="round" stroke-linejoin="round"/>
<path d="M4.74219 6.41638V15.583" stroke="black" stroke-width="1.15" stroke-linecap="round" stroke-linejoin="round"/>
<path d="M7.11719 6.41638V15.583" stroke="black" stroke-width="1.15" stroke-linecap="round" stroke-linejoin="round"/>
<path d="M11.7031 6.41638V15.583" stroke="#7EBB48" stroke-width="1.15" stroke-linecap="round" stroke-linejoin="round"/>
<path d="M13.6406 6.41638V15.583" stroke="#7EBB48" stroke-width="1.15" stroke-linecap="round" stroke-linejoin="round"/>
<path d="M18.1719 6.41638V15.583" stroke="black" stroke-width="1.15" stroke-linecap="round" stroke-linejoin="round"/>
</svg>
