<svg width="22" height="22" viewBox="0 0 22 22" fill="none" xmlns="http://www.w3.org/2000/svg">
<path d="M6.60954 15.2966H4.43551C4.07373 15.2966 3.77734 15.0005 3.77734 14.6387V2.54406C3.77734 2.18198 4.07373 1.88635 4.43551 1.88635H12.284C12.6459 1.88635 12.9423 2.18213 12.9423 2.54406V4.11431" stroke="#121212" stroke-width="1.1" stroke-miterlimit="10"/>
<path d="M9.02082 17.5254H7.26739C6.90561 17.5254 6.60938 17.2291 6.60938 16.8672V4.77255C6.60938 4.41062 6.90546 4.11438 7.26739 4.11438H15.1162C15.4778 4.11438 15.7739 4.41046 15.7739 4.77255V6.60267" stroke="#121212" stroke-width="1.1" stroke-miterlimit="10"/>
<path d="M17.5304 6.60245C17.8922 6.60245 18.1884 6.89823 18.1884 7.26046V19.3551C18.1884 19.7167 17.8923 20.0128 17.5304 20.0128H9.68176C9.31967 20.0128 9.02344 19.7167 9.02344 19.3551V7.26031C9.02344 6.89807 9.31983 6.60229 9.68176 6.60229L17.5304 6.60245Z" fill="#7EBB48"/>
<path d="M14.9427 18.1008C15.0801 18.1008 15.1919 18.2117 15.1919 18.3492C15.1919 18.4869 15.0802 18.5984 14.9427 18.5984H12.2254C12.0879 18.5984 11.9766 18.4871 11.9766 18.3492C11.9766 18.2117 12.0879 18.1008 12.2254 18.1008H14.9427Z" stroke="white" stroke-width="0.55" stroke-miterlimit="10"/>
</svg>
