<svg width="21" height="29" viewBox="0 0 21 29" fill="none" xmlns="http://www.w3.org/2000/svg">
<g clip-path="url(#clip0_2025_16530)">
<path d="M9.0434 14.6859C8.84896 14.3373 8.41146 14.1979 8.04688 14.3838C7.68229 14.5697 7.53646 14.988 7.7309 15.3365C7.99826 15.8245 8.38715 16.2195 8.87327 16.5216C9.35938 16.8005 9.9184 16.9864 10.526 16.9864C11.401 16.9864 12.1788 16.6611 12.7378 16.1034C13.2969 15.5689 13.6615 14.8021 13.6615 13.9888V10.1314C13.6615 9.29487 13.3212 8.55128 12.7378 8.01682C12.1788 7.48237 11.3767 7.13381 10.526 7.13381C9.65104 7.13381 8.87326 7.48237 8.31424 8.01682C7.75521 8.55128 7.39063 9.3181 7.39063 10.1314V12.9199C7.39063 13.3149 7.7309 13.6402 8.1441 13.6402C8.55729 13.6402 8.89757 13.3149 8.89757 12.9199V10.1314C8.89757 9.6899 9.09201 9.3181 9.38368 9.01602C9.67535 8.73717 10.0885 8.55128 10.5503 8.55128C11.0122 8.55128 11.401 8.73717 11.717 9.01602C12.0087 9.29487 12.2031 9.6899 12.2031 10.1314V13.9888C12.2031 14.4303 12.0087 14.8021 11.717 15.1042C11.4253 15.383 11.0122 15.5689 10.5503 15.5689C10.2344 15.5689 9.94271 15.476 9.67535 15.3365C9.38368 15.1506 9.16493 14.9415 9.0434 14.6859ZM10.5017 4.83333C9.4566 4.83333 8.46007 5.11217 7.60938 5.62339C7.2691 5.83253 7.14757 6.27403 7.36632 6.59935C7.58507 6.92467 8.04688 7.04086 8.38715 6.83172C8.99479 6.45993 9.72396 6.25079 10.5017 6.25079C11.5955 6.25079 12.592 6.66906 13.3212 7.36618C14.0503 8.0633 14.5122 8.99278 14.5122 10.0617C14.5122 10.4567 14.8524 10.782 15.2656 10.7588C15.6788 10.7356 16.0191 10.4335 15.9948 10.0385C16.0191 8.59775 15.3872 7.29647 14.3906 6.36698C13.3941 5.41426 12.0087 4.83333 10.5017 4.83333ZM11.2552 13.9888V10.1314C11.2552 9.73637 10.9149 9.41105 10.5017 9.41105C10.0885 9.41105 9.74827 9.73637 9.74827 10.1314V13.9888C9.74827 14.3838 10.0885 14.7091 10.5017 14.7091C10.9149 14.6859 11.2552 14.3606 11.2552 13.9888ZM1.46007 21.5409C2.0191 21.5409 2.69965 21.6803 3.52604 21.9591C3.91493 22.0986 4.35243 21.8894 4.47396 21.5176C4.61979 21.1458 4.40104 20.7276 4.01215 20.6114C3.08854 20.3093 2.26215 20.1234 1.46007 20.1234H1.43576H1.07118C0.657986 20.1234 0.317708 20.4487 0.317708 20.8437C0.317708 21.2388 0.657986 21.5641 1.07118 21.5641L1.46007 21.5409ZM0.949653 19.2636H1.46007C1.99479 19.2636 2.50521 19.3333 3.03993 19.4495C3.84201 19.6122 4.6441 19.9143 5.44618 20.2163C6.27257 20.5417 7.12326 20.867 7.99826 21.1691C8.80035 21.4247 9.62674 21.5641 10.5017 21.5641C10.599 21.5641 10.6962 21.5641 10.7934 21.5641C11.2066 21.5409 11.5226 21.2155 11.5226 20.8205C11.4983 20.4255 11.158 20.1234 10.7448 20.1234C10.6719 20.1234 10.5747 20.1234 10.5017 20.1234C9.79688 20.1234 9.11632 20.0072 8.46007 19.7981C7.39063 19.4495 6.29688 18.9848 5.13021 18.5665C4.54688 18.3574 3.96354 18.1715 3.3559 18.0553C2.74826 17.9159 2.11632 17.8461 1.43576 17.8461H0.925347C0.512152 17.8461 0.171875 18.1715 0.171875 18.5665C0.171875 18.9615 0.536459 19.2636 0.949653 19.2636ZM15.2899 11.4792C14.8767 11.4792 14.5365 11.8045 14.5365 12.1995V13.9888C14.5365 15.0577 14.0747 16.0104 13.3455 16.7075C12.6163 17.4046 11.6198 17.8461 10.5017 17.8461C9.38368 17.8461 8.38715 17.4046 7.65799 16.7075C6.92882 16.0104 6.46701 15.0577 6.46701 13.9888V10.1314C6.46701 9.38781 6.68576 8.71394 7.07465 8.10977C7.2934 7.78445 7.17188 7.34294 6.8316 7.13381C6.49132 6.92467 6.02951 7.04086 5.81076 7.36618C5.30035 8.17948 4.98438 9.13221 4.98438 10.1314V13.9888C4.98438 15.4527 5.61632 16.7772 6.61285 17.73C7.60938 18.6827 8.99479 19.2869 10.526 19.2869C12.0573 19.2869 13.4427 18.6827 14.4392 17.73C15.4358 16.7772 16.0677 15.4527 16.0677 13.9888V12.1995C16.0191 11.8045 15.7031 11.4792 15.2899 11.4792ZM4.03646 16.266C3.89063 16.4519 3.72049 16.6378 3.52604 16.8005C3.3316 16.9631 3.40451 17.2885 3.67188 17.3582C4.18229 17.4744 4.6684 17.6138 5.13021 17.7764C5.32465 17.8461 5.47049 17.6138 5.37326 17.4744C5.1059 17.1258 4.88715 16.754 4.71701 16.359C4.57118 16.0801 4.2066 16.0569 4.03646 16.266ZM15.8976 17.7532C16.3594 17.5905 16.8455 17.4511 17.3316 17.3349C17.599 17.2652 17.6719 16.9399 17.4531 16.7772C17.2587 16.6146 17.0885 16.4519 16.9427 16.2428C16.7726 16.0336 16.408 16.0569 16.3108 16.3125C16.1406 16.7075 15.9219 17.0793 15.6545 17.4279C15.533 17.6138 15.7031 17.8229 15.8976 17.7532ZM19.033 22.4471C18.6441 22.5168 18.1337 22.633 17.5017 22.8654C16.8212 23.0978 16.0191 23.4463 15.0712 23.7949C14.6823 23.9343 14.4878 24.3526 14.6337 24.7244C14.7795 25.0961 15.217 25.282 15.6059 25.1426C16.5781 24.7941 17.4045 24.4455 18.0122 24.2364C18.5469 24.0505 18.9844 23.9343 19.2517 23.8878C19.6649 23.8181 19.9323 23.4463 19.8594 23.0745C19.8351 22.6562 19.4462 22.3774 19.033 22.4471ZM20.0538 15.5457C19.592 15.5457 19.2031 15.3598 18.8872 15.0809C18.5955 14.8021 18.401 14.407 18.401 13.9655V10.1314C18.401 8.83012 18.0608 7.57531 17.4288 6.5064C16.8212 5.43749 15.9219 4.50801 14.8767 3.83413C14.5365 3.62499 14.0747 3.6947 13.8316 4.02003C13.6128 4.34535 13.6858 4.78685 14.026 5.01922C14.8767 5.57692 15.6059 6.32051 16.092 7.18028C16.6024 8.0633 16.8698 9.06249 16.8698 10.1082V13.9655C16.8698 14.8021 17.2101 15.5457 17.7934 16.0801C18.3524 16.6146 19.1545 16.9631 20.0052 16.9631C20.4184 16.9631 20.7587 16.6378 20.7587 16.2428C20.8073 15.871 20.467 15.5457 20.0538 15.5457ZM20.8073 10.1314C20.8073 7.41265 19.6406 4.94951 17.7934 3.16025C15.9219 1.37099 13.3455 0.278839 10.5017 0.278839C7.85243 0.278839 5.44618 1.23156 3.62326 2.78845C1.80035 4.34535 0.560764 6.52964 0.269097 8.96955C0.220486 9.36458 0.512152 9.71313 0.925347 9.75961C1.33854 9.80608 1.70313 9.52724 1.75174 9.13221C1.99479 7.04086 3.06424 5.18188 4.61979 3.83413C6.17535 2.48637 8.24132 1.69631 10.5017 1.69631C12.9323 1.69631 15.1441 2.64903 16.724 4.15945C18.3281 5.6931 19.3003 7.78445 19.3003 10.1082C19.3003 11.7812 19.3003 12.2925 19.3003 13.9655C19.3003 14.3606 19.6406 14.6859 20.0538 14.6859C20.467 14.6859 20.8073 14.3606 20.8073 13.9655C20.8073 12.3157 20.8073 11.7812 20.8073 10.1314ZM0.949653 14.6859C1.36285 14.6859 1.70312 14.3606 1.70312 13.9655C1.70312 12.7107 1.70312 12.1066 1.70312 11.1771C1.70312 10.782 1.36285 10.4567 0.949653 10.4567C0.536459 10.4567 0.196181 10.782 0.196181 11.1771C0.196181 12.1066 0.196181 12.7107 0.196181 13.9655C0.196181 14.3606 0.536459 14.6859 0.949653 14.6859ZM19.9323 20.1234H19.5677H19.5434C19.1059 20.1234 18.6441 20.1931 18.158 20.2861C17.6962 20.379 17.1858 20.5417 16.6753 20.7276C15.6302 21.0994 14.5365 21.5873 13.2969 21.9824C12.4219 22.2612 11.474 22.4006 10.5017 22.4006C9.52951 22.4006 8.5816 22.238 7.7066 21.9591C7.17188 21.7732 6.63715 21.5873 6.12674 21.4014C5.73785 21.262 5.30035 21.4247 5.15451 21.7965C5.00868 22.1683 5.17882 22.5865 5.56771 22.726C6.07813 22.9119 6.63715 23.121 7.22049 23.3069C8.24132 23.6322 9.35938 23.8181 10.5017 23.8181C11.6441 23.8181 12.7378 23.6322 13.783 23.3069C15.1198 22.8654 16.2622 22.3774 17.2101 22.0521C17.6962 21.8894 18.1094 21.75 18.4983 21.6803C18.8872 21.5873 19.2274 21.5641 19.5434 21.5641H19.908C20.3212 21.5641 20.6615 21.2388 20.6615 20.8437C20.6615 20.4487 20.3455 20.1234 19.9323 20.1234ZM15.9948 25.8862C15.6302 26.0256 15.2413 26.1651 14.8281 26.2812C13.4427 26.7227 11.9844 26.9551 10.5017 26.9551C9.0191 26.9551 7.56076 26.7227 6.17535 26.2812C5.76215 26.1418 5.37326 26.0024 5.00868 25.8862C4.61979 25.7468 4.18229 25.9327 4.03646 26.3045C3.89063 26.6763 4.08507 27.0945 4.47396 27.234C4.86285 27.3734 5.25174 27.5128 5.68924 27.6522C7.24479 28.1402 8.84896 28.3958 10.5017 28.3958C12.1302 28.3958 13.7587 28.1402 15.3142 27.6522C15.7517 27.5128 16.1406 27.3734 16.5295 27.234C16.9184 27.0945 17.1128 26.6763 16.967 26.3045C16.7969 25.9327 16.3594 25.7468 15.9948 25.8862ZM6.46701 25.4912C7.75521 25.9095 9.11632 26.1186 10.5017 26.1186C11.4983 26.1186 12.4462 26.0024 13.3941 25.7933C13.783 25.7003 14.0503 25.3285 13.9531 24.9335C13.8559 24.5385 13.467 24.3061 13.0538 24.399C12.2274 24.5849 11.3767 24.6779 10.5017 24.6779C9.26215 24.6779 8.07118 24.492 6.92882 24.1202C6.24826 23.8878 5.59201 23.6554 5.03299 23.4231C4.44965 23.1907 3.93924 23.0048 3.47743 22.8421C2.86979 22.633 2.35938 22.4936 1.97049 22.4239C1.55729 22.3542 1.1684 22.633 1.11979 23.0048C1.04688 23.3998 1.33854 23.7716 1.72743 23.8181C1.99479 23.8646 2.43229 23.9575 2.96701 24.1667C3.38021 24.3061 3.89063 24.5152 4.47396 24.7244C5.05729 25.0032 5.73785 25.2588 6.46701 25.4912ZM20.0538 17.8461H19.5434C18.9115 17.8461 18.2795 17.9159 17.6719 18.0553C16.7726 18.2412 15.9219 18.5433 15.0955 18.8686C14.2691 19.1707 13.467 19.5192 12.6892 19.7748C12.3003 19.9143 12.1059 20.3093 12.2274 20.6811C12.3733 21.0529 12.7865 21.2388 13.1753 21.1226C14.3177 20.7508 15.3872 20.2628 16.4323 19.9143C16.967 19.7284 17.4774 19.5657 17.9878 19.4728C18.4983 19.3566 19.0087 19.3101 19.5191 19.3101H20.0295C20.4427 19.3101 20.783 18.9848 20.783 18.5897C20.783 18.1947 20.467 17.8461 20.0538 17.8461ZM0.949653 16.9864C1.82465 16.9864 2.60243 16.6611 3.16146 16.1034C3.72049 15.5689 4.08507 14.8021 4.08507 13.9888V10.1314C4.08507 8.43509 4.81424 6.90144 5.9809 5.78605C7.14757 4.67067 8.75174 3.97355 10.526 3.97355C11.1337 3.97355 11.717 4.04326 12.276 4.20592C12.6649 4.32211 13.0781 4.08974 13.1997 3.71794C13.3212 3.34615 13.0781 2.95111 12.6892 2.83493C12.0087 2.64903 11.2795 2.55608 10.526 2.55608C8.33854 2.55608 6.36979 3.41586 4.93576 4.78685C3.50174 6.15785 2.60243 8.04006 2.60243 10.1314V13.9888C2.60243 14.4303 2.40799 14.8253 2.11632 15.1042C1.82465 15.383 1.41146 15.5689 0.949653 15.5689C0.536459 15.5689 0.196181 15.8942 0.196181 16.2893C0.196181 16.6611 0.536459 16.9864 0.949653 16.9864Z" fill="white"/>
<mask id="mask0_2025_16530" style="mask-type:alpha" maskUnits="userSpaceOnUse" x="0" y="0" width="21" height="29">
<path d="M9.0434 14.6859C8.84896 14.3373 8.41146 14.1979 8.04688 14.3838C7.68229 14.5697 7.53646 14.988 7.7309 15.3365C7.99826 15.8245 8.38715 16.2195 8.87327 16.5216C9.35938 16.8005 9.9184 16.9864 10.526 16.9864C11.401 16.9864 12.1788 16.6611 12.7378 16.1034C13.2969 15.5689 13.6615 14.8021 13.6615 13.9888V10.1314C13.6615 9.29487 13.3212 8.55128 12.7378 8.01682C12.1788 7.48237 11.3767 7.13381 10.526 7.13381C9.65104 7.13381 8.87326 7.48237 8.31424 8.01682C7.75521 8.55128 7.39063 9.3181 7.39063 10.1314V12.9199C7.39063 13.3149 7.7309 13.6402 8.1441 13.6402C8.55729 13.6402 8.89757 13.3149 8.89757 12.9199V10.1314C8.89757 9.6899 9.09201 9.3181 9.38368 9.01602C9.67535 8.73717 10.0885 8.55128 10.5503 8.55128C11.0122 8.55128 11.401 8.73717 11.717 9.01602C12.0087 9.29487 12.2031 9.6899 12.2031 10.1314V13.9888C12.2031 14.4303 12.0087 14.8021 11.717 15.1042C11.4253 15.383 11.0122 15.5689 10.5503 15.5689C10.2344 15.5689 9.94271 15.476 9.67535 15.3365C9.38368 15.1506 9.16493 14.9415 9.0434 14.6859ZM10.5017 4.83333C9.4566 4.83333 8.46007 5.11217 7.60938 5.62339C7.2691 5.83253 7.14757 6.27403 7.36632 6.59935C7.58507 6.92467 8.04688 7.04086 8.38715 6.83172C8.99479 6.45993 9.72396 6.25079 10.5017 6.25079C11.5955 6.25079 12.592 6.66906 13.3212 7.36618C14.0503 8.0633 14.5122 8.99278 14.5122 10.0617C14.5122 10.4567 14.8524 10.782 15.2656 10.7588C15.6788 10.7356 16.0191 10.4335 15.9948 10.0385C16.0191 8.59775 15.3872 7.29647 14.3906 6.36698C13.3941 5.41426 12.0087 4.83333 10.5017 4.83333ZM11.2552 13.9888V10.1314C11.2552 9.73637 10.9149 9.41105 10.5017 9.41105C10.0885 9.41105 9.74827 9.73637 9.74827 10.1314V13.9888C9.74827 14.3838 10.0885 14.7091 10.5017 14.7091C10.9149 14.6859 11.2552 14.3606 11.2552 13.9888ZM1.46007 21.5409C2.0191 21.5409 2.69965 21.6803 3.52604 21.9591C3.91493 22.0986 4.35243 21.8894 4.47396 21.5176C4.61979 21.1458 4.40104 20.7276 4.01215 20.6114C3.08854 20.3093 2.26215 20.1234 1.46007 20.1234H1.43576H1.07118C0.657986 20.1234 0.317708 20.4487 0.317708 20.8437C0.317708 21.2388 0.657986 21.5641 1.07118 21.5641L1.46007 21.5409ZM0.949653 19.2636H1.46007C1.99479 19.2636 2.50521 19.3333 3.03993 19.4495C3.84201 19.6122 4.6441 19.9143 5.44618 20.2163C6.27257 20.5417 7.12326 20.867 7.99826 21.1691C8.80035 21.4247 9.62674 21.5641 10.5017 21.5641C10.599 21.5641 10.6962 21.5641 10.7934 21.5641C11.2066 21.5409 11.5226 21.2155 11.5226 20.8205C11.4983 20.4255 11.158 20.1234 10.7448 20.1234C10.6719 20.1234 10.5747 20.1234 10.5017 20.1234C9.79688 20.1234 9.11632 20.0072 8.46007 19.7981C7.39063 19.4495 6.29688 18.9848 5.13021 18.5665C4.54688 18.3574 3.96354 18.1715 3.3559 18.0553C2.74826 17.9159 2.11632 17.8461 1.43576 17.8461H0.925347C0.512152 17.8461 0.171875 18.1715 0.171875 18.5665C0.171875 18.9615 0.536459 19.2636 0.949653 19.2636ZM15.2899 11.4792C14.8767 11.4792 14.5365 11.8045 14.5365 12.1995V13.9888C14.5365 15.0577 14.0747 16.0104 13.3455 16.7075C12.6163 17.4046 11.6198 17.8461 10.5017 17.8461C9.38368 17.8461 8.38715 17.4046 7.65799 16.7075C6.92882 16.0104 6.46701 15.0577 6.46701 13.9888V10.1314C6.46701 9.38781 6.68576 8.71394 7.07465 8.10977C7.2934 7.78445 7.17188 7.34294 6.8316 7.13381C6.49132 6.92467 6.02951 7.04086 5.81076 7.36618C5.30035 8.17948 4.98438 9.13221 4.98438 10.1314V13.9888C4.98438 15.4527 5.61632 16.7772 6.61285 17.73C7.60938 18.6827 8.99479 19.2869 10.526 19.2869C12.0573 19.2869 13.4427 18.6827 14.4392 17.73C15.4358 16.7772 16.0677 15.4527 16.0677 13.9888V12.1995C16.0191 11.8045 15.7031 11.4792 15.2899 11.4792ZM4.03646 16.266C3.89063 16.4519 3.72049 16.6378 3.52604 16.8005C3.3316 16.9631 3.40451 17.2885 3.67188 17.3582C4.18229 17.4744 4.6684 17.6138 5.13021 17.7764C5.32465 17.8461 5.47049 17.6138 5.37326 17.4744C5.1059 17.1258 4.88715 16.754 4.71701 16.359C4.57118 16.0801 4.2066 16.0569 4.03646 16.266ZM15.8976 17.7532C16.3594 17.5905 16.8455 17.4511 17.3316 17.3349C17.599 17.2652 17.6719 16.9399 17.4531 16.7772C17.2587 16.6146 17.0885 16.4519 16.9427 16.2428C16.7726 16.0336 16.408 16.0569 16.3108 16.3125C16.1406 16.7075 15.9219 17.0793 15.6545 17.4279C15.533 17.6138 15.7031 17.8229 15.8976 17.7532ZM19.033 22.4471C18.6441 22.5168 18.1337 22.633 17.5017 22.8654C16.8212 23.0978 16.0191 23.4463 15.0712 23.7949C14.6823 23.9343 14.4878 24.3526 14.6337 24.7244C14.7795 25.0961 15.217 25.282 15.6059 25.1426C16.5781 24.7941 17.4045 24.4455 18.0122 24.2364C18.5469 24.0505 18.9844 23.9343 19.2517 23.8878C19.6649 23.8181 19.9323 23.4463 19.8594 23.0745C19.8351 22.6562 19.4462 22.3774 19.033 22.4471ZM20.0538 15.5457C19.592 15.5457 19.2031 15.3598 18.8872 15.0809C18.5955 14.8021 18.401 14.407 18.401 13.9655V10.1314C18.401 8.83012 18.0608 7.57531 17.4288 6.5064C16.8212 5.43749 15.9219 4.50801 14.8767 3.83413C14.5365 3.62499 14.0747 3.6947 13.8316 4.02003C13.6128 4.34535 13.6858 4.78685 14.026 5.01922C14.8767 5.57692 15.6059 6.32051 16.092 7.18028C16.6024 8.0633 16.8698 9.06249 16.8698 10.1082V13.9655C16.8698 14.8021 17.2101 15.5457 17.7934 16.0801C18.3524 16.6146 19.1545 16.9631 20.0052 16.9631C20.4184 16.9631 20.7587 16.6378 20.7587 16.2428C20.8073 15.871 20.467 15.5457 20.0538 15.5457ZM20.8073 10.1314C20.8073 7.41265 19.6406 4.94951 17.7934 3.16025C15.9219 1.37099 13.3455 0.278839 10.5017 0.278839C7.85243 0.278839 5.44618 1.23156 3.62326 2.78845C1.80035 4.34535 0.560764 6.52964 0.269097 8.96955C0.220486 9.36458 0.512152 9.71313 0.925347 9.75961C1.33854 9.80608 1.70313 9.52724 1.75174 9.13221C1.99479 7.04086 3.06424 5.18188 4.61979 3.83413C6.17535 2.48637 8.24132 1.69631 10.5017 1.69631C12.9323 1.69631 15.1441 2.64903 16.724 4.15945C18.3281 5.6931 19.3003 7.78445 19.3003 10.1082C19.3003 11.7812 19.3003 12.2925 19.3003 13.9655C19.3003 14.3606 19.6406 14.6859 20.0538 14.6859C20.467 14.6859 20.8073 14.3606 20.8073 13.9655C20.8073 12.3157 20.8073 11.7812 20.8073 10.1314ZM0.949653 14.6859C1.36285 14.6859 1.70312 14.3606 1.70312 13.9655C1.70312 12.7107 1.70312 12.1066 1.70312 11.1771C1.70312 10.782 1.36285 10.4567 0.949653 10.4567C0.536459 10.4567 0.196181 10.782 0.196181 11.1771C0.196181 12.1066 0.196181 12.7107 0.196181 13.9655C0.196181 14.3606 0.536459 14.6859 0.949653 14.6859ZM19.9323 20.1234H19.5677H19.5434C19.1059 20.1234 18.6441 20.1931 18.158 20.2861C17.6962 20.379 17.1858 20.5417 16.6753 20.7276C15.6302 21.0994 14.5365 21.5873 13.2969 21.9824C12.4219 22.2612 11.474 22.4006 10.5017 22.4006C9.52951 22.4006 8.5816 22.238 7.7066 21.9591C7.17188 21.7732 6.63715 21.5873 6.12674 21.4014C5.73785 21.262 5.30035 21.4247 5.15451 21.7965C5.00868 22.1683 5.17882 22.5865 5.56771 22.726C6.07813 22.9119 6.63715 23.121 7.22049 23.3069C8.24132 23.6322 9.35938 23.8181 10.5017 23.8181C11.6441 23.8181 12.7378 23.6322 13.783 23.3069C15.1198 22.8654 16.2622 22.3774 17.2101 22.0521C17.6962 21.8894 18.1094 21.75 18.4983 21.6803C18.8872 21.5873 19.2274 21.5641 19.5434 21.5641H19.908C20.3212 21.5641 20.6615 21.2388 20.6615 20.8437C20.6615 20.4487 20.3455 20.1234 19.9323 20.1234ZM15.9948 25.8862C15.6302 26.0256 15.2413 26.1651 14.8281 26.2812C13.4427 26.7227 11.9844 26.9551 10.5017 26.9551C9.0191 26.9551 7.56076 26.7227 6.17535 26.2812C5.76215 26.1418 5.37326 26.0024 5.00868 25.8862C4.61979 25.7468 4.18229 25.9327 4.03646 26.3045C3.89063 26.6763 4.08507 27.0945 4.47396 27.234C4.86285 27.3734 5.25174 27.5128 5.68924 27.6522C7.24479 28.1402 8.84896 28.3958 10.5017 28.3958C12.1302 28.3958 13.7587 28.1402 15.3142 27.6522C15.7517 27.5128 16.1406 27.3734 16.5295 27.234C16.9184 27.0945 17.1128 26.6763 16.967 26.3045C16.7969 25.9327 16.3594 25.7468 15.9948 25.8862ZM6.46701 25.4912C7.75521 25.9095 9.11632 26.1186 10.5017 26.1186C11.4983 26.1186 12.4462 26.0024 13.3941 25.7933C13.783 25.7003 14.0503 25.3285 13.9531 24.9335C13.8559 24.5385 13.467 24.3061 13.0538 24.399C12.2274 24.5849 11.3767 24.6779 10.5017 24.6779C9.26215 24.6779 8.07118 24.492 6.92882 24.1202C6.24826 23.8878 5.59201 23.6554 5.03299 23.4231C4.44965 23.1907 3.93924 23.0048 3.47743 22.8421C2.86979 22.633 2.35938 22.4936 1.97049 22.4239C1.55729 22.3542 1.1684 22.633 1.11979 23.0048C1.04688 23.3998 1.33854 23.7716 1.72743 23.8181C1.99479 23.8646 2.43229 23.9575 2.96701 24.1667C3.38021 24.3061 3.89063 24.5152 4.47396 24.7244C5.05729 25.0032 5.73785 25.2588 6.46701 25.4912ZM20.0538 17.8461H19.5434C18.9115 17.8461 18.2795 17.9159 17.6719 18.0553C16.7726 18.2412 15.9219 18.5433 15.0955 18.8686C14.2691 19.1707 13.467 19.5192 12.6892 19.7748C12.3003 19.9143 12.1059 20.3093 12.2274 20.6811C12.3733 21.0529 12.7865 21.2388 13.1753 21.1226C14.3177 20.7508 15.3872 20.2628 16.4323 19.9143C16.967 19.7284 17.4774 19.5657 17.9878 19.4728C18.4983 19.3566 19.0087 19.3101 19.5191 19.3101H20.0295C20.4427 19.3101 20.783 18.9848 20.783 18.5897C20.783 18.1947 20.467 17.8461 20.0538 17.8461ZM0.949653 16.9864C1.82465 16.9864 2.60243 16.6611 3.16146 16.1034C3.72049 15.5689 4.08507 14.8021 4.08507 13.9888V10.1314C4.08507 8.43509 4.81424 6.90144 5.9809 5.78605C7.14757 4.67067 8.75174 3.97355 10.526 3.97355C11.1337 3.97355 11.717 4.04326 12.276 4.20592C12.6649 4.32211 13.0781 4.08974 13.1997 3.71794C13.3212 3.34615 13.0781 2.95111 12.6892 2.83493C12.0087 2.64903 11.2795 2.55608 10.526 2.55608C8.33854 2.55608 6.36979 3.41586 4.93576 4.78685C3.50174 6.15785 2.60243 8.04006 2.60243 10.1314V13.9888C2.60243 14.4303 2.40799 14.8253 2.11632 15.1042C1.82465 15.383 1.41146 15.5689 0.949653 15.5689C0.536459 15.5689 0.196181 15.8942 0.196181 16.2893C0.196181 16.6611 0.536459 16.9864 0.949653 16.9864Z" fill="black"/>
</mask>
<g mask="url(#mask0_2025_16530)">
<path d="M9.00772 6.9508L7.3004 8.37904L6.87357 8.99114L6.66016 13.6839L7.51381 16.1323C8.15406 16.5404 9.47723 17.3565 9.64796 17.3565C9.81869 17.3565 11.1419 17.2205 11.7821 17.1525L13.9163 15.7243V14.296L14.3431 11.2355L13.7028 8.99114L12.8492 7.35887L11.1419 6.74677L9.00772 6.9508Z" fill="#7EBB48"/>
</g>
</g>
<defs>
<clipPath id="clip0_2025_16530">
<rect width="21" height="29" fill="white"/>
</clipPath>
</defs>
</svg>
