<svg width="34" height="34" viewBox="0 0 34 34" fill="none" xmlns="http://www.w3.org/2000/svg">
<path d="M26.7693 12.7471C27.2633 11.9502 28.208 10.4799 29.145 9.32387C29.7559 8.57058 30.3706 7.95216 30.86 7.69958C31.2765 7.48423 31.6028 7.47866 31.8381 7.57572C32.098 7.68282 32.2856 7.9231 32.364 8.28306C32.5282 9.0355 32.1822 10.4438 31.4594 11.6296C30.5085 13.1898 27.1245 18.1638 26.4839 19.1519C26.4363 19.2251 26.3822 19.2793 26.3702 19.3368C26.306 19.5598 26.2358 19.7831 26.1585 20.0079C25.0269 23.3032 22.5154 26.5968 16.9995 26.5968C11.8185 26.5968 9.2943 23.3106 8.07137 20.0153C7.98845 19.7917 7.91143 19.5679 7.83998 19.3448C7.79545 19.2868 7.76019 19.2196 7.71897 19.1591C7.04473 18.17 3.49058 13.1916 2.5387 11.6301C1.81604 10.4444 1.46954 9.03605 1.63406 8.28364C1.71281 7.92337 1.9001 7.6834 2.15998 7.5763C2.39509 7.47921 2.72141 7.4848 3.13835 7.70015C3.62633 7.95216 4.23502 8.53664 4.83926 9.24096C5.84398 10.4122 6.85428 11.9105 7.3016 12.5942C7.4342 12.4174 7.61401 12.2523 7.85772 12.1406C8.30273 11.9366 10.3722 11.5962 12.907 10.7878C13.5178 10.5929 14.1318 10.1656 14.7691 9.79337C15.4783 9.37885 16.2149 9.03218 16.9876 9.03937C17.7204 9.04666 18.4548 9.39231 19.1712 9.80165C19.818 10.1715 20.4504 10.5923 21.0622 10.7878C23.597 11.5962 25.6665 11.9366 26.1115 12.1404C26.4241 12.2835 26.6323 12.5153 26.7693 12.7471ZM26.3768 13.4363C26.3349 13.246 26.209 12.8832 25.8463 12.7169C25.4079 12.516 23.3665 12.1886 20.8684 11.3917C20.2184 11.1843 19.5422 10.7448 18.8549 10.3519C18.2375 9.99883 17.6116 9.67939 16.9805 9.67339C16.3185 9.66708 15.6955 9.98567 15.0883 10.3405C14.409 10.7374 13.7498 11.184 13.0986 11.3917C10.6007 12.1883 8.55932 12.516 8.12089 12.7169C7.65525 12.9303 7.58023 13.4676 7.57165 13.5479C7.56877 13.7334 7.54832 16.2245 8.37507 18.935C8.43739 19.1393 8.56568 19.5275 8.665 19.7944C9.80789 22.8748 12.1554 25.9625 16.9981 25.9625C22.1534 25.9625 24.4994 22.8812 25.5574 19.8025C25.6637 19.4926 25.7825 19.085 25.821 18.944C26.5108 16.4174 26.4262 14.0825 26.4019 13.6353C26.3738 13.573 26.3645 13.5036 26.3768 13.4363ZM26.7899 17.4749C28.0498 15.5959 30.1639 12.4592 30.8836 11.2792C31.5022 10.2642 31.846 9.07172 31.7054 8.42753C31.6818 8.32142 31.6577 8.23107 31.5809 8.19943C31.48 8.15762 31.3484 8.20645 31.1693 8.29894C30.7369 8.52216 30.2083 9.08346 29.6689 9.74854C28.4699 11.2284 27.2573 13.2338 27.0349 13.6061C27.0564 14.0073 27.1091 15.5689 26.7899 17.4749ZM6.97056 13.3252L6.96897 13.3229C6.96897 13.3229 5.64338 11.2138 4.32693 9.67939C3.79041 9.05409 3.26163 8.52232 2.82835 8.29853C2.64909 8.20601 2.51736 8.15721 2.41628 8.19899C2.33967 8.23064 2.31533 8.32101 2.29213 8.4271C2.15124 9.07129 2.49517 10.2637 3.11387 11.2788C3.83022 12.4542 6.02668 15.5717 7.34785 17.4513C6.89955 15.2531 6.93791 13.5226 6.93791 13.5226C6.93804 13.5153 6.93848 13.5083 6.93906 13.5016C6.93906 13.5016 6.94564 13.4331 6.97056 13.3252Z" fill="white"/>
<path d="M16.9038 11.4227L13.2599 13.0658C12.9804 13.1919 12.6515 13.0672 12.5257 12.7877C12.3998 12.5084 12.5243 12.1793 12.8035 12.0532L16.681 10.3049C16.8292 10.238 16.9999 10.2397 17.147 10.3092C17.147 10.3092 20.2367 11.7742 20.8417 12.0123L20.8479 12.0146C21.0551 12.0551 21.2298 12.2128 21.2816 12.4313C21.3448 12.6981 21.251 12.89 21.0461 13.0249C21.016 13.0448 20.7833 13.1826 20.4355 13.0456C19.9209 12.8435 17.6429 11.7714 16.9038 11.4227ZM20.2299 12.3452C20.1882 12.4424 20.1704 12.5558 20.201 12.6876C20.1726 12.5688 20.1851 12.4495 20.2299 12.3452ZM20.2951 12.2287L20.29 12.236L20.298 12.2253L20.2951 12.2287ZM20.3915 12.1283C20.3555 12.1572 20.3255 12.1887 20.2999 12.2224C20.3266 12.1876 20.3572 12.1558 20.3915 12.1283Z" fill="white"/>
<path d="M16.9961 12.7079V21.7898L18.075 17.2002L16.9961 12.7079Z" fill="white"/>
<path d="M13.6807 15.8772H11.6616C11.1044 15.8772 10.6523 16.3296 10.6523 16.887V19.3122C10.6523 19.8693 11.1044 20.3215 11.6616 20.3215H13.6807C14.2379 20.3215 14.6907 19.8693 14.6907 19.3122V16.887C14.6907 16.3296 14.2379 15.8772 13.6807 15.8772ZM11.4696 19.6299C11.3483 19.6299 11.2499 19.5315 11.2499 19.4093C11.2499 19.2879 11.3483 19.1895 11.4696 19.1895C11.5908 19.1895 11.6899 19.2879 11.6899 19.4093C11.6899 19.5314 11.5908 19.6299 11.4696 19.6299ZM11.4696 18.9682C11.3483 18.9682 11.2499 18.8698 11.2499 18.7484C11.2499 18.627 11.3483 18.5281 11.4696 18.5281C11.5908 18.5281 11.6899 18.6271 11.6899 18.7484C11.6899 18.8697 11.5908 18.9682 11.4696 18.9682ZM11.4696 18.3068C11.3483 18.3068 11.2499 18.2084 11.2499 18.087C11.2499 17.9658 11.3483 17.8667 11.4696 17.8667C11.5908 17.8667 11.6899 17.9659 11.6899 18.087C11.6899 18.2081 11.5908 18.3068 11.4696 18.3068ZM11.4696 17.6457C11.3483 17.6457 11.2499 17.547 11.2499 17.4256C11.2499 17.304 11.3483 17.2053 11.4696 17.2053C11.5908 17.2053 11.6899 17.304 11.6899 17.4256C11.6899 17.547 11.5908 17.6457 11.4696 17.6457ZM11.4696 17.0092C11.3483 17.0092 11.2499 16.9111 11.2499 16.7894C11.2499 16.668 11.3483 16.5696 11.4696 16.5696C11.5908 16.5696 11.6899 16.6678 11.6899 16.7894C11.6899 16.9108 11.5908 17.0092 11.4696 17.0092ZM12.0705 19.6299C11.9486 19.6299 11.8502 19.5315 11.8502 19.4093C11.8502 19.2879 11.9486 19.1895 12.0705 19.1895C12.1918 19.1895 12.2902 19.2879 12.2902 19.4093C12.2902 19.5314 12.1918 19.6299 12.0705 19.6299ZM12.0705 18.9682C11.9486 18.9682 11.8502 18.8698 11.8502 18.7484C11.8502 18.627 11.9486 18.5281 12.0705 18.5281C12.1918 18.5281 12.2902 18.6271 12.2902 18.7484C12.2902 18.8697 12.1918 18.9682 12.0705 18.9682ZM12.0705 18.3068C11.9486 18.3068 11.8502 18.2084 11.8502 18.087C11.8502 17.9658 11.9486 17.8667 12.0705 17.8667C12.1918 17.8667 12.2902 17.9659 12.2902 18.087C12.2902 18.2081 12.1918 18.3068 12.0705 18.3068ZM12.0705 17.6457C11.9486 17.6457 11.8502 17.547 11.8502 17.4256C11.8502 17.304 11.9486 17.2053 12.0705 17.2053C12.1918 17.2053 12.2902 17.304 12.2902 17.4256C12.2902 17.547 12.1918 17.6457 12.0705 17.6457ZM12.0705 17.0092C11.9486 17.0092 11.8502 16.9111 11.8502 16.7894C11.8502 16.668 11.9486 16.5696 12.0705 16.5696C12.1918 16.5696 12.2902 16.6678 12.2902 16.7894C12.2902 16.9108 12.1918 17.0092 12.0705 17.0092ZM12.6715 19.6299C12.5502 19.6299 12.4512 19.5315 12.4512 19.4093C12.4512 19.2879 12.5495 19.1895 12.6715 19.1895C12.7928 19.1895 12.8918 19.2879 12.8918 19.4093C12.8918 19.5314 12.7928 19.6299 12.6715 19.6299ZM12.6715 18.9682C12.5502 18.9682 12.4512 18.8698 12.4512 18.7484C12.4512 18.627 12.5495 18.5281 12.6715 18.5281C12.7928 18.5281 12.8918 18.6273 12.8918 18.7484C12.8918 18.8698 12.7928 18.9682 12.6715 18.9682ZM12.6715 18.3068C12.5502 18.3068 12.4512 18.2084 12.4512 18.087C12.4512 17.9658 12.5495 17.8667 12.6715 17.8667C12.7928 17.8667 12.8918 17.9659 12.8918 18.087C12.8918 18.2081 12.7928 18.3068 12.6715 18.3068ZM12.6715 17.6457C12.5502 17.6457 12.4512 17.547 12.4512 17.4256C12.4512 17.304 12.5495 17.2053 12.6715 17.2053C12.7928 17.2053 12.8918 17.304 12.8918 17.4256C12.8918 17.547 12.7928 17.6457 12.6715 17.6457ZM12.6715 17.0092C12.5502 17.0092 12.4512 16.9111 12.4512 16.7894C12.4512 16.668 12.5495 16.5696 12.6715 16.5696C12.7928 16.5696 12.8918 16.6678 12.8918 16.7894C12.8918 16.9108 12.7928 17.0092 12.6715 17.0092ZM13.2718 19.6299C13.1505 19.6299 13.0521 19.5315 13.0521 19.4093C13.0521 19.2879 13.1505 19.1895 13.2718 19.1895C13.3937 19.1895 13.4921 19.2879 13.4921 19.4093C13.4921 19.5314 13.3937 19.6299 13.2718 19.6299ZM13.2718 18.9682C13.1505 18.9682 13.0521 18.8698 13.0521 18.7484C13.0521 18.627 13.1505 18.5281 13.2718 18.5281C13.3937 18.5281 13.4921 18.6271 13.4921 18.7484C13.4921 18.8697 13.3937 18.9682 13.2718 18.9682ZM13.2718 18.3068C13.1505 18.3068 13.0521 18.2084 13.0521 18.087C13.0521 17.9658 13.1505 17.8667 13.2718 17.8667C13.3937 17.8667 13.4921 17.9659 13.4921 18.087C13.4921 18.2081 13.3937 18.3068 13.2718 18.3068ZM13.2718 17.6457C13.1505 17.6457 13.0521 17.547 13.0521 17.4256C13.0521 17.304 13.1505 17.2053 13.2718 17.2053C13.3937 17.2053 13.4921 17.304 13.4921 17.4256C13.4921 17.547 13.3937 17.6457 13.2718 17.6457ZM13.2718 17.0092C13.1505 17.0092 13.0521 16.9111 13.0521 16.7894C13.0521 16.668 13.1505 16.5696 13.2718 16.5696C13.3937 16.5696 13.4921 16.6678 13.4921 16.7894C13.4921 16.9108 13.3937 17.0092 13.2718 17.0092ZM13.8727 19.6299C13.7515 19.6299 13.6531 19.5315 13.6531 19.4093C13.6531 19.2879 13.7515 19.1895 13.8727 19.1895C13.9947 19.1895 14.0931 19.2879 14.0931 19.4093C14.0931 19.5314 13.9947 19.6299 13.8727 19.6299ZM13.8727 18.9682C13.7515 18.9682 13.6531 18.8698 13.6531 18.7484C13.6531 18.627 13.7515 18.5281 13.8727 18.5281C13.9947 18.5281 14.0931 18.6271 14.0931 18.7484C14.0931 18.8697 13.9947 18.9682 13.8727 18.9682ZM13.8727 18.3068C13.7515 18.3068 13.6531 18.2084 13.6531 18.087C13.6531 17.9658 13.7515 17.8667 13.8727 17.8667C13.9947 17.8667 14.0931 17.9659 14.0931 18.087C14.0931 18.2081 13.9947 18.3068 13.8727 18.3068ZM13.8727 17.6457C13.7515 17.6457 13.6531 17.547 13.6531 17.4256C13.6531 17.304 13.7515 17.2053 13.8727 17.2053C13.9947 17.2053 14.0931 17.304 14.0931 17.4256C14.0931 17.547 13.9947 17.6457 13.8727 17.6457ZM13.8727 17.0092C13.7515 17.0092 13.6531 16.9111 13.6531 16.7894C13.6531 16.668 13.7515 16.5696 13.8727 16.5696C13.9947 16.5696 14.0931 16.6678 14.0931 16.7894C14.0931 16.9108 13.9947 17.0092 13.8727 17.0092Z" fill="white"/>
</svg>
