<svg width="40" height="40" viewBox="0 0 40 40" fill="none" xmlns="http://www.w3.org/2000/svg">
<g clip-path="url(#clip0_2025_16542)">
<path fill-rule="evenodd" clip-rule="evenodd" d="M31.6125 8.38708H8.38672V31.9355H31.6125V8.38708ZM30.9674 9.13841H9.03188V31.1842H30.9674V9.13841Z" fill="white"/>
<path d="M17.418 17.4193H22.5793V22.5806H17.418V17.4193Z" fill="white"/>
<path d="M17.418 10.9677H22.5793V16.129H17.418V10.9677Z" fill="#7EBB48"/>
<path d="M17.418 24.1935H22.5793V29.3548H17.418V24.1935Z" fill="white"/>
<path d="M23.8711 17.4193H29.0324V22.5806H23.8711V17.4193Z" fill="white"/>
<path d="M23.8711 10.9677H29.0324V16.129H23.8711V10.9677Z" fill="white"/>
<path d="M23.8711 24.1935H29.0324V29.3548H23.8711V24.1935Z" fill="#7EBB48"/>
<path d="M10.9688 17.4193H16.13V22.5806H10.9688V17.4193Z" fill="white"/>
<path d="M10.9688 10.9677H16.13V16.129H10.9688V10.9677Z" fill="white"/>
<path d="M10.9688 24.1935H16.13V29.3548H10.9688V24.1935Z" fill="#7EBB48"/>
</g>
<defs>
<clipPath id="clip0_2025_16542">
<rect width="40" height="40" fill="white"/>
</clipPath>
</defs>
</svg>
