<svg width="34" height="34" viewBox="0 0 34 34" fill="none" xmlns="http://www.w3.org/2000/svg">
<path d="M24.2417 23.5974L21.6044 20.1846H17.9247C17.8431 20.1825 17.1267 20.1399 17.1267 19.3985C17.1267 18.6472 17.795 18.5108 17.8713 18.4951H25.1538V17.6659L23.1596 17.6671V16.7117C23.1596 16.5763 23.4216 16.3881 23.6395 16.2904H26.0568L29.5624 19.5015L30.1231 18.8902L26.3786 15.4606H23.5566L23.4109 15.4867C23.3008 15.528 22.3302 15.9146 22.3302 16.7117V17.6675L17.8186 17.6701C17.2916 17.7385 16.2969 18.1887 16.2969 19.3987C16.2969 20.5504 17.2553 20.9959 17.9121 21.0135H21.1977L23.8343 24.4264H30.1218V23.5972L24.2417 23.5974Z" fill="#7EBB48"/>
<path d="M10.7115 15.9345L11.3456 16.1358C11.2483 16.4889 11.0867 16.7519 10.8604 16.9237C10.6346 17.0953 10.3477 17.1809 9.99989 17.1809C9.56973 17.1809 9.21605 17.034 8.93903 16.74C8.66163 16.4462 8.52344 16.0444 8.52344 15.5345C8.52344 14.9952 8.66264 14.5766 8.94125 14.2779C9.21929 13.9799 9.5855 13.8306 10.0398 13.8306C10.4359 13.8306 10.7581 13.9477 11.0055 14.1818C11.153 14.3206 11.2631 14.5189 11.3373 14.7783L10.6897 14.9335C10.6516 14.7652 10.5717 14.6332 10.4499 14.5357C10.3283 14.438 10.181 14.3896 10.007 14.3896C9.7668 14.3896 9.57215 14.476 9.42244 14.6482C9.2727 14.8204 9.19845 15.0996 9.19845 15.4857C9.19845 15.8956 9.2721 16.187 9.4192 16.361C9.56669 16.5346 9.7583 16.622 9.99402 16.622C10.1681 16.622 10.3176 16.5666 10.4432 16.4559C10.5672 16.3456 10.6569 16.1718 10.7115 15.9345Z" fill="white"/>
<path d="M14.8291 17.1254H14.1173L13.8346 16.3893H12.5394L12.2721 17.1254H11.5781L12.8401 13.8852H13.5317L14.8291 17.1254ZM13.6248 15.844L13.178 14.6417L12.7402 15.844H13.6248Z" fill="white"/>
<path d="M15.1797 17.1254V13.8854H16.5564C16.9024 13.8854 17.1543 13.9147 17.3109 13.9732C17.4679 14.0313 17.5942 14.1349 17.6881 14.2838C17.7821 14.4325 17.8299 14.6027 17.8299 14.7939C17.8299 15.0375 17.7581 15.2376 17.615 15.3967C17.472 15.5543 17.2585 15.6546 16.9738 15.6959C17.1157 15.7785 17.2316 15.8689 17.3246 15.9679C17.4157 16.0666 17.5405 16.242 17.697 16.4941L18.0925 17.1258H17.3099L16.8372 16.4213C16.6691 16.169 16.5544 16.0101 16.4923 15.945C16.4303 15.8796 16.365 15.8341 16.296 15.8102C16.2264 15.7855 16.1165 15.7734 15.9664 15.7734H15.8336V17.126H15.1797V17.1254ZM15.8332 15.2556H16.3174C16.6312 15.2556 16.8271 15.2423 16.9056 15.2158C16.9839 15.1897 17.0448 15.1441 17.0885 15.079C17.1335 15.0142 17.1545 14.9331 17.1545 14.8358C17.1545 14.7265 17.1256 14.6389 17.0679 14.5717C17.0094 14.5043 16.9273 14.4623 16.8208 14.4443C16.7676 14.4372 16.609 14.4335 16.3429 14.4335H15.8326V15.2554L15.8332 15.2556Z" fill="white"/>
<path d="M18.4453 13.886H19.6411C19.9115 13.886 20.1166 13.9064 20.2581 13.9479C20.4479 14.0036 20.6105 14.1033 20.7461 14.2462C20.8817 14.3886 20.9849 14.564 21.0553 14.7712C21.1263 14.978 21.1615 15.2336 21.1615 15.5369C21.1615 15.8036 21.1281 16.0334 21.0619 16.2265C20.9812 16.4624 20.8653 16.6528 20.7151 16.799C20.6016 16.9097 20.4487 16.9957 20.2556 17.0574C20.111 17.1034 19.9181 17.1262 19.6767 17.1262H18.4453V13.886ZM19.1001 14.4339V16.5797H19.5885C19.7712 16.5797 19.9034 16.5696 19.9843 16.549C20.0901 16.5225 20.1784 16.4773 20.2484 16.4142C20.319 16.3511 20.376 16.2461 20.4195 16.1014C20.4646 15.9561 20.4859 15.7584 20.4859 15.508C20.4859 15.2568 20.4646 15.065 20.4195 14.9311C20.3752 14.7969 20.3141 14.6925 20.2342 14.617C20.1547 14.5426 20.0535 14.4908 19.9315 14.4645C19.8398 14.4435 19.6608 14.4337 19.3945 14.4337L19.1001 14.4339Z" fill="white"/>
<path d="M21.1406 25.2258H5.14718C4.41352 25.2258 3.81641 24.6291 3.81641 23.8955V10.3421C3.81641 9.6086 4.41333 9.0117 5.14718 9.0117H26.236C26.9699 9.0117 27.5667 9.6086 27.5667 10.3421V14.5707H26.8574V10.3421C26.8574 9.99971 26.5786 9.72129 26.236 9.72129H5.14718C4.80463 9.72129 4.52602 9.99971 4.52602 10.3421V23.8955C4.52602 24.2378 4.80463 24.5164 5.14718 24.5164H21.1403L21.1406 25.2258Z" fill="white"/>
</svg>
