<svg width="34" height="34" viewBox="0 0 34 34" fill="none" xmlns="http://www.w3.org/2000/svg">
<path d="M4.25 9.91667V7.08333C4.25 6.33189 4.54851 5.61122 5.07986 5.07986C5.61122 4.54851 6.33189 4.25 7.08333 4.25H9.91667" stroke="#7EBB48" stroke-width="2" stroke-linecap="round" stroke-linejoin="round"/>
<path d="M24.082 4.25H26.9154C27.6668 4.25 28.3875 4.54851 28.9188 5.07986C29.4502 5.61122 29.7487 6.33189 29.7487 7.08333V9.91667" stroke="#7EBB48" stroke-width="2" stroke-linecap="round" stroke-linejoin="round"/>
<path d="M29.7487 24.0833V26.9167C29.7487 27.6681 29.4502 28.3888 28.9188 28.9201C28.3875 29.4515 27.6668 29.75 26.9154 29.75H24.082" stroke="#7EBB48" stroke-width="2" stroke-linecap="round" stroke-linejoin="round"/>
<path d="M9.91667 29.75H7.08333C6.33189 29.75 5.61122 29.4515 5.07986 28.9201C4.54851 28.3888 4.25 27.6681 4.25 26.9167V24.0833" stroke="#7EBB48" stroke-width="2" stroke-linecap="round" stroke-linejoin="round"/>
<path d="M17.0013 17.6667C18.8423 17.6667 20.3346 16.1743 20.3346 14.3333C20.3346 12.4924 18.8423 11 17.0013 11C15.1604 11 13.668 12.4924 13.668 14.3333C13.668 16.1743 15.1604 17.6667 17.0013 17.6667Z" stroke="white" stroke-width="2" stroke-linecap="round" stroke-linejoin="round"/>
<path d="M22.3346 23C22.3346 21.5855 21.7727 20.229 20.7725 19.2288C19.7723 18.2286 18.4158 17.6667 17.0013 17.6667C15.5868 17.6667 14.2303 18.2286 13.2301 19.2288C12.2299 20.229 11.668 21.5855 11.668 23" stroke="white" stroke-width="2" stroke-linecap="round" stroke-linejoin="round"/>
</svg>
