<svg width="28" height="26" viewBox="0 0 28 26" fill="none" xmlns="http://www.w3.org/2000/svg">
<path d="M1.95703 7.58333V5.41667C1.95703 4.84203 2.1853 4.29093 2.59163 3.8846C2.99796 3.47827 3.54906 3.25 4.1237 3.25H6.29036" stroke="white" stroke-width="2.09091" stroke-linecap="round" stroke-linejoin="round"/>
<path d="M22.4766 3.25H24.6432C25.2179 3.25 25.769 3.47827 26.1753 3.8846C26.5816 4.29093 26.8099 4.84203 26.8099 5.41667V7.58333" stroke="white" stroke-width="2.09091" stroke-linecap="round" stroke-linejoin="round"/>
<path d="M26.8099 18.4169V20.5835C26.8099 21.1582 26.5816 21.7093 26.1753 22.1156C25.769 22.5219 25.2179 22.7502 24.6432 22.7502H22.4766" stroke="white" stroke-width="2.09091" stroke-linecap="round" stroke-linejoin="round"/>
<path d="M6.29036 22.7501H4.1237C3.54906 22.7501 2.99796 22.5219 2.59163 22.1155C2.1853 21.7092 1.95703 21.1581 1.95703 20.5835V18.4168" stroke="white" stroke-width="2.09091" stroke-linecap="round" stroke-linejoin="round"/>
<path d="M6.60547 7.58315V18.4165" stroke="white" stroke-width="1.77727" stroke-linecap="round" stroke-linejoin="round"/>
<path d="M9.41016 7.58315V18.4165" stroke="white" stroke-width="1.77727" stroke-linecap="round" stroke-linejoin="round"/>
<path d="M14.8281 7.58315V18.4165" stroke="#7EBB48" stroke-width="1.77727" stroke-linecap="round" stroke-linejoin="round"/>
<path d="M17.1211 7.58315V18.4165" stroke="#7EBB48" stroke-width="1.77727" stroke-linecap="round" stroke-linejoin="round"/>
<path d="M22.4766 7.58315V18.4165" stroke="white" stroke-width="1.77727" stroke-linecap="round" stroke-linejoin="round"/>
</svg>
