<svg width="31" height="37" viewBox="0 0 31 37" fill="none" xmlns="http://www.w3.org/2000/svg">
<path d="M12.2956 29.6132C12.2956 29.143 12.2956 28.7156 12.2956 28.3737L10.5859 24.4414H20.4593L18.7069 28.2027C18.7069 28.5446 18.7069 29.0148 18.7069 29.5704C18.7069 29.6559 18.7069 29.7414 18.7069 29.7841V34.6567C18.7069 35.5543 17.9803 36.2382 17.1255 36.2382H13.9626C13.065 36.2382 12.3811 35.5116 12.3811 34.6567V29.7841C12.2956 29.6987 12.2956 29.6559 12.2956 29.6132Z" fill="#7EBB48"/>
<path d="M30.2884 4.73719C30.2884 2.72832 28.365 0.804932 26.3561 0.804932H4.64319C2.63432 0.804932 0.710938 2.72832 0.710938 4.73719V20.509C0.710938 22.5178 2.59158 24.4412 4.64319 24.4412H26.3561C28.7924 24.4412 30.2884 22.5178 30.2884 20.509V4.73719ZM29.2198 4.73719V20.509C29.2198 22.0477 27.8948 23.4582 26.3561 23.4582C26.0996 23.4582 26.3561 23.7146 4.64319 23.4582C3.18997 23.4582 1.77949 21.663 1.77949 20.509V4.73719C1.77949 3.49767 3.14723 1.788 4.64319 1.788H26.3561C27.5956 1.788 29.2198 3.45493 29.2198 4.73719Z" fill="white"/>
<path d="M11.6538 10.9776V8.84047L11.2691 8.49853L10.9272 8.84047V10.9776L11.2691 11.3195L11.6538 10.9776ZM11.1409 8.28482L10.7989 7.90015H8.36265L8.02072 8.28482L8.36265 8.62676H10.7989L11.1409 8.28482ZM11.6538 14.1405V12.0461L11.2691 11.6614L10.9272 12.0034V14.1405L11.2691 14.4824L11.6538 14.1405ZM11.1409 11.4905L10.7989 11.1058H8.36265L8.02072 11.4905L8.36265 11.8324H10.7989L11.1409 11.4905ZM8.23443 10.9776V8.84047L7.84975 8.49853L7.50781 8.84047V10.9776L7.84975 11.3195L8.23443 10.9776ZM11.1409 14.6534L10.7989 14.3114H8.36265L7.97797 14.6534L8.31991 15.038H10.7562L11.1409 14.6534Z" fill="white"/>
<path d="M16.6538 10.9776V8.84048L16.2691 8.49855L15.9272 8.79774V10.9348L16.2691 11.2768L16.6538 10.9776ZM16.1409 8.28484L15.7989 7.90016H13.3627L13.0207 8.28484L13.3627 8.62677H15.7989L16.1409 8.28484ZM16.6538 14.1405V12.0461L16.2691 11.6615L15.9272 12.0034V14.1405L16.2691 14.4824L16.6538 14.1405ZM16.1409 11.4905L15.7989 11.1058H13.3627L13.0207 11.4905L13.3627 11.8324H15.7989L16.1409 11.4905ZM13.2344 10.9776V8.84048L12.8497 8.49855L12.5078 8.79774V10.9348L12.8497 11.2768L13.2344 10.9776ZM16.1409 14.6534L15.7989 14.3115H13.3627L12.978 14.6534L13.3199 15.0381H15.7562L16.1409 14.6534ZM13.2344 14.1405V12.0461L12.8497 11.6615L12.5078 12.0034V14.1405L12.8497 14.4824L13.2344 14.1405Z" fill="white"/>
<path d="M18.4907 14.5251L17.9777 14.0549L17.4648 14.5678L17.9777 15.0807L18.4907 14.5251Z" fill="white"/>
<path d="M22.9807 8.28482L22.6388 7.90015H20.2025L19.8606 8.28482L20.2025 8.6695H22.6388L22.9807 8.28482ZM23.5364 14.1405V12.0461L23.1517 11.6614L22.767 12.0034V14.1405L23.1089 14.4824L23.5364 14.1405ZM22.9807 11.4905L22.6388 11.1058H20.2025L19.8606 11.4905L20.2025 11.8324H22.6388L22.9807 11.4905ZM20.117 10.9776V8.84047L19.7323 8.49853L19.3477 8.79773V10.9348L19.6896 11.2768L20.117 10.9776ZM22.9807 14.6534L22.6388 14.3114H20.2025L19.8606 14.6534L20.2025 15.038H22.6388L22.9807 14.6534ZM20.117 14.1405V12.0461L19.7323 11.6614L19.3477 12.0034V14.1405L19.6896 14.4824L20.117 14.1405Z" fill="white"/>
<path d="M15.4569 22.4753C16.269 22.4753 16.9529 21.8342 16.9529 20.9793C16.9529 20.1672 16.3117 19.4833 15.4569 19.4833C14.6021 19.4833 13.9609 20.1245 13.9609 20.9793C14.0037 21.7914 14.6448 22.4753 15.4569 22.4753Z" fill="#7EBB48"/>
<path d="M5.92578 5.0791V18.7565H25.1597V5.0791H5.92578ZM24.2621 17.7735H6.8661V6.01942H24.2621V17.7735Z" fill="white"/>
</svg>
