<svg width="149" height="34" viewBox="0 0 149 34" fill="none" xmlns="http://www.w3.org/2000/svg">
<path d="M108.834 33.4167H92.8828L96.1108 22.5693H107.503L106.21 26.9111H99.3782L98.7337 29.0731L110.124 29.0713L108.834 33.4167ZM112.707 20.4029H96.7571L98.0516 16.0637H113.996L112.707 20.4029Z" fill="#7EBB48"/>
<path d="M127.669 29.0704C127.373 30.0521 127.117 30.7483 126.881 31.1581C126.476 31.8785 125.925 32.4145 125.223 32.7707C124.372 33.1993 123.232 33.4194 121.818 33.4194L114.981 33.4167C113.511 33.4167 112.483 33.1814 111.904 32.7188C111.422 32.3393 111.215 31.7666 111.273 30.9935C111.293 30.7071 111.351 30.3975 111.431 30.0539C111.468 29.9205 111.563 29.5886 111.72 29.0722L113.651 22.5702H118.209L116.276 29.0722H123.113L123.752 26.9111H128.306L127.669 29.0704ZM129.6 22.5711H125.045L125.688 20.4038H114.297C114.589 19.4266 114.85 18.7295 115.081 18.3214C115.484 17.5984 116.044 17.0615 116.743 16.7071C117.594 16.2749 118.732 16.0664 120.147 16.0664H126.979C128.449 16.0664 129.478 16.3 130.058 16.7599C130.536 17.142 130.744 17.7192 130.686 18.4906C130.668 18.7716 130.615 19.0821 130.53 19.423C130.499 19.5608 130.402 19.8901 130.243 20.4073L129.6 22.5711Z" fill="#7EBB48"/>
<path d="M145.209 29.0707C144.921 30.0523 144.656 30.7485 144.425 31.1584C144.023 31.8787 143.471 32.4147 142.769 32.7709C141.917 33.1995 140.782 33.4197 139.362 33.4197H132.525C131.055 33.4197 130.028 33.1816 129.444 32.719C128.972 32.345 128.759 31.7669 128.818 30.9937C128.838 30.7074 128.896 30.3977 128.98 30.0622C129.012 29.919 129.107 29.5951 129.266 29.0716L131.203 22.5696H135.756L133.821 29.0716H140.656L143.235 20.404H131.842C132.138 19.4259 132.393 18.7288 132.631 18.3217C133.034 17.5986 133.585 17.0617 134.288 16.7074C135.137 16.2805 136.273 16.0667 137.691 16.0667H144.525C145.996 16.0667 147.022 16.3002 147.604 16.7602C148.079 17.1423 148.289 17.7194 148.233 18.4908C148.212 18.7718 148.16 19.0796 148.079 19.4233C148.042 19.562 147.946 19.8913 147.789 20.4085L145.209 29.0707Z" fill="#7EBB48"/>
<path d="M75.0928 0.240479L57.0371 13.2418L65.9148 33.3465L56.2291 33.3626L50.2185 18.228L43.0842 23.6687L40.8276 33.3868L0.935547 33.4047L2.03172 27.2177L25.2543 6.13847H8.11853L9.21471 0.364863L36.9579 0.354125L35.747 5.72952L11.3759 27.5228L34.6269 27.4906L40.9515 0.355915L48.9773 0.240479L45.4088 14.5259L63.963 0.280747L75.0928 0.240479Z" fill="#121212"/>
<path d="M75.0925 0.240803L105 0.239014L102.858 6.13879L91.8362 6.21038L83.4864 33.3665L75.9894 33.3728L84.0225 6.17727L66.8105 6.20501L75.0925 0.240803Z" fill="#7EBB48"/>
</svg>
