<svg width="143" height="32" viewBox="0 0 143 32" fill="none" xmlns="http://www.w3.org/2000/svg">
<g clip-path="url(#clip0_1594_5745)">
<path d="M43.8293 6.08903L37.6286 12.2623V6.63497C37.6286 4.82919 36.1421 3.35938 34.3158 3.35938H6.41235C4.5861 3.35938 3.09961 4.82919 3.09961 6.63497V25.5326C3.09961 27.3384 4.5861 28.8082 6.41235 28.8082H34.3158C36.1421 28.8082 37.6286 27.3384 37.6286 25.5326V19.9053L43.8293 26.0365C45.6981 27.8843 48.8834 26.5825 48.8834 23.9788V8.18877C48.8834 5.5851 45.6981 4.24126 43.8293 6.08903ZM25.6517 18.1835L18.1768 22.9709C16.5205 24.0628 14.312 22.8449 14.312 20.8712V11.2964C14.312 9.32263 16.5205 8.14678 18.1768 9.19665L25.6517 13.984C27.1807 14.9919 27.1807 17.1756 25.6517 18.1835Z" fill="#3FA519"/>
<path d="M137.903 0H5.09653C2.29344 0 0 2.26772 0 5.03937V26.9606C0 29.7323 2.29344 32 5.09653 32H137.903C140.707 32 143 29.7323 143 26.9606V5.03937C143 2.26772 140.707 0 137.903 0ZM142.151 26.9606C142.151 29.2703 140.239 31.1601 137.903 31.1601H5.09653C2.76062 31.1601 0.849421 29.2703 0.849421 26.9606V5.03937C0.849421 2.72966 2.76062 0.839895 5.09653 0.839895H137.903C140.239 0.839895 142.151 2.72966 142.151 5.03937V26.9606Z" fill="#3FA519"/>
<mask id="mask0_1594_5745" style="mask-type:luminance" maskUnits="userSpaceOnUse" x="57" y="3" width="76" height="15">
<path d="M132.296 3.35938H57.5898V17.2596H132.296V3.35938Z" fill="white"/>
</mask>
<g mask="url(#mask0_1594_5745)">
<mask id="mask1_1594_5745" style="mask-type:luminance" maskUnits="userSpaceOnUse" x="57" y="3" width="76" height="15">
<path d="M132.296 3.35938H57.5898V17.2596H132.296V3.35938Z" fill="white"/>
</mask>
<g mask="url(#mask1_1594_5745)">
<path d="M57.5898 11.4644V3.35938H60.6053V11.3384C60.6053 13.7321 61.752 14.9079 64.4702 14.9079C67.1883 14.9079 68.335 13.7321 68.335 11.3384V3.40137H71.3505V11.5064C71.3505 15.3699 69.0995 17.3016 64.4277 17.3016C59.6709 17.2596 57.5898 15.3279 57.5898 11.4644Z" fill="black"/>
</g>
</g>
<mask id="mask2_1594_5745" style="mask-type:luminance" maskUnits="userSpaceOnUse" x="57" y="3" width="76" height="15">
<path d="M132.296 3.35938H57.5898V17.2596H132.296V3.35938Z" fill="white"/>
</mask>
<g mask="url(#mask2_1594_5745)">
<path d="M72.9648 3.35938V16.9237H83.4552V14.698H75.9803L76.0228 3.35938H72.9648Z" fill="black"/>
</g>
<mask id="mask3_1594_5745" style="mask-type:luminance" maskUnits="userSpaceOnUse" x="57" y="3" width="76" height="15">
<path d="M132.296 3.35938H57.5898V17.2596H132.296V3.35938Z" fill="white"/>
</mask>
<g mask="url(#mask3_1594_5745)">
<path d="M79.207 3.35938V5.5851H84.2611V16.9657H87.319V5.5851H92.4155V3.35938H79.207Z" fill="black"/>
</g>
<mask id="mask4_1594_5745" style="mask-type:luminance" maskUnits="userSpaceOnUse" x="57" y="3" width="76" height="15">
<path d="M132.296 3.35938H57.5898V17.2596H132.296V3.35938Z" fill="white"/>
</mask>
<g mask="url(#mask4_1594_5745)">
<path d="M96.5774 3.35938H93.5195V16.9657H96.5774V3.35938Z" fill="black"/>
</g>
<mask id="mask5_1594_5745" style="mask-type:luminance" maskUnits="userSpaceOnUse" x="57" y="3" width="76" height="15">
<path d="M132.296 3.35938H57.5898V17.2596H132.296V3.35938Z" fill="white"/>
</mask>
<g mask="url(#mask5_1594_5745)">
<path d="M123.463 6.29901L126.266 11.8003H120.702L123.463 6.29901ZM121.892 3.35938L115.988 14.446V3.35938H112.803L107.027 11.5484L101.208 3.35938H97.8105V16.9237H100.784V7.39087L105.838 14.53H107.961L113.015 7.39087V16.9657H114.672H115.988H118.069L119.513 14.152H127.328L128.814 16.9657H132.255L125.077 3.35938H121.892Z" fill="black"/>
</g>
<path d="M85.5379 22.5508C85.1557 22.5508 84.9009 22.5928 84.7734 22.5928V28.0101C84.9009 28.0521 85.1132 28.0521 85.2831 28.0521C86.8545 28.0941 88.0437 27.2122 88.0437 25.1545C88.0437 23.3907 86.9819 22.5508 85.5379 22.5508Z" fill="black"/>
<path d="M102.654 22.5508C102.271 22.5508 102.059 22.5928 101.932 22.5928V24.9025C102.059 24.9025 102.229 24.9445 102.484 24.9445C103.461 24.9445 104.055 24.4405 104.055 23.6846C104.013 23.0127 103.588 22.5508 102.654 22.5508Z" fill="black"/>
<path d="M123.464 17.8057H64.7265C57.5065 17.8057 51.6455 23.6009 51.6455 30.74L51.3906 31.9999H136.333L136.588 30.74C136.545 23.6009 130.684 17.8057 123.464 17.8057ZM68.379 29.8162H65.9157V20.7873H68.379V29.8162ZM77.935 29.8162H75.3443L73.8153 26.7925C73.3057 25.8267 72.7111 24.6088 72.2864 23.517H72.2014C72.2439 24.7348 72.2864 26.1206 72.2864 27.5904V29.8162H70.0354V20.7873H72.9234L74.3675 23.5589C74.8771 24.4408 75.3868 25.6587 75.8115 26.7505H75.8539C75.7265 25.5747 75.6841 24.2729 75.6841 22.929V20.7873H77.935V29.8162ZM89.0624 28.8083C88.0431 29.6062 86.5566 29.9421 84.7729 29.9421C83.5837 29.9421 82.8192 29.8582 82.3095 29.7742V20.9133C83.1165 20.7873 84.1358 20.7453 85.24 20.7453C86.9814 20.7453 88.0856 21.0393 89.02 21.6272C90.0393 22.2991 90.6763 23.433 90.6763 25.1128C90.6763 26.9185 89.9543 28.1364 89.0624 28.8083ZM98.1088 29.8162H91.9505V20.7873H97.8964V22.761H94.4138V24.2309H97.6841V26.2046H94.4138V27.8844H98.1088V29.8162ZM105.584 25.8267C104.819 26.4986 103.757 26.7505 102.526 26.7505C102.313 26.7505 102.059 26.7505 101.931 26.7086V29.8162H99.5103V20.9133C100.19 20.7873 101.124 20.7453 102.526 20.7453C103.842 20.7453 104.777 20.9553 105.414 21.4592C106.051 21.9211 106.476 22.719 106.476 23.6429C106.433 24.5248 106.136 25.3227 105.584 25.8267ZM114.29 22.803H111.912V29.8162H109.449V22.803H107.113V20.7873H114.29V22.803ZM123.294 29.8162H120.831V26.2466H117.858V29.8162H115.394V20.7873H117.858V24.1469H120.831V20.7873H123.294V29.8162Z" fill="black"/>
</g>
<defs>
<clipPath id="clip0_1594_5745">
<rect width="143" height="32" fill="white"/>
</clipPath>
</defs>
</svg>
