<svg width="390" height="369" viewBox="0 0 390 369" fill="none" xmlns="http://www.w3.org/2000/svg">
<g clip-path="url(#clip0_2435_78598)">
<rect width="390" height="369" rx="16" fill="#F5F5F5"/>
<rect x="293.816" y="166.816" width="199.369" height="315.369" rx="29.5744" fill="url(#paint0_linear_2435_78598)" fill-opacity="0.15"/>
<rect x="293.816" y="166.816" width="199.369" height="315.369" rx="29.5744" stroke="#E4E4E7" stroke-width="1.63116"/>
<rect x="-103.184" y="166.816" width="199.369" height="315.369" rx="29.5744" fill="url(#paint1_linear_2435_78598)" fill-opacity="0.15"/>
<rect x="-103.184" y="166.816" width="199.369" height="315.369" rx="29.5744" stroke="#E4E4E7" stroke-width="1.63116"/>
<rect x="35.8156" y="-70.1844" width="318.369" height="158.369" rx="29.5744" fill="url(#paint2_linear_2435_78598)" fill-opacity="0.15"/>
<rect x="35.8156" y="-70.1844" width="318.369" height="158.369" rx="29.5744" stroke="#E4E4E7" stroke-width="1.63116"/>
<g filter="url(#filter0_d_2435_78598)">
<rect x="52" y="108" width="287" height="154" rx="13" fill="white"/>
<rect x="52.5" y="108.5" width="286" height="153" rx="12.5" stroke="#EAEAEA"/>
</g>
<rect x="60.21" y="116.21" width="270.58" height="137.58" rx="13.79" fill="url(#paint3_radial_2435_78598)" stroke="url(#paint4_linear_2435_78598)" stroke-width="0.420039"/>
<g clip-path="url(#clip1_2435_78598)">
<path d="M236.014 186.035C236.014 183.579 235.454 181.253 234.456 179.181C234.487 178.814 234.506 178.443 234.506 178.07C234.506 171.825 230.176 166.602 224.372 165.271C222.214 157.82 215.382 152.374 207.284 152.374C205.902 152.374 204.56 152.539 203.269 152.838C201.598 151.481 199.472 150.668 197.157 150.668C194.245 150.668 191.635 151.956 189.849 153.992C186.655 151.893 182.841 150.668 178.742 150.668C167.506 150.668 158.395 159.837 158.395 171.149C158.395 176.484 160.422 181.339 163.741 184.983C159.149 188.132 156.133 193.433 156.133 199.448C156.133 209.107 163.913 216.938 173.51 216.938C175.378 216.938 177.176 216.638 178.863 216.09C181.247 217.877 184.205 218.936 187.407 218.936C191.333 218.936 194.886 217.346 197.472 214.771C200.369 218.025 204.578 220.075 209.26 220.075C217.998 220.075 225.085 212.942 225.085 204.145C225.085 203.113 224.986 202.109 224.799 201.131C231.282 199.21 236.014 193.18 236.014 186.035Z" fill="white" stroke="#94D9F8" stroke-width="2" stroke-miterlimit="10"/>
<path d="M170.568 183.996L168.145 174.031H170.069L171.009 178.556C171.259 179.768 171.494 181.04 171.655 182.031H171.684C171.844 180.981 172.124 179.797 172.402 178.541L173.475 174.032H175.37L176.354 178.615C176.605 179.798 176.811 180.907 176.957 181.987H176.987C177.162 180.892 177.399 179.753 177.664 178.541L178.69 174.032H180.527L177.869 183.997H175.929L174.902 179.309C174.652 178.171 174.475 177.224 174.359 176.146H174.33C174.154 177.211 173.962 178.171 173.669 179.309L172.522 183.997H170.568V183.996Z" fill="#0053A5"/>
<path d="M187.901 180.33C187.901 182.977 186.05 184.16 184.229 184.16C182.202 184.16 180.645 182.755 180.645 180.448C180.645 178.082 182.187 176.633 184.347 176.633C186.476 176.634 187.901 178.142 187.901 180.33ZM182.511 180.404C182.511 181.794 183.186 182.843 184.287 182.843C185.315 182.843 186.036 181.823 186.036 180.373C186.036 179.251 185.537 177.963 184.302 177.963C183.025 177.964 182.511 179.207 182.511 180.404Z" fill="#0053A5"/>
<path d="M189.383 179.117C189.383 178.141 189.367 177.445 189.324 176.795H190.895L190.953 178.171H191.013C191.364 177.151 192.201 176.633 192.967 176.633C193.142 176.633 193.245 176.647 193.393 176.677V178.392C193.245 178.363 193.085 178.333 192.864 178.333C191.997 178.333 191.41 178.896 191.247 179.71C191.219 179.872 191.189 180.065 191.189 180.272V183.998H189.384V179.117H189.383Z" fill="#0053A5"/>
<path d="M196.419 179.959H196.448C196.624 179.678 196.829 179.367 197.02 179.116L198.753 176.795H200.926L198.282 179.739L201.309 183.997H199.091L197.033 180.819L196.416 181.542V183.997H194.609V173.496H196.416V179.958H196.419V179.959Z" fill="#0053A5"/>
<path d="M208.584 173.496V181.97C208.584 182.711 208.612 183.508 208.641 183.996H207.026L206.953 182.857H206.925C206.498 183.656 205.631 184.158 204.588 184.158C202.885 184.158 201.531 182.695 201.531 180.477C201.517 178.066 203.015 176.633 204.735 176.633C205.718 176.633 206.423 177.046 206.747 177.58H206.775V173.497L208.584 173.496ZM206.777 179.796C206.777 179.649 206.762 179.471 206.732 179.323C206.57 178.613 205.998 178.036 205.176 178.036C204.014 178.036 203.369 179.072 203.369 180.417C203.369 181.733 204.014 182.695 205.162 182.695C205.896 182.695 206.542 182.192 206.718 181.408C206.763 181.246 206.777 181.069 206.777 180.876V179.796Z" fill="#0053A5"/>
<path d="M216.072 182.267C216.072 182.919 216.101 183.554 216.174 183.998H214.544L214.427 183.199H214.382C213.94 183.761 213.191 184.16 212.266 184.16C210.826 184.16 210.02 183.11 210.02 182.015C210.02 180.198 211.621 179.28 214.265 179.295V179.176C214.265 178.703 214.074 177.92 212.81 177.92C212.104 177.92 211.37 178.142 210.886 178.452L210.533 177.268C211.062 176.944 211.986 176.633 213.119 176.633C215.41 176.633 216.071 178.097 216.071 179.663L216.072 182.267ZM214.308 180.479C213.029 180.449 211.811 180.729 211.811 181.824C211.811 182.533 212.266 182.859 212.839 182.859C213.558 182.859 214.089 182.384 214.249 181.866C214.293 181.733 214.307 181.585 214.307 181.467L214.308 180.479Z" fill="#0053A5"/>
<path d="M218.964 176.797L220.258 180.657C220.406 181.101 220.551 181.648 220.656 182.063H220.699C220.816 181.648 220.95 181.115 221.081 180.642L222.197 176.798H224.137L222.345 181.707C221.358 184.399 220.698 185.596 219.846 186.336C219.142 186.972 218.406 187.207 217.951 187.266L217.54 185.729C217.848 185.655 218.231 185.492 218.598 185.226C218.936 185.004 219.334 184.576 219.584 184.087C219.658 183.954 219.701 183.85 219.701 183.761C219.701 183.687 219.686 183.583 219.599 183.407L216.984 176.797H218.964Z" fill="#0053A5"/>
<path d="M172.47 189.322H170.664V188.664H175.06V189.321H173.246V194.641H172.472L172.47 189.322Z" fill="#F29003"/>
<path d="M176.452 189.144C176.461 189.409 176.267 189.623 175.958 189.623C175.685 189.623 175.492 189.41 175.492 189.144C175.492 188.869 175.696 188.656 175.977 188.656C176.267 188.656 176.452 188.869 176.452 189.144ZM175.587 194.64V190.349H176.363V194.64H175.587Z" fill="#F29003"/>
<path d="M177.652 191.509C177.652 191.064 177.643 190.702 177.617 190.348H178.295L178.33 191.039H178.355C178.595 190.631 178.991 190.25 179.695 190.25C180.276 190.25 180.717 190.604 180.902 191.11H180.919C181.051 190.87 181.219 190.685 181.396 190.551C181.651 190.357 181.932 190.25 182.339 190.25C182.903 190.25 183.738 190.623 183.738 192.111V194.638H182.983V192.208C182.983 191.384 182.683 190.887 182.057 190.887C181.617 190.887 181.273 191.215 181.142 191.597C181.107 191.703 181.08 191.844 181.08 191.988V194.638H180.323V192.067C180.323 191.385 180.024 190.887 179.434 190.887C178.95 190.887 178.598 191.278 178.475 191.667C178.43 191.784 178.412 191.918 178.412 192.049V194.638H177.656L177.652 191.509Z" fill="#F29003"/>
<path d="M185.435 192.638C185.452 193.693 186.122 194.128 186.896 194.128C187.451 194.128 187.787 194.03 188.077 193.906L188.209 194.465C187.938 194.588 187.47 194.74 186.792 194.74C185.479 194.74 184.695 193.861 184.695 192.567C184.695 191.273 185.452 190.254 186.695 190.254C188.086 190.254 188.458 191.486 188.458 192.275C188.458 192.434 188.44 192.558 188.431 192.638H185.435ZM187.707 192.08C187.717 191.583 187.505 190.811 186.634 190.811C185.849 190.811 185.505 191.538 185.446 192.08H187.707Z" fill="#F29003"/>
<path d="M192.078 189.322H190.273V188.664H194.668V189.321H192.854V194.641H192.08L192.078 189.322Z" fill="#F29003"/>
<path d="M194.907 191.688C194.907 191.182 194.898 190.748 194.871 190.348H195.55L195.576 191.19H195.611C195.805 190.614 196.273 190.25 196.792 190.25C196.881 190.25 196.942 190.259 197.013 190.276V191.012C196.931 190.993 196.854 190.984 196.748 190.984C196.203 190.984 195.814 191.402 195.709 191.988C195.692 192.093 195.675 192.217 195.675 192.35V194.638H194.909V191.686H194.907V191.688Z" fill="#F29003"/>
<path d="M200.735 193.613C200.735 193.985 200.754 194.349 200.805 194.642H200.101L200.04 194.102H200.012C199.776 194.44 199.317 194.741 198.709 194.741C197.847 194.741 197.406 194.129 197.406 193.509C197.406 192.471 198.323 191.903 199.971 191.912V191.824C199.971 191.468 199.873 190.83 199 190.83C198.605 190.83 198.192 190.954 197.89 191.149L197.716 190.635C198.068 190.404 198.579 190.254 199.116 190.254C200.42 190.254 200.737 191.149 200.737 192.009V193.613H200.735ZM199.987 192.452C199.142 192.433 198.183 192.585 198.183 193.417C198.183 193.923 198.516 194.162 198.915 194.162C199.469 194.162 199.82 193.806 199.943 193.443C199.97 193.363 199.989 193.274 199.989 193.195L199.987 192.452Z" fill="#F29003"/>
<path d="M205.034 194.482C204.83 194.588 204.382 194.739 203.809 194.739C202.523 194.739 201.688 193.854 201.688 192.54C201.688 191.219 202.586 190.262 203.978 190.262C204.437 190.262 204.841 190.377 205.052 190.482L204.877 191.086C204.692 190.98 204.401 190.881 203.979 190.881C203.002 190.881 202.473 191.608 202.473 192.504C202.473 193.497 203.107 194.109 203.952 194.109C204.393 194.109 204.684 193.993 204.902 193.895L205.034 194.482Z" fill="#F29003"/>
<path d="M206.703 192.319H206.722C206.827 192.169 206.976 191.983 207.102 191.831L208.351 190.351H209.284L207.638 192.115L209.515 194.642H208.572L207.102 192.585L206.704 193.029V194.645H205.938V188.348H206.704V192.32L206.703 192.319Z" fill="#F29003"/>
<path d="M211.085 189.144C211.094 189.409 210.901 189.623 210.592 189.623C210.319 189.623 210.125 189.41 210.125 189.144C210.125 188.869 210.328 188.656 210.61 188.656C210.901 188.656 211.085 188.869 211.085 189.144ZM210.223 194.64V190.349H210.996V194.64H210.223Z" fill="#F29003"/>
<path d="M212.285 191.512C212.285 191.067 212.276 190.705 212.25 190.35H212.936L212.982 191.059H212.998C213.211 190.652 213.704 190.254 214.408 190.254C214.998 190.254 215.914 190.608 215.914 192.08V194.642H215.14V192.168C215.14 191.475 214.883 190.899 214.152 190.899C213.641 190.899 213.245 191.263 213.113 191.698C213.077 191.795 213.058 191.928 213.058 192.062V194.642H212.285V191.512Z" fill="#F29003"/>
<path d="M220.813 194.02C220.813 195.005 220.619 195.607 220.206 195.979C219.792 196.371 219.192 196.495 218.655 196.495C218.143 196.495 217.579 196.371 217.237 196.141L217.431 195.546C217.712 195.722 218.152 195.883 218.68 195.883C219.473 195.883 220.056 195.466 220.056 194.384V193.906H220.037C219.799 194.304 219.341 194.624 218.68 194.624C217.624 194.624 216.867 193.72 216.867 192.532C216.867 191.079 217.809 190.254 218.786 190.254C219.526 190.254 219.932 190.644 220.116 190.998H220.136L220.17 190.351H220.848C220.83 190.66 220.813 191.007 220.813 191.53V194.02ZM220.046 192.044C220.046 191.91 220.038 191.797 220.003 191.688C219.861 191.237 219.482 190.864 218.918 190.864C218.178 190.864 217.651 191.494 217.651 192.486C217.651 193.328 218.073 194.028 218.91 194.028C219.386 194.028 219.818 193.728 219.984 193.231C220.028 193.097 220.046 192.947 220.046 192.814V192.044L220.046 192.044Z" fill="#F29003"/>
</g>
</g>
<defs>
<filter id="filter0_d_2435_78598" x="46.7984" y="108" width="297.403" height="164.403" filterUnits="userSpaceOnUse" color-interpolation-filters="sRGB">
<feFlood flood-opacity="0" result="BackgroundImageFix"/>
<feColorMatrix in="SourceAlpha" type="matrix" values="0 0 0 0 0 0 0 0 0 0 0 0 0 0 0 0 0 0 127 0" result="hardAlpha"/>
<feOffset dy="5.20165"/>
<feGaussianBlur stdDeviation="2.60082"/>
<feComposite in2="hardAlpha" operator="out"/>
<feColorMatrix type="matrix" values="0 0 0 0 0.713381 0 0 0 0 0.713381 0 0 0 0 0.713381 0 0 0 0.13 0"/>
<feBlend mode="normal" in2="BackgroundImageFix" result="effect1_dropShadow_2435_78598"/>
<feBlend mode="normal" in="SourceGraphic" in2="effect1_dropShadow_2435_78598" result="shape"/>
</filter>
<linearGradient id="paint0_linear_2435_78598" x1="393.5" y1="166" x2="393.5" y2="483" gradientUnits="userSpaceOnUse">
<stop stop-color="white"/>
<stop offset="1" stop-color="white"/>
</linearGradient>
<linearGradient id="paint1_linear_2435_78598" x1="-3.5" y1="166" x2="-3.5" y2="483" gradientUnits="userSpaceOnUse">
<stop stop-color="white"/>
<stop offset="1" stop-color="white"/>
</linearGradient>
<linearGradient id="paint2_linear_2435_78598" x1="195" y1="-71" x2="195" y2="89" gradientUnits="userSpaceOnUse">
<stop stop-color="white"/>
<stop offset="1" stop-color="white"/>
</linearGradient>
<radialGradient id="paint3_radial_2435_78598" cx="0" cy="0" r="1" gradientUnits="userSpaceOnUse" gradientTransform="translate(193.852 184.808) rotate(-126.368) scale(134.925 195.955)">
<stop offset="0.116577" stop-color="#0053A5"/>
<stop offset="0.46" stop-color="#0053A5"/>
<stop offset="0.599" stop-color="#0053A5" stop-opacity="0.84"/>
<stop offset="0.785183" stop-color="#71AAE2"/>
<stop offset="1" stop-color="#E9BD68"/>
</radialGradient>
<linearGradient id="paint4_linear_2435_78598" x1="63.9033" y1="130.786" x2="332.73" y2="138.596" gradientUnits="userSpaceOnUse">
<stop stop-color="#D1971D" stop-opacity="0.15"/>
<stop offset="0.480607" stop-color="#D1971D" stop-opacity="0.3"/>
<stop offset="1" stop-color="#D1971D" stop-opacity="0.15"/>
</linearGradient>
<clipPath id="clip0_2435_78598">
<rect width="390" height="369" fill="white"/>
</clipPath>
<clipPath id="clip1_2435_78598">
<rect width="82" height="72" fill="white" transform="translate(155 149)"/>
</clipPath>
</defs>
</svg>
