<svg width="390" height="369" viewBox="0 0 390 369" fill="none" xmlns="http://www.w3.org/2000/svg">
<g clip-path="url(#clip0_2435_78840)">
<rect width="390" height="369" rx="16" fill="#F5F5F5"/>
<g clip-path="url(#clip1_2435_78840)">
<path d="M195 52L195 290" stroke="#7EBB48" stroke-dasharray="8 8"/>
<mask id="mask0_2435_78840" style="mask-type:luminance" maskUnits="userSpaceOnUse" x="0" y="37" width="390" height="295">
<path d="M390 37H0V331.506H390V37Z" fill="white"/>
</mask>
<g mask="url(#mask0_2435_78840)">
<g opacity="0.8">
<path d="M130.805 69.9023H259.2" stroke="#DBF4D5" stroke-width="0.401235"/>
</g>
<path d="M130.162 167.448C130.162 167.645 130.305 167.804 130.481 167.804C130.658 167.804 130.801 167.645 130.801 167.448H130.162ZM67.3379 59.379C67.5143 59.379 67.6574 59.2198 67.6574 59.0235C67.6574 58.8271 67.5143 58.668 67.3379 58.668V59.379ZM70.4123 58.668C70.2359 58.668 70.0929 58.8271 70.0929 59.0235C70.0929 59.2198 70.2359 59.379 70.4123 59.379V58.668ZM73.4866 59.379C73.663 59.379 73.806 59.2198 73.806 59.0235C73.806 58.8271 73.663 58.668 73.4866 58.668V59.379ZM76.5609 58.668C76.3845 58.668 76.2415 58.8271 76.2415 59.0235C76.2415 59.2198 76.3845 59.379 76.5609 59.379V58.668ZM79.6352 59.379C79.8116 59.379 79.9547 59.2198 79.9547 59.0235C79.9547 58.8271 79.8116 58.668 79.6352 58.668V59.379ZM82.7096 58.668C82.5331 58.668 82.3902 58.8271 82.3902 59.0235C82.3902 59.2198 82.5331 59.379 82.7096 59.379V58.668ZM85.7839 59.379C85.9604 59.379 86.1033 59.2198 86.1033 59.0235C86.1033 58.8271 85.9604 58.668 85.7839 58.668V59.379ZM88.8582 58.668C88.6817 58.668 88.5388 58.8271 88.5388 59.0235C88.5388 59.2198 88.6817 59.379 88.8582 59.379V58.668ZM91.9325 59.379C92.109 59.379 92.252 59.2198 92.252 59.0235C92.252 58.8271 92.109 58.668 91.9325 58.668V59.379ZM95.0069 58.668C94.8304 58.668 94.6875 58.8271 94.6875 59.0235C94.6875 59.2198 94.8304 59.379 95.0069 59.379V58.668ZM98.0812 59.379C98.2577 59.379 98.4006 59.2198 98.4006 59.0235C98.4006 58.8271 98.2577 58.668 98.0812 58.668V59.379ZM101.156 58.668C100.979 58.668 100.836 58.8271 100.836 59.0235C100.836 59.2198 100.979 59.379 101.156 59.379V58.668ZM104.23 59.379C104.406 59.379 104.549 59.2198 104.549 59.0235C104.549 58.8271 104.406 58.668 104.23 58.668V59.379ZM107.304 58.668C107.128 58.668 106.985 58.8271 106.985 59.0235C106.985 59.2198 107.128 59.379 107.304 59.379V58.668ZM110.378 59.379C110.555 59.379 110.698 59.2198 110.698 59.0235C110.698 58.8271 110.555 58.668 110.378 58.668V59.379ZM113.453 58.668C113.276 58.668 113.133 58.8271 113.133 59.0235C113.133 59.2198 113.276 59.379 113.453 59.379V58.668ZM116.527 59.379C116.704 59.379 116.847 59.2198 116.847 59.0235C116.847 58.8271 116.704 58.668 116.527 58.668V59.379ZM119.601 58.668C119.425 58.668 119.282 58.8271 119.282 59.0235C119.282 59.2198 119.425 59.379 119.601 59.379V58.668ZM122.676 59.379C122.852 59.379 122.995 59.2198 122.995 59.0235C122.995 58.8271 122.852 58.668 122.676 58.668V59.379ZM125.75 58.668C125.574 58.668 125.431 58.8271 125.431 59.0235C125.431 59.2198 125.574 59.379 125.75 59.379V58.668ZM128.388 59.6216C128.551 59.6968 128.737 59.6107 128.805 59.4293C128.872 59.248 128.795 59.0401 128.632 58.9648L128.388 59.6216ZM130.534 61.0814C130.466 60.9001 130.279 60.814 130.116 60.8893C129.954 60.9644 129.876 61.1724 129.944 61.3538L130.534 61.0814ZM130.162 64.3262C130.162 64.5226 130.305 64.6817 130.481 64.6817C130.658 64.6817 130.801 64.5226 130.801 64.3262H130.162ZM130.801 67.8219C130.801 67.6256 130.658 67.4664 130.481 67.4664C130.305 67.4664 130.162 67.6256 130.162 67.8219H130.801ZM130.162 71.3175C130.162 71.5138 130.305 71.673 130.481 71.673C130.658 71.673 130.801 71.5138 130.801 71.3175H130.162ZM130.801 74.8132C130.801 74.6169 130.658 74.4577 130.481 74.4577C130.305 74.4577 130.162 74.6169 130.162 74.8132H130.801ZM130.162 78.3089C130.162 78.5052 130.305 78.6644 130.481 78.6644C130.658 78.6644 130.801 78.5052 130.801 78.3089H130.162ZM130.801 81.8045C130.801 81.6082 130.658 81.449 130.481 81.449C130.305 81.449 130.162 81.6082 130.162 81.8045H130.801ZM130.162 85.3002C130.162 85.4965 130.305 85.6557 130.481 85.6557C130.658 85.6557 130.801 85.4965 130.801 85.3002H130.162ZM130.801 88.7959C130.801 88.5995 130.658 88.4404 130.481 88.4404C130.305 88.4404 130.162 88.5995 130.162 88.7959H130.801ZM130.162 92.2915C130.162 92.4879 130.305 92.647 130.481 92.647C130.658 92.647 130.801 92.4879 130.801 92.2915H130.162ZM130.801 95.7872C130.801 95.5909 130.658 95.4317 130.481 95.4317C130.305 95.4317 130.162 95.5909 130.162 95.7872H130.801ZM130.162 99.2828C130.162 99.4792 130.305 99.6383 130.481 99.6383C130.658 99.6383 130.801 99.4792 130.801 99.2828H130.162ZM130.801 102.778C130.801 102.582 130.658 102.423 130.481 102.423C130.305 102.423 130.162 102.582 130.162 102.778H130.801ZM130.162 106.274C130.162 106.471 130.305 106.63 130.481 106.63C130.658 106.63 130.801 106.471 130.801 106.274H130.162ZM130.801 109.77C130.801 109.574 130.658 109.414 130.481 109.414C130.305 109.414 130.162 109.574 130.162 109.77H130.801ZM130.162 113.265C130.162 113.462 130.305 113.621 130.481 113.621C130.658 113.621 130.801 113.462 130.801 113.265H130.162ZM130.801 116.761C130.801 116.565 130.658 116.406 130.481 116.406C130.305 116.406 130.162 116.565 130.162 116.761H130.801ZM130.162 120.257C130.162 120.453 130.305 120.612 130.481 120.612C130.658 120.612 130.801 120.453 130.801 120.257H130.162ZM130.801 123.752C130.801 123.556 130.658 123.397 130.481 123.397C130.305 123.397 130.162 123.556 130.162 123.752H130.801ZM130.162 127.248C130.162 127.445 130.305 127.604 130.481 127.604C130.658 127.604 130.801 127.445 130.801 127.248H130.162ZM130.801 130.744C130.801 130.547 130.658 130.388 130.481 130.388C130.305 130.388 130.162 130.547 130.162 130.744H130.801ZM130.162 134.239C130.162 134.436 130.305 134.595 130.481 134.595C130.658 134.595 130.801 134.436 130.801 134.239H130.162ZM130.801 137.735C130.801 137.539 130.658 137.38 130.481 137.38C130.305 137.38 130.162 137.539 130.162 137.735H130.801ZM130.162 141.231C130.162 141.427 130.305 141.586 130.481 141.586C130.658 141.586 130.801 141.427 130.801 141.231H130.162ZM130.801 144.726C130.801 144.53 130.658 144.371 130.481 144.371C130.305 144.371 130.162 144.53 130.162 144.726H130.801ZM130.162 148.222C130.162 148.419 130.305 148.578 130.481 148.578C130.658 148.578 130.801 148.419 130.801 148.222H130.162ZM130.801 151.718C130.801 151.521 130.658 151.362 130.481 151.362C130.305 151.362 130.162 151.521 130.162 151.718H130.801ZM130.162 155.213C130.162 155.41 130.305 155.569 130.481 155.569C130.658 155.569 130.801 155.41 130.801 155.213H130.162ZM130.801 158.709C130.801 158.513 130.658 158.354 130.481 158.354C130.305 158.354 130.162 158.513 130.162 158.709H130.801ZM130.162 162.205C130.162 162.401 130.305 162.56 130.481 162.56C130.658 162.56 130.801 162.401 130.801 162.205H130.162ZM130.801 165.7C130.801 165.504 130.658 165.345 130.481 165.345C130.305 165.345 130.162 165.504 130.162 165.7H130.801ZM65.8008 59.379H67.3379V58.668H65.8008V59.379ZM70.4123 59.379H73.4866V58.668H70.4123V59.379ZM76.5609 59.379H79.6352V58.668H76.5609V59.379ZM82.7096 59.379H85.7839V58.668H82.7096V59.379ZM88.8582 59.379H91.9325V58.668H88.8582V59.379ZM95.0069 59.379H98.0812V58.668H95.0069V59.379ZM101.156 59.379H104.23V58.668H101.156V59.379ZM107.304 59.379H110.378V58.668H107.304V59.379ZM113.453 59.379H116.527V58.668H113.453V59.379ZM119.601 59.379H122.676V58.668H119.601V59.379ZM125.75 59.379H127.287V58.668H125.75V59.379ZM127.287 59.379C127.678 59.379 128.049 59.4653 128.388 59.6216L128.632 58.9648C128.218 58.7735 127.763 58.668 127.287 58.668V59.379ZM129.944 61.3538C130.085 61.7305 130.162 62.1439 130.162 62.5784H130.801C130.801 62.0488 130.706 61.543 130.534 61.0814L129.944 61.3538ZM130.162 62.5784V64.3262H130.801V62.5784H130.162ZM130.162 67.8219V71.3175H130.801V67.8219H130.162ZM130.162 74.8132V78.3089H130.801V74.8132H130.162ZM130.162 81.8045V85.3002H130.801V81.8045H130.162ZM130.162 88.7959V92.2915H130.801V88.7959H130.162ZM130.162 95.7872V99.2828H130.801V95.7872H130.162ZM130.162 102.778V106.274H130.801V102.778H130.162ZM130.162 109.77V113.265H130.801V109.77H130.162ZM130.162 116.761V120.257H130.801V116.761H130.162ZM130.162 123.752V127.248H130.801V123.752H130.162ZM130.162 130.744V134.239H130.801V130.744H130.162ZM130.162 137.735V141.231H130.801V137.735H130.162ZM130.162 144.726V148.222H130.801V144.726H130.162ZM130.162 151.718V155.213H130.801V151.718H130.162ZM130.162 158.709V162.205H130.801V158.709H130.162ZM130.162 165.7V167.448H130.801V165.7H130.162Z" fill="#BAD2B5"/>
<path d="M130.481 167.801C130.481 167.624 130.625 167.48 130.802 167.48C130.98 167.48 131.123 167.624 131.123 167.801H130.481ZM66.5648 266.184C66.7421 266.184 66.8858 266.328 66.8858 266.505C66.8858 266.683 66.7421 266.826 66.5648 266.826V266.184ZM69.6944 266.826C69.5172 266.826 69.3735 266.683 69.3735 266.505C69.3735 266.328 69.5172 266.184 69.6944 266.184V266.826ZM72.8241 266.184C73.0013 266.184 73.1451 266.328 73.1451 266.505C73.1451 266.683 73.0013 266.826 72.8241 266.826V266.184ZM75.9537 266.826C75.7764 266.826 75.6327 266.683 75.6327 266.505C75.6327 266.328 75.7764 266.184 75.9537 266.184V266.826ZM79.0833 266.184C79.2606 266.184 79.4043 266.328 79.4043 266.505C79.4043 266.683 79.2606 266.826 79.0833 266.826V266.184ZM82.213 266.826C82.0356 266.826 81.892 266.683 81.892 266.505C81.892 266.328 82.0356 266.184 82.213 266.184V266.826ZM85.3426 266.184C85.5199 266.184 85.6636 266.328 85.6636 266.505C85.6636 266.683 85.5199 266.826 85.3426 266.826V266.184ZM88.4722 266.826C88.2949 266.826 88.1512 266.683 88.1512 266.505C88.1512 266.328 88.2949 266.184 88.4722 266.184V266.826ZM91.6019 266.184C91.7792 266.184 91.9228 266.328 91.9228 266.505C91.9228 266.683 91.7792 266.826 91.6019 266.826V266.184ZM94.7315 266.826C94.5541 266.826 94.4105 266.683 94.4105 266.505C94.4105 266.328 94.5541 266.184 94.7315 266.184V266.826ZM97.8611 266.184C98.0385 266.184 98.1821 266.328 98.1821 266.505C98.1821 266.683 98.0385 266.826 97.8611 266.826V266.184ZM100.991 266.826C100.813 266.826 100.67 266.683 100.67 266.505C100.67 266.328 100.813 266.184 100.991 266.184V266.826ZM104.12 266.184C104.298 266.184 104.441 266.328 104.441 266.505C104.441 266.683 104.298 266.826 104.12 266.826V266.184ZM107.25 266.826C107.073 266.826 106.929 266.683 106.929 266.505C106.929 266.328 107.073 266.184 107.25 266.184V266.826ZM110.38 266.184C110.557 266.184 110.701 266.328 110.701 266.505C110.701 266.683 110.557 266.826 110.38 266.826V266.184ZM113.509 266.826C113.332 266.826 113.188 266.683 113.188 266.505C113.188 266.328 113.332 266.184 113.509 266.184V266.826ZM116.639 266.184C116.816 266.184 116.96 266.328 116.96 266.505C116.96 266.683 116.816 266.826 116.639 266.826V266.184ZM119.769 266.826C119.591 266.826 119.448 266.683 119.448 266.505C119.448 266.328 119.591 266.184 119.769 266.184V266.826ZM122.898 266.184C123.075 266.184 123.219 266.328 123.219 266.505C123.219 266.683 123.075 266.826 122.898 266.826V266.184ZM126.028 266.826C125.85 266.826 125.707 266.683 125.707 266.505C125.707 266.328 125.85 266.184 126.028 266.184V266.826ZM128.698 265.965C128.862 265.897 129.05 265.975 129.118 266.138C129.185 266.302 129.108 266.49 128.944 266.558L128.698 265.965ZM130.855 264.647C130.787 264.81 130.599 264.888 130.436 264.821C130.272 264.753 130.194 264.565 130.262 264.401L130.855 264.647ZM130.481 261.704C130.481 261.527 130.625 261.383 130.802 261.383C130.98 261.383 131.123 261.527 131.123 261.704H130.481ZM131.123 258.521C131.123 258.698 130.98 258.842 130.802 258.842C130.625 258.842 130.481 258.698 130.481 258.521H131.123ZM130.481 255.337C130.481 255.16 130.625 255.016 130.802 255.016C130.98 255.016 131.123 255.16 131.123 255.337H130.481ZM131.123 252.155C131.123 252.332 130.98 252.476 130.802 252.476C130.625 252.476 130.481 252.332 130.481 252.155H131.123ZM130.481 248.971C130.481 248.794 130.625 248.65 130.802 248.65C130.98 248.65 131.123 248.794 131.123 248.971H130.481ZM131.123 245.788C131.123 245.965 130.98 246.109 130.802 246.109C130.625 246.109 130.481 245.965 130.481 245.788H131.123ZM130.481 242.605C130.481 242.428 130.625 242.284 130.802 242.284C130.98 242.284 131.123 242.428 131.123 242.605H130.481ZM131.123 239.422C131.123 239.599 130.98 239.743 130.802 239.743C130.625 239.743 130.481 239.599 130.481 239.422H131.123ZM130.481 236.238C130.481 236.061 130.625 235.917 130.802 235.917C130.98 235.917 131.123 236.061 131.123 236.238H130.481ZM131.123 233.056C131.123 233.233 130.98 233.377 130.802 233.377C130.625 233.377 130.481 233.233 130.481 233.056H131.123ZM130.481 229.872C130.481 229.695 130.625 229.551 130.802 229.551C130.98 229.551 131.123 229.695 131.123 229.872H130.481ZM131.123 226.689C131.123 226.866 130.98 227.01 130.802 227.01C130.625 227.01 130.481 226.866 130.481 226.689H131.123ZM130.481 223.506C130.481 223.329 130.625 223.185 130.802 223.185C130.98 223.185 131.123 223.329 131.123 223.506H130.481ZM131.123 220.323C131.123 220.5 130.98 220.644 130.802 220.644C130.625 220.644 130.481 220.5 130.481 220.323H131.123ZM130.481 217.14C130.481 216.962 130.625 216.819 130.802 216.819C130.98 216.819 131.123 216.962 131.123 217.14H130.481ZM131.123 213.957C131.123 214.134 130.98 214.278 130.802 214.278C130.625 214.278 130.481 214.134 130.481 213.957H131.123ZM130.481 210.774C130.481 210.596 130.625 210.453 130.802 210.453C130.98 210.453 131.123 210.596 131.123 210.774H130.481ZM131.123 207.59C131.123 207.768 130.98 207.911 130.802 207.911C130.625 207.911 130.481 207.768 130.481 207.59H131.123ZM130.481 204.408C130.481 204.23 130.625 204.087 130.802 204.087C130.98 204.087 131.123 204.23 131.123 204.408H130.481ZM131.123 201.224C131.123 201.402 130.98 201.545 130.802 201.545C130.625 201.545 130.481 201.402 130.481 201.224H131.123ZM130.481 198.041C130.481 197.864 130.625 197.72 130.802 197.72C130.98 197.72 131.123 197.864 131.123 198.041H130.481ZM131.123 194.858C131.123 195.036 130.98 195.179 130.802 195.179C130.625 195.179 130.481 195.036 130.481 194.858H131.123ZM130.481 191.675C130.481 191.498 130.625 191.354 130.802 191.354C130.98 191.354 131.123 191.498 131.123 191.675H130.481ZM131.123 188.492C131.123 188.669 130.98 188.812 130.802 188.812C130.625 188.812 130.481 188.669 130.481 188.492H131.123ZM130.481 185.309C130.481 185.132 130.625 184.988 130.802 184.988C130.98 184.988 131.123 185.132 131.123 185.309H130.481ZM131.123 182.126C131.123 182.303 130.98 182.447 130.802 182.447C130.625 182.447 130.481 182.303 130.481 182.126H131.123ZM130.481 178.942C130.481 178.765 130.625 178.621 130.802 178.621C130.98 178.621 131.123 178.765 131.123 178.942H130.481ZM131.123 175.76C131.123 175.937 130.98 176.081 130.802 176.081C130.625 176.081 130.481 175.937 130.481 175.76H131.123ZM130.481 172.576C130.481 172.399 130.625 172.255 130.802 172.255C130.98 172.255 131.123 172.399 131.123 172.576H130.481ZM131.123 169.393C131.123 169.57 130.98 169.714 130.802 169.714C130.625 169.714 130.481 169.57 130.481 169.393H131.123ZM65 266.184H66.5648V266.826H65V266.184ZM69.6944 266.184H72.8241V266.826H69.6944V266.184ZM75.9537 266.184H79.0833V266.826H75.9537V266.184ZM82.213 266.184H85.3426V266.826H82.213V266.184ZM88.4722 266.184H91.6019V266.826H88.4722V266.184ZM94.7315 266.184H97.8611V266.826H94.7315V266.184ZM100.991 266.184H104.12V266.826H100.991V266.184ZM107.25 266.184H110.38V266.826H107.25V266.184ZM113.509 266.184H116.639V266.826H113.509V266.184ZM119.769 266.184H122.898V266.826H119.769V266.184ZM126.028 266.184H127.593V266.826H126.028V266.184ZM127.593 266.184C127.985 266.184 128.358 266.106 128.698 265.965L128.944 266.558C128.527 266.731 128.071 266.826 127.593 266.826V266.184ZM130.262 264.401C130.404 264.061 130.481 263.688 130.481 263.295H131.123C131.123 263.774 131.028 264.23 130.855 264.647L130.262 264.401ZM130.481 263.295V261.704H131.123V263.295H130.481ZM130.481 258.521V255.337H131.123V258.521H130.481ZM130.481 252.155V248.971H131.123V252.155H130.481ZM130.481 245.788V242.605H131.123V245.788H130.481ZM130.481 239.422V236.238H131.123V239.422H130.481ZM130.481 233.056V229.872H131.123V233.056H130.481ZM130.481 226.689V223.506H131.123V226.689H130.481ZM130.481 220.323V217.14H131.123V220.323H130.481ZM130.481 213.957V210.774H131.123V213.957H130.481ZM130.481 207.59V204.408H131.123V207.59H130.481ZM130.481 201.224V198.041H131.123V201.224H130.481ZM130.481 194.858V191.675H131.123V194.858H130.481ZM130.481 188.492V185.309H131.123V188.492H130.481ZM130.481 182.126V178.942H131.123V182.126H130.481ZM130.481 175.76V172.576H131.123V175.76H130.481ZM130.481 169.393V167.801H131.123V169.393H130.481Z" fill="#BAD2B5"/>
<path d="M260.322 167.8C260.322 167.978 260.178 168.121 260.001 168.121C259.824 168.121 259.68 167.978 259.68 167.8H260.322ZM322.683 70.2201C322.506 70.2201 322.362 70.0764 322.362 69.8991C322.362 69.7218 322.506 69.5781 322.683 69.5781V70.2201ZM319.634 69.5781C319.811 69.5781 319.955 69.7218 319.955 69.8991C319.955 70.0764 319.811 70.2201 319.634 70.2201V69.5781ZM316.584 70.2201C316.406 70.2201 316.263 70.0764 316.263 69.8991C316.263 69.7218 316.406 69.5781 316.584 69.5781V70.2201ZM313.533 69.5781C313.711 69.5781 313.854 69.7218 313.854 69.8991C313.854 70.0764 313.711 70.2201 313.533 70.2201V69.5781ZM310.484 70.2201C310.307 70.2201 310.163 70.0764 310.163 69.8991C310.163 69.7218 310.307 69.5781 310.484 69.5781V70.2201ZM307.434 69.5781C307.611 69.5781 307.755 69.7218 307.755 69.8991C307.755 70.0764 307.611 70.2201 307.434 70.2201V69.5781ZM304.384 70.2201C304.207 70.2201 304.063 70.0764 304.063 69.8991C304.063 69.7218 304.207 69.5781 304.384 69.5781V70.2201ZM301.334 69.5781C301.512 69.5781 301.655 69.7218 301.655 69.8991C301.655 70.0764 301.512 70.2201 301.334 70.2201V69.5781ZM298.284 70.2201C298.108 70.2201 297.963 70.0764 297.963 69.8991C297.963 69.7218 298.108 69.5781 298.284 69.5781V70.2201ZM295.235 69.5781C295.412 69.5781 295.556 69.7218 295.556 69.8991C295.556 70.0764 295.412 70.2201 295.235 70.2201V69.5781ZM292.185 70.2201C292.007 70.2201 291.864 70.0764 291.864 69.8991C291.864 69.7218 292.007 69.5781 292.185 69.5781V70.2201ZM289.135 69.5781C289.312 69.5781 289.456 69.7218 289.456 69.8991C289.456 70.0764 289.312 70.2201 289.135 70.2201V69.5781ZM286.085 70.2201C285.908 70.2201 285.764 70.0764 285.764 69.8991C285.764 69.7218 285.908 69.5781 286.085 69.5781V70.2201ZM283.035 69.5781C283.212 69.5781 283.356 69.7218 283.356 69.8991C283.356 70.0764 283.212 70.2201 283.035 70.2201V69.5781ZM279.985 70.2201C279.808 70.2201 279.664 70.0764 279.664 69.8991C279.664 69.7218 279.808 69.5781 279.985 69.5781V70.2201ZM276.935 69.5781C277.113 69.5781 277.256 69.7218 277.256 69.8991C277.256 70.0764 277.113 70.2201 276.935 70.2201V69.5781ZM273.886 70.2201C273.708 70.2201 273.565 70.0764 273.565 69.8991C273.565 69.7218 273.708 69.5781 273.886 69.5781V70.2201ZM270.836 69.5781C271.013 69.5781 271.157 69.7218 271.157 69.8991C271.157 70.0764 271.013 70.2201 270.836 70.2201V69.5781ZM267.785 70.2201C267.608 70.2201 267.464 70.0764 267.464 69.8991C267.464 69.7218 267.608 69.5781 267.785 69.5781V70.2201ZM264.736 69.5781C264.913 69.5781 265.057 69.7218 265.057 69.8991C265.057 70.0764 264.913 70.2201 264.736 70.2201V69.5781ZM262.106 70.4392C261.941 70.5071 261.753 70.4294 261.686 70.2656C261.618 70.1019 261.695 69.9141 261.859 69.8461L262.106 70.4392ZM259.948 71.7573C260.016 71.5936 260.204 71.5158 260.367 71.5838C260.531 71.6517 260.609 71.8395 260.541 72.0033L259.948 71.7573ZM260.322 74.6872C260.322 74.8645 260.178 75.0082 260.001 75.0082C259.824 75.0082 259.68 74.8645 259.68 74.6872H260.322ZM259.68 77.8436C259.68 77.6663 259.824 77.5226 260.001 77.5226C260.178 77.5226 260.322 77.6663 260.322 77.8436H259.68ZM260.322 80.9999C260.322 81.1772 260.178 81.3209 260.001 81.3209C259.824 81.3209 259.68 81.1772 259.68 80.9999H260.322ZM259.68 84.1563C259.68 83.9791 259.824 83.8354 260.001 83.8354C260.178 83.8354 260.322 83.9791 260.322 84.1563H259.68ZM260.322 87.3127C260.322 87.49 260.178 87.6337 260.001 87.6337C259.824 87.6337 259.68 87.49 259.68 87.3127H260.322ZM259.68 90.469C259.68 90.2918 259.824 90.1481 260.001 90.1481C260.178 90.1481 260.322 90.2918 260.322 90.469H259.68ZM260.322 93.6255C260.322 93.8027 260.178 93.9465 260.001 93.9465C259.824 93.9465 259.68 93.8027 259.68 93.6255H260.322ZM259.68 96.7818C259.68 96.6046 259.824 96.4608 260.001 96.4608C260.178 96.4608 260.322 96.6046 260.322 96.7818H259.68ZM260.322 99.9382C260.322 100.116 260.178 100.259 260.001 100.259C259.824 100.259 259.68 100.116 259.68 99.9382H260.322ZM259.68 103.095C259.68 102.917 259.824 102.774 260.001 102.774C260.178 102.774 260.322 102.917 260.322 103.095H259.68ZM260.322 106.251C260.322 106.428 260.178 106.572 260.001 106.572C259.824 106.572 259.68 106.428 259.68 106.251H260.322ZM259.68 109.407C259.68 109.23 259.824 109.086 260.001 109.086C260.178 109.086 260.322 109.23 260.322 109.407H259.68ZM260.322 112.564C260.322 112.741 260.178 112.885 260.001 112.885C259.824 112.885 259.68 112.741 259.68 112.564H260.322ZM259.68 115.72C259.68 115.543 259.824 115.399 260.001 115.399C260.178 115.399 260.322 115.543 260.322 115.72H259.68ZM260.322 118.876C260.322 119.054 260.178 119.197 260.001 119.197C259.824 119.197 259.68 119.054 259.68 118.876H260.322ZM259.68 122.033C259.68 121.856 259.824 121.712 260.001 121.712C260.178 121.712 260.322 121.856 260.322 122.033H259.68ZM260.322 125.189C260.322 125.367 260.178 125.51 260.001 125.51C259.824 125.51 259.68 125.367 259.68 125.189H260.322ZM259.68 128.345C259.68 128.168 259.824 128.024 260.001 128.024C260.178 128.024 260.322 128.168 260.322 128.345H259.68ZM260.322 131.502C260.322 131.68 260.178 131.823 260.001 131.823C259.824 131.823 259.68 131.68 259.68 131.502H260.322ZM259.68 134.658C259.68 134.481 259.824 134.337 260.001 134.337C260.178 134.337 260.322 134.481 260.322 134.658H259.68ZM260.322 137.814C260.322 137.992 260.178 138.135 260.001 138.135C259.824 138.135 259.68 137.992 259.68 137.814H260.322ZM259.68 140.971C259.68 140.794 259.824 140.65 260.001 140.65C260.178 140.65 260.322 140.794 260.322 140.971H259.68ZM260.322 144.128C260.322 144.305 260.178 144.448 260.001 144.448C259.824 144.448 259.68 144.305 259.68 144.128H260.322ZM259.68 147.284C259.68 147.106 259.824 146.963 260.001 146.963C260.178 146.963 260.322 147.106 260.322 147.284H259.68ZM260.322 150.441C260.322 150.618 260.178 150.762 260.001 150.762C259.824 150.762 259.68 150.618 259.68 150.441H260.322ZM259.68 153.597C259.68 153.419 259.824 153.276 260.001 153.276C260.178 153.276 260.322 153.419 260.322 153.597H259.68ZM260.322 156.753C260.322 156.93 260.178 157.074 260.001 157.074C259.824 157.074 259.68 156.93 259.68 156.753H260.322ZM259.68 159.91C259.68 159.732 259.824 159.589 260.001 159.589C260.178 159.589 260.322 159.732 260.322 159.91H259.68ZM260.322 163.066C260.322 163.243 260.178 163.387 260.001 163.387C259.824 163.387 259.68 163.243 259.68 163.066H260.322ZM259.68 166.222C259.68 166.045 259.824 165.901 260.001 165.901C260.178 165.901 260.322 166.045 260.322 166.222H259.68ZM324.209 70.2201H322.683V69.5781H324.209V70.2201ZM319.634 70.2201H316.584V69.5781H319.634V70.2201ZM313.533 70.2201H310.484V69.5781H313.533V70.2201ZM307.434 70.2201H304.384V69.5781H307.434V70.2201ZM301.334 70.2201H298.284V69.5781H301.334V70.2201ZM295.235 70.2201H292.185V69.5781H295.235V70.2201ZM289.135 70.2201H286.085V69.5781H289.135V70.2201ZM283.035 70.2201H279.985V69.5781H283.035V70.2201ZM276.935 70.2201H273.886V69.5781H276.935V70.2201ZM270.836 70.2201H267.785V69.5781H270.836V70.2201ZM264.736 70.2201H263.211V69.5781H264.736V70.2201ZM263.211 70.2201C262.819 70.2201 262.445 70.2981 262.106 70.4392L261.859 69.8461C262.276 69.6734 262.733 69.5781 263.211 69.5781V70.2201ZM260.541 72.0033C260.4 72.3434 260.322 72.7167 260.322 73.109H259.68C259.68 72.6308 259.775 72.1741 259.948 71.7573L260.541 72.0033ZM260.322 73.109V74.6872H259.68V73.109H260.322ZM260.322 77.8436V80.9999H259.68V77.8436H260.322ZM260.322 84.1563V87.3127H259.68V84.1563H260.322ZM260.322 90.469V93.6255H259.68V90.469H260.322ZM260.322 96.7818V99.9382H259.68V96.7818H260.322ZM260.322 103.095V106.251H259.68V103.095H260.322ZM260.322 109.407V112.564H259.68V109.407H260.322ZM260.322 115.72V118.876H259.68V115.72H260.322ZM260.322 122.033V125.189H259.68V122.033H260.322ZM260.322 128.345V131.502H259.68V128.345H260.322ZM260.322 134.658V137.814H259.68V134.658H260.322ZM260.322 140.971V144.128H259.68V140.971H260.322ZM260.322 147.284V150.441H259.68V147.284H260.322ZM260.322 153.597V156.753H259.68V153.597H260.322ZM260.322 159.91V163.066H259.68V159.91H260.322ZM260.322 166.222V167.8H259.68V166.222H260.322Z" fill="#BAD2B5"/>
<path d="M260.322 167.801C260.322 167.624 260.178 167.48 260.001 167.48C259.823 167.48 259.68 167.624 259.68 167.801H260.322ZM323.456 266.184C323.279 266.184 323.135 266.328 323.135 266.505C323.135 266.683 323.279 266.826 323.456 266.826V266.184ZM320.366 266.826C320.544 266.826 320.687 266.683 320.687 266.505C320.687 266.328 320.544 266.184 320.366 266.184V266.826ZM317.277 266.184C317.1 266.184 316.956 266.328 316.956 266.505C316.956 266.683 317.1 266.826 317.277 266.826V266.184ZM314.187 266.826C314.365 266.826 314.508 266.683 314.508 266.505C314.508 266.328 314.365 266.184 314.187 266.184V266.826ZM311.098 266.184C310.921 266.184 310.777 266.328 310.777 266.505C310.777 266.683 310.921 266.826 311.098 266.826V266.184ZM308.008 266.826C308.186 266.826 308.329 266.683 308.329 266.505C308.329 266.328 308.186 266.184 308.008 266.184V266.826ZM304.919 266.184C304.742 266.184 304.598 266.328 304.598 266.505C304.598 266.683 304.742 266.826 304.919 266.826V266.184ZM301.829 266.826C302.007 266.826 302.15 266.683 302.15 266.505C302.15 266.328 302.007 266.184 301.829 266.184V266.826ZM298.74 266.184C298.563 266.184 298.419 266.328 298.419 266.505C298.419 266.683 298.563 266.826 298.74 266.826V266.184ZM295.65 266.826C295.828 266.826 295.971 266.683 295.971 266.505C295.971 266.328 295.828 266.184 295.65 266.184V266.826ZM292.561 266.184C292.384 266.184 292.24 266.328 292.24 266.505C292.24 266.683 292.384 266.826 292.561 266.826V266.184ZM289.471 266.826C289.649 266.826 289.792 266.683 289.792 266.505C289.792 266.328 289.649 266.184 289.471 266.184V266.826ZM286.382 266.184C286.204 266.184 286.061 266.328 286.061 266.505C286.061 266.683 286.204 266.826 286.382 266.826V266.184ZM283.292 266.826C283.47 266.826 283.613 266.683 283.613 266.505C283.613 266.328 283.47 266.184 283.292 266.184V266.826ZM280.203 266.184C280.025 266.184 279.882 266.328 279.882 266.505C279.882 266.683 280.025 266.826 280.203 266.826V266.184ZM277.113 266.826C277.291 266.826 277.434 266.683 277.434 266.505C277.434 266.328 277.291 266.184 277.113 266.184V266.826ZM274.024 266.184C273.846 266.184 273.703 266.328 273.703 266.505C273.703 266.683 273.846 266.826 274.024 266.826V266.184ZM270.934 266.826C271.112 266.826 271.255 266.683 271.255 266.505C271.255 266.328 271.112 266.184 270.934 266.184V266.826ZM267.845 266.184C267.667 266.184 267.524 266.328 267.524 266.505C267.524 266.683 267.667 266.826 267.845 266.826V266.184ZM264.755 266.826C264.933 266.826 265.076 266.683 265.076 266.505C265.076 266.328 264.933 266.184 264.755 266.184V266.826ZM262.105 265.965C261.941 265.897 261.753 265.975 261.685 266.138C261.618 266.302 261.695 266.49 261.859 266.558L262.105 265.965ZM259.948 264.647C260.016 264.81 260.204 264.888 260.367 264.821C260.531 264.753 260.609 264.565 260.541 264.401L259.948 264.647ZM260.322 261.704C260.322 261.527 260.178 261.383 260.001 261.383C259.823 261.383 259.68 261.527 259.68 261.704H260.322ZM259.68 258.521C259.68 258.698 259.823 258.842 260.001 258.842C260.178 258.842 260.322 258.698 260.322 258.521H259.68ZM260.322 255.337C260.322 255.16 260.178 255.016 260.001 255.016C259.823 255.016 259.68 255.16 259.68 255.337H260.322ZM259.68 252.155C259.68 252.332 259.823 252.476 260.001 252.476C260.178 252.476 260.322 252.332 260.322 252.155H259.68ZM260.322 248.971C260.322 248.794 260.178 248.65 260.001 248.65C259.823 248.65 259.68 248.794 259.68 248.971H260.322ZM259.68 245.788C259.68 245.965 259.823 246.109 260.001 246.109C260.178 246.109 260.322 245.965 260.322 245.788H259.68ZM260.322 242.605C260.322 242.428 260.178 242.284 260.001 242.284C259.823 242.284 259.68 242.428 259.68 242.605H260.322ZM259.68 239.422C259.68 239.599 259.823 239.743 260.001 239.743C260.178 239.743 260.322 239.599 260.322 239.422H259.68ZM260.322 236.238C260.322 236.061 260.178 235.917 260.001 235.917C259.823 235.917 259.68 236.061 259.68 236.238H260.322ZM259.68 233.056C259.68 233.233 259.823 233.377 260.001 233.377C260.178 233.377 260.322 233.233 260.322 233.056H259.68ZM260.322 229.872C260.322 229.695 260.178 229.551 260.001 229.551C259.823 229.551 259.68 229.695 259.68 229.872H260.322ZM259.68 226.689C259.68 226.866 259.823 227.01 260.001 227.01C260.178 227.01 260.322 226.866 260.322 226.689H259.68ZM260.322 223.506C260.322 223.329 260.178 223.185 260.001 223.185C259.823 223.185 259.68 223.329 259.68 223.506H260.322ZM259.68 220.323C259.68 220.5 259.823 220.644 260.001 220.644C260.178 220.644 260.322 220.5 260.322 220.323H259.68ZM260.322 217.14C260.322 216.962 260.178 216.819 260.001 216.819C259.823 216.819 259.68 216.962 259.68 217.14H260.322ZM259.68 213.957C259.68 214.134 259.823 214.278 260.001 214.278C260.178 214.278 260.322 214.134 260.322 213.957H259.68ZM260.322 210.774C260.322 210.596 260.178 210.453 260.001 210.453C259.823 210.453 259.68 210.596 259.68 210.774H260.322ZM259.68 207.59C259.68 207.768 259.823 207.911 260.001 207.911C260.178 207.911 260.322 207.768 260.322 207.59H259.68ZM260.322 204.408C260.322 204.23 260.178 204.087 260.001 204.087C259.823 204.087 259.68 204.23 259.68 204.408H260.322ZM259.68 201.224C259.68 201.402 259.823 201.545 260.001 201.545C260.178 201.545 260.322 201.402 260.322 201.224H259.68ZM260.322 198.041C260.322 197.864 260.178 197.72 260.001 197.72C259.823 197.72 259.68 197.864 259.68 198.041H260.322ZM259.68 194.858C259.68 195.036 259.823 195.179 260.001 195.179C260.178 195.179 260.322 195.036 260.322 194.858H259.68ZM260.322 191.675C260.322 191.498 260.178 191.354 260.001 191.354C259.823 191.354 259.68 191.498 259.68 191.675H260.322ZM259.68 188.492C259.68 188.669 259.823 188.812 260.001 188.812C260.178 188.812 260.322 188.669 260.322 188.492H259.68ZM260.322 185.309C260.322 185.132 260.178 184.988 260.001 184.988C259.823 184.988 259.68 185.132 259.68 185.309H260.322ZM259.68 182.126C259.68 182.303 259.823 182.447 260.001 182.447C260.178 182.447 260.322 182.303 260.322 182.126H259.68ZM260.322 178.942C260.322 178.765 260.178 178.621 260.001 178.621C259.823 178.621 259.68 178.765 259.68 178.942H260.322ZM259.68 175.76C259.68 175.937 259.823 176.081 260.001 176.081C260.178 176.081 260.322 175.937 260.322 175.76H259.68ZM260.322 172.576C260.322 172.399 260.178 172.255 260.001 172.255C259.823 172.255 259.68 172.399 259.68 172.576H260.322ZM259.68 169.393C259.68 169.57 259.823 169.714 260.001 169.714C260.178 169.714 260.322 169.57 260.322 169.393H259.68ZM325.001 266.184H323.456V266.826H325.001V266.184ZM320.366 266.184H317.277V266.826H320.366V266.184ZM314.187 266.184H311.098V266.826H314.187V266.184ZM308.008 266.184H304.919V266.826H308.008V266.184ZM301.829 266.184H298.74V266.826H301.829V266.184ZM295.65 266.184H292.561V266.826H295.65V266.184ZM289.471 266.184H286.382V266.826H289.471V266.184ZM283.292 266.184H280.203V266.826H283.292V266.184ZM277.113 266.184H274.024V266.826H277.113V266.184ZM270.934 266.184H267.845V266.826H270.934V266.184ZM264.755 266.184H263.211V266.826H264.755V266.184ZM263.211 266.184C262.818 266.184 262.445 266.106 262.105 265.965L261.859 266.558C262.276 266.731 262.732 266.826 263.211 266.826V266.184ZM260.541 264.401C260.4 264.061 260.322 263.688 260.322 263.295H259.68C259.68 263.774 259.775 264.23 259.948 264.647L260.541 264.401ZM260.322 263.295V261.704H259.68V263.295H260.322ZM260.322 258.521V255.337H259.68V258.521H260.322ZM260.322 252.155V248.971H259.68V252.155H260.322ZM260.322 245.788V242.605H259.68V245.788H260.322ZM260.322 239.422V236.238H259.68V239.422H260.322ZM260.322 233.056V229.872H259.68V233.056H260.322ZM260.322 226.689V223.506H259.68V226.689H260.322ZM260.322 220.323V217.14H259.68V220.323H260.322ZM260.322 213.957V210.774H259.68V213.957H260.322ZM260.322 207.59V204.408H259.68V207.59H260.322ZM260.322 201.224V198.041H259.68V201.224H260.322ZM260.322 194.858V191.675H259.68V194.858H260.322ZM260.322 188.492V185.309H259.68V188.492H260.322ZM260.322 182.126V178.942H259.68V182.126H260.322ZM260.322 175.76V172.576H259.68V175.76H260.322ZM260.322 169.393V167.801H259.68V169.393H260.322Z" fill="#BAD2B5"/>
<g opacity="0.8">
<path d="M0 135.305H390" stroke="#DBF4D5" stroke-width="0.401235"/>
<path d="M0 102.535H390" stroke="#DBF4D5" stroke-width="0.401235"/>
<path d="M0 167.801H65.8025" stroke="#DBF4D5" stroke-width="0.401235"/>
<path d="M324.195 167.801H389.998" stroke="#DBF4D5" stroke-width="0.401235"/>
<path d="M0 233.613H390" stroke="#DBF4D5" stroke-width="0.401235"/>
<path d="M130.805 266.508H260.002" stroke="#DBF4D5" stroke-width="0.401235"/>
<path d="M0 200.844H390" stroke="#DBF4D5" stroke-width="0.401235"/>
<path d="M324.195 37V299.407" stroke="#DBF4D5" stroke-width="0.401235"/>
<path d="M260 266.508V299.409" stroke="#DBF4D5" stroke-width="0.401235"/>
<path d="M130.805 266.508V299.409" stroke="#DBF4D5" stroke-width="0.401235"/>
<path d="M260 37V69.9012" stroke="#DBF4D5" stroke-width="0.401235"/>
<path d="M130.805 37V69.9012" stroke="#DBF4D5" stroke-width="0.401235"/>
<path d="M65.8008 37V299.407" stroke="#DBF4D5" stroke-width="0.401235"/>
<path d="M195.406 37V299.407" stroke="#DBF4D5" stroke-width="0.401235"/>
</g>
<path d="M296.112 167.801H233.52" stroke="#BAD2B5" stroke-width="0.641975" stroke-linecap="round" stroke-linejoin="round" stroke-dasharray="3.21 3.21"/>
<path d="M302.531 167.801H233.52" stroke="#7EBB48" stroke-width="0.802469" stroke-dasharray="6.42 192.59"/>
<path d="M325 266.504H263.21C261.437 266.504 260 265.067 260 263.295V171.011C260 169.238 258.563 167.801 256.79 167.801H233.117" stroke="#7EBB48" stroke-width="0.802469" stroke-dasharray="6.42 192.59"/>
<path d="M163.528 167.824H93.7969" stroke="#BAD2B5" stroke-width="0.641975" stroke-linecap="round" stroke-linejoin="round" stroke-dasharray="3.21 3.21"/>
<path d="M171.73 167.801H86.668" stroke="#7EBB48" stroke-width="0.802469" stroke-dasharray="6.42 192.59"/>
<path d="M65.8008 57.8633H127.591C129.364 57.8633 130.801 59.4771 130.801 61.4678V164.197C130.801 166.188 132.238 167.802 134.011 167.802H171.727" stroke="#7EBB48" stroke-width="0.802469" stroke-dasharray="6.42 192.59"/>
<path d="M65 266.504H127.593C129.365 266.504 130.802 265.067 130.802 263.295V171.011C130.802 169.238 132.24 167.801 134.012 167.801H171.728" stroke="#7EBB48" stroke-width="0.802469" stroke-dasharray="6.42 192.59"/>
<path d="M324.209 69.9023H263.211C261.439 69.9023 260.001 71.3395 260.001 73.1122V164.594C260.001 166.366 258.565 167.804 256.791 167.804H226.945" stroke="#7EBB48" stroke-width="0.802469" stroke-dasharray="6.42 192.59"/>
</g>
<g filter="url(#filter0_d_2435_78840)">
<rect x="54.9688" y="146.137" width="42.5309" height="42.5309" rx="12.8395" fill="white"/>
<path d="M76.5208 171.321V173.279C76.5208 174.818 75.9037 175.435 74.3569 175.435H70.4487C68.9101 175.435 68.293 174.818 68.293 173.279V169.371C68.293 167.824 68.9101 167.207 70.4487 167.207H72.4069V169.157C72.4069 170.704 73.024 171.321 74.5626 171.321H76.5208Z" stroke="#1C274C" stroke-width="1.23418" stroke-linecap="round" stroke-linejoin="round"/>
<path d="M80.6341 167.204V169.154C80.6341 170.701 80.017 171.318 78.4702 171.318H74.5619C73.0233 171.318 72.4062 170.701 72.4062 169.154V165.246C72.4062 163.707 73.0233 163.09 74.5619 163.09H76.5202V165.04C76.5202 166.587 77.1373 167.204 78.6759 167.204H80.6341Z" stroke="#1C274C" stroke-width="1.23418" stroke-linecap="round" stroke-linejoin="round"/>
<path d="M84.7513 161.132V165.04C84.7513 166.587 84.1342 167.204 82.5874 167.204H78.6791C77.1405 167.204 76.5234 166.587 76.5234 165.04V161.132C76.5234 159.594 77.1405 158.977 78.6791 158.977H82.5874C84.1342 158.977 84.7513 159.594 84.7513 161.132Z" stroke="#1C274C" stroke-width="1.23418" stroke-linecap="round" stroke-linejoin="round"/>
</g>
<g filter="url(#filter1_d_2435_78840)">
<rect x="280.461" y="52.2461" width="42.5309" height="42.5309" rx="12.8395" fill="white"/>
<path d="M305.665 70.332H298.332V77.6654H305.665V70.332Z" stroke="#1C274C" stroke-width="1.2" stroke-linecap="round" stroke-linejoin="round"/>
<path d="M295.582 83.168C297.095 83.168 298.332 81.9305 298.332 80.418V77.668H295.582C294.07 77.668 292.832 78.9055 292.832 80.418C292.832 81.9305 294.07 83.168 295.582 83.168Z" stroke="#1C274C" stroke-width="1.2" stroke-linecap="round" stroke-linejoin="round"/>
<path d="M295.582 70.332H298.332V67.582C298.332 66.0695 297.095 64.832 295.582 64.832C294.07 64.832 292.832 66.0695 292.832 67.582C292.832 69.0945 294.07 70.332 295.582 70.332Z" stroke="#1C274C" stroke-width="1.2" stroke-linecap="round" stroke-linejoin="round"/>
<path d="M305.668 70.332H308.418C309.93 70.332 311.168 69.0945 311.168 67.582C311.168 66.0695 309.93 64.832 308.418 64.832C306.905 64.832 305.668 66.0695 305.668 67.582V70.332Z" stroke="#1C274C" stroke-width="1.2" stroke-linecap="round" stroke-linejoin="round"/>
<path d="M308.418 83.168C309.93 83.168 311.168 81.9305 311.168 80.418C311.168 78.9055 309.93 77.668 308.418 77.668H305.668V80.418C305.668 81.9305 306.905 83.168 308.418 83.168Z" stroke="#1C274C" stroke-width="1.2" stroke-linecap="round" stroke-linejoin="round"/>
</g>
<g clip-path="url(#clip2_2435_78840)">
<rect x="169.699" y="142.125" width="50.5556" height="50.5556" rx="9" fill="url(#paint0_radial_2435_78840)"/>
<g filter="url(#filter2_f_2435_78840)">
<circle cx="194.538" cy="166.983" r="23.7566" fill="#7AAAD7"/>
</g>
<path d="M179.316 168.287H210.187V165.715H178.844L179.316 168.287Z" fill="white"/>
<path d="M193.875 164.591H210.188V164.345L211.583 162.02H193.875V164.591Z" fill="white"/>
<path d="M206.397 158.703L203.733 160.035L203.047 158.32H193.875V160.892H211.875V158.32H206.594L206.397 158.703Z" fill="white"/>
<path d="M206.414 178.649C206.469 178.705 206.535 178.749 206.608 178.778C206.681 178.806 206.759 178.818 206.838 178.813C206.916 178.81 206.992 178.79 207.062 178.755C207.132 178.72 207.194 178.672 207.244 178.611L208.75 176.805H204.57L206.414 178.649Z" fill="white"/>
<path d="M206.607 171.06L209.494 169.41H179.523L179.823 171.039C179.841 171.138 179.886 171.231 179.952 171.307L180.543 171.982H207.528L206.607 171.06Z" fill="white"/>
<path d="M208.654 173.105H181.527L183.777 175.677H185.273L188.572 174.439L189.315 175.677H209.689L210.058 175.234C210.148 175.126 210.194 174.988 210.188 174.848C210.182 174.708 210.123 174.575 210.024 174.476L208.654 173.105Z" fill="white"/>
<path d="M193.921 179.035C193.964 179.136 194.036 179.223 194.128 179.283C194.22 179.344 194.328 179.376 194.438 179.376H197.25C197.399 179.376 197.542 179.317 197.648 179.211L200.055 176.805H192.965L193.921 179.035Z" fill="white"/>
<path d="M211.313 155.188H208.556C208.453 155.188 208.352 155.216 208.264 155.27C208.176 155.323 208.104 155.4 208.057 155.492L207.176 157.196H211.875V155.75C211.875 155.601 211.816 155.458 211.71 155.352C211.605 155.247 211.462 155.188 211.313 155.188Z" fill="white"/>
<path d="M198.111 154.711C198.021 154.655 197.918 154.625 197.812 154.625H193.875V157.196H202.087L198.111 154.711Z" fill="white"/>
<path d="M192.75 154.625H181.5C181.39 154.625 181.282 154.657 181.19 154.718C181.098 154.779 181.026 154.865 180.983 154.966L178.171 161.529C178.127 161.631 178.114 161.743 178.134 161.852L178.637 164.589H192.75V154.625ZM181.781 162.42C181.67 162.42 181.561 162.387 181.469 162.325C181.376 162.263 181.304 162.175 181.261 162.072C181.219 161.97 181.208 161.856 181.229 161.747C181.251 161.638 181.305 161.538 181.383 161.459C181.462 161.381 181.562 161.327 181.671 161.305C181.781 161.284 181.894 161.295 181.996 161.337C182.099 161.38 182.187 161.452 182.249 161.545C182.311 161.637 182.344 161.746 182.344 161.857C182.344 162.006 182.284 162.149 182.179 162.255C182.073 162.36 181.93 162.42 181.781 162.42ZM181.781 160.17C181.67 160.17 181.561 160.137 181.469 160.075C181.376 160.013 181.304 159.925 181.261 159.822C181.219 159.72 181.208 159.606 181.229 159.497C181.251 159.388 181.305 159.288 181.383 159.209C181.462 159.131 181.562 159.077 181.671 159.055C181.781 159.034 181.894 159.045 181.996 159.087C182.099 159.13 182.187 159.202 182.249 159.295C182.311 159.387 182.344 159.496 182.344 159.607C182.344 159.756 182.284 159.899 182.179 160.005C182.073 160.11 181.93 160.17 181.781 160.17ZM181.781 157.92C181.67 157.92 181.561 157.887 181.469 157.825C181.376 157.763 181.304 157.675 181.261 157.572C181.219 157.47 181.208 157.356 181.229 157.247C181.251 157.138 181.305 157.038 181.383 156.959C181.462 156.881 181.562 156.827 181.671 156.805C181.781 156.784 181.894 156.795 181.996 156.837C182.099 156.88 182.187 156.952 182.249 157.045C182.311 157.137 182.344 157.246 182.344 157.357C182.344 157.506 182.284 157.649 182.179 157.755C182.073 157.86 181.93 157.92 181.781 157.92ZM184.594 162.42C184.482 162.42 184.374 162.387 184.281 162.325C184.189 162.263 184.117 162.175 184.074 162.072C184.031 161.97 184.02 161.856 184.042 161.747C184.064 161.638 184.117 161.538 184.196 161.459C184.275 161.381 184.375 161.327 184.484 161.305C184.593 161.284 184.706 161.295 184.809 161.337C184.912 161.38 185 161.452 185.061 161.545C185.123 161.637 185.156 161.746 185.156 161.857C185.156 162.006 185.097 162.149 184.991 162.255C184.886 162.36 184.743 162.42 184.594 162.42ZM184.594 160.17C184.482 160.17 184.374 160.137 184.281 160.075C184.189 160.013 184.117 159.925 184.074 159.822C184.031 159.72 184.02 159.606 184.042 159.497C184.064 159.388 184.117 159.288 184.196 159.209C184.275 159.131 184.375 159.077 184.484 159.055C184.593 159.034 184.706 159.045 184.809 159.087C184.912 159.13 185 159.202 185.061 159.295C185.123 159.387 185.156 159.496 185.156 159.607C185.156 159.756 185.097 159.899 184.991 160.005C184.886 160.11 184.743 160.17 184.594 160.17ZM184.594 157.92C184.482 157.92 184.374 157.887 184.281 157.825C184.189 157.763 184.117 157.675 184.074 157.572C184.031 157.47 184.02 157.356 184.042 157.247C184.064 157.138 184.117 157.038 184.196 156.959C184.275 156.881 184.375 156.827 184.484 156.805C184.593 156.784 184.706 156.795 184.809 156.837C184.912 156.88 185 156.952 185.061 157.045C185.123 157.137 185.156 157.246 185.156 157.357C185.156 157.506 185.097 157.649 184.991 157.755C184.886 157.86 184.743 157.92 184.594 157.92ZM187.406 162.42C187.295 162.42 187.186 162.387 187.094 162.325C187.001 162.263 186.929 162.175 186.886 162.072C186.844 161.97 186.833 161.856 186.854 161.747C186.876 161.638 186.93 161.538 187.008 161.459C187.087 161.381 187.187 161.327 187.296 161.305C187.406 161.284 187.519 161.295 187.621 161.337C187.724 161.38 187.812 161.452 187.874 161.545C187.936 161.637 187.969 161.746 187.969 161.857C187.969 162.006 187.909 162.149 187.804 162.255C187.698 162.36 187.555 162.42 187.406 162.42ZM187.406 160.17C187.295 160.17 187.186 160.137 187.094 160.075C187.001 160.013 186.929 159.925 186.886 159.822C186.844 159.72 186.833 159.606 186.854 159.497C186.876 159.388 186.93 159.288 187.008 159.209C187.087 159.131 187.187 159.077 187.296 159.055C187.406 159.034 187.519 159.045 187.621 159.087C187.724 159.13 187.812 159.202 187.874 159.295C187.936 159.387 187.969 159.496 187.969 159.607C187.969 159.756 187.909 159.899 187.804 160.005C187.698 160.11 187.555 160.17 187.406 160.17ZM187.406 157.92C187.295 157.92 187.186 157.887 187.094 157.825C187.001 157.763 186.929 157.675 186.886 157.572C186.844 157.47 186.833 157.356 186.854 157.247C186.876 157.138 186.93 157.038 187.008 156.959C187.087 156.881 187.187 156.827 187.296 156.805C187.406 156.784 187.519 156.795 187.621 156.837C187.724 156.88 187.812 156.952 187.874 157.045C187.936 157.137 187.969 157.246 187.969 157.357C187.969 157.506 187.909 157.649 187.804 157.755C187.698 157.86 187.555 157.92 187.406 157.92ZM190.219 162.42C190.107 162.42 189.999 162.387 189.906 162.325C189.814 162.263 189.742 162.175 189.699 162.072C189.656 161.97 189.645 161.856 189.667 161.747C189.689 161.638 189.742 161.538 189.821 161.459C189.9 161.381 190 161.327 190.109 161.305C190.218 161.284 190.331 161.295 190.434 161.337C190.537 161.38 190.625 161.452 190.686 161.545C190.748 161.637 190.781 161.746 190.781 161.857C190.781 162.006 190.722 162.149 190.616 162.255C190.511 162.36 190.368 162.42 190.219 162.42ZM190.219 160.17C190.107 160.17 189.999 160.137 189.906 160.075C189.814 160.013 189.742 159.925 189.699 159.822C189.656 159.72 189.645 159.606 189.667 159.497C189.689 159.388 189.742 159.288 189.821 159.209C189.9 159.131 190 159.077 190.109 159.055C190.218 159.034 190.331 159.045 190.434 159.087C190.537 159.13 190.625 159.202 190.686 159.295C190.748 159.387 190.781 159.496 190.781 159.607C190.781 159.756 190.722 159.899 190.616 160.005C190.511 160.11 190.368 160.17 190.219 160.17ZM190.219 157.92C190.107 157.92 189.999 157.887 189.906 157.825C189.814 157.763 189.742 157.675 189.699 157.572C189.656 157.47 189.645 157.356 189.667 157.247C189.689 157.138 189.742 157.038 189.821 156.959C189.9 156.881 190 156.827 190.109 156.805C190.218 156.784 190.331 156.795 190.434 156.837C190.537 156.88 190.625 156.952 190.686 157.045C190.748 157.137 190.781 157.246 190.781 157.357C190.781 157.506 190.722 157.649 190.616 157.755C190.511 157.86 190.368 157.92 190.219 157.92Z" fill="white"/>
</g>
<rect x="170.153" y="142.579" width="49.6483" height="49.6483" rx="8.54636" stroke="url(#paint1_linear_2435_78840)" stroke-width="0.907285"/>
<g clip-path="url(#clip3_2435_78840)">
<rect x="169.699" y="247" width="50.5556" height="50.5556" rx="9" fill="url(#paint2_radial_2435_78840)"/>
<g filter="url(#filter3_f_2435_78840)">
<circle cx="194.538" cy="271.858" r="23.7566" fill="#7AAAD7"/>
</g>
<path d="M186.25 274.5C183.487 274.5 181.25 276.737 181.25 279.5C181.25 282.262 183.487 284.5 186.25 284.5C189.012 284.5 191.25 282.262 191.25 279.5C191.25 276.737 189.012 274.5 186.25 274.5ZM187.5 279.1C187.5 279.862 187.088 280.587 186.438 280.975L185.488 281.55C185.338 281.638 185.175 281.688 185.013 281.688C184.7 281.688 184.387 281.525 184.212 281.238C183.95 280.8 184.088 280.212 184.538 279.95L185.488 279.375C185.575 279.325 185.638 279.213 185.638 279.113V277.95C185.638 277.438 186.063 277.013 186.575 277.013C187.088 277.013 187.513 277.438 187.513 277.95V279.1H187.5Z" fill="white"/>
<path opacity="0.4" d="M207.5 268.25V275.75C207.5 280.125 205 282 201.25 282H190.563C191 281.263 191.25 280.413 191.25 279.5C191.25 276.738 189.012 274.5 186.25 274.5C184.75 274.5 183.412 275.162 182.5 276.2V268.25C182.5 263.875 185 262 188.75 262H201.25C205 262 207.5 263.875 207.5 268.25Z" fill="white"/>
<path d="M195 275.125C196.726 275.125 198.125 273.726 198.125 272C198.125 270.274 196.726 268.875 195 268.875C193.274 268.875 191.875 270.274 191.875 272C191.875 273.726 193.274 275.125 195 275.125Z" fill="white"/>
<path d="M203.125 275.438C202.613 275.438 202.188 275.012 202.188 274.5V269.5C202.188 268.988 202.613 268.562 203.125 268.562C203.638 268.562 204.062 268.988 204.062 269.5V274.5C204.062 275.012 203.638 275.438 203.125 275.438Z" fill="white"/>
</g>
<rect x="170.153" y="247.454" width="49.6483" height="49.6483" rx="8.54636" stroke="url(#paint3_linear_2435_78840)" stroke-width="0.907285"/>
<g clip-path="url(#clip4_2435_78840)">
<rect x="169.699" y="37" width="50.5556" height="50.5556" rx="9" fill="url(#paint4_radial_2435_78840)"/>
<g filter="url(#filter4_f_2435_78840)">
<circle cx="194.538" cy="61.8582" r="23.7566" fill="#7AAAD7"/>
</g>
<path opacity="0.4" d="M192.487 69.475C198.003 69.475 202.475 65.0034 202.475 59.4875C202.475 53.9716 198.003 49.5 192.487 49.5C186.972 49.5 182.5 53.9716 182.5 59.4875C182.5 65.0034 186.972 69.475 192.487 69.475Z" fill="white"/>
<path d="M207.464 66.9891C207.464 71.1141 204.114 74.4641 199.989 74.4641C197.439 74.4641 195.202 73.1891 193.852 71.2516C199.302 70.6391 203.639 66.3016 204.252 60.8516C206.189 62.2016 207.464 64.4391 207.464 66.9891Z" fill="white"/>
<path d="M194.312 59.1367L191.313 58.0867C191.013 57.9867 190.95 57.9617 190.95 57.5242C190.95 57.1992 191.175 56.9367 191.463 56.9367H193.338C193.738 56.9367 194.062 57.2992 194.062 57.7492C194.062 58.2617 194.488 58.6867 195 58.6867C195.512 58.6867 195.938 58.2617 195.938 57.7492C195.938 56.3117 194.825 55.1367 193.438 55.0742V55.0117C193.438 54.4992 193.013 54.0742 192.5 54.0742C191.987 54.0742 191.562 54.4867 191.562 55.0117V55.0742H191.45C190.137 55.0742 189.062 56.1742 189.062 57.5367C189.062 58.7242 189.587 59.4867 190.675 59.8617L193.688 60.9117C193.987 61.0117 194.05 61.0367 194.05 61.4742C194.05 61.7992 193.825 62.0617 193.537 62.0617H191.662C191.262 62.0617 190.938 61.6992 190.938 61.2492C190.938 60.7367 190.513 60.3117 190 60.3117C189.488 60.3117 189.062 60.7367 189.062 61.2492C189.062 62.6867 190.175 63.8617 191.562 63.9242V63.9992C191.562 64.5117 191.987 64.9367 192.5 64.9367C193.013 64.9367 193.438 64.5117 193.438 63.9992V63.9367H193.55C194.863 63.9367 195.938 62.8367 195.938 61.4742C195.938 60.2867 195.4 59.5242 194.312 59.1367Z" fill="white"/>
</g>
<rect x="170.153" y="37.4536" width="49.6483" height="49.6483" rx="8.54636" stroke="url(#paint5_linear_2435_78840)" stroke-width="0.907285"/>
<g filter="url(#filter5_d_2435_78840)">
<rect x="288.891" y="146.137" width="42.5309" height="42.5309" rx="12.8395" fill="white"/>
<path d="M316.667 168.665C317.587 168.665 318.333 167.919 318.333 166.999C318.333 166.078 317.587 165.332 316.667 165.332C315.746 165.332 315 166.078 315 166.999C315 167.919 315.746 168.665 316.667 168.665Z" stroke="#1C274C" stroke-width="1.25" stroke-linecap="round" stroke-linejoin="round"/>
<path d="M316.667 162.001C317.587 162.001 318.333 161.255 318.333 160.335C318.333 159.414 317.587 158.668 316.667 158.668C315.746 158.668 315 159.414 315 160.335C315 161.255 315.746 162.001 316.667 162.001Z" stroke="#1C274C" stroke-width="1.25" stroke-linecap="round" stroke-linejoin="round"/>
<path d="M316.667 175.333C317.587 175.333 318.333 174.587 318.333 173.667C318.333 172.746 317.587 172 316.667 172C315.746 172 315 172.746 315 173.667C315 174.587 315.746 175.333 316.667 175.333Z" stroke="#1C274C" stroke-width="1.25" stroke-linecap="round" stroke-linejoin="round"/>
<path d="M303.335 168.665C304.255 168.665 305.001 167.919 305.001 166.999C305.001 166.078 304.255 165.332 303.335 165.332C302.414 165.332 301.668 166.078 301.668 166.999C301.668 167.919 302.414 168.665 303.335 168.665Z" stroke="#1C274C" stroke-width="1.25" stroke-linecap="round" stroke-linejoin="round"/>
<path d="M305 167H315" stroke="#1C274C" stroke-width="1.25" stroke-linecap="round" stroke-linejoin="round"/>
<path d="M315.001 160.332H311.668C310.001 160.332 309.168 161.165 309.168 162.832V171.165C309.168 172.832 310.001 173.665 311.668 173.665H315.001" stroke="#1C274C" stroke-width="1.25" stroke-linecap="round" stroke-linejoin="round"/>
</g>
</g>
</g>
<defs>
<filter id="filter0_d_2435_78840" x="51.7589" y="146.137" width="48.951" height="48.951" filterUnits="userSpaceOnUse" color-interpolation-filters="sRGB">
<feFlood flood-opacity="0" result="BackgroundImageFix"/>
<feColorMatrix in="SourceAlpha" type="matrix" values="0 0 0 0 0 0 0 0 0 0 0 0 0 0 0 0 0 0 127 0" result="hardAlpha"/>
<feOffset dy="3.20988"/>
<feGaussianBlur stdDeviation="1.60494"/>
<feComposite in2="hardAlpha" operator="out"/>
<feColorMatrix type="matrix" values="0 0 0 0 0.713381 0 0 0 0 0.713381 0 0 0 0 0.713381 0 0 0 0.25 0"/>
<feBlend mode="normal" in2="BackgroundImageFix" result="effect1_dropShadow_2435_78840"/>
<feBlend mode="normal" in="SourceGraphic" in2="effect1_dropShadow_2435_78840" result="shape"/>
</filter>
<filter id="filter1_d_2435_78840" x="277.251" y="52.2461" width="48.951" height="48.951" filterUnits="userSpaceOnUse" color-interpolation-filters="sRGB">
<feFlood flood-opacity="0" result="BackgroundImageFix"/>
<feColorMatrix in="SourceAlpha" type="matrix" values="0 0 0 0 0 0 0 0 0 0 0 0 0 0 0 0 0 0 127 0" result="hardAlpha"/>
<feOffset dy="3.20988"/>
<feGaussianBlur stdDeviation="1.60494"/>
<feComposite in2="hardAlpha" operator="out"/>
<feColorMatrix type="matrix" values="0 0 0 0 0.713381 0 0 0 0 0.713381 0 0 0 0 0.713381 0 0 0 0.25 0"/>
<feBlend mode="normal" in2="BackgroundImageFix" result="effect1_dropShadow_2435_78840"/>
<feBlend mode="normal" in="SourceGraphic" in2="effect1_dropShadow_2435_78840" result="shape"/>
</filter>
<filter id="filter2_f_2435_78840" x="154.058" y="126.503" width="80.9579" height="80.9579" filterUnits="userSpaceOnUse" color-interpolation-filters="sRGB">
<feFlood flood-opacity="0" result="BackgroundImageFix"/>
<feBlend mode="normal" in="SourceGraphic" in2="BackgroundImageFix" result="shape"/>
<feGaussianBlur stdDeviation="8.36155" result="effect1_foregroundBlur_2435_78840"/>
</filter>
<filter id="filter3_f_2435_78840" x="154.058" y="231.378" width="80.9579" height="80.9579" filterUnits="userSpaceOnUse" color-interpolation-filters="sRGB">
<feFlood flood-opacity="0" result="BackgroundImageFix"/>
<feBlend mode="normal" in="SourceGraphic" in2="BackgroundImageFix" result="shape"/>
<feGaussianBlur stdDeviation="8.36155" result="effect1_foregroundBlur_2435_78840"/>
</filter>
<filter id="filter4_f_2435_78840" x="154.058" y="21.3785" width="80.9579" height="80.9579" filterUnits="userSpaceOnUse" color-interpolation-filters="sRGB">
<feFlood flood-opacity="0" result="BackgroundImageFix"/>
<feBlend mode="normal" in="SourceGraphic" in2="BackgroundImageFix" result="shape"/>
<feGaussianBlur stdDeviation="8.36155" result="effect1_foregroundBlur_2435_78840"/>
</filter>
<filter id="filter5_d_2435_78840" x="285.681" y="146.137" width="48.951" height="48.951" filterUnits="userSpaceOnUse" color-interpolation-filters="sRGB">
<feFlood flood-opacity="0" result="BackgroundImageFix"/>
<feColorMatrix in="SourceAlpha" type="matrix" values="0 0 0 0 0 0 0 0 0 0 0 0 0 0 0 0 0 0 127 0" result="hardAlpha"/>
<feOffset dy="3.20988"/>
<feGaussianBlur stdDeviation="1.60494"/>
<feComposite in2="hardAlpha" operator="out"/>
<feColorMatrix type="matrix" values="0 0 0 0 0.713381 0 0 0 0 0.713381 0 0 0 0 0.713381 0 0 0 0.25 0"/>
<feBlend mode="normal" in2="BackgroundImageFix" result="effect1_dropShadow_2435_78840"/>
<feBlend mode="normal" in="SourceGraphic" in2="effect1_dropShadow_2435_78840" result="shape"/>
</filter>
<radialGradient id="paint0_radial_2435_78840" cx="0" cy="0" r="1" gradientUnits="userSpaceOnUse" gradientTransform="translate(194.669 167.332) rotate(-110.556) scale(42.5078)">
<stop stop-color="#7AAAD7"/>
<stop offset="0.23" stop-color="#7AAAD7" stop-opacity="0.84"/>
<stop offset="0.785183" stop-color="#7A80FB"/>
<stop offset="1" stop-color="#7A80FB"/>
</radialGradient>
<linearGradient id="paint1_linear_2435_78840" x1="170.427" y1="147.542" x2="220.609" y2="148.284" gradientUnits="userSpaceOnUse">
<stop stop-color="#558F21" stop-opacity="0.05"/>
<stop offset="0.480607" stop-color="#558F21" stop-opacity="0.3"/>
<stop offset="1" stop-color="#558F21" stop-opacity="0.05"/>
</linearGradient>
<radialGradient id="paint2_radial_2435_78840" cx="0" cy="0" r="1" gradientUnits="userSpaceOnUse" gradientTransform="translate(194.669 272.207) rotate(-110.556) scale(42.5078)">
<stop stop-color="#7AAAD7"/>
<stop offset="0.23" stop-color="#7AAAD7" stop-opacity="0.84"/>
<stop offset="0.785183" stop-color="#7A80FB"/>
<stop offset="1" stop-color="#7A80FB"/>
</radialGradient>
<linearGradient id="paint3_linear_2435_78840" x1="170.427" y1="252.417" x2="220.609" y2="253.159" gradientUnits="userSpaceOnUse">
<stop stop-color="#558F21" stop-opacity="0.05"/>
<stop offset="0.480607" stop-color="#558F21" stop-opacity="0.3"/>
<stop offset="1" stop-color="#558F21" stop-opacity="0.05"/>
</linearGradient>
<radialGradient id="paint4_radial_2435_78840" cx="0" cy="0" r="1" gradientUnits="userSpaceOnUse" gradientTransform="translate(194.669 62.2075) rotate(-110.556) scale(42.5078)">
<stop stop-color="#7AAAD7"/>
<stop offset="0.23" stop-color="#7AAAD7" stop-opacity="0.84"/>
<stop offset="0.785183" stop-color="#7A80FB"/>
<stop offset="1" stop-color="#7A80FB"/>
</radialGradient>
<linearGradient id="paint5_linear_2435_78840" x1="170.427" y1="42.4167" x2="220.609" y2="43.1591" gradientUnits="userSpaceOnUse">
<stop stop-color="#558F21" stop-opacity="0.05"/>
<stop offset="0.480607" stop-color="#558F21" stop-opacity="0.3"/>
<stop offset="1" stop-color="#558F21" stop-opacity="0.05"/>
</linearGradient>
<clipPath id="clip0_2435_78840">
<rect width="390" height="369" fill="white"/>
</clipPath>
<clipPath id="clip1_2435_78840">
<rect width="390" height="294.506" fill="white" transform="translate(0 37)"/>
</clipPath>
<clipPath id="clip2_2435_78840">
<rect x="169.699" y="142.125" width="50.5556" height="50.5556" rx="9" fill="white"/>
</clipPath>
<clipPath id="clip3_2435_78840">
<rect x="169.699" y="247" width="50.5556" height="50.5556" rx="9" fill="white"/>
</clipPath>
<clipPath id="clip4_2435_78840">
<rect x="169.699" y="37" width="50.5556" height="50.5556" rx="9" fill="white"/>
</clipPath>
</defs>
</svg>
