<svg width="390" height="369" viewBox="0 0 390 369" fill="none" xmlns="http://www.w3.org/2000/svg">
<g clip-path="url(#clip0_2435_78516)">
<rect width="390" height="369" rx="16" fill="#F5F5F5"/>
<rect x="293.816" y="166.816" width="199.369" height="315.369" rx="29.5744" fill="url(#paint0_linear_2435_78516)" fill-opacity="0.15"/>
<rect x="293.816" y="166.816" width="199.369" height="315.369" rx="29.5744" stroke="#E4E4E7" stroke-width="1.63116"/>
<rect x="-103.184" y="166.816" width="199.369" height="315.369" rx="29.5744" fill="url(#paint1_linear_2435_78516)" fill-opacity="0.15"/>
<rect x="-103.184" y="166.816" width="199.369" height="315.369" rx="29.5744" stroke="#E4E4E7" stroke-width="1.63116"/>
<rect x="35.8156" y="-70.1844" width="318.369" height="158.369" rx="29.5744" fill="url(#paint2_linear_2435_78516)" fill-opacity="0.15"/>
<rect x="35.8156" y="-70.1844" width="318.369" height="158.369" rx="29.5744" stroke="#E4E4E7" stroke-width="1.63116"/>
<g filter="url(#filter0_d_2435_78516)">
<rect x="52" y="108" width="287" height="154" rx="13" fill="white"/>
<rect x="52.5" y="108.5" width="286" height="153" rx="12.5" stroke="#EAEAEA"/>
</g>
<rect x="60.21" y="116.21" width="270.58" height="137.58" rx="6.78998" fill="url(#paint3_radial_2435_78516)" stroke="url(#paint4_linear_2435_78516)" stroke-width="0.420039"/>
<g clip-path="url(#clip1_2435_78516)">
<path d="M217.613 182.82H222.503C227.579 182.82 230.98 186.541 230.98 191.447C230.98 196.285 227.487 200.028 222.481 200.028H217.613V182.82ZM221.036 197.107H221.596C225.81 197.107 227.44 194.824 227.44 191.424C227.44 187.681 225.484 185.741 221.596 185.741H221.036V197.107Z" fill="white"/>
<path d="M245.067 187.383C244.112 186.241 242.668 185.557 241.201 185.557C237.919 185.557 236.031 188.524 236.031 191.491C236.031 194.389 237.987 197.287 241.178 197.287C242.645 197.287 244.112 196.534 245.067 195.462V199.456C243.786 200.048 242.505 200.482 241.085 200.482C236.147 200.482 232.492 196.306 232.492 191.56C232.492 186.676 236.009 182.363 241.155 182.363C242.529 182.363 243.879 182.728 245.067 183.367V187.383Z" fill="white"/>
<path d="M256.059 186.607C255.407 185.74 254.568 185.192 253.427 185.192C252.332 185.192 251.285 186.014 251.285 187.132C251.285 190.03 258.247 188.821 258.247 194.595C258.247 198.04 256.059 200.482 252.472 200.482C250.051 200.482 248.281 199.113 247.07 197.128L249.283 195.005C249.749 196.329 250.983 197.516 252.449 197.516C253.847 197.516 254.709 196.352 254.709 195.028C254.709 193.248 253.032 192.747 251.659 192.221C249.4 191.309 247.747 190.191 247.747 187.521C247.747 184.668 249.913 182.363 252.87 182.363C254.43 182.363 256.596 183.116 257.666 184.28L256.059 186.607Z" fill="white"/>
<path d="M157.175 187.326C155.558 185.599 153.611 184.626 151.187 184.626C147.182 184.626 144.169 187.975 144.169 191.755C144.169 195.536 147.145 198.957 151.15 198.957C153.574 198.957 155.852 197.804 157.395 195.969V198.164C155.668 199.64 153.501 200.469 151.223 200.469C146.189 200.469 142.516 196.616 142.516 191.755C142.516 186.931 146.263 183.113 151.259 183.113C153.464 183.113 155.484 183.762 157.174 185.166L157.175 187.326Z" fill="white"/>
<path d="M163.751 177.929C163.751 178.758 163.089 179.405 162.245 179.405C161.4 179.405 160.738 178.757 160.738 177.929C160.738 177.137 161.4 176.453 162.245 176.453C163.089 176.453 163.751 177.137 163.751 177.929ZM163.052 200.109H161.399V183.474H163.052V200.109Z" fill="white"/>
<path d="M170.107 185.634H170.18C170.841 184.121 172.054 183.113 173.854 183.113C174.516 183.113 175.067 183.257 175.655 183.51L174.773 184.95C174.369 184.734 174.038 184.626 173.597 184.626C169.887 184.626 170.107 189.162 170.107 191.611V200.108H168.453V183.473H170.107V185.634Z" fill="white"/>
<path d="M179.404 185.634H179.477C180.138 184.121 181.351 183.113 183.151 183.113C183.813 183.113 184.364 183.257 184.951 183.51L184.07 184.95C183.666 184.734 183.335 184.626 182.894 184.626C179.184 184.626 179.404 189.162 179.404 191.611V200.108H177.75V183.473H179.404V185.634Z" fill="white"/>
<path d="M198.986 183.473V193.446C198.986 195.139 199.023 196.831 197.958 198.235C196.782 199.747 194.799 200.468 192.888 200.468C190.977 200.468 188.994 199.747 187.817 198.235C186.752 196.831 186.789 195.139 186.789 193.446V183.473H188.443V192.871C188.443 196.075 188.81 198.956 192.888 198.956C196.966 198.956 197.333 196.075 197.333 192.871V183.473H198.986Z" fill="white"/>
<path d="M210.595 186.498C210.044 185.345 208.942 184.626 207.62 184.626C206.187 184.626 204.718 185.778 204.718 187.218C204.718 191.215 212.983 189.27 212.983 195.283C212.983 198.344 210.559 200.469 207.509 200.469C204.681 200.469 202.365 198.776 201.668 196.075L203.284 195.571C203.908 197.552 205.268 198.957 207.509 198.957C209.641 198.957 211.329 197.3 211.329 195.211C211.329 193.159 209.713 192.511 208.024 191.934C205.709 191.107 203.064 190.135 203.064 187.326C203.064 184.806 205.231 183.113 207.693 183.113C209.42 183.113 211.293 184.229 212.028 185.778L210.595 186.498Z" fill="white"/>
<path d="M145.172 206.383H146.499C148.464 206.383 150.097 207.4 150.097 209.492C150.097 211.636 148.498 212.669 146.473 212.669H145.172V206.383ZM145.971 211.952H146.252C147.884 211.952 149.297 211.352 149.297 209.526C149.297 207.692 147.885 207.1 146.252 207.1H145.971V211.952Z" fill="white"/>
<path d="M151.974 211.094L151.242 212.67H150.383L153.445 206.117L156.508 212.67H155.648L154.917 211.094H151.974ZM153.445 207.835L152.305 210.378H154.585L153.445 207.835Z" fill="white"/>
<path d="M158.26 212.668H157.46V207.099H155.938V206.383H159.782V207.099H158.26V212.668Z" fill="white"/>
<path d="M160.81 211.094L160.078 212.67H159.219L162.281 206.117L165.343 212.67H164.484L163.752 211.094H160.81ZM162.281 207.835L161.141 210.378H163.421L162.281 207.835Z" fill="white"/>
<path d="M173.339 207.584C172.88 207.184 172.251 206.967 171.647 206.967C170.21 206.967 169.112 208.143 169.112 209.535C169.112 210.911 170.201 212.085 171.63 212.085C172.26 212.085 172.863 211.851 173.339 211.435V212.361C172.846 212.644 172.217 212.803 171.655 212.803C169.826 212.803 168.312 211.377 168.312 209.56C168.312 207.7 169.835 206.25 171.723 206.25C172.285 206.25 172.855 206.383 173.339 206.675V207.584Z" fill="white"/>
<path d="M180.727 209.526C180.727 211.394 179.222 212.803 177.367 212.803C175.513 212.803 174.008 211.394 174.008 209.526C174.008 207.725 175.53 206.25 177.367 206.25C179.205 206.251 180.727 207.725 180.727 209.526ZM179.927 209.526C179.927 208.143 178.872 206.984 177.367 206.984C175.861 206.984 174.806 208.143 174.806 209.526C174.806 210.96 175.98 212.068 177.367 212.068C178.753 212.068 179.927 210.961 179.927 209.526Z" fill="white"/>
<path d="M182.467 211.952H184.415V212.669H181.668V206.383H182.467V211.952Z" fill="white"/>
<path d="M185.912 211.952H187.86V212.669H185.113V206.383H185.912V211.952Z" fill="white"/>
<path d="M188.555 206.383H192V207.099H189.354V208.859H191.923V209.575H189.354V211.951H192V212.668H188.555V206.383Z" fill="white"/>
<path d="M197.824 207.584C197.365 207.184 196.735 206.967 196.131 206.967C194.694 206.967 193.597 208.143 193.597 209.535C193.597 210.911 194.685 212.085 196.114 212.085C196.744 212.085 197.348 211.851 197.824 211.435V212.361C197.331 212.644 196.701 212.803 196.14 212.803C194.311 212.803 192.797 211.377 192.797 209.56C192.797 207.7 194.32 206.25 196.208 206.25C196.77 206.25 197.339 206.383 197.824 206.675V207.584Z" fill="white"/>
<path d="M200.67 212.668H199.869V207.099H198.348V206.383H202.192V207.099H200.67V212.668Z" fill="white"/>
<path d="M203.764 212.669H202.965V206.383H203.764V212.669Z" fill="white"/>
<path d="M211.403 209.526C211.403 211.394 209.897 212.803 208.044 212.803C206.188 212.803 204.684 211.394 204.684 209.526C204.684 207.725 206.207 206.25 208.044 206.25C209.88 206.25 211.403 207.725 211.403 209.526ZM210.604 209.526C210.604 208.143 209.548 206.984 208.043 206.984C206.537 206.984 205.482 208.143 205.482 209.526C205.482 210.96 206.657 212.068 208.043 212.068C209.429 212.068 210.604 210.961 210.604 209.526Z" fill="white"/>
<path d="M212.266 206.082L217.08 211.026V206.383H217.879V212.926L213.065 207.983V212.668H212.266V206.082Z" fill="white"/>
<path d="M224.659 207.575C224.421 207.183 224.115 206.983 223.63 206.983C223.12 206.983 222.558 207.325 222.558 207.875C222.558 208.366 223.051 208.626 223.451 208.776L223.911 208.95C224.821 209.301 225.502 209.793 225.502 210.843C225.502 211.985 224.6 212.803 223.451 212.803C222.413 212.803 221.605 212.051 221.469 211.043L222.278 210.877C222.268 211.568 222.83 212.069 223.519 212.069C224.209 212.069 224.702 211.502 224.702 210.843C224.702 210.168 224.148 209.876 223.595 209.651L223.153 209.467C222.422 209.159 221.758 208.75 221.758 207.875C221.758 206.858 222.677 206.25 223.646 206.25C224.361 206.25 224.948 206.592 225.297 207.2L224.659 207.575Z" fill="white"/>
<path d="M226.547 206.383H229.991V207.099H227.347V208.859H229.915V209.575H227.347V211.951H229.991V212.668H226.547V206.383Z" fill="white"/>
<path d="M235.137 212.669H234.168L232.279 210.009H231.948V212.669H231.148V206.383H232.118C232.688 206.383 233.3 206.391 233.81 206.674C234.346 206.983 234.652 207.575 234.652 208.175C234.652 209.076 234.04 209.826 233.113 209.934L235.137 212.669ZM231.948 209.359H232.203C233.019 209.359 233.904 209.209 233.904 208.208C233.904 207.225 232.951 207.083 232.16 207.083H231.948V209.359Z" fill="white"/>
<path d="M238.051 211.034L239.956 206.383H240.833L238.051 213.002L235.262 206.383H236.137L238.051 211.034Z" fill="white"/>
<path d="M242.315 212.669H241.516V206.383H242.315V212.669Z" fill="white"/>
<path d="M248.355 207.584C247.896 207.184 247.266 206.967 246.663 206.967C245.225 206.967 244.128 208.143 244.128 209.535C244.128 210.911 245.217 212.085 246.646 212.085C247.275 212.085 247.879 211.851 248.354 211.435V212.361C247.862 212.644 247.232 212.803 246.67 212.803C244.843 212.803 243.328 211.377 243.328 209.56C243.328 207.7 244.851 206.25 246.739 206.25C247.3 206.25 247.87 206.383 248.354 206.675V207.584H248.355Z" fill="white"/>
<path d="M249.477 206.383H252.921V207.099H250.276V208.859H252.845V209.575H250.276V211.951H252.921V212.668H249.477V206.383Z" fill="white"/>
<path d="M256.924 207.575C256.685 207.183 256.38 206.983 255.894 206.983C255.384 206.983 254.823 207.325 254.823 207.875C254.823 208.366 255.316 208.626 255.716 208.776L256.176 208.95C257.085 209.301 257.766 209.793 257.766 210.843C257.766 211.985 256.865 212.803 255.716 212.803C254.679 212.803 253.871 212.051 253.734 211.043L254.542 210.877C254.534 211.568 255.095 212.069 255.784 212.069C256.473 212.069 256.966 211.502 256.966 210.843C256.966 210.168 256.414 209.876 255.861 209.651L255.418 209.467C254.687 209.159 254.023 208.75 254.023 207.875C254.023 206.858 254.942 206.25 255.911 206.25C256.625 206.25 257.213 206.592 257.561 207.2L256.924 207.575Z" fill="white"/>
<path d="M263 185.604L262.863 183.839L262.796 182.957L262.642 182.088L262.326 180.357L261.848 178.661L261.606 177.815L261.283 176.996C261.062 176.452 260.861 175.901 260.627 175.364C260.069 174.33 259.607 173.249 258.922 172.289C258.593 171.804 258.311 171.287 257.943 170.83L256.849 169.452L256.577 169.108L256.27 168.79L255.66 168.157C255.247 167.739 254.865 167.293 254.401 166.929L253.071 165.779C252.614 165.411 252.121 165.089 251.649 164.742L250.933 164.23C250.684 164.074 250.426 163.933 250.173 163.783L248.646 162.904L247.044 162.171C246.775 162.055 246.517 161.911 246.237 161.818L245.404 161.53C244.845 161.349 244.301 161.123 243.733 160.977L242.018 160.566C241.453 160.403 240.864 160.355 240.283 160.269C239.7 160.202 239.123 160.077 238.536 160.058L236.776 159.991L236.337 159.974C236.274 159.973 236.166 159.964 236.141 159.969L235.915 159.98L235.014 160.023L234.115 160.07L233.255 160.176C232.681 160.241 232.108 160.31 231.534 160.44C230.382 160.641 229.253 160.953 228.143 161.308C227.597 161.508 227.033 161.667 226.498 161.899C225.966 162.134 225.422 162.343 224.898 162.597C224.383 162.866 223.86 163.122 223.35 163.399L221.861 164.301L221.272 164.658L220.804 164.163C219.802 163.101 218.775 162.058 217.647 161.123C216.547 160.158 215.348 159.309 214.135 158.489C212.896 157.706 211.638 156.951 210.31 156.32L209.317 155.843L208.302 155.416C207.631 155.115 206.93 154.892 206.24 154.637C205.545 154.396 204.835 154.202 204.131 153.99C203.414 153.827 202.707 153.619 201.982 153.491C201.259 153.357 200.539 153.204 199.806 153.124L198.711 152.979L197.61 152.892C196.877 152.816 196.139 152.816 195.403 152.795C195.234 152.792 195.001 152.782 194.884 152.785L194.318 152.807L193.184 152.848C192.809 152.866 192.425 152.868 192.057 152.898L190.974 153.023C190.253 153.112 189.531 153.16 188.808 153.324C188.087 153.473 187.357 153.58 186.645 153.761L184.515 154.339C183.818 154.567 183.129 154.825 182.434 155.066C182.085 155.179 181.745 155.32 181.412 155.475L180.404 155.919C179.722 156.195 179.077 156.547 178.433 156.895L177.461 157.412C177.14 157.589 176.839 157.799 176.526 157.99C175.266 158.742 174.09 159.617 172.931 160.511L171.262 161.936L169.7 163.474C169.175 163.983 168.729 164.564 168.239 165.105C167.741 165.64 167.325 166.24 166.885 166.822L166.229 167.698L165.642 168.619C165.255 169.236 164.837 169.835 164.516 170.49C164.182 171.135 163.794 171.757 163.5 172.421L162.606 174.413L162.241 175.227L161.509 174.731L160.377 173.963C159.995 173.716 159.588 173.504 159.195 173.272C158.806 173.031 158.374 172.868 157.967 172.662C157.56 172.451 157.127 172.299 156.698 172.134L156.055 171.888L155.395 171.692C154.953 171.564 154.517 171.417 154.063 171.336C153.612 171.25 153.166 171.124 152.709 171.07L151.336 170.892L149.953 170.821L149.78 170.812C149.764 170.811 149.694 170.808 149.722 170.809L149.633 170.812L149.277 170.826L148.565 170.853C147.595 170.849 146.72 171.029 145.809 171.141C145.357 171.216 144.909 171.348 144.458 171.448L143.783 171.61C143.559 171.67 143.344 171.757 143.125 171.829L141.814 172.285L140.552 172.864C140.123 173.041 139.725 173.274 139.324 173.506C138.93 173.746 138.503 173.942 138.132 174.217L136.997 175.016C136.613 175.277 136.286 175.608 135.927 175.9C135.193 176.471 134.601 177.186 133.947 177.843C133.386 178.576 132.757 179.266 132.289 180.066C132.05 180.461 131.76 180.829 131.561 181.247L130.925 182.481C130.706 182.89 130.572 183.335 130.391 183.761C130.219 184.191 130.038 184.618 129.93 185.069L129.543 186.406C129.446 186.858 129.373 187.316 129.287 187.773L129.162 188.459L129.107 189.154L129 190.546L129.036 189.149L129.056 188.449L129.146 187.755C129.21 187.292 129.259 186.825 129.335 186.364L129.657 184.994C129.749 184.533 129.915 184.092 130.072 183.649C130.239 183.21 130.361 182.751 130.567 182.326L131.167 181.044C131.356 180.61 131.635 180.224 131.865 179.81C132.314 178.973 132.93 178.242 133.48 177.466C134.125 176.766 134.711 176.006 135.444 175.385C135.802 175.069 136.13 174.716 136.517 174.43L137.664 173.557C138.041 173.257 138.472 173.036 138.876 172.772C139.285 172.517 139.69 172.252 140.135 172.058L141.44 171.424L142.803 170.916C143.032 170.835 143.256 170.739 143.488 170.67L144.193 170.484C144.665 170.368 145.127 170.221 145.609 170.129C146.579 169.982 147.571 169.775 148.507 169.76L149.218 169.718L149.574 169.696L149.662 169.691C149.749 169.687 149.739 169.691 149.781 169.691L149.965 169.696L151.428 169.738L152.886 169.894C153.373 169.941 153.847 170.063 154.33 170.144C154.814 170.22 155.282 170.364 155.755 170.49L156.462 170.684L157.153 170.931C157.614 171.095 158.079 171.25 158.519 171.463C158.96 171.673 159.423 171.839 159.846 172.086C160.272 172.324 160.712 172.542 161.127 172.797L162.357 173.592L161.26 173.909L162.142 171.812C162.436 171.112 162.82 170.453 163.158 169.773C163.488 169.087 163.914 168.455 164.311 167.805L164.915 166.835L165.588 165.911C166.041 165.298 166.47 164.666 166.984 164.098C167.489 163.526 167.951 162.913 168.494 162.374L170.111 160.743L171.843 159.229C173.047 158.279 174.269 157.34 175.589 156.544C175.916 156.342 176.233 156.122 176.569 155.934L177.587 155.385C178.264 155.016 178.941 154.646 179.656 154.352L180.715 153.88C181.064 153.717 181.42 153.568 181.788 153.446C182.517 153.189 183.241 152.915 183.975 152.673L186.214 152.056C186.963 151.863 187.731 151.746 188.489 151.588C189.24 151.415 190.03 151.354 190.807 151.257L191.977 151.122C192.361 151.09 192.733 151.087 193.112 151.068L194.245 151.022L194.812 151.001C195.073 150.996 195.218 151.009 195.426 151.012C196.201 151.037 196.977 151.042 197.748 151.123L198.907 151.219L200.058 151.376C200.828 151.464 201.586 151.627 202.347 151.771C203.11 151.91 203.853 152.129 204.607 152.306C205.347 152.531 206.093 152.739 206.822 152.995C207.547 153.264 208.283 153.504 208.988 153.822L210.054 154.275L211.095 154.781C212.484 155.452 213.813 156.239 215.101 157.082C216.365 157.957 217.609 158.864 218.753 159.888C219.922 160.882 220.986 161.986 222.022 163.11L220.965 162.972L222.558 162.032C223.103 161.744 223.661 161.477 224.211 161.199C224.769 160.936 225.349 160.719 225.917 160.478C226.487 160.24 227.085 160.075 227.668 159.871C228.85 159.515 230.053 159.218 231.274 159.03C231.878 158.909 232.501 158.845 233.125 158.79L234.058 158.699L234.961 158.672L235.864 158.649L236.089 158.643C236.214 158.638 236.256 158.65 236.344 158.652L236.806 158.68L238.651 158.791C239.266 158.827 239.87 158.969 240.479 159.053C241.085 159.157 241.699 159.222 242.289 159.404L244.07 159.875C244.661 160.041 245.225 160.288 245.803 160.491L246.666 160.811C246.954 160.914 247.219 161.07 247.497 161.196L249.147 161.998C249.675 162.305 250.191 162.63 250.712 162.946C250.971 163.106 251.235 163.259 251.489 163.426L252.219 163.973C252.701 164.344 253.203 164.69 253.667 165.081L255.007 166.31C255.469 166.704 255.848 167.178 256.256 167.623L256.859 168.298L257.161 168.636L257.428 168.999L258.496 170.454C258.857 170.936 259.126 171.476 259.444 171.984C260.103 172.989 260.539 174.112 261.063 175.182C261.28 175.737 261.465 176.305 261.666 176.865L261.963 177.707L262.175 178.574L262.591 180.306L262.821 182.072L262.93 182.952L262.954 183.837L263 185.604Z" fill="white"/>
</g>
</g>
<defs>
<filter id="filter0_d_2435_78516" x="46.7984" y="108" width="297.403" height="164.403" filterUnits="userSpaceOnUse" color-interpolation-filters="sRGB">
<feFlood flood-opacity="0" result="BackgroundImageFix"/>
<feColorMatrix in="SourceAlpha" type="matrix" values="0 0 0 0 0 0 0 0 0 0 0 0 0 0 0 0 0 0 127 0" result="hardAlpha"/>
<feOffset dy="5.20165"/>
<feGaussianBlur stdDeviation="2.60082"/>
<feComposite in2="hardAlpha" operator="out"/>
<feColorMatrix type="matrix" values="0 0 0 0 0.713381 0 0 0 0 0.713381 0 0 0 0 0.713381 0 0 0 0.13 0"/>
<feBlend mode="normal" in2="BackgroundImageFix" result="effect1_dropShadow_2435_78516"/>
<feBlend mode="normal" in="SourceGraphic" in2="effect1_dropShadow_2435_78516" result="shape"/>
</filter>
<linearGradient id="paint0_linear_2435_78516" x1="393.5" y1="166" x2="393.5" y2="483" gradientUnits="userSpaceOnUse">
<stop stop-color="white"/>
<stop offset="1" stop-color="white"/>
</linearGradient>
<linearGradient id="paint1_linear_2435_78516" x1="-3.5" y1="166" x2="-3.5" y2="483" gradientUnits="userSpaceOnUse">
<stop stop-color="white"/>
<stop offset="1" stop-color="white"/>
</linearGradient>
<linearGradient id="paint2_linear_2435_78516" x1="195" y1="-71" x2="195" y2="89" gradientUnits="userSpaceOnUse">
<stop stop-color="white"/>
<stop offset="1" stop-color="white"/>
</linearGradient>
<radialGradient id="paint3_radial_2435_78516" cx="0" cy="0" r="1" gradientUnits="userSpaceOnUse" gradientTransform="translate(193.852 184.808) rotate(-126.368) scale(134.925 195.955)">
<stop offset="0.116577" stop-color="#41939C"/>
<stop offset="0.46" stop-color="#41939C"/>
<stop offset="0.599" stop-color="#41939C" stop-opacity="0.84"/>
<stop offset="0.785183" stop-color="#5BB6C1"/>
<stop offset="1" stop-color="#5BB6C1"/>
</radialGradient>
<linearGradient id="paint4_linear_2435_78516" x1="63.9033" y1="130.786" x2="332.73" y2="138.596" gradientUnits="userSpaceOnUse">
<stop stop-color="#558F21" stop-opacity="0.05"/>
<stop offset="0.480607" stop-color="#558F21" stop-opacity="0.3"/>
<stop offset="1" stop-color="#558F21" stop-opacity="0.05"/>
</linearGradient>
<clipPath id="clip0_2435_78516">
<rect width="390" height="369" fill="white"/>
</clipPath>
<clipPath id="clip1_2435_78516">
<rect width="134" height="62" fill="white" transform="translate(129 151)"/>
</clipPath>
</defs>
</svg>
