<svg width="150" height="50" viewBox="0 0 150 50" fill="none" xmlns="http://www.w3.org/2000/svg">
<g clip-path="url(#clip0_2147_7721)">
<path d="M109.642 35.4011H93.5078L96.7718 24.1459H108.297L106.99 28.6496H100.078L99.4243 30.8931H110.945L109.642 35.4011ZM113.56 21.894H97.4254L98.7327 17.3902H114.859L113.556 21.894H113.56Z" fill="#78BE43"/>
<path d="M128.697 30.8887C128.398 31.9093 128.14 32.6304 127.9 33.0563C127.491 33.8027 126.934 34.3594 126.222 34.7305C125.361 35.1732 124.21 35.4052 122.776 35.4052H115.86C114.372 35.4052 113.334 35.1564 112.748 34.6799C112.259 34.2877 112.052 33.6931 112.111 32.8876C112.132 32.5924 112.187 32.2677 112.272 31.9135C112.31 31.7743 112.407 31.4285 112.563 30.893L114.515 24.1457H119.124L117.168 30.893H124.083L124.729 28.6495H129.334L128.688 30.8887H128.697ZM130.649 24.1457H126.044L126.694 21.8981H115.173C115.468 20.886 115.734 20.1606 115.966 19.7389C116.375 18.9883 116.94 18.4317 117.648 18.0648C118.509 17.6178 119.66 17.3985 121.089 17.3985H128.001C129.49 17.3985 130.527 17.6389 131.117 18.1196C131.602 18.516 131.809 19.1148 131.754 19.9161C131.737 20.207 131.683 20.5317 131.598 20.8818C131.569 21.0251 131.468 21.3667 131.307 21.9023L130.658 24.1457H130.649Z" fill="#78BE43"/>
<path d="M146.434 30.8887C146.143 31.9093 145.873 32.6304 145.642 33.0563C145.237 33.8027 144.676 34.3594 143.967 34.7305C143.107 35.1732 141.956 35.4052 140.522 35.4052H133.606C132.118 35.4052 131.08 35.1564 130.49 34.6799C130.013 34.2919 129.798 33.6931 129.857 32.8876C129.878 32.5924 129.933 32.2677 130.022 31.9219C130.055 31.7743 130.148 31.437 130.313 30.893L132.269 24.1457H136.874L134.918 30.893H141.829L144.44 21.8981H132.915C133.214 20.8818 133.471 20.1606 133.712 19.7389C134.121 18.9883 134.677 18.4317 135.386 18.0648C136.242 17.622 137.393 17.3985 138.827 17.3985H145.739C147.227 17.3985 148.264 17.6389 148.855 18.1196C149.336 18.516 149.546 19.1148 149.492 19.9161C149.471 20.207 149.42 20.5275 149.336 20.8818C149.298 21.0251 149.201 21.3667 149.04 21.9023L146.43 30.893L146.434 30.8887Z" fill="#78BE43"/>
<path d="M75.5124 0.969299L57.2485 14.4638L66.2265 35.3254L56.4304 35.3422L50.3494 19.6381L43.1341 25.2846L40.8527 35.3675L0.5 35.3886L1.60908 28.9661L25.0979 7.09241H7.76593L8.875 1.10003L36.9351 1.08738L35.7121 6.66649L11.0594 29.2824L34.5777 29.2486L40.975 1.09159L49.0927 0.969299L45.4872 15.7963L64.2529 1.01147L75.5124 0.969299Z" fill="#1C1C1C"/>
<path d="M75.512 0.969299H105.765L103.597 7.09241L92.4476 7.1641L84.0009 35.3465L76.4187 35.3549L84.5449 7.13037L67.1328 7.15989L75.512 0.969299Z" fill="#78BE43"/>
<path d="M125.715 39.5084L120.95 49.9328H118.487L117.846 42.5109L114.502 49.9328L112.052 49.9497L111.082 39.5126H113.321L113.739 47.605L117.277 39.5126H119.605L120.174 47.5629L123.459 39.5126H125.715V39.5084Z" fill="#1C1C1C"/>
<path d="M133.509 39.5084L133.21 41.153H128.879L128.402 43.8856H131.717L131.434 45.4965H128.103L127.327 49.9328H125.223L127.074 39.5084H133.509Z" fill="#1C1C1C"/>
<path d="M146.353 39.5084L144.514 49.9328H142.41L143.603 43.1856L139.631 49.9328H138.033L136.434 43.1687L135.241 49.9328H133.137L134.988 39.5084H137.362L139.319 47.2424L143.979 39.5084H146.353Z" fill="#1C1C1C"/>
</g>
<defs>
<clipPath id="clip0_2147_7721">
<rect width="149" height="48.9765" fill="white" transform="translate(0.5 0.969299)"/>
</clipPath>
</defs>
</svg>
