<svg width="390" height="369" viewBox="0 0 390 369" fill="none" xmlns="http://www.w3.org/2000/svg">
<g clip-path="url(#clip0_2435_78658)">
<rect width="390" height="369" rx="16" fill="#F5F5F5"/>
<rect x="293.816" y="238.816" width="199.369" height="315.369" rx="29.5744" fill="url(#paint0_linear_2435_78658)" fill-opacity="0.15"/>
<rect x="293.816" y="238.816" width="199.369" height="315.369" rx="29.5744" stroke="#E4E4E7" stroke-width="1.63116"/>
<rect x="-103.184" y="238.816" width="199.369" height="315.369" rx="29.5744" fill="url(#paint1_linear_2435_78658)" fill-opacity="0.15"/>
<rect x="-103.184" y="238.816" width="199.369" height="315.369" rx="29.5744" stroke="#E4E4E7" stroke-width="1.63116"/>
<rect x="35.8156" y="-70.1844" width="318.369" height="267.369" rx="29.5744" fill="url(#paint2_linear_2435_78658)" fill-opacity="0.15"/>
<rect x="35.8156" y="-70.1844" width="318.369" height="267.369" rx="29.5744" stroke="#E4E4E7" stroke-width="1.63116"/>
</g>
<g filter="url(#filter0_d_2435_78658)">
<rect width="42" height="42" rx="11.5643" transform="matrix(-1 0 0 1 342 170)" fill="white"/>
</g>
<path d="M316.692 190.414C313.572 190.634 313.572 195.174 316.692 195.394H317.972" stroke="#1C274C" stroke-width="1.03191" stroke-miterlimit="10" stroke-linecap="round" stroke-linejoin="round"/>
<path d="M316.725 190.415C314.585 184.462 323.612 182.082 324.645 188.335C327.532 188.702 328.699 192.548 326.512 194.462C325.845 195.068 324.985 195.402 324.085 195.395H324.025" stroke="#1C274C" stroke-width="1.03191" stroke-miterlimit="10" stroke-linecap="round" stroke-linejoin="round"/>
<path d="M324.335 194.021C324.335 194.514 324.228 194.981 324.028 195.394C323.975 195.514 323.915 195.628 323.848 195.734C323.275 196.701 322.215 197.354 321.001 197.354C319.788 197.354 318.728 196.701 318.155 195.734C318.088 195.628 318.028 195.514 317.975 195.394C317.775 194.981 317.668 194.514 317.668 194.021C317.668 192.181 319.161 190.688 321.001 190.688C322.841 190.688 324.335 192.181 324.335 194.021Z" stroke="#1C274C" stroke-width="1.03191" stroke-miterlimit="10" stroke-linecap="round" stroke-linejoin="round"/>
<path d="M319.961 194.021L320.621 194.681L322.041 193.367" stroke="#1C274C" stroke-width="1.03191" stroke-linecap="round" stroke-linejoin="round"/>
<g filter="url(#filter1_d_2435_78658)">
<rect width="50" height="50" rx="14.3137" transform="matrix(-1 0 0 1 290 159)" fill="white"/>
</g>
<path d="M262.801 191.335H267.201C270.868 191.335 272.335 189.868 272.335 186.201V181.801C272.335 178.135 270.868 176.668 267.201 176.668H262.801C259.135 176.668 257.668 178.135 257.668 181.801V186.201C257.668 189.868 259.135 191.335 262.801 191.335Z" stroke="#1C274C" stroke-width="1.03191" stroke-linecap="round" stroke-linejoin="round"/>
<path d="M263.626 188.585H266.376C268.668 188.585 269.585 187.668 269.585 185.376V182.626C269.585 180.335 268.668 179.418 266.376 179.418H263.626C261.335 179.418 260.418 180.335 260.418 182.626V185.376C260.418 187.668 261.335 188.585 263.626 188.585Z" stroke="#1C274C" stroke-width="1.03191" stroke-linecap="round" stroke-linejoin="round"/>
<path d="M261.344 176.665V174.832" stroke="#1C274C" stroke-width="1.03191" stroke-linecap="round" stroke-linejoin="round"/>
<path d="M265 176.665V174.832" stroke="#1C274C" stroke-width="1.03191" stroke-linecap="round" stroke-linejoin="round"/>
<path d="M268.664 176.665V174.832" stroke="#1C274C" stroke-width="1.03191" stroke-linecap="round" stroke-linejoin="round"/>
<path d="M272.332 180.332H274.165" stroke="#1C274C" stroke-width="1.03191" stroke-linecap="round" stroke-linejoin="round"/>
<path d="M272.332 184H274.165" stroke="#1C274C" stroke-width="1.03191" stroke-linecap="round" stroke-linejoin="round"/>
<path d="M272.332 187.668H274.165" stroke="#1C274C" stroke-width="1.03191" stroke-linecap="round" stroke-linejoin="round"/>
<path d="M268.664 191.332V193.165" stroke="#1C274C" stroke-width="1.03191" stroke-linecap="round" stroke-linejoin="round"/>
<path d="M265.008 191.332V193.165" stroke="#1C274C" stroke-width="1.03191" stroke-linecap="round" stroke-linejoin="round"/>
<path d="M261.344 191.332V193.165" stroke="#1C274C" stroke-width="1.03191" stroke-linecap="round" stroke-linejoin="round"/>
<path d="M255.832 180.332H257.665" stroke="#1C274C" stroke-width="1.03191" stroke-linecap="round" stroke-linejoin="round"/>
<path d="M255.832 184H257.665" stroke="#1C274C" stroke-width="1.03191" stroke-linecap="round" stroke-linejoin="round"/>
<path d="M255.832 187.668H257.665" stroke="#1C274C" stroke-width="1.03191" stroke-linecap="round" stroke-linejoin="round"/>
<g filter="url(#filter2_d_2435_78658)">
<rect x="48" y="170" width="42" height="42" rx="11.5643" fill="white"/>
</g>
<path d="M62.3333 188.679V185.652C62.3333 184.712 62.76 184.332 63.82 184.332H66.5133C67.5733 184.332 68 184.712 68 185.652V188.672C68 189.619 67.5733 189.992 66.5133 189.992H63.82C62.76 189.999 62.3333 189.619 62.3333 188.679Z" stroke="#1C274C" stroke-width="1.03191" stroke-linecap="round" stroke-linejoin="round"/>
<path d="M62.3333 196.18V193.487C62.3333 192.427 62.76 192 63.82 192H66.5133C67.5733 192 68 192.427 68 193.487V196.18C68 197.24 67.5733 197.667 66.5133 197.667H63.82C62.76 197.667 62.3333 197.24 62.3333 196.18Z" stroke="#1C274C" stroke-width="1.03191" stroke-linecap="round" stroke-linejoin="round"/>
<path d="M70.0013 188.679V185.652C70.0013 184.712 70.428 184.332 71.488 184.332H74.1813C75.2413 184.332 75.668 184.712 75.668 185.652V188.672C75.668 189.619 75.2413 189.992 74.1813 189.992H71.488C70.428 189.999 70.0013 189.619 70.0013 188.679Z" stroke="#1C274C" stroke-width="1.03191" stroke-linecap="round" stroke-linejoin="round"/>
<path d="M70.0013 196.18V193.487C70.0013 192.427 70.428 192 71.488 192H74.1813C75.2413 192 75.668 192.427 75.668 193.487V196.18C75.668 197.24 75.2413 197.667 74.1813 197.667H71.488C70.428 197.667 70.0013 197.24 70.0013 196.18Z" stroke="#1C274C" stroke-width="1.03191" stroke-linecap="round" stroke-linejoin="round"/>
<g filter="url(#filter3_d_2435_78658)">
<rect x="100" y="159" width="50" height="50" rx="14.3137" fill="white"/>
</g>
<path d="M130.5 178.73V180.564" stroke="#1C274C" stroke-width="1.37589" stroke-linecap="round" stroke-linejoin="round"/>
<path d="M115.835 183.999V181.249C115.835 176.665 117.668 174.832 122.251 174.832H127.751C132.335 174.832 134.168 176.665 134.168 181.249V186.749C134.168 191.332 132.335 193.165 127.751 193.165H125.001" stroke="#1C274C" stroke-width="1.37589" stroke-linecap="round" stroke-linejoin="round"/>
<path d="M126.832 178.73V180.564" stroke="#1C274C" stroke-width="1.37589" stroke-linecap="round" stroke-linejoin="round"/>
<path d="M130.5 187.668V189.501" stroke="#1C274C" stroke-width="1.37589" stroke-linecap="round" stroke-linejoin="round"/>
<path d="M126.832 187.668V189.501" stroke="#1C274C" stroke-width="1.37589" stroke-linecap="round" stroke-linejoin="round"/>
<path d="M123.164 179.645H119.497" stroke="#1C274C" stroke-width="1.37589" stroke-linecap="round" stroke-linejoin="round"/>
<path d="M134.168 184H115.835" stroke="#1C274C" stroke-width="1.37589" stroke-linecap="round" stroke-linejoin="round"/>
<path d="M116.236 191.637C116.749 192.526 117.712 193.122 118.812 193.122C120.453 193.122 121.461 191.472 121.461 191.472M121.397 188.667C120.883 187.769 119.921 187.173 118.812 187.173C116.823 187.173 115.833 188.823 115.833 188.823M115.833 186.98V188.814H117.666M119.628 191.463H121.461V193.168" stroke="#1C274C" stroke-width="1.37589" stroke-linecap="round" stroke-linejoin="round"/>
<g clip-path="url(#clip1_2435_78658)">
<rect x="160" y="150" width="70" height="70" rx="16.3692" fill="url(#paint3_radial_2435_78658)"/>
<g filter="url(#filter4_f_2435_78658)">
<circle cx="200" cy="190" r="39" fill="#7AAAD7"/>
</g>
<g clip-path="url(#clip2_2435_78658)">
<path d="M208.029 177.152C207.872 173.41 204.807 170.414 201.062 170.414C199.867 170.414 198.709 170.724 197.666 171.318C195.968 169.467 193.623 168.422 191.102 168.422C186.258 168.422 182.3 172.311 182.142 177.153C179.688 178.305 178.086 180.743 178.086 183.43C178.086 186.956 180.742 189.878 184.176 190.339C184.232 190.902 184.338 191.476 184.497 192.069L183.24 192.795C182.764 193.07 182.6 193.679 182.875 194.156L184.868 197.606C185.143 198.082 185.752 198.246 186.228 197.971L187.488 197.243C188.807 198.534 190.377 199.455 192.098 199.947V201.426C192.098 201.976 192.544 202.422 193.094 202.422H197.078C197.628 202.422 198.074 201.976 198.074 201.426V199.947C199.795 199.455 201.365 198.534 202.684 197.243L203.944 197.971C204.42 198.246 205.029 198.083 205.304 197.606L207.296 194.156C207.571 193.679 207.408 193.07 206.932 192.795L205.675 192.069C205.834 191.476 205.94 190.902 205.996 190.339C209.43 189.878 212.086 186.956 212.086 183.43C212.086 180.742 210.483 178.304 208.029 177.152ZM204.077 195.747L203.001 195.126C202.592 194.89 202.073 194.974 201.759 195.327C200.433 196.82 198.746 197.809 196.879 198.19C196.415 198.284 196.082 198.692 196.082 199.166V200.43H194.09V199.166C194.09 198.692 193.757 198.284 193.293 198.19C191.426 197.809 189.739 196.82 188.413 195.327C188.099 194.974 187.58 194.89 187.171 195.126L186.095 195.747L185.099 194.022L186.176 193.4C186.586 193.163 186.773 192.671 186.623 192.222C186.41 191.584 186.266 190.982 186.189 190.402H188.185C188.67 193.777 191.58 196.379 195.086 196.379C198.593 196.379 201.502 193.777 201.987 190.402H203.983C203.906 190.982 203.762 191.584 203.549 192.222C203.399 192.671 203.586 193.163 203.996 193.4L205.073 194.022L204.077 195.747ZM190.206 190.402H199.966C199.503 192.673 197.491 194.387 195.086 194.387C192.681 194.387 190.668 192.673 190.206 190.402ZM205.047 188.41H185.125C182.342 188.41 180.078 186.176 180.078 183.43C180.078 181.342 181.452 179.461 183.496 178.749C183.912 178.604 184.183 178.204 184.164 177.764C184.159 177.661 184.147 177.572 184.137 177.507C184.134 177.486 184.13 177.458 184.129 177.445C184.133 173.567 187.259 170.414 191.102 170.414C193.301 170.414 195.331 171.442 196.671 173.235C196.829 173.448 197.067 173.588 197.329 173.626C197.592 173.663 197.859 173.593 198.07 173.433C198.956 172.761 199.99 172.406 201.062 172.406C203.807 172.406 206.04 174.667 206.043 177.448C206.042 177.462 206.037 177.494 206.034 177.519C206.025 177.581 206.014 177.658 206.009 177.748C205.982 178.193 206.255 178.602 206.676 178.749C208.72 179.461 210.094 181.342 210.094 183.43C210.094 186.176 207.83 188.41 205.047 188.41Z" fill="white"/>
<path d="M189.046 177.103C188.9 176.715 188.529 176.457 188.114 176.457C187.698 176.457 187.327 176.715 187.181 177.103L184.193 185.072C183.999 185.587 184.26 186.161 184.776 186.355C185.291 186.548 185.865 186.287 186.058 185.772L186.563 184.426H189.664L190.169 185.772C190.362 186.287 190.937 186.548 191.452 186.355C191.967 186.161 192.228 185.587 192.035 185.072L189.046 177.103ZM187.31 182.434L188.114 180.29L188.917 182.434H187.31Z" fill="white"/>
<path d="M197.078 176.457H195.086C194.536 176.457 194.09 176.903 194.09 177.453V185.422C194.09 185.972 194.536 186.418 195.086 186.418C195.636 186.418 196.082 185.972 196.082 185.422V182.434H197.078C198.726 182.434 200.066 181.093 200.066 179.445C200.066 177.798 198.726 176.457 197.078 176.457ZM197.078 180.441H196.082V178.449H197.078C197.627 178.449 198.074 178.896 198.074 179.445C198.074 179.995 197.627 180.441 197.078 180.441Z" fill="white"/>
<path d="M203.055 176.457C202.505 176.457 202.059 176.903 202.059 177.453V185.422C202.059 185.972 202.505 186.418 203.055 186.418C203.605 186.418 204.051 185.972 204.051 185.422V177.453C204.051 176.903 203.605 176.457 203.055 176.457Z" fill="white"/>
</g>
</g>
<rect x="160.265" y="150.265" width="69.4696" height="69.4696" rx="16.104" stroke="url(#paint4_linear_2435_78658)" stroke-width="0.530413"/>
<defs>
<filter id="filter0_d_2435_78658" x="296.422" y="170" width="49.1569" height="49.1569" filterUnits="userSpaceOnUse" color-interpolation-filters="sRGB">
<feFlood flood-opacity="0" result="BackgroundImageFix"/>
<feColorMatrix in="SourceAlpha" type="matrix" values="0 0 0 0 0 0 0 0 0 0 0 0 0 0 0 0 0 0 127 0" result="hardAlpha"/>
<feOffset dy="3.57843"/>
<feGaussianBlur stdDeviation="1.78922"/>
<feComposite in2="hardAlpha" operator="out"/>
<feColorMatrix type="matrix" values="0 0 0 0 0.713381 0 0 0 0 0.713381 0 0 0 0 0.713381 0 0 0 0.25 0"/>
<feBlend mode="normal" in2="BackgroundImageFix" result="effect1_dropShadow_2435_78658"/>
<feBlend mode="normal" in="SourceGraphic" in2="effect1_dropShadow_2435_78658" result="shape"/>
</filter>
<filter id="filter1_d_2435_78658" x="236.422" y="159" width="57.1569" height="57.1569" filterUnits="userSpaceOnUse" color-interpolation-filters="sRGB">
<feFlood flood-opacity="0" result="BackgroundImageFix"/>
<feColorMatrix in="SourceAlpha" type="matrix" values="0 0 0 0 0 0 0 0 0 0 0 0 0 0 0 0 0 0 127 0" result="hardAlpha"/>
<feOffset dy="3.57843"/>
<feGaussianBlur stdDeviation="1.78922"/>
<feComposite in2="hardAlpha" operator="out"/>
<feColorMatrix type="matrix" values="0 0 0 0 0.713381 0 0 0 0 0.713381 0 0 0 0 0.713381 0 0 0 0.25 0"/>
<feBlend mode="normal" in2="BackgroundImageFix" result="effect1_dropShadow_2435_78658"/>
<feBlend mode="normal" in="SourceGraphic" in2="effect1_dropShadow_2435_78658" result="shape"/>
</filter>
<filter id="filter2_d_2435_78658" x="44.4216" y="170" width="49.1569" height="49.1569" filterUnits="userSpaceOnUse" color-interpolation-filters="sRGB">
<feFlood flood-opacity="0" result="BackgroundImageFix"/>
<feColorMatrix in="SourceAlpha" type="matrix" values="0 0 0 0 0 0 0 0 0 0 0 0 0 0 0 0 0 0 127 0" result="hardAlpha"/>
<feOffset dy="3.57843"/>
<feGaussianBlur stdDeviation="1.78922"/>
<feComposite in2="hardAlpha" operator="out"/>
<feColorMatrix type="matrix" values="0 0 0 0 0.713381 0 0 0 0 0.713381 0 0 0 0 0.713381 0 0 0 0.25 0"/>
<feBlend mode="normal" in2="BackgroundImageFix" result="effect1_dropShadow_2435_78658"/>
<feBlend mode="normal" in="SourceGraphic" in2="effect1_dropShadow_2435_78658" result="shape"/>
</filter>
<filter id="filter3_d_2435_78658" x="96.4216" y="159" width="57.1569" height="57.1569" filterUnits="userSpaceOnUse" color-interpolation-filters="sRGB">
<feFlood flood-opacity="0" result="BackgroundImageFix"/>
<feColorMatrix in="SourceAlpha" type="matrix" values="0 0 0 0 0 0 0 0 0 0 0 0 0 0 0 0 0 0 127 0" result="hardAlpha"/>
<feOffset dy="3.57843"/>
<feGaussianBlur stdDeviation="1.78922"/>
<feComposite in2="hardAlpha" operator="out"/>
<feColorMatrix type="matrix" values="0 0 0 0 0.713381 0 0 0 0 0.713381 0 0 0 0 0.713381 0 0 0 0.25 0"/>
<feBlend mode="normal" in2="BackgroundImageFix" result="effect1_dropShadow_2435_78658"/>
<feBlend mode="normal" in="SourceGraphic" in2="effect1_dropShadow_2435_78658" result="shape"/>
</filter>
<filter id="filter4_f_2435_78658" x="151.223" y="141.223" width="97.5532" height="97.5532" filterUnits="userSpaceOnUse" color-interpolation-filters="sRGB">
<feFlood flood-opacity="0" result="BackgroundImageFix"/>
<feBlend mode="normal" in="SourceGraphic" in2="BackgroundImageFix" result="shape"/>
<feGaussianBlur stdDeviation="4.88829" result="effect1_foregroundBlur_2435_78658"/>
</filter>
<linearGradient id="paint0_linear_2435_78658" x1="393.5" y1="238" x2="393.5" y2="555" gradientUnits="userSpaceOnUse">
<stop stop-color="white"/>
<stop offset="1" stop-color="white"/>
</linearGradient>
<linearGradient id="paint1_linear_2435_78658" x1="-3.5" y1="238" x2="-3.5" y2="555" gradientUnits="userSpaceOnUse">
<stop stop-color="white"/>
<stop offset="1" stop-color="white"/>
</linearGradient>
<linearGradient id="paint2_linear_2435_78658" x1="195" y1="-71" x2="195" y2="198" gradientUnits="userSpaceOnUse">
<stop stop-color="white"/>
<stop offset="1" stop-color="white"/>
</linearGradient>
<radialGradient id="paint3_radial_2435_78658" cx="0" cy="0" r="1" gradientUnits="userSpaceOnUse" gradientTransform="translate(194.574 184.903) rotate(-110.556) scale(58.857)">
<stop stop-color="#7AAAD7"/>
<stop offset="0.23" stop-color="#7AAAD7" stop-opacity="0.84"/>
<stop offset="0.785183" stop-color="#7A80FB"/>
<stop offset="1" stop-color="#7A80FB"/>
</radialGradient>
<linearGradient id="paint4_linear_2435_78658" x1="161.008" y1="157.5" x2="230.49" y2="158.528" gradientUnits="userSpaceOnUse">
<stop stop-color="#558F21" stop-opacity="0.05"/>
<stop offset="0.480607" stop-color="#558F21" stop-opacity="0.3"/>
<stop offset="1" stop-color="#558F21" stop-opacity="0.05"/>
</linearGradient>
<clipPath id="clip0_2435_78658">
<rect width="390" height="369" fill="white"/>
</clipPath>
<clipPath id="clip1_2435_78658">
<rect x="160" y="150" width="70" height="70" rx="16.3692" fill="white"/>
</clipPath>
<clipPath id="clip2_2435_78658">
<rect width="34" height="34" fill="white" transform="translate(178.086 168.422)"/>
</clipPath>
</defs>
</svg>
