<svg width="35" height="35" viewBox="0 0 35 35" fill="none" xmlns="http://www.w3.org/2000/svg">
<path d="M19.5649 17.5C19.5649 18.6408 18.6401 19.5657 17.4993 19.5657C16.3584 19.5657 15.4336 18.6408 15.4336 17.5C15.4336 16.3592 16.3584 15.4344 17.4993 15.4344C18.6401 15.4344 19.5649 16.3592 19.5649 17.5Z" stroke="#7EBB48" stroke-width="2"/>
<path d="M17.5022 23.6311C20.8883 23.6311 23.6332 20.8861 23.6332 17.5C23.6332 14.1139 20.8883 11.3689 17.5022 11.3689C14.1161 11.3689 11.3711 14.1139 11.3711 17.5C11.3711 20.8861 14.1161 23.6311 17.5022 23.6311Z" stroke="#7EBB48" stroke-width="2" stroke-miterlimit="10"/>
<path d="M5.23828 7.53716C5.23828 6.26744 6.26762 5.2381 7.53734 5.2381H27.4633C28.7332 5.2381 29.7626 6.26744 29.7626 7.53716V27.4629C29.7626 28.7328 28.7332 29.7619 27.4633 29.7619H7.53734C6.26762 29.7619 5.23828 28.7328 5.23828 27.4629V7.53716Z" stroke="#121212" stroke-width="2" stroke-miterlimit="10"/>
</svg>
