<svg width="43" height="43" viewBox="0 0 43 43" fill="none" xmlns="http://www.w3.org/2000/svg">
<path d="M8.80512 14.6916H8.05859V27.8006H8.80512V14.6916Z" fill="#121212"/>
<path d="M15.3167 14.6916H14.0625V27.8006H15.3167V14.6916Z" fill="#121212"/>
<path d="M22.8403 14.6917H22.0938V27.8007H22.8403V14.6917Z" fill="#121212"/>
<path d="M13.1372 14.6917H12.3906V27.8007H13.1372V14.6917Z" fill="#121212"/>
<path d="M27.7106 14.6917H26.6953V27.8007H27.7106V14.6917Z" fill="#121212"/>
<path d="M35.1442 14.6917H34.1289V27.8007H35.1442V14.6917Z" fill="#121212"/>
<path d="M25.6178 14.6916H25.3789V27.8006H25.6178V14.6916Z" fill="#121212"/>
<path d="M24.2154 14.6916H23.9766V27.8006H24.2154V14.6916Z" fill="#121212"/>
<path d="M19.2584 14.6916H19.0195V27.8006H19.2584V14.6916Z" fill="#121212"/>
<path d="M29.0826 14.6916H28.8438V27.8006H29.0826V14.6916Z" fill="#121212"/>
<path d="M33.9498 14.6917H33.7109V27.8007H33.9498V14.6917Z" fill="#121212"/>
<path d="M20.5434 14.6916H19.7969V27.8006H20.5434V14.6916Z" fill="#121212"/>
<path d="M21.317 14.6916H21.0781V27.8006H21.317V14.6916Z" fill="#121212"/>
<path d="M10.149 14.6916H9.91016V27.8006H10.149V14.6916Z" fill="#121212"/>
<path d="M11.7037 14.6916H11.4648V27.8006H11.7037V14.6916Z" fill="#121212"/>
<path d="M10.8365 14.6916H10.5977V27.8006H10.8365V14.6916Z" fill="#121212"/>
<path d="M7.16467 14.6917H6.92578V27.8007H7.16467V14.6917Z" fill="#121212"/>
<path d="M18.4839 14.6916H16.9609V27.8006H18.4839V14.6916Z" fill="#121212"/>
<path d="M36.3403 14.6917H35.5938V27.8007H36.3403V14.6917Z" fill="#121212"/>
<path d="M30.4848 14.6917H29.7383V27.8007H30.4848V14.6917Z" fill="#121212"/>
<path d="M31.1412 14.6916H30.9023V27.8006H31.1412V14.6916Z" fill="#121212"/>
<path d="M16.3326 14.6917H16.0938V27.8007H16.3326V14.6917Z" fill="#121212"/>
<path d="M32.1881 14.6916H31.9492V27.8006H32.1881V14.6916Z" fill="#121212"/>
<path d="M38.162 34.6688H4.83698C3.55295 34.6688 2.50781 33.6237 2.50781 32.3695V10.8098C2.50781 9.52578 3.55295 8.5105 4.83698 8.5105H38.1918C39.4759 8.5105 40.521 9.55564 40.521 10.8098V32.3397C40.4911 33.6237 39.446 34.6688 38.162 34.6688ZM4.83698 9.49591C4.12031 9.49591 3.52309 10.0931 3.52309 10.8098V32.3397C3.52309 33.0563 4.12031 33.6536 4.83698 33.6536H38.1918C38.9085 33.6536 39.5057 33.0563 39.5057 32.3397V10.8098C39.5057 10.0931 38.9085 9.49591 38.1918 9.49591C38.162 9.49591 4.83698 9.49591 4.83698 9.49591Z" fill="#7EBB48"/>
</svg>
