<svg width="50" height="49" viewBox="0 0 50 49" fill="none" xmlns="http://www.w3.org/2000/svg">
<path d="M41.2935 11.7273H8.38824C7.12732 11.7273 6.10156 12.7496 6.10156 14.0057V35.2625C6.10156 36.5187 7.12732 37.5403 8.38824 37.5403H41.2935C42.5537 37.5403 43.5795 36.5181 43.5795 35.2625V14.0061C43.5795 12.7496 42.5537 11.7273 41.2935 11.7273ZM8.38824 12.7201H41.2935C42.0068 12.7201 42.5873 13.2971 42.5873 14.0057V29.7323H7.09433V14.0061C7.09433 13.2971 7.67482 12.7201 8.38824 12.7201ZM41.2935 36.5478H8.38824C7.67482 36.5478 7.09433 35.9712 7.09433 35.2625V33.6895H42.5873V35.2625C42.5873 35.9712 42.0068 36.5478 41.2935 36.5478Z" fill="black"/>
<path d="M9.6278 29.2505C9.118 29.2505 8.70312 28.8356 8.70312 28.3258V20.9327C8.70312 20.4229 9.118 20.008 9.6278 20.008C10.1379 20.008 10.5528 20.4229 10.5528 20.9327V28.3258C10.5528 28.8356 10.1379 29.2505 9.6278 29.2505ZM9.6278 20.5045C9.39146 20.5045 9.19933 20.6966 9.19933 20.933V28.3258C9.19933 28.5619 9.39146 28.7534 9.6278 28.7534C9.86411 28.7534 10.0566 28.5619 10.0566 28.3258V20.9327C10.0566 20.6964 9.86411 20.5045 9.6278 20.5045Z" fill="#7EBB48"/>
</svg>
