<svg width="43" height="43" viewBox="0 0 43 43" fill="none" xmlns="http://www.w3.org/2000/svg">
<path d="M33.8553 16.1214C34.48 15.1134 35.6749 13.254 36.8598 11.792C37.6324 10.8393 38.4099 10.0572 39.0289 9.7377C39.5556 9.46535 39.9683 9.45831 40.2658 9.58106C40.5946 9.71651 40.8317 10.0204 40.9309 10.4756C41.1386 11.4273 40.701 13.2084 39.7869 14.708C38.5843 16.6813 34.3046 22.9719 33.4944 24.2215C33.4342 24.3141 33.3657 24.3827 33.3506 24.4553C33.2693 24.7375 33.1806 25.0198 33.0828 25.304C31.6516 29.4718 28.4754 33.6371 21.4994 33.6371C14.9469 33.6371 11.7546 29.481 10.2079 25.3135C10.103 25.0306 10.0056 24.7476 9.91527 24.4654C9.85895 24.3922 9.81435 24.3071 9.76223 24.2306C8.90952 22.9797 4.41456 16.6834 3.2107 14.7087C2.29676 13.2091 1.85853 11.4279 2.0666 10.4764C2.1662 10.0207 2.40306 9.71724 2.73174 9.58179C3.02908 9.459 3.44178 9.46607 3.96909 9.73843C4.58625 10.0572 5.35605 10.7963 6.12024 11.6871C7.39092 13.1684 8.66865 15.0633 9.23437 15.928C9.40207 15.7043 9.62949 15.4955 9.9377 15.3543C10.5005 15.0962 13.1178 14.6658 16.3235 13.6434C17.0961 13.3969 17.8726 12.8566 18.6786 12.3857C19.5755 11.8615 20.507 11.4231 21.4843 11.4321C22.4111 11.4414 23.3399 11.8785 24.2459 12.3962C25.0639 12.864 25.8638 13.3962 26.6375 13.6434C29.8433 14.6658 32.4605 15.0962 33.0234 15.3541C33.4187 15.535 33.682 15.8282 33.8553 16.1214ZM33.3589 16.9929C33.3059 16.7523 33.1467 16.2934 32.688 16.0831C32.1335 15.8291 29.5518 15.415 26.3923 14.4072C25.5704 14.1448 24.7151 13.589 23.8459 13.0922C23.065 12.6456 22.2735 12.2416 21.4753 12.234C20.6381 12.226 19.8502 12.6289 19.0822 13.0777C18.2231 13.5796 17.3894 14.1444 16.5658 14.4072C13.4068 15.4146 10.825 15.8291 10.2705 16.0831C9.68164 16.353 9.58677 17.0326 9.57591 17.1342C9.57227 17.3687 9.5464 20.5192 10.592 23.9472C10.6708 24.2056 10.8331 24.6966 10.9587 25.0341C12.4041 28.93 15.373 32.8349 21.4976 32.8349C28.0176 32.8349 30.9845 28.9379 32.3226 25.0444C32.457 24.6525 32.6073 24.1369 32.656 23.9586C33.5284 20.7631 33.4214 17.8102 33.3906 17.2446C33.3551 17.1659 33.3434 17.078 33.3589 16.9929ZM33.8814 22.1007C35.4748 19.7242 38.1484 15.7572 39.0587 14.2649C39.841 12.9811 40.2759 11.4731 40.098 10.6584C40.0681 10.5242 40.0376 10.4099 39.9405 10.3699C39.8129 10.317 39.6465 10.3787 39.42 10.4957C38.8732 10.778 38.2046 11.4879 37.5225 12.329C36.006 14.2006 34.4724 16.7369 34.1912 17.2077C34.2183 17.7151 34.285 19.69 33.8814 22.1007ZM8.81571 16.8524L8.8137 16.8495C8.8137 16.8495 7.13722 14.1821 5.47229 12.2416C4.79376 11.4508 4.125 10.7782 3.57703 10.4952C3.35032 10.3782 3.18373 10.3165 3.05588 10.3693C2.959 10.4093 2.92821 10.5236 2.89887 10.6578C2.72069 11.4725 3.15566 12.9806 3.93813 14.2643C4.84411 15.7509 7.62198 19.6937 9.29287 22.0708C8.7259 19.2907 8.77441 17.1021 8.77441 17.1021C8.77459 17.0929 8.77514 17.084 8.77587 17.0755C8.77587 17.0755 8.78419 16.989 8.81571 16.8524Z" fill="#121212"/>
<path d="M21.3804 14.4463L16.7719 16.5243C16.4184 16.6839 16.0025 16.5261 15.8433 16.1726C15.6842 15.8195 15.8416 15.4033 16.1947 15.2437L21.0986 13.0327C21.2861 12.9481 21.5019 12.9502 21.688 13.0381C21.688 13.0381 25.5956 14.8909 26.3607 15.1921L26.3686 15.1949C26.6306 15.2462 26.8515 15.4456 26.9171 15.722C26.997 16.0593 26.8784 16.3021 26.6191 16.4727C26.5811 16.4978 26.2868 16.6721 25.8469 16.4989C25.1962 16.2432 22.3151 14.8873 21.3804 14.4463ZM25.587 15.613C25.5343 15.7359 25.5117 15.8794 25.5504 16.0461C25.5145 15.8958 25.5303 15.7449 25.587 15.613ZM25.6694 15.4656L25.663 15.4749L25.673 15.4613L25.6694 15.4656ZM25.7913 15.3387C25.7458 15.3753 25.7078 15.4151 25.6755 15.4577C25.7092 15.4137 25.7479 15.3735 25.7913 15.3387Z" fill="#7EBB48"/>
<path d="M21.4961 16.0717V27.5577L22.8606 21.7533L21.4961 16.0717Z" fill="#7EBB48"/>
<path d="M17.3027 20.0799H14.749C14.0444 20.0799 13.4727 20.6522 13.4727 21.3571V24.4243C13.4727 25.1288 14.0444 25.7007 14.749 25.7007H17.3027C18.0074 25.7007 18.5799 25.1288 18.5799 24.4243V21.3571C18.5799 20.6522 18.0074 20.0799 17.3027 20.0799ZM14.5062 24.8261C14.3528 24.8261 14.2284 24.7016 14.2284 24.547C14.2284 24.3935 14.3528 24.269 14.5062 24.269C14.6596 24.269 14.7848 24.3935 14.7848 24.547C14.7848 24.7015 14.6596 24.8261 14.5062 24.8261ZM14.5062 23.9892C14.3528 23.9892 14.2284 23.8648 14.2284 23.7112C14.2284 23.5577 14.3528 23.4325 14.5062 23.4325C14.6596 23.4325 14.7848 23.5578 14.7848 23.7112C14.7848 23.8647 14.6596 23.9892 14.5062 23.9892ZM14.5062 23.1527C14.3528 23.1527 14.2284 23.0283 14.2284 22.8748C14.2284 22.7214 14.3528 22.5961 14.5062 22.5961C14.6596 22.5961 14.7848 22.7216 14.7848 22.8748C14.7848 23.0279 14.6596 23.1527 14.5062 23.1527ZM14.5062 22.3167C14.3528 22.3167 14.2284 22.1918 14.2284 22.0383C14.2284 21.8844 14.3528 21.7596 14.5062 21.7596C14.6596 21.7596 14.7848 21.8844 14.7848 22.0383C14.7848 22.1918 14.6596 22.3167 14.5062 22.3167ZM14.5062 21.5117C14.3528 21.5117 14.2284 21.3875 14.2284 21.2337C14.2284 21.0802 14.3528 20.9557 14.5062 20.9557C14.6596 20.9557 14.7848 21.0799 14.7848 21.2337C14.7848 21.3872 14.6596 21.5117 14.5062 21.5117ZM15.2662 24.8261C15.112 24.8261 14.9876 24.7016 14.9876 24.547C14.9876 24.3935 15.112 24.269 15.2662 24.269C15.4196 24.269 15.544 24.3935 15.544 24.547C15.544 24.7015 15.4196 24.8261 15.2662 24.8261ZM15.2662 23.9892C15.112 23.9892 14.9876 23.8648 14.9876 23.7112C14.9876 23.5577 15.112 23.4325 15.2662 23.4325C15.4196 23.4325 15.544 23.5578 15.544 23.7112C15.544 23.8647 15.4196 23.9892 15.2662 23.9892ZM15.2662 23.1527C15.112 23.1527 14.9876 23.0283 14.9876 22.8748C14.9876 22.7214 15.112 22.5961 15.2662 22.5961C15.4196 22.5961 15.544 22.7216 15.544 22.8748C15.544 23.0279 15.4196 23.1527 15.2662 23.1527ZM15.2662 22.3167C15.112 22.3167 14.9876 22.1918 14.9876 22.0383C14.9876 21.8844 15.112 21.7596 15.2662 21.7596C15.4196 21.7596 15.544 21.8844 15.544 22.0383C15.544 22.1918 15.4196 22.3167 15.2662 22.3167ZM15.2662 21.5117C15.112 21.5117 14.9876 21.3875 14.9876 21.2337C14.9876 21.0802 15.112 20.9557 15.2662 20.9557C15.4196 20.9557 15.544 21.0799 15.544 21.2337C15.544 21.3872 15.4196 21.5117 15.2662 21.5117ZM16.0263 24.8261C15.8729 24.8261 15.7477 24.7016 15.7477 24.547C15.7477 24.3935 15.8721 24.269 16.0263 24.269C16.1796 24.269 16.3049 24.3935 16.3049 24.547C16.3049 24.7015 16.1796 24.8261 16.0263 24.8261ZM16.0263 23.9892C15.8729 23.9892 15.7477 23.8648 15.7477 23.7112C15.7477 23.5577 15.8721 23.4325 16.0263 23.4325C16.1796 23.4325 16.3049 23.5581 16.3049 23.7112C16.3049 23.8648 16.1796 23.9892 16.0263 23.9892ZM16.0263 23.1527C15.8729 23.1527 15.7477 23.0283 15.7477 22.8748C15.7477 22.7214 15.8721 22.5961 16.0263 22.5961C16.1796 22.5961 16.3049 22.7216 16.3049 22.8748C16.3049 23.0279 16.1796 23.1527 16.0263 23.1527ZM16.0263 22.3167C15.8729 22.3167 15.7477 22.1918 15.7477 22.0383C15.7477 21.8844 15.8721 21.7596 16.0263 21.7596C16.1796 21.7596 16.3049 21.8844 16.3049 22.0383C16.3049 22.1918 16.1796 22.3167 16.0263 22.3167ZM16.0263 21.5117C15.8729 21.5117 15.7477 21.3875 15.7477 21.2337C15.7477 21.0802 15.8721 20.9557 16.0263 20.9557C16.1796 20.9557 16.3049 21.0799 16.3049 21.2337C16.3049 21.3872 16.1796 21.5117 16.0263 21.5117ZM16.7855 24.8261C16.6321 24.8261 16.5077 24.7016 16.5077 24.547C16.5077 24.3935 16.6321 24.269 16.7855 24.269C16.9397 24.269 17.0641 24.3935 17.0641 24.547C17.0641 24.7015 16.9397 24.8261 16.7855 24.8261ZM16.7855 23.9892C16.6321 23.9892 16.5077 23.8648 16.5077 23.7112C16.5077 23.5577 16.6321 23.4325 16.7855 23.4325C16.9397 23.4325 17.0641 23.5578 17.0641 23.7112C17.0641 23.8647 16.9397 23.9892 16.7855 23.9892ZM16.7855 23.1527C16.6321 23.1527 16.5077 23.0283 16.5077 22.8748C16.5077 22.7214 16.6321 22.5961 16.7855 22.5961C16.9397 22.5961 17.0641 22.7216 17.0641 22.8748C17.0641 23.0279 16.9397 23.1527 16.7855 23.1527ZM16.7855 22.3167C16.6321 22.3167 16.5077 22.1918 16.5077 22.0383C16.5077 21.8844 16.6321 21.7596 16.7855 21.7596C16.9397 21.7596 17.0641 21.8844 17.0641 22.0383C17.0641 22.1918 16.9397 22.3167 16.7855 22.3167ZM16.7855 21.5117C16.6321 21.5117 16.5077 21.3875 16.5077 21.2337C16.5077 21.0802 16.6321 20.9557 16.7855 20.9557C16.9397 20.9557 17.0641 21.0799 17.0641 21.2337C17.0641 21.3872 16.9397 21.5117 16.7855 21.5117ZM17.5455 24.8261C17.3922 24.8261 17.2678 24.7016 17.2678 24.547C17.2678 24.3935 17.3922 24.269 17.5455 24.269C17.6998 24.269 17.8242 24.3935 17.8242 24.547C17.8242 24.7015 17.6998 24.8261 17.5455 24.8261ZM17.5455 23.9892C17.3922 23.9892 17.2678 23.8648 17.2678 23.7112C17.2678 23.5577 17.3922 23.4325 17.5455 23.4325C17.6998 23.4325 17.8242 23.5578 17.8242 23.7112C17.8242 23.8647 17.6998 23.9892 17.5455 23.9892ZM17.5455 23.1527C17.3922 23.1527 17.2678 23.0283 17.2678 22.8748C17.2678 22.7214 17.3922 22.5961 17.5455 22.5961C17.6998 22.5961 17.8242 22.7216 17.8242 22.8748C17.8242 23.0279 17.6998 23.1527 17.5455 23.1527ZM17.5455 22.3167C17.3922 22.3167 17.2678 22.1918 17.2678 22.0383C17.2678 21.8844 17.3922 21.7596 17.5455 21.7596C17.6998 21.7596 17.8242 21.8844 17.8242 22.0383C17.8242 22.1918 17.6998 22.3167 17.5455 22.3167ZM17.5455 21.5117C17.3922 21.5117 17.2678 21.3875 17.2678 21.2337C17.2678 21.0802 17.3922 20.9557 17.5455 20.9557C17.6998 20.9557 17.8242 21.0799 17.8242 21.2337C17.8242 21.3872 17.6998 21.5117 17.5455 21.5117Z" fill="#7EBB48"/>
</svg>
