<svg width="47" height="47" viewBox="0 0 47 47" fill="none" xmlns="http://www.w3.org/2000/svg">
<path d="M25.3203 12.4114H25.6065C26.0252 12.4114 26.3646 12.7508 26.3646 13.1694V18.4411C26.3646 18.8598 26.0252 19.1992 25.6065 19.1992H21.3792C20.9605 19.1992 20.6211 18.8598 20.6211 18.4411V13.1694C20.6211 12.7508 20.9605 12.4114 21.3792 12.4114H21.6654V19.1992H22.1875V17.6327H22.7096V19.1991H23.2318V17.6327H23.7539V19.1991H24.2761V17.6327H24.7982V17.1106H22.1875V14.4999H24.7982V13.9778H22.1875V12.4114H22.7096V13.9778H23.2318V12.4114H23.7539V13.9778H24.2761V12.4114H24.7982V19.1992H25.3203V12.4114Z" fill="#7EBB48"/>
<path d="M41.1373 18.3224L37.6405 17.3854L37.4062 18.2596L40.9031 19.1966L41.1373 18.3224Z" fill="#7EBB48"/>
<path d="M39.2662 25.316L35.7694 24.3791L35.5352 25.2532L39.032 26.1902L39.2662 25.316Z" fill="#7EBB48"/>
<path d="M38.9146 26.6273L35.4178 25.6903L35.1836 26.5645L38.6804 27.5015L38.9146 26.6273Z" fill="#7EBB48"/>
<path d="M37.1568 33.1838L33.66 32.2468L33.4258 33.121L36.9225 34.058L37.1568 33.1838Z" fill="#7EBB48"/>
<path d="M36.8053 34.4951L33.3085 33.5581L33.0742 34.4323L36.571 35.3693L36.8053 34.4951Z" fill="#7EBB48"/>
<path d="M39.8521 23.1305L36.3553 22.1935L36.1211 23.0677L39.6179 24.0047L39.8521 23.1305Z" fill="#7EBB48"/>
<path d="M41.3717 17.4482L37.8749 16.5113L37.7578 16.9484L41.2546 17.8853L41.3717 17.4482Z" fill="#7EBB48"/>
<path d="M40.7858 19.6337L37.289 18.6967L37.1719 19.1338L40.6687 20.0708L40.7858 19.6337Z" fill="#7EBB48"/>
<path d="M40.5514 20.5079L37.0546 19.571L36.9375 20.0081L40.4343 20.945L40.5514 20.5079Z" fill="#7EBB48"/>
<path d="M40.317 21.3821L36.8202 20.4452L36.7031 20.8823L40.1999 21.8192L40.317 21.3821Z" fill="#7EBB48"/>
<path d="M40.0827 22.2563L36.5859 21.3193L36.4688 21.7564L39.9656 22.6934L40.0827 22.2563Z" fill="#7EBB48"/>
<path d="M39.5006 24.4418L36.0038 23.5049L35.8867 23.942L39.3835 24.8789L39.5006 24.4418Z" fill="#7EBB48"/>
<path d="M38.5631 27.9386L35.0663 27.0016L34.9492 27.4387L38.446 28.3757L38.5631 27.9386Z" fill="#7EBB48"/>
<path d="M38.3288 28.8128L34.832 27.8758L34.7148 28.3129L38.2116 29.2499L38.3288 28.8128Z" fill="#7EBB48"/>
<path d="M38.0944 29.687L34.5976 28.75L34.4805 29.1871L37.9772 30.1241L38.0944 29.687Z" fill="#7EBB48"/>
<path d="M37.86 30.5612L34.3632 29.6242L34.2461 30.0613L37.7429 30.9983L37.86 30.5612Z" fill="#7EBB48"/>
<path d="M36.4538 35.8064L32.957 34.8694L32.8398 35.3065L36.3366 36.2435L36.4538 35.8064Z" fill="#121212"/>
<path d="M37.6256 31.4354L34.1288 30.4984L34.0117 30.9355L37.5085 31.8725L37.6256 31.4354Z" fill="#7EBB48"/>
<path d="M37.3912 32.3096L33.8945 31.3726L33.7773 31.8097L37.2741 32.7467L37.3912 32.3096Z" fill="#7EBB48"/>
<path fill-rule="evenodd" clip-rule="evenodd" d="M15.1607 12.3926V10.1464C15.1607 9.14806 15.9679 8.33871 16.9636 8.33871H30.0351C31.0309 8.33871 31.8381 9.14806 31.8381 10.1464V12.2136L43.897 15.4448C44.8628 15.7035 45.4359 16.696 45.177 17.6617L40.0237 36.894C39.7648 37.8596 38.7725 38.4327 37.8068 38.1739L25.131 34.7774C24.1653 34.5187 23.5923 33.5262 23.851 32.5605L24.0445 31.8387H23.0509L23.2826 32.7034C23.5414 33.6691 22.9683 34.6616 22.0027 34.9203L9.32682 38.3168C8.36124 38.5756 7.3687 38.0025 7.10994 37.0369L1.95666 17.8046C1.69792 16.8389 2.27096 15.8464 3.23657 15.5877L15.1607 12.3926ZM16.9636 9.69448H30.0351C30.284 9.69448 30.4858 9.8968 30.4858 10.1464V12.0059C29.7948 12.1093 29.1967 12.6102 29.0043 13.3282L24.4077 30.483H22.6876L18.1293 13.4711C17.9245 12.7067 17.2599 12.1884 16.5129 12.1338V10.1464C16.5129 9.8968 16.7147 9.69448 16.9636 9.69448ZM43.5456 16.7561L41.691 16.259L41.4894 17.0111L37.9924 16.0742L38.1941 15.3221L30.8698 13.3596C30.6284 13.2949 30.3803 13.4381 30.3156 13.6795L25.1623 32.9119C25.0976 33.1533 25.2409 33.4015 25.4823 33.4661L38.1581 36.8626C38.3995 36.9273 38.6478 36.7841 38.7126 36.5427L43.8655 17.3103C43.9304 17.0689 43.7871 16.8207 43.5456 16.7561ZM3.58793 16.899L5.73796 16.3228L11.1255 36.4294L8.97546 37.0055C8.73405 37.0702 8.48594 36.927 8.42124 36.6856L3.26795 17.4532C3.20327 17.2118 3.34653 16.9636 3.58793 16.899ZM14.6223 35.4925L9.23476 15.3859L16.2638 13.5025C16.5052 13.4378 16.7534 13.581 16.8181 13.8224L21.9713 33.0548C22.036 33.2962 21.8928 33.5444 21.6514 33.609L14.6223 35.4925Z" fill="#121212"/>
</svg>
