<svg width="36" height="33" viewBox="0 0 36 33" fill="none" xmlns="http://www.w3.org/2000/svg">
<path d="M22.1225 27.5474H13.875V31.671H22.1225V27.5474Z" stroke="#7EBB48" stroke-width="1.77799" stroke-miterlimit="10"/>
<path d="M9.74956 1.26126H7.94531V9.50843H9.74956V1.26126Z" fill="#7EBB48"/>
<path d="M12.8003 1.26129H10.9961V9.50846H12.8003V1.26129Z" fill="#7EBB48"/>
<path d="M15.8511 1.26129H14.0469V9.50846H15.8511V1.26129Z" fill="#7EBB48"/>
<path d="M18.898 1.26129H17.0938V9.50846H18.898V1.26129Z" fill="#7EBB48"/>
<path d="M21.9488 1.26129H20.1445V9.50846H21.9488V1.26129Z" fill="#7EBB48"/>
<path d="M24.9996 1.26129H23.1953V9.50846H24.9996V1.26129Z" fill="#7EBB48"/>
<path d="M28.0503 1.26129H26.2461V9.50846H28.0503V1.26129Z" fill="#7EBB48"/>
<path d="M18.4834 6.46951L13.0234 15.3169H18.4834L16.6634 22.3928L22.1237 13.5477H16.6634L18.4834 6.46951Z" fill="#7EBB48"/>
<path d="M34.4932 1.26123H1.50391V23.4235H34.4932V1.26123Z" stroke="#121212" stroke-width="1.77799" stroke-miterlimit="10"/>
<path d="M26.2449 23.4236H9.75V27.5475H26.2449V23.4236Z" stroke="#121212" stroke-width="1.77799" stroke-miterlimit="10"/>
</svg>
