<svg width="51" height="51" viewBox="0 0 51 51" fill="none" xmlns="http://www.w3.org/2000/svg">
<path d="M36.3625 35.3961L32.4066 30.2768H26.887C26.7647 30.2738 25.69 30.2098 25.69 29.0977C25.69 27.9708 26.6925 27.7662 26.8069 27.7426H37.7307V26.4988L34.7393 26.5006V25.0675C34.7393 24.8644 35.1324 24.5822 35.4593 24.4356H39.0852L44.3436 29.2522L45.1847 28.3353L39.5678 23.1909H35.3348L35.1163 23.23C34.9512 23.2919 33.4953 23.8719 33.4953 25.0675V26.5012L26.728 26.5052C25.9374 26.6078 24.4453 27.2831 24.4453 29.098C24.4453 30.8256 25.883 31.4939 26.8682 31.5203H31.7966L35.7515 36.6395H45.1827V35.3958L36.3625 35.3961Z" fill="#7EBB48"/>
<path d="M16.0712 23.9017L17.0224 24.2037C16.8764 24.7333 16.6339 25.1279 16.2946 25.3855C15.9558 25.6429 15.5255 25.7713 15.0037 25.7713C14.3585 25.7713 13.828 25.551 13.4125 25.11C12.9964 24.6693 12.7891 24.0665 12.7891 23.3017C12.7891 22.4928 12.9979 21.8649 13.4158 21.4169C13.8328 20.9698 14.3822 20.7458 15.0635 20.7458C15.6578 20.7458 16.141 20.9216 16.5122 21.2727C16.7334 21.4809 16.8986 21.7784 17.0099 22.1675L16.0384 22.4003C15.9813 22.1477 15.8614 21.9499 15.6787 21.8036C15.4963 21.657 15.2754 21.5844 15.0144 21.5844C14.6541 21.5844 14.3621 21.714 14.1376 21.9723C13.913 22.2306 13.8016 22.6494 13.8016 23.2285C13.8016 23.8434 13.9121 24.2805 14.1327 24.5415C14.3539 24.8019 14.6413 24.933 14.9949 24.933C15.256 24.933 15.4803 24.8499 15.6687 24.6838C15.8548 24.5184 15.9892 24.2577 16.0712 23.9017Z" fill="#121212"/>
<path d="M22.2436 25.6882H21.1759L20.7519 24.584H18.8092L18.4082 25.6882H17.3672L19.2602 20.8278H20.2975L22.2436 25.6882ZM20.4371 23.766L19.767 21.9626L19.1102 23.766H20.4371Z" fill="#121212"/>
<path d="M22.7695 25.6881V20.8281H24.8346C25.3536 20.8281 25.7314 20.8721 25.9664 20.9598C26.2019 21.0469 26.3913 21.2023 26.5321 21.4257C26.6732 21.6488 26.7449 21.9041 26.7449 22.1909C26.7449 22.5563 26.6371 22.8564 26.4225 23.095C26.208 23.3314 25.8877 23.482 25.4607 23.5439C25.6735 23.6677 25.8474 23.8034 25.987 23.9518C26.1236 24.0999 26.3108 24.363 26.5455 24.7412L27.1388 25.6888H25.9648L25.2559 24.6319C25.0036 24.2535 24.8315 24.0152 24.7384 23.9175C24.6455 23.8195 24.5475 23.7512 24.444 23.7154C24.3395 23.6783 24.1747 23.6601 23.9496 23.6601H23.7505V25.6891H22.7695V25.6881ZM23.7498 22.8835H24.4761C24.9469 22.8835 25.2407 22.8634 25.3584 22.8237C25.4759 22.7845 25.5673 22.7162 25.6328 22.6185C25.7002 22.5214 25.7317 22.3997 25.7317 22.2537C25.7317 22.0898 25.6883 21.9584 25.6018 21.8576C25.5141 21.7565 25.3909 21.6934 25.2313 21.6664C25.1514 21.6558 24.9135 21.6503 24.5144 21.6503H23.7489V22.8831L23.7498 22.8835Z" fill="#121212"/>
<path d="M27.6641 20.829H29.4578C29.8633 20.829 30.171 20.8597 30.3832 20.9219C30.6679 21.0053 30.9119 21.155 31.1152 21.3692C31.3186 21.5829 31.4734 21.846 31.579 22.1568C31.6855 22.467 31.7383 22.8503 31.7383 23.3053C31.7383 23.7053 31.6882 24.0501 31.589 24.3397C31.4679 24.6935 31.294 24.9791 31.0688 25.1986C30.8985 25.3646 30.6691 25.4936 30.3796 25.5862C30.1625 25.655 29.8733 25.6894 29.5112 25.6894H27.6641V20.829ZM28.6462 21.6509V24.8696H29.3789C29.6529 24.8696 29.8511 24.8544 29.9726 24.8235C30.1313 24.7837 30.2636 24.716 30.3686 24.6213C30.4745 24.5266 30.5601 24.3691 30.6254 24.1521C30.693 23.9342 30.7249 23.6376 30.7249 23.2619C30.7249 22.8853 30.693 22.5975 30.6254 22.3966C30.5589 22.1954 30.4673 22.0388 30.3474 21.9256C30.2281 21.8139 30.0764 21.7362 29.8933 21.6967C29.7558 21.6652 29.4872 21.6506 29.0878 21.6506L28.6462 21.6509Z" fill="#121212"/>
<path d="M31.7089 37.8387H7.71881C6.61832 37.8387 5.72266 36.9437 5.72266 35.8432V15.5131C5.72266 14.4129 6.61804 13.5175 7.71881 13.5175H39.3521C40.4529 13.5175 41.3481 14.4129 41.3481 15.5131V21.8561H40.2841V15.5131C40.2841 14.9996 39.8659 14.5819 39.3521 14.5819H7.71881C7.20499 14.5819 6.78708 14.9996 6.78708 15.5131V35.8432C6.78708 36.3567 7.20499 36.7746 7.71881 36.7746H31.7086L31.7089 37.8387Z" fill="#121212"/>
</svg>
