<svg width="37" height="37" viewBox="0 0 37 37" fill="none" xmlns="http://www.w3.org/2000/svg">
<path d="M4.625 10.7917V7.70833C4.625 6.89058 4.94985 6.10632 5.52809 5.52809C6.10632 4.94985 6.89058 4.625 7.70833 4.625H10.7917" stroke="#7EBB48" stroke-width="2" stroke-linecap="round" stroke-linejoin="round"/>
<path d="M26.207 4.625H29.2904C30.1081 4.625 30.8924 4.94985 31.4706 5.52809C32.0488 6.10632 32.3737 6.89058 32.3737 7.70833V10.7917" stroke="#7EBB48" stroke-width="2" stroke-linecap="round" stroke-linejoin="round"/>
<path d="M32.3737 26.2083V29.2917C32.3737 30.1094 32.0488 30.8937 31.4706 31.4719C30.8924 32.0502 30.1081 32.375 29.2904 32.375H26.207" stroke="#7EBB48" stroke-width="2" stroke-linecap="round" stroke-linejoin="round"/>
<path d="M10.7917 32.375H7.70833C6.89058 32.375 6.10632 32.0502 5.52809 31.4719C4.94985 30.8937 4.625 30.1094 4.625 29.2917V26.2083" stroke="#7EBB48" stroke-width="2" stroke-linecap="round" stroke-linejoin="round"/>
<path d="M18.4985 19.2255C20.5019 19.2255 22.126 17.6014 22.126 15.5981C22.126 13.5947 20.5019 11.9706 18.4985 11.9706C16.4952 11.9706 14.8711 13.5947 14.8711 15.5981C14.8711 17.6014 16.4952 19.2255 18.4985 19.2255Z" stroke="#121212" stroke-width="2" stroke-linecap="round" stroke-linejoin="round"/>
<path d="M24.3032 25.0294C24.3032 23.4901 23.6917 22.0139 22.6032 20.9254C21.5148 19.837 20.0385 19.2255 18.4992 19.2255C16.9599 19.2255 15.4837 19.837 14.3952 20.9254C13.3068 22.0139 12.6953 23.4901 12.6953 25.0294" stroke="#121212" stroke-width="2" stroke-linecap="round" stroke-linejoin="round"/>
</svg>
