<svg width="38" height="45" viewBox="0 0 38 45" fill="none" xmlns="http://www.w3.org/2000/svg">
<path d="M14.9903 36.0378C14.9903 35.4496 14.9903 34.915 14.9903 34.4872L12.8516 29.5681H25.2027L23.0105 34.2733C23.0105 34.7011 23.0105 35.2892 23.0105 35.9843C23.0105 36.0913 23.0105 36.1982 23.0105 36.2517V42.347C23.0105 43.4699 22.1016 44.3254 21.0322 44.3254H17.0756C15.9527 44.3254 15.0972 43.4164 15.0972 42.347V36.2517C14.9903 36.1447 14.9903 36.0913 14.9903 36.0378Z" fill="#7EBB48"/>
<path d="M37.5 4.91907C37.5 2.40607 35.0939 0 32.5809 0H5.41907C2.90607 0 0.5 2.40607 0.5 4.91907V24.6488C0.5 27.1618 2.8526 29.5679 5.41907 29.5679H32.5809C35.6286 29.5679 37.5 27.1618 37.5 24.6488V4.91907ZM36.1633 4.91907V24.6488C36.1633 26.5737 34.5058 28.3382 32.5809 28.3382C32.2601 28.3382 32.5809 28.659 5.41907 28.3382C3.60116 28.3382 1.83671 26.0925 1.83671 24.6488V4.91907C1.83671 3.3685 3.54769 1.22977 5.41907 1.22977H32.5809C34.1315 1.22977 36.1633 3.31503 36.1633 4.91907Z" fill="#121212"/>
<path d="M14.1903 12.7255V10.0521L13.7091 9.62435L13.2814 10.0521V12.7255L13.7091 13.1533L14.1903 12.7255ZM13.5487 9.35701L13.121 8.87579H10.0733L9.64553 9.35701L10.0733 9.78475H13.121L13.5487 9.35701ZM14.1903 16.6822V14.0622L13.7091 13.581L13.2814 14.0087V16.6822L13.7091 17.1099L14.1903 16.6822ZM13.5487 13.3671L13.121 12.8859H10.0733L9.64553 13.3671L10.0733 13.7949H13.121L13.5487 13.3671ZM9.91287 12.7255V10.0521L9.43165 9.62435L9.00391 10.0521V12.7255L9.43165 13.1533L9.91287 12.7255ZM13.5487 17.3238L13.121 16.896H10.0733L9.59206 17.3238L10.0198 17.805H13.0675L13.5487 17.3238Z" fill="#121212"/>
<path d="M20.4442 12.7255V10.0521L19.963 9.62435L19.5353 9.99863V12.672L19.963 13.0998L20.4442 12.7255ZM19.8026 9.35701L19.3749 8.87579H16.3272L15.8994 9.35701L16.3272 9.78475H19.3749L19.8026 9.35701ZM20.4442 16.6822V14.0622L19.963 13.581L19.5353 14.0087V16.6822L19.963 17.1099L20.4442 16.6822ZM19.8026 13.3671L19.3749 12.8859H16.3272L15.8994 13.3671L16.3272 13.7949H19.3749L19.8026 13.3671ZM16.1668 12.7255V10.0521L15.6856 9.62435L15.2578 9.99863V12.672L15.6856 13.0998L16.1668 12.7255ZM19.8026 17.3238L19.3749 16.896H16.3272L15.846 17.3238L16.2737 17.805H19.3214L19.8026 17.3238ZM16.1668 16.6822V14.0622L15.6856 13.581L15.2578 14.0087V16.6822L15.6856 17.1099L16.1668 16.6822Z" fill="#121212"/>
<path d="M22.7403 17.1633L22.0987 16.5751L21.457 17.2168L22.0987 17.8584L22.7403 17.1633Z" fill="#121212"/>
<path d="M28.3573 9.35701L27.9296 8.87579H24.8819L24.4541 9.35701L24.8819 9.83822H27.9296L28.3573 9.35701ZM29.0524 16.6822V14.0622L28.5712 13.581L28.09 14.0087V16.6822L28.5177 17.1099L29.0524 16.6822ZM28.3573 13.3671L27.9296 12.8859H24.8819L24.4541 13.3671L24.8819 13.7949H27.9296L28.3573 13.3671ZM24.7749 12.7255V10.0521L24.2937 9.62435L23.8125 9.99863V12.672L24.2402 13.0998L24.7749 12.7255ZM28.3573 17.3238L27.9296 16.896H24.8819L24.4541 17.3238L24.8819 17.805H27.9296L28.3573 17.3238ZM24.7749 16.6822V14.0622L24.2937 13.581L23.8125 14.0087V16.6822L24.2402 17.1099L24.7749 16.6822Z" fill="#121212"/>
<path d="M18.9456 27.1086C19.9615 27.1086 20.817 26.3066 20.817 25.2372C20.817 24.2213 20.015 23.3658 18.9456 23.3658C17.8762 23.3658 17.0742 24.1679 17.0742 25.2372C17.1277 26.2531 17.9297 27.1086 18.9456 27.1086Z" fill="#7EBB48"/>
<path d="M7.02344 5.3468V22.4566H31.0841V5.3468H7.02344ZM29.9613 21.2269H8.19974V6.5231H29.9613V21.2269Z" fill="#121212"/>
</svg>
