<svg width="48" height="48" viewBox="0 0 48 48" fill="none" xmlns="http://www.w3.org/2000/svg">
<path d="M18.4654 25.1785C18.0256 25.0201 17.4185 24.7767 16.9876 24.4955C16.434 24.1361 16.1685 23.6584 16.1975 23.2611C16.2175 23.0021 16.3336 22.7053 16.5479 22.3928C16.876 21.9128 17.4787 21.3392 18.0479 20.7298C18.3939 20.357 18.7288 19.9708 18.9431 19.5779C19.0904 19.3101 19.1864 19.0445 19.1082 18.7788C18.2935 16.0868 18.7712 12.0644 21.6731 9.36785C23.566 7.60663 26.5036 6.3901 30.8318 6.55083C40.6626 6.9147 44.6803 18.6449 40.1625 25.6562C39.9592 25.971 39.5419 26.0603 39.2272 25.8594C38.9145 25.6563 38.8254 25.2389 39.0263 24.9241C43.0463 18.6873 39.5261 8.22498 30.7827 7.90133C26.921 7.75845 24.2825 8.78527 22.5928 10.3568C20.1172 12.6582 19.7065 16.089 20.4029 18.3882C20.5525 18.8838 20.4989 19.3905 20.2891 19.8949C20.0413 20.4887 19.5592 21.0914 19.0346 21.6517C18.5837 22.136 18.1037 22.5914 17.7845 22.9932C17.7064 23.0892 17.6328 23.1718 17.5881 23.2499C17.6841 23.3214 17.8515 23.4442 17.9899 23.5133C18.615 23.8415 19.4119 24.0714 19.4119 24.0714C19.74 24.1651 19.9453 24.4888 19.8917 24.8259L19.6998 26.029L21.3316 27.1138C21.5146 27.2366 21.6262 27.4376 21.6329 27.6563C21.6396 27.8751 21.5414 28.0827 21.3672 28.2166L20.4275 28.9331C20.7556 29.2546 21.0079 29.7412 20.9141 30.4666C20.8204 31.1988 20.4967 31.8886 21.2378 32.768C21.2534 32.7725 21.3048 32.7882 21.336 32.7926C21.4409 32.8082 21.5592 32.806 21.6887 32.7993C22.1195 32.7792 22.6396 32.6832 23.1887 32.623C24.383 32.4846 25.6776 32.5203 26.6486 33.3306C27.2937 33.8708 27.825 34.7614 28.046 36.2481C28.1018 36.6142 27.8473 36.9601 27.479 37.0137C27.1085 37.0695 26.7647 36.815 26.7089 36.4467C26.5549 35.3998 26.2357 34.748 25.7825 34.3685C25.1017 33.8015 24.1799 33.8685 23.3428 33.9645C22.6307 34.0449 21.961 34.1676 21.4499 34.1542C20.9007 34.1408 20.4856 33.969 20.2221 33.6609C19.1127 32.3618 19.4342 31.3707 19.5748 30.2947C19.6418 29.7679 19.0837 29.6764 19.0837 29.6764C18.8203 29.6273 18.6105 29.4287 18.5502 29.1675C18.4877 28.9086 18.5837 28.6362 18.798 28.4755L19.7935 27.7143L18.5904 26.913C18.3716 26.7656 18.2555 26.5045 18.298 26.2433L18.4654 25.1785Z" fill="black"/>
<path d="M14.7581 25.8641C14.7581 25.8641 13.781 26.8689 13.7285 28.2608C13.6752 29.6518 14.7181 30.9576 14.7181 30.9576C14.9535 31.2468 15.3799 31.2907 15.6686 31.0546C15.9582 30.8194 16.0017 30.393 15.7663 30.1038C15.7663 30.1038 15.0441 29.2409 15.0797 28.312C15.1125 27.4381 15.7273 26.8067 15.7273 26.8067C15.9875 26.5395 15.9804 26.1112 15.7139 25.8513C15.4457 25.5905 15.0175 25.5969 14.7581 25.8641Z" fill="#7EBB48"/>
<path d="M12.8458 20.3742C12.8458 20.3742 10.0049 23.5212 9.84939 27.8798C9.69389 32.3081 12.8069 36.451 12.8069 36.451C13.0312 36.7497 13.4559 36.8061 13.7549 36.5837C14.054 36.358 14.1108 35.933 13.8865 35.6376C13.8865 35.6376 11.0605 31.9131 11.2011 27.9262C11.3356 24.0689 13.8476 21.2805 13.8476 21.2805C14.0989 21.0016 14.0779 20.5734 13.7998 20.3244C13.5247 20.0755 13.097 20.0954 12.8458 20.3742Z" fill="#7EBB48"/>
<path d="M10.001 17.6222C10.001 17.6222 6.4656 21.8415 6.27674 27.6862C6.08033 33.6305 9.96326 39.1947 9.96326 39.1947C10.1786 39.5025 10.6016 39.5748 10.9038 39.3619C11.2097 39.1494 11.2853 38.7283 11.07 38.4204C11.07 38.4204 7.44767 33.2548 7.62895 27.727C7.80271 22.3668 11.036 18.4869 11.036 18.4869C11.2739 18.2017 11.2361 17.7761 10.9491 17.5361C10.6658 17.2962 10.239 17.3369 10.001 17.6222Z" fill="#7EBB48"/>
</svg>
